G04 #@! TF.FileFunction,Copper,L1,Top,Signal*
%FSLAX46Y46*%
G04 Gerber Fmt 4.6, Leading zero omitted, Abs format (unit mm)*
G04 Created by KiCad (PCBNEW 4.0.5) date *
%MOMM*%
%LPD*%
G01*
G04 APERTURE LIST*
%ADD10C,0.100000*%
%ADD11C,0.150000*%
%ADD12C,0.120000*%
G04 APERTURE END LIST*
D10*
D11*
X120455000Y-130615000D02*
X121030000Y-130615000D01*
X129855000Y-140015000D02*
X129280000Y-140015000D01*
X129855000Y-130615000D02*
X129280000Y-130615000D01*
X120455000Y-140015000D02*
X120455000Y-139440000D01*
X129855000Y-140015000D02*
X129855000Y-139440000D01*
X129855000Y-130615000D02*
X129855000Y-131190000D01*
X120455000Y-130615000D02*
X120455000Y-131190000D01*
D12*
X143680000Y-137195000D02*
X144380000Y-137195000D01*
X144380000Y-138395000D02*
X143680000Y-138395000D01*
X139020000Y-140315000D02*
X139020000Y-139315000D01*
X140380000Y-139315000D02*
X140380000Y-140315000D01*
X137115000Y-140315000D02*
X137115000Y-139315000D01*
X138475000Y-139315000D02*
X138475000Y-140315000D01*
X113074500Y-136299500D02*
X112374500Y-136299500D01*
X112374500Y-135099500D02*
X113074500Y-135099500D01*
X121543419Y-142911053D02*
X122038393Y-142416079D01*
X122886921Y-143264607D02*
X122391947Y-143759581D01*
X127013723Y-143800751D02*
X126518749Y-143305777D01*
X127367277Y-142457249D02*
X127862251Y-142952223D01*
X116803947Y-133925919D02*
X117298921Y-134420893D01*
X116450393Y-135269421D02*
X115955419Y-134774447D01*
X119662500Y-130408500D02*
X119662500Y-131108500D01*
X118462500Y-131108500D02*
X118462500Y-130408500D01*
X118399000Y-140292000D02*
X118399000Y-139592000D01*
X119599000Y-139592000D02*
X119599000Y-140292000D01*
X120947000Y-128559000D02*
X121647000Y-128559000D01*
X121647000Y-129759000D02*
X120947000Y-129759000D01*
X132172000Y-133254000D02*
X132172000Y-133954000D01*
X130972000Y-133954000D02*
X130972000Y-133254000D01*
X133759500Y-133266000D02*
X133759500Y-133966000D01*
X132559500Y-133966000D02*
X132559500Y-133266000D01*
X116811500Y-140292000D02*
X116811500Y-139592000D01*
X118011500Y-139592000D02*
X118011500Y-140292000D01*
X115287500Y-140304000D02*
X115287500Y-139604000D01*
X116487500Y-139604000D02*
X116487500Y-140304000D01*
X143680000Y-131480000D02*
X144380000Y-131480000D01*
X144380000Y-132680000D02*
X143680000Y-132680000D01*
X154524000Y-127995500D02*
X154524000Y-128695500D01*
X153324000Y-128695500D02*
X153324000Y-127995500D01*
X146835000Y-137625000D02*
X146835000Y-136925000D01*
X148035000Y-136925000D02*
X148035000Y-137625000D01*
X152365000Y-128670000D02*
X152365000Y-129370000D01*
X151165000Y-129370000D02*
X151165000Y-128670000D01*
X156880000Y-142070000D02*
X156880000Y-141370000D01*
X158080000Y-141370000D02*
X158080000Y-142070000D01*
X151165000Y-142070000D02*
X151165000Y-141370000D01*
X152365000Y-141370000D02*
X152365000Y-142070000D01*
X134655000Y-135720000D02*
X134655000Y-135020000D01*
X135855000Y-135020000D02*
X135855000Y-135720000D01*
X139665000Y-130980000D02*
X139665000Y-131680000D01*
X138465000Y-131680000D02*
X138465000Y-130980000D01*
X137760000Y-130980000D02*
X137760000Y-131680000D01*
X136560000Y-131680000D02*
X136560000Y-130980000D01*
X167441500Y-125404500D02*
X167441500Y-124404500D01*
X167441500Y-124404500D02*
X165341500Y-124404500D01*
X167441500Y-125404500D02*
X165341500Y-125404500D01*
X132088000Y-129040000D02*
X132088000Y-130040000D01*
X132088000Y-130040000D02*
X134188000Y-130040000D01*
X132088000Y-129040000D02*
X134188000Y-129040000D01*
X167505000Y-123690000D02*
X167505000Y-122690000D01*
X167505000Y-122690000D02*
X165405000Y-122690000D01*
X167505000Y-123690000D02*
X165405000Y-123690000D01*
X167517500Y-120388000D02*
X167517500Y-119388000D01*
X167517500Y-119388000D02*
X165417500Y-119388000D01*
X167517500Y-120388000D02*
X165417500Y-120388000D01*
X167517500Y-122039000D02*
X167517500Y-121039000D01*
X167517500Y-121039000D02*
X165417500Y-121039000D01*
X167517500Y-122039000D02*
X165417500Y-122039000D01*
X167640000Y-131580000D02*
X163290000Y-131580000D01*
X163290000Y-131580000D02*
X163290000Y-130580000D01*
X163290000Y-130580000D02*
X167640000Y-130580000D01*
X161440000Y-132880000D02*
X161440000Y-133230000D01*
X161440000Y-133230000D02*
X159840000Y-133230000D01*
X159840000Y-133230000D02*
X159840000Y-134130000D01*
X159840000Y-134130000D02*
X167640000Y-134130000D01*
X167640000Y-134130000D02*
X167640000Y-128030000D01*
X167640000Y-128030000D02*
X159840000Y-128030000D01*
X159840000Y-128030000D02*
X159840000Y-128930000D01*
X159840000Y-128930000D02*
X161440000Y-128930000D01*
X161440000Y-128930000D02*
X161440000Y-129280000D01*
X161440000Y-134130000D02*
X161440000Y-133230000D01*
X161440000Y-128030000D02*
X161440000Y-128930000D01*
X163790000Y-133380000D02*
X165390000Y-133380000D01*
X165390000Y-133380000D02*
X165390000Y-132380000D01*
X165390000Y-132380000D02*
X163790000Y-132380000D01*
X163790000Y-132380000D02*
X163790000Y-133380000D01*
X163790000Y-128780000D02*
X165390000Y-128780000D01*
X165390000Y-128780000D02*
X165390000Y-129780000D01*
X165390000Y-129780000D02*
X163790000Y-129780000D01*
X163790000Y-129780000D02*
X163790000Y-128780000D01*
X165390000Y-132380000D02*
X167640000Y-132380000D01*
X165390000Y-132880000D02*
X167640000Y-132880000D01*
X161440000Y-132880000D02*
X160240000Y-132880000D01*
X101600000Y-122770000D02*
X105950000Y-122770000D01*
X105950000Y-122770000D02*
X105950000Y-127770000D01*
X105950000Y-127770000D02*
X101600000Y-127770000D01*
X107800000Y-121470000D02*
X107800000Y-121120000D01*
X107800000Y-121120000D02*
X109400000Y-121120000D01*
X109400000Y-121120000D02*
X109400000Y-120220000D01*
X109400000Y-120220000D02*
X101600000Y-120220000D01*
X101600000Y-120220000D02*
X101600000Y-130320000D01*
X101600000Y-130320000D02*
X109400000Y-130320000D01*
X109400000Y-130320000D02*
X109400000Y-129420000D01*
X109400000Y-129420000D02*
X107800000Y-129420000D01*
X107800000Y-129420000D02*
X107800000Y-129070000D01*
X107800000Y-120220000D02*
X107800000Y-121120000D01*
X107800000Y-130320000D02*
X107800000Y-129420000D01*
X105450000Y-120970000D02*
X103850000Y-120970000D01*
X103850000Y-120970000D02*
X103850000Y-121970000D01*
X103850000Y-121970000D02*
X105450000Y-121970000D01*
X105450000Y-121970000D02*
X105450000Y-120970000D01*
X105450000Y-129570000D02*
X103850000Y-129570000D01*
X103850000Y-129570000D02*
X103850000Y-128570000D01*
X103850000Y-128570000D02*
X105450000Y-128570000D01*
X105450000Y-128570000D02*
X105450000Y-129570000D01*
X103850000Y-121970000D02*
X101600000Y-121970000D01*
X103850000Y-121470000D02*
X101600000Y-121470000D01*
X107800000Y-121470000D02*
X109000000Y-121470000D01*
X101600000Y-134295000D02*
X105950000Y-134295000D01*
X105950000Y-134295000D02*
X105950000Y-139295000D01*
X105950000Y-139295000D02*
X101600000Y-139295000D01*
X107800000Y-132995000D02*
X107800000Y-132645000D01*
X107800000Y-132645000D02*
X109400000Y-132645000D01*
X109400000Y-132645000D02*
X109400000Y-131745000D01*
X109400000Y-131745000D02*
X101600000Y-131745000D01*
X101600000Y-131745000D02*
X101600000Y-141845000D01*
X101600000Y-141845000D02*
X109400000Y-141845000D01*
X109400000Y-141845000D02*
X109400000Y-140945000D01*
X109400000Y-140945000D02*
X107800000Y-140945000D01*
X107800000Y-140945000D02*
X107800000Y-140595000D01*
X107800000Y-131745000D02*
X107800000Y-132645000D01*
X107800000Y-141845000D02*
X107800000Y-140945000D01*
X105450000Y-132495000D02*
X103850000Y-132495000D01*
X103850000Y-132495000D02*
X103850000Y-133495000D01*
X103850000Y-133495000D02*
X105450000Y-133495000D01*
X105450000Y-133495000D02*
X105450000Y-132495000D01*
X105450000Y-141095000D02*
X103850000Y-141095000D01*
X103850000Y-141095000D02*
X103850000Y-140095000D01*
X103850000Y-140095000D02*
X105450000Y-140095000D01*
X105450000Y-140095000D02*
X105450000Y-141095000D01*
X103850000Y-133495000D02*
X101600000Y-133495000D01*
X103850000Y-132995000D02*
X101600000Y-132995000D01*
X107800000Y-132995000D02*
X109000000Y-132995000D01*
X118435000Y-118745000D02*
X118435000Y-123095000D01*
X118435000Y-123095000D02*
X113435000Y-123095000D01*
X113435000Y-123095000D02*
X113435000Y-118745000D01*
X119735000Y-124945000D02*
X120085000Y-124945000D01*
X120085000Y-124945000D02*
X120085000Y-126545000D01*
X120085000Y-126545000D02*
X120985000Y-126545000D01*
X120985000Y-126545000D02*
X120985000Y-118745000D01*
X120985000Y-118745000D02*
X110885000Y-118745000D01*
X110885000Y-118745000D02*
X110885000Y-126545000D01*
X110885000Y-126545000D02*
X111785000Y-126545000D01*
X111785000Y-126545000D02*
X111785000Y-124945000D01*
X111785000Y-124945000D02*
X112135000Y-124945000D01*
X120985000Y-124945000D02*
X120085000Y-124945000D01*
X110885000Y-124945000D02*
X111785000Y-124945000D01*
X120235000Y-122595000D02*
X120235000Y-120995000D01*
X120235000Y-120995000D02*
X119235000Y-120995000D01*
X119235000Y-120995000D02*
X119235000Y-122595000D01*
X119235000Y-122595000D02*
X120235000Y-122595000D01*
X111635000Y-122595000D02*
X111635000Y-120995000D01*
X111635000Y-120995000D02*
X112635000Y-120995000D01*
X112635000Y-120995000D02*
X112635000Y-122595000D01*
X112635000Y-122595000D02*
X111635000Y-122595000D01*
X119235000Y-120995000D02*
X119235000Y-118745000D01*
X119735000Y-120995000D02*
X119735000Y-118745000D01*
X119735000Y-124945000D02*
X119735000Y-126145000D01*
X124960000Y-153670000D02*
X124960000Y-149320000D01*
X124960000Y-149320000D02*
X129960000Y-149320000D01*
X129960000Y-149320000D02*
X129960000Y-153670000D01*
X123660000Y-147470000D02*
X123310000Y-147470000D01*
X123310000Y-147470000D02*
X123310000Y-145870000D01*
X123310000Y-145870000D02*
X122410000Y-145870000D01*
X122410000Y-145870000D02*
X122410000Y-153670000D01*
X122410000Y-153670000D02*
X132510000Y-153670000D01*
X132510000Y-153670000D02*
X132510000Y-145870000D01*
X132510000Y-145870000D02*
X131610000Y-145870000D01*
X131610000Y-145870000D02*
X131610000Y-147470000D01*
X131610000Y-147470000D02*
X131260000Y-147470000D01*
X122410000Y-147470000D02*
X123310000Y-147470000D01*
X132510000Y-147470000D02*
X131610000Y-147470000D01*
X123160000Y-149820000D02*
X123160000Y-151420000D01*
X123160000Y-151420000D02*
X124160000Y-151420000D01*
X124160000Y-151420000D02*
X124160000Y-149820000D01*
X124160000Y-149820000D02*
X123160000Y-149820000D01*
X131760000Y-149820000D02*
X131760000Y-151420000D01*
X131760000Y-151420000D02*
X130760000Y-151420000D01*
X130760000Y-151420000D02*
X130760000Y-149820000D01*
X130760000Y-149820000D02*
X131760000Y-149820000D01*
X124160000Y-151420000D02*
X124160000Y-153670000D01*
X123660000Y-151420000D02*
X123660000Y-153670000D01*
X123660000Y-147470000D02*
X123660000Y-146270000D01*
X101600000Y-145725000D02*
X105950000Y-145725000D01*
X105950000Y-145725000D02*
X105950000Y-150725000D01*
X105950000Y-150725000D02*
X101600000Y-150725000D01*
X107800000Y-144425000D02*
X107800000Y-144075000D01*
X107800000Y-144075000D02*
X109400000Y-144075000D01*
X109400000Y-144075000D02*
X109400000Y-143175000D01*
X109400000Y-143175000D02*
X101600000Y-143175000D01*
X101600000Y-143175000D02*
X101600000Y-153275000D01*
X101600000Y-153275000D02*
X109400000Y-153275000D01*
X109400000Y-153275000D02*
X109400000Y-152375000D01*
X109400000Y-152375000D02*
X107800000Y-152375000D01*
X107800000Y-152375000D02*
X107800000Y-152025000D01*
X107800000Y-143175000D02*
X107800000Y-144075000D01*
X107800000Y-153275000D02*
X107800000Y-152375000D01*
X105450000Y-143925000D02*
X103850000Y-143925000D01*
X103850000Y-143925000D02*
X103850000Y-144925000D01*
X103850000Y-144925000D02*
X105450000Y-144925000D01*
X105450000Y-144925000D02*
X105450000Y-143925000D01*
X105450000Y-152525000D02*
X103850000Y-152525000D01*
X103850000Y-152525000D02*
X103850000Y-151525000D01*
X103850000Y-151525000D02*
X105450000Y-151525000D01*
X105450000Y-151525000D02*
X105450000Y-152525000D01*
X103850000Y-144925000D02*
X101600000Y-144925000D01*
X103850000Y-144425000D02*
X101600000Y-144425000D01*
X107800000Y-144425000D02*
X109000000Y-144425000D01*
X113530000Y-153670000D02*
X113530000Y-149320000D01*
X113530000Y-149320000D02*
X118530000Y-149320000D01*
X118530000Y-149320000D02*
X118530000Y-153670000D01*
X112230000Y-147470000D02*
X111880000Y-147470000D01*
X111880000Y-147470000D02*
X111880000Y-145870000D01*
X111880000Y-145870000D02*
X110980000Y-145870000D01*
X110980000Y-145870000D02*
X110980000Y-153670000D01*
X110980000Y-153670000D02*
X121080000Y-153670000D01*
X121080000Y-153670000D02*
X121080000Y-145870000D01*
X121080000Y-145870000D02*
X120180000Y-145870000D01*
X120180000Y-145870000D02*
X120180000Y-147470000D01*
X120180000Y-147470000D02*
X119830000Y-147470000D01*
X110980000Y-147470000D02*
X111880000Y-147470000D01*
X121080000Y-147470000D02*
X120180000Y-147470000D01*
X111730000Y-149820000D02*
X111730000Y-151420000D01*
X111730000Y-151420000D02*
X112730000Y-151420000D01*
X112730000Y-151420000D02*
X112730000Y-149820000D01*
X112730000Y-149820000D02*
X111730000Y-149820000D01*
X120330000Y-149820000D02*
X120330000Y-151420000D01*
X120330000Y-151420000D02*
X119330000Y-151420000D01*
X119330000Y-151420000D02*
X119330000Y-149820000D01*
X119330000Y-149820000D02*
X120330000Y-149820000D01*
X112730000Y-151420000D02*
X112730000Y-153670000D01*
X112230000Y-151420000D02*
X112230000Y-153670000D01*
X112230000Y-147470000D02*
X112230000Y-146270000D01*
X129865000Y-118745000D02*
X129865000Y-123095000D01*
X129865000Y-123095000D02*
X124865000Y-123095000D01*
X124865000Y-123095000D02*
X124865000Y-118745000D01*
X131165000Y-124945000D02*
X131515000Y-124945000D01*
X131515000Y-124945000D02*
X131515000Y-126545000D01*
X131515000Y-126545000D02*
X132415000Y-126545000D01*
X132415000Y-126545000D02*
X132415000Y-118745000D01*
X132415000Y-118745000D02*
X122315000Y-118745000D01*
X122315000Y-118745000D02*
X122315000Y-126545000D01*
X122315000Y-126545000D02*
X123215000Y-126545000D01*
X123215000Y-126545000D02*
X123215000Y-124945000D01*
X123215000Y-124945000D02*
X123565000Y-124945000D01*
X132415000Y-124945000D02*
X131515000Y-124945000D01*
X122315000Y-124945000D02*
X123215000Y-124945000D01*
X131665000Y-122595000D02*
X131665000Y-120995000D01*
X131665000Y-120995000D02*
X130665000Y-120995000D01*
X130665000Y-120995000D02*
X130665000Y-122595000D01*
X130665000Y-122595000D02*
X131665000Y-122595000D01*
X123065000Y-122595000D02*
X123065000Y-120995000D01*
X123065000Y-120995000D02*
X124065000Y-120995000D01*
X124065000Y-120995000D02*
X124065000Y-122595000D01*
X124065000Y-122595000D02*
X123065000Y-122595000D01*
X130665000Y-120995000D02*
X130665000Y-118745000D01*
X131165000Y-120995000D02*
X131165000Y-118745000D01*
X131165000Y-124945000D02*
X131165000Y-126145000D01*
X145835000Y-118745000D02*
X145835000Y-123095000D01*
X145835000Y-123095000D02*
X136835000Y-123095000D01*
X136835000Y-123095000D02*
X136835000Y-118745000D01*
X147135000Y-124945000D02*
X147485000Y-124945000D01*
X147485000Y-124945000D02*
X147485000Y-126545000D01*
X147485000Y-126545000D02*
X148385000Y-126545000D01*
X148385000Y-126545000D02*
X148385000Y-118745000D01*
X148385000Y-118745000D02*
X134285000Y-118745000D01*
X134285000Y-118745000D02*
X134285000Y-126545000D01*
X134285000Y-126545000D02*
X135185000Y-126545000D01*
X135185000Y-126545000D02*
X135185000Y-124945000D01*
X135185000Y-124945000D02*
X135535000Y-124945000D01*
X148385000Y-124945000D02*
X147485000Y-124945000D01*
X134285000Y-124945000D02*
X135185000Y-124945000D01*
X147635000Y-122595000D02*
X147635000Y-120995000D01*
X147635000Y-120995000D02*
X146635000Y-120995000D01*
X146635000Y-120995000D02*
X146635000Y-122595000D01*
X146635000Y-122595000D02*
X147635000Y-122595000D01*
X135035000Y-122595000D02*
X135035000Y-120995000D01*
X135035000Y-120995000D02*
X136035000Y-120995000D01*
X136035000Y-120995000D02*
X136035000Y-122595000D01*
X136035000Y-122595000D02*
X135035000Y-122595000D01*
X146635000Y-120995000D02*
X146635000Y-118745000D01*
X147135000Y-120995000D02*
X147135000Y-118745000D01*
X147135000Y-124945000D02*
X147135000Y-126145000D01*
X167640000Y-151265000D02*
X163290000Y-151265000D01*
X163290000Y-151265000D02*
X163290000Y-148265000D01*
X163290000Y-148265000D02*
X167640000Y-148265000D01*
X161440000Y-152565000D02*
X161440000Y-152915000D01*
X161440000Y-152915000D02*
X159840000Y-152915000D01*
X159840000Y-152915000D02*
X159840000Y-153815000D01*
X159840000Y-153815000D02*
X167640000Y-153815000D01*
X167640000Y-153815000D02*
X167640000Y-145715000D01*
X167640000Y-145715000D02*
X159840000Y-145715000D01*
X159840000Y-145715000D02*
X159840000Y-146615000D01*
X159840000Y-146615000D02*
X161440000Y-146615000D01*
X161440000Y-146615000D02*
X161440000Y-146965000D01*
X161440000Y-153815000D02*
X161440000Y-152915000D01*
X161440000Y-145715000D02*
X161440000Y-146615000D01*
X163790000Y-153065000D02*
X165390000Y-153065000D01*
X165390000Y-153065000D02*
X165390000Y-152065000D01*
X165390000Y-152065000D02*
X163790000Y-152065000D01*
X163790000Y-152065000D02*
X163790000Y-153065000D01*
X163790000Y-146465000D02*
X165390000Y-146465000D01*
X165390000Y-146465000D02*
X165390000Y-147465000D01*
X165390000Y-147465000D02*
X163790000Y-147465000D01*
X163790000Y-147465000D02*
X163790000Y-146465000D01*
X165390000Y-152065000D02*
X167640000Y-152065000D01*
X165390000Y-152565000D02*
X167640000Y-152565000D01*
X161440000Y-152565000D02*
X160240000Y-152565000D01*
X167640000Y-141740000D02*
X163290000Y-141740000D01*
X163290000Y-141740000D02*
X163290000Y-138740000D01*
X163290000Y-138740000D02*
X167640000Y-138740000D01*
X161440000Y-143040000D02*
X161440000Y-143390000D01*
X161440000Y-143390000D02*
X159840000Y-143390000D01*
X159840000Y-143390000D02*
X159840000Y-144290000D01*
X159840000Y-144290000D02*
X167640000Y-144290000D01*
X167640000Y-144290000D02*
X167640000Y-136190000D01*
X167640000Y-136190000D02*
X159840000Y-136190000D01*
X159840000Y-136190000D02*
X159840000Y-137090000D01*
X159840000Y-137090000D02*
X161440000Y-137090000D01*
X161440000Y-137090000D02*
X161440000Y-137440000D01*
X161440000Y-144290000D02*
X161440000Y-143390000D01*
X161440000Y-136190000D02*
X161440000Y-137090000D01*
X163790000Y-143540000D02*
X165390000Y-143540000D01*
X165390000Y-143540000D02*
X165390000Y-142540000D01*
X165390000Y-142540000D02*
X163790000Y-142540000D01*
X163790000Y-142540000D02*
X163790000Y-143540000D01*
X163790000Y-136940000D02*
X165390000Y-136940000D01*
X165390000Y-136940000D02*
X165390000Y-137940000D01*
X165390000Y-137940000D02*
X163790000Y-137940000D01*
X163790000Y-137940000D02*
X163790000Y-136940000D01*
X165390000Y-142540000D02*
X167640000Y-142540000D01*
X165390000Y-143040000D02*
X167640000Y-143040000D01*
X161440000Y-143040000D02*
X160240000Y-143040000D01*
X137915000Y-153670000D02*
X137915000Y-149320000D01*
X137915000Y-149320000D02*
X144915000Y-149320000D01*
X144915000Y-149320000D02*
X144915000Y-153670000D01*
X136615000Y-147470000D02*
X136265000Y-147470000D01*
X136265000Y-147470000D02*
X136265000Y-145870000D01*
X136265000Y-145870000D02*
X135365000Y-145870000D01*
X135365000Y-145870000D02*
X135365000Y-153670000D01*
X135365000Y-153670000D02*
X147465000Y-153670000D01*
X147465000Y-153670000D02*
X147465000Y-145870000D01*
X147465000Y-145870000D02*
X146565000Y-145870000D01*
X146565000Y-145870000D02*
X146565000Y-147470000D01*
X146565000Y-147470000D02*
X146215000Y-147470000D01*
X135365000Y-147470000D02*
X136265000Y-147470000D01*
X147465000Y-147470000D02*
X146565000Y-147470000D01*
X136115000Y-149820000D02*
X136115000Y-151420000D01*
X136115000Y-151420000D02*
X137115000Y-151420000D01*
X137115000Y-151420000D02*
X137115000Y-149820000D01*
X137115000Y-149820000D02*
X136115000Y-149820000D01*
X146715000Y-149820000D02*
X146715000Y-151420000D01*
X146715000Y-151420000D02*
X145715000Y-151420000D01*
X145715000Y-151420000D02*
X145715000Y-149820000D01*
X145715000Y-149820000D02*
X146715000Y-149820000D01*
X137115000Y-151420000D02*
X137115000Y-153670000D01*
X136615000Y-151420000D02*
X136615000Y-153670000D01*
X136615000Y-147470000D02*
X136615000Y-146270000D01*
X151535000Y-153670000D02*
X151535000Y-149320000D01*
X151535000Y-149320000D02*
X154535000Y-149320000D01*
X154535000Y-149320000D02*
X154535000Y-153670000D01*
X150235000Y-147470000D02*
X149885000Y-147470000D01*
X149885000Y-147470000D02*
X149885000Y-145870000D01*
X149885000Y-145870000D02*
X148985000Y-145870000D01*
X148985000Y-145870000D02*
X148985000Y-153670000D01*
X148985000Y-153670000D02*
X157085000Y-153670000D01*
X157085000Y-153670000D02*
X157085000Y-145870000D01*
X157085000Y-145870000D02*
X156185000Y-145870000D01*
X156185000Y-145870000D02*
X156185000Y-147470000D01*
X156185000Y-147470000D02*
X155835000Y-147470000D01*
X148985000Y-147470000D02*
X149885000Y-147470000D01*
X157085000Y-147470000D02*
X156185000Y-147470000D01*
X149735000Y-149820000D02*
X149735000Y-151420000D01*
X149735000Y-151420000D02*
X150735000Y-151420000D01*
X150735000Y-151420000D02*
X150735000Y-149820000D01*
X150735000Y-149820000D02*
X149735000Y-149820000D01*
X156335000Y-149820000D02*
X156335000Y-151420000D01*
X156335000Y-151420000D02*
X155335000Y-151420000D01*
X155335000Y-151420000D02*
X155335000Y-149820000D01*
X155335000Y-149820000D02*
X156335000Y-149820000D01*
X150735000Y-151420000D02*
X150735000Y-153670000D01*
X150235000Y-151420000D02*
X150235000Y-153670000D01*
X150235000Y-147470000D02*
X150235000Y-146270000D01*
X157970000Y-130485000D02*
X157970000Y-129555000D01*
X157970000Y-127325000D02*
X157970000Y-128255000D01*
X157970000Y-127325000D02*
X155810000Y-127325000D01*
X157970000Y-130485000D02*
X156510000Y-130485000D01*
X165564500Y-125939000D02*
X166564500Y-125939000D01*
X166564500Y-127299000D02*
X165564500Y-127299000D01*
X113923000Y-128632500D02*
X112923000Y-128632500D01*
X112923000Y-127272500D02*
X113923000Y-127272500D01*
X112923000Y-129177500D02*
X113923000Y-129177500D01*
X113923000Y-130537500D02*
X112923000Y-130537500D01*
X127996000Y-129839000D02*
X126996000Y-129839000D01*
X126996000Y-128479000D02*
X127996000Y-128479000D01*
X130814000Y-129839000D02*
X129814000Y-129839000D01*
X129814000Y-128479000D02*
X130814000Y-128479000D01*
X130892000Y-140275500D02*
X130892000Y-139275500D01*
X132252000Y-139275500D02*
X132252000Y-140275500D01*
X133838000Y-128569000D02*
X132838000Y-128569000D01*
X132838000Y-127209000D02*
X133838000Y-127209000D01*
X125202000Y-129331000D02*
X124202000Y-129331000D01*
X124202000Y-127971000D02*
X125202000Y-127971000D01*
X110994000Y-142576000D02*
X111994000Y-142576000D01*
X111994000Y-143936000D02*
X110994000Y-143936000D01*
X163516500Y-125584500D02*
X162516500Y-125584500D01*
X162516500Y-124224500D02*
X163516500Y-124224500D01*
X163516500Y-127299000D02*
X162516500Y-127299000D01*
X162516500Y-125939000D02*
X163516500Y-125939000D01*
X163516500Y-123870000D02*
X162516500Y-123870000D01*
X162516500Y-122510000D02*
X163516500Y-122510000D01*
X163516500Y-120568000D02*
X162516500Y-120568000D01*
X162516500Y-119208000D02*
X163516500Y-119208000D01*
X163516500Y-122219000D02*
X162516500Y-122219000D01*
X162516500Y-120859000D02*
X163516500Y-120859000D01*
X156255000Y-141220000D02*
X156255000Y-142220000D01*
X154895000Y-142220000D02*
X154895000Y-141220000D01*
X154350000Y-141220000D02*
X154350000Y-142220000D01*
X152990000Y-142220000D02*
X152990000Y-141220000D01*
X157752500Y-132846000D02*
X157752500Y-131846000D01*
X159112500Y-131846000D02*
X159112500Y-132846000D01*
X144417500Y-140593000D02*
X144417500Y-139593000D01*
X145777500Y-139593000D02*
X145777500Y-140593000D01*
X142322000Y-140593000D02*
X142322000Y-139593000D01*
X143682000Y-139593000D02*
X143682000Y-140593000D01*
X135210000Y-140315000D02*
X135210000Y-139315000D01*
X136570000Y-139315000D02*
X136570000Y-140315000D01*
X133305000Y-140315000D02*
X133305000Y-139315000D01*
X134665000Y-139315000D02*
X134665000Y-140315000D01*
D11*
X161325000Y-126460000D02*
X161325000Y-118910000D01*
X161325000Y-118910000D02*
X149825000Y-118910000D01*
X161325000Y-126460000D02*
X149825000Y-126460000D01*
X149825000Y-126460000D02*
X149825000Y-118910000D01*
X156225000Y-131235000D02*
X156225000Y-132185000D01*
X148925000Y-138535000D02*
X148925000Y-137585000D01*
X156225000Y-138535000D02*
X156225000Y-137585000D01*
X148925000Y-131235000D02*
X149875000Y-131235000D01*
X148925000Y-138535000D02*
X149875000Y-138535000D01*
X156225000Y-138535000D02*
X155275000Y-138535000D01*
X156225000Y-131235000D02*
X155275000Y-131235000D01*
X139800000Y-133925000D02*
X139800000Y-134325000D01*
X139800000Y-133925000D02*
X139400000Y-133925000D01*
X136600000Y-133925000D02*
X136600000Y-134325000D01*
X136600000Y-133925000D02*
X137000000Y-133925000D01*
X136600000Y-137125000D02*
X136600000Y-136725000D01*
X136600000Y-137125000D02*
X137000000Y-137125000D01*
X139800000Y-137125000D02*
X139400000Y-137125000D01*
D12*
X146315000Y-136690000D02*
X146315000Y-133190000D01*
X146315000Y-133190000D02*
X142115000Y-133190000D01*
X130972000Y-137053500D02*
X130972000Y-136353500D01*
X132172000Y-136353500D02*
X132172000Y-137053500D01*
X147148500Y-139036500D02*
X147848500Y-139036500D01*
X147848500Y-140236500D02*
X147148500Y-140236500D01*
X111119000Y-137196000D02*
X111119000Y-139796000D01*
X111119000Y-139796000D02*
X114319000Y-139796000D01*
D11*
X118732381Y-136076905D02*
X119541905Y-136076905D01*
X119637143Y-136029286D01*
X119684762Y-135981667D01*
X119732381Y-135886429D01*
X119732381Y-135695952D01*
X119684762Y-135600714D01*
X119637143Y-135553095D01*
X119541905Y-135505476D01*
X118732381Y-135505476D01*
X118827619Y-135076905D02*
X118780000Y-135029286D01*
X118732381Y-134934048D01*
X118732381Y-134695952D01*
X118780000Y-134600714D01*
X118827619Y-134553095D01*
X118922857Y-134505476D01*
X119018095Y-134505476D01*
X119160952Y-134553095D01*
X119732381Y-135124524D01*
X119732381Y-134505476D01*
X140581143Y-138088643D02*
X140533524Y-138136262D01*
X140390667Y-138183881D01*
X140295429Y-138183881D01*
X140152571Y-138136262D01*
X140057333Y-138041024D01*
X140009714Y-137945786D01*
X139962095Y-137755310D01*
X139962095Y-137612452D01*
X140009714Y-137421976D01*
X140057333Y-137326738D01*
X140152571Y-137231500D01*
X140295429Y-137183881D01*
X140390667Y-137183881D01*
X140533524Y-137231500D01*
X140581143Y-137279119D01*
X141533524Y-138183881D02*
X140962095Y-138183881D01*
X141247809Y-138183881D02*
X141247809Y-137183881D01*
X141152571Y-137326738D01*
X141057333Y-137421976D01*
X140962095Y-137469595D01*
X141866857Y-137183881D02*
X142485905Y-137183881D01*
X142152571Y-137564833D01*
X142295429Y-137564833D01*
X142390667Y-137612452D01*
X142438286Y-137660071D01*
X142485905Y-137755310D01*
X142485905Y-137993405D01*
X142438286Y-138088643D01*
X142390667Y-138136262D01*
X142295429Y-138183881D01*
X142009714Y-138183881D01*
X141914476Y-138136262D01*
X141866857Y-138088643D01*
X140279381Y-143263857D02*
X139803190Y-143597191D01*
X140279381Y-143835286D02*
X139279381Y-143835286D01*
X139279381Y-143454333D01*
X139327000Y-143359095D01*
X139374619Y-143311476D01*
X139469857Y-143263857D01*
X139612714Y-143263857D01*
X139707952Y-143311476D01*
X139755571Y-143359095D01*
X139803190Y-143454333D01*
X139803190Y-143835286D01*
X139374619Y-142882905D02*
X139327000Y-142835286D01*
X139279381Y-142740048D01*
X139279381Y-142501952D01*
X139327000Y-142406714D01*
X139374619Y-142359095D01*
X139469857Y-142311476D01*
X139565095Y-142311476D01*
X139707952Y-142359095D01*
X140279381Y-142930524D01*
X140279381Y-142311476D01*
X139279381Y-141978143D02*
X139279381Y-141359095D01*
X139660333Y-141692429D01*
X139660333Y-141549571D01*
X139707952Y-141454333D01*
X139755571Y-141406714D01*
X139850810Y-141359095D01*
X140088905Y-141359095D01*
X140184143Y-141406714D01*
X140231762Y-141454333D01*
X140279381Y-141549571D01*
X140279381Y-141835286D01*
X140231762Y-141930524D01*
X140184143Y-141978143D01*
X138247381Y-143263857D02*
X137771190Y-143597191D01*
X138247381Y-143835286D02*
X137247381Y-143835286D01*
X137247381Y-143454333D01*
X137295000Y-143359095D01*
X137342619Y-143311476D01*
X137437857Y-143263857D01*
X137580714Y-143263857D01*
X137675952Y-143311476D01*
X137723571Y-143359095D01*
X137771190Y-143454333D01*
X137771190Y-143835286D01*
X137342619Y-142882905D02*
X137295000Y-142835286D01*
X137247381Y-142740048D01*
X137247381Y-142501952D01*
X137295000Y-142406714D01*
X137342619Y-142359095D01*
X137437857Y-142311476D01*
X137533095Y-142311476D01*
X137675952Y-142359095D01*
X138247381Y-142930524D01*
X138247381Y-142311476D01*
X137342619Y-141930524D02*
X137295000Y-141882905D01*
X137247381Y-141787667D01*
X137247381Y-141549571D01*
X137295000Y-141454333D01*
X137342619Y-141406714D01*
X137437857Y-141359095D01*
X137533095Y-141359095D01*
X137675952Y-141406714D01*
X138247381Y-141978143D01*
X138247381Y-141359095D01*
X112557834Y-134556643D02*
X112510215Y-134604262D01*
X112367358Y-134651881D01*
X112272120Y-134651881D01*
X112129262Y-134604262D01*
X112034024Y-134509024D01*
X111986405Y-134413786D01*
X111938786Y-134223310D01*
X111938786Y-134080452D01*
X111986405Y-133889976D01*
X112034024Y-133794738D01*
X112129262Y-133699500D01*
X112272120Y-133651881D01*
X112367358Y-133651881D01*
X112510215Y-133699500D01*
X112557834Y-133747119D01*
X113510215Y-134651881D02*
X112938786Y-134651881D01*
X113224500Y-134651881D02*
X113224500Y-133651881D01*
X113129262Y-133794738D01*
X113034024Y-133889976D01*
X112938786Y-133937595D01*
X123410518Y-144518879D02*
X123410518Y-144586222D01*
X123343174Y-144720909D01*
X123275831Y-144788253D01*
X123141143Y-144855597D01*
X123006456Y-144855597D01*
X122905441Y-144821925D01*
X122737083Y-144720910D01*
X122636067Y-144619894D01*
X122535052Y-144451535D01*
X122501380Y-144350520D01*
X122501380Y-144215833D01*
X122568724Y-144081146D01*
X122636067Y-144013802D01*
X122770754Y-143946459D01*
X122838098Y-143946459D01*
X123107471Y-143677085D02*
X123107471Y-143609742D01*
X123141143Y-143508727D01*
X123309502Y-143340367D01*
X123410518Y-143306696D01*
X123477861Y-143306696D01*
X123578876Y-143340367D01*
X123646220Y-143407711D01*
X123713563Y-143542398D01*
X123713563Y-144350520D01*
X124151296Y-143912787D01*
X127880771Y-142203028D02*
X127813428Y-142203028D01*
X127678741Y-142135684D01*
X127611397Y-142068341D01*
X127544053Y-141933653D01*
X127544053Y-141798966D01*
X127577725Y-141697951D01*
X127678740Y-141529593D01*
X127779756Y-141428577D01*
X127948115Y-141327562D01*
X128049130Y-141293890D01*
X128183817Y-141293890D01*
X128318504Y-141361234D01*
X128385848Y-141428577D01*
X128453191Y-141563264D01*
X128453191Y-141630608D01*
X128756236Y-141798966D02*
X129193970Y-142236699D01*
X128688893Y-142270370D01*
X128789909Y-142371386D01*
X128823581Y-142472401D01*
X128823581Y-142539745D01*
X128789908Y-142640761D01*
X128621550Y-142809119D01*
X128520534Y-142842791D01*
X128453191Y-142842791D01*
X128352176Y-142809119D01*
X128150145Y-142607088D01*
X128116473Y-142506073D01*
X128116473Y-142438730D01*
X115196121Y-135793018D02*
X115128778Y-135793018D01*
X114994091Y-135725674D01*
X114926747Y-135658331D01*
X114859403Y-135523643D01*
X114859403Y-135388956D01*
X114893075Y-135287941D01*
X114994090Y-135119583D01*
X115095106Y-135018567D01*
X115263465Y-134917552D01*
X115364480Y-134883880D01*
X115499167Y-134883880D01*
X115633854Y-134951224D01*
X115701198Y-135018567D01*
X115768541Y-135153254D01*
X115768541Y-135220598D01*
X116206274Y-135995048D02*
X115734869Y-136466453D01*
X116307288Y-135557315D02*
X115633853Y-135894033D01*
X116071586Y-136331766D01*
X117919643Y-130925166D02*
X117967262Y-130972785D01*
X118014881Y-131115642D01*
X118014881Y-131210880D01*
X117967262Y-131353738D01*
X117872024Y-131448976D01*
X117776786Y-131496595D01*
X117586310Y-131544214D01*
X117443452Y-131544214D01*
X117252976Y-131496595D01*
X117157738Y-131448976D01*
X117062500Y-131353738D01*
X117014881Y-131210880D01*
X117014881Y-131115642D01*
X117062500Y-130972785D01*
X117110119Y-130925166D01*
X117014881Y-130020404D02*
X117014881Y-130496595D01*
X117491071Y-130544214D01*
X117443452Y-130496595D01*
X117395833Y-130401357D01*
X117395833Y-130163261D01*
X117443452Y-130068023D01*
X117491071Y-130020404D01*
X117586310Y-129972785D01*
X117824405Y-129972785D01*
X117919643Y-130020404D01*
X117967262Y-130068023D01*
X118014881Y-130163261D01*
X118014881Y-130401357D01*
X117967262Y-130496595D01*
X117919643Y-130544214D01*
X119419643Y-142660666D02*
X119467262Y-142708285D01*
X119514881Y-142851142D01*
X119514881Y-142946380D01*
X119467262Y-143089238D01*
X119372024Y-143184476D01*
X119276786Y-143232095D01*
X119086310Y-143279714D01*
X118943452Y-143279714D01*
X118752976Y-143232095D01*
X118657738Y-143184476D01*
X118562500Y-143089238D01*
X118514881Y-142946380D01*
X118514881Y-142851142D01*
X118562500Y-142708285D01*
X118610119Y-142660666D01*
X118514881Y-141803523D02*
X118514881Y-141994000D01*
X118562500Y-142089238D01*
X118610119Y-142136857D01*
X118752976Y-142232095D01*
X118943452Y-142279714D01*
X119324405Y-142279714D01*
X119419643Y-142232095D01*
X119467262Y-142184476D01*
X119514881Y-142089238D01*
X119514881Y-141898761D01*
X119467262Y-141803523D01*
X119419643Y-141755904D01*
X119324405Y-141708285D01*
X119086310Y-141708285D01*
X118991071Y-141755904D01*
X118943452Y-141803523D01*
X118895833Y-141898761D01*
X118895833Y-142089238D01*
X118943452Y-142184476D01*
X118991071Y-142232095D01*
X119086310Y-142279714D01*
X121816834Y-128373143D02*
X121769215Y-128420762D01*
X121626358Y-128468381D01*
X121531120Y-128468381D01*
X121388262Y-128420762D01*
X121293024Y-128325524D01*
X121245405Y-128230286D01*
X121197786Y-128039810D01*
X121197786Y-127896952D01*
X121245405Y-127706476D01*
X121293024Y-127611238D01*
X121388262Y-127516000D01*
X121531120Y-127468381D01*
X121626358Y-127468381D01*
X121769215Y-127516000D01*
X121816834Y-127563619D01*
X122150167Y-127468381D02*
X122816834Y-127468381D01*
X122388262Y-128468381D01*
X131929143Y-131421166D02*
X131976762Y-131468785D01*
X132024381Y-131611642D01*
X132024381Y-131706880D01*
X131976762Y-131849738D01*
X131881524Y-131944976D01*
X131786286Y-131992595D01*
X131595810Y-132040214D01*
X131452952Y-132040214D01*
X131262476Y-131992595D01*
X131167238Y-131944976D01*
X131072000Y-131849738D01*
X131024381Y-131706880D01*
X131024381Y-131611642D01*
X131072000Y-131468785D01*
X131119619Y-131421166D01*
X131452952Y-130849738D02*
X131405333Y-130944976D01*
X131357714Y-130992595D01*
X131262476Y-131040214D01*
X131214857Y-131040214D01*
X131119619Y-130992595D01*
X131072000Y-130944976D01*
X131024381Y-130849738D01*
X131024381Y-130659261D01*
X131072000Y-130564023D01*
X131119619Y-130516404D01*
X131214857Y-130468785D01*
X131262476Y-130468785D01*
X131357714Y-130516404D01*
X131405333Y-130564023D01*
X131452952Y-130659261D01*
X131452952Y-130849738D01*
X131500571Y-130944976D01*
X131548190Y-130992595D01*
X131643429Y-131040214D01*
X131833905Y-131040214D01*
X131929143Y-130992595D01*
X131976762Y-130944976D01*
X132024381Y-130849738D01*
X132024381Y-130659261D01*
X131976762Y-130564023D01*
X131929143Y-130516404D01*
X131833905Y-130468785D01*
X131643429Y-130468785D01*
X131548190Y-130516404D01*
X131500571Y-130564023D01*
X131452952Y-130659261D01*
X133580143Y-131421166D02*
X133627762Y-131468785D01*
X133675381Y-131611642D01*
X133675381Y-131706880D01*
X133627762Y-131849738D01*
X133532524Y-131944976D01*
X133437286Y-131992595D01*
X133246810Y-132040214D01*
X133103952Y-132040214D01*
X132913476Y-131992595D01*
X132818238Y-131944976D01*
X132723000Y-131849738D01*
X132675381Y-131706880D01*
X132675381Y-131611642D01*
X132723000Y-131468785D01*
X132770619Y-131421166D01*
X133675381Y-130944976D02*
X133675381Y-130754500D01*
X133627762Y-130659261D01*
X133580143Y-130611642D01*
X133437286Y-130516404D01*
X133246810Y-130468785D01*
X132865857Y-130468785D01*
X132770619Y-130516404D01*
X132723000Y-130564023D01*
X132675381Y-130659261D01*
X132675381Y-130849738D01*
X132723000Y-130944976D01*
X132770619Y-130992595D01*
X132865857Y-131040214D01*
X133103952Y-131040214D01*
X133199190Y-130992595D01*
X133246810Y-130944976D01*
X133294429Y-130849738D01*
X133294429Y-130659261D01*
X133246810Y-130564023D01*
X133199190Y-130516404D01*
X133103952Y-130468785D01*
X117768643Y-143581357D02*
X117816262Y-143628976D01*
X117863881Y-143771833D01*
X117863881Y-143867071D01*
X117816262Y-144009929D01*
X117721024Y-144105167D01*
X117625786Y-144152786D01*
X117435310Y-144200405D01*
X117292452Y-144200405D01*
X117101976Y-144152786D01*
X117006738Y-144105167D01*
X116911500Y-144009929D01*
X116863881Y-143867071D01*
X116863881Y-143771833D01*
X116911500Y-143628976D01*
X116959119Y-143581357D01*
X117863881Y-142628976D02*
X117863881Y-143200405D01*
X117863881Y-142914691D02*
X116863881Y-142914691D01*
X117006738Y-143009929D01*
X117101976Y-143105167D01*
X117149595Y-143200405D01*
X116863881Y-142009929D02*
X116863881Y-141914690D01*
X116911500Y-141819452D01*
X116959119Y-141771833D01*
X117054357Y-141724214D01*
X117244833Y-141676595D01*
X117482929Y-141676595D01*
X117673405Y-141724214D01*
X117768643Y-141771833D01*
X117816262Y-141819452D01*
X117863881Y-141914690D01*
X117863881Y-142009929D01*
X117816262Y-142105167D01*
X117768643Y-142152786D01*
X117673405Y-142200405D01*
X117482929Y-142248024D01*
X117244833Y-142248024D01*
X117054357Y-142200405D01*
X116959119Y-142152786D01*
X116911500Y-142105167D01*
X116863881Y-142009929D01*
X116244643Y-143454357D02*
X116292262Y-143501976D01*
X116339881Y-143644833D01*
X116339881Y-143740071D01*
X116292262Y-143882929D01*
X116197024Y-143978167D01*
X116101786Y-144025786D01*
X115911310Y-144073405D01*
X115768452Y-144073405D01*
X115577976Y-144025786D01*
X115482738Y-143978167D01*
X115387500Y-143882929D01*
X115339881Y-143740071D01*
X115339881Y-143644833D01*
X115387500Y-143501976D01*
X115435119Y-143454357D01*
X116339881Y-142501976D02*
X116339881Y-143073405D01*
X116339881Y-142787691D02*
X115339881Y-142787691D01*
X115482738Y-142882929D01*
X115577976Y-142978167D01*
X115625595Y-143073405D01*
X116339881Y-141549595D02*
X116339881Y-142121024D01*
X116339881Y-141835310D02*
X115339881Y-141835310D01*
X115482738Y-141930548D01*
X115577976Y-142025786D01*
X115625595Y-142121024D01*
X144073643Y-131167143D02*
X144026024Y-131214762D01*
X143883167Y-131262381D01*
X143787929Y-131262381D01*
X143645071Y-131214762D01*
X143549833Y-131119524D01*
X143502214Y-131024286D01*
X143454595Y-130833810D01*
X143454595Y-130690952D01*
X143502214Y-130500476D01*
X143549833Y-130405238D01*
X143645071Y-130310000D01*
X143787929Y-130262381D01*
X143883167Y-130262381D01*
X144026024Y-130310000D01*
X144073643Y-130357619D01*
X145026024Y-131262381D02*
X144454595Y-131262381D01*
X144740309Y-131262381D02*
X144740309Y-130262381D01*
X144645071Y-130405238D01*
X144549833Y-130500476D01*
X144454595Y-130548095D01*
X145406976Y-130357619D02*
X145454595Y-130310000D01*
X145549833Y-130262381D01*
X145787929Y-130262381D01*
X145883167Y-130310000D01*
X145930786Y-130357619D01*
X145978405Y-130452857D01*
X145978405Y-130548095D01*
X145930786Y-130690952D01*
X145359357Y-131262381D01*
X145978405Y-131262381D01*
X153201643Y-128976357D02*
X153249262Y-129023976D01*
X153296881Y-129166833D01*
X153296881Y-129262071D01*
X153249262Y-129404929D01*
X153154024Y-129500167D01*
X153058786Y-129547786D01*
X152868310Y-129595405D01*
X152725452Y-129595405D01*
X152534976Y-129547786D01*
X152439738Y-129500167D01*
X152344500Y-129404929D01*
X152296881Y-129262071D01*
X152296881Y-129166833D01*
X152344500Y-129023976D01*
X152392119Y-128976357D01*
X153296881Y-128023976D02*
X153296881Y-128595405D01*
X153296881Y-128309691D02*
X152296881Y-128309691D01*
X152439738Y-128404929D01*
X152534976Y-128500167D01*
X152582595Y-128595405D01*
X152630214Y-127166833D02*
X153296881Y-127166833D01*
X152249262Y-127404929D02*
X152963548Y-127643024D01*
X152963548Y-127023976D01*
X147867643Y-135072357D02*
X147915262Y-135119976D01*
X147962881Y-135262833D01*
X147962881Y-135358071D01*
X147915262Y-135500929D01*
X147820024Y-135596167D01*
X147724786Y-135643786D01*
X147534310Y-135691405D01*
X147391452Y-135691405D01*
X147200976Y-135643786D01*
X147105738Y-135596167D01*
X147010500Y-135500929D01*
X146962881Y-135358071D01*
X146962881Y-135262833D01*
X147010500Y-135119976D01*
X147058119Y-135072357D01*
X147962881Y-134119976D02*
X147962881Y-134691405D01*
X147962881Y-134405691D02*
X146962881Y-134405691D01*
X147105738Y-134500929D01*
X147200976Y-134596167D01*
X147248595Y-134691405D01*
X146962881Y-133215214D02*
X146962881Y-133691405D01*
X147439071Y-133739024D01*
X147391452Y-133691405D01*
X147343833Y-133596167D01*
X147343833Y-133358071D01*
X147391452Y-133262833D01*
X147439071Y-133215214D01*
X147534310Y-133167595D01*
X147772405Y-133167595D01*
X147867643Y-133215214D01*
X147915262Y-133262833D01*
X147962881Y-133358071D01*
X147962881Y-133596167D01*
X147915262Y-133691405D01*
X147867643Y-133739024D01*
X150622143Y-129662857D02*
X150669762Y-129710476D01*
X150717381Y-129853333D01*
X150717381Y-129948571D01*
X150669762Y-130091429D01*
X150574524Y-130186667D01*
X150479286Y-130234286D01*
X150288810Y-130281905D01*
X150145952Y-130281905D01*
X149955476Y-130234286D01*
X149860238Y-130186667D01*
X149765000Y-130091429D01*
X149717381Y-129948571D01*
X149717381Y-129853333D01*
X149765000Y-129710476D01*
X149812619Y-129662857D01*
X150717381Y-128710476D02*
X150717381Y-129281905D01*
X150717381Y-128996191D02*
X149717381Y-128996191D01*
X149860238Y-129091429D01*
X149955476Y-129186667D01*
X150003095Y-129281905D01*
X149717381Y-127853333D02*
X149717381Y-128043810D01*
X149765000Y-128139048D01*
X149812619Y-128186667D01*
X149955476Y-128281905D01*
X150145952Y-128329524D01*
X150526905Y-128329524D01*
X150622143Y-128281905D01*
X150669762Y-128234286D01*
X150717381Y-128139048D01*
X150717381Y-127948571D01*
X150669762Y-127853333D01*
X150622143Y-127805714D01*
X150526905Y-127758095D01*
X150288810Y-127758095D01*
X150193571Y-127805714D01*
X150145952Y-127853333D01*
X150098333Y-127948571D01*
X150098333Y-128139048D01*
X150145952Y-128234286D01*
X150193571Y-128281905D01*
X150288810Y-128329524D01*
X157900643Y-145168857D02*
X157948262Y-145216476D01*
X157995881Y-145359333D01*
X157995881Y-145454571D01*
X157948262Y-145597429D01*
X157853024Y-145692667D01*
X157757786Y-145740286D01*
X157567310Y-145787905D01*
X157424452Y-145787905D01*
X157233976Y-145740286D01*
X157138738Y-145692667D01*
X157043500Y-145597429D01*
X156995881Y-145454571D01*
X156995881Y-145359333D01*
X157043500Y-145216476D01*
X157091119Y-145168857D01*
X157995881Y-144216476D02*
X157995881Y-144787905D01*
X157995881Y-144502191D02*
X156995881Y-144502191D01*
X157138738Y-144597429D01*
X157233976Y-144692667D01*
X157281595Y-144787905D01*
X156995881Y-143883143D02*
X156995881Y-143216476D01*
X157995881Y-143645048D01*
X152185643Y-145232357D02*
X152233262Y-145279976D01*
X152280881Y-145422833D01*
X152280881Y-145518071D01*
X152233262Y-145660929D01*
X152138024Y-145756167D01*
X152042786Y-145803786D01*
X151852310Y-145851405D01*
X151709452Y-145851405D01*
X151518976Y-145803786D01*
X151423738Y-145756167D01*
X151328500Y-145660929D01*
X151280881Y-145518071D01*
X151280881Y-145422833D01*
X151328500Y-145279976D01*
X151376119Y-145232357D01*
X152280881Y-144279976D02*
X152280881Y-144851405D01*
X152280881Y-144565691D02*
X151280881Y-144565691D01*
X151423738Y-144660929D01*
X151518976Y-144756167D01*
X151566595Y-144851405D01*
X151709452Y-143708548D02*
X151661833Y-143803786D01*
X151614214Y-143851405D01*
X151518976Y-143899024D01*
X151471357Y-143899024D01*
X151376119Y-143851405D01*
X151328500Y-143803786D01*
X151280881Y-143708548D01*
X151280881Y-143518071D01*
X151328500Y-143422833D01*
X151376119Y-143375214D01*
X151471357Y-143327595D01*
X151518976Y-143327595D01*
X151614214Y-143375214D01*
X151661833Y-143422833D01*
X151709452Y-143518071D01*
X151709452Y-143708548D01*
X151757071Y-143803786D01*
X151804690Y-143851405D01*
X151899929Y-143899024D01*
X152090405Y-143899024D01*
X152185643Y-143851405D01*
X152233262Y-143803786D01*
X152280881Y-143708548D01*
X152280881Y-143518071D01*
X152233262Y-143422833D01*
X152185643Y-143375214D01*
X152090405Y-143327595D01*
X151899929Y-143327595D01*
X151804690Y-143375214D01*
X151757071Y-143422833D01*
X151709452Y-143518071D01*
X134596143Y-137485357D02*
X134643762Y-137532976D01*
X134691381Y-137675833D01*
X134691381Y-137771071D01*
X134643762Y-137913929D01*
X134548524Y-138009167D01*
X134453286Y-138056786D01*
X134262810Y-138104405D01*
X134119952Y-138104405D01*
X133929476Y-138056786D01*
X133834238Y-138009167D01*
X133739000Y-137913929D01*
X133691381Y-137771071D01*
X133691381Y-137675833D01*
X133739000Y-137532976D01*
X133786619Y-137485357D01*
X134691381Y-136532976D02*
X134691381Y-137104405D01*
X134691381Y-136818691D02*
X133691381Y-136818691D01*
X133834238Y-136913929D01*
X133929476Y-137009167D01*
X133977095Y-137104405D01*
X134691381Y-136056786D02*
X134691381Y-135866310D01*
X134643762Y-135771071D01*
X134596143Y-135723452D01*
X134453286Y-135628214D01*
X134262810Y-135580595D01*
X133881857Y-135580595D01*
X133786619Y-135628214D01*
X133739000Y-135675833D01*
X133691381Y-135771071D01*
X133691381Y-135961548D01*
X133739000Y-136056786D01*
X133786619Y-136104405D01*
X133881857Y-136152024D01*
X134119952Y-136152024D01*
X134215190Y-136104405D01*
X134262810Y-136056786D01*
X134310429Y-135961548D01*
X134310429Y-135771071D01*
X134262810Y-135675833D01*
X134215190Y-135628214D01*
X134119952Y-135580595D01*
X139422143Y-129039857D02*
X139469762Y-129087476D01*
X139517381Y-129230333D01*
X139517381Y-129325571D01*
X139469762Y-129468429D01*
X139374524Y-129563667D01*
X139279286Y-129611286D01*
X139088810Y-129658905D01*
X138945952Y-129658905D01*
X138755476Y-129611286D01*
X138660238Y-129563667D01*
X138565000Y-129468429D01*
X138517381Y-129325571D01*
X138517381Y-129230333D01*
X138565000Y-129087476D01*
X138612619Y-129039857D01*
X138612619Y-128658905D02*
X138565000Y-128611286D01*
X138517381Y-128516048D01*
X138517381Y-128277952D01*
X138565000Y-128182714D01*
X138612619Y-128135095D01*
X138707857Y-128087476D01*
X138803095Y-128087476D01*
X138945952Y-128135095D01*
X139517381Y-128706524D01*
X139517381Y-128087476D01*
X138517381Y-127468429D02*
X138517381Y-127373190D01*
X138565000Y-127277952D01*
X138612619Y-127230333D01*
X138707857Y-127182714D01*
X138898333Y-127135095D01*
X139136429Y-127135095D01*
X139326905Y-127182714D01*
X139422143Y-127230333D01*
X139469762Y-127277952D01*
X139517381Y-127373190D01*
X139517381Y-127468429D01*
X139469762Y-127563667D01*
X139422143Y-127611286D01*
X139326905Y-127658905D01*
X139136429Y-127706524D01*
X138898333Y-127706524D01*
X138707857Y-127658905D01*
X138612619Y-127611286D01*
X138565000Y-127563667D01*
X138517381Y-127468429D01*
X137517143Y-129039857D02*
X137564762Y-129087476D01*
X137612381Y-129230333D01*
X137612381Y-129325571D01*
X137564762Y-129468429D01*
X137469524Y-129563667D01*
X137374286Y-129611286D01*
X137183810Y-129658905D01*
X137040952Y-129658905D01*
X136850476Y-129611286D01*
X136755238Y-129563667D01*
X136660000Y-129468429D01*
X136612381Y-129325571D01*
X136612381Y-129230333D01*
X136660000Y-129087476D01*
X136707619Y-129039857D01*
X136707619Y-128658905D02*
X136660000Y-128611286D01*
X136612381Y-128516048D01*
X136612381Y-128277952D01*
X136660000Y-128182714D01*
X136707619Y-128135095D01*
X136802857Y-128087476D01*
X136898095Y-128087476D01*
X137040952Y-128135095D01*
X137612381Y-128706524D01*
X137612381Y-128087476D01*
X137612381Y-127135095D02*
X137612381Y-127706524D01*
X137612381Y-127420810D02*
X136612381Y-127420810D01*
X136755238Y-127516048D01*
X136850476Y-127611286D01*
X136898095Y-127706524D01*
X167790905Y-125420381D02*
X167790905Y-124420381D01*
X168029000Y-124420381D01*
X168171858Y-124468000D01*
X168267096Y-124563238D01*
X168314715Y-124658476D01*
X168362334Y-124848952D01*
X168362334Y-124991810D01*
X168314715Y-125182286D01*
X168267096Y-125277524D01*
X168171858Y-125372762D01*
X168029000Y-125420381D01*
X167790905Y-125420381D01*
X169314715Y-125420381D02*
X168743286Y-125420381D01*
X169029000Y-125420381D02*
X169029000Y-124420381D01*
X168933762Y-124563238D01*
X168838524Y-124658476D01*
X168743286Y-124706095D01*
X134453405Y-131389381D02*
X134453405Y-130389381D01*
X134691500Y-130389381D01*
X134834358Y-130437000D01*
X134929596Y-130532238D01*
X134977215Y-130627476D01*
X135024834Y-130817952D01*
X135024834Y-130960810D01*
X134977215Y-131151286D01*
X134929596Y-131246524D01*
X134834358Y-131341762D01*
X134691500Y-131389381D01*
X134453405Y-131389381D01*
X135405786Y-130484619D02*
X135453405Y-130437000D01*
X135548643Y-130389381D01*
X135786739Y-130389381D01*
X135881977Y-130437000D01*
X135929596Y-130484619D01*
X135977215Y-130579857D01*
X135977215Y-130675095D01*
X135929596Y-130817952D01*
X135358167Y-131389381D01*
X135977215Y-131389381D01*
X167917905Y-123642381D02*
X167917905Y-122642381D01*
X168156000Y-122642381D01*
X168298858Y-122690000D01*
X168394096Y-122785238D01*
X168441715Y-122880476D01*
X168489334Y-123070952D01*
X168489334Y-123213810D01*
X168441715Y-123404286D01*
X168394096Y-123499524D01*
X168298858Y-123594762D01*
X168156000Y-123642381D01*
X167917905Y-123642381D01*
X168822667Y-122642381D02*
X169441715Y-122642381D01*
X169108381Y-123023333D01*
X169251239Y-123023333D01*
X169346477Y-123070952D01*
X169394096Y-123118571D01*
X169441715Y-123213810D01*
X169441715Y-123451905D01*
X169394096Y-123547143D01*
X169346477Y-123594762D01*
X169251239Y-123642381D01*
X168965524Y-123642381D01*
X168870286Y-123594762D01*
X168822667Y-123547143D01*
X167854405Y-120403881D02*
X167854405Y-119403881D01*
X168092500Y-119403881D01*
X168235358Y-119451500D01*
X168330596Y-119546738D01*
X168378215Y-119641976D01*
X168425834Y-119832452D01*
X168425834Y-119975310D01*
X168378215Y-120165786D01*
X168330596Y-120261024D01*
X168235358Y-120356262D01*
X168092500Y-120403881D01*
X167854405Y-120403881D01*
X169282977Y-119737214D02*
X169282977Y-120403881D01*
X169044881Y-119356262D02*
X168806786Y-120070548D01*
X169425834Y-120070548D01*
X167854405Y-122118381D02*
X167854405Y-121118381D01*
X168092500Y-121118381D01*
X168235358Y-121166000D01*
X168330596Y-121261238D01*
X168378215Y-121356476D01*
X168425834Y-121546952D01*
X168425834Y-121689810D01*
X168378215Y-121880286D01*
X168330596Y-121975524D01*
X168235358Y-122070762D01*
X168092500Y-122118381D01*
X167854405Y-122118381D01*
X169330596Y-121118381D02*
X168854405Y-121118381D01*
X168806786Y-121594571D01*
X168854405Y-121546952D01*
X168949643Y-121499333D01*
X169187739Y-121499333D01*
X169282977Y-121546952D01*
X169330596Y-121594571D01*
X169378215Y-121689810D01*
X169378215Y-121927905D01*
X169330596Y-122023143D01*
X169282977Y-122070762D01*
X169187739Y-122118381D01*
X168949643Y-122118381D01*
X168854405Y-122070762D01*
X168806786Y-122023143D01*
X162393381Y-133365833D02*
X163107667Y-133365833D01*
X163250524Y-133413453D01*
X163345762Y-133508691D01*
X163393381Y-133651548D01*
X163393381Y-133746786D01*
X163393381Y-132365833D02*
X163393381Y-132937262D01*
X163393381Y-132651548D02*
X162393381Y-132651548D01*
X162536238Y-132746786D01*
X162631476Y-132842024D01*
X162679095Y-132937262D01*
X109852381Y-124103333D02*
X110566667Y-124103333D01*
X110709524Y-124150953D01*
X110804762Y-124246191D01*
X110852381Y-124389048D01*
X110852381Y-124484286D01*
X109947619Y-123674762D02*
X109900000Y-123627143D01*
X109852381Y-123531905D01*
X109852381Y-123293809D01*
X109900000Y-123198571D01*
X109947619Y-123150952D01*
X110042857Y-123103333D01*
X110138095Y-123103333D01*
X110280952Y-123150952D01*
X110852381Y-123722381D01*
X110852381Y-123103333D01*
X109852381Y-135628333D02*
X110566667Y-135628333D01*
X110709524Y-135675953D01*
X110804762Y-135771191D01*
X110852381Y-135914048D01*
X110852381Y-136009286D01*
X109852381Y-135247381D02*
X109852381Y-134628333D01*
X110233333Y-134961667D01*
X110233333Y-134818809D01*
X110280952Y-134723571D01*
X110328571Y-134675952D01*
X110423810Y-134628333D01*
X110661905Y-134628333D01*
X110757143Y-134675952D01*
X110804762Y-134723571D01*
X110852381Y-134818809D01*
X110852381Y-135104524D01*
X110804762Y-135199762D01*
X110757143Y-135247381D01*
X117101667Y-126997381D02*
X117101667Y-127711667D01*
X117054047Y-127854524D01*
X116958809Y-127949762D01*
X116815952Y-127997381D01*
X116720714Y-127997381D01*
X118006429Y-127330714D02*
X118006429Y-127997381D01*
X117768333Y-126949762D02*
X117530238Y-127664048D01*
X118149286Y-127664048D01*
X125626667Y-144322381D02*
X125626667Y-145036667D01*
X125579047Y-145179524D01*
X125483809Y-145274762D01*
X125340952Y-145322381D01*
X125245714Y-145322381D01*
X126579048Y-144322381D02*
X126102857Y-144322381D01*
X126055238Y-144798571D01*
X126102857Y-144750952D01*
X126198095Y-144703333D01*
X126436191Y-144703333D01*
X126531429Y-144750952D01*
X126579048Y-144798571D01*
X126626667Y-144893810D01*
X126626667Y-145131905D01*
X126579048Y-145227143D01*
X126531429Y-145274762D01*
X126436191Y-145322381D01*
X126198095Y-145322381D01*
X126102857Y-145274762D01*
X126055238Y-145227143D01*
X109852381Y-147058333D02*
X110566667Y-147058333D01*
X110709524Y-147105953D01*
X110804762Y-147201191D01*
X110852381Y-147344048D01*
X110852381Y-147439286D01*
X109852381Y-146153571D02*
X109852381Y-146344048D01*
X109900000Y-146439286D01*
X109947619Y-146486905D01*
X110090476Y-146582143D01*
X110280952Y-146629762D01*
X110661905Y-146629762D01*
X110757143Y-146582143D01*
X110804762Y-146534524D01*
X110852381Y-146439286D01*
X110852381Y-146248809D01*
X110804762Y-146153571D01*
X110757143Y-146105952D01*
X110661905Y-146058333D01*
X110423810Y-146058333D01*
X110328571Y-146105952D01*
X110280952Y-146153571D01*
X110233333Y-146248809D01*
X110233333Y-146439286D01*
X110280952Y-146534524D01*
X110328571Y-146582143D01*
X110423810Y-146629762D01*
X114196667Y-144322381D02*
X114196667Y-145036667D01*
X114149047Y-145179524D01*
X114053809Y-145274762D01*
X113910952Y-145322381D01*
X113815714Y-145322381D01*
X114577619Y-144322381D02*
X115244286Y-144322381D01*
X114815714Y-145322381D01*
X126984167Y-120419881D02*
X126984167Y-121134167D01*
X126936547Y-121277024D01*
X126841309Y-121372262D01*
X126698452Y-121419881D01*
X126603214Y-121419881D01*
X127603214Y-120848452D02*
X127507976Y-120800833D01*
X127460357Y-120753214D01*
X127412738Y-120657976D01*
X127412738Y-120610357D01*
X127460357Y-120515119D01*
X127507976Y-120467500D01*
X127603214Y-120419881D01*
X127793691Y-120419881D01*
X127888929Y-120467500D01*
X127936548Y-120515119D01*
X127984167Y-120610357D01*
X127984167Y-120657976D01*
X127936548Y-120753214D01*
X127888929Y-120800833D01*
X127793691Y-120848452D01*
X127603214Y-120848452D01*
X127507976Y-120896071D01*
X127460357Y-120943690D01*
X127412738Y-121038929D01*
X127412738Y-121229405D01*
X127460357Y-121324643D01*
X127507976Y-121372262D01*
X127603214Y-121419881D01*
X127793691Y-121419881D01*
X127888929Y-121372262D01*
X127936548Y-121324643D01*
X127984167Y-121229405D01*
X127984167Y-121038929D01*
X127936548Y-120943690D01*
X127888929Y-120896071D01*
X127793691Y-120848452D01*
X144501667Y-126997381D02*
X144501667Y-127711667D01*
X144454047Y-127854524D01*
X144358809Y-127949762D01*
X144215952Y-127997381D01*
X144120714Y-127997381D01*
X145025476Y-127997381D02*
X145215952Y-127997381D01*
X145311191Y-127949762D01*
X145358810Y-127902143D01*
X145454048Y-127759286D01*
X145501667Y-127568810D01*
X145501667Y-127187857D01*
X145454048Y-127092619D01*
X145406429Y-127045000D01*
X145311191Y-126997381D01*
X145120714Y-126997381D01*
X145025476Y-127045000D01*
X144977857Y-127092619D01*
X144930238Y-127187857D01*
X144930238Y-127425952D01*
X144977857Y-127521190D01*
X145025476Y-127568810D01*
X145120714Y-127616429D01*
X145311191Y-127616429D01*
X145406429Y-127568810D01*
X145454048Y-127521190D01*
X145501667Y-127425952D01*
X158292381Y-151074523D02*
X159006667Y-151074523D01*
X159149524Y-151122143D01*
X159244762Y-151217381D01*
X159292381Y-151360238D01*
X159292381Y-151455476D01*
X159292381Y-150074523D02*
X159292381Y-150645952D01*
X159292381Y-150360238D02*
X158292381Y-150360238D01*
X158435238Y-150455476D01*
X158530476Y-150550714D01*
X158578095Y-150645952D01*
X158292381Y-149455476D02*
X158292381Y-149360237D01*
X158340000Y-149264999D01*
X158387619Y-149217380D01*
X158482857Y-149169761D01*
X158673333Y-149122142D01*
X158911429Y-149122142D01*
X159101905Y-149169761D01*
X159197143Y-149217380D01*
X159244762Y-149264999D01*
X159292381Y-149360237D01*
X159292381Y-149455476D01*
X159244762Y-149550714D01*
X159197143Y-149598333D01*
X159101905Y-149645952D01*
X158911429Y-149693571D01*
X158673333Y-149693571D01*
X158482857Y-149645952D01*
X158387619Y-149598333D01*
X158340000Y-149550714D01*
X158292381Y-149455476D01*
X158292381Y-141549523D02*
X159006667Y-141549523D01*
X159149524Y-141597143D01*
X159244762Y-141692381D01*
X159292381Y-141835238D01*
X159292381Y-141930476D01*
X159292381Y-140549523D02*
X159292381Y-141120952D01*
X159292381Y-140835238D02*
X158292381Y-140835238D01*
X158435238Y-140930476D01*
X158530476Y-141025714D01*
X158578095Y-141120952D01*
X159292381Y-139597142D02*
X159292381Y-140168571D01*
X159292381Y-139882857D02*
X158292381Y-139882857D01*
X158435238Y-139978095D01*
X158530476Y-140073333D01*
X158578095Y-140168571D01*
X138105477Y-144322381D02*
X138105477Y-145036667D01*
X138057857Y-145179524D01*
X137962619Y-145274762D01*
X137819762Y-145322381D01*
X137724524Y-145322381D01*
X139105477Y-145322381D02*
X138534048Y-145322381D01*
X138819762Y-145322381D02*
X138819762Y-144322381D01*
X138724524Y-144465238D01*
X138629286Y-144560476D01*
X138534048Y-144608095D01*
X139486429Y-144417619D02*
X139534048Y-144370000D01*
X139629286Y-144322381D01*
X139867382Y-144322381D01*
X139962620Y-144370000D01*
X140010239Y-144417619D01*
X140057858Y-144512857D01*
X140057858Y-144608095D01*
X140010239Y-144750952D01*
X139438810Y-145322381D01*
X140057858Y-145322381D01*
X152098477Y-150010881D02*
X152098477Y-150725167D01*
X152050857Y-150868024D01*
X151955619Y-150963262D01*
X151812762Y-151010881D01*
X151717524Y-151010881D01*
X153098477Y-151010881D02*
X152527048Y-151010881D01*
X152812762Y-151010881D02*
X152812762Y-150010881D01*
X152717524Y-150153738D01*
X152622286Y-150248976D01*
X152527048Y-150296595D01*
X153431810Y-150010881D02*
X154050858Y-150010881D01*
X153717524Y-150391833D01*
X153860382Y-150391833D01*
X153955620Y-150439452D01*
X154003239Y-150487071D01*
X154050858Y-150582310D01*
X154050858Y-150820405D01*
X154003239Y-150915643D01*
X153955620Y-150963262D01*
X153860382Y-151010881D01*
X153574667Y-151010881D01*
X153479429Y-150963262D01*
X153431810Y-150915643D01*
X158972262Y-130849619D02*
X158877024Y-130802000D01*
X158781786Y-130706762D01*
X158638929Y-130563905D01*
X158543690Y-130516286D01*
X158448452Y-130516286D01*
X158496071Y-130754381D02*
X158400833Y-130706762D01*
X158305595Y-130611524D01*
X158257976Y-130421048D01*
X158257976Y-130087714D01*
X158305595Y-129897238D01*
X158400833Y-129802000D01*
X158496071Y-129754381D01*
X158686548Y-129754381D01*
X158781786Y-129802000D01*
X158877024Y-129897238D01*
X158924643Y-130087714D01*
X158924643Y-130421048D01*
X158877024Y-130611524D01*
X158781786Y-130706762D01*
X158686548Y-130754381D01*
X158496071Y-130754381D01*
X159877024Y-130754381D02*
X159305595Y-130754381D01*
X159591309Y-130754381D02*
X159591309Y-129754381D01*
X159496071Y-129897238D01*
X159400833Y-129992476D01*
X159305595Y-130040095D01*
X168235334Y-127198381D02*
X167902000Y-126722190D01*
X167663905Y-127198381D02*
X167663905Y-126198381D01*
X168044858Y-126198381D01*
X168140096Y-126246000D01*
X168187715Y-126293619D01*
X168235334Y-126388857D01*
X168235334Y-126531714D01*
X168187715Y-126626952D01*
X168140096Y-126674571D01*
X168044858Y-126722190D01*
X167663905Y-126722190D01*
X169187715Y-127198381D02*
X168616286Y-127198381D01*
X168902000Y-127198381D02*
X168902000Y-126198381D01*
X168806762Y-126341238D01*
X168711524Y-126436476D01*
X168616286Y-126484095D01*
X115403334Y-128531881D02*
X115070000Y-128055690D01*
X114831905Y-128531881D02*
X114831905Y-127531881D01*
X115212858Y-127531881D01*
X115308096Y-127579500D01*
X115355715Y-127627119D01*
X115403334Y-127722357D01*
X115403334Y-127865214D01*
X115355715Y-127960452D01*
X115308096Y-128008071D01*
X115212858Y-128055690D01*
X114831905Y-128055690D01*
X115784286Y-127627119D02*
X115831905Y-127579500D01*
X115927143Y-127531881D01*
X116165239Y-127531881D01*
X116260477Y-127579500D01*
X116308096Y-127627119D01*
X116355715Y-127722357D01*
X116355715Y-127817595D01*
X116308096Y-127960452D01*
X115736667Y-128531881D01*
X116355715Y-128531881D01*
X115466834Y-130309881D02*
X115133500Y-129833690D01*
X114895405Y-130309881D02*
X114895405Y-129309881D01*
X115276358Y-129309881D01*
X115371596Y-129357500D01*
X115419215Y-129405119D01*
X115466834Y-129500357D01*
X115466834Y-129643214D01*
X115419215Y-129738452D01*
X115371596Y-129786071D01*
X115276358Y-129833690D01*
X114895405Y-129833690D01*
X115800167Y-129309881D02*
X116419215Y-129309881D01*
X116085881Y-129690833D01*
X116228739Y-129690833D01*
X116323977Y-129738452D01*
X116371596Y-129786071D01*
X116419215Y-129881310D01*
X116419215Y-130119405D01*
X116371596Y-130214643D01*
X116323977Y-130262262D01*
X116228739Y-130309881D01*
X115943024Y-130309881D01*
X115847786Y-130262262D01*
X115800167Y-130214643D01*
X127329334Y-128161381D02*
X126996000Y-127685190D01*
X126757905Y-128161381D02*
X126757905Y-127161381D01*
X127138858Y-127161381D01*
X127234096Y-127209000D01*
X127281715Y-127256619D01*
X127329334Y-127351857D01*
X127329334Y-127494714D01*
X127281715Y-127589952D01*
X127234096Y-127637571D01*
X127138858Y-127685190D01*
X126757905Y-127685190D01*
X128186477Y-127494714D02*
X128186477Y-128161381D01*
X127948381Y-127113762D02*
X127710286Y-127828048D01*
X128329334Y-127828048D01*
X130516334Y-128214381D02*
X130183000Y-127738190D01*
X129944905Y-128214381D02*
X129944905Y-127214381D01*
X130325858Y-127214381D01*
X130421096Y-127262000D01*
X130468715Y-127309619D01*
X130516334Y-127404857D01*
X130516334Y-127547714D01*
X130468715Y-127642952D01*
X130421096Y-127690571D01*
X130325858Y-127738190D01*
X129944905Y-127738190D01*
X131421096Y-127214381D02*
X130944905Y-127214381D01*
X130897286Y-127690571D01*
X130944905Y-127642952D01*
X131040143Y-127595333D01*
X131278239Y-127595333D01*
X131373477Y-127642952D01*
X131421096Y-127690571D01*
X131468715Y-127785810D01*
X131468715Y-128023905D01*
X131421096Y-128119143D01*
X131373477Y-128166762D01*
X131278239Y-128214381D01*
X131040143Y-128214381D01*
X130944905Y-128166762D01*
X130897286Y-128119143D01*
X131960881Y-142152666D02*
X131484690Y-142486000D01*
X131960881Y-142724095D02*
X130960881Y-142724095D01*
X130960881Y-142343142D01*
X131008500Y-142247904D01*
X131056119Y-142200285D01*
X131151357Y-142152666D01*
X131294214Y-142152666D01*
X131389452Y-142200285D01*
X131437071Y-142247904D01*
X131484690Y-142343142D01*
X131484690Y-142724095D01*
X130960881Y-141295523D02*
X130960881Y-141486000D01*
X131008500Y-141581238D01*
X131056119Y-141628857D01*
X131198976Y-141724095D01*
X131389452Y-141771714D01*
X131770405Y-141771714D01*
X131865643Y-141724095D01*
X131913262Y-141676476D01*
X131960881Y-141581238D01*
X131960881Y-141390761D01*
X131913262Y-141295523D01*
X131865643Y-141247904D01*
X131770405Y-141200285D01*
X131532310Y-141200285D01*
X131437071Y-141247904D01*
X131389452Y-141295523D01*
X131341833Y-141390761D01*
X131341833Y-141581238D01*
X131389452Y-141676476D01*
X131437071Y-141724095D01*
X131532310Y-141771714D01*
X135278834Y-128531881D02*
X134945500Y-128055690D01*
X134707405Y-128531881D02*
X134707405Y-127531881D01*
X135088358Y-127531881D01*
X135183596Y-127579500D01*
X135231215Y-127627119D01*
X135278834Y-127722357D01*
X135278834Y-127865214D01*
X135231215Y-127960452D01*
X135183596Y-128008071D01*
X135088358Y-128055690D01*
X134707405Y-128055690D01*
X135612167Y-127531881D02*
X136278834Y-127531881D01*
X135850262Y-128531881D01*
X124535334Y-127653381D02*
X124202000Y-127177190D01*
X123963905Y-127653381D02*
X123963905Y-126653381D01*
X124344858Y-126653381D01*
X124440096Y-126701000D01*
X124487715Y-126748619D01*
X124535334Y-126843857D01*
X124535334Y-126986714D01*
X124487715Y-127081952D01*
X124440096Y-127129571D01*
X124344858Y-127177190D01*
X123963905Y-127177190D01*
X125106762Y-127081952D02*
X125011524Y-127034333D01*
X124963905Y-126986714D01*
X124916286Y-126891476D01*
X124916286Y-126843857D01*
X124963905Y-126748619D01*
X125011524Y-126701000D01*
X125106762Y-126653381D01*
X125297239Y-126653381D01*
X125392477Y-126701000D01*
X125440096Y-126748619D01*
X125487715Y-126843857D01*
X125487715Y-126891476D01*
X125440096Y-126986714D01*
X125392477Y-127034333D01*
X125297239Y-127081952D01*
X125106762Y-127081952D01*
X125011524Y-127129571D01*
X124963905Y-127177190D01*
X124916286Y-127272429D01*
X124916286Y-127462905D01*
X124963905Y-127558143D01*
X125011524Y-127605762D01*
X125106762Y-127653381D01*
X125297239Y-127653381D01*
X125392477Y-127605762D01*
X125440096Y-127558143D01*
X125487715Y-127462905D01*
X125487715Y-127272429D01*
X125440096Y-127177190D01*
X125392477Y-127129571D01*
X125297239Y-127081952D01*
X111327334Y-145158381D02*
X110994000Y-144682190D01*
X110755905Y-145158381D02*
X110755905Y-144158381D01*
X111136858Y-144158381D01*
X111232096Y-144206000D01*
X111279715Y-144253619D01*
X111327334Y-144348857D01*
X111327334Y-144491714D01*
X111279715Y-144586952D01*
X111232096Y-144634571D01*
X111136858Y-144682190D01*
X110755905Y-144682190D01*
X111803524Y-145158381D02*
X111994000Y-145158381D01*
X112089239Y-145110762D01*
X112136858Y-145063143D01*
X112232096Y-144920286D01*
X112279715Y-144729810D01*
X112279715Y-144348857D01*
X112232096Y-144253619D01*
X112184477Y-144206000D01*
X112089239Y-144158381D01*
X111898762Y-144158381D01*
X111803524Y-144206000D01*
X111755905Y-144253619D01*
X111708286Y-144348857D01*
X111708286Y-144586952D01*
X111755905Y-144682190D01*
X111803524Y-144729810D01*
X111898762Y-144777429D01*
X112089239Y-144777429D01*
X112184477Y-144729810D01*
X112232096Y-144682190D01*
X112279715Y-144586952D01*
X159250143Y-126309381D02*
X158916809Y-125833190D01*
X158678714Y-126309381D02*
X158678714Y-125309381D01*
X159059667Y-125309381D01*
X159154905Y-125357000D01*
X159202524Y-125404619D01*
X159250143Y-125499857D01*
X159250143Y-125642714D01*
X159202524Y-125737952D01*
X159154905Y-125785571D01*
X159059667Y-125833190D01*
X158678714Y-125833190D01*
X160202524Y-126309381D02*
X159631095Y-126309381D01*
X159916809Y-126309381D02*
X159916809Y-125309381D01*
X159821571Y-125452238D01*
X159726333Y-125547476D01*
X159631095Y-125595095D01*
X160821571Y-125309381D02*
X160916810Y-125309381D01*
X161012048Y-125357000D01*
X161059667Y-125404619D01*
X161107286Y-125499857D01*
X161154905Y-125690333D01*
X161154905Y-125928429D01*
X161107286Y-126118905D01*
X161059667Y-126214143D01*
X161012048Y-126261762D01*
X160916810Y-126309381D01*
X160821571Y-126309381D01*
X160726333Y-126261762D01*
X160678714Y-126214143D01*
X160631095Y-126118905D01*
X160583476Y-125928429D01*
X160583476Y-125690333D01*
X160631095Y-125499857D01*
X160678714Y-125404619D01*
X160726333Y-125357000D01*
X160821571Y-125309381D01*
X159885143Y-127769881D02*
X159551809Y-127293690D01*
X159313714Y-127769881D02*
X159313714Y-126769881D01*
X159694667Y-126769881D01*
X159789905Y-126817500D01*
X159837524Y-126865119D01*
X159885143Y-126960357D01*
X159885143Y-127103214D01*
X159837524Y-127198452D01*
X159789905Y-127246071D01*
X159694667Y-127293690D01*
X159313714Y-127293690D01*
X160837524Y-127769881D02*
X160266095Y-127769881D01*
X160551809Y-127769881D02*
X160551809Y-126769881D01*
X160456571Y-126912738D01*
X160361333Y-127007976D01*
X160266095Y-127055595D01*
X161789905Y-127769881D02*
X161218476Y-127769881D01*
X161504190Y-127769881D02*
X161504190Y-126769881D01*
X161408952Y-126912738D01*
X161313714Y-127007976D01*
X161218476Y-127055595D01*
X159186643Y-123515381D02*
X158853309Y-123039190D01*
X158615214Y-123515381D02*
X158615214Y-122515381D01*
X158996167Y-122515381D01*
X159091405Y-122563000D01*
X159139024Y-122610619D01*
X159186643Y-122705857D01*
X159186643Y-122848714D01*
X159139024Y-122943952D01*
X159091405Y-122991571D01*
X158996167Y-123039190D01*
X158615214Y-123039190D01*
X160139024Y-123515381D02*
X159567595Y-123515381D01*
X159853309Y-123515381D02*
X159853309Y-122515381D01*
X159758071Y-122658238D01*
X159662833Y-122753476D01*
X159567595Y-122801095D01*
X160519976Y-122610619D02*
X160567595Y-122563000D01*
X160662833Y-122515381D01*
X160900929Y-122515381D01*
X160996167Y-122563000D01*
X161043786Y-122610619D01*
X161091405Y-122705857D01*
X161091405Y-122801095D01*
X161043786Y-122943952D01*
X160472357Y-123515381D01*
X161091405Y-123515381D01*
X159059643Y-120530881D02*
X158726309Y-120054690D01*
X158488214Y-120530881D02*
X158488214Y-119530881D01*
X158869167Y-119530881D01*
X158964405Y-119578500D01*
X159012024Y-119626119D01*
X159059643Y-119721357D01*
X159059643Y-119864214D01*
X159012024Y-119959452D01*
X158964405Y-120007071D01*
X158869167Y-120054690D01*
X158488214Y-120054690D01*
X160012024Y-120530881D02*
X159440595Y-120530881D01*
X159726309Y-120530881D02*
X159726309Y-119530881D01*
X159631071Y-119673738D01*
X159535833Y-119768976D01*
X159440595Y-119816595D01*
X160345357Y-119530881D02*
X160964405Y-119530881D01*
X160631071Y-119911833D01*
X160773929Y-119911833D01*
X160869167Y-119959452D01*
X160916786Y-120007071D01*
X160964405Y-120102310D01*
X160964405Y-120340405D01*
X160916786Y-120435643D01*
X160869167Y-120483262D01*
X160773929Y-120530881D01*
X160488214Y-120530881D01*
X160392976Y-120483262D01*
X160345357Y-120435643D01*
X159186643Y-122054881D02*
X158853309Y-121578690D01*
X158615214Y-122054881D02*
X158615214Y-121054881D01*
X158996167Y-121054881D01*
X159091405Y-121102500D01*
X159139024Y-121150119D01*
X159186643Y-121245357D01*
X159186643Y-121388214D01*
X159139024Y-121483452D01*
X159091405Y-121531071D01*
X158996167Y-121578690D01*
X158615214Y-121578690D01*
X160139024Y-122054881D02*
X159567595Y-122054881D01*
X159853309Y-122054881D02*
X159853309Y-121054881D01*
X159758071Y-121197738D01*
X159662833Y-121292976D01*
X159567595Y-121340595D01*
X160996167Y-121388214D02*
X160996167Y-122054881D01*
X160758071Y-121007262D02*
X160519976Y-121721548D01*
X161139024Y-121721548D01*
X156027381Y-145105357D02*
X155551190Y-145438691D01*
X156027381Y-145676786D02*
X155027381Y-145676786D01*
X155027381Y-145295833D01*
X155075000Y-145200595D01*
X155122619Y-145152976D01*
X155217857Y-145105357D01*
X155360714Y-145105357D01*
X155455952Y-145152976D01*
X155503571Y-145200595D01*
X155551190Y-145295833D01*
X155551190Y-145676786D01*
X156027381Y-144152976D02*
X156027381Y-144724405D01*
X156027381Y-144438691D02*
X155027381Y-144438691D01*
X155170238Y-144533929D01*
X155265476Y-144629167D01*
X155313095Y-144724405D01*
X155027381Y-143248214D02*
X155027381Y-143724405D01*
X155503571Y-143772024D01*
X155455952Y-143724405D01*
X155408333Y-143629167D01*
X155408333Y-143391071D01*
X155455952Y-143295833D01*
X155503571Y-143248214D01*
X155598810Y-143200595D01*
X155836905Y-143200595D01*
X155932143Y-143248214D01*
X155979762Y-143295833D01*
X156027381Y-143391071D01*
X156027381Y-143629167D01*
X155979762Y-143724405D01*
X155932143Y-143772024D01*
X154185881Y-145105357D02*
X153709690Y-145438691D01*
X154185881Y-145676786D02*
X153185881Y-145676786D01*
X153185881Y-145295833D01*
X153233500Y-145200595D01*
X153281119Y-145152976D01*
X153376357Y-145105357D01*
X153519214Y-145105357D01*
X153614452Y-145152976D01*
X153662071Y-145200595D01*
X153709690Y-145295833D01*
X153709690Y-145676786D01*
X154185881Y-144152976D02*
X154185881Y-144724405D01*
X154185881Y-144438691D02*
X153185881Y-144438691D01*
X153328738Y-144533929D01*
X153423976Y-144629167D01*
X153471595Y-144724405D01*
X153185881Y-143295833D02*
X153185881Y-143486310D01*
X153233500Y-143581548D01*
X153281119Y-143629167D01*
X153423976Y-143724405D01*
X153614452Y-143772024D01*
X153995405Y-143772024D01*
X154090643Y-143724405D01*
X154138262Y-143676786D01*
X154185881Y-143581548D01*
X154185881Y-143391071D01*
X154138262Y-143295833D01*
X154090643Y-143248214D01*
X153995405Y-143200595D01*
X153757310Y-143200595D01*
X153662071Y-143248214D01*
X153614452Y-143295833D01*
X153566833Y-143391071D01*
X153566833Y-143581548D01*
X153614452Y-143676786D01*
X153662071Y-143724405D01*
X153757310Y-143772024D01*
X158821381Y-135707357D02*
X158345190Y-136040691D01*
X158821381Y-136278786D02*
X157821381Y-136278786D01*
X157821381Y-135897833D01*
X157869000Y-135802595D01*
X157916619Y-135754976D01*
X158011857Y-135707357D01*
X158154714Y-135707357D01*
X158249952Y-135754976D01*
X158297571Y-135802595D01*
X158345190Y-135897833D01*
X158345190Y-136278786D01*
X158821381Y-134754976D02*
X158821381Y-135326405D01*
X158821381Y-135040691D02*
X157821381Y-135040691D01*
X157964238Y-135135929D01*
X158059476Y-135231167D01*
X158107095Y-135326405D01*
X157821381Y-134421643D02*
X157821381Y-133754976D01*
X158821381Y-134183548D01*
X145549881Y-143517857D02*
X145073690Y-143851191D01*
X145549881Y-144089286D02*
X144549881Y-144089286D01*
X144549881Y-143708333D01*
X144597500Y-143613095D01*
X144645119Y-143565476D01*
X144740357Y-143517857D01*
X144883214Y-143517857D01*
X144978452Y-143565476D01*
X145026071Y-143613095D01*
X145073690Y-143708333D01*
X145073690Y-144089286D01*
X145549881Y-142565476D02*
X145549881Y-143136905D01*
X145549881Y-142851191D02*
X144549881Y-142851191D01*
X144692738Y-142946429D01*
X144787976Y-143041667D01*
X144835595Y-143136905D01*
X144978452Y-141994048D02*
X144930833Y-142089286D01*
X144883214Y-142136905D01*
X144787976Y-142184524D01*
X144740357Y-142184524D01*
X144645119Y-142136905D01*
X144597500Y-142089286D01*
X144549881Y-141994048D01*
X144549881Y-141803571D01*
X144597500Y-141708333D01*
X144645119Y-141660714D01*
X144740357Y-141613095D01*
X144787976Y-141613095D01*
X144883214Y-141660714D01*
X144930833Y-141708333D01*
X144978452Y-141803571D01*
X144978452Y-141994048D01*
X145026071Y-142089286D01*
X145073690Y-142136905D01*
X145168929Y-142184524D01*
X145359405Y-142184524D01*
X145454643Y-142136905D01*
X145502262Y-142089286D01*
X145549881Y-141994048D01*
X145549881Y-141803571D01*
X145502262Y-141708333D01*
X145454643Y-141660714D01*
X145359405Y-141613095D01*
X145168929Y-141613095D01*
X145073690Y-141660714D01*
X145026071Y-141708333D01*
X144978452Y-141803571D01*
X143454381Y-143454357D02*
X142978190Y-143787691D01*
X143454381Y-144025786D02*
X142454381Y-144025786D01*
X142454381Y-143644833D01*
X142502000Y-143549595D01*
X142549619Y-143501976D01*
X142644857Y-143454357D01*
X142787714Y-143454357D01*
X142882952Y-143501976D01*
X142930571Y-143549595D01*
X142978190Y-143644833D01*
X142978190Y-144025786D01*
X143454381Y-142501976D02*
X143454381Y-143073405D01*
X143454381Y-142787691D02*
X142454381Y-142787691D01*
X142597238Y-142882929D01*
X142692476Y-142978167D01*
X142740095Y-143073405D01*
X143454381Y-142025786D02*
X143454381Y-141835310D01*
X143406762Y-141740071D01*
X143359143Y-141692452D01*
X143216286Y-141597214D01*
X143025810Y-141549595D01*
X142644857Y-141549595D01*
X142549619Y-141597214D01*
X142502000Y-141644833D01*
X142454381Y-141740071D01*
X142454381Y-141930548D01*
X142502000Y-142025786D01*
X142549619Y-142073405D01*
X142644857Y-142121024D01*
X142882952Y-142121024D01*
X142978190Y-142073405D01*
X143025810Y-142025786D01*
X143073429Y-141930548D01*
X143073429Y-141740071D01*
X143025810Y-141644833D01*
X142978190Y-141597214D01*
X142882952Y-141549595D01*
X136405881Y-143200357D02*
X135929690Y-143533691D01*
X136405881Y-143771786D02*
X135405881Y-143771786D01*
X135405881Y-143390833D01*
X135453500Y-143295595D01*
X135501119Y-143247976D01*
X135596357Y-143200357D01*
X135739214Y-143200357D01*
X135834452Y-143247976D01*
X135882071Y-143295595D01*
X135929690Y-143390833D01*
X135929690Y-143771786D01*
X135501119Y-142819405D02*
X135453500Y-142771786D01*
X135405881Y-142676548D01*
X135405881Y-142438452D01*
X135453500Y-142343214D01*
X135501119Y-142295595D01*
X135596357Y-142247976D01*
X135691595Y-142247976D01*
X135834452Y-142295595D01*
X136405881Y-142867024D01*
X136405881Y-142247976D01*
X135405881Y-141628929D02*
X135405881Y-141533690D01*
X135453500Y-141438452D01*
X135501119Y-141390833D01*
X135596357Y-141343214D01*
X135786833Y-141295595D01*
X136024929Y-141295595D01*
X136215405Y-141343214D01*
X136310643Y-141390833D01*
X136358262Y-141438452D01*
X136405881Y-141533690D01*
X136405881Y-141628929D01*
X136358262Y-141724167D01*
X136310643Y-141771786D01*
X136215405Y-141819405D01*
X136024929Y-141867024D01*
X135786833Y-141867024D01*
X135596357Y-141819405D01*
X135501119Y-141771786D01*
X135453500Y-141724167D01*
X135405881Y-141628929D01*
X134500881Y-143073357D02*
X134024690Y-143406691D01*
X134500881Y-143644786D02*
X133500881Y-143644786D01*
X133500881Y-143263833D01*
X133548500Y-143168595D01*
X133596119Y-143120976D01*
X133691357Y-143073357D01*
X133834214Y-143073357D01*
X133929452Y-143120976D01*
X133977071Y-143168595D01*
X134024690Y-143263833D01*
X134024690Y-143644786D01*
X133596119Y-142692405D02*
X133548500Y-142644786D01*
X133500881Y-142549548D01*
X133500881Y-142311452D01*
X133548500Y-142216214D01*
X133596119Y-142168595D01*
X133691357Y-142120976D01*
X133786595Y-142120976D01*
X133929452Y-142168595D01*
X134500881Y-142740024D01*
X134500881Y-142120976D01*
X134500881Y-141168595D02*
X134500881Y-141740024D01*
X134500881Y-141454310D02*
X133500881Y-141454310D01*
X133643738Y-141549548D01*
X133738976Y-141644786D01*
X133786595Y-141740024D01*
X154813095Y-116927381D02*
X154813095Y-117736905D01*
X154860714Y-117832143D01*
X154908333Y-117879762D01*
X155003571Y-117927381D01*
X155194048Y-117927381D01*
X155289286Y-117879762D01*
X155336905Y-117832143D01*
X155384524Y-117736905D01*
X155384524Y-116927381D01*
X156384524Y-117927381D02*
X155813095Y-117927381D01*
X156098809Y-117927381D02*
X156098809Y-116927381D01*
X156003571Y-117070238D01*
X155908333Y-117165476D01*
X155813095Y-117213095D01*
X155702095Y-130960881D02*
X155702095Y-131770405D01*
X155749714Y-131865643D01*
X155797333Y-131913262D01*
X155892571Y-131960881D01*
X156083048Y-131960881D01*
X156178286Y-131913262D01*
X156225905Y-131865643D01*
X156273524Y-131770405D01*
X156273524Y-130960881D01*
X156654476Y-130960881D02*
X157273524Y-130960881D01*
X156940190Y-131341833D01*
X157083048Y-131341833D01*
X157178286Y-131389452D01*
X157225905Y-131437071D01*
X157273524Y-131532310D01*
X157273524Y-131770405D01*
X157225905Y-131865643D01*
X157178286Y-131913262D01*
X157083048Y-131960881D01*
X156797333Y-131960881D01*
X156702095Y-131913262D01*
X156654476Y-131865643D01*
X140335095Y-133246881D02*
X140335095Y-134056405D01*
X140382714Y-134151643D01*
X140430333Y-134199262D01*
X140525571Y-134246881D01*
X140716048Y-134246881D01*
X140811286Y-134199262D01*
X140858905Y-134151643D01*
X140906524Y-134056405D01*
X140906524Y-133246881D01*
X141811286Y-133580214D02*
X141811286Y-134246881D01*
X141573190Y-133199262D02*
X141335095Y-133913548D01*
X141954143Y-133913548D01*
X145954809Y-132310190D02*
X145954809Y-132786381D01*
X145621476Y-131786381D02*
X145954809Y-132310190D01*
X146288143Y-131786381D01*
X147145286Y-132786381D02*
X146573857Y-132786381D01*
X146859571Y-132786381D02*
X146859571Y-131786381D01*
X146764333Y-131929238D01*
X146669095Y-132024476D01*
X146573857Y-132072095D01*
X133429143Y-137346357D02*
X133476762Y-137393976D01*
X133524381Y-137536833D01*
X133524381Y-137632071D01*
X133476762Y-137774929D01*
X133381524Y-137870167D01*
X133286286Y-137917786D01*
X133095810Y-137965405D01*
X132952952Y-137965405D01*
X132762476Y-137917786D01*
X132667238Y-137870167D01*
X132572000Y-137774929D01*
X132524381Y-137632071D01*
X132524381Y-137536833D01*
X132572000Y-137393976D01*
X132619619Y-137346357D01*
X132619619Y-136965405D02*
X132572000Y-136917786D01*
X132524381Y-136822548D01*
X132524381Y-136584452D01*
X132572000Y-136489214D01*
X132619619Y-136441595D01*
X132714857Y-136393976D01*
X132810095Y-136393976D01*
X132952952Y-136441595D01*
X133524381Y-137013024D01*
X133524381Y-136393976D01*
X132619619Y-136013024D02*
X132572000Y-135965405D01*
X132524381Y-135870167D01*
X132524381Y-135632071D01*
X132572000Y-135536833D01*
X132619619Y-135489214D01*
X132714857Y-135441595D01*
X132810095Y-135441595D01*
X132952952Y-135489214D01*
X133524381Y-136060643D01*
X133524381Y-135441595D01*
X146804143Y-141390643D02*
X146756524Y-141438262D01*
X146613667Y-141485881D01*
X146518429Y-141485881D01*
X146375571Y-141438262D01*
X146280333Y-141343024D01*
X146232714Y-141247786D01*
X146185095Y-141057310D01*
X146185095Y-140914452D01*
X146232714Y-140723976D01*
X146280333Y-140628738D01*
X146375571Y-140533500D01*
X146518429Y-140485881D01*
X146613667Y-140485881D01*
X146756524Y-140533500D01*
X146804143Y-140581119D01*
X147185095Y-140581119D02*
X147232714Y-140533500D01*
X147327952Y-140485881D01*
X147566048Y-140485881D01*
X147661286Y-140533500D01*
X147708905Y-140581119D01*
X147756524Y-140676357D01*
X147756524Y-140771595D01*
X147708905Y-140914452D01*
X147137476Y-141485881D01*
X147756524Y-141485881D01*
X148089857Y-140485881D02*
X148708905Y-140485881D01*
X148375571Y-140866833D01*
X148518429Y-140866833D01*
X148613667Y-140914452D01*
X148661286Y-140962071D01*
X148708905Y-141057310D01*
X148708905Y-141295405D01*
X148661286Y-141390643D01*
X148613667Y-141438262D01*
X148518429Y-141485881D01*
X148232714Y-141485881D01*
X148137476Y-141438262D01*
X148089857Y-141390643D01*
X111966476Y-140104881D02*
X112633143Y-141104881D01*
X112633143Y-140104881D02*
X111966476Y-141104881D01*
X113537905Y-141104881D02*
X112966476Y-141104881D01*
X113252190Y-141104881D02*
X113252190Y-140104881D01*
X113156952Y-140247738D01*
X113061714Y-140342976D01*
X112966476Y-140390595D01*
M02*
