G04 #@! TF.FileFunction,Soldermask,Top*
%FSLAX46Y46*%
G04 Gerber Fmt 4.6, Leading zero omitted, Abs format (unit mm)*
G04 Created by KiCad (PCBNEW 4.0.5) date *
%MOMM*%
%LPD*%
G01*
G04 APERTURE LIST*
%ADD10C,0.100000*%
%ADD11R,2.100000X1.600000*%
%ADD12O,2.100000X1.600000*%
%ADD13R,1.600000X2.100000*%
%ADD14O,1.600000X2.100000*%
%ADD15C,1.924000*%
G04 APERTURE END LIST*
D10*
D11*
X161290000Y-132080000D03*
D12*
X161290000Y-130080000D03*
D11*
X107950000Y-122270000D03*
D12*
X107950000Y-124270000D03*
X107950000Y-126270000D03*
X107950000Y-128270000D03*
D11*
X107950000Y-133795000D03*
D12*
X107950000Y-135795000D03*
X107950000Y-137795000D03*
X107950000Y-139795000D03*
D13*
X118935000Y-125095000D03*
D14*
X116935000Y-125095000D03*
X114935000Y-125095000D03*
X112935000Y-125095000D03*
D13*
X124460000Y-147320000D03*
D14*
X126460000Y-147320000D03*
X128460000Y-147320000D03*
X130460000Y-147320000D03*
D11*
X107950000Y-145225000D03*
D12*
X107950000Y-147225000D03*
X107950000Y-149225000D03*
X107950000Y-151225000D03*
D13*
X113030000Y-147320000D03*
D14*
X115030000Y-147320000D03*
X117030000Y-147320000D03*
X119030000Y-147320000D03*
D13*
X130365000Y-125095000D03*
D14*
X128365000Y-125095000D03*
X126365000Y-125095000D03*
X124365000Y-125095000D03*
D13*
X146335000Y-125095000D03*
D14*
X144335000Y-125095000D03*
X142335000Y-125095000D03*
X140335000Y-125095000D03*
X138335000Y-125095000D03*
X136335000Y-125095000D03*
D11*
X161290000Y-151765000D03*
D12*
X161290000Y-149765000D03*
X161290000Y-147765000D03*
D11*
X161290000Y-142240000D03*
D12*
X161290000Y-140240000D03*
X161290000Y-138240000D03*
D13*
X137415000Y-147320000D03*
D14*
X139415000Y-147320000D03*
X141415000Y-147320000D03*
X143415000Y-147320000D03*
X145415000Y-147320000D03*
D13*
X151035000Y-147320000D03*
D14*
X153035000Y-147320000D03*
X155035000Y-147320000D03*
D15*
X158115000Y-124460000D03*
X155575000Y-124460000D03*
X153035000Y-124460000D03*
M02*
