G04 #@! TF.FileFunction,Copper,L2,Bot,Signal*
%FSLAX46Y46*%
G04 Gerber Fmt 4.6, Leading zero omitted, Abs format (unit mm)*
G04 Created by KiCad (PCBNEW 4.0.5) date *
%MOMM*%
%LPD*%
G01*
G04 APERTURE LIST*
%ADD10C,0.100000*%
%ADD11R,0.300000X0.800000*%
%ADD12R,0.300000X0.850000*%
%ADD13R,0.850000X0.250000*%
%ADD14R,0.850000X0.300000*%
%ADD15R,1.837500X1.837500*%
%ADD16R,0.800000X0.750000*%
%ADD17R,0.900000X0.500000*%
%ADD18R,0.750000X0.800000*%
%ADD19R,0.800000X0.800000*%
%ADD20R,1.700000X1.200000*%
%ADD21O,1.700000X1.200000*%
%ADD22R,1.200000X1.700000*%
%ADD23O,1.200000X1.700000*%
%ADD24R,0.900000X0.800000*%
%ADD25R,0.500000X0.900000*%
%ADD26C,1.524000*%
%ADD27R,0.600000X0.400000*%
%ADD28R,0.400000X0.600000*%
%ADD29R,1.365000X1.365000*%
%ADD30R,0.550000X0.150000*%
%ADD31R,0.550000X0.200000*%
%ADD32R,0.200000X0.500000*%
%ADD33R,0.200000X0.550000*%
%ADD34R,0.875000X0.800000*%
%ADD35R,1.400000X1.200000*%
%ADD36R,1.100000X0.900000*%
%ADD37C,0.600000*%
%ADD38C,0.250000*%
%ADD39C,0.200000*%
%ADD40C,2.000000*%
%ADD41C,0.254000*%
%ADD42C,0.350000*%
G04 APERTURE END LIST*
D10*
D11*
X121405000Y-139765000D03*
D12*
X121905000Y-139765000D03*
X122405000Y-139765000D03*
X122905000Y-139765000D03*
X123405000Y-139765000D03*
X123905000Y-139765000D03*
X124405000Y-139765000D03*
X124905000Y-139765000D03*
X125405000Y-139765000D03*
X125905000Y-139765000D03*
X126405000Y-139765000D03*
X126905000Y-139765000D03*
X127405000Y-139765000D03*
X127905000Y-139765000D03*
X128405000Y-139765000D03*
D11*
X128905000Y-139765000D03*
D13*
X129605000Y-139065000D03*
D14*
X129605000Y-138565000D03*
X129605000Y-138065000D03*
X129605000Y-137565000D03*
X129605000Y-137065000D03*
X129605000Y-136565000D03*
X129605000Y-136065000D03*
X129605000Y-135565000D03*
X129605000Y-135065000D03*
X129605000Y-134565000D03*
X129605000Y-134065000D03*
X129605000Y-133565000D03*
X129605000Y-133065000D03*
X129605000Y-132565000D03*
X129605000Y-132065000D03*
D13*
X129605000Y-131565000D03*
D11*
X128905000Y-130865000D03*
D12*
X128405000Y-130865000D03*
X127905000Y-130865000D03*
X127405000Y-130865000D03*
X126905000Y-130865000D03*
X126405000Y-130865000D03*
X125905000Y-130865000D03*
X125405000Y-130865000D03*
X124905000Y-130865000D03*
X124405000Y-130865000D03*
X123905000Y-130865000D03*
X123405000Y-130865000D03*
X122905000Y-130865000D03*
X122405000Y-130865000D03*
X121905000Y-130865000D03*
D11*
X121405000Y-130865000D03*
D13*
X120705000Y-131565000D03*
D14*
X120705000Y-132065000D03*
X120705000Y-132565000D03*
X120705000Y-133065000D03*
X120705000Y-133565000D03*
X120705000Y-134065000D03*
X120705000Y-134565000D03*
X120705000Y-135065000D03*
X120705000Y-135565000D03*
X120705000Y-136065000D03*
X120705000Y-136565000D03*
X120705000Y-137065000D03*
X120705000Y-137565000D03*
X120705000Y-138065000D03*
X120705000Y-138565000D03*
D13*
X120705000Y-139065000D03*
D15*
X127911250Y-132558750D03*
X126073750Y-132558750D03*
X124236250Y-132558750D03*
X122398750Y-132558750D03*
X127911250Y-134396250D03*
X126073750Y-134396250D03*
X124236250Y-134396250D03*
X122398750Y-134396250D03*
X127911250Y-136233750D03*
X126073750Y-136233750D03*
X124236250Y-136233750D03*
X122398750Y-136233750D03*
X127911250Y-138071250D03*
X126073750Y-138071250D03*
X124236250Y-138071250D03*
X122398750Y-138071250D03*
D16*
X143280000Y-137795000D03*
X144780000Y-137795000D03*
D17*
X139700000Y-139065000D03*
X139700000Y-140565000D03*
X137795000Y-139065000D03*
X137795000Y-140565000D03*
D16*
X113474500Y-135699500D03*
X111974500Y-135699500D03*
D10*
G36*
X121702518Y-143070152D02*
X122232848Y-143600482D01*
X121667162Y-144166168D01*
X121136832Y-143635838D01*
X121702518Y-143070152D01*
X121702518Y-143070152D01*
G37*
G36*
X122763178Y-142009492D02*
X123293508Y-142539822D01*
X122727822Y-143105508D01*
X122197492Y-142575178D01*
X122763178Y-142009492D01*
X122763178Y-142009492D01*
G37*
G36*
X127172822Y-143641652D02*
X127703152Y-143111322D01*
X128268838Y-143677008D01*
X127738508Y-144207338D01*
X127172822Y-143641652D01*
X127172822Y-143641652D01*
G37*
G36*
X126112162Y-142580992D02*
X126642492Y-142050662D01*
X127208178Y-142616348D01*
X126677848Y-143146678D01*
X126112162Y-142580992D01*
X126112162Y-142580992D01*
G37*
G36*
X116644848Y-134085018D02*
X116114518Y-134615348D01*
X115548832Y-134049662D01*
X116079162Y-133519332D01*
X116644848Y-134085018D01*
X116644848Y-134085018D01*
G37*
G36*
X117705508Y-135145678D02*
X117175178Y-135676008D01*
X116609492Y-135110322D01*
X117139822Y-134579992D01*
X117705508Y-135145678D01*
X117705508Y-135145678D01*
G37*
D18*
X119062500Y-130008500D03*
X119062500Y-131508500D03*
X118999000Y-140692000D03*
X118999000Y-139192000D03*
D16*
X120547000Y-129159000D03*
X122047000Y-129159000D03*
D18*
X131572000Y-132854000D03*
X131572000Y-134354000D03*
X133159500Y-132866000D03*
X133159500Y-134366000D03*
X117411500Y-140692000D03*
X117411500Y-139192000D03*
X115887500Y-140704000D03*
X115887500Y-139204000D03*
D16*
X143280000Y-132080000D03*
X144780000Y-132080000D03*
D18*
X153924000Y-127595500D03*
X153924000Y-129095500D03*
X147435000Y-138025000D03*
X147435000Y-136525000D03*
X151765000Y-128270000D03*
X151765000Y-129770000D03*
X157480000Y-142470000D03*
X157480000Y-140970000D03*
X151765000Y-142470000D03*
X151765000Y-140970000D03*
X135255000Y-136120000D03*
X135255000Y-134620000D03*
X139065000Y-130580000D03*
X139065000Y-132080000D03*
X137160000Y-130580000D03*
X137160000Y-132080000D03*
D19*
X165341500Y-124904500D03*
X166941500Y-124904500D03*
X134188000Y-129540000D03*
X132588000Y-129540000D03*
X165405000Y-123190000D03*
X167005000Y-123190000D03*
X165417500Y-119888000D03*
X167017500Y-119888000D03*
X165417500Y-121539000D03*
X167017500Y-121539000D03*
D20*
X161290000Y-132080000D03*
D21*
X161290000Y-130080000D03*
D20*
X107950000Y-122270000D03*
D21*
X107950000Y-124270000D03*
X107950000Y-126270000D03*
X107950000Y-128270000D03*
D20*
X107950000Y-133795000D03*
D21*
X107950000Y-135795000D03*
X107950000Y-137795000D03*
X107950000Y-139795000D03*
D22*
X118935000Y-125095000D03*
D23*
X116935000Y-125095000D03*
X114935000Y-125095000D03*
X112935000Y-125095000D03*
D22*
X124460000Y-147320000D03*
D23*
X126460000Y-147320000D03*
X128460000Y-147320000D03*
X130460000Y-147320000D03*
D20*
X107950000Y-145225000D03*
D21*
X107950000Y-147225000D03*
X107950000Y-149225000D03*
X107950000Y-151225000D03*
D22*
X113030000Y-147320000D03*
D23*
X115030000Y-147320000D03*
X117030000Y-147320000D03*
X119030000Y-147320000D03*
D22*
X130365000Y-125095000D03*
D23*
X128365000Y-125095000D03*
X126365000Y-125095000D03*
X124365000Y-125095000D03*
D22*
X146335000Y-125095000D03*
D23*
X144335000Y-125095000D03*
X142335000Y-125095000D03*
X140335000Y-125095000D03*
X138335000Y-125095000D03*
X136335000Y-125095000D03*
D20*
X161290000Y-151765000D03*
D21*
X161290000Y-149765000D03*
X161290000Y-147765000D03*
D20*
X161290000Y-142240000D03*
D21*
X161290000Y-140240000D03*
X161290000Y-138240000D03*
D22*
X137415000Y-147320000D03*
D23*
X139415000Y-147320000D03*
X141415000Y-147320000D03*
X143415000Y-147320000D03*
X145415000Y-147320000D03*
D22*
X151035000Y-147320000D03*
D23*
X153035000Y-147320000D03*
X155035000Y-147320000D03*
D24*
X156210000Y-127955000D03*
X156210000Y-129855000D03*
X158210000Y-128905000D03*
D25*
X166814500Y-126619000D03*
X165314500Y-126619000D03*
X112673000Y-127952500D03*
X114173000Y-127952500D03*
X114173000Y-129857500D03*
X112673000Y-129857500D03*
X126746000Y-129159000D03*
X128246000Y-129159000D03*
X129564000Y-129159000D03*
X131064000Y-129159000D03*
D17*
X131572000Y-139025500D03*
X131572000Y-140525500D03*
D25*
X132588000Y-127889000D03*
X134088000Y-127889000D03*
X123952000Y-128651000D03*
X125452000Y-128651000D03*
X112244000Y-143256000D03*
X110744000Y-143256000D03*
X162266500Y-124904500D03*
X163766500Y-124904500D03*
X162266500Y-126619000D03*
X163766500Y-126619000D03*
X162266500Y-123190000D03*
X163766500Y-123190000D03*
X162266500Y-119888000D03*
X163766500Y-119888000D03*
X162266500Y-121539000D03*
X163766500Y-121539000D03*
D17*
X155575000Y-142470000D03*
X155575000Y-140970000D03*
X153670000Y-142470000D03*
X153670000Y-140970000D03*
X158432500Y-131596000D03*
X158432500Y-133096000D03*
X145097500Y-139343000D03*
X145097500Y-140843000D03*
X143002000Y-139343000D03*
X143002000Y-140843000D03*
X135890000Y-139065000D03*
X135890000Y-140565000D03*
X133985000Y-139065000D03*
X133985000Y-140565000D03*
D26*
X158115000Y-124460000D03*
X155575000Y-124460000D03*
X153035000Y-124460000D03*
D27*
X149225000Y-132610000D03*
X149225000Y-133260000D03*
X149225000Y-133910000D03*
X149225000Y-134560000D03*
X149225000Y-135210000D03*
X149225000Y-135860000D03*
X149225000Y-136510000D03*
X149225000Y-137160000D03*
D28*
X150300000Y-138235000D03*
X150950000Y-138235000D03*
X151600000Y-138235000D03*
X152250000Y-138235000D03*
X152900000Y-138235000D03*
X153550000Y-138235000D03*
X154200000Y-138235000D03*
X154850000Y-138235000D03*
D27*
X155925000Y-137160000D03*
X155925000Y-136510000D03*
X155925000Y-135860000D03*
X155925000Y-135210000D03*
X155925000Y-134560000D03*
X155925000Y-133910000D03*
X155925000Y-133260000D03*
X155925000Y-132610000D03*
D28*
X154850000Y-131535000D03*
X154200000Y-131535000D03*
X153550000Y-131535000D03*
X152900000Y-131535000D03*
X152250000Y-131535000D03*
X151600000Y-131535000D03*
X150950000Y-131535000D03*
X150300000Y-131535000D03*
D29*
X154622500Y-136932500D03*
X154622500Y-135567500D03*
X154622500Y-134202500D03*
X154622500Y-132837500D03*
X153257500Y-136932500D03*
X153257500Y-135567500D03*
X153257500Y-134202500D03*
X153257500Y-132837500D03*
X151892500Y-136932500D03*
X151892500Y-135567500D03*
X151892500Y-134202500D03*
X151892500Y-132837500D03*
X150527500Y-136932500D03*
X150527500Y-135567500D03*
X150527500Y-134202500D03*
X150527500Y-132837500D03*
D30*
X139700000Y-136525000D03*
D31*
X139700000Y-136125000D03*
X139700000Y-135725000D03*
X139700000Y-135325000D03*
X139700000Y-134925000D03*
D30*
X139700000Y-134525000D03*
D32*
X139200000Y-134025000D03*
D33*
X138800000Y-134025000D03*
X138400000Y-134025000D03*
X138000000Y-134025000D03*
X137600000Y-134025000D03*
D32*
X137200000Y-134025000D03*
D30*
X136700000Y-134525000D03*
D31*
X136700000Y-134925000D03*
X136700000Y-135325000D03*
X136700000Y-135725000D03*
X136700000Y-136125000D03*
D30*
X136700000Y-136525000D03*
D32*
X137200000Y-137025000D03*
D33*
X137600000Y-137025000D03*
X138000000Y-137025000D03*
X138400000Y-137025000D03*
X138800000Y-137025000D03*
D32*
X139200000Y-137025000D03*
D34*
X137765000Y-135125000D03*
X137765000Y-135925000D03*
X138635000Y-135125000D03*
X138635000Y-135925000D03*
D35*
X145415000Y-133990000D03*
X143015000Y-133990000D03*
X143015000Y-135890000D03*
X145415000Y-135890000D03*
D18*
X131572000Y-137453500D03*
X131572000Y-135953500D03*
D16*
X146748500Y-139636500D03*
X148248500Y-139636500D03*
D36*
X111869000Y-139146000D03*
X113569000Y-139146000D03*
X113569000Y-137846000D03*
X111869000Y-137846000D03*
D37*
X166370000Y-117729000D03*
X137765000Y-135125000D03*
X138635000Y-135925000D03*
X125412500Y-145605500D03*
X110998000Y-148653500D03*
X110172500Y-149542500D03*
X109601000Y-150558500D03*
X110744000Y-144716500D03*
X109791500Y-145351500D03*
X109410500Y-143637000D03*
X108712000Y-142494000D03*
X108077000Y-141668500D03*
X110045500Y-136906000D03*
X109537500Y-136017000D03*
X109601000Y-134493000D03*
X109728000Y-130619500D03*
X110934500Y-131889500D03*
X112268000Y-133096000D03*
X142303500Y-145351500D03*
X140208000Y-145669000D03*
X137160000Y-145542000D03*
X134810500Y-145669000D03*
X134810500Y-147320000D03*
X132905500Y-147510500D03*
X132588000Y-146431000D03*
X131318000Y-145034000D03*
X129222500Y-144780000D03*
X116713000Y-131953000D03*
X116713000Y-130810000D03*
X116903500Y-127762000D03*
X117792500Y-126936500D03*
X121666000Y-125158500D03*
X120904000Y-124396500D03*
X120713500Y-125793500D03*
X158686500Y-127508000D03*
X142113000Y-149733000D03*
X145415000Y-149733000D03*
X147637500Y-149733000D03*
X158242000Y-148907500D03*
X158242000Y-146177000D03*
X114744500Y-153987500D03*
X121221500Y-153987500D03*
X129857500Y-153987500D03*
X137731500Y-153987500D03*
X146431000Y-153987500D03*
X154241500Y-153987500D03*
X160274000Y-153987500D03*
X167005000Y-153987500D03*
X168402000Y-150558500D03*
X168402000Y-146748500D03*
X168402000Y-141541500D03*
X168402000Y-136652000D03*
X168402000Y-130873500D03*
X168402000Y-125730000D03*
X168402000Y-121539000D03*
X161734500Y-117538500D03*
X156146500Y-117475000D03*
X150812500Y-117665500D03*
X102425500Y-152527000D03*
X102425500Y-148336000D03*
X102425500Y-141859000D03*
X102425500Y-136906000D03*
X102425500Y-131572000D03*
X102425500Y-126619000D03*
X102425500Y-121729500D03*
X105346500Y-117665500D03*
X112839500Y-117729000D03*
X120967500Y-117729000D03*
X128397000Y-117729000D03*
X136398000Y-117538500D03*
X142113000Y-117602000D03*
X146304000Y-117729000D03*
X119507000Y-128460500D03*
X121602500Y-128016000D03*
X120713500Y-128079500D03*
X130619500Y-137985500D03*
X130683000Y-136906000D03*
X134302500Y-137541000D03*
X136398000Y-137795000D03*
X135318500Y-137668000D03*
X114871500Y-144907000D03*
X117729000Y-144272000D03*
X119316500Y-144272000D03*
X120586500Y-144272000D03*
X111125000Y-127825500D03*
X110871000Y-128714500D03*
X111696500Y-129349500D03*
X116014500Y-136842500D03*
X115189000Y-136398000D03*
X117411500Y-138176000D03*
X116649500Y-138176000D03*
X115443000Y-138176000D03*
X120332500Y-140208000D03*
X152146000Y-125539500D03*
X148590000Y-124269500D03*
X151130000Y-127063500D03*
X157543500Y-143827500D03*
X150749000Y-143129000D03*
X143879998Y-137668000D03*
X144040930Y-131337532D03*
X145669000Y-140081000D03*
X153257500Y-135567500D03*
X153257500Y-134202500D03*
X151892500Y-134202500D03*
X151892500Y-135567500D03*
X124236250Y-136233750D03*
X126073750Y-136233750D03*
X126073750Y-134396250D03*
X124236250Y-134396250D03*
X120269000Y-130492500D03*
X140398500Y-130810000D03*
X139954000Y-130365500D03*
X135255000Y-133223000D03*
X135255000Y-133794500D03*
X110807500Y-134175500D03*
X110807500Y-135064500D03*
X110807500Y-136080500D03*
X126047500Y-141859000D03*
X123190000Y-141732000D03*
X118396101Y-135690009D03*
X132588000Y-136969500D03*
X132588000Y-137858500D03*
X132588000Y-138874500D03*
X129667000Y-127825500D03*
X128397000Y-127825500D03*
X127254000Y-127825500D03*
X141859000Y-137731500D03*
X141859000Y-138557000D03*
X141859000Y-139382500D03*
X150495000Y-128270000D03*
X150495000Y-129794000D03*
X163004500Y-126492000D03*
X152971500Y-126238000D03*
X156845000Y-135890000D03*
X154940000Y-130175000D03*
X147837990Y-132715000D03*
X147320000Y-130810000D03*
X148590000Y-130810000D03*
X165290500Y-152908000D03*
X166243000Y-122364500D03*
X149606000Y-127508000D03*
X149606000Y-129667000D03*
X156273500Y-147447000D03*
X161226500Y-119824500D03*
X165227000Y-128333500D03*
X163703000Y-144780000D03*
X156527500Y-139763500D03*
X160210500Y-121412000D03*
X158750000Y-143954500D03*
X158750000Y-139446000D03*
X157543500Y-139446000D03*
X155448000Y-139954000D03*
X151906126Y-126869469D03*
X162941000Y-150622000D03*
X167068500Y-150050500D03*
X166306500Y-118999000D03*
X150050500Y-124396500D03*
X152644057Y-128488536D03*
X153606500Y-129995502D03*
X155003500Y-145097500D03*
X148717000Y-145097500D03*
X148717000Y-138303000D03*
X157099000Y-126873000D03*
X154940000Y-139065000D03*
X159489989Y-132063785D03*
X159194500Y-128905000D03*
X123397011Y-129497212D03*
X132143500Y-123761500D03*
X132207000Y-121348500D03*
X149479000Y-139192000D03*
X114236500Y-126873000D03*
X124841000Y-129476500D03*
X127508000Y-129105490D03*
X125883848Y-129743764D03*
X130302000Y-129286000D03*
X123132527Y-128713644D03*
X130429000Y-126746000D03*
X113411000Y-142875000D03*
X119850879Y-138641696D03*
X156210000Y-143510000D03*
X159385000Y-133985000D03*
X126480020Y-141160500D03*
X127780012Y-141160500D03*
X148463000Y-132143500D03*
X143002000Y-130111500D03*
X140271500Y-137414000D03*
X138112500Y-137985500D03*
X139836990Y-133115360D03*
X136652000Y-133096000D03*
X141668500Y-130492500D03*
X142417763Y-132645628D03*
X144018000Y-138620500D03*
X148399500Y-136779000D03*
D38*
X113569000Y-139146000D02*
X113469000Y-139146000D01*
X113449500Y-135699500D02*
X113474500Y-135699500D01*
X113469000Y-139146000D02*
X112741599Y-138418599D01*
X112741599Y-138418599D02*
X112741599Y-136407401D01*
X112741599Y-136407401D02*
X113449500Y-135699500D01*
X168402000Y-121539000D02*
X168402000Y-119761000D01*
X168402000Y-119761000D02*
X166370000Y-117729000D01*
X137765000Y-135125000D02*
X138635000Y-135125000D01*
X138635000Y-135925000D02*
X138565000Y-135925000D01*
X138565000Y-135925000D02*
X137765000Y-135125000D01*
X137765000Y-135925000D02*
X138635000Y-135925000D01*
X137765000Y-135925000D02*
X137600000Y-136090000D01*
X137600000Y-136090000D02*
X137600000Y-137025000D01*
X121412000Y-147320000D02*
X123126500Y-145605500D01*
X123126500Y-145605500D02*
X125412500Y-145605500D01*
X119030000Y-147320000D02*
X121412000Y-147320000D01*
X110172500Y-149542500D02*
X110172500Y-149479000D01*
X110172500Y-149479000D02*
X110998000Y-148653500D01*
X107950000Y-151225000D02*
X108934500Y-151225000D01*
X108934500Y-151225000D02*
X109601000Y-150558500D01*
X109791500Y-145351500D02*
X110109000Y-145351500D01*
X110109000Y-145351500D02*
X110744000Y-144716500D01*
X108712000Y-142494000D02*
X108712000Y-142938500D01*
X108712000Y-142938500D02*
X109410500Y-143637000D01*
X107950000Y-139795000D02*
X107950000Y-141541500D01*
X107950000Y-141541500D02*
X108077000Y-141668500D01*
X109537500Y-136017000D02*
X109537500Y-136398000D01*
X109537500Y-136398000D02*
X110045500Y-136906000D01*
X110634501Y-132189499D02*
X109601000Y-133223000D01*
X109601000Y-133223000D02*
X109601000Y-134493000D01*
X110934500Y-131889500D02*
X110634501Y-132189499D01*
X110934500Y-131889500D02*
X110934500Y-131826000D01*
X110934500Y-131826000D02*
X109728000Y-130619500D01*
X113474500Y-135699500D02*
X113474500Y-134302500D01*
X113474500Y-134302500D02*
X112268000Y-133096000D01*
X140208000Y-145669000D02*
X141986000Y-145669000D01*
X141986000Y-145669000D02*
X142303500Y-145351500D01*
X134810500Y-145669000D02*
X137033000Y-145669000D01*
X137033000Y-145669000D02*
X137160000Y-145542000D01*
X132905500Y-147510500D02*
X134620000Y-147510500D01*
X134620000Y-147510500D02*
X134810500Y-147320000D01*
X131318000Y-145034000D02*
X131318000Y-145161000D01*
X131318000Y-145161000D02*
X132588000Y-146431000D01*
X130460000Y-147320000D02*
X130460000Y-146017500D01*
X130460000Y-146017500D02*
X129222500Y-144780000D01*
X162877500Y-131762500D02*
X162560000Y-132080000D01*
X162560000Y-132080000D02*
X161290000Y-132080000D01*
X162877500Y-128841500D02*
X162877500Y-131762500D01*
X163766500Y-127952500D02*
X162877500Y-128841500D01*
X163766500Y-126619000D02*
X163766500Y-127952500D01*
X166941500Y-124904500D02*
X166941500Y-123253500D01*
X166941500Y-123253500D02*
X167005000Y-123190000D01*
X139065000Y-130580000D02*
X139065000Y-128714500D01*
X139065000Y-128714500D02*
X140335000Y-127444500D01*
X140335000Y-127444500D02*
X145669000Y-127444500D01*
X145669000Y-127444500D02*
X146335000Y-126778500D01*
X146335000Y-126778500D02*
X146335000Y-125095000D01*
X137160000Y-130580000D02*
X139065000Y-130580000D01*
X116713000Y-128651000D02*
X116713000Y-130810000D01*
X116903500Y-128460500D02*
X116713000Y-128651000D01*
X116903500Y-127762000D02*
X116903500Y-128460500D01*
X117792500Y-126936500D02*
X117729000Y-126936500D01*
X117729000Y-126936500D02*
X116903500Y-127762000D01*
X120713500Y-125793500D02*
X120713500Y-124587000D01*
X120713500Y-124587000D02*
X120904000Y-124396500D01*
D39*
X137600000Y-137025000D02*
X137600000Y-137500000D01*
X137600000Y-137500000D02*
X137305000Y-137795000D01*
X137305000Y-137795000D02*
X136822264Y-137795000D01*
X136822264Y-137795000D02*
X136398000Y-137795000D01*
D38*
X158686500Y-127508000D02*
X155638500Y-124460000D01*
X155638500Y-124460000D02*
X155575000Y-124460000D01*
X157162500Y-129292502D02*
X157162500Y-128517498D01*
X157162500Y-128517498D02*
X158171998Y-127508000D01*
X158171998Y-127508000D02*
X158686500Y-127508000D01*
X159447654Y-130111500D02*
X157981498Y-130111500D01*
X157981498Y-130111500D02*
X157162500Y-129292502D01*
X160591500Y-131255346D02*
X159447654Y-130111500D01*
X161290000Y-132080000D02*
X161040000Y-132080000D01*
X160591500Y-131631500D02*
X160591500Y-131255346D01*
X161040000Y-132080000D02*
X160591500Y-131631500D01*
X145415000Y-149733000D02*
X142113000Y-149733000D01*
X156972000Y-148907500D02*
X156146500Y-149733000D01*
X156146500Y-149733000D02*
X147637500Y-149733000D01*
X158242000Y-148907500D02*
X156972000Y-148907500D01*
X158242000Y-146177000D02*
X158242000Y-148907500D01*
X121221500Y-153987500D02*
X114744500Y-153987500D01*
X137731500Y-153987500D02*
X129857500Y-153987500D01*
X154241500Y-153987500D02*
X146431000Y-153987500D01*
X167005000Y-153987500D02*
X160274000Y-153987500D01*
X168402000Y-146748500D02*
X168402000Y-150558500D01*
X168402000Y-136652000D02*
X168402000Y-141541500D01*
X168402000Y-125730000D02*
X168402000Y-130873500D01*
X156146500Y-117475000D02*
X161671000Y-117475000D01*
X161671000Y-117475000D02*
X161734500Y-117538500D01*
X146304000Y-117729000D02*
X150749000Y-117729000D01*
X150749000Y-117729000D02*
X150812500Y-117665500D01*
X102425500Y-141859000D02*
X102425500Y-148336000D01*
X102425500Y-131572000D02*
X102425500Y-136906000D01*
X102425500Y-121729500D02*
X102425500Y-126619000D01*
X112839500Y-117729000D02*
X105410000Y-117729000D01*
X105410000Y-117729000D02*
X105346500Y-117665500D01*
X128397000Y-117729000D02*
X120967500Y-117729000D01*
X142113000Y-117602000D02*
X136461500Y-117602000D01*
X136461500Y-117602000D02*
X136398000Y-117538500D01*
X146335000Y-125095000D02*
X146335000Y-117760000D01*
X146335000Y-117760000D02*
X146304000Y-117729000D01*
X131064000Y-129159000D02*
X132207000Y-129159000D01*
X132207000Y-129159000D02*
X132588000Y-129540000D01*
X120547000Y-129159000D02*
X120547000Y-128246000D01*
X120547000Y-128246000D02*
X120713500Y-128079500D01*
D39*
X120713500Y-128079500D02*
X119888000Y-128079500D01*
X119888000Y-128079500D02*
X119507000Y-128460500D01*
X120737500Y-128103500D02*
X120713500Y-128079500D01*
X136700000Y-136525000D02*
X136700000Y-137493000D01*
X136700000Y-137493000D02*
X136398000Y-137795000D01*
D38*
X131572000Y-137453500D02*
X131230500Y-137453500D01*
X131230500Y-137453500D02*
X130683000Y-136906000D01*
X135318500Y-137668000D02*
X134429500Y-137668000D01*
X134429500Y-137668000D02*
X134302500Y-137541000D01*
X135255000Y-136120000D02*
X135255000Y-137604500D01*
X135255000Y-137604500D02*
X135318500Y-137668000D01*
X119316500Y-144272000D02*
X117729000Y-144272000D01*
X121684840Y-143618160D02*
X121240340Y-143618160D01*
X121240340Y-143618160D02*
X120586500Y-144272000D01*
X110871000Y-128714500D02*
X110871000Y-128079500D01*
X110871000Y-128079500D02*
X111125000Y-127825500D01*
X112673000Y-129857500D02*
X112204500Y-129857500D01*
X112204500Y-129857500D02*
X111696500Y-129349500D01*
X114427000Y-131811500D02*
X114427000Y-132397500D01*
X114427000Y-132397500D02*
X116096840Y-134067340D01*
X112673000Y-129857500D02*
X112673000Y-130057500D01*
X112673000Y-130057500D02*
X114427000Y-131811500D01*
X113474500Y-135699500D02*
X114490500Y-135699500D01*
X114490500Y-135699500D02*
X115189000Y-136398000D01*
X116649500Y-138176000D02*
X117411500Y-138176000D01*
X113919000Y-139446000D02*
X114173000Y-139446000D01*
X118999000Y-140692000D02*
X119848500Y-140692000D01*
X119848500Y-140692000D02*
X120332500Y-140208000D01*
X117411500Y-140692000D02*
X118999000Y-140692000D01*
X115887500Y-140704000D02*
X117399500Y-140704000D01*
X117399500Y-140704000D02*
X117411500Y-140692000D01*
X153924000Y-126111000D02*
X153360001Y-125547001D01*
X153360001Y-125547001D02*
X152153501Y-125547001D01*
X152153501Y-125547001D02*
X152146000Y-125539500D01*
X153924000Y-126945500D02*
X153924000Y-126111000D01*
X153924000Y-127595500D02*
X153924000Y-126945500D01*
X148590000Y-124269500D02*
X147764500Y-125095000D01*
X147764500Y-125095000D02*
X146335000Y-125095000D01*
X151765000Y-128270000D02*
X151765000Y-127698500D01*
X151765000Y-127698500D02*
X151130000Y-127063500D01*
X157480000Y-142470000D02*
X157480000Y-143764000D01*
X157480000Y-143764000D02*
X157543500Y-143827500D01*
X151765000Y-142470000D02*
X151408000Y-142470000D01*
X151408000Y-142470000D02*
X150749000Y-143129000D01*
X143879998Y-137668000D02*
X143407000Y-137668000D01*
X143407000Y-137668000D02*
X143280000Y-137795000D01*
X143280000Y-132080000D02*
X143298462Y-132080000D01*
X143298462Y-132080000D02*
X144040930Y-131337532D01*
X143280000Y-132080000D02*
X143280000Y-133725000D01*
X143280000Y-133725000D02*
X143015000Y-133990000D01*
X145415000Y-135890000D02*
X145315000Y-135890000D01*
X145315000Y-135890000D02*
X143415000Y-133990000D01*
X143415000Y-133990000D02*
X143015000Y-133990000D01*
X146748500Y-139636500D02*
X146113500Y-139636500D01*
X146113500Y-139636500D02*
X145669000Y-140081000D01*
X147435000Y-138025000D02*
X147435000Y-138950000D01*
X147435000Y-138950000D02*
X146748500Y-139636500D01*
X153257500Y-134202500D02*
X153257500Y-135567500D01*
X151892500Y-134202500D02*
X153257500Y-134202500D01*
X151892500Y-135567500D02*
X151892500Y-134202500D01*
X126073750Y-136233750D02*
X124236250Y-136233750D01*
X126073750Y-134396250D02*
X126073750Y-136233750D01*
X124236250Y-134396250D02*
X126073750Y-134396250D01*
X113919000Y-139446000D02*
X113819000Y-139446000D01*
X110744000Y-138112500D02*
X111010500Y-137846000D01*
X111010500Y-137846000D02*
X111869000Y-137846000D01*
X110744000Y-138821000D02*
X110744000Y-138112500D01*
X111869000Y-139146000D02*
X111069000Y-139146000D01*
X111069000Y-139146000D02*
X110744000Y-138821000D01*
X111869000Y-137846000D02*
X111869000Y-135805000D01*
X111869000Y-135805000D02*
X111974500Y-135699500D01*
X114879001Y-140371001D02*
X113194001Y-140371001D01*
X113194001Y-140371001D02*
X111969000Y-139146000D01*
X111969000Y-139146000D02*
X111869000Y-139146000D01*
X119062500Y-131508500D02*
X119253000Y-131508500D01*
X119253000Y-131508500D02*
X120269000Y-130492500D01*
D39*
X138800000Y-134025000D02*
X138800000Y-132345000D01*
D38*
X124015500Y-127825500D02*
X125476000Y-127825500D01*
X125476000Y-127825500D02*
X127254000Y-127825500D01*
X125452000Y-128651000D02*
X125452000Y-127849500D01*
X125452000Y-127849500D02*
X125476000Y-127825500D01*
X122405000Y-130865000D02*
X122405000Y-130190000D01*
X122405000Y-130190000D02*
X122047000Y-129832000D01*
X122047000Y-129832000D02*
X122047000Y-129159000D01*
X122047000Y-129159000D02*
X122047000Y-128724500D01*
X122047000Y-128724500D02*
X122946000Y-127825500D01*
X122946000Y-127825500D02*
X124015500Y-127825500D01*
X150495000Y-125922370D02*
X151957370Y-124460000D01*
X150495000Y-128270000D02*
X150495000Y-125922370D01*
X151957370Y-124460000D02*
X153035000Y-124460000D01*
X139954000Y-130365500D02*
X140398500Y-130810000D01*
X139065000Y-132080000D02*
X139954000Y-131191000D01*
X139954000Y-131191000D02*
X139954000Y-130365500D01*
X135255000Y-133794500D02*
X135255000Y-133223000D01*
X135255000Y-134620000D02*
X135255000Y-133794500D01*
X153035000Y-124460000D02*
X154813000Y-122682000D01*
X154813000Y-122682000D02*
X160473498Y-122682000D01*
X160473498Y-122682000D02*
X161920997Y-124129499D01*
X161920997Y-124129499D02*
X165951501Y-124129499D01*
X165951501Y-124129499D02*
X166216499Y-124394497D01*
X166216499Y-124394497D02*
X166216499Y-125820999D01*
X166814500Y-126419000D02*
X166814500Y-126619000D01*
X166216499Y-125820999D02*
X166814500Y-126419000D01*
X110807500Y-135064500D02*
X110807500Y-134175500D01*
X110807500Y-136080500D02*
X110807500Y-135064500D01*
X111974500Y-135699500D02*
X111188500Y-135699500D01*
X111188500Y-135699500D02*
X110807500Y-136080500D01*
X125905000Y-139765000D02*
X125905000Y-140794999D01*
X125905000Y-140794999D02*
X125855010Y-140844989D01*
X125855010Y-140844989D02*
X125855010Y-141603010D01*
X125855010Y-141603010D02*
X126047500Y-141795500D01*
X126047500Y-141795500D02*
X126047500Y-141859000D01*
X126660170Y-142598670D02*
X126660170Y-142471670D01*
X126660170Y-142471670D02*
X126047500Y-141859000D01*
X123405000Y-139765000D02*
X123405000Y-141517000D01*
X123405000Y-141517000D02*
X123190000Y-141732000D01*
X122745500Y-142557500D02*
X122745500Y-142176500D01*
X122745500Y-142176500D02*
X123190000Y-141732000D01*
X117971837Y-135690009D02*
X118396101Y-135690009D01*
X117157500Y-135128000D02*
X117719509Y-135690009D01*
X117719509Y-135690009D02*
X117971837Y-135690009D01*
X120705000Y-135565000D02*
X118521110Y-135565000D01*
X118521110Y-135565000D02*
X118396101Y-135690009D01*
X131572000Y-135953500D02*
X132588000Y-136969500D01*
X132588000Y-137858500D02*
X132588000Y-136969500D01*
X132588000Y-138874500D02*
X132588000Y-137858500D01*
X131572000Y-139025500D02*
X132437000Y-139025500D01*
X132437000Y-139025500D02*
X132588000Y-138874500D01*
X128397000Y-127825500D02*
X129667000Y-127825500D01*
X127254000Y-127825500D02*
X128397000Y-127825500D01*
X126746000Y-129159000D02*
X126746000Y-128333500D01*
X126746000Y-128333500D02*
X127254000Y-127825500D01*
X141859000Y-138557000D02*
X141859000Y-137731500D01*
X141859000Y-139382500D02*
X141859000Y-138557000D01*
X143002000Y-139343000D02*
X141898500Y-139343000D01*
X141898500Y-139343000D02*
X141859000Y-139382500D01*
X131572000Y-139025500D02*
X131772000Y-139025500D01*
X131572000Y-135978500D02*
X131572000Y-135953500D01*
X143002000Y-139343000D02*
X145097500Y-139343000D01*
X147435000Y-136525000D02*
X147435000Y-136550000D01*
X147435000Y-136550000D02*
X145097500Y-138887500D01*
X145097500Y-138887500D02*
X145097500Y-139343000D01*
X151765000Y-129770000D02*
X150519000Y-129770000D01*
X150519000Y-129770000D02*
X150495000Y-129794000D01*
X156210000Y-129855000D02*
X156160000Y-129855000D01*
X156160000Y-129855000D02*
X154624001Y-128319001D01*
X154624001Y-128319001D02*
X154624001Y-126049001D01*
X154624001Y-126049001D02*
X153796999Y-125221999D01*
X153796999Y-125221999D02*
X153035000Y-124460000D01*
X118999000Y-139192000D02*
X119476181Y-139192000D01*
X119550878Y-139266697D02*
X120503303Y-139266697D01*
X119476181Y-139192000D02*
X119550878Y-139266697D01*
X120503303Y-139266697D02*
X120705000Y-139065000D01*
X120705000Y-139065000D02*
X120430000Y-139065000D01*
X118999000Y-139192000D02*
X118999000Y-139217000D01*
X118999000Y-139217000D02*
X118249001Y-139966999D01*
X118249001Y-139966999D02*
X115283003Y-139966999D01*
X115283003Y-139966999D02*
X114879001Y-140371001D01*
X111619000Y-139446000D02*
X111519000Y-139446000D01*
X129605000Y-135565000D02*
X131183500Y-135565000D01*
X131183500Y-135565000D02*
X131572000Y-135953500D01*
X120705000Y-133065000D02*
X119969000Y-133065000D01*
X119969000Y-133065000D02*
X119062500Y-132158500D01*
X119062500Y-132158500D02*
X119062500Y-131508500D01*
D39*
X138800000Y-132345000D02*
X139065000Y-132080000D01*
X136700000Y-134525000D02*
X135350000Y-134525000D01*
X135350000Y-134525000D02*
X135255000Y-134620000D01*
D38*
X152250000Y-131535000D02*
X152250000Y-130255000D01*
X152250000Y-130255000D02*
X151765000Y-129770000D01*
X149225000Y-135860000D02*
X148100000Y-135860000D01*
X148100000Y-135860000D02*
X147435000Y-136525000D01*
X144780000Y-132080000D02*
X144780000Y-133355000D01*
X144780000Y-133355000D02*
X145415000Y-133990000D01*
X149225000Y-134560000D02*
X145985000Y-134560000D01*
X145985000Y-134560000D02*
X145415000Y-133990000D01*
X143015000Y-135890000D02*
X143115000Y-135890000D01*
X143115000Y-135890000D02*
X144780000Y-137555000D01*
X144780000Y-137555000D02*
X144780000Y-137795000D01*
X149225000Y-135210000D02*
X147389998Y-135210000D01*
X147389998Y-135210000D02*
X146440001Y-136159997D01*
X146440001Y-136784999D02*
X145430000Y-137795000D01*
X146440001Y-136159997D02*
X146440001Y-136784999D01*
X145430000Y-137795000D02*
X144780000Y-137795000D01*
X152971500Y-127916498D02*
X152971500Y-126662264D01*
X153924000Y-129095500D02*
X153924000Y-129070500D01*
X153924000Y-129070500D02*
X153299000Y-128445500D01*
X153299000Y-128445500D02*
X153299000Y-128243998D01*
X153299000Y-128243998D02*
X152971500Y-127916498D01*
X152971500Y-126662264D02*
X152971500Y-126238000D01*
X154200000Y-130985000D02*
X154231502Y-130953498D01*
X154200000Y-131535000D02*
X154200000Y-130985000D01*
X154231502Y-130953498D02*
X154231502Y-129403002D01*
X154231502Y-129403002D02*
X153924000Y-129095500D01*
X162266500Y-126619000D02*
X162266500Y-126404500D01*
X162266500Y-126404500D02*
X163766500Y-124904500D01*
X163004500Y-126492000D02*
X162393500Y-126492000D01*
X162393500Y-126492000D02*
X162266500Y-126619000D01*
D39*
X138000000Y-134025000D02*
X138000000Y-133550000D01*
X138000000Y-133550000D02*
X137160000Y-132710000D01*
X137160000Y-132710000D02*
X137160000Y-132080000D01*
D38*
X165314500Y-126619000D02*
X165314500Y-124931500D01*
X165314500Y-124931500D02*
X165341500Y-124904500D01*
X134088000Y-127889000D02*
X134088000Y-129440000D01*
D39*
X134088000Y-129440000D02*
X134188000Y-129540000D01*
D38*
X163766500Y-123190000D02*
X165405000Y-123190000D01*
X163766500Y-119888000D02*
X165417500Y-119888000D01*
X163766500Y-121539000D02*
X165417500Y-121539000D01*
X162266500Y-124904500D02*
X161766500Y-124904500D01*
X161766500Y-124904500D02*
X160816499Y-125854501D01*
X160816499Y-125854501D02*
X160816499Y-127161499D01*
D40*
X161290000Y-130080000D02*
X160816499Y-129606499D01*
X160816499Y-129606499D02*
X160816499Y-127161499D01*
X160816499Y-127161499D02*
X158876999Y-125221999D01*
X158876999Y-125221999D02*
X158115000Y-124460000D01*
D38*
X112673000Y-127952500D02*
X112173000Y-127952500D01*
X112173000Y-127952500D02*
X110800000Y-126579500D01*
X110800000Y-126579500D02*
X110800000Y-122270000D01*
D40*
X113030000Y-150170000D02*
X124460000Y-150170000D01*
X124460000Y-150170000D02*
X136215000Y-150170000D01*
X124460000Y-147320000D02*
X124460000Y-150170000D01*
X136215000Y-150170000D02*
X137415000Y-148970000D01*
X137415000Y-148970000D02*
X137415000Y-147320000D01*
X105899990Y-143999990D02*
X105899990Y-151970588D01*
X105899990Y-151970588D02*
X106954412Y-153025010D01*
X106954412Y-153025010D02*
X110174990Y-153025010D01*
X110174990Y-153025010D02*
X113030000Y-150170000D01*
X113030000Y-150170000D02*
X113030000Y-147320000D01*
X105899990Y-123524412D02*
X105899990Y-133985000D01*
X105899990Y-133985000D02*
X105899990Y-143999990D01*
X107950000Y-133795000D02*
X106089990Y-133795000D01*
X106089990Y-133795000D02*
X105899990Y-133985000D01*
X105899990Y-143999990D02*
X107125000Y-145225000D01*
X107125000Y-145225000D02*
X107950000Y-145225000D01*
X107950000Y-122270000D02*
X107154402Y-122270000D01*
X107154402Y-122270000D02*
X105899990Y-123524412D01*
X128335598Y-122270000D02*
X120015000Y-122270000D01*
X120015000Y-122270000D02*
X110800000Y-122270000D01*
X118935000Y-125095000D02*
X118935000Y-123350000D01*
X118935000Y-123350000D02*
X120015000Y-122270000D01*
X130365000Y-125095000D02*
X130365000Y-124299402D01*
X130365000Y-124299402D02*
X128335598Y-122270000D01*
X110800000Y-122270000D02*
X107950000Y-122270000D01*
D38*
X108200000Y-126270000D02*
X107950000Y-126270000D01*
X109605000Y-127675000D02*
X108200000Y-126270000D01*
X109605000Y-129386538D02*
X109605000Y-127675000D01*
X117033464Y-136815002D02*
X109605000Y-129386538D01*
X118903206Y-136815002D02*
X117033464Y-136815002D01*
X119153208Y-136565000D02*
X118903206Y-136815002D01*
X120705000Y-136565000D02*
X119153208Y-136565000D01*
X108200000Y-124270000D02*
X107950000Y-124270000D01*
X110105000Y-126175000D02*
X108200000Y-124270000D01*
X110105000Y-129153590D02*
X110105000Y-126175000D01*
X117266421Y-136315011D02*
X110105000Y-129153590D01*
X118696103Y-136315011D02*
X117266421Y-136315011D01*
X118946114Y-136065000D02*
X118696103Y-136315011D01*
X120705000Y-136065000D02*
X118946114Y-136065000D01*
X117725000Y-131521944D02*
X117725000Y-129008552D01*
X123980485Y-127250000D02*
X124096498Y-127133987D01*
X126576013Y-127133987D02*
X128365000Y-125345000D01*
X120705000Y-133565000D02*
X119768056Y-133565000D01*
X124096498Y-127133987D02*
X126576013Y-127133987D01*
X119483552Y-127250000D02*
X123980485Y-127250000D01*
X119768056Y-133565000D02*
X117725000Y-131521944D01*
X117725000Y-129008552D02*
X119483552Y-127250000D01*
X128365000Y-125345000D02*
X128365000Y-125095000D01*
X120705000Y-134065000D02*
X119560962Y-134065000D01*
X119276448Y-126750000D02*
X123844074Y-126750000D01*
X125026024Y-126683976D02*
X126365000Y-125345000D01*
X123910098Y-126683976D02*
X125026024Y-126683976D01*
X117290402Y-128736046D02*
X119276448Y-126750000D01*
X117290402Y-131794440D02*
X117290402Y-128736046D01*
X123844074Y-126750000D02*
X123910098Y-126683976D01*
X119560962Y-134065000D02*
X117290402Y-131794440D01*
X126365000Y-125345000D02*
X126365000Y-125095000D01*
X124905001Y-143610053D02*
X127210000Y-145915052D01*
X126460000Y-147070000D02*
X126460000Y-147320000D01*
X127210000Y-145915052D02*
X127210000Y-146320000D01*
X127210000Y-146320000D02*
X126460000Y-147070000D01*
X124905000Y-139765000D02*
X124905001Y-139765001D01*
X124905001Y-139765001D02*
X124905001Y-143610053D01*
X125404999Y-143402947D02*
X127710000Y-145707948D01*
X128460000Y-147070000D02*
X128460000Y-147320000D01*
X127710000Y-145707948D02*
X127710000Y-146320000D01*
X127710000Y-146320000D02*
X128460000Y-147070000D01*
X125405000Y-139765000D02*
X125404999Y-139765001D01*
X125404999Y-139765001D02*
X125404999Y-143402947D01*
X120251177Y-142676285D02*
X119878375Y-142676285D01*
X119827090Y-142625000D02*
X114831448Y-142625000D01*
X119878375Y-142676285D02*
X119827090Y-142625000D01*
X122405000Y-139765000D02*
X122405000Y-140522462D01*
X122405000Y-140522462D02*
X120251177Y-142676285D01*
X108950000Y-147975000D02*
X108200000Y-147225000D01*
X108200000Y-147225000D02*
X107950000Y-147225000D01*
X114831448Y-142625000D02*
X109481448Y-147975000D01*
X109481448Y-147975000D02*
X108950000Y-147975000D01*
X120701783Y-143176275D02*
X114987277Y-143176275D01*
X122905000Y-139765000D02*
X122905000Y-140973058D01*
X108950000Y-148475000D02*
X108200000Y-149225000D01*
X122905000Y-140973058D02*
X120701783Y-143176275D01*
X114987277Y-143176275D02*
X109688552Y-148475000D01*
X109688552Y-148475000D02*
X108950000Y-148475000D01*
X108200000Y-149225000D02*
X107950000Y-149225000D01*
X121181448Y-145165000D02*
X117185000Y-145165000D01*
X117185000Y-145165000D02*
X116676447Y-145673553D01*
X116676447Y-145673553D02*
X115030000Y-147320000D01*
X123905001Y-142441447D02*
X121181448Y-145165000D01*
X123905000Y-139765000D02*
X123905001Y-139765001D01*
X123905001Y-139765001D02*
X123905001Y-142441447D01*
X121388552Y-145665000D02*
X117392106Y-145665000D01*
X117392106Y-145665000D02*
X117030000Y-146027106D01*
X117030000Y-146027106D02*
X117030000Y-147320000D01*
X124404999Y-142648553D02*
X121388552Y-145665000D01*
X124405000Y-139765000D02*
X124404999Y-139765001D01*
X124404999Y-139765001D02*
X124404999Y-142648553D01*
X110105000Y-137950000D02*
X109596447Y-137441447D01*
X110105000Y-140485448D02*
X110105000Y-137950000D01*
X109596447Y-137441447D02*
X107950000Y-135795000D01*
X111038052Y-141418500D02*
X110105000Y-140485448D01*
X115241998Y-141418500D02*
X111038052Y-141418500D01*
X115252499Y-141429001D02*
X115241998Y-141418500D01*
X120165448Y-141418500D02*
X116533002Y-141418500D01*
X121405001Y-140178947D02*
X120165448Y-141418500D01*
X116533002Y-141418500D02*
X116522501Y-141429001D01*
X116522501Y-141429001D02*
X115252499Y-141429001D01*
X121405001Y-139765001D02*
X121405001Y-140178947D01*
X121405001Y-139765001D02*
X121405000Y-139765000D01*
X109605000Y-140692552D02*
X109605000Y-138157106D01*
X109605000Y-138157106D02*
X109242894Y-137795000D01*
X109242894Y-137795000D02*
X107950000Y-137795000D01*
X110830948Y-141918500D02*
X109605000Y-140692552D01*
X115034904Y-141918500D02*
X110830948Y-141918500D01*
X121904999Y-140386053D02*
X120372552Y-141918500D01*
X120372552Y-141918500D02*
X116740096Y-141918500D01*
X116740096Y-141918500D02*
X116729604Y-141928992D01*
X116729604Y-141928992D02*
X115045395Y-141928991D01*
X115045395Y-141928991D02*
X115034904Y-141918500D01*
X121905000Y-139765000D02*
X121904999Y-139765001D01*
X121904999Y-139765001D02*
X121904999Y-140386053D01*
X155925000Y-135860000D02*
X156815000Y-135860000D01*
X156815000Y-135860000D02*
X156845000Y-135890000D01*
X154850000Y-131535000D02*
X154850000Y-130265000D01*
X154850000Y-130265000D02*
X154940000Y-130175000D01*
X148382990Y-133260000D02*
X148137989Y-133014999D01*
X148137989Y-133014999D02*
X147837990Y-132715000D01*
X149225000Y-133260000D02*
X148382990Y-133260000D01*
X149850000Y-131535000D02*
X149833499Y-131518499D01*
X150300000Y-131535000D02*
X149850000Y-131535000D01*
X149833499Y-131518499D02*
X148028499Y-131518499D01*
X147619999Y-131109999D02*
X147320000Y-130810000D01*
X148028499Y-131518499D02*
X147619999Y-131109999D01*
X150950000Y-131535000D02*
X150950000Y-130985000D01*
X150950000Y-130985000D02*
X150775000Y-130810000D01*
X150775000Y-130810000D02*
X148590000Y-130810000D01*
X161040000Y-151765000D02*
X161290000Y-151765000D01*
X159385000Y-136525000D02*
X159385000Y-150110000D01*
X155925000Y-134560000D02*
X157420000Y-134560000D01*
X157420000Y-134560000D02*
X159385000Y-136525000D01*
X159385000Y-150110000D02*
X161040000Y-151765000D01*
X159450859Y-131020999D02*
X160114999Y-131685139D01*
X160114999Y-131685139D02*
X160114999Y-132940001D01*
X160114999Y-132940001D02*
X163195000Y-136020002D01*
X163195000Y-148110000D02*
X161540000Y-149765000D01*
X163077999Y-144479999D02*
X163077999Y-145080001D01*
X163195000Y-136020002D02*
X163195000Y-144362998D01*
X163195000Y-145197002D02*
X163195000Y-148110000D01*
X163195000Y-144362998D02*
X163077999Y-144479999D01*
X157614001Y-131020999D02*
X159450859Y-131020999D01*
X156025000Y-132610000D02*
X157614001Y-131020999D01*
X161540000Y-149765000D02*
X161290000Y-149765000D01*
X163077999Y-145080001D02*
X163195000Y-145197002D01*
X155925000Y-132610000D02*
X156025000Y-132610000D01*
X160020000Y-135890000D02*
X160020000Y-141220000D01*
X160020000Y-141220000D02*
X161040000Y-142240000D01*
X161040000Y-142240000D02*
X161290000Y-142240000D01*
X158040000Y-133910000D02*
X160020000Y-135890000D01*
X155925000Y-133910000D02*
X158040000Y-133910000D01*
X157214001Y-132520999D02*
X156475000Y-133260000D01*
X156475000Y-133260000D02*
X155925000Y-133260000D01*
X162465010Y-135926422D02*
X159059587Y-132520999D01*
X159059587Y-132520999D02*
X157214001Y-132520999D01*
X161540000Y-140240000D02*
X162465010Y-139314990D01*
X161290000Y-140240000D02*
X161540000Y-140240000D01*
X162465010Y-139314990D02*
X162465010Y-135926422D01*
X140589000Y-150495000D02*
X139415000Y-149321000D01*
X139415000Y-149321000D02*
X139415000Y-147320000D01*
X157984998Y-150495000D02*
X140589000Y-150495000D01*
X165290500Y-152908000D02*
X160397998Y-152908000D01*
X160397998Y-152908000D02*
X157984998Y-150495000D01*
X162266500Y-123190000D02*
X162266500Y-122990000D01*
X162266500Y-122990000D02*
X162892000Y-122364500D01*
X162892000Y-122364500D02*
X166243000Y-122364500D01*
X153606500Y-122047000D02*
X160623500Y-122047000D01*
X161766500Y-123190000D02*
X162266500Y-123190000D01*
X160623500Y-122047000D02*
X161766500Y-123190000D01*
X149606000Y-126047500D02*
X153606500Y-122047000D01*
X149606000Y-127508000D02*
X149606000Y-126047500D01*
X146558000Y-130492500D02*
X147383500Y-129667000D01*
X147383500Y-129667000D02*
X149606000Y-129667000D01*
X146558000Y-132651500D02*
X146558000Y-130492500D01*
X147816500Y-133910000D02*
X146558000Y-132651500D01*
X149225000Y-133910000D02*
X147816500Y-133910000D01*
X156527500Y-139339236D02*
X156527500Y-139763500D01*
X156527500Y-138212500D02*
X156527500Y-139339236D01*
X155925000Y-137610000D02*
X156527500Y-138212500D01*
X155925000Y-137160000D02*
X155925000Y-137610000D01*
X156273500Y-147639661D02*
X156273500Y-147447000D01*
X154942161Y-148971000D02*
X142816000Y-148971000D01*
X141415000Y-147570000D02*
X141415000Y-147320000D01*
X142816000Y-148971000D02*
X141415000Y-147570000D01*
X156273500Y-147639661D02*
X154942161Y-148971000D01*
X161226500Y-119824500D02*
X162203000Y-119824500D01*
X162203000Y-119824500D02*
X162266500Y-119888000D01*
X163703000Y-144780000D02*
X163703000Y-129857500D01*
X163703000Y-129857500D02*
X165227000Y-128333500D01*
X156908500Y-145796000D02*
X144689000Y-145796000D01*
X144689000Y-145796000D02*
X143415000Y-147070000D01*
X143415000Y-147070000D02*
X143415000Y-147320000D01*
X158750000Y-143954500D02*
X156908500Y-145796000D01*
X160210500Y-121412000D02*
X162139500Y-121412000D01*
X162139500Y-121412000D02*
X162266500Y-121539000D01*
X158750000Y-139446000D02*
X158750000Y-143954500D01*
X155925000Y-136510000D02*
X156475000Y-136510000D01*
X156475000Y-136510000D02*
X157543500Y-137578500D01*
X157543500Y-137578500D02*
X157543500Y-139446000D01*
X155765500Y-138493500D02*
X155765500Y-139636500D01*
X155765500Y-139636500D02*
X155448000Y-139954000D01*
X155507000Y-138235000D02*
X155765500Y-138493500D01*
X154850000Y-138235000D02*
X155507000Y-138235000D01*
X152465001Y-127428344D02*
X152206125Y-127169468D01*
X152206125Y-127169468D02*
X151906126Y-126869469D01*
X152465001Y-128309480D02*
X152465001Y-127428344D01*
X152644057Y-128488536D02*
X152465001Y-128309480D01*
X167068500Y-150050500D02*
X163512500Y-150050500D01*
X163512500Y-150050500D02*
X162941000Y-150622000D01*
X151524012Y-122922988D02*
X155448000Y-118999000D01*
X155448000Y-118999000D02*
X166306500Y-118999000D01*
X150050500Y-124396500D02*
X151524012Y-122922988D01*
X153550000Y-131535000D02*
X153550000Y-130052002D01*
X153550000Y-130052002D02*
X153606500Y-129995502D01*
X150304500Y-145097500D02*
X155003500Y-145097500D01*
X148717000Y-145097500D02*
X150304500Y-145097500D01*
X149225000Y-137160000D02*
X149225000Y-137795000D01*
X149225000Y-137795000D02*
X148717000Y-138303000D01*
X157099000Y-126873000D02*
X157099000Y-127066000D01*
X157099000Y-127066000D02*
X156210000Y-127955000D01*
X156530000Y-127635000D02*
X156210000Y-127955000D01*
X154200000Y-138235000D02*
X154200000Y-138785000D01*
X154200000Y-138785000D02*
X154480000Y-139065000D01*
X154480000Y-139065000D02*
X154940000Y-139065000D01*
X159489989Y-132063785D02*
X158900285Y-132063785D01*
X158900285Y-132063785D02*
X158432500Y-131596000D01*
X158210000Y-128905000D02*
X159194500Y-128905000D01*
X123405000Y-130865000D02*
X123405000Y-129505201D01*
X123405000Y-129505201D02*
X123397011Y-129497212D01*
X132207000Y-121348500D02*
X132207000Y-123698000D01*
X132207000Y-123698000D02*
X132143500Y-123761500D01*
X148248500Y-139636500D02*
X149034500Y-139636500D01*
X149034500Y-139636500D02*
X149479000Y-139192000D01*
X150300000Y-138235000D02*
X150300000Y-138371000D01*
X150300000Y-138371000D02*
X149479000Y-139192000D01*
X114173000Y-127952500D02*
X114173000Y-126936500D01*
X114173000Y-126936500D02*
X114236500Y-126873000D01*
X114173000Y-127952500D02*
X114173000Y-129857500D01*
X124405000Y-130064084D02*
X124541001Y-129928083D01*
X124541001Y-129928083D02*
X124541001Y-129776499D01*
X124405000Y-130865000D02*
X124405000Y-130064084D01*
X124541001Y-129776499D02*
X124841000Y-129476500D01*
X128246000Y-129159000D02*
X127561510Y-129159000D01*
X127561510Y-129159000D02*
X127508000Y-129105490D01*
X125459584Y-129743764D02*
X125883848Y-129743764D01*
X124905000Y-130298348D02*
X125459584Y-129743764D01*
X124905000Y-130865000D02*
X124905000Y-130298348D01*
X129564000Y-129159000D02*
X130175000Y-129159000D01*
X130175000Y-129159000D02*
X130302000Y-129286000D01*
X127405000Y-139765000D02*
X127405000Y-140440000D01*
X127405000Y-140440000D02*
X127490500Y-140525500D01*
X127490500Y-140525500D02*
X130872000Y-140525500D01*
X130872000Y-140525500D02*
X131572000Y-140525500D01*
X122905000Y-129927000D02*
X122772001Y-129794001D01*
X122832528Y-129013643D02*
X123132527Y-128713644D01*
X122772001Y-129794001D02*
X122772001Y-129074170D01*
X122905000Y-130865000D02*
X122905000Y-129927000D01*
X122772001Y-129074170D02*
X122832528Y-129013643D01*
X130429000Y-126746000D02*
X131645000Y-126746000D01*
X131645000Y-126746000D02*
X132588000Y-127689000D01*
D39*
X123004989Y-128841182D02*
X123132527Y-128713644D01*
X132588000Y-127689000D02*
X132588000Y-127889000D01*
D38*
X124022013Y-128721013D02*
X123952000Y-128651000D01*
X123905000Y-130865000D02*
X123905000Y-129927673D01*
X124022013Y-129810660D02*
X124022013Y-128721013D01*
X123905000Y-129927673D02*
X124022013Y-129810660D01*
X113411000Y-142875000D02*
X112625000Y-142875000D01*
X112625000Y-142875000D02*
X112244000Y-143256000D01*
X120705000Y-138565000D02*
X119927575Y-138565000D01*
X119927575Y-138565000D02*
X119850879Y-138641696D01*
X156210000Y-143510000D02*
X156210000Y-143105000D01*
X156210000Y-143105000D02*
X155575000Y-142470000D01*
X158432500Y-133096000D02*
X158496000Y-133096000D01*
X158496000Y-133096000D02*
X159385000Y-133985000D01*
X128801448Y-143125000D02*
X132611448Y-143125000D01*
X132611448Y-143125000D02*
X133881448Y-144395000D01*
X126905000Y-140586506D02*
X127155002Y-140836508D01*
X126905000Y-139765000D02*
X126905000Y-140586506D01*
X127155002Y-141478554D02*
X128801448Y-143125000D01*
X127155002Y-140836508D02*
X127155002Y-141478554D01*
X155575000Y-142970000D02*
X155575000Y-142470000D01*
X154150000Y-144395000D02*
X155575000Y-142970000D01*
X133881448Y-144395000D02*
X154150000Y-144395000D01*
X128204276Y-141160500D02*
X127780012Y-141160500D01*
X152045000Y-143895000D02*
X134088552Y-143895000D01*
X153470000Y-142470000D02*
X152045000Y-143895000D01*
X153670000Y-142470000D02*
X153470000Y-142470000D01*
X126405000Y-139765000D02*
X126405000Y-141085480D01*
X126405000Y-141085480D02*
X126480020Y-141160500D01*
X134088552Y-143895000D02*
X131354052Y-141160500D01*
X131354052Y-141160500D02*
X128204276Y-141160500D01*
X148297998Y-140843000D02*
X148209000Y-140843000D01*
X148209000Y-140843000D02*
X145097500Y-140843000D01*
X150950000Y-138785000D02*
X148892000Y-140843000D01*
X148892000Y-140843000D02*
X148209000Y-140843000D01*
X139070001Y-141140001D02*
X141419997Y-141140001D01*
X141419997Y-141140001D02*
X142291999Y-140267999D01*
X142291999Y-140267999D02*
X143822499Y-140267999D01*
X143822499Y-140267999D02*
X144397500Y-140843000D01*
X144397500Y-140843000D02*
X145097500Y-140843000D01*
X150950000Y-138235000D02*
X150950000Y-138785000D01*
X138495000Y-140565000D02*
X137795000Y-140565000D01*
X139070001Y-141140001D02*
X138495000Y-140565000D01*
X137630000Y-141605000D02*
X142040000Y-141605000D01*
X142040000Y-141605000D02*
X142802000Y-140843000D01*
X142802000Y-140843000D02*
X143002000Y-140843000D01*
X148780000Y-141605000D02*
X144464000Y-141605000D01*
X144464000Y-141605000D02*
X143702000Y-140843000D01*
X143702000Y-140843000D02*
X143002000Y-140843000D01*
X137630000Y-141605000D02*
X136590000Y-140565000D01*
X136590000Y-140565000D02*
X135890000Y-140565000D01*
X151600000Y-138235000D02*
X151600000Y-138785000D01*
X151600000Y-138785000D02*
X148780000Y-141605000D01*
D39*
X140450001Y-139555001D02*
X140450001Y-138450001D01*
X140450001Y-138450001D02*
X139200000Y-137200000D01*
X136725000Y-139700000D02*
X136809999Y-139615001D01*
X136809999Y-139615001D02*
X140390001Y-139615001D01*
X140390001Y-139615001D02*
X140450001Y-139555001D01*
X139200000Y-137200000D02*
X139200000Y-137025000D01*
X135890000Y-139065000D02*
X136090000Y-139065000D01*
X136090000Y-139065000D02*
X136725000Y-139700000D01*
D38*
X133985000Y-139065000D02*
X135890000Y-139065000D01*
X152250000Y-138235000D02*
X152250000Y-138785000D01*
X152250000Y-138785000D02*
X148795000Y-142240000D01*
X148795000Y-142240000D02*
X135160000Y-142240000D01*
X135160000Y-142240000D02*
X133985000Y-141065000D01*
X133985000Y-141065000D02*
X133985000Y-140565000D01*
D39*
X138800000Y-137025000D02*
X138800000Y-138260000D01*
X138800000Y-138260000D02*
X137995000Y-139065000D01*
X137995000Y-139065000D02*
X137795000Y-139065000D01*
D38*
X137795000Y-139065000D02*
X139700000Y-139065000D01*
X140970000Y-139995000D02*
X140400000Y-140565000D01*
X152900000Y-131535000D02*
X152900000Y-129665003D01*
X152900000Y-129665003D02*
X152276995Y-129041998D01*
X152276995Y-129041998D02*
X149305998Y-129041998D01*
X141039011Y-132960987D02*
X141039011Y-136858636D01*
X149302997Y-129044999D02*
X144954999Y-129044999D01*
X144954999Y-129044999D02*
X141039011Y-132960987D01*
X149305998Y-129041998D02*
X149302997Y-129044999D01*
X140970000Y-136927647D02*
X140970000Y-139995000D01*
X141039011Y-136858636D02*
X140970000Y-136927647D01*
X140400000Y-140565000D02*
X139700000Y-140565000D01*
X120705000Y-137565000D02*
X113850000Y-137565000D01*
X113850000Y-137565000D02*
X113569000Y-137846000D01*
X148463000Y-132143500D02*
X148758500Y-132143500D01*
X148758500Y-132143500D02*
X149225000Y-132610000D01*
X140462000Y-136799236D02*
X140462000Y-132651500D01*
X140462000Y-132651500D02*
X143002000Y-130111500D01*
X140271500Y-137414000D02*
X140271500Y-136989736D01*
X140271500Y-136989736D02*
X140462000Y-136799236D01*
D39*
X138400000Y-137025000D02*
X138400000Y-137698000D01*
X138400000Y-137698000D02*
X138112500Y-137985500D01*
D38*
X139836990Y-132324010D02*
X139836990Y-132691096D01*
X141668500Y-130492500D02*
X139836990Y-132324010D01*
X139836990Y-132691096D02*
X139836990Y-133115360D01*
D39*
X137200000Y-134025000D02*
X137200000Y-133644000D01*
X137200000Y-133644000D02*
X136652000Y-133096000D01*
D38*
X141795500Y-136555502D02*
X141795500Y-133267891D01*
X141795500Y-133267891D02*
X142417763Y-132645628D01*
X142494000Y-138369002D02*
X142494000Y-137254002D01*
X142494000Y-137254002D02*
X141795500Y-136555502D01*
X144018000Y-138620500D02*
X142745498Y-138620500D01*
X142745498Y-138620500D02*
X142494000Y-138369002D01*
X149225000Y-136510000D02*
X148668500Y-136510000D01*
X148668500Y-136510000D02*
X148399500Y-136779000D01*
X155575000Y-140970000D02*
X157480000Y-140970000D01*
X154305000Y-140335000D02*
X153550000Y-139580000D01*
X153550000Y-139580000D02*
X153550000Y-138235000D01*
X154740000Y-140335000D02*
X154305000Y-140335000D01*
X155575000Y-140970000D02*
X155375000Y-140970000D01*
X155375000Y-140970000D02*
X154740000Y-140335000D01*
X152900000Y-138235000D02*
X152900000Y-140400000D01*
X152900000Y-140400000D02*
X153470000Y-140970000D01*
X153470000Y-140970000D02*
X153670000Y-140970000D01*
X151765000Y-140970000D02*
X153670000Y-140970000D01*
D39*
X138400000Y-134025000D02*
X138400000Y-132730002D01*
X138400000Y-132730002D02*
X137835001Y-132165003D01*
X151219001Y-141769999D02*
X157995003Y-141769999D01*
X137835001Y-132165003D02*
X137835001Y-131485001D01*
X137835001Y-131485001D02*
X137630001Y-131280001D01*
X158149999Y-139734001D02*
X158149999Y-139157999D01*
X158149999Y-139157999D02*
X158155001Y-139152997D01*
X158155001Y-139152997D02*
X158155001Y-135930001D01*
X158155001Y-135930001D02*
X157435000Y-135210000D01*
X157435000Y-135210000D02*
X156425000Y-135210000D01*
X156425000Y-135210000D02*
X155925000Y-135210000D01*
X158155001Y-141610001D02*
X158155001Y-139739003D01*
X158155001Y-139739003D02*
X158149999Y-139734001D01*
X157995003Y-141769999D02*
X158155001Y-141610001D01*
X150114000Y-142875000D02*
X151219001Y-141769999D01*
X133985000Y-142875000D02*
X150114000Y-142875000D01*
X137630001Y-131280001D02*
X136054999Y-131280001D01*
X136054999Y-131280001D02*
X134112000Y-133223000D01*
X134112000Y-133223000D02*
X134112000Y-134728502D01*
X134112000Y-134728502D02*
X133234999Y-135605503D01*
X133234999Y-142124999D02*
X133985000Y-142875000D01*
X133234999Y-135605503D02*
X133234999Y-142124999D01*
D38*
X116935000Y-126195000D02*
X116935000Y-125095000D01*
X116935000Y-126545000D02*
X116935000Y-126195000D01*
X116185000Y-127295000D02*
X116935000Y-126545000D01*
X116185000Y-130483444D02*
X116185000Y-127295000D01*
X116135598Y-130532846D02*
X116185000Y-130483444D01*
X118408552Y-134565000D02*
X116135598Y-132292046D01*
X120705000Y-134565000D02*
X118408552Y-134565000D01*
X116135598Y-132292046D02*
X116135598Y-130532846D01*
X120704999Y-135064999D02*
X118201447Y-135064999D01*
X118201447Y-135064999D02*
X115685000Y-132548552D01*
X115685000Y-132548552D02*
X115685000Y-127295000D01*
X114935000Y-126545000D02*
X114935000Y-125095000D01*
X115685000Y-127295000D02*
X114935000Y-126545000D01*
X120705000Y-135065000D02*
X120704999Y-135064999D01*
X131572000Y-134354000D02*
X133147500Y-134354000D01*
X133147500Y-134354000D02*
X133159500Y-134366000D01*
X129605000Y-135065000D02*
X130861000Y-135065000D01*
X130861000Y-135065000D02*
X131572000Y-134354000D01*
X117411500Y-139167000D02*
X117411500Y-139192000D01*
X118563490Y-138015010D02*
X117411500Y-139167000D01*
X119995008Y-138015010D02*
X118563490Y-138015010D01*
X120019999Y-138040001D02*
X119995008Y-138015010D01*
X120680001Y-138040001D02*
X120019999Y-138040001D01*
X120705000Y-138065000D02*
X120680001Y-138040001D01*
X115887500Y-139204000D02*
X117399500Y-139204000D01*
X117399500Y-139204000D02*
X117411500Y-139192000D01*
D41*
G36*
X168835000Y-119293091D02*
X168835000Y-152359909D01*
X166710908Y-154484000D01*
X110877833Y-154484000D01*
X111331110Y-154181130D01*
X113707239Y-151805000D01*
X136214995Y-151805000D01*
X136215000Y-151805001D01*
X136840688Y-151680543D01*
X137371120Y-151326120D01*
X138571117Y-150126122D01*
X138571120Y-150126120D01*
X138813801Y-149762921D01*
X138877599Y-149858401D01*
X140051599Y-151032401D01*
X140298161Y-151197148D01*
X140589000Y-151255000D01*
X157670196Y-151255000D01*
X159860597Y-153445401D01*
X160107158Y-153610148D01*
X160397998Y-153668000D01*
X164728037Y-153668000D01*
X164760173Y-153700192D01*
X165103701Y-153842838D01*
X165475667Y-153843162D01*
X165819443Y-153701117D01*
X166082692Y-153438327D01*
X166225338Y-153094799D01*
X166225662Y-152722833D01*
X166083617Y-152379057D01*
X165820827Y-152115808D01*
X165477299Y-151973162D01*
X165105333Y-151972838D01*
X164761557Y-152114883D01*
X164728382Y-152148000D01*
X162787440Y-152148000D01*
X162787440Y-151556867D01*
X163126167Y-151557162D01*
X163469943Y-151415117D01*
X163733192Y-151152327D01*
X163875132Y-150810500D01*
X166506037Y-150810500D01*
X166538173Y-150842692D01*
X166881701Y-150985338D01*
X167253667Y-150985662D01*
X167597443Y-150843617D01*
X167860692Y-150580827D01*
X168003338Y-150237299D01*
X168003662Y-149865333D01*
X167861617Y-149521557D01*
X167598827Y-149258308D01*
X167255299Y-149115662D01*
X166883333Y-149115338D01*
X166539557Y-149257383D01*
X166506382Y-149290500D01*
X163512500Y-149290500D01*
X163221661Y-149348352D01*
X162975099Y-149513099D01*
X162801320Y-149686878D01*
X162788551Y-149686866D01*
X162772688Y-149607114D01*
X163732401Y-148647401D01*
X163897148Y-148400840D01*
X163924001Y-148265839D01*
X163955000Y-148110000D01*
X163955000Y-145687547D01*
X164231943Y-145573117D01*
X164495192Y-145310327D01*
X164637838Y-144966799D01*
X164638162Y-144594833D01*
X164496117Y-144251057D01*
X164463000Y-144217882D01*
X164463000Y-130172302D01*
X165366680Y-129268622D01*
X165412167Y-129268662D01*
X165755943Y-129126617D01*
X166019192Y-128863827D01*
X166161838Y-128520299D01*
X166162162Y-128148333D01*
X166020117Y-127804557D01*
X165853481Y-127637630D01*
X166015941Y-127533090D01*
X166063634Y-127463289D01*
X166100410Y-127520441D01*
X166312610Y-127665431D01*
X166564500Y-127716440D01*
X167064500Y-127716440D01*
X167299817Y-127672162D01*
X167515941Y-127533090D01*
X167660931Y-127320890D01*
X167711940Y-127069000D01*
X167711940Y-126169000D01*
X167667662Y-125933683D01*
X167628559Y-125872915D01*
X167701198Y-125842827D01*
X167879827Y-125664199D01*
X167976500Y-125430810D01*
X167976500Y-125190250D01*
X167817750Y-125031500D01*
X167068500Y-125031500D01*
X167068500Y-125051500D01*
X166976499Y-125051500D01*
X166976499Y-124394497D01*
X166918647Y-124103658D01*
X166878000Y-124042825D01*
X166878000Y-124028250D01*
X167068500Y-124028250D01*
X167068500Y-124777500D01*
X167817750Y-124777500D01*
X167976500Y-124618750D01*
X167976500Y-124378190D01*
X167879827Y-124144801D01*
X167814025Y-124079000D01*
X167943327Y-123949699D01*
X168040000Y-123716310D01*
X168040000Y-123475750D01*
X167881250Y-123317000D01*
X167132000Y-123317000D01*
X167132000Y-123964750D01*
X167068500Y-124028250D01*
X166878000Y-124028250D01*
X166878000Y-123317000D01*
X166858000Y-123317000D01*
X166858000Y-123071710D01*
X166866725Y-123063000D01*
X166878000Y-123063000D01*
X166878000Y-123051745D01*
X166886760Y-123043000D01*
X167132000Y-123043000D01*
X167132000Y-123063000D01*
X167881250Y-123063000D01*
X168040000Y-122904250D01*
X168040000Y-122663690D01*
X167943327Y-122430301D01*
X167883776Y-122370750D01*
X167955827Y-122298699D01*
X168052500Y-122065310D01*
X168052500Y-121824750D01*
X167893750Y-121666000D01*
X167144500Y-121666000D01*
X167144500Y-121686000D01*
X166890500Y-121686000D01*
X166890500Y-121666000D01*
X166870500Y-121666000D01*
X166870500Y-121412000D01*
X166890500Y-121412000D01*
X166890500Y-120015000D01*
X167144500Y-120015000D01*
X167144500Y-121412000D01*
X167893750Y-121412000D01*
X168052500Y-121253250D01*
X168052500Y-121012690D01*
X167955827Y-120779301D01*
X167890026Y-120713500D01*
X167955827Y-120647699D01*
X168052500Y-120414310D01*
X168052500Y-120173750D01*
X167893750Y-120015000D01*
X167144500Y-120015000D01*
X166890500Y-120015000D01*
X166870500Y-120015000D01*
X166870500Y-119761000D01*
X166890500Y-119761000D01*
X166890500Y-119741000D01*
X167144500Y-119741000D01*
X167144500Y-119761000D01*
X167893750Y-119761000D01*
X168052500Y-119602250D01*
X168052500Y-119361690D01*
X167955827Y-119128301D01*
X167777198Y-118949673D01*
X167543809Y-118853000D01*
X167303250Y-118853000D01*
X167241574Y-118914676D01*
X167241662Y-118813833D01*
X167099617Y-118470057D01*
X166836827Y-118206808D01*
X166493299Y-118064162D01*
X166121333Y-118063838D01*
X165777557Y-118205883D01*
X165744382Y-118239000D01*
X155448000Y-118239000D01*
X155157161Y-118296852D01*
X154910599Y-118461599D01*
X149910820Y-123461378D01*
X149865333Y-123461338D01*
X149521557Y-123603383D01*
X149258308Y-123866173D01*
X149115662Y-124209701D01*
X149115338Y-124581667D01*
X149257383Y-124925443D01*
X149455146Y-125123552D01*
X149068599Y-125510099D01*
X148903852Y-125756661D01*
X148846000Y-126047500D01*
X148846000Y-126945537D01*
X148813808Y-126977673D01*
X148671162Y-127321201D01*
X148670838Y-127693167D01*
X148812883Y-128036943D01*
X149060506Y-128284999D01*
X144954999Y-128284999D01*
X144664159Y-128342851D01*
X144417598Y-128507598D01*
X143569075Y-129356121D01*
X143532327Y-129319308D01*
X143188799Y-129176662D01*
X142816833Y-129176338D01*
X142473057Y-129318383D01*
X142209808Y-129581173D01*
X142165999Y-129686677D01*
X141855299Y-129557662D01*
X141483333Y-129557338D01*
X141139557Y-129699383D01*
X140876308Y-129962173D01*
X140864327Y-129991025D01*
X140799885Y-129964266D01*
X140747117Y-129836557D01*
X140484327Y-129573308D01*
X140140799Y-129430662D01*
X139768833Y-129430338D01*
X139491329Y-129545000D01*
X139350750Y-129545000D01*
X139192000Y-129703750D01*
X139192000Y-129805034D01*
X139161808Y-129835173D01*
X139019162Y-130178701D01*
X139018838Y-130550667D01*
X139091697Y-130727000D01*
X138938000Y-130727000D01*
X138938000Y-130707000D01*
X138213750Y-130707000D01*
X138155098Y-130765652D01*
X138149724Y-130760278D01*
X137911273Y-130600950D01*
X137630001Y-130545001D01*
X137013000Y-130545001D01*
X137013000Y-130453000D01*
X137033000Y-130453000D01*
X137033000Y-129703750D01*
X137287000Y-129703750D01*
X137287000Y-130453000D01*
X138011250Y-130453000D01*
X138112500Y-130351750D01*
X138213750Y-130453000D01*
X138938000Y-130453000D01*
X138938000Y-129703750D01*
X138779250Y-129545000D01*
X138563690Y-129545000D01*
X138330301Y-129641673D01*
X138151673Y-129820302D01*
X138112500Y-129914874D01*
X138073327Y-129820302D01*
X137894699Y-129641673D01*
X137661310Y-129545000D01*
X137445750Y-129545000D01*
X137287000Y-129703750D01*
X137033000Y-129703750D01*
X136874250Y-129545000D01*
X136658690Y-129545000D01*
X136425301Y-129641673D01*
X136246673Y-129820302D01*
X136150000Y-130053691D01*
X136150000Y-130294250D01*
X136308748Y-130452998D01*
X136150000Y-130452998D01*
X136150000Y-130545001D01*
X136054999Y-130545001D01*
X135773727Y-130600950D01*
X135535276Y-130760277D01*
X134106927Y-132188627D01*
X134072827Y-132106302D01*
X133894199Y-131927673D01*
X133660810Y-131831000D01*
X133445250Y-131831000D01*
X133286500Y-131989750D01*
X133286500Y-132739000D01*
X133306500Y-132739000D01*
X133306500Y-132993000D01*
X133286500Y-132993000D01*
X133286500Y-133013000D01*
X133032500Y-133013000D01*
X133032500Y-132993000D01*
X132435250Y-132993000D01*
X132423250Y-132981000D01*
X131699000Y-132981000D01*
X131699000Y-133001000D01*
X131445000Y-133001000D01*
X131445000Y-132981000D01*
X131425000Y-132981000D01*
X131425000Y-132727000D01*
X131445000Y-132727000D01*
X131445000Y-131977750D01*
X131699000Y-131977750D01*
X131699000Y-132727000D01*
X132296250Y-132727000D01*
X132308250Y-132739000D01*
X133032500Y-132739000D01*
X133032500Y-131989750D01*
X132873750Y-131831000D01*
X132658190Y-131831000D01*
X132424801Y-131927673D01*
X132371750Y-131980724D01*
X132306699Y-131915673D01*
X132073310Y-131819000D01*
X131857750Y-131819000D01*
X131699000Y-131977750D01*
X131445000Y-131977750D01*
X131286250Y-131819000D01*
X131070690Y-131819000D01*
X130837301Y-131915673D01*
X130677440Y-132075535D01*
X130677440Y-131915000D01*
X130655495Y-131798370D01*
X130677440Y-131690000D01*
X130677440Y-131440000D01*
X130633162Y-131204683D01*
X130494090Y-130988559D01*
X130281890Y-130843569D01*
X130030000Y-130792560D01*
X129702440Y-130792560D01*
X129702440Y-130465000D01*
X129663197Y-130256440D01*
X129814000Y-130256440D01*
X130049317Y-130212162D01*
X130066962Y-130200807D01*
X130115201Y-130220838D01*
X130487167Y-130221162D01*
X130559951Y-130191088D01*
X130687691Y-130244000D01*
X130780250Y-130244000D01*
X130939000Y-130085250D01*
X130939000Y-129971248D01*
X131094192Y-129816327D01*
X131189000Y-129588005D01*
X131189000Y-130085250D01*
X131347750Y-130244000D01*
X131440309Y-130244000D01*
X131599320Y-130178136D01*
X131649673Y-130299699D01*
X131828302Y-130478327D01*
X132061691Y-130575000D01*
X132302250Y-130575000D01*
X132461000Y-130416250D01*
X132461000Y-129667000D01*
X132441000Y-129667000D01*
X132441000Y-129413000D01*
X132461000Y-129413000D01*
X132461000Y-129393000D01*
X132715000Y-129393000D01*
X132715000Y-129413000D01*
X132735000Y-129413000D01*
X132735000Y-129667000D01*
X132715000Y-129667000D01*
X132715000Y-130416250D01*
X132873750Y-130575000D01*
X133114309Y-130575000D01*
X133347698Y-130478327D01*
X133389660Y-130436366D01*
X133536110Y-130536431D01*
X133788000Y-130587440D01*
X134588000Y-130587440D01*
X134823317Y-130543162D01*
X135039441Y-130404090D01*
X135184431Y-130191890D01*
X135235440Y-129940000D01*
X135235440Y-129140000D01*
X135191162Y-128904683D01*
X135052090Y-128688559D01*
X134926384Y-128602668D01*
X134934431Y-128590890D01*
X134985440Y-128339000D01*
X134985440Y-127439000D01*
X134941162Y-127203683D01*
X134802090Y-126987559D01*
X134589890Y-126842569D01*
X134338000Y-126791560D01*
X133838000Y-126791560D01*
X133602683Y-126835838D01*
X133386559Y-126974910D01*
X133338866Y-127044711D01*
X133302090Y-126987559D01*
X133089890Y-126842569D01*
X132838000Y-126791560D01*
X132765362Y-126791560D01*
X132182401Y-126208599D01*
X131935839Y-126043852D01*
X131692018Y-125995353D01*
X131875543Y-125720687D01*
X132000000Y-125095000D01*
X132000000Y-124815907D01*
X135100000Y-124815907D01*
X135100000Y-125374093D01*
X135194009Y-125846707D01*
X135461723Y-126247370D01*
X135862386Y-126515084D01*
X136335000Y-126609093D01*
X136807614Y-126515084D01*
X137208277Y-126247370D01*
X137335000Y-126057715D01*
X137461723Y-126247370D01*
X137862386Y-126515084D01*
X138335000Y-126609093D01*
X138807614Y-126515084D01*
X139208277Y-126247370D01*
X139335000Y-126057715D01*
X139461723Y-126247370D01*
X139862386Y-126515084D01*
X140335000Y-126609093D01*
X140807614Y-126515084D01*
X141208277Y-126247370D01*
X141335000Y-126057715D01*
X141461723Y-126247370D01*
X141862386Y-126515084D01*
X142335000Y-126609093D01*
X142807614Y-126515084D01*
X143208277Y-126247370D01*
X143335000Y-126057715D01*
X143461723Y-126247370D01*
X143862386Y-126515084D01*
X144335000Y-126609093D01*
X144807614Y-126515084D01*
X145180590Y-126265870D01*
X145196673Y-126304699D01*
X145375302Y-126483327D01*
X145608691Y-126580000D01*
X146049250Y-126580000D01*
X146208000Y-126421250D01*
X146208000Y-125222000D01*
X146462000Y-125222000D01*
X146462000Y-126421250D01*
X146620750Y-126580000D01*
X147061309Y-126580000D01*
X147294698Y-126483327D01*
X147473327Y-126304699D01*
X147570000Y-126071310D01*
X147570000Y-125380750D01*
X147411250Y-125222000D01*
X146462000Y-125222000D01*
X146208000Y-125222000D01*
X146188000Y-125222000D01*
X146188000Y-124968000D01*
X146208000Y-124968000D01*
X146208000Y-123768750D01*
X146462000Y-123768750D01*
X146462000Y-124968000D01*
X147411250Y-124968000D01*
X147570000Y-124809250D01*
X147570000Y-124118690D01*
X147473327Y-123885301D01*
X147294698Y-123706673D01*
X147061309Y-123610000D01*
X146620750Y-123610000D01*
X146462000Y-123768750D01*
X146208000Y-123768750D01*
X146049250Y-123610000D01*
X145608691Y-123610000D01*
X145375302Y-123706673D01*
X145196673Y-123885301D01*
X145180590Y-123924130D01*
X144807614Y-123674916D01*
X144335000Y-123580907D01*
X143862386Y-123674916D01*
X143461723Y-123942630D01*
X143335000Y-124132285D01*
X143208277Y-123942630D01*
X142807614Y-123674916D01*
X142335000Y-123580907D01*
X141862386Y-123674916D01*
X141461723Y-123942630D01*
X141335000Y-124132285D01*
X141208277Y-123942630D01*
X140807614Y-123674916D01*
X140335000Y-123580907D01*
X139862386Y-123674916D01*
X139461723Y-123942630D01*
X139335000Y-124132285D01*
X139208277Y-123942630D01*
X138807614Y-123674916D01*
X138335000Y-123580907D01*
X137862386Y-123674916D01*
X137461723Y-123942630D01*
X137335000Y-124132285D01*
X137208277Y-123942630D01*
X136807614Y-123674916D01*
X136335000Y-123580907D01*
X135862386Y-123674916D01*
X135461723Y-123942630D01*
X135194009Y-124343293D01*
X135100000Y-124815907D01*
X132000000Y-124815907D01*
X132000000Y-124696376D01*
X132328667Y-124696662D01*
X132672443Y-124554617D01*
X132935692Y-124291827D01*
X133078338Y-123948299D01*
X133078662Y-123576333D01*
X132967000Y-123306090D01*
X132967000Y-121910963D01*
X132999192Y-121878827D01*
X133141838Y-121535299D01*
X133142162Y-121163333D01*
X133000117Y-120819557D01*
X132737327Y-120556308D01*
X132393799Y-120413662D01*
X132021833Y-120413338D01*
X131678057Y-120555383D01*
X131414808Y-120818173D01*
X131272162Y-121161701D01*
X131271838Y-121533667D01*
X131413883Y-121877443D01*
X131447000Y-121910618D01*
X131447000Y-123069163D01*
X129491718Y-121113880D01*
X128961286Y-120759457D01*
X128335598Y-120634999D01*
X128335593Y-120635000D01*
X120015005Y-120635000D01*
X120015000Y-120634999D01*
X120014995Y-120635000D01*
X107154402Y-120635000D01*
X106528715Y-120759457D01*
X105998282Y-121113880D01*
X105998280Y-121113883D01*
X104743870Y-122368292D01*
X104389447Y-122898724D01*
X104264989Y-123524412D01*
X104264990Y-123524417D01*
X104264990Y-133984995D01*
X104264989Y-133985000D01*
X104264990Y-133985005D01*
X104264990Y-143999985D01*
X104264989Y-143999990D01*
X104264990Y-143999995D01*
X104264990Y-151970583D01*
X104264989Y-151970588D01*
X104389447Y-152596276D01*
X104743870Y-153126708D01*
X105798292Y-154181130D01*
X106251569Y-154484000D01*
X103164091Y-154484000D01*
X101040000Y-152359908D01*
X101040000Y-119293092D01*
X103164091Y-117169000D01*
X166710908Y-117169000D01*
X168835000Y-119293091D01*
X168835000Y-119293091D01*
G37*
X168835000Y-119293091D02*
X168835000Y-152359909D01*
X166710908Y-154484000D01*
X110877833Y-154484000D01*
X111331110Y-154181130D01*
X113707239Y-151805000D01*
X136214995Y-151805000D01*
X136215000Y-151805001D01*
X136840688Y-151680543D01*
X137371120Y-151326120D01*
X138571117Y-150126122D01*
X138571120Y-150126120D01*
X138813801Y-149762921D01*
X138877599Y-149858401D01*
X140051599Y-151032401D01*
X140298161Y-151197148D01*
X140589000Y-151255000D01*
X157670196Y-151255000D01*
X159860597Y-153445401D01*
X160107158Y-153610148D01*
X160397998Y-153668000D01*
X164728037Y-153668000D01*
X164760173Y-153700192D01*
X165103701Y-153842838D01*
X165475667Y-153843162D01*
X165819443Y-153701117D01*
X166082692Y-153438327D01*
X166225338Y-153094799D01*
X166225662Y-152722833D01*
X166083617Y-152379057D01*
X165820827Y-152115808D01*
X165477299Y-151973162D01*
X165105333Y-151972838D01*
X164761557Y-152114883D01*
X164728382Y-152148000D01*
X162787440Y-152148000D01*
X162787440Y-151556867D01*
X163126167Y-151557162D01*
X163469943Y-151415117D01*
X163733192Y-151152327D01*
X163875132Y-150810500D01*
X166506037Y-150810500D01*
X166538173Y-150842692D01*
X166881701Y-150985338D01*
X167253667Y-150985662D01*
X167597443Y-150843617D01*
X167860692Y-150580827D01*
X168003338Y-150237299D01*
X168003662Y-149865333D01*
X167861617Y-149521557D01*
X167598827Y-149258308D01*
X167255299Y-149115662D01*
X166883333Y-149115338D01*
X166539557Y-149257383D01*
X166506382Y-149290500D01*
X163512500Y-149290500D01*
X163221661Y-149348352D01*
X162975099Y-149513099D01*
X162801320Y-149686878D01*
X162788551Y-149686866D01*
X162772688Y-149607114D01*
X163732401Y-148647401D01*
X163897148Y-148400840D01*
X163924001Y-148265839D01*
X163955000Y-148110000D01*
X163955000Y-145687547D01*
X164231943Y-145573117D01*
X164495192Y-145310327D01*
X164637838Y-144966799D01*
X164638162Y-144594833D01*
X164496117Y-144251057D01*
X164463000Y-144217882D01*
X164463000Y-130172302D01*
X165366680Y-129268622D01*
X165412167Y-129268662D01*
X165755943Y-129126617D01*
X166019192Y-128863827D01*
X166161838Y-128520299D01*
X166162162Y-128148333D01*
X166020117Y-127804557D01*
X165853481Y-127637630D01*
X166015941Y-127533090D01*
X166063634Y-127463289D01*
X166100410Y-127520441D01*
X166312610Y-127665431D01*
X166564500Y-127716440D01*
X167064500Y-127716440D01*
X167299817Y-127672162D01*
X167515941Y-127533090D01*
X167660931Y-127320890D01*
X167711940Y-127069000D01*
X167711940Y-126169000D01*
X167667662Y-125933683D01*
X167628559Y-125872915D01*
X167701198Y-125842827D01*
X167879827Y-125664199D01*
X167976500Y-125430810D01*
X167976500Y-125190250D01*
X167817750Y-125031500D01*
X167068500Y-125031500D01*
X167068500Y-125051500D01*
X166976499Y-125051500D01*
X166976499Y-124394497D01*
X166918647Y-124103658D01*
X166878000Y-124042825D01*
X166878000Y-124028250D01*
X167068500Y-124028250D01*
X167068500Y-124777500D01*
X167817750Y-124777500D01*
X167976500Y-124618750D01*
X167976500Y-124378190D01*
X167879827Y-124144801D01*
X167814025Y-124079000D01*
X167943327Y-123949699D01*
X168040000Y-123716310D01*
X168040000Y-123475750D01*
X167881250Y-123317000D01*
X167132000Y-123317000D01*
X167132000Y-123964750D01*
X167068500Y-124028250D01*
X166878000Y-124028250D01*
X166878000Y-123317000D01*
X166858000Y-123317000D01*
X166858000Y-123071710D01*
X166866725Y-123063000D01*
X166878000Y-123063000D01*
X166878000Y-123051745D01*
X166886760Y-123043000D01*
X167132000Y-123043000D01*
X167132000Y-123063000D01*
X167881250Y-123063000D01*
X168040000Y-122904250D01*
X168040000Y-122663690D01*
X167943327Y-122430301D01*
X167883776Y-122370750D01*
X167955827Y-122298699D01*
X168052500Y-122065310D01*
X168052500Y-121824750D01*
X167893750Y-121666000D01*
X167144500Y-121666000D01*
X167144500Y-121686000D01*
X166890500Y-121686000D01*
X166890500Y-121666000D01*
X166870500Y-121666000D01*
X166870500Y-121412000D01*
X166890500Y-121412000D01*
X166890500Y-120015000D01*
X167144500Y-120015000D01*
X167144500Y-121412000D01*
X167893750Y-121412000D01*
X168052500Y-121253250D01*
X168052500Y-121012690D01*
X167955827Y-120779301D01*
X167890026Y-120713500D01*
X167955827Y-120647699D01*
X168052500Y-120414310D01*
X168052500Y-120173750D01*
X167893750Y-120015000D01*
X167144500Y-120015000D01*
X166890500Y-120015000D01*
X166870500Y-120015000D01*
X166870500Y-119761000D01*
X166890500Y-119761000D01*
X166890500Y-119741000D01*
X167144500Y-119741000D01*
X167144500Y-119761000D01*
X167893750Y-119761000D01*
X168052500Y-119602250D01*
X168052500Y-119361690D01*
X167955827Y-119128301D01*
X167777198Y-118949673D01*
X167543809Y-118853000D01*
X167303250Y-118853000D01*
X167241574Y-118914676D01*
X167241662Y-118813833D01*
X167099617Y-118470057D01*
X166836827Y-118206808D01*
X166493299Y-118064162D01*
X166121333Y-118063838D01*
X165777557Y-118205883D01*
X165744382Y-118239000D01*
X155448000Y-118239000D01*
X155157161Y-118296852D01*
X154910599Y-118461599D01*
X149910820Y-123461378D01*
X149865333Y-123461338D01*
X149521557Y-123603383D01*
X149258308Y-123866173D01*
X149115662Y-124209701D01*
X149115338Y-124581667D01*
X149257383Y-124925443D01*
X149455146Y-125123552D01*
X149068599Y-125510099D01*
X148903852Y-125756661D01*
X148846000Y-126047500D01*
X148846000Y-126945537D01*
X148813808Y-126977673D01*
X148671162Y-127321201D01*
X148670838Y-127693167D01*
X148812883Y-128036943D01*
X149060506Y-128284999D01*
X144954999Y-128284999D01*
X144664159Y-128342851D01*
X144417598Y-128507598D01*
X143569075Y-129356121D01*
X143532327Y-129319308D01*
X143188799Y-129176662D01*
X142816833Y-129176338D01*
X142473057Y-129318383D01*
X142209808Y-129581173D01*
X142165999Y-129686677D01*
X141855299Y-129557662D01*
X141483333Y-129557338D01*
X141139557Y-129699383D01*
X140876308Y-129962173D01*
X140864327Y-129991025D01*
X140799885Y-129964266D01*
X140747117Y-129836557D01*
X140484327Y-129573308D01*
X140140799Y-129430662D01*
X139768833Y-129430338D01*
X139491329Y-129545000D01*
X139350750Y-129545000D01*
X139192000Y-129703750D01*
X139192000Y-129805034D01*
X139161808Y-129835173D01*
X139019162Y-130178701D01*
X139018838Y-130550667D01*
X139091697Y-130727000D01*
X138938000Y-130727000D01*
X138938000Y-130707000D01*
X138213750Y-130707000D01*
X138155098Y-130765652D01*
X138149724Y-130760278D01*
X137911273Y-130600950D01*
X137630001Y-130545001D01*
X137013000Y-130545001D01*
X137013000Y-130453000D01*
X137033000Y-130453000D01*
X137033000Y-129703750D01*
X137287000Y-129703750D01*
X137287000Y-130453000D01*
X138011250Y-130453000D01*
X138112500Y-130351750D01*
X138213750Y-130453000D01*
X138938000Y-130453000D01*
X138938000Y-129703750D01*
X138779250Y-129545000D01*
X138563690Y-129545000D01*
X138330301Y-129641673D01*
X138151673Y-129820302D01*
X138112500Y-129914874D01*
X138073327Y-129820302D01*
X137894699Y-129641673D01*
X137661310Y-129545000D01*
X137445750Y-129545000D01*
X137287000Y-129703750D01*
X137033000Y-129703750D01*
X136874250Y-129545000D01*
X136658690Y-129545000D01*
X136425301Y-129641673D01*
X136246673Y-129820302D01*
X136150000Y-130053691D01*
X136150000Y-130294250D01*
X136308748Y-130452998D01*
X136150000Y-130452998D01*
X136150000Y-130545001D01*
X136054999Y-130545001D01*
X135773727Y-130600950D01*
X135535276Y-130760277D01*
X134106927Y-132188627D01*
X134072827Y-132106302D01*
X133894199Y-131927673D01*
X133660810Y-131831000D01*
X133445250Y-131831000D01*
X133286500Y-131989750D01*
X133286500Y-132739000D01*
X133306500Y-132739000D01*
X133306500Y-132993000D01*
X133286500Y-132993000D01*
X133286500Y-133013000D01*
X133032500Y-133013000D01*
X133032500Y-132993000D01*
X132435250Y-132993000D01*
X132423250Y-132981000D01*
X131699000Y-132981000D01*
X131699000Y-133001000D01*
X131445000Y-133001000D01*
X131445000Y-132981000D01*
X131425000Y-132981000D01*
X131425000Y-132727000D01*
X131445000Y-132727000D01*
X131445000Y-131977750D01*
X131699000Y-131977750D01*
X131699000Y-132727000D01*
X132296250Y-132727000D01*
X132308250Y-132739000D01*
X133032500Y-132739000D01*
X133032500Y-131989750D01*
X132873750Y-131831000D01*
X132658190Y-131831000D01*
X132424801Y-131927673D01*
X132371750Y-131980724D01*
X132306699Y-131915673D01*
X132073310Y-131819000D01*
X131857750Y-131819000D01*
X131699000Y-131977750D01*
X131445000Y-131977750D01*
X131286250Y-131819000D01*
X131070690Y-131819000D01*
X130837301Y-131915673D01*
X130677440Y-132075535D01*
X130677440Y-131915000D01*
X130655495Y-131798370D01*
X130677440Y-131690000D01*
X130677440Y-131440000D01*
X130633162Y-131204683D01*
X130494090Y-130988559D01*
X130281890Y-130843569D01*
X130030000Y-130792560D01*
X129702440Y-130792560D01*
X129702440Y-130465000D01*
X129663197Y-130256440D01*
X129814000Y-130256440D01*
X130049317Y-130212162D01*
X130066962Y-130200807D01*
X130115201Y-130220838D01*
X130487167Y-130221162D01*
X130559951Y-130191088D01*
X130687691Y-130244000D01*
X130780250Y-130244000D01*
X130939000Y-130085250D01*
X130939000Y-129971248D01*
X131094192Y-129816327D01*
X131189000Y-129588005D01*
X131189000Y-130085250D01*
X131347750Y-130244000D01*
X131440309Y-130244000D01*
X131599320Y-130178136D01*
X131649673Y-130299699D01*
X131828302Y-130478327D01*
X132061691Y-130575000D01*
X132302250Y-130575000D01*
X132461000Y-130416250D01*
X132461000Y-129667000D01*
X132441000Y-129667000D01*
X132441000Y-129413000D01*
X132461000Y-129413000D01*
X132461000Y-129393000D01*
X132715000Y-129393000D01*
X132715000Y-129413000D01*
X132735000Y-129413000D01*
X132735000Y-129667000D01*
X132715000Y-129667000D01*
X132715000Y-130416250D01*
X132873750Y-130575000D01*
X133114309Y-130575000D01*
X133347698Y-130478327D01*
X133389660Y-130436366D01*
X133536110Y-130536431D01*
X133788000Y-130587440D01*
X134588000Y-130587440D01*
X134823317Y-130543162D01*
X135039441Y-130404090D01*
X135184431Y-130191890D01*
X135235440Y-129940000D01*
X135235440Y-129140000D01*
X135191162Y-128904683D01*
X135052090Y-128688559D01*
X134926384Y-128602668D01*
X134934431Y-128590890D01*
X134985440Y-128339000D01*
X134985440Y-127439000D01*
X134941162Y-127203683D01*
X134802090Y-126987559D01*
X134589890Y-126842569D01*
X134338000Y-126791560D01*
X133838000Y-126791560D01*
X133602683Y-126835838D01*
X133386559Y-126974910D01*
X133338866Y-127044711D01*
X133302090Y-126987559D01*
X133089890Y-126842569D01*
X132838000Y-126791560D01*
X132765362Y-126791560D01*
X132182401Y-126208599D01*
X131935839Y-126043852D01*
X131692018Y-125995353D01*
X131875543Y-125720687D01*
X132000000Y-125095000D01*
X132000000Y-124815907D01*
X135100000Y-124815907D01*
X135100000Y-125374093D01*
X135194009Y-125846707D01*
X135461723Y-126247370D01*
X135862386Y-126515084D01*
X136335000Y-126609093D01*
X136807614Y-126515084D01*
X137208277Y-126247370D01*
X137335000Y-126057715D01*
X137461723Y-126247370D01*
X137862386Y-126515084D01*
X138335000Y-126609093D01*
X138807614Y-126515084D01*
X139208277Y-126247370D01*
X139335000Y-126057715D01*
X139461723Y-126247370D01*
X139862386Y-126515084D01*
X140335000Y-126609093D01*
X140807614Y-126515084D01*
X141208277Y-126247370D01*
X141335000Y-126057715D01*
X141461723Y-126247370D01*
X141862386Y-126515084D01*
X142335000Y-126609093D01*
X142807614Y-126515084D01*
X143208277Y-126247370D01*
X143335000Y-126057715D01*
X143461723Y-126247370D01*
X143862386Y-126515084D01*
X144335000Y-126609093D01*
X144807614Y-126515084D01*
X145180590Y-126265870D01*
X145196673Y-126304699D01*
X145375302Y-126483327D01*
X145608691Y-126580000D01*
X146049250Y-126580000D01*
X146208000Y-126421250D01*
X146208000Y-125222000D01*
X146462000Y-125222000D01*
X146462000Y-126421250D01*
X146620750Y-126580000D01*
X147061309Y-126580000D01*
X147294698Y-126483327D01*
X147473327Y-126304699D01*
X147570000Y-126071310D01*
X147570000Y-125380750D01*
X147411250Y-125222000D01*
X146462000Y-125222000D01*
X146208000Y-125222000D01*
X146188000Y-125222000D01*
X146188000Y-124968000D01*
X146208000Y-124968000D01*
X146208000Y-123768750D01*
X146462000Y-123768750D01*
X146462000Y-124968000D01*
X147411250Y-124968000D01*
X147570000Y-124809250D01*
X147570000Y-124118690D01*
X147473327Y-123885301D01*
X147294698Y-123706673D01*
X147061309Y-123610000D01*
X146620750Y-123610000D01*
X146462000Y-123768750D01*
X146208000Y-123768750D01*
X146049250Y-123610000D01*
X145608691Y-123610000D01*
X145375302Y-123706673D01*
X145196673Y-123885301D01*
X145180590Y-123924130D01*
X144807614Y-123674916D01*
X144335000Y-123580907D01*
X143862386Y-123674916D01*
X143461723Y-123942630D01*
X143335000Y-124132285D01*
X143208277Y-123942630D01*
X142807614Y-123674916D01*
X142335000Y-123580907D01*
X141862386Y-123674916D01*
X141461723Y-123942630D01*
X141335000Y-124132285D01*
X141208277Y-123942630D01*
X140807614Y-123674916D01*
X140335000Y-123580907D01*
X139862386Y-123674916D01*
X139461723Y-123942630D01*
X139335000Y-124132285D01*
X139208277Y-123942630D01*
X138807614Y-123674916D01*
X138335000Y-123580907D01*
X137862386Y-123674916D01*
X137461723Y-123942630D01*
X137335000Y-124132285D01*
X137208277Y-123942630D01*
X136807614Y-123674916D01*
X136335000Y-123580907D01*
X135862386Y-123674916D01*
X135461723Y-123942630D01*
X135194009Y-124343293D01*
X135100000Y-124815907D01*
X132000000Y-124815907D01*
X132000000Y-124696376D01*
X132328667Y-124696662D01*
X132672443Y-124554617D01*
X132935692Y-124291827D01*
X133078338Y-123948299D01*
X133078662Y-123576333D01*
X132967000Y-123306090D01*
X132967000Y-121910963D01*
X132999192Y-121878827D01*
X133141838Y-121535299D01*
X133142162Y-121163333D01*
X133000117Y-120819557D01*
X132737327Y-120556308D01*
X132393799Y-120413662D01*
X132021833Y-120413338D01*
X131678057Y-120555383D01*
X131414808Y-120818173D01*
X131272162Y-121161701D01*
X131271838Y-121533667D01*
X131413883Y-121877443D01*
X131447000Y-121910618D01*
X131447000Y-123069163D01*
X129491718Y-121113880D01*
X128961286Y-120759457D01*
X128335598Y-120634999D01*
X128335593Y-120635000D01*
X120015005Y-120635000D01*
X120015000Y-120634999D01*
X120014995Y-120635000D01*
X107154402Y-120635000D01*
X106528715Y-120759457D01*
X105998282Y-121113880D01*
X105998280Y-121113883D01*
X104743870Y-122368292D01*
X104389447Y-122898724D01*
X104264989Y-123524412D01*
X104264990Y-123524417D01*
X104264990Y-133984995D01*
X104264989Y-133985000D01*
X104264990Y-133985005D01*
X104264990Y-143999985D01*
X104264989Y-143999990D01*
X104264990Y-143999995D01*
X104264990Y-151970583D01*
X104264989Y-151970588D01*
X104389447Y-152596276D01*
X104743870Y-153126708D01*
X105798292Y-154181130D01*
X106251569Y-154484000D01*
X103164091Y-154484000D01*
X101040000Y-152359908D01*
X101040000Y-119293092D01*
X103164091Y-117169000D01*
X166710908Y-117169000D01*
X168835000Y-119293091D01*
G36*
X111395000Y-149492761D02*
X109497750Y-151390010D01*
X109293604Y-151390010D01*
X109268731Y-151352000D01*
X108077000Y-151352000D01*
X108077000Y-151372000D01*
X107823000Y-151372000D01*
X107823000Y-151352000D01*
X107803000Y-151352000D01*
X107803000Y-151098000D01*
X107823000Y-151098000D01*
X107823000Y-151078000D01*
X108077000Y-151078000D01*
X108077000Y-151098000D01*
X109268731Y-151098000D01*
X109393462Y-150907391D01*
X109378286Y-150815624D01*
X109131933Y-150395875D01*
X108909109Y-150227410D01*
X109102370Y-150098277D01*
X109370084Y-149697614D01*
X109462104Y-149235000D01*
X109688552Y-149235000D01*
X109979391Y-149177148D01*
X110225953Y-149012401D01*
X111395000Y-147843354D01*
X111395000Y-149492761D01*
X111395000Y-149492761D01*
G37*
X111395000Y-149492761D02*
X109497750Y-151390010D01*
X109293604Y-151390010D01*
X109268731Y-151352000D01*
X108077000Y-151352000D01*
X108077000Y-151372000D01*
X107823000Y-151372000D01*
X107823000Y-151352000D01*
X107803000Y-151352000D01*
X107803000Y-151098000D01*
X107823000Y-151098000D01*
X107823000Y-151078000D01*
X108077000Y-151078000D01*
X108077000Y-151098000D01*
X109268731Y-151098000D01*
X109393462Y-150907391D01*
X109378286Y-150815624D01*
X109131933Y-150395875D01*
X108909109Y-150227410D01*
X109102370Y-150098277D01*
X109370084Y-149697614D01*
X109462104Y-149235000D01*
X109688552Y-149235000D01*
X109979391Y-149177148D01*
X110225953Y-149012401D01*
X111395000Y-147843354D01*
X111395000Y-149492761D01*
G36*
X158625000Y-150060200D02*
X158522399Y-149957599D01*
X158275837Y-149792852D01*
X157984998Y-149735000D01*
X140903802Y-149735000D01*
X140175000Y-149006198D01*
X140175000Y-148548059D01*
X140288277Y-148472370D01*
X140415000Y-148282715D01*
X140541723Y-148472370D01*
X140942386Y-148740084D01*
X141415000Y-148834093D01*
X141572886Y-148802688D01*
X142278599Y-149508401D01*
X142525160Y-149673148D01*
X142816000Y-149731000D01*
X154942161Y-149731000D01*
X155233000Y-149673148D01*
X155479562Y-149508401D01*
X156709403Y-148278560D01*
X156802443Y-148240117D01*
X157065692Y-147977327D01*
X157208338Y-147633799D01*
X157208662Y-147261833D01*
X157066617Y-146918057D01*
X156803827Y-146654808D01*
X156565872Y-146556000D01*
X156908500Y-146556000D01*
X157199339Y-146498148D01*
X157445901Y-146333401D01*
X158625000Y-145154302D01*
X158625000Y-150060200D01*
X158625000Y-150060200D01*
G37*
X158625000Y-150060200D02*
X158522399Y-149957599D01*
X158275837Y-149792852D01*
X157984998Y-149735000D01*
X140903802Y-149735000D01*
X140175000Y-149006198D01*
X140175000Y-148548059D01*
X140288277Y-148472370D01*
X140415000Y-148282715D01*
X140541723Y-148472370D01*
X140942386Y-148740084D01*
X141415000Y-148834093D01*
X141572886Y-148802688D01*
X142278599Y-149508401D01*
X142525160Y-149673148D01*
X142816000Y-149731000D01*
X154942161Y-149731000D01*
X155233000Y-149673148D01*
X155479562Y-149508401D01*
X156709403Y-148278560D01*
X156802443Y-148240117D01*
X157065692Y-147977327D01*
X157208338Y-147633799D01*
X157208662Y-147261833D01*
X157066617Y-146918057D01*
X156803827Y-146654808D01*
X156565872Y-146556000D01*
X156908500Y-146556000D01*
X157199339Y-146498148D01*
X157445901Y-146333401D01*
X158625000Y-145154302D01*
X158625000Y-150060200D01*
G36*
X127914578Y-143645188D02*
X127900435Y-143659330D01*
X128430235Y-144189130D01*
X128654741Y-144189130D01*
X128807165Y-144036706D01*
X128870004Y-143885000D01*
X132296646Y-143885000D01*
X133344047Y-144932401D01*
X133590608Y-145097148D01*
X133881448Y-145155000D01*
X144306646Y-145155000D01*
X144151599Y-145258599D01*
X143572886Y-145837312D01*
X143415000Y-145805907D01*
X142942386Y-145899916D01*
X142541723Y-146167630D01*
X142415000Y-146357285D01*
X142288277Y-146167630D01*
X141887614Y-145899916D01*
X141415000Y-145805907D01*
X140942386Y-145899916D01*
X140541723Y-146167630D01*
X140415000Y-146357285D01*
X140288277Y-146167630D01*
X139887614Y-145899916D01*
X139415000Y-145805907D01*
X138942386Y-145899916D01*
X138565004Y-146152074D01*
X138479090Y-146018559D01*
X138266890Y-145873569D01*
X138079995Y-145835722D01*
X138040687Y-145809457D01*
X137415000Y-145685000D01*
X136789313Y-145809457D01*
X136751947Y-145834424D01*
X136579683Y-145866838D01*
X136363559Y-146005910D01*
X136218569Y-146218110D01*
X136216797Y-146226862D01*
X135904457Y-146694313D01*
X135780000Y-147320000D01*
X135780000Y-148292761D01*
X135537760Y-148535000D01*
X131232784Y-148535000D01*
X131289125Y-148501933D01*
X131582647Y-148113701D01*
X131705256Y-147642696D01*
X131542547Y-147447000D01*
X130587000Y-147447000D01*
X130587000Y-147467000D01*
X130333000Y-147467000D01*
X130333000Y-147447000D01*
X130313000Y-147447000D01*
X130313000Y-147193000D01*
X130333000Y-147193000D01*
X130333000Y-146001269D01*
X130587000Y-146001269D01*
X130587000Y-147193000D01*
X131542547Y-147193000D01*
X131705256Y-146997304D01*
X131582647Y-146526299D01*
X131289125Y-146138067D01*
X130869376Y-145891714D01*
X130777609Y-145876538D01*
X130587000Y-146001269D01*
X130333000Y-146001269D01*
X130142391Y-145876538D01*
X130050624Y-145891714D01*
X129630875Y-146138067D01*
X129462410Y-146360891D01*
X129333277Y-146167630D01*
X128932614Y-145899916D01*
X128470000Y-145807896D01*
X128470000Y-145707948D01*
X128412148Y-145417109D01*
X128247401Y-145170547D01*
X127903266Y-144826412D01*
X128098206Y-144745665D01*
X128250630Y-144593241D01*
X128250630Y-144368735D01*
X127720830Y-143838935D01*
X127706688Y-143853078D01*
X127527083Y-143673473D01*
X127541225Y-143659330D01*
X127527083Y-143645188D01*
X127706688Y-143465583D01*
X127720830Y-143479725D01*
X127734973Y-143465583D01*
X127914578Y-143645188D01*
X127914578Y-143645188D01*
G37*
X127914578Y-143645188D02*
X127900435Y-143659330D01*
X128430235Y-144189130D01*
X128654741Y-144189130D01*
X128807165Y-144036706D01*
X128870004Y-143885000D01*
X132296646Y-143885000D01*
X133344047Y-144932401D01*
X133590608Y-145097148D01*
X133881448Y-145155000D01*
X144306646Y-145155000D01*
X144151599Y-145258599D01*
X143572886Y-145837312D01*
X143415000Y-145805907D01*
X142942386Y-145899916D01*
X142541723Y-146167630D01*
X142415000Y-146357285D01*
X142288277Y-146167630D01*
X141887614Y-145899916D01*
X141415000Y-145805907D01*
X140942386Y-145899916D01*
X140541723Y-146167630D01*
X140415000Y-146357285D01*
X140288277Y-146167630D01*
X139887614Y-145899916D01*
X139415000Y-145805907D01*
X138942386Y-145899916D01*
X138565004Y-146152074D01*
X138479090Y-146018559D01*
X138266890Y-145873569D01*
X138079995Y-145835722D01*
X138040687Y-145809457D01*
X137415000Y-145685000D01*
X136789313Y-145809457D01*
X136751947Y-145834424D01*
X136579683Y-145866838D01*
X136363559Y-146005910D01*
X136218569Y-146218110D01*
X136216797Y-146226862D01*
X135904457Y-146694313D01*
X135780000Y-147320000D01*
X135780000Y-148292761D01*
X135537760Y-148535000D01*
X131232784Y-148535000D01*
X131289125Y-148501933D01*
X131582647Y-148113701D01*
X131705256Y-147642696D01*
X131542547Y-147447000D01*
X130587000Y-147447000D01*
X130587000Y-147467000D01*
X130333000Y-147467000D01*
X130333000Y-147447000D01*
X130313000Y-147447000D01*
X130313000Y-147193000D01*
X130333000Y-147193000D01*
X130333000Y-146001269D01*
X130587000Y-146001269D01*
X130587000Y-147193000D01*
X131542547Y-147193000D01*
X131705256Y-146997304D01*
X131582647Y-146526299D01*
X131289125Y-146138067D01*
X130869376Y-145891714D01*
X130777609Y-145876538D01*
X130587000Y-146001269D01*
X130333000Y-146001269D01*
X130142391Y-145876538D01*
X130050624Y-145891714D01*
X129630875Y-146138067D01*
X129462410Y-146360891D01*
X129333277Y-146167630D01*
X128932614Y-145899916D01*
X128470000Y-145807896D01*
X128470000Y-145707948D01*
X128412148Y-145417109D01*
X128247401Y-145170547D01*
X127903266Y-144826412D01*
X128098206Y-144745665D01*
X128250630Y-144593241D01*
X128250630Y-144368735D01*
X127720830Y-143838935D01*
X127706688Y-143853078D01*
X127527083Y-143673473D01*
X127541225Y-143659330D01*
X127527083Y-143645188D01*
X127706688Y-143465583D01*
X127720830Y-143479725D01*
X127734973Y-143465583D01*
X127914578Y-143645188D01*
G36*
X124367600Y-144147454D02*
X126098050Y-145877904D01*
X125987386Y-145899916D01*
X125610004Y-146152074D01*
X125524090Y-146018559D01*
X125311890Y-145873569D01*
X125124995Y-145835722D01*
X125085687Y-145809457D01*
X124460000Y-145685000D01*
X123834313Y-145809457D01*
X123796947Y-145834424D01*
X123624683Y-145866838D01*
X123408559Y-146005910D01*
X123263569Y-146218110D01*
X123261797Y-146226862D01*
X122949457Y-146694313D01*
X122825000Y-147320000D01*
X122825000Y-148535000D01*
X119802784Y-148535000D01*
X119859125Y-148501933D01*
X120152647Y-148113701D01*
X120275256Y-147642696D01*
X120112547Y-147447000D01*
X119157000Y-147447000D01*
X119157000Y-147467000D01*
X118903000Y-147467000D01*
X118903000Y-147447000D01*
X118883000Y-147447000D01*
X118883000Y-147193000D01*
X118903000Y-147193000D01*
X118903000Y-147173000D01*
X119157000Y-147173000D01*
X119157000Y-147193000D01*
X120112547Y-147193000D01*
X120275256Y-146997304D01*
X120152647Y-146526299D01*
X120076060Y-146425000D01*
X121388552Y-146425000D01*
X121679391Y-146367148D01*
X121925953Y-146202401D01*
X124212710Y-143915644D01*
X124367600Y-144147454D01*
X124367600Y-144147454D01*
G37*
X124367600Y-144147454D02*
X126098050Y-145877904D01*
X125987386Y-145899916D01*
X125610004Y-146152074D01*
X125524090Y-146018559D01*
X125311890Y-145873569D01*
X125124995Y-145835722D01*
X125085687Y-145809457D01*
X124460000Y-145685000D01*
X123834313Y-145809457D01*
X123796947Y-145834424D01*
X123624683Y-145866838D01*
X123408559Y-146005910D01*
X123263569Y-146218110D01*
X123261797Y-146226862D01*
X122949457Y-146694313D01*
X122825000Y-147320000D01*
X122825000Y-148535000D01*
X119802784Y-148535000D01*
X119859125Y-148501933D01*
X120152647Y-148113701D01*
X120275256Y-147642696D01*
X120112547Y-147447000D01*
X119157000Y-147447000D01*
X119157000Y-147467000D01*
X118903000Y-147467000D01*
X118903000Y-147447000D01*
X118883000Y-147447000D01*
X118883000Y-147193000D01*
X118903000Y-147193000D01*
X118903000Y-147173000D01*
X119157000Y-147173000D01*
X119157000Y-147193000D01*
X120112547Y-147193000D01*
X120275256Y-146997304D01*
X120152647Y-146526299D01*
X120076060Y-146425000D01*
X121388552Y-146425000D01*
X121679391Y-146367148D01*
X121925953Y-146202401D01*
X124212710Y-143915644D01*
X124367600Y-144147454D01*
G36*
X149787560Y-148170000D02*
X149795275Y-148211000D01*
X146464084Y-148211000D01*
X146537647Y-148113701D01*
X146660256Y-147642696D01*
X146497547Y-147447000D01*
X145542000Y-147447000D01*
X145542000Y-147467000D01*
X145288000Y-147467000D01*
X145288000Y-147447000D01*
X145268000Y-147447000D01*
X145268000Y-147193000D01*
X145288000Y-147193000D01*
X145288000Y-147173000D01*
X145542000Y-147173000D01*
X145542000Y-147193000D01*
X146497547Y-147193000D01*
X146660256Y-146997304D01*
X146545379Y-146556000D01*
X149787560Y-146556000D01*
X149787560Y-148170000D01*
X149787560Y-148170000D01*
G37*
X149787560Y-148170000D02*
X149795275Y-148211000D01*
X146464084Y-148211000D01*
X146537647Y-148113701D01*
X146660256Y-147642696D01*
X146497547Y-147447000D01*
X145542000Y-147447000D01*
X145542000Y-147467000D01*
X145288000Y-147467000D01*
X145288000Y-147447000D01*
X145268000Y-147447000D01*
X145268000Y-147193000D01*
X145288000Y-147193000D01*
X145288000Y-147173000D01*
X145542000Y-147173000D01*
X145542000Y-147193000D01*
X146497547Y-147193000D01*
X146660256Y-146997304D01*
X146545379Y-146556000D01*
X149787560Y-146556000D01*
X149787560Y-148170000D01*
G36*
X162435000Y-144100637D02*
X162375851Y-144189160D01*
X162317999Y-144479999D01*
X162317999Y-145080001D01*
X162375851Y-145370840D01*
X162435000Y-145459363D01*
X162435000Y-146907952D01*
X162083701Y-146642353D01*
X161612696Y-146519744D01*
X161417000Y-146682453D01*
X161417000Y-147638000D01*
X161437000Y-147638000D01*
X161437000Y-147892000D01*
X161417000Y-147892000D01*
X161417000Y-147912000D01*
X161163000Y-147912000D01*
X161163000Y-147892000D01*
X161143000Y-147892000D01*
X161143000Y-147638000D01*
X161163000Y-147638000D01*
X161163000Y-146682453D01*
X160967304Y-146519744D01*
X160496299Y-146642353D01*
X160145000Y-146907952D01*
X160145000Y-143406975D01*
X160188110Y-143436431D01*
X160440000Y-143487440D01*
X162140000Y-143487440D01*
X162375317Y-143443162D01*
X162435000Y-143404757D01*
X162435000Y-144100637D01*
X162435000Y-144100637D01*
G37*
X162435000Y-144100637D02*
X162375851Y-144189160D01*
X162317999Y-144479999D01*
X162317999Y-145080001D01*
X162375851Y-145370840D01*
X162435000Y-145459363D01*
X162435000Y-146907952D01*
X162083701Y-146642353D01*
X161612696Y-146519744D01*
X161417000Y-146682453D01*
X161417000Y-147638000D01*
X161437000Y-147638000D01*
X161437000Y-147892000D01*
X161417000Y-147892000D01*
X161417000Y-147912000D01*
X161163000Y-147912000D01*
X161163000Y-147892000D01*
X161143000Y-147892000D01*
X161143000Y-147638000D01*
X161163000Y-147638000D01*
X161163000Y-146682453D01*
X160967304Y-146519744D01*
X160496299Y-146642353D01*
X160145000Y-146907952D01*
X160145000Y-143406975D01*
X160188110Y-143436431D01*
X160440000Y-143487440D01*
X162140000Y-143487440D01*
X162375317Y-143443162D01*
X162435000Y-143404757D01*
X162435000Y-144100637D01*
G36*
X108077000Y-139668000D02*
X108097000Y-139668000D01*
X108097000Y-139922000D01*
X108077000Y-139922000D01*
X108077000Y-140877547D01*
X108272696Y-141040256D01*
X108743701Y-140917647D01*
X108870679Y-140821646D01*
X108902852Y-140983391D01*
X109067599Y-141229953D01*
X110119810Y-142282164D01*
X109955673Y-142446301D01*
X109859000Y-142679690D01*
X109859000Y-142970250D01*
X110017750Y-143129000D01*
X110619000Y-143129000D01*
X110619000Y-143109000D01*
X110869000Y-143109000D01*
X110869000Y-143129000D01*
X110891000Y-143129000D01*
X110891000Y-143383000D01*
X110869000Y-143383000D01*
X110869000Y-144182250D01*
X111027750Y-144341000D01*
X111120309Y-144341000D01*
X111353698Y-144244327D01*
X111494936Y-144103090D01*
X111529910Y-144157441D01*
X111742110Y-144302431D01*
X111994000Y-144353440D01*
X112028206Y-144353440D01*
X109413084Y-146968562D01*
X109370084Y-146752386D01*
X109117926Y-146375004D01*
X109251441Y-146289090D01*
X109396431Y-146076890D01*
X109434278Y-145889995D01*
X109460543Y-145850687D01*
X109585000Y-145225000D01*
X109460543Y-144599313D01*
X109435576Y-144561947D01*
X109403162Y-144389683D01*
X109264090Y-144173559D01*
X109051890Y-144028569D01*
X109043138Y-144026797D01*
X108575687Y-143714457D01*
X107950000Y-143590000D01*
X107802239Y-143590000D01*
X107753990Y-143541750D01*
X109859000Y-143541750D01*
X109859000Y-143832310D01*
X109955673Y-144065699D01*
X110134302Y-144244327D01*
X110367691Y-144341000D01*
X110460250Y-144341000D01*
X110619000Y-144182250D01*
X110619000Y-143383000D01*
X110017750Y-143383000D01*
X109859000Y-143541750D01*
X107753990Y-143541750D01*
X107534990Y-143322750D01*
X107534990Y-141016225D01*
X107627304Y-141040256D01*
X107823000Y-140877547D01*
X107823000Y-139922000D01*
X107803000Y-139922000D01*
X107803000Y-139668000D01*
X107823000Y-139668000D01*
X107823000Y-139648000D01*
X108077000Y-139648000D01*
X108077000Y-139668000D01*
X108077000Y-139668000D01*
G37*
X108077000Y-139668000D02*
X108097000Y-139668000D01*
X108097000Y-139922000D01*
X108077000Y-139922000D01*
X108077000Y-140877547D01*
X108272696Y-141040256D01*
X108743701Y-140917647D01*
X108870679Y-140821646D01*
X108902852Y-140983391D01*
X109067599Y-141229953D01*
X110119810Y-142282164D01*
X109955673Y-142446301D01*
X109859000Y-142679690D01*
X109859000Y-142970250D01*
X110017750Y-143129000D01*
X110619000Y-143129000D01*
X110619000Y-143109000D01*
X110869000Y-143109000D01*
X110869000Y-143129000D01*
X110891000Y-143129000D01*
X110891000Y-143383000D01*
X110869000Y-143383000D01*
X110869000Y-144182250D01*
X111027750Y-144341000D01*
X111120309Y-144341000D01*
X111353698Y-144244327D01*
X111494936Y-144103090D01*
X111529910Y-144157441D01*
X111742110Y-144302431D01*
X111994000Y-144353440D01*
X112028206Y-144353440D01*
X109413084Y-146968562D01*
X109370084Y-146752386D01*
X109117926Y-146375004D01*
X109251441Y-146289090D01*
X109396431Y-146076890D01*
X109434278Y-145889995D01*
X109460543Y-145850687D01*
X109585000Y-145225000D01*
X109460543Y-144599313D01*
X109435576Y-144561947D01*
X109403162Y-144389683D01*
X109264090Y-144173559D01*
X109051890Y-144028569D01*
X109043138Y-144026797D01*
X108575687Y-143714457D01*
X107950000Y-143590000D01*
X107802239Y-143590000D01*
X107753990Y-143541750D01*
X109859000Y-143541750D01*
X109859000Y-143832310D01*
X109955673Y-144065699D01*
X110134302Y-144244327D01*
X110367691Y-144341000D01*
X110460250Y-144341000D01*
X110619000Y-144182250D01*
X110619000Y-143383000D01*
X110017750Y-143383000D01*
X109859000Y-143541750D01*
X107753990Y-143541750D01*
X107534990Y-143322750D01*
X107534990Y-141016225D01*
X107627304Y-141040256D01*
X107823000Y-140877547D01*
X107823000Y-139922000D01*
X107803000Y-139922000D01*
X107803000Y-139668000D01*
X107823000Y-139668000D01*
X107823000Y-139648000D01*
X108077000Y-139648000D01*
X108077000Y-139668000D01*
G36*
X120598505Y-143995536D02*
X120750929Y-144147960D01*
X120975433Y-144147960D01*
X120863181Y-144260212D01*
X120937308Y-144334339D01*
X120866646Y-144405000D01*
X117185000Y-144405000D01*
X116894161Y-144462852D01*
X116647599Y-144627599D01*
X115396408Y-145878790D01*
X115030000Y-145805907D01*
X114557386Y-145899916D01*
X114180004Y-146152074D01*
X114094090Y-146018559D01*
X113881890Y-145873569D01*
X113694995Y-145835722D01*
X113655687Y-145809457D01*
X113466524Y-145771830D01*
X115302079Y-143936275D01*
X120573958Y-143936275D01*
X120598505Y-143995536D01*
X120598505Y-143995536D01*
G37*
X120598505Y-143995536D02*
X120750929Y-144147960D01*
X120975433Y-144147960D01*
X120863181Y-144260212D01*
X120937308Y-144334339D01*
X120866646Y-144405000D01*
X117185000Y-144405000D01*
X116894161Y-144462852D01*
X116647599Y-144627599D01*
X115396408Y-145878790D01*
X115030000Y-145805907D01*
X114557386Y-145899916D01*
X114180004Y-146152074D01*
X114094090Y-146018559D01*
X113881890Y-145873569D01*
X113694995Y-145835722D01*
X113655687Y-145809457D01*
X113466524Y-145771830D01*
X115302079Y-143936275D01*
X120573958Y-143936275D01*
X120598505Y-143995536D01*
G36*
X157627000Y-142597000D02*
X157607000Y-142597000D01*
X157607000Y-143346250D01*
X157765750Y-143505000D01*
X157924246Y-143505000D01*
X157815162Y-143767701D01*
X157815121Y-143814577D01*
X156593698Y-145036000D01*
X155938554Y-145036000D01*
X155938662Y-144912333D01*
X155796617Y-144568557D01*
X155533827Y-144305308D01*
X155378847Y-144240955D01*
X155498799Y-144121003D01*
X155679673Y-144302192D01*
X156023201Y-144444838D01*
X156395167Y-144445162D01*
X156738943Y-144303117D01*
X157002192Y-144040327D01*
X157144838Y-143696799D01*
X157145005Y-143505000D01*
X157194250Y-143505000D01*
X157353000Y-143346250D01*
X157353000Y-142597000D01*
X157333000Y-142597000D01*
X157333000Y-142504999D01*
X157627000Y-142504999D01*
X157627000Y-142597000D01*
X157627000Y-142597000D01*
G37*
X157627000Y-142597000D02*
X157607000Y-142597000D01*
X157607000Y-143346250D01*
X157765750Y-143505000D01*
X157924246Y-143505000D01*
X157815162Y-143767701D01*
X157815121Y-143814577D01*
X156593698Y-145036000D01*
X155938554Y-145036000D01*
X155938662Y-144912333D01*
X155796617Y-144568557D01*
X155533827Y-144305308D01*
X155378847Y-144240955D01*
X155498799Y-144121003D01*
X155679673Y-144302192D01*
X156023201Y-144444838D01*
X156395167Y-144445162D01*
X156738943Y-144303117D01*
X157002192Y-144040327D01*
X157144838Y-143696799D01*
X157145005Y-143505000D01*
X157194250Y-143505000D01*
X157353000Y-143346250D01*
X157353000Y-142597000D01*
X157333000Y-142597000D01*
X157333000Y-142504999D01*
X157627000Y-142504999D01*
X157627000Y-142597000D01*
G36*
X146875500Y-139509500D02*
X146895500Y-139509500D01*
X146895500Y-139763500D01*
X146875500Y-139763500D01*
X146875500Y-139783500D01*
X146621500Y-139783500D01*
X146621500Y-139763500D01*
X146601500Y-139763500D01*
X146601500Y-139509500D01*
X146621500Y-139509500D01*
X146621500Y-139489500D01*
X146875500Y-139489500D01*
X146875500Y-139509500D01*
X146875500Y-139509500D01*
G37*
X146875500Y-139509500D02*
X146895500Y-139509500D01*
X146895500Y-139763500D01*
X146875500Y-139763500D01*
X146875500Y-139783500D01*
X146621500Y-139783500D01*
X146621500Y-139763500D01*
X146601500Y-139763500D01*
X146601500Y-139509500D01*
X146621500Y-139509500D01*
X146621500Y-139489500D01*
X146875500Y-139489500D01*
X146875500Y-139509500D01*
G36*
X115061059Y-138339910D02*
X114916069Y-138552110D01*
X114865060Y-138804000D01*
X114865060Y-139349779D01*
X114749346Y-139427096D01*
X114595250Y-139273000D01*
X113696000Y-139273000D01*
X113696000Y-139293000D01*
X113442000Y-139293000D01*
X113442000Y-139273000D01*
X113422000Y-139273000D01*
X113422000Y-139019000D01*
X113442000Y-139019000D01*
X113442000Y-138999000D01*
X113696000Y-138999000D01*
X113696000Y-139019000D01*
X114595250Y-139019000D01*
X114754000Y-138860250D01*
X114754000Y-138569690D01*
X114725130Y-138499993D01*
X114760567Y-138325000D01*
X115084230Y-138325000D01*
X115061059Y-138339910D01*
X115061059Y-138339910D01*
G37*
X115061059Y-138339910D02*
X114916069Y-138552110D01*
X114865060Y-138804000D01*
X114865060Y-139349779D01*
X114749346Y-139427096D01*
X114595250Y-139273000D01*
X113696000Y-139273000D01*
X113696000Y-139293000D01*
X113442000Y-139293000D01*
X113442000Y-139273000D01*
X113422000Y-139273000D01*
X113422000Y-139019000D01*
X113442000Y-139019000D01*
X113442000Y-138999000D01*
X113696000Y-138999000D01*
X113696000Y-139019000D01*
X114595250Y-139019000D01*
X114754000Y-138860250D01*
X114754000Y-138569690D01*
X114725130Y-138499993D01*
X114760567Y-138325000D01*
X115084230Y-138325000D01*
X115061059Y-138339910D01*
G36*
X134245000Y-135834250D02*
X134403750Y-135993000D01*
X135128000Y-135993000D01*
X135128000Y-135973000D01*
X135382000Y-135973000D01*
X135382000Y-135993000D01*
X135402000Y-135993000D01*
X135402000Y-136247000D01*
X135382000Y-136247000D01*
X135382000Y-136996250D01*
X135540750Y-137155000D01*
X135756310Y-137155000D01*
X135986590Y-137059615D01*
X136065302Y-137138327D01*
X136298691Y-137235000D01*
X136414250Y-137235000D01*
X136452560Y-137196690D01*
X136452560Y-137275000D01*
X136496838Y-137510317D01*
X136635910Y-137726441D01*
X136848110Y-137871431D01*
X137100000Y-137922440D01*
X137177554Y-137922440D01*
X137177338Y-138170667D01*
X137188242Y-138197056D01*
X137109683Y-138211838D01*
X136893559Y-138350910D01*
X136843291Y-138424479D01*
X136804090Y-138363559D01*
X136591890Y-138218569D01*
X136340000Y-138167560D01*
X135440000Y-138167560D01*
X135204683Y-138211838D01*
X135059905Y-138305000D01*
X134813386Y-138305000D01*
X134686890Y-138218569D01*
X134435000Y-138167560D01*
X133969999Y-138167560D01*
X133969999Y-136405750D01*
X134245000Y-136405750D01*
X134245000Y-136646309D01*
X134341673Y-136879698D01*
X134520301Y-137058327D01*
X134753690Y-137155000D01*
X134969250Y-137155000D01*
X135128000Y-136996250D01*
X135128000Y-136247000D01*
X134403750Y-136247000D01*
X134245000Y-136405750D01*
X133969999Y-136405750D01*
X133969999Y-135909949D01*
X134245000Y-135634949D01*
X134245000Y-135834250D01*
X134245000Y-135834250D01*
G37*
X134245000Y-135834250D02*
X134403750Y-135993000D01*
X135128000Y-135993000D01*
X135128000Y-135973000D01*
X135382000Y-135973000D01*
X135382000Y-135993000D01*
X135402000Y-135993000D01*
X135402000Y-136247000D01*
X135382000Y-136247000D01*
X135382000Y-136996250D01*
X135540750Y-137155000D01*
X135756310Y-137155000D01*
X135986590Y-137059615D01*
X136065302Y-137138327D01*
X136298691Y-137235000D01*
X136414250Y-137235000D01*
X136452560Y-137196690D01*
X136452560Y-137275000D01*
X136496838Y-137510317D01*
X136635910Y-137726441D01*
X136848110Y-137871431D01*
X137100000Y-137922440D01*
X137177554Y-137922440D01*
X137177338Y-138170667D01*
X137188242Y-138197056D01*
X137109683Y-138211838D01*
X136893559Y-138350910D01*
X136843291Y-138424479D01*
X136804090Y-138363559D01*
X136591890Y-138218569D01*
X136340000Y-138167560D01*
X135440000Y-138167560D01*
X135204683Y-138211838D01*
X135059905Y-138305000D01*
X134813386Y-138305000D01*
X134686890Y-138218569D01*
X134435000Y-138167560D01*
X133969999Y-138167560D01*
X133969999Y-136405750D01*
X134245000Y-136405750D01*
X134245000Y-136646309D01*
X134341673Y-136879698D01*
X134520301Y-137058327D01*
X134753690Y-137155000D01*
X134969250Y-137155000D01*
X135128000Y-136996250D01*
X135128000Y-136247000D01*
X134403750Y-136247000D01*
X134245000Y-136405750D01*
X133969999Y-136405750D01*
X133969999Y-135909949D01*
X134245000Y-135634949D01*
X134245000Y-135834250D01*
G36*
X161705010Y-136241224D02*
X161705010Y-137018775D01*
X161612696Y-136994744D01*
X161417000Y-137157453D01*
X161417000Y-138113000D01*
X161437000Y-138113000D01*
X161437000Y-138367000D01*
X161417000Y-138367000D01*
X161417000Y-138387000D01*
X161163000Y-138387000D01*
X161163000Y-138367000D01*
X161143000Y-138367000D01*
X161143000Y-138113000D01*
X161163000Y-138113000D01*
X161163000Y-137157453D01*
X160967304Y-136994744D01*
X160780000Y-137043502D01*
X160780000Y-135890000D01*
X160722148Y-135599161D01*
X160557401Y-135352599D01*
X159948461Y-134743659D01*
X160078066Y-134614280D01*
X161705010Y-136241224D01*
X161705010Y-136241224D01*
G37*
X161705010Y-136241224D02*
X161705010Y-137018775D01*
X161612696Y-136994744D01*
X161417000Y-137157453D01*
X161417000Y-138113000D01*
X161437000Y-138113000D01*
X161437000Y-138367000D01*
X161417000Y-138367000D01*
X161417000Y-138387000D01*
X161163000Y-138387000D01*
X161163000Y-138367000D01*
X161143000Y-138367000D01*
X161143000Y-138113000D01*
X161163000Y-138113000D01*
X161163000Y-137157453D01*
X160967304Y-136994744D01*
X160780000Y-137043502D01*
X160780000Y-135890000D01*
X160722148Y-135599161D01*
X160557401Y-135352599D01*
X159948461Y-134743659D01*
X160078066Y-134614280D01*
X161705010Y-136241224D01*
G36*
X122525750Y-132431750D02*
X124109250Y-132431750D01*
X124109250Y-132411750D01*
X124363250Y-132411750D01*
X124363250Y-132431750D01*
X125946750Y-132431750D01*
X125946750Y-132411750D01*
X126200750Y-132411750D01*
X126200750Y-132431750D01*
X127784250Y-132431750D01*
X127784250Y-132411750D01*
X128038250Y-132411750D01*
X128038250Y-132431750D01*
X128058250Y-132431750D01*
X128058250Y-132685750D01*
X128038250Y-132685750D01*
X128038250Y-134269250D01*
X128058250Y-134269250D01*
X128058250Y-134523250D01*
X128038250Y-134523250D01*
X128038250Y-136106750D01*
X128058250Y-136106750D01*
X128058250Y-136360750D01*
X128038250Y-136360750D01*
X128038250Y-137944250D01*
X128058250Y-137944250D01*
X128058250Y-138198250D01*
X128038250Y-138198250D01*
X128038250Y-138218250D01*
X127784250Y-138218250D01*
X127784250Y-138198250D01*
X126200750Y-138198250D01*
X126200750Y-138218250D01*
X125946750Y-138218250D01*
X125946750Y-138198250D01*
X124363250Y-138198250D01*
X124363250Y-138218250D01*
X124109250Y-138218250D01*
X124109250Y-138198250D01*
X122525750Y-138198250D01*
X122525750Y-138218250D01*
X122271750Y-138218250D01*
X122271750Y-138198250D01*
X122251750Y-138198250D01*
X122251750Y-137944250D01*
X122271750Y-137944250D01*
X122271750Y-136360750D01*
X122525750Y-136360750D01*
X122525750Y-137944250D01*
X124109250Y-137944250D01*
X124109250Y-136360750D01*
X124363250Y-136360750D01*
X124363250Y-137944250D01*
X125946750Y-137944250D01*
X125946750Y-136360750D01*
X126200750Y-136360750D01*
X126200750Y-137944250D01*
X127784250Y-137944250D01*
X127784250Y-136360750D01*
X126200750Y-136360750D01*
X125946750Y-136360750D01*
X124363250Y-136360750D01*
X124109250Y-136360750D01*
X122525750Y-136360750D01*
X122271750Y-136360750D01*
X122251750Y-136360750D01*
X122251750Y-136106750D01*
X122271750Y-136106750D01*
X122271750Y-134523250D01*
X122525750Y-134523250D01*
X122525750Y-136106750D01*
X124109250Y-136106750D01*
X124109250Y-134523250D01*
X124363250Y-134523250D01*
X124363250Y-136106750D01*
X125946750Y-136106750D01*
X125946750Y-134523250D01*
X126200750Y-134523250D01*
X126200750Y-136106750D01*
X127784250Y-136106750D01*
X127784250Y-134523250D01*
X126200750Y-134523250D01*
X125946750Y-134523250D01*
X124363250Y-134523250D01*
X124109250Y-134523250D01*
X122525750Y-134523250D01*
X122271750Y-134523250D01*
X122251750Y-134523250D01*
X122251750Y-134269250D01*
X122271750Y-134269250D01*
X122271750Y-132685750D01*
X122525750Y-132685750D01*
X122525750Y-134269250D01*
X124109250Y-134269250D01*
X124109250Y-132685750D01*
X124363250Y-132685750D01*
X124363250Y-134269250D01*
X125946750Y-134269250D01*
X125946750Y-132685750D01*
X126200750Y-132685750D01*
X126200750Y-134269250D01*
X127784250Y-134269250D01*
X127784250Y-132685750D01*
X126200750Y-132685750D01*
X125946750Y-132685750D01*
X124363250Y-132685750D01*
X124109250Y-132685750D01*
X122525750Y-132685750D01*
X122271750Y-132685750D01*
X122251750Y-132685750D01*
X122251750Y-132431750D01*
X122271750Y-132431750D01*
X122271750Y-132411750D01*
X122525750Y-132411750D01*
X122525750Y-132431750D01*
X122525750Y-132431750D01*
G37*
X122525750Y-132431750D02*
X124109250Y-132431750D01*
X124109250Y-132411750D01*
X124363250Y-132411750D01*
X124363250Y-132431750D01*
X125946750Y-132431750D01*
X125946750Y-132411750D01*
X126200750Y-132411750D01*
X126200750Y-132431750D01*
X127784250Y-132431750D01*
X127784250Y-132411750D01*
X128038250Y-132411750D01*
X128038250Y-132431750D01*
X128058250Y-132431750D01*
X128058250Y-132685750D01*
X128038250Y-132685750D01*
X128038250Y-134269250D01*
X128058250Y-134269250D01*
X128058250Y-134523250D01*
X128038250Y-134523250D01*
X128038250Y-136106750D01*
X128058250Y-136106750D01*
X128058250Y-136360750D01*
X128038250Y-136360750D01*
X128038250Y-137944250D01*
X128058250Y-137944250D01*
X128058250Y-138198250D01*
X128038250Y-138198250D01*
X128038250Y-138218250D01*
X127784250Y-138218250D01*
X127784250Y-138198250D01*
X126200750Y-138198250D01*
X126200750Y-138218250D01*
X125946750Y-138218250D01*
X125946750Y-138198250D01*
X124363250Y-138198250D01*
X124363250Y-138218250D01*
X124109250Y-138218250D01*
X124109250Y-138198250D01*
X122525750Y-138198250D01*
X122525750Y-138218250D01*
X122271750Y-138218250D01*
X122271750Y-138198250D01*
X122251750Y-138198250D01*
X122251750Y-137944250D01*
X122271750Y-137944250D01*
X122271750Y-136360750D01*
X122525750Y-136360750D01*
X122525750Y-137944250D01*
X124109250Y-137944250D01*
X124109250Y-136360750D01*
X124363250Y-136360750D01*
X124363250Y-137944250D01*
X125946750Y-137944250D01*
X125946750Y-136360750D01*
X126200750Y-136360750D01*
X126200750Y-137944250D01*
X127784250Y-137944250D01*
X127784250Y-136360750D01*
X126200750Y-136360750D01*
X125946750Y-136360750D01*
X124363250Y-136360750D01*
X124109250Y-136360750D01*
X122525750Y-136360750D01*
X122271750Y-136360750D01*
X122251750Y-136360750D01*
X122251750Y-136106750D01*
X122271750Y-136106750D01*
X122271750Y-134523250D01*
X122525750Y-134523250D01*
X122525750Y-136106750D01*
X124109250Y-136106750D01*
X124109250Y-134523250D01*
X124363250Y-134523250D01*
X124363250Y-136106750D01*
X125946750Y-136106750D01*
X125946750Y-134523250D01*
X126200750Y-134523250D01*
X126200750Y-136106750D01*
X127784250Y-136106750D01*
X127784250Y-134523250D01*
X126200750Y-134523250D01*
X125946750Y-134523250D01*
X124363250Y-134523250D01*
X124109250Y-134523250D01*
X122525750Y-134523250D01*
X122271750Y-134523250D01*
X122251750Y-134523250D01*
X122251750Y-134269250D01*
X122271750Y-134269250D01*
X122271750Y-132685750D01*
X122525750Y-132685750D01*
X122525750Y-134269250D01*
X124109250Y-134269250D01*
X124109250Y-132685750D01*
X124363250Y-132685750D01*
X124363250Y-134269250D01*
X125946750Y-134269250D01*
X125946750Y-132685750D01*
X126200750Y-132685750D01*
X126200750Y-134269250D01*
X127784250Y-134269250D01*
X127784250Y-132685750D01*
X126200750Y-132685750D01*
X125946750Y-132685750D01*
X124363250Y-132685750D01*
X124109250Y-132685750D01*
X122525750Y-132685750D01*
X122271750Y-132685750D01*
X122251750Y-132685750D01*
X122251750Y-132431750D01*
X122271750Y-132431750D01*
X122271750Y-132411750D01*
X122525750Y-132411750D01*
X122525750Y-132431750D01*
G36*
X147562000Y-137898000D02*
X147582000Y-137898000D01*
X147582000Y-138152000D01*
X147562000Y-138152000D01*
X147562000Y-138172000D01*
X147308000Y-138172000D01*
X147308000Y-138152000D01*
X147288000Y-138152000D01*
X147288000Y-137898000D01*
X147308000Y-137898000D01*
X147308000Y-137878000D01*
X147562000Y-137878000D01*
X147562000Y-137898000D01*
X147562000Y-137898000D01*
G37*
X147562000Y-137898000D02*
X147582000Y-137898000D01*
X147582000Y-138152000D01*
X147562000Y-138152000D01*
X147562000Y-138172000D01*
X147308000Y-138172000D01*
X147308000Y-138152000D01*
X147288000Y-138152000D01*
X147288000Y-137898000D01*
X147308000Y-137898000D01*
X147308000Y-137878000D01*
X147562000Y-137878000D01*
X147562000Y-137898000D01*
G36*
X143407000Y-137668000D02*
X143427000Y-137668000D01*
X143427000Y-137860500D01*
X143254000Y-137860500D01*
X143254000Y-137648000D01*
X143407000Y-137648000D01*
X143407000Y-137668000D01*
X143407000Y-137668000D01*
G37*
X143407000Y-137668000D02*
X143427000Y-137668000D01*
X143427000Y-137860500D01*
X143254000Y-137860500D01*
X143254000Y-137648000D01*
X143407000Y-137648000D01*
X143407000Y-137668000D01*
G36*
X131699000Y-137326500D02*
X131719000Y-137326500D01*
X131719000Y-137513146D01*
X131682727Y-137600500D01*
X131445000Y-137600500D01*
X131445000Y-137580500D01*
X131425000Y-137580500D01*
X131425000Y-137326500D01*
X131445000Y-137326500D01*
X131445000Y-137306500D01*
X131699000Y-137306500D01*
X131699000Y-137326500D01*
X131699000Y-137326500D01*
G37*
X131699000Y-137326500D02*
X131719000Y-137326500D01*
X131719000Y-137513146D01*
X131682727Y-137600500D01*
X131445000Y-137600500D01*
X131445000Y-137580500D01*
X131425000Y-137580500D01*
X131425000Y-137326500D01*
X131445000Y-137326500D01*
X131445000Y-137306500D01*
X131699000Y-137306500D01*
X131699000Y-137326500D01*
G36*
X108077000Y-128143000D02*
X108097000Y-128143000D01*
X108097000Y-128397000D01*
X108077000Y-128397000D01*
X108077000Y-129352547D01*
X108272696Y-129515256D01*
X108743701Y-129392647D01*
X108845000Y-129316060D01*
X108845000Y-129386538D01*
X108902852Y-129677377D01*
X109067599Y-129923939D01*
X113833160Y-134689500D01*
X113760250Y-134689500D01*
X113601500Y-134848250D01*
X113601500Y-135572500D01*
X114350750Y-135572500D01*
X114509500Y-135413750D01*
X114509500Y-135365840D01*
X115948660Y-136805000D01*
X114378839Y-136805000D01*
X114370890Y-136799569D01*
X114119000Y-136748560D01*
X113019000Y-136748560D01*
X112783683Y-136792838D01*
X112720522Y-136833481D01*
X112670890Y-136799569D01*
X112629000Y-136791086D01*
X112629000Y-136665318D01*
X112713146Y-136611171D01*
X112714802Y-136612827D01*
X112948191Y-136709500D01*
X113188750Y-136709500D01*
X113347500Y-136550750D01*
X113347500Y-135826500D01*
X113601500Y-135826500D01*
X113601500Y-136550750D01*
X113760250Y-136709500D01*
X114000809Y-136709500D01*
X114234198Y-136612827D01*
X114412827Y-136434199D01*
X114509500Y-136200810D01*
X114509500Y-135985250D01*
X114350750Y-135826500D01*
X113601500Y-135826500D01*
X113347500Y-135826500D01*
X113327500Y-135826500D01*
X113327500Y-135572500D01*
X113347500Y-135572500D01*
X113347500Y-134848250D01*
X113188750Y-134689500D01*
X112948191Y-134689500D01*
X112714802Y-134786173D01*
X112713432Y-134787543D01*
X112626390Y-134728069D01*
X112374500Y-134677060D01*
X111659085Y-134677060D01*
X111635420Y-134619786D01*
X111742338Y-134362299D01*
X111742662Y-133990333D01*
X111600617Y-133646557D01*
X111337827Y-133383308D01*
X110994299Y-133240662D01*
X110622333Y-133240338D01*
X110278557Y-133382383D01*
X110015308Y-133645173D01*
X109872662Y-133988701D01*
X109872338Y-134360667D01*
X109979580Y-134620214D01*
X109872662Y-134877701D01*
X109872338Y-135249667D01*
X110005883Y-135572871D01*
X109872662Y-135893701D01*
X109872338Y-136265667D01*
X110014383Y-136609443D01*
X110277173Y-136872692D01*
X110620701Y-137015338D01*
X110810442Y-137015503D01*
X110723230Y-137143142D01*
X110719661Y-137143852D01*
X110512245Y-137282443D01*
X109391210Y-136161408D01*
X109464093Y-135795000D01*
X109370084Y-135322386D01*
X109117926Y-134945004D01*
X109251441Y-134859090D01*
X109396431Y-134646890D01*
X109434278Y-134459995D01*
X109460543Y-134420687D01*
X109585000Y-133795000D01*
X109460543Y-133169313D01*
X109435576Y-133131947D01*
X109403162Y-132959683D01*
X109264090Y-132743559D01*
X109051890Y-132598569D01*
X109043138Y-132596797D01*
X108575687Y-132284457D01*
X107950000Y-132160000D01*
X107534990Y-132160000D01*
X107534990Y-129491225D01*
X107627304Y-129515256D01*
X107823000Y-129352547D01*
X107823000Y-128397000D01*
X107803000Y-128397000D01*
X107803000Y-128143000D01*
X107823000Y-128143000D01*
X107823000Y-128123000D01*
X108077000Y-128123000D01*
X108077000Y-128143000D01*
X108077000Y-128143000D01*
G37*
X108077000Y-128143000D02*
X108097000Y-128143000D01*
X108097000Y-128397000D01*
X108077000Y-128397000D01*
X108077000Y-129352547D01*
X108272696Y-129515256D01*
X108743701Y-129392647D01*
X108845000Y-129316060D01*
X108845000Y-129386538D01*
X108902852Y-129677377D01*
X109067599Y-129923939D01*
X113833160Y-134689500D01*
X113760250Y-134689500D01*
X113601500Y-134848250D01*
X113601500Y-135572500D01*
X114350750Y-135572500D01*
X114509500Y-135413750D01*
X114509500Y-135365840D01*
X115948660Y-136805000D01*
X114378839Y-136805000D01*
X114370890Y-136799569D01*
X114119000Y-136748560D01*
X113019000Y-136748560D01*
X112783683Y-136792838D01*
X112720522Y-136833481D01*
X112670890Y-136799569D01*
X112629000Y-136791086D01*
X112629000Y-136665318D01*
X112713146Y-136611171D01*
X112714802Y-136612827D01*
X112948191Y-136709500D01*
X113188750Y-136709500D01*
X113347500Y-136550750D01*
X113347500Y-135826500D01*
X113601500Y-135826500D01*
X113601500Y-136550750D01*
X113760250Y-136709500D01*
X114000809Y-136709500D01*
X114234198Y-136612827D01*
X114412827Y-136434199D01*
X114509500Y-136200810D01*
X114509500Y-135985250D01*
X114350750Y-135826500D01*
X113601500Y-135826500D01*
X113347500Y-135826500D01*
X113327500Y-135826500D01*
X113327500Y-135572500D01*
X113347500Y-135572500D01*
X113347500Y-134848250D01*
X113188750Y-134689500D01*
X112948191Y-134689500D01*
X112714802Y-134786173D01*
X112713432Y-134787543D01*
X112626390Y-134728069D01*
X112374500Y-134677060D01*
X111659085Y-134677060D01*
X111635420Y-134619786D01*
X111742338Y-134362299D01*
X111742662Y-133990333D01*
X111600617Y-133646557D01*
X111337827Y-133383308D01*
X110994299Y-133240662D01*
X110622333Y-133240338D01*
X110278557Y-133382383D01*
X110015308Y-133645173D01*
X109872662Y-133988701D01*
X109872338Y-134360667D01*
X109979580Y-134620214D01*
X109872662Y-134877701D01*
X109872338Y-135249667D01*
X110005883Y-135572871D01*
X109872662Y-135893701D01*
X109872338Y-136265667D01*
X110014383Y-136609443D01*
X110277173Y-136872692D01*
X110620701Y-137015338D01*
X110810442Y-137015503D01*
X110723230Y-137143142D01*
X110719661Y-137143852D01*
X110512245Y-137282443D01*
X109391210Y-136161408D01*
X109464093Y-135795000D01*
X109370084Y-135322386D01*
X109117926Y-134945004D01*
X109251441Y-134859090D01*
X109396431Y-134646890D01*
X109434278Y-134459995D01*
X109460543Y-134420687D01*
X109585000Y-133795000D01*
X109460543Y-133169313D01*
X109435576Y-133131947D01*
X109403162Y-132959683D01*
X109264090Y-132743559D01*
X109051890Y-132598569D01*
X109043138Y-132596797D01*
X108575687Y-132284457D01*
X107950000Y-132160000D01*
X107534990Y-132160000D01*
X107534990Y-129491225D01*
X107627304Y-129515256D01*
X107823000Y-129352547D01*
X107823000Y-128397000D01*
X107803000Y-128397000D01*
X107803000Y-128143000D01*
X107823000Y-128143000D01*
X107823000Y-128123000D01*
X108077000Y-128123000D01*
X108077000Y-128143000D01*
G36*
X150654500Y-132710500D02*
X151765500Y-132710500D01*
X151765500Y-132690500D01*
X152019500Y-132690500D01*
X152019500Y-132710500D01*
X153130500Y-132710500D01*
X153130500Y-132690500D01*
X153384500Y-132690500D01*
X153384500Y-132710500D01*
X154495500Y-132710500D01*
X154495500Y-132690500D01*
X154749500Y-132690500D01*
X154749500Y-132710500D01*
X154769500Y-132710500D01*
X154769500Y-132964500D01*
X154749500Y-132964500D01*
X154749500Y-134075500D01*
X154769500Y-134075500D01*
X154769500Y-134329500D01*
X154749500Y-134329500D01*
X154749500Y-135440500D01*
X154769500Y-135440500D01*
X154769500Y-135694500D01*
X154749500Y-135694500D01*
X154749500Y-136805500D01*
X154769500Y-136805500D01*
X154769500Y-137059500D01*
X154749500Y-137059500D01*
X154749500Y-137079500D01*
X154495500Y-137079500D01*
X154495500Y-137059500D01*
X153384500Y-137059500D01*
X153384500Y-137079500D01*
X153130500Y-137079500D01*
X153130500Y-137059500D01*
X152019500Y-137059500D01*
X152019500Y-137079500D01*
X151765500Y-137079500D01*
X151765500Y-137059500D01*
X150654500Y-137059500D01*
X150654500Y-137079500D01*
X150400500Y-137079500D01*
X150400500Y-137059500D01*
X150380500Y-137059500D01*
X150380500Y-136805500D01*
X150400500Y-136805500D01*
X150400500Y-135853250D01*
X150575000Y-135853250D01*
X150575000Y-136646750D01*
X150654500Y-136726250D01*
X150654500Y-136805500D01*
X150733750Y-136805500D01*
X150813250Y-136885000D01*
X151606750Y-136885000D01*
X151686250Y-136805500D01*
X151765500Y-136805500D01*
X151765500Y-136726250D01*
X151845000Y-136646750D01*
X151845000Y-135853250D01*
X151940000Y-135853250D01*
X151940000Y-136646750D01*
X152019500Y-136726250D01*
X152019500Y-136805500D01*
X152098750Y-136805500D01*
X152178250Y-136885000D01*
X152971750Y-136885000D01*
X153051250Y-136805500D01*
X153130500Y-136805500D01*
X153130500Y-136726250D01*
X153210000Y-136646750D01*
X153210000Y-135853250D01*
X153305000Y-135853250D01*
X153305000Y-136646750D01*
X153384500Y-136726250D01*
X153384500Y-136805500D01*
X153463750Y-136805500D01*
X153543250Y-136885000D01*
X154336750Y-136885000D01*
X154416250Y-136805500D01*
X154495500Y-136805500D01*
X154495500Y-136726250D01*
X154575000Y-136646750D01*
X154575000Y-135853250D01*
X154495500Y-135773750D01*
X154495500Y-135694500D01*
X154416250Y-135694500D01*
X154336750Y-135615000D01*
X153543250Y-135615000D01*
X153463750Y-135694500D01*
X153384500Y-135694500D01*
X153384500Y-135773750D01*
X153305000Y-135853250D01*
X153210000Y-135853250D01*
X153130500Y-135773750D01*
X153130500Y-135694500D01*
X153051250Y-135694500D01*
X152971750Y-135615000D01*
X152178250Y-135615000D01*
X152098750Y-135694500D01*
X152019500Y-135694500D01*
X152019500Y-135773750D01*
X151940000Y-135853250D01*
X151845000Y-135853250D01*
X151765500Y-135773750D01*
X151765500Y-135694500D01*
X151686250Y-135694500D01*
X151606750Y-135615000D01*
X150813250Y-135615000D01*
X150733750Y-135694500D01*
X150654500Y-135694500D01*
X150654500Y-135773750D01*
X150575000Y-135853250D01*
X150400500Y-135853250D01*
X150400500Y-135694500D01*
X150380500Y-135694500D01*
X150380500Y-135440500D01*
X150400500Y-135440500D01*
X150400500Y-134488250D01*
X150575000Y-134488250D01*
X150575000Y-135281750D01*
X150654500Y-135361250D01*
X150654500Y-135440500D01*
X150733750Y-135440500D01*
X150813250Y-135520000D01*
X151606750Y-135520000D01*
X151686250Y-135440500D01*
X151765500Y-135440500D01*
X151765500Y-135361250D01*
X151845000Y-135281750D01*
X151845000Y-134488250D01*
X151940000Y-134488250D01*
X151940000Y-135281750D01*
X152019500Y-135361250D01*
X152019500Y-135440500D01*
X152098750Y-135440500D01*
X152178250Y-135520000D01*
X152971750Y-135520000D01*
X153051250Y-135440500D01*
X153130500Y-135440500D01*
X153130500Y-135361250D01*
X153210000Y-135281750D01*
X153210000Y-134488250D01*
X153305000Y-134488250D01*
X153305000Y-135281750D01*
X153384500Y-135361250D01*
X153384500Y-135440500D01*
X153463750Y-135440500D01*
X153543250Y-135520000D01*
X154336750Y-135520000D01*
X154416250Y-135440500D01*
X154495500Y-135440500D01*
X154495500Y-135361250D01*
X154575000Y-135281750D01*
X154575000Y-134488250D01*
X154495500Y-134408750D01*
X154495500Y-134329500D01*
X154416250Y-134329500D01*
X154336750Y-134250000D01*
X153543250Y-134250000D01*
X153463750Y-134329500D01*
X153384500Y-134329500D01*
X153384500Y-134408750D01*
X153305000Y-134488250D01*
X153210000Y-134488250D01*
X153130500Y-134408750D01*
X153130500Y-134329500D01*
X153051250Y-134329500D01*
X152971750Y-134250000D01*
X152178250Y-134250000D01*
X152098750Y-134329500D01*
X152019500Y-134329500D01*
X152019500Y-134408750D01*
X151940000Y-134488250D01*
X151845000Y-134488250D01*
X151765500Y-134408750D01*
X151765500Y-134329500D01*
X151686250Y-134329500D01*
X151606750Y-134250000D01*
X150813250Y-134250000D01*
X150733750Y-134329500D01*
X150654500Y-134329500D01*
X150654500Y-134408750D01*
X150575000Y-134488250D01*
X150400500Y-134488250D01*
X150400500Y-134329500D01*
X150380500Y-134329500D01*
X150380500Y-134075500D01*
X150400500Y-134075500D01*
X150400500Y-133123250D01*
X150575000Y-133123250D01*
X150575000Y-133916750D01*
X150654500Y-133996250D01*
X150654500Y-134075500D01*
X150733750Y-134075500D01*
X150813250Y-134155000D01*
X151606750Y-134155000D01*
X151686250Y-134075500D01*
X151765500Y-134075500D01*
X151765500Y-133996250D01*
X151845000Y-133916750D01*
X151845000Y-133123250D01*
X151940000Y-133123250D01*
X151940000Y-133916750D01*
X152019500Y-133996250D01*
X152019500Y-134075500D01*
X152098750Y-134075500D01*
X152178250Y-134155000D01*
X152971750Y-134155000D01*
X153051250Y-134075500D01*
X153130500Y-134075500D01*
X153130500Y-133996250D01*
X153210000Y-133916750D01*
X153210000Y-133123250D01*
X153305000Y-133123250D01*
X153305000Y-133916750D01*
X153384500Y-133996250D01*
X153384500Y-134075500D01*
X153463750Y-134075500D01*
X153543250Y-134155000D01*
X154336750Y-134155000D01*
X154416250Y-134075500D01*
X154495500Y-134075500D01*
X154495500Y-133996250D01*
X154575000Y-133916750D01*
X154575000Y-133123250D01*
X154495500Y-133043750D01*
X154495500Y-132964500D01*
X154416250Y-132964500D01*
X154336750Y-132885000D01*
X153543250Y-132885000D01*
X153463750Y-132964500D01*
X153384500Y-132964500D01*
X153384500Y-133043750D01*
X153305000Y-133123250D01*
X153210000Y-133123250D01*
X153130500Y-133043750D01*
X153130500Y-132964500D01*
X153051250Y-132964500D01*
X152971750Y-132885000D01*
X152178250Y-132885000D01*
X152098750Y-132964500D01*
X152019500Y-132964500D01*
X152019500Y-133043750D01*
X151940000Y-133123250D01*
X151845000Y-133123250D01*
X151765500Y-133043750D01*
X151765500Y-132964500D01*
X151686250Y-132964500D01*
X151606750Y-132885000D01*
X150813250Y-132885000D01*
X150733750Y-132964500D01*
X150654500Y-132964500D01*
X150654500Y-133043750D01*
X150575000Y-133123250D01*
X150400500Y-133123250D01*
X150400500Y-132964500D01*
X150380500Y-132964500D01*
X150380500Y-132710500D01*
X150400500Y-132710500D01*
X150400500Y-132690500D01*
X150654500Y-132690500D01*
X150654500Y-132710500D01*
X150654500Y-132710500D01*
G37*
X150654500Y-132710500D02*
X151765500Y-132710500D01*
X151765500Y-132690500D01*
X152019500Y-132690500D01*
X152019500Y-132710500D01*
X153130500Y-132710500D01*
X153130500Y-132690500D01*
X153384500Y-132690500D01*
X153384500Y-132710500D01*
X154495500Y-132710500D01*
X154495500Y-132690500D01*
X154749500Y-132690500D01*
X154749500Y-132710500D01*
X154769500Y-132710500D01*
X154769500Y-132964500D01*
X154749500Y-132964500D01*
X154749500Y-134075500D01*
X154769500Y-134075500D01*
X154769500Y-134329500D01*
X154749500Y-134329500D01*
X154749500Y-135440500D01*
X154769500Y-135440500D01*
X154769500Y-135694500D01*
X154749500Y-135694500D01*
X154749500Y-136805500D01*
X154769500Y-136805500D01*
X154769500Y-137059500D01*
X154749500Y-137059500D01*
X154749500Y-137079500D01*
X154495500Y-137079500D01*
X154495500Y-137059500D01*
X153384500Y-137059500D01*
X153384500Y-137079500D01*
X153130500Y-137079500D01*
X153130500Y-137059500D01*
X152019500Y-137059500D01*
X152019500Y-137079500D01*
X151765500Y-137079500D01*
X151765500Y-137059500D01*
X150654500Y-137059500D01*
X150654500Y-137079500D01*
X150400500Y-137079500D01*
X150400500Y-137059500D01*
X150380500Y-137059500D01*
X150380500Y-136805500D01*
X150400500Y-136805500D01*
X150400500Y-135853250D01*
X150575000Y-135853250D01*
X150575000Y-136646750D01*
X150654500Y-136726250D01*
X150654500Y-136805500D01*
X150733750Y-136805500D01*
X150813250Y-136885000D01*
X151606750Y-136885000D01*
X151686250Y-136805500D01*
X151765500Y-136805500D01*
X151765500Y-136726250D01*
X151845000Y-136646750D01*
X151845000Y-135853250D01*
X151940000Y-135853250D01*
X151940000Y-136646750D01*
X152019500Y-136726250D01*
X152019500Y-136805500D01*
X152098750Y-136805500D01*
X152178250Y-136885000D01*
X152971750Y-136885000D01*
X153051250Y-136805500D01*
X153130500Y-136805500D01*
X153130500Y-136726250D01*
X153210000Y-136646750D01*
X153210000Y-135853250D01*
X153305000Y-135853250D01*
X153305000Y-136646750D01*
X153384500Y-136726250D01*
X153384500Y-136805500D01*
X153463750Y-136805500D01*
X153543250Y-136885000D01*
X154336750Y-136885000D01*
X154416250Y-136805500D01*
X154495500Y-136805500D01*
X154495500Y-136726250D01*
X154575000Y-136646750D01*
X154575000Y-135853250D01*
X154495500Y-135773750D01*
X154495500Y-135694500D01*
X154416250Y-135694500D01*
X154336750Y-135615000D01*
X153543250Y-135615000D01*
X153463750Y-135694500D01*
X153384500Y-135694500D01*
X153384500Y-135773750D01*
X153305000Y-135853250D01*
X153210000Y-135853250D01*
X153130500Y-135773750D01*
X153130500Y-135694500D01*
X153051250Y-135694500D01*
X152971750Y-135615000D01*
X152178250Y-135615000D01*
X152098750Y-135694500D01*
X152019500Y-135694500D01*
X152019500Y-135773750D01*
X151940000Y-135853250D01*
X151845000Y-135853250D01*
X151765500Y-135773750D01*
X151765500Y-135694500D01*
X151686250Y-135694500D01*
X151606750Y-135615000D01*
X150813250Y-135615000D01*
X150733750Y-135694500D01*
X150654500Y-135694500D01*
X150654500Y-135773750D01*
X150575000Y-135853250D01*
X150400500Y-135853250D01*
X150400500Y-135694500D01*
X150380500Y-135694500D01*
X150380500Y-135440500D01*
X150400500Y-135440500D01*
X150400500Y-134488250D01*
X150575000Y-134488250D01*
X150575000Y-135281750D01*
X150654500Y-135361250D01*
X150654500Y-135440500D01*
X150733750Y-135440500D01*
X150813250Y-135520000D01*
X151606750Y-135520000D01*
X151686250Y-135440500D01*
X151765500Y-135440500D01*
X151765500Y-135361250D01*
X151845000Y-135281750D01*
X151845000Y-134488250D01*
X151940000Y-134488250D01*
X151940000Y-135281750D01*
X152019500Y-135361250D01*
X152019500Y-135440500D01*
X152098750Y-135440500D01*
X152178250Y-135520000D01*
X152971750Y-135520000D01*
X153051250Y-135440500D01*
X153130500Y-135440500D01*
X153130500Y-135361250D01*
X153210000Y-135281750D01*
X153210000Y-134488250D01*
X153305000Y-134488250D01*
X153305000Y-135281750D01*
X153384500Y-135361250D01*
X153384500Y-135440500D01*
X153463750Y-135440500D01*
X153543250Y-135520000D01*
X154336750Y-135520000D01*
X154416250Y-135440500D01*
X154495500Y-135440500D01*
X154495500Y-135361250D01*
X154575000Y-135281750D01*
X154575000Y-134488250D01*
X154495500Y-134408750D01*
X154495500Y-134329500D01*
X154416250Y-134329500D01*
X154336750Y-134250000D01*
X153543250Y-134250000D01*
X153463750Y-134329500D01*
X153384500Y-134329500D01*
X153384500Y-134408750D01*
X153305000Y-134488250D01*
X153210000Y-134488250D01*
X153130500Y-134408750D01*
X153130500Y-134329500D01*
X153051250Y-134329500D01*
X152971750Y-134250000D01*
X152178250Y-134250000D01*
X152098750Y-134329500D01*
X152019500Y-134329500D01*
X152019500Y-134408750D01*
X151940000Y-134488250D01*
X151845000Y-134488250D01*
X151765500Y-134408750D01*
X151765500Y-134329500D01*
X151686250Y-134329500D01*
X151606750Y-134250000D01*
X150813250Y-134250000D01*
X150733750Y-134329500D01*
X150654500Y-134329500D01*
X150654500Y-134408750D01*
X150575000Y-134488250D01*
X150400500Y-134488250D01*
X150400500Y-134329500D01*
X150380500Y-134329500D01*
X150380500Y-134075500D01*
X150400500Y-134075500D01*
X150400500Y-133123250D01*
X150575000Y-133123250D01*
X150575000Y-133916750D01*
X150654500Y-133996250D01*
X150654500Y-134075500D01*
X150733750Y-134075500D01*
X150813250Y-134155000D01*
X151606750Y-134155000D01*
X151686250Y-134075500D01*
X151765500Y-134075500D01*
X151765500Y-133996250D01*
X151845000Y-133916750D01*
X151845000Y-133123250D01*
X151940000Y-133123250D01*
X151940000Y-133916750D01*
X152019500Y-133996250D01*
X152019500Y-134075500D01*
X152098750Y-134075500D01*
X152178250Y-134155000D01*
X152971750Y-134155000D01*
X153051250Y-134075500D01*
X153130500Y-134075500D01*
X153130500Y-133996250D01*
X153210000Y-133916750D01*
X153210000Y-133123250D01*
X153305000Y-133123250D01*
X153305000Y-133916750D01*
X153384500Y-133996250D01*
X153384500Y-134075500D01*
X153463750Y-134075500D01*
X153543250Y-134155000D01*
X154336750Y-134155000D01*
X154416250Y-134075500D01*
X154495500Y-134075500D01*
X154495500Y-133996250D01*
X154575000Y-133916750D01*
X154575000Y-133123250D01*
X154495500Y-133043750D01*
X154495500Y-132964500D01*
X154416250Y-132964500D01*
X154336750Y-132885000D01*
X153543250Y-132885000D01*
X153463750Y-132964500D01*
X153384500Y-132964500D01*
X153384500Y-133043750D01*
X153305000Y-133123250D01*
X153210000Y-133123250D01*
X153130500Y-133043750D01*
X153130500Y-132964500D01*
X153051250Y-132964500D01*
X152971750Y-132885000D01*
X152178250Y-132885000D01*
X152098750Y-132964500D01*
X152019500Y-132964500D01*
X152019500Y-133043750D01*
X151940000Y-133123250D01*
X151845000Y-133123250D01*
X151765500Y-133043750D01*
X151765500Y-132964500D01*
X151686250Y-132964500D01*
X151606750Y-132885000D01*
X150813250Y-132885000D01*
X150733750Y-132964500D01*
X150654500Y-132964500D01*
X150654500Y-133043750D01*
X150575000Y-133123250D01*
X150400500Y-133123250D01*
X150400500Y-132964500D01*
X150380500Y-132964500D01*
X150380500Y-132710500D01*
X150400500Y-132710500D01*
X150400500Y-132690500D01*
X150654500Y-132690500D01*
X150654500Y-132710500D01*
G36*
X145542000Y-135763000D02*
X145562000Y-135763000D01*
X145562000Y-136017000D01*
X145542000Y-136017000D01*
X145542000Y-136037000D01*
X145288000Y-136037000D01*
X145288000Y-136017000D01*
X145268000Y-136017000D01*
X145268000Y-135763000D01*
X145288000Y-135763000D01*
X145288000Y-135743000D01*
X145542000Y-135743000D01*
X145542000Y-135763000D01*
X145542000Y-135763000D01*
G37*
X145542000Y-135763000D02*
X145562000Y-135763000D01*
X145562000Y-136017000D01*
X145542000Y-136017000D01*
X145542000Y-136037000D01*
X145288000Y-136037000D01*
X145288000Y-136017000D01*
X145268000Y-136017000D01*
X145268000Y-135763000D01*
X145288000Y-135763000D01*
X145288000Y-135743000D01*
X145542000Y-135743000D01*
X145542000Y-135763000D01*
G36*
X163891500Y-127545250D02*
X164050250Y-127704000D01*
X164142809Y-127704000D01*
X164376198Y-127607327D01*
X164546642Y-127436884D01*
X164600410Y-127520441D01*
X164670239Y-127568153D01*
X164434808Y-127803173D01*
X164292162Y-128146701D01*
X164292121Y-128193577D01*
X163165599Y-129320099D01*
X163000852Y-129566661D01*
X162943000Y-129857500D01*
X162943000Y-134693200D01*
X161417002Y-133167202D01*
X161417002Y-133156252D01*
X161575750Y-133315000D01*
X162266310Y-133315000D01*
X162499699Y-133218327D01*
X162678327Y-133039698D01*
X162775000Y-132806309D01*
X162775000Y-132365750D01*
X162616250Y-132207000D01*
X161417000Y-132207000D01*
X161417000Y-132227000D01*
X161163000Y-132227000D01*
X161163000Y-132207000D01*
X161143000Y-132207000D01*
X161143000Y-131953000D01*
X161163000Y-131953000D01*
X161163000Y-131933000D01*
X161417000Y-131933000D01*
X161417000Y-131953000D01*
X162616250Y-131953000D01*
X162775000Y-131794250D01*
X162775000Y-131353691D01*
X162678327Y-131120302D01*
X162585519Y-131027494D01*
X162800543Y-130705688D01*
X162925001Y-130080000D01*
X162800543Y-129454313D01*
X162451499Y-128931931D01*
X162451499Y-127716440D01*
X162516500Y-127716440D01*
X162751817Y-127672162D01*
X162967941Y-127533090D01*
X163014469Y-127464994D01*
X163156802Y-127607327D01*
X163390191Y-127704000D01*
X163482750Y-127704000D01*
X163641500Y-127545250D01*
X163641500Y-127177248D01*
X163796692Y-127022327D01*
X163891500Y-126794005D01*
X163891500Y-127545250D01*
X163891500Y-127545250D01*
G37*
X163891500Y-127545250D02*
X164050250Y-127704000D01*
X164142809Y-127704000D01*
X164376198Y-127607327D01*
X164546642Y-127436884D01*
X164600410Y-127520441D01*
X164670239Y-127568153D01*
X164434808Y-127803173D01*
X164292162Y-128146701D01*
X164292121Y-128193577D01*
X163165599Y-129320099D01*
X163000852Y-129566661D01*
X162943000Y-129857500D01*
X162943000Y-134693200D01*
X161417002Y-133167202D01*
X161417002Y-133156252D01*
X161575750Y-133315000D01*
X162266310Y-133315000D01*
X162499699Y-133218327D01*
X162678327Y-133039698D01*
X162775000Y-132806309D01*
X162775000Y-132365750D01*
X162616250Y-132207000D01*
X161417000Y-132207000D01*
X161417000Y-132227000D01*
X161163000Y-132227000D01*
X161163000Y-132207000D01*
X161143000Y-132207000D01*
X161143000Y-131953000D01*
X161163000Y-131953000D01*
X161163000Y-131933000D01*
X161417000Y-131933000D01*
X161417000Y-131953000D01*
X162616250Y-131953000D01*
X162775000Y-131794250D01*
X162775000Y-131353691D01*
X162678327Y-131120302D01*
X162585519Y-131027494D01*
X162800543Y-130705688D01*
X162925001Y-130080000D01*
X162800543Y-129454313D01*
X162451499Y-128931931D01*
X162451499Y-127716440D01*
X162516500Y-127716440D01*
X162751817Y-127672162D01*
X162967941Y-127533090D01*
X163014469Y-127464994D01*
X163156802Y-127607327D01*
X163390191Y-127704000D01*
X163482750Y-127704000D01*
X163641500Y-127545250D01*
X163641500Y-127177248D01*
X163796692Y-127022327D01*
X163891500Y-126794005D01*
X163891500Y-127545250D01*
G36*
X114925000Y-132548552D02*
X114982852Y-132839391D01*
X115147599Y-133085953D01*
X116216858Y-134155212D01*
X116199141Y-134172929D01*
X112968712Y-130942500D01*
X113049309Y-130942500D01*
X113282698Y-130845827D01*
X113423936Y-130704590D01*
X113458910Y-130758941D01*
X113671110Y-130903931D01*
X113923000Y-130954940D01*
X114423000Y-130954940D01*
X114658317Y-130910662D01*
X114874441Y-130771590D01*
X114925000Y-130697594D01*
X114925000Y-132548552D01*
X114925000Y-132548552D01*
G37*
X114925000Y-132548552D02*
X114982852Y-132839391D01*
X115147599Y-133085953D01*
X116216858Y-134155212D01*
X116199141Y-134172929D01*
X112968712Y-130942500D01*
X113049309Y-130942500D01*
X113282698Y-130845827D01*
X113423936Y-130704590D01*
X113458910Y-130758941D01*
X113671110Y-130903931D01*
X113923000Y-130954940D01*
X114423000Y-130954940D01*
X114658317Y-130910662D01*
X114874441Y-130771590D01*
X114925000Y-130697594D01*
X114925000Y-132548552D01*
G36*
X143142000Y-133863000D02*
X143162000Y-133863000D01*
X143162000Y-134117000D01*
X143142000Y-134117000D01*
X143142000Y-134137000D01*
X142888000Y-134137000D01*
X142888000Y-134117000D01*
X142868000Y-134117000D01*
X142868000Y-133863000D01*
X142888000Y-133863000D01*
X142888000Y-133843000D01*
X143142000Y-133843000D01*
X143142000Y-133863000D01*
X143142000Y-133863000D01*
G37*
X143142000Y-133863000D02*
X143162000Y-133863000D01*
X143162000Y-134117000D01*
X143142000Y-134117000D01*
X143142000Y-134137000D01*
X142888000Y-134137000D01*
X142888000Y-134117000D01*
X142868000Y-134117000D01*
X142868000Y-133863000D01*
X142888000Y-133863000D01*
X142888000Y-133843000D01*
X143142000Y-133843000D01*
X143142000Y-133863000D01*
G36*
X143407000Y-131953000D02*
X143427000Y-131953000D01*
X143427000Y-132207000D01*
X143407000Y-132207000D01*
X143407000Y-132227000D01*
X143256461Y-132227000D01*
X143210880Y-132116685D01*
X143133000Y-132038669D01*
X143133000Y-131953000D01*
X143153000Y-131953000D01*
X143153000Y-131933000D01*
X143407000Y-131933000D01*
X143407000Y-131953000D01*
X143407000Y-131953000D01*
G37*
X143407000Y-131953000D02*
X143427000Y-131953000D01*
X143427000Y-132207000D01*
X143407000Y-132207000D01*
X143407000Y-132227000D01*
X143256461Y-132227000D01*
X143210880Y-132116685D01*
X143133000Y-132038669D01*
X143133000Y-131953000D01*
X143153000Y-131953000D01*
X143153000Y-131933000D01*
X143407000Y-131933000D01*
X143407000Y-131953000D01*
G36*
X157508110Y-129901431D02*
X157760000Y-129952440D01*
X158660000Y-129952440D01*
X158895317Y-129908162D01*
X159003929Y-129838272D01*
X159007701Y-129839838D01*
X159227951Y-129840030D01*
X159305956Y-130232187D01*
X159325208Y-130260999D01*
X157614001Y-130260999D01*
X157323162Y-130318851D01*
X157290026Y-130340992D01*
X157307440Y-130255000D01*
X157307440Y-129764319D01*
X157508110Y-129901431D01*
X157508110Y-129901431D01*
G37*
X157508110Y-129901431D02*
X157760000Y-129952440D01*
X158660000Y-129952440D01*
X158895317Y-129908162D01*
X159003929Y-129838272D01*
X159007701Y-129839838D01*
X159227951Y-129840030D01*
X159305956Y-130232187D01*
X159325208Y-130260999D01*
X157614001Y-130260999D01*
X157323162Y-130318851D01*
X157290026Y-130340992D01*
X157307440Y-130255000D01*
X157307440Y-129764319D01*
X157508110Y-129901431D01*
G36*
X121540006Y-128156692D02*
X121411683Y-128180838D01*
X121308354Y-128247329D01*
X121306698Y-128245673D01*
X121073309Y-128149000D01*
X120832750Y-128149000D01*
X120674000Y-128307750D01*
X120674000Y-129032000D01*
X120694000Y-129032000D01*
X120694000Y-129286000D01*
X120674000Y-129286000D01*
X120674000Y-129306000D01*
X120420000Y-129306000D01*
X120420000Y-129286000D01*
X120400000Y-129286000D01*
X120400000Y-129032000D01*
X120420000Y-129032000D01*
X120420000Y-128307750D01*
X120261250Y-128149000D01*
X120020691Y-128149000D01*
X119787302Y-128245673D01*
X119608673Y-128424301D01*
X119512000Y-128657690D01*
X119512000Y-128873250D01*
X119646502Y-129007752D01*
X119563810Y-128973500D01*
X119348250Y-128973500D01*
X119189500Y-129132250D01*
X119189500Y-129881500D01*
X119209500Y-129881500D01*
X119209500Y-130135500D01*
X119189500Y-130135500D01*
X119189500Y-130155500D01*
X118935500Y-130155500D01*
X118935500Y-130135500D01*
X118915500Y-130135500D01*
X118915500Y-129881500D01*
X118935500Y-129881500D01*
X118935500Y-129132250D01*
X118805802Y-129002552D01*
X119798354Y-128010000D01*
X121686698Y-128010000D01*
X121540006Y-128156692D01*
X121540006Y-128156692D01*
G37*
X121540006Y-128156692D02*
X121411683Y-128180838D01*
X121308354Y-128247329D01*
X121306698Y-128245673D01*
X121073309Y-128149000D01*
X120832750Y-128149000D01*
X120674000Y-128307750D01*
X120674000Y-129032000D01*
X120694000Y-129032000D01*
X120694000Y-129286000D01*
X120674000Y-129286000D01*
X120674000Y-129306000D01*
X120420000Y-129306000D01*
X120420000Y-129286000D01*
X120400000Y-129286000D01*
X120400000Y-129032000D01*
X120420000Y-129032000D01*
X120420000Y-128307750D01*
X120261250Y-128149000D01*
X120020691Y-128149000D01*
X119787302Y-128245673D01*
X119608673Y-128424301D01*
X119512000Y-128657690D01*
X119512000Y-128873250D01*
X119646502Y-129007752D01*
X119563810Y-128973500D01*
X119348250Y-128973500D01*
X119189500Y-129132250D01*
X119189500Y-129881500D01*
X119209500Y-129881500D01*
X119209500Y-130135500D01*
X119189500Y-130135500D01*
X119189500Y-130155500D01*
X118935500Y-130155500D01*
X118935500Y-130135500D01*
X118915500Y-130135500D01*
X118915500Y-129881500D01*
X118935500Y-129881500D01*
X118935500Y-129132250D01*
X118805802Y-129002552D01*
X119798354Y-128010000D01*
X121686698Y-128010000D01*
X121540006Y-128156692D01*
G36*
X112798000Y-129730500D02*
X112820000Y-129730500D01*
X112820000Y-129984500D01*
X112798000Y-129984500D01*
X112798000Y-130004500D01*
X112548000Y-130004500D01*
X112548000Y-129984500D01*
X112526000Y-129984500D01*
X112526000Y-129730500D01*
X112548000Y-129730500D01*
X112548000Y-129710500D01*
X112798000Y-129710500D01*
X112798000Y-129730500D01*
X112798000Y-129730500D01*
G37*
X112798000Y-129730500D02*
X112820000Y-129730500D01*
X112820000Y-129984500D01*
X112798000Y-129984500D01*
X112798000Y-130004500D01*
X112548000Y-130004500D01*
X112548000Y-129984500D01*
X112526000Y-129984500D01*
X112526000Y-129730500D01*
X112548000Y-129730500D01*
X112548000Y-129710500D01*
X112798000Y-129710500D01*
X112798000Y-129730500D01*
G36*
X111635599Y-128489901D02*
X111814498Y-128609438D01*
X111819838Y-128637817D01*
X111958910Y-128853941D01*
X112029976Y-128902499D01*
X111884673Y-129047801D01*
X111788000Y-129281190D01*
X111788000Y-129571750D01*
X111946748Y-129730498D01*
X111788000Y-129730498D01*
X111788000Y-129761788D01*
X110865000Y-128838788D01*
X110865000Y-127719302D01*
X111635599Y-128489901D01*
X111635599Y-128489901D01*
G37*
X111635599Y-128489901D02*
X111814498Y-128609438D01*
X111819838Y-128637817D01*
X111958910Y-128853941D01*
X112029976Y-128902499D01*
X111884673Y-129047801D01*
X111788000Y-129281190D01*
X111788000Y-129571750D01*
X111946748Y-129730498D01*
X111788000Y-129730498D01*
X111788000Y-129761788D01*
X110865000Y-128838788D01*
X110865000Y-127719302D01*
X111635599Y-128489901D01*
G36*
X159181499Y-127838738D02*
X159181499Y-127969988D01*
X159009333Y-127969838D01*
X159004489Y-127971839D01*
X158911890Y-127908569D01*
X158660000Y-127857560D01*
X157760000Y-127857560D01*
X157524683Y-127901838D01*
X157308559Y-128040910D01*
X157307440Y-128042548D01*
X157307440Y-127932362D01*
X157535480Y-127704322D01*
X157627943Y-127666117D01*
X157891192Y-127403327D01*
X158033838Y-127059799D01*
X158034159Y-126691399D01*
X159181499Y-127838738D01*
X159181499Y-127838738D01*
G37*
X159181499Y-127838738D02*
X159181499Y-127969988D01*
X159009333Y-127969838D01*
X159004489Y-127971839D01*
X158911890Y-127908569D01*
X158660000Y-127857560D01*
X157760000Y-127857560D01*
X157524683Y-127901838D01*
X157308559Y-128040910D01*
X157307440Y-128042548D01*
X157307440Y-127932362D01*
X157535480Y-127704322D01*
X157627943Y-127666117D01*
X157891192Y-127403327D01*
X158033838Y-127059799D01*
X158034159Y-126691399D01*
X159181499Y-127838738D01*
G36*
X117870910Y-126396441D02*
X118083110Y-126541431D01*
X118270005Y-126579278D01*
X118309313Y-126605543D01*
X118339999Y-126611647D01*
X116945000Y-128006646D01*
X116945000Y-127609802D01*
X117472401Y-127082401D01*
X117637148Y-126835840D01*
X117695000Y-126545000D01*
X117695000Y-126323059D01*
X117784996Y-126262926D01*
X117870910Y-126396441D01*
X117870910Y-126396441D01*
G37*
X117870910Y-126396441D02*
X118083110Y-126541431D01*
X118270005Y-126579278D01*
X118309313Y-126605543D01*
X118339999Y-126611647D01*
X116945000Y-128006646D01*
X116945000Y-127609802D01*
X117472401Y-127082401D01*
X117637148Y-126835840D01*
X117695000Y-126545000D01*
X117695000Y-126323059D01*
X117784996Y-126262926D01*
X117870910Y-126396441D01*
G36*
X156694618Y-123699377D02*
X156555213Y-123659392D01*
X155754605Y-124460000D01*
X156555213Y-125260608D01*
X156694618Y-125220623D01*
X156958880Y-125616120D01*
X157280918Y-125938158D01*
X156913833Y-125937838D01*
X156570057Y-126079883D01*
X156306808Y-126342673D01*
X156164162Y-126686201D01*
X156163969Y-126907560D01*
X155760000Y-126907560D01*
X155524683Y-126951838D01*
X155384001Y-127042364D01*
X155384001Y-126049001D01*
X155346768Y-125861818D01*
X155367302Y-125869144D01*
X155922368Y-125841362D01*
X156306143Y-125682397D01*
X156375608Y-125440213D01*
X155575000Y-124639605D01*
X155560858Y-124653748D01*
X155381253Y-124474143D01*
X155395395Y-124460000D01*
X155381253Y-124445858D01*
X155560858Y-124266253D01*
X155575000Y-124280395D01*
X156375608Y-123479787D01*
X156364770Y-123442000D01*
X156866591Y-123442000D01*
X156694618Y-123699377D01*
X156694618Y-123699377D01*
G37*
X156694618Y-123699377D02*
X156555213Y-123659392D01*
X155754605Y-124460000D01*
X156555213Y-125260608D01*
X156694618Y-125220623D01*
X156958880Y-125616120D01*
X157280918Y-125938158D01*
X156913833Y-125937838D01*
X156570057Y-126079883D01*
X156306808Y-126342673D01*
X156164162Y-126686201D01*
X156163969Y-126907560D01*
X155760000Y-126907560D01*
X155524683Y-126951838D01*
X155384001Y-127042364D01*
X155384001Y-126049001D01*
X155346768Y-125861818D01*
X155367302Y-125869144D01*
X155922368Y-125841362D01*
X156306143Y-125682397D01*
X156375608Y-125440213D01*
X155575000Y-124639605D01*
X155560858Y-124653748D01*
X155381253Y-124474143D01*
X155395395Y-124460000D01*
X155381253Y-124445858D01*
X155560858Y-124266253D01*
X155575000Y-124280395D01*
X156375608Y-123479787D01*
X156364770Y-123442000D01*
X156866591Y-123442000D01*
X156694618Y-123699377D01*
G36*
X112105875Y-123913067D02*
X111812353Y-124301299D01*
X111689744Y-124772304D01*
X111852453Y-124968000D01*
X112808000Y-124968000D01*
X112808000Y-124948000D01*
X113062000Y-124948000D01*
X113062000Y-124968000D01*
X113082000Y-124968000D01*
X113082000Y-125222000D01*
X113062000Y-125222000D01*
X113062000Y-126413731D01*
X113252609Y-126538462D01*
X113344376Y-126523286D01*
X113377345Y-126503936D01*
X113301662Y-126686201D01*
X113301395Y-126992506D01*
X113174890Y-126906069D01*
X112923000Y-126855060D01*
X112423000Y-126855060D01*
X112193538Y-126898236D01*
X111560000Y-126264698D01*
X111560000Y-125417696D01*
X111689744Y-125417696D01*
X111812353Y-125888701D01*
X112105875Y-126276933D01*
X112525624Y-126523286D01*
X112617391Y-126538462D01*
X112808000Y-126413731D01*
X112808000Y-125222000D01*
X111852453Y-125222000D01*
X111689744Y-125417696D01*
X111560000Y-125417696D01*
X111560000Y-123905000D01*
X112119620Y-123905000D01*
X112105875Y-123913067D01*
X112105875Y-123913067D01*
G37*
X112105875Y-123913067D02*
X111812353Y-124301299D01*
X111689744Y-124772304D01*
X111852453Y-124968000D01*
X112808000Y-124968000D01*
X112808000Y-124948000D01*
X113062000Y-124948000D01*
X113062000Y-124968000D01*
X113082000Y-124968000D01*
X113082000Y-125222000D01*
X113062000Y-125222000D01*
X113062000Y-126413731D01*
X113252609Y-126538462D01*
X113344376Y-126523286D01*
X113377345Y-126503936D01*
X113301662Y-126686201D01*
X113301395Y-126992506D01*
X113174890Y-126906069D01*
X112923000Y-126855060D01*
X112423000Y-126855060D01*
X112193538Y-126898236D01*
X111560000Y-126264698D01*
X111560000Y-125417696D01*
X111689744Y-125417696D01*
X111812353Y-125888701D01*
X112105875Y-126276933D01*
X112525624Y-126523286D01*
X112617391Y-126538462D01*
X112808000Y-126413731D01*
X112808000Y-125222000D01*
X111852453Y-125222000D01*
X111689744Y-125417696D01*
X111560000Y-125417696D01*
X111560000Y-123905000D01*
X112119620Y-123905000D01*
X112105875Y-123913067D01*
G36*
X123535875Y-123913067D02*
X123242353Y-124301299D01*
X123119744Y-124772304D01*
X123282453Y-124968000D01*
X124238000Y-124968000D01*
X124238000Y-124948000D01*
X124492000Y-124948000D01*
X124492000Y-124968000D01*
X124512000Y-124968000D01*
X124512000Y-125222000D01*
X124492000Y-125222000D01*
X124492000Y-125242000D01*
X124238000Y-125242000D01*
X124238000Y-125222000D01*
X123282453Y-125222000D01*
X123119744Y-125417696D01*
X123242353Y-125888701D01*
X123318940Y-125990000D01*
X120265594Y-125990000D01*
X120445543Y-125720687D01*
X120570000Y-125095000D01*
X120570000Y-124027240D01*
X120692239Y-123905000D01*
X123549620Y-123905000D01*
X123535875Y-123913067D01*
X123535875Y-123913067D01*
G37*
X123535875Y-123913067D02*
X123242353Y-124301299D01*
X123119744Y-124772304D01*
X123282453Y-124968000D01*
X124238000Y-124968000D01*
X124238000Y-124948000D01*
X124492000Y-124948000D01*
X124492000Y-124968000D01*
X124512000Y-124968000D01*
X124512000Y-125222000D01*
X124492000Y-125222000D01*
X124492000Y-125242000D01*
X124238000Y-125242000D01*
X124238000Y-125222000D01*
X123282453Y-125222000D01*
X123119744Y-125417696D01*
X123242353Y-125888701D01*
X123318940Y-125990000D01*
X120265594Y-125990000D01*
X120445543Y-125720687D01*
X120570000Y-125095000D01*
X120570000Y-124027240D01*
X120692239Y-123905000D01*
X123549620Y-123905000D01*
X123535875Y-123913067D01*
D42*
X166370000Y-117729000D03*
X137765000Y-135125000D03*
X138635000Y-135925000D03*
X125412500Y-145605500D03*
X110998000Y-148653500D03*
X110172500Y-149542500D03*
X109601000Y-150558500D03*
X110744000Y-144716500D03*
X109791500Y-145351500D03*
X109410500Y-143637000D03*
X108712000Y-142494000D03*
X108077000Y-141668500D03*
X110045500Y-136906000D03*
X109537500Y-136017000D03*
X109601000Y-134493000D03*
X109728000Y-130619500D03*
X110934500Y-131889500D03*
X112268000Y-133096000D03*
X142303500Y-145351500D03*
X140208000Y-145669000D03*
X137160000Y-145542000D03*
X134810500Y-145669000D03*
X134810500Y-147320000D03*
X132905500Y-147510500D03*
X132588000Y-146431000D03*
X131318000Y-145034000D03*
X129222500Y-144780000D03*
X116713000Y-131953000D03*
X116713000Y-130810000D03*
X116903500Y-127762000D03*
X117792500Y-126936500D03*
X121666000Y-125158500D03*
X120904000Y-124396500D03*
X120713500Y-125793500D03*
X158686500Y-127508000D03*
X142113000Y-149733000D03*
X145415000Y-149733000D03*
X147637500Y-149733000D03*
X158242000Y-148907500D03*
X158242000Y-146177000D03*
X114744500Y-153987500D03*
X121221500Y-153987500D03*
X129857500Y-153987500D03*
X137731500Y-153987500D03*
X146431000Y-153987500D03*
X154241500Y-153987500D03*
X160274000Y-153987500D03*
X167005000Y-153987500D03*
X168402000Y-150558500D03*
X168402000Y-146748500D03*
X168402000Y-141541500D03*
X168402000Y-136652000D03*
X168402000Y-130873500D03*
X168402000Y-125730000D03*
X168402000Y-121539000D03*
X161734500Y-117538500D03*
X156146500Y-117475000D03*
X150812500Y-117665500D03*
X102425500Y-152527000D03*
X102425500Y-148336000D03*
X102425500Y-141859000D03*
X102425500Y-136906000D03*
X102425500Y-131572000D03*
X102425500Y-126619000D03*
X102425500Y-121729500D03*
X105346500Y-117665500D03*
X112839500Y-117729000D03*
X120967500Y-117729000D03*
X128397000Y-117729000D03*
X136398000Y-117538500D03*
X142113000Y-117602000D03*
X146304000Y-117729000D03*
X119507000Y-128460500D03*
X121602500Y-128016000D03*
X120713500Y-128079500D03*
X130619500Y-137985500D03*
X130683000Y-136906000D03*
X134302500Y-137541000D03*
X136398000Y-137795000D03*
X135318500Y-137668000D03*
X114871500Y-144907000D03*
X117729000Y-144272000D03*
X119316500Y-144272000D03*
X120586500Y-144272000D03*
X111125000Y-127825500D03*
X110871000Y-128714500D03*
X111696500Y-129349500D03*
X116014500Y-136842500D03*
X115189000Y-136398000D03*
X117411500Y-138176000D03*
X116649500Y-138176000D03*
X115443000Y-138176000D03*
X120332500Y-140208000D03*
X152146000Y-125539500D03*
X148590000Y-124269500D03*
X151130000Y-127063500D03*
X157543500Y-143827500D03*
X150749000Y-143129000D03*
X143879998Y-137668000D03*
X144040930Y-131337532D03*
X145669000Y-140081000D03*
X153257500Y-135567500D03*
X153257500Y-134202500D03*
X151892500Y-134202500D03*
X151892500Y-135567500D03*
X124236250Y-136233750D03*
X126073750Y-136233750D03*
X126073750Y-134396250D03*
X124236250Y-134396250D03*
X120269000Y-130492500D03*
X140398500Y-130810000D03*
X139954000Y-130365500D03*
X135255000Y-133223000D03*
X135255000Y-133794500D03*
X110807500Y-134175500D03*
X110807500Y-135064500D03*
X110807500Y-136080500D03*
X126047500Y-141859000D03*
X123190000Y-141732000D03*
X118396101Y-135690009D03*
X132588000Y-136969500D03*
X132588000Y-137858500D03*
X132588000Y-138874500D03*
X129667000Y-127825500D03*
X128397000Y-127825500D03*
X127254000Y-127825500D03*
X141859000Y-137731500D03*
X141859000Y-138557000D03*
X141859000Y-139382500D03*
X150495000Y-128270000D03*
X150495000Y-129794000D03*
X163004500Y-126492000D03*
X152971500Y-126238000D03*
X156845000Y-135890000D03*
X154940000Y-130175000D03*
X147837990Y-132715000D03*
X147320000Y-130810000D03*
X148590000Y-130810000D03*
X165290500Y-152908000D03*
X166243000Y-122364500D03*
X149606000Y-127508000D03*
X149606000Y-129667000D03*
X156273500Y-147447000D03*
X161226500Y-119824500D03*
X165227000Y-128333500D03*
X163703000Y-144780000D03*
X156527500Y-139763500D03*
X160210500Y-121412000D03*
X158750000Y-143954500D03*
X158750000Y-139446000D03*
X157543500Y-139446000D03*
X155448000Y-139954000D03*
X151906126Y-126869469D03*
X162941000Y-150622000D03*
X167068500Y-150050500D03*
X166306500Y-118999000D03*
X150050500Y-124396500D03*
X152644057Y-128488536D03*
X153606500Y-129995502D03*
X155003500Y-145097500D03*
X148717000Y-145097500D03*
X148717000Y-138303000D03*
X157099000Y-126873000D03*
X154940000Y-139065000D03*
X159489989Y-132063785D03*
X159194500Y-128905000D03*
X123397011Y-129497212D03*
X132143500Y-123761500D03*
X132207000Y-121348500D03*
X149479000Y-139192000D03*
X114236500Y-126873000D03*
X124841000Y-129476500D03*
X127508000Y-129105490D03*
X125883848Y-129743764D03*
X130302000Y-129286000D03*
X123132527Y-128713644D03*
X130429000Y-126746000D03*
X113411000Y-142875000D03*
X119850879Y-138641696D03*
X156210000Y-143510000D03*
X159385000Y-133985000D03*
X126480020Y-141160500D03*
X127780012Y-141160500D03*
X148463000Y-132143500D03*
X143002000Y-130111500D03*
X140271500Y-137414000D03*
X138112500Y-137985500D03*
X139836990Y-133115360D03*
X136652000Y-133096000D03*
X141668500Y-130492500D03*
X142417763Y-132645628D03*
X144018000Y-138620500D03*
X148399500Y-136779000D03*
X161290000Y-132080000D03*
X161290000Y-130080000D03*
X107950000Y-122270000D03*
X107950000Y-124270000D03*
X107950000Y-126270000D03*
X107950000Y-128270000D03*
X107950000Y-133795000D03*
X107950000Y-135795000D03*
X107950000Y-137795000D03*
X107950000Y-139795000D03*
X118935000Y-125095000D03*
X116935000Y-125095000D03*
X114935000Y-125095000D03*
X112935000Y-125095000D03*
X124460000Y-147320000D03*
X126460000Y-147320000D03*
X128460000Y-147320000D03*
X130460000Y-147320000D03*
X107950000Y-145225000D03*
X107950000Y-147225000D03*
X107950000Y-149225000D03*
X107950000Y-151225000D03*
X113030000Y-147320000D03*
X115030000Y-147320000D03*
X117030000Y-147320000D03*
X119030000Y-147320000D03*
X130365000Y-125095000D03*
X128365000Y-125095000D03*
X126365000Y-125095000D03*
X124365000Y-125095000D03*
X146335000Y-125095000D03*
X144335000Y-125095000D03*
X142335000Y-125095000D03*
X140335000Y-125095000D03*
X138335000Y-125095000D03*
X136335000Y-125095000D03*
X161290000Y-151765000D03*
X161290000Y-149765000D03*
X161290000Y-147765000D03*
X161290000Y-142240000D03*
X161290000Y-140240000D03*
X161290000Y-138240000D03*
X137415000Y-147320000D03*
X139415000Y-147320000D03*
X141415000Y-147320000D03*
X143415000Y-147320000D03*
X145415000Y-147320000D03*
X151035000Y-147320000D03*
X153035000Y-147320000D03*
X155035000Y-147320000D03*
X158115000Y-124460000D03*
X155575000Y-124460000D03*
X153035000Y-124460000D03*
M02*
