G04 #@! TF.FileFunction,Legend,Bot*
%FSLAX46Y46*%
G04 Gerber Fmt 4.6, Leading zero omitted, Abs format (unit mm)*
G04 Created by KiCad (PCBNEW 4.0.5) date *
%MOMM*%
%LPD*%
G01*
G04 APERTURE LIST*
%ADD10C,0.100000*%
%ADD11R,1.700000X1.200000*%
%ADD12O,1.700000X1.200000*%
%ADD13R,1.200000X1.700000*%
%ADD14O,1.200000X1.700000*%
%ADD15C,1.524000*%
%ADD16C,0.600000*%
%ADD17C,0.250000*%
%ADD18C,0.200000*%
%ADD19C,1.000000*%
%ADD20C,0.254000*%
%ADD21C,0.350000*%
G04 APERTURE END LIST*
D10*
D11*
X161290000Y-132080000D03*
D12*
X161290000Y-130080000D03*
D11*
X107950000Y-122270000D03*
D12*
X107950000Y-124270000D03*
X107950000Y-126270000D03*
X107950000Y-128270000D03*
D11*
X107950000Y-133795000D03*
D12*
X107950000Y-135795000D03*
X107950000Y-137795000D03*
X107950000Y-139795000D03*
D13*
X118935000Y-125095000D03*
D14*
X116935000Y-125095000D03*
X114935000Y-125095000D03*
X112935000Y-125095000D03*
D13*
X124460000Y-147320000D03*
D14*
X126460000Y-147320000D03*
X128460000Y-147320000D03*
X130460000Y-147320000D03*
D11*
X107950000Y-145225000D03*
D12*
X107950000Y-147225000D03*
X107950000Y-149225000D03*
X107950000Y-151225000D03*
D13*
X113030000Y-147320000D03*
D14*
X115030000Y-147320000D03*
X117030000Y-147320000D03*
X119030000Y-147320000D03*
D13*
X130365000Y-125095000D03*
D14*
X128365000Y-125095000D03*
X126365000Y-125095000D03*
X124365000Y-125095000D03*
D13*
X146335000Y-125095000D03*
D14*
X144335000Y-125095000D03*
X142335000Y-125095000D03*
X140335000Y-125095000D03*
X138335000Y-125095000D03*
X136335000Y-125095000D03*
D11*
X161290000Y-151765000D03*
D12*
X161290000Y-149765000D03*
X161290000Y-147765000D03*
D11*
X161290000Y-142240000D03*
D12*
X161290000Y-140240000D03*
X161290000Y-138240000D03*
D13*
X137415000Y-147320000D03*
D14*
X139415000Y-147320000D03*
X141415000Y-147320000D03*
X143415000Y-147320000D03*
X145415000Y-147320000D03*
D13*
X151035000Y-147320000D03*
D14*
X153035000Y-147320000D03*
X155035000Y-147320000D03*
D15*
X158115000Y-124460000D03*
X155575000Y-124460000D03*
X153035000Y-124460000D03*
D16*
X166370000Y-117729000D03*
X137765000Y-135125000D03*
X138635000Y-135925000D03*
X125412500Y-145605500D03*
X110998000Y-148653500D03*
X110172500Y-149542500D03*
X109601000Y-150558500D03*
X110744000Y-144716500D03*
X109791500Y-145351500D03*
X109410500Y-143637000D03*
X108712000Y-142494000D03*
X108077000Y-141668500D03*
X110045500Y-136906000D03*
X109537500Y-136017000D03*
X109601000Y-134493000D03*
X109728000Y-130619500D03*
X110934500Y-131889500D03*
X112268000Y-133096000D03*
X142303500Y-145351500D03*
X140208000Y-145669000D03*
X137160000Y-145542000D03*
X134810500Y-145669000D03*
X134810500Y-147320000D03*
X132905500Y-147510500D03*
X132588000Y-146431000D03*
X131318000Y-145034000D03*
X129222500Y-144780000D03*
X116713000Y-131953000D03*
X116713000Y-130810000D03*
X116903500Y-127762000D03*
X117792500Y-126936500D03*
X121666000Y-125158500D03*
X120904000Y-124396500D03*
X120713500Y-125793500D03*
X158686500Y-127508000D03*
X142113000Y-149733000D03*
X145415000Y-149733000D03*
X147637500Y-149733000D03*
X158242000Y-148907500D03*
X158242000Y-146177000D03*
X114744500Y-153987500D03*
X121221500Y-153987500D03*
X129857500Y-153987500D03*
X137731500Y-153987500D03*
X146431000Y-153987500D03*
X154241500Y-153987500D03*
X160274000Y-153987500D03*
X167005000Y-153987500D03*
X168402000Y-150558500D03*
X168402000Y-146748500D03*
X168402000Y-141541500D03*
X168402000Y-136652000D03*
X168402000Y-130873500D03*
X168402000Y-125730000D03*
X168402000Y-121539000D03*
X161734500Y-117538500D03*
X156146500Y-117475000D03*
X150812500Y-117665500D03*
X102425500Y-152527000D03*
X102425500Y-148336000D03*
X102425500Y-141859000D03*
X102425500Y-136906000D03*
X102425500Y-131572000D03*
X102425500Y-126619000D03*
X102425500Y-121729500D03*
X105346500Y-117665500D03*
X112839500Y-117729000D03*
X120967500Y-117729000D03*
X128397000Y-117729000D03*
X136398000Y-117538500D03*
X142113000Y-117602000D03*
X146304000Y-117729000D03*
X119507000Y-128460500D03*
X121602500Y-128016000D03*
X120713500Y-128079500D03*
X130619500Y-137985500D03*
X130683000Y-136906000D03*
X134302500Y-137541000D03*
X136398000Y-137795000D03*
X135318500Y-137668000D03*
X114871500Y-144907000D03*
X117729000Y-144272000D03*
X119316500Y-144272000D03*
X120586500Y-144272000D03*
X111125000Y-127825500D03*
X110871000Y-128714500D03*
X111696500Y-129349500D03*
X116014500Y-136842500D03*
X115189000Y-136398000D03*
X117411500Y-138176000D03*
X116649500Y-138176000D03*
X115443000Y-138176000D03*
X120332500Y-140208000D03*
X152146000Y-125539500D03*
X148590000Y-124269500D03*
X151130000Y-127063500D03*
X157543500Y-143827500D03*
X150749000Y-143129000D03*
X143879998Y-137668000D03*
X144040930Y-131337532D03*
X145669000Y-140081000D03*
X153257500Y-135567500D03*
X153257500Y-134202500D03*
X151892500Y-134202500D03*
X151892500Y-135567500D03*
X124236250Y-136233750D03*
X126073750Y-136233750D03*
X126073750Y-134396250D03*
X124236250Y-134396250D03*
X120269000Y-130492500D03*
X140398500Y-130810000D03*
X139954000Y-130365500D03*
X135255000Y-133223000D03*
X135255000Y-133794500D03*
X110807500Y-134175500D03*
X110807500Y-135064500D03*
X110807500Y-136080500D03*
X126047500Y-141859000D03*
X123190000Y-141732000D03*
X118396101Y-135690009D03*
X132588000Y-136969500D03*
X132588000Y-137858500D03*
X132588000Y-138874500D03*
X129667000Y-127825500D03*
X128397000Y-127825500D03*
X127254000Y-127825500D03*
X141859000Y-137731500D03*
X141859000Y-138557000D03*
X141859000Y-139382500D03*
X150495000Y-128270000D03*
X150495000Y-129794000D03*
X163004500Y-126492000D03*
X152971500Y-126238000D03*
X156845000Y-135890000D03*
X154940000Y-130175000D03*
X147837990Y-132715000D03*
X147320000Y-130810000D03*
X148590000Y-130810000D03*
X165290500Y-152908000D03*
X166243000Y-122364500D03*
X149606000Y-127508000D03*
X149606000Y-129667000D03*
X156273500Y-147447000D03*
X161226500Y-119824500D03*
X165227000Y-128333500D03*
X163703000Y-144780000D03*
X156527500Y-139763500D03*
X160210500Y-121412000D03*
X158750000Y-143954500D03*
X158750000Y-139446000D03*
X157543500Y-139446000D03*
X155448000Y-139954000D03*
X151906126Y-126869469D03*
X162941000Y-150622000D03*
X167068500Y-150050500D03*
X166306500Y-118999000D03*
X150050500Y-124396500D03*
X152644057Y-128488536D03*
X153606500Y-129995502D03*
X155003500Y-145097500D03*
X148717000Y-145097500D03*
X148717000Y-138303000D03*
X157099000Y-126873000D03*
X154940000Y-139065000D03*
X159489989Y-132063785D03*
X159194500Y-128905000D03*
X123397011Y-129497212D03*
X132143500Y-123761500D03*
X132207000Y-121348500D03*
X149479000Y-139192000D03*
X114236500Y-126873000D03*
X124841000Y-129476500D03*
X127508000Y-129105490D03*
X125883848Y-129743764D03*
X130302000Y-129286000D03*
X123132527Y-128713644D03*
X130429000Y-126746000D03*
X113411000Y-142875000D03*
X119850879Y-138641696D03*
X156210000Y-143510000D03*
X159385000Y-133985000D03*
X126480020Y-141160500D03*
X127780012Y-141160500D03*
X148463000Y-132143500D03*
X143002000Y-130111500D03*
X140271500Y-137414000D03*
X138112500Y-137985500D03*
X139836990Y-133115360D03*
X136652000Y-133096000D03*
X141668500Y-130492500D03*
X142417763Y-132645628D03*
X144018000Y-138620500D03*
X148399500Y-136779000D03*
D17*
X166370000Y-117729000D02*
X161925000Y-117729000D01*
X161925000Y-117729000D02*
X161734500Y-117538500D01*
X109601000Y-150558500D02*
X109601000Y-150114000D01*
X109601000Y-150114000D02*
X110172500Y-149542500D01*
X109410500Y-143637000D02*
X109410500Y-144970500D01*
X109410500Y-144970500D02*
X109791500Y-145351500D01*
X108077000Y-141668500D02*
X108077000Y-141859000D01*
X108077000Y-141859000D02*
X108712000Y-142494000D01*
X109601000Y-134493000D02*
X109601000Y-135953500D01*
X109601000Y-135953500D02*
X109537500Y-136017000D01*
X109728000Y-130619500D02*
X107950000Y-128841500D01*
X107950000Y-128841500D02*
X107950000Y-128270000D01*
X112268000Y-133096000D02*
X112141000Y-133096000D01*
X112141000Y-133096000D02*
X110934500Y-131889500D01*
X137160000Y-145542000D02*
X140081000Y-145542000D01*
X140081000Y-145542000D02*
X140208000Y-145669000D01*
X134810500Y-147320000D02*
X134810500Y-145669000D01*
X132588000Y-146431000D02*
X132588000Y-147193000D01*
X132588000Y-147193000D02*
X132905500Y-147510500D01*
X129222500Y-144780000D02*
X131064000Y-144780000D01*
X131064000Y-144780000D02*
X131318000Y-145034000D01*
X116713000Y-130810000D02*
X113157000Y-130810000D01*
X113157000Y-130810000D02*
X111696500Y-129349500D01*
X116713000Y-130810000D02*
X116713000Y-131953000D01*
X119507000Y-128460500D02*
X119316500Y-128460500D01*
X119316500Y-128460500D02*
X117792500Y-126936500D01*
X120904000Y-124396500D02*
X121666000Y-125158500D01*
X120713500Y-128079500D02*
X120713500Y-125793500D01*
X147637500Y-149733000D02*
X145415000Y-149733000D01*
X161290000Y-147765000D02*
X159830000Y-147765000D01*
X159830000Y-147765000D02*
X158242000Y-146177000D01*
X129857500Y-153987500D02*
X121221500Y-153987500D01*
X146431000Y-153987500D02*
X137731500Y-153987500D01*
X160274000Y-153987500D02*
X154241500Y-153987500D01*
X168402000Y-150558500D02*
X168402000Y-152590500D01*
X168402000Y-152590500D02*
X167005000Y-153987500D01*
X168402000Y-141541500D02*
X168402000Y-146748500D01*
X168402000Y-130873500D02*
X168402000Y-136652000D01*
X168402000Y-121539000D02*
X168402000Y-125730000D01*
X150812500Y-117665500D02*
X155956000Y-117665500D01*
X155956000Y-117665500D02*
X156146500Y-117475000D01*
X102425500Y-148336000D02*
X102425500Y-152527000D01*
X102425500Y-136906000D02*
X102425500Y-141859000D01*
X102425500Y-126619000D02*
X102425500Y-131572000D01*
X105346500Y-117665500D02*
X102425500Y-120586500D01*
X102425500Y-120586500D02*
X102425500Y-121729500D01*
X120967500Y-117729000D02*
X112839500Y-117729000D01*
X136398000Y-117538500D02*
X128587500Y-117538500D01*
X128587500Y-117538500D02*
X128397000Y-117729000D01*
X146304000Y-117729000D02*
X142240000Y-117729000D01*
X142240000Y-117729000D02*
X142113000Y-117602000D01*
D18*
X120713500Y-128079500D02*
X121539000Y-128079500D01*
X121539000Y-128079500D02*
X121602500Y-128016000D01*
D17*
X130619500Y-137985500D02*
X126656750Y-137985500D01*
X126073750Y-137402500D02*
X126073750Y-136233750D01*
X126656750Y-137985500D02*
X126073750Y-137402500D01*
X130683000Y-136906000D02*
X130683000Y-137922000D01*
X130683000Y-137922000D02*
X130619500Y-137985500D01*
X134302500Y-147066000D02*
X134048500Y-147320000D01*
X134048500Y-147320000D02*
X130460000Y-147320000D01*
X134302500Y-137541000D02*
X134302500Y-147066000D01*
X135318500Y-137668000D02*
X136271000Y-137668000D01*
X136271000Y-137668000D02*
X136398000Y-137795000D01*
X119030000Y-141572500D02*
X119030000Y-145732500D01*
X119316500Y-144272000D02*
X119316500Y-145446000D01*
X119316500Y-145446000D02*
X119030000Y-145732500D01*
X119030000Y-145732500D02*
X119030000Y-147320000D01*
X117729000Y-144272000D02*
X115506500Y-144272000D01*
X115506500Y-144272000D02*
X114871500Y-144907000D01*
X120586500Y-144272000D02*
X119316500Y-144272000D01*
X111125000Y-127825500D02*
X110680500Y-128270000D01*
X110680500Y-128270000D02*
X107950000Y-128270000D01*
X111696500Y-129349500D02*
X111506000Y-129349500D01*
X111506000Y-129349500D02*
X110871000Y-128714500D01*
X116014500Y-136842500D02*
X116014500Y-137541000D01*
X116014500Y-137541000D02*
X116649500Y-138176000D01*
X115189000Y-136398000D02*
X115570000Y-136398000D01*
X115570000Y-136398000D02*
X116014500Y-136842500D01*
X112141000Y-138176000D02*
X110522000Y-139795000D01*
X110522000Y-139795000D02*
X107950000Y-139795000D01*
X117411500Y-138176000D02*
X112141000Y-138176000D01*
X115443000Y-138176000D02*
X116649500Y-138176000D01*
X118999000Y-141541500D02*
X119030000Y-141572500D01*
X120332500Y-140208000D02*
X118999000Y-141541500D01*
X150622000Y-123761500D02*
X149098000Y-123761500D01*
X149098000Y-123761500D02*
X148590000Y-124269500D01*
X151846001Y-124985501D02*
X150622000Y-123761500D01*
X152146000Y-125539500D02*
X151846001Y-125239501D01*
X151846001Y-125239501D02*
X151846001Y-124985501D01*
X152146000Y-125539500D02*
X152570264Y-125539500D01*
X152570264Y-125539500D02*
X152577765Y-125547001D01*
X152577765Y-125547001D02*
X154487999Y-125547001D01*
X154487999Y-125547001D02*
X154813001Y-125221999D01*
X154813001Y-125221999D02*
X155575000Y-124460000D01*
X151130000Y-127063500D02*
X148590000Y-124523500D01*
X148590000Y-124523500D02*
X148590000Y-124269500D01*
X157543500Y-143827500D02*
X160205990Y-141165010D01*
X160205990Y-141165010D02*
X161923151Y-141165010D01*
X162465010Y-139165010D02*
X161540000Y-138240000D01*
X161923151Y-141165010D02*
X162465010Y-140623151D01*
X162465010Y-140623151D02*
X162465010Y-139165010D01*
X161540000Y-138240000D02*
X161290000Y-138240000D01*
X150749000Y-143129000D02*
X151892500Y-141985500D01*
X151892500Y-141985500D02*
X151892500Y-135567500D01*
X143065500Y-139319000D02*
X143827500Y-140081000D01*
X143827500Y-140081000D02*
X145669000Y-140081000D01*
X143065500Y-137922000D02*
X143065500Y-139319000D01*
X143319500Y-137668000D02*
X143065500Y-137922000D01*
X143879998Y-137668000D02*
X143319500Y-137668000D01*
X144040930Y-131337532D02*
X144040930Y-137507068D01*
X144040930Y-137507068D02*
X143879998Y-137668000D01*
X145351500Y-140398500D02*
X145415000Y-140462000D01*
X145415000Y-140462000D02*
X145415000Y-147320000D01*
X145669000Y-140081000D02*
X145351500Y-140398500D01*
X120269000Y-130492500D02*
X120650000Y-130111500D01*
X120650000Y-130111500D02*
X123698000Y-130111500D01*
X123698000Y-130111500D02*
X124142500Y-129667000D01*
X124142500Y-129667000D02*
X124142500Y-128524000D01*
X124142500Y-128524000D02*
X124841000Y-127825500D01*
X124841000Y-127825500D02*
X127254000Y-127825500D01*
D19*
X139954000Y-130365500D02*
X140398500Y-130810000D01*
X140398500Y-130810000D02*
X141287500Y-131699000D01*
X135255000Y-133223000D02*
X135255000Y-133794500D01*
X133667500Y-131635500D02*
X135255000Y-133223000D01*
X131889500Y-131635500D02*
X131889500Y-135572500D01*
X131889500Y-127825500D02*
X131889500Y-131635500D01*
X131889500Y-131635500D02*
X133667500Y-131635500D01*
X124269500Y-142811500D02*
X125285500Y-142811500D01*
X125285500Y-142811500D02*
X125968259Y-142128741D01*
X125968259Y-142128741D02*
X125873009Y-142033491D01*
X124269500Y-144589500D02*
X124269500Y-142811500D01*
X124269500Y-142811500D02*
X123190000Y-141732000D01*
X116333990Y-152525010D02*
X124269500Y-144589500D01*
X105537000Y-128397000D02*
X105537000Y-150900491D01*
X105537000Y-150900491D02*
X107161519Y-152525010D01*
X107161519Y-152525010D02*
X116333990Y-152525010D01*
D17*
X113982500Y-134556500D02*
X111188500Y-134556500D01*
X111188500Y-134556500D02*
X110807500Y-134175500D01*
X115116009Y-135690009D02*
X113982500Y-134556500D01*
X118396101Y-135690009D02*
X115116009Y-135690009D01*
D19*
X110807500Y-133667500D02*
X110807500Y-135064500D01*
X110807500Y-135064500D02*
X110807500Y-136080500D01*
X105537000Y-128397000D02*
X110807500Y-133667500D01*
X105537000Y-122174000D02*
X105537000Y-128397000D01*
X107188000Y-120523000D02*
X105537000Y-122174000D01*
X110172500Y-120523000D02*
X107188000Y-120523000D01*
X112395000Y-122745500D02*
X110172500Y-120523000D01*
X135001000Y-122745500D02*
X112395000Y-122745500D01*
X132588000Y-136398000D02*
X132588000Y-138874500D01*
X131889500Y-135699500D02*
X132588000Y-136398000D01*
X131889500Y-135572500D02*
X131889500Y-135699500D01*
X131889500Y-127825500D02*
X128397000Y-127825500D01*
X128397000Y-127825500D02*
X127254000Y-127825500D01*
X141859000Y-137731500D02*
X141859000Y-139382500D01*
X141287500Y-137160000D02*
X141859000Y-137731500D01*
X141287500Y-131699000D02*
X141287500Y-137160000D01*
X137033000Y-130365500D02*
X139954000Y-130365500D01*
X133477000Y-126809500D02*
X137033000Y-130365500D01*
X133477000Y-126238000D02*
X133477000Y-126809500D01*
X133477000Y-126238000D02*
X131889500Y-127825500D01*
X133477000Y-124269500D02*
X133477000Y-126238000D01*
X135001000Y-122745500D02*
X133477000Y-124269500D01*
X151320500Y-122745500D02*
X135001000Y-122745500D01*
X152273001Y-123698001D02*
X151320500Y-122745500D01*
X153035000Y-124460000D02*
X152273001Y-123698001D01*
D17*
X150495000Y-129794000D02*
X150495000Y-128270000D01*
X152971500Y-126238000D02*
X162750500Y-126238000D01*
X162750500Y-126238000D02*
X163004500Y-126492000D01*
X147100002Y-123825000D02*
X145355000Y-123825000D01*
X145355000Y-123825000D02*
X144335000Y-124845000D01*
X154993501Y-127688501D02*
X150829999Y-127688501D01*
X156845000Y-135890000D02*
X156845000Y-129540000D01*
X150504999Y-127363501D02*
X150504999Y-127229997D01*
X150829999Y-127688501D02*
X150504999Y-127363501D01*
X144335000Y-124845000D02*
X144335000Y-125095000D01*
X150504999Y-127229997D02*
X147100002Y-123825000D01*
X156845000Y-129540000D02*
X154993501Y-127688501D01*
X142335000Y-125345000D02*
X142335000Y-125095000D01*
X143355000Y-126365000D02*
X142335000Y-125345000D01*
X145415000Y-126365000D02*
X143355000Y-126365000D01*
X154494497Y-130620503D02*
X153231822Y-130620503D01*
X153086318Y-130474999D02*
X149524999Y-130474999D01*
X154940000Y-130175000D02*
X154494497Y-130620503D01*
X149524999Y-130474999D02*
X145415000Y-126365000D01*
X153231822Y-130620503D02*
X153086318Y-130474999D01*
X147537991Y-132415001D02*
X147837990Y-132715000D01*
X138410000Y-128270000D02*
X143392990Y-128270000D01*
X143392990Y-128270000D02*
X147537991Y-132415001D01*
X136335000Y-125095000D02*
X136335000Y-126195000D01*
X136335000Y-126195000D02*
X138410000Y-128270000D01*
X147320000Y-130810000D02*
X144145000Y-127635000D01*
X144145000Y-127635000D02*
X139065000Y-127635000D01*
X139065000Y-127635000D02*
X138335000Y-126905000D01*
X138335000Y-126905000D02*
X138335000Y-125095000D01*
X148590000Y-130810000D02*
X144780000Y-127000000D01*
X140335000Y-126365000D02*
X140335000Y-125095000D01*
X144780000Y-127000000D02*
X140970000Y-127000000D01*
X140970000Y-127000000D02*
X140335000Y-126365000D01*
X166243000Y-122364500D02*
X166243000Y-151955500D01*
X166243000Y-151955500D02*
X165290500Y-152908000D01*
X149606000Y-129667000D02*
X149606000Y-127508000D01*
X156273500Y-147447000D02*
X156273500Y-144780000D01*
X165227000Y-122364500D02*
X162687000Y-119824500D01*
X162687000Y-119824500D02*
X161226500Y-119824500D01*
X165227000Y-128333500D02*
X165227000Y-122364500D01*
X156273500Y-144780000D02*
X163703000Y-144780000D01*
X155448000Y-143954500D02*
X156273500Y-144780000D01*
X155448000Y-140843000D02*
X155448000Y-143954500D01*
X156527500Y-139763500D02*
X155448000Y-140843000D01*
X163703000Y-124904500D02*
X160210500Y-121412000D01*
X163703000Y-141862002D02*
X163703000Y-124904500D01*
X158750000Y-143954500D02*
X161610502Y-143954500D01*
X161610502Y-143954500D02*
X163703000Y-141862002D01*
X157543500Y-139446000D02*
X158750000Y-139446000D01*
X155448000Y-139954000D02*
X151035000Y-144367000D01*
X151035000Y-144367000D02*
X151035000Y-147320000D01*
X151606127Y-126569470D02*
X151906126Y-126869469D01*
X150050500Y-124396500D02*
X150050500Y-125013843D01*
X150050500Y-125013843D02*
X151606127Y-126569470D01*
X162941000Y-150622000D02*
X162516736Y-150622000D01*
X162516736Y-150622000D02*
X162448726Y-150690010D01*
X162448726Y-150690010D02*
X156155010Y-150690010D01*
X156155010Y-150690010D02*
X153035000Y-147570000D01*
X153035000Y-147570000D02*
X153035000Y-147320000D01*
X166306500Y-120967500D02*
X167068500Y-121729500D01*
X167068500Y-121729500D02*
X167068500Y-150050500D01*
X166306500Y-118999000D02*
X166306500Y-120967500D01*
X153606500Y-129995502D02*
X153606500Y-129450979D01*
X153606500Y-129450979D02*
X152644057Y-128488536D01*
X155003500Y-145097500D02*
X155003500Y-147288500D01*
X155003500Y-147288500D02*
X155035000Y-147320000D01*
X148717000Y-138303000D02*
X148717000Y-145097500D01*
X157480000Y-127635000D02*
X157480000Y-127254000D01*
X157480000Y-127254000D02*
X157099000Y-126873000D01*
X158750000Y-130365500D02*
X157480000Y-129095500D01*
X157480000Y-129095500D02*
X157480000Y-127635000D01*
X158750000Y-137160000D02*
X158750000Y-130365500D01*
X156845000Y-139065000D02*
X158750000Y-137160000D01*
X154940000Y-139065000D02*
X156845000Y-139065000D01*
X159489989Y-131639521D02*
X159489989Y-132063785D01*
X159489989Y-129624753D02*
X159489989Y-131639521D01*
X159194500Y-129329264D02*
X159489989Y-129624753D01*
X159194500Y-128905000D02*
X159194500Y-129329264D01*
X116860712Y-129497212D02*
X122491500Y-129497212D01*
X122491500Y-129497212D02*
X122972747Y-129497212D01*
X122491500Y-129159000D02*
X122491500Y-129497212D01*
X122972747Y-129497212D02*
X123397011Y-129497212D01*
X114236500Y-126873000D02*
X116860712Y-129497212D01*
X132143500Y-123761500D02*
X123698000Y-123761500D01*
X123698000Y-123761500D02*
X122491500Y-124968000D01*
X122491500Y-124968000D02*
X122491500Y-129159000D01*
X134112000Y-119443500D02*
X132506999Y-121048501D01*
X132506999Y-121048501D02*
X132207000Y-121348500D01*
X164211000Y-144362996D02*
X164211000Y-124142500D01*
X149479000Y-151447500D02*
X151130000Y-153098500D01*
X164211000Y-124142500D02*
X159512000Y-119443500D01*
X159512000Y-119443500D02*
X134112000Y-119443500D01*
X151130000Y-153098500D02*
X163576000Y-153098500D01*
X163576000Y-153098500D02*
X164211000Y-152463500D01*
X164328002Y-144479998D02*
X164211000Y-144362996D01*
X164328002Y-145080002D02*
X164328002Y-144479998D01*
X164211000Y-145197004D02*
X164328002Y-145080002D01*
X164211000Y-152463500D02*
X164211000Y-145197004D01*
X149479000Y-139192000D02*
X149479000Y-151447500D01*
X127508000Y-129105490D02*
X125212010Y-129105490D01*
X125212010Y-129105490D02*
X124841000Y-129476500D01*
X129844236Y-129743764D02*
X125883848Y-129743764D01*
X130302000Y-129286000D02*
X129844236Y-129743764D01*
X123132527Y-128200473D02*
X124587000Y-126746000D01*
X124587000Y-126746000D02*
X130429000Y-126746000D01*
X123132527Y-128713644D02*
X123132527Y-128200473D01*
X119850879Y-138641696D02*
X115617575Y-142875000D01*
X115617575Y-142875000D02*
X113411000Y-142875000D01*
X156845000Y-143510000D02*
X156210000Y-143510000D01*
X159385000Y-140970000D02*
X156845000Y-143510000D01*
X159385000Y-133985000D02*
X159385000Y-140970000D01*
X126480020Y-141160500D02*
X127780012Y-141160500D01*
X148145500Y-133540500D02*
X148463000Y-133223000D01*
X148463000Y-133223000D02*
X148463000Y-132143500D01*
X147764500Y-133540500D02*
X148145500Y-133540500D01*
X144843500Y-130619500D02*
X147764500Y-133540500D01*
X143510000Y-130619500D02*
X144843500Y-130619500D01*
X143002000Y-130111500D02*
X143510000Y-130619500D01*
X138112500Y-137985500D02*
X139700000Y-137985500D01*
X139700000Y-137985500D02*
X140271500Y-137414000D01*
X139817630Y-133096000D02*
X139836990Y-133115360D01*
X136652000Y-133096000D02*
X139817630Y-133096000D01*
X142417763Y-131241763D02*
X141668500Y-130492500D01*
X142417763Y-132645628D02*
X142417763Y-131241763D01*
X148399500Y-136779000D02*
X146558000Y-138620500D01*
X146558000Y-138620500D02*
X144018000Y-138620500D01*
D20*
G36*
X168835000Y-119293091D02*
X168835000Y-152359909D01*
X166710908Y-154484000D01*
X103164091Y-154484000D01*
X101040000Y-152359908D01*
X101040000Y-122174000D01*
X104402000Y-122174000D01*
X104402000Y-150900491D01*
X104488397Y-151334837D01*
X104636950Y-151557162D01*
X104734434Y-151703057D01*
X106358953Y-153327576D01*
X106727173Y-153573613D01*
X107161519Y-153660010D01*
X116333990Y-153660010D01*
X116768336Y-153573613D01*
X117136556Y-153327576D01*
X123212560Y-147251572D01*
X123212560Y-148170000D01*
X123256838Y-148405317D01*
X123395910Y-148621441D01*
X123608110Y-148766431D01*
X123860000Y-148817440D01*
X125060000Y-148817440D01*
X125295317Y-148773162D01*
X125511441Y-148634090D01*
X125610901Y-148488525D01*
X125987386Y-148740084D01*
X126460000Y-148834093D01*
X126932614Y-148740084D01*
X127333277Y-148472370D01*
X127460000Y-148282715D01*
X127586723Y-148472370D01*
X127987386Y-148740084D01*
X128460000Y-148834093D01*
X128932614Y-148740084D01*
X129333277Y-148472370D01*
X129462410Y-148279109D01*
X129630875Y-148501933D01*
X130050624Y-148748286D01*
X130142391Y-148763462D01*
X130333000Y-148638731D01*
X130333000Y-147447000D01*
X130587000Y-147447000D01*
X130587000Y-148638731D01*
X130777609Y-148763462D01*
X130869376Y-148748286D01*
X131289125Y-148501933D01*
X131582647Y-148113701D01*
X131705256Y-147642696D01*
X131542547Y-147447000D01*
X130587000Y-147447000D01*
X130333000Y-147447000D01*
X130313000Y-147447000D01*
X130313000Y-147193000D01*
X130333000Y-147193000D01*
X130333000Y-146001269D01*
X130587000Y-146001269D01*
X130587000Y-147193000D01*
X131542547Y-147193000D01*
X131705256Y-146997304D01*
X131582647Y-146526299D01*
X131540083Y-146470000D01*
X136167560Y-146470000D01*
X136167560Y-148170000D01*
X136211838Y-148405317D01*
X136350910Y-148621441D01*
X136563110Y-148766431D01*
X136815000Y-148817440D01*
X138015000Y-148817440D01*
X138250317Y-148773162D01*
X138466441Y-148634090D01*
X138565901Y-148488525D01*
X138942386Y-148740084D01*
X139415000Y-148834093D01*
X139887614Y-148740084D01*
X140288277Y-148472370D01*
X140415000Y-148282715D01*
X140541723Y-148472370D01*
X140942386Y-148740084D01*
X141415000Y-148834093D01*
X141887614Y-148740084D01*
X142288277Y-148472370D01*
X142415000Y-148282715D01*
X142541723Y-148472370D01*
X142942386Y-148740084D01*
X143415000Y-148834093D01*
X143887614Y-148740084D01*
X144288277Y-148472370D01*
X144417410Y-148279109D01*
X144585875Y-148501933D01*
X145005624Y-148748286D01*
X145097391Y-148763462D01*
X145288000Y-148638731D01*
X145288000Y-147447000D01*
X145542000Y-147447000D01*
X145542000Y-148638731D01*
X145732609Y-148763462D01*
X145824376Y-148748286D01*
X146244125Y-148501933D01*
X146537647Y-148113701D01*
X146660256Y-147642696D01*
X146497547Y-147447000D01*
X145542000Y-147447000D01*
X145288000Y-147447000D01*
X145268000Y-147447000D01*
X145268000Y-147193000D01*
X145288000Y-147193000D01*
X145288000Y-146001269D01*
X145542000Y-146001269D01*
X145542000Y-147193000D01*
X146497547Y-147193000D01*
X146660256Y-146997304D01*
X146537647Y-146526299D01*
X146244125Y-146138067D01*
X145824376Y-145891714D01*
X145732609Y-145876538D01*
X145542000Y-146001269D01*
X145288000Y-146001269D01*
X145097391Y-145876538D01*
X145005624Y-145891714D01*
X144585875Y-146138067D01*
X144417410Y-146360891D01*
X144288277Y-146167630D01*
X143887614Y-145899916D01*
X143415000Y-145805907D01*
X142942386Y-145899916D01*
X142541723Y-146167630D01*
X142415000Y-146357285D01*
X142288277Y-146167630D01*
X141887614Y-145899916D01*
X141415000Y-145805907D01*
X140942386Y-145899916D01*
X140541723Y-146167630D01*
X140415000Y-146357285D01*
X140288277Y-146167630D01*
X139887614Y-145899916D01*
X139415000Y-145805907D01*
X138942386Y-145899916D01*
X138565004Y-146152074D01*
X138479090Y-146018559D01*
X138266890Y-145873569D01*
X138015000Y-145822560D01*
X136815000Y-145822560D01*
X136579683Y-145866838D01*
X136363559Y-146005910D01*
X136218569Y-146218110D01*
X136167560Y-146470000D01*
X131540083Y-146470000D01*
X131289125Y-146138067D01*
X130869376Y-145891714D01*
X130777609Y-145876538D01*
X130587000Y-146001269D01*
X130333000Y-146001269D01*
X130142391Y-145876538D01*
X130050624Y-145891714D01*
X129630875Y-146138067D01*
X129462410Y-146360891D01*
X129333277Y-146167630D01*
X128932614Y-145899916D01*
X128460000Y-145805907D01*
X127987386Y-145899916D01*
X127586723Y-146167630D01*
X127460000Y-146357285D01*
X127333277Y-146167630D01*
X126932614Y-145899916D01*
X126460000Y-145805907D01*
X125987386Y-145899916D01*
X125610004Y-146152074D01*
X125524090Y-146018559D01*
X125311890Y-145873569D01*
X125060000Y-145822560D01*
X124641572Y-145822560D01*
X125072066Y-145392066D01*
X125086248Y-145370841D01*
X125318103Y-145023846D01*
X125404500Y-144589500D01*
X125404500Y-143922829D01*
X125719846Y-143860103D01*
X126088066Y-143614066D01*
X126770825Y-142931307D01*
X127016862Y-142563086D01*
X127103259Y-142128741D01*
X127061837Y-141920500D01*
X127217549Y-141920500D01*
X127249685Y-141952692D01*
X127593213Y-142095338D01*
X127965179Y-142095662D01*
X128308955Y-141953617D01*
X128572204Y-141690827D01*
X128714850Y-141347299D01*
X128715174Y-140975333D01*
X128573129Y-140631557D01*
X128310339Y-140368308D01*
X127966811Y-140225662D01*
X127594845Y-140225338D01*
X127251069Y-140367383D01*
X127217894Y-140400500D01*
X127042483Y-140400500D01*
X127010347Y-140368308D01*
X126666819Y-140225662D01*
X126294853Y-140225338D01*
X125951077Y-140367383D01*
X125687828Y-140630173D01*
X125549709Y-140962800D01*
X125438664Y-140984888D01*
X125070443Y-141230925D01*
X124824406Y-141599146D01*
X124809019Y-141676500D01*
X124739633Y-141676500D01*
X123992566Y-140929434D01*
X123624345Y-140683397D01*
X123190000Y-140597000D01*
X122755655Y-140683397D01*
X122387434Y-140929434D01*
X122141397Y-141297655D01*
X122055000Y-141732000D01*
X122141397Y-142166345D01*
X122387434Y-142534566D01*
X123134500Y-143281633D01*
X123134500Y-144119368D01*
X120271395Y-146982473D01*
X120152647Y-146526299D01*
X119859125Y-146138067D01*
X119439376Y-145891714D01*
X119347609Y-145876538D01*
X119157000Y-146001269D01*
X119157000Y-147193000D01*
X119177000Y-147193000D01*
X119177000Y-147447000D01*
X119157000Y-147447000D01*
X119157000Y-147467000D01*
X118903000Y-147467000D01*
X118903000Y-147447000D01*
X118883000Y-147447000D01*
X118883000Y-147193000D01*
X118903000Y-147193000D01*
X118903000Y-146001269D01*
X118712391Y-145876538D01*
X118620624Y-145891714D01*
X118200875Y-146138067D01*
X118032410Y-146360891D01*
X117903277Y-146167630D01*
X117502614Y-145899916D01*
X117030000Y-145805907D01*
X116557386Y-145899916D01*
X116156723Y-146167630D01*
X116030000Y-146357285D01*
X115903277Y-146167630D01*
X115502614Y-145899916D01*
X115030000Y-145805907D01*
X114557386Y-145899916D01*
X114180004Y-146152074D01*
X114094090Y-146018559D01*
X113881890Y-145873569D01*
X113630000Y-145822560D01*
X112430000Y-145822560D01*
X112194683Y-145866838D01*
X111978559Y-146005910D01*
X111833569Y-146218110D01*
X111782560Y-146470000D01*
X111782560Y-148170000D01*
X111826838Y-148405317D01*
X111965910Y-148621441D01*
X112178110Y-148766431D01*
X112430000Y-148817440D01*
X113630000Y-148817440D01*
X113865317Y-148773162D01*
X114081441Y-148634090D01*
X114180901Y-148488525D01*
X114557386Y-148740084D01*
X115030000Y-148834093D01*
X115502614Y-148740084D01*
X115903277Y-148472370D01*
X116030000Y-148282715D01*
X116156723Y-148472370D01*
X116557386Y-148740084D01*
X117030000Y-148834093D01*
X117502614Y-148740084D01*
X117903277Y-148472370D01*
X118032410Y-148279109D01*
X118200875Y-148501933D01*
X118548129Y-148705739D01*
X115863858Y-151390010D01*
X109293604Y-151390010D01*
X109268731Y-151352000D01*
X108077000Y-151352000D01*
X108077000Y-151372000D01*
X107823000Y-151372000D01*
X107823000Y-151352000D01*
X107803000Y-151352000D01*
X107803000Y-151098000D01*
X107823000Y-151098000D01*
X107823000Y-151078000D01*
X108077000Y-151078000D01*
X108077000Y-151098000D01*
X109268731Y-151098000D01*
X109393462Y-150907391D01*
X109378286Y-150815624D01*
X109131933Y-150395875D01*
X108909109Y-150227410D01*
X109102370Y-150098277D01*
X109370084Y-149697614D01*
X109464093Y-149225000D01*
X109370084Y-148752386D01*
X109102370Y-148351723D01*
X108912715Y-148225000D01*
X109102370Y-148098277D01*
X109370084Y-147697614D01*
X109464093Y-147225000D01*
X109370084Y-146752386D01*
X109117926Y-146375004D01*
X109251441Y-146289090D01*
X109396431Y-146076890D01*
X109447440Y-145825000D01*
X109447440Y-144625000D01*
X109403162Y-144389683D01*
X109264090Y-144173559D01*
X109051890Y-144028569D01*
X108800000Y-143977560D01*
X107100000Y-143977560D01*
X106864683Y-144021838D01*
X106672000Y-144145826D01*
X106672000Y-143060167D01*
X112475838Y-143060167D01*
X112617883Y-143403943D01*
X112880673Y-143667192D01*
X113224201Y-143809838D01*
X113596167Y-143810162D01*
X113939943Y-143668117D01*
X113973118Y-143635000D01*
X115617575Y-143635000D01*
X115908414Y-143577148D01*
X116154976Y-143412401D01*
X119990559Y-139576818D01*
X120036046Y-139576858D01*
X120379822Y-139434813D01*
X120643071Y-139172023D01*
X120785717Y-138828495D01*
X120786041Y-138456529D01*
X120643996Y-138112753D01*
X120381206Y-137849504D01*
X120037678Y-137706858D01*
X119665712Y-137706534D01*
X119321936Y-137848579D01*
X119058687Y-138111369D01*
X118916041Y-138454897D01*
X118916000Y-138501773D01*
X115302773Y-142115000D01*
X113973463Y-142115000D01*
X113941327Y-142082808D01*
X113597799Y-141940162D01*
X113225833Y-141939838D01*
X112882057Y-142081883D01*
X112618808Y-142344673D01*
X112476162Y-142688201D01*
X112475838Y-143060167D01*
X106672000Y-143060167D01*
X106672000Y-140460441D01*
X106768067Y-140624125D01*
X107156299Y-140917647D01*
X107627304Y-141040256D01*
X107823000Y-140877547D01*
X107823000Y-139922000D01*
X108077000Y-139922000D01*
X108077000Y-140877547D01*
X108272696Y-141040256D01*
X108743701Y-140917647D01*
X109131933Y-140624125D01*
X109378286Y-140204376D01*
X109393462Y-140112609D01*
X109268731Y-139922000D01*
X108077000Y-139922000D01*
X107823000Y-139922000D01*
X107803000Y-139922000D01*
X107803000Y-139668000D01*
X107823000Y-139668000D01*
X107823000Y-139648000D01*
X108077000Y-139648000D01*
X108077000Y-139668000D01*
X109268731Y-139668000D01*
X109393462Y-139477391D01*
X109378286Y-139385624D01*
X109131933Y-138965875D01*
X108909109Y-138797410D01*
X109102370Y-138668277D01*
X109370084Y-138267614D01*
X109464093Y-137795000D01*
X109370084Y-137322386D01*
X109102370Y-136921723D01*
X108912715Y-136795000D01*
X109102370Y-136668277D01*
X109370084Y-136267614D01*
X109464093Y-135795000D01*
X109370084Y-135322386D01*
X109117926Y-134945004D01*
X109251441Y-134859090D01*
X109396431Y-134646890D01*
X109447440Y-134395000D01*
X109447440Y-133912572D01*
X109672500Y-134137632D01*
X109672500Y-136080500D01*
X109758897Y-136514846D01*
X110004934Y-136883066D01*
X110373154Y-137129103D01*
X110807500Y-137215500D01*
X111241846Y-137129103D01*
X111610066Y-136883066D01*
X111856103Y-136514846D01*
X111942500Y-136080500D01*
X111942500Y-135316500D01*
X113667698Y-135316500D01*
X114578608Y-136227410D01*
X114825170Y-136392157D01*
X115116009Y-136450009D01*
X117833638Y-136450009D01*
X117865774Y-136482201D01*
X118209302Y-136624847D01*
X118581268Y-136625171D01*
X118925044Y-136483126D01*
X119188293Y-136220336D01*
X119330939Y-135876808D01*
X119331263Y-135504842D01*
X119189218Y-135161066D01*
X118926428Y-134897817D01*
X118582900Y-134755171D01*
X118210934Y-134754847D01*
X117867158Y-134896892D01*
X117833983Y-134930009D01*
X115430811Y-134930009D01*
X114519901Y-134019099D01*
X114273339Y-133854352D01*
X113982500Y-133796500D01*
X111942500Y-133796500D01*
X111942500Y-133667500D01*
X111910613Y-133507192D01*
X111856104Y-133233155D01*
X111610066Y-132864934D01*
X108199679Y-129454547D01*
X108272696Y-129515256D01*
X108743701Y-129392647D01*
X109131933Y-129099125D01*
X109378286Y-128679376D01*
X109393462Y-128587609D01*
X109268731Y-128397000D01*
X108077000Y-128397000D01*
X108077000Y-128417000D01*
X107823000Y-128417000D01*
X107823000Y-128397000D01*
X107803000Y-128397000D01*
X107803000Y-128143000D01*
X107823000Y-128143000D01*
X107823000Y-128123000D01*
X108077000Y-128123000D01*
X108077000Y-128143000D01*
X109268731Y-128143000D01*
X109393462Y-127952391D01*
X109378286Y-127860624D01*
X109131933Y-127440875D01*
X108909109Y-127272410D01*
X109102370Y-127143277D01*
X109370084Y-126742614D01*
X109464093Y-126270000D01*
X109370084Y-125797386D01*
X109116384Y-125417696D01*
X111689744Y-125417696D01*
X111812353Y-125888701D01*
X112105875Y-126276933D01*
X112525624Y-126523286D01*
X112617391Y-126538462D01*
X112808000Y-126413731D01*
X112808000Y-125222000D01*
X111852453Y-125222000D01*
X111689744Y-125417696D01*
X109116384Y-125417696D01*
X109102370Y-125396723D01*
X108912715Y-125270000D01*
X109102370Y-125143277D01*
X109370084Y-124742614D01*
X109464093Y-124270000D01*
X109370084Y-123797386D01*
X109117926Y-123420004D01*
X109251441Y-123334090D01*
X109396431Y-123121890D01*
X109447440Y-122870000D01*
X109447440Y-121670000D01*
X109445182Y-121658000D01*
X109702368Y-121658000D01*
X111592434Y-123548066D01*
X111960655Y-123794104D01*
X112220504Y-123845791D01*
X112105875Y-123913067D01*
X111812353Y-124301299D01*
X111689744Y-124772304D01*
X111852453Y-124968000D01*
X112808000Y-124968000D01*
X112808000Y-124948000D01*
X113062000Y-124948000D01*
X113062000Y-124968000D01*
X113082000Y-124968000D01*
X113082000Y-125222000D01*
X113062000Y-125222000D01*
X113062000Y-126413731D01*
X113252609Y-126538462D01*
X113344376Y-126523286D01*
X113377345Y-126503936D01*
X113301662Y-126686201D01*
X113301338Y-127058167D01*
X113443383Y-127401943D01*
X113706173Y-127665192D01*
X114049701Y-127807838D01*
X114096577Y-127807879D01*
X116323311Y-130034613D01*
X116569872Y-130199360D01*
X116860712Y-130257212D01*
X119354296Y-130257212D01*
X119334162Y-130305701D01*
X119333838Y-130677667D01*
X119475883Y-131021443D01*
X119738673Y-131284692D01*
X120082201Y-131427338D01*
X120454167Y-131427662D01*
X120797943Y-131285617D01*
X121061192Y-131022827D01*
X121124029Y-130871500D01*
X123698000Y-130871500D01*
X123988839Y-130813648D01*
X124235401Y-130648901D01*
X124526140Y-130358162D01*
X124654201Y-130411338D01*
X125026167Y-130411662D01*
X125170083Y-130352197D01*
X125353521Y-130535956D01*
X125697049Y-130678602D01*
X126069015Y-130678926D01*
X126412791Y-130536881D01*
X126445966Y-130503764D01*
X129844236Y-130503764D01*
X130135075Y-130445912D01*
X130381637Y-130281165D01*
X130441680Y-130221122D01*
X130487167Y-130221162D01*
X130754500Y-130110703D01*
X130754500Y-135699500D01*
X130840897Y-136133846D01*
X131044910Y-136439173D01*
X131086934Y-136502066D01*
X131453000Y-136868132D01*
X131453000Y-138874500D01*
X131539397Y-139308846D01*
X131785434Y-139677066D01*
X132153654Y-139923103D01*
X132588000Y-140009500D01*
X133022346Y-139923103D01*
X133390566Y-139677066D01*
X133636603Y-139308846D01*
X133723000Y-138874500D01*
X133723000Y-136398000D01*
X133636603Y-135963654D01*
X133390566Y-135595434D01*
X133024500Y-135229368D01*
X133024500Y-132770500D01*
X133197368Y-132770500D01*
X134120000Y-133693132D01*
X134120000Y-133794500D01*
X134206397Y-134228846D01*
X134452434Y-134597066D01*
X134820654Y-134843103D01*
X135255000Y-134929500D01*
X135689346Y-134843103D01*
X136057566Y-134597066D01*
X136303603Y-134228846D01*
X136352313Y-133983963D01*
X136465201Y-134030838D01*
X136837167Y-134031162D01*
X137180943Y-133889117D01*
X137214118Y-133856000D01*
X139255201Y-133856000D01*
X139306663Y-133907552D01*
X139650191Y-134050198D01*
X140022157Y-134050522D01*
X140152500Y-133996666D01*
X140152500Y-136478896D01*
X140086333Y-136478838D01*
X139742557Y-136620883D01*
X139479308Y-136883673D01*
X139337368Y-137225500D01*
X138674963Y-137225500D01*
X138642827Y-137193308D01*
X138299299Y-137050662D01*
X137927333Y-137050338D01*
X137583557Y-137192383D01*
X137320308Y-137455173D01*
X137177662Y-137798701D01*
X137177338Y-138170667D01*
X137319383Y-138514443D01*
X137582173Y-138777692D01*
X137925701Y-138920338D01*
X138297667Y-138920662D01*
X138641443Y-138778617D01*
X138674618Y-138745500D01*
X139700000Y-138745500D01*
X139990839Y-138687648D01*
X140237401Y-138522901D01*
X140411180Y-138349122D01*
X140456667Y-138349162D01*
X140724000Y-138238703D01*
X140724000Y-139382500D01*
X140810397Y-139816846D01*
X141056434Y-140185066D01*
X141424654Y-140431103D01*
X141859000Y-140517500D01*
X142293346Y-140431103D01*
X142661566Y-140185066D01*
X142907603Y-139816846D01*
X142994000Y-139382500D01*
X142994000Y-137731500D01*
X142907603Y-137297154D01*
X142661566Y-136928934D01*
X142422500Y-136689868D01*
X142422500Y-133580633D01*
X142602930Y-133580790D01*
X142946706Y-133438745D01*
X143209955Y-133175955D01*
X143352601Y-132832427D01*
X143352925Y-132460461D01*
X143210880Y-132116685D01*
X143177763Y-132083510D01*
X143177763Y-131293987D01*
X143219161Y-131321648D01*
X143510000Y-131379500D01*
X144528698Y-131379500D01*
X147227099Y-134077901D01*
X147473661Y-134242648D01*
X147764500Y-134300500D01*
X148145500Y-134300500D01*
X148436339Y-134242648D01*
X148682901Y-134077901D01*
X149000401Y-133760401D01*
X149165148Y-133513839D01*
X149223000Y-133223000D01*
X149223000Y-132705963D01*
X149255192Y-132673827D01*
X149397838Y-132330299D01*
X149398162Y-131958333D01*
X149256117Y-131614557D01*
X149181930Y-131540240D01*
X149382192Y-131340327D01*
X149433487Y-131216796D01*
X149524999Y-131234999D01*
X152809802Y-131234999D01*
X152940983Y-131322651D01*
X153231822Y-131380503D01*
X154494497Y-131380503D01*
X154785336Y-131322651D01*
X155031898Y-131157904D01*
X155079680Y-131110122D01*
X155125167Y-131110162D01*
X155468943Y-130968117D01*
X155732192Y-130705327D01*
X155874838Y-130361799D01*
X155875162Y-129989833D01*
X155733117Y-129646057D01*
X155470327Y-129382808D01*
X155126799Y-129240162D01*
X154754833Y-129239838D01*
X154411057Y-129381883D01*
X154362989Y-129429867D01*
X154362129Y-129429006D01*
X154308648Y-129160140D01*
X154143901Y-128913578D01*
X153678824Y-128448501D01*
X154678699Y-128448501D01*
X156085000Y-129854802D01*
X156085000Y-135327537D01*
X156052808Y-135359673D01*
X155910162Y-135703201D01*
X155909838Y-136075167D01*
X156051883Y-136418943D01*
X156314673Y-136682192D01*
X156658201Y-136824838D01*
X157030167Y-136825162D01*
X157373943Y-136683117D01*
X157637192Y-136420327D01*
X157779838Y-136076799D01*
X157780162Y-135704833D01*
X157638117Y-135361057D01*
X157605000Y-135327882D01*
X157605000Y-130295302D01*
X157990000Y-130680302D01*
X157990000Y-136845198D01*
X156530198Y-138305000D01*
X155502463Y-138305000D01*
X155470327Y-138272808D01*
X155126799Y-138130162D01*
X154754833Y-138129838D01*
X154411057Y-138271883D01*
X154147808Y-138534673D01*
X154005162Y-138878201D01*
X154004838Y-139250167D01*
X154146883Y-139593943D01*
X154409673Y-139857192D01*
X154452304Y-139874894D01*
X150497599Y-143829599D01*
X150332852Y-144076161D01*
X150275000Y-144367000D01*
X150275000Y-145852666D01*
X150239000Y-145859440D01*
X150239000Y-139754463D01*
X150271192Y-139722327D01*
X150413838Y-139378799D01*
X150414162Y-139006833D01*
X150272117Y-138663057D01*
X150009327Y-138399808D01*
X149665799Y-138257162D01*
X149652041Y-138257150D01*
X149652162Y-138117833D01*
X149510117Y-137774057D01*
X149247327Y-137510808D01*
X149065495Y-137435304D01*
X149191692Y-137309327D01*
X149334338Y-136965799D01*
X149334662Y-136593833D01*
X149192617Y-136250057D01*
X148929827Y-135986808D01*
X148586299Y-135844162D01*
X148214333Y-135843838D01*
X147870557Y-135985883D01*
X147607308Y-136248673D01*
X147464662Y-136592201D01*
X147464621Y-136639077D01*
X146243198Y-137860500D01*
X144580463Y-137860500D01*
X144548327Y-137828308D01*
X144204799Y-137685662D01*
X143832833Y-137685338D01*
X143489057Y-137827383D01*
X143225808Y-138090173D01*
X143083162Y-138433701D01*
X143082838Y-138805667D01*
X143224883Y-139149443D01*
X143487673Y-139412692D01*
X143831201Y-139555338D01*
X144203167Y-139555662D01*
X144546943Y-139413617D01*
X144580118Y-139380500D01*
X146558000Y-139380500D01*
X146848839Y-139322648D01*
X147095401Y-139157901D01*
X147781853Y-138471449D01*
X147781838Y-138488167D01*
X147923883Y-138831943D01*
X147957000Y-138865118D01*
X147957000Y-144535037D01*
X147924808Y-144567173D01*
X147782162Y-144910701D01*
X147781838Y-145282667D01*
X147923883Y-145626443D01*
X148186673Y-145889692D01*
X148530201Y-146032338D01*
X148719000Y-146032502D01*
X148719000Y-151447500D01*
X148776852Y-151738339D01*
X148941599Y-151984901D01*
X150592599Y-153635901D01*
X150839161Y-153800648D01*
X151130000Y-153858500D01*
X163576000Y-153858500D01*
X163866839Y-153800648D01*
X164113401Y-153635901D01*
X164443285Y-153306017D01*
X164497383Y-153436943D01*
X164760173Y-153700192D01*
X165103701Y-153842838D01*
X165475667Y-153843162D01*
X165819443Y-153701117D01*
X166082692Y-153438327D01*
X166225338Y-153094799D01*
X166225379Y-153047923D01*
X166780401Y-152492901D01*
X166945148Y-152246340D01*
X166963922Y-152151955D01*
X167003000Y-151955500D01*
X167003000Y-150985444D01*
X167253667Y-150985662D01*
X167597443Y-150843617D01*
X167860692Y-150580827D01*
X168003338Y-150237299D01*
X168003662Y-149865333D01*
X167861617Y-149521557D01*
X167828500Y-149488382D01*
X167828500Y-121729500D01*
X167770648Y-121438661D01*
X167605901Y-121192099D01*
X167066500Y-120652698D01*
X167066500Y-119561463D01*
X167098692Y-119529327D01*
X167241338Y-119185799D01*
X167241662Y-118813833D01*
X167099617Y-118470057D01*
X166836827Y-118206808D01*
X166493299Y-118064162D01*
X166121333Y-118063838D01*
X165777557Y-118205883D01*
X165514308Y-118468673D01*
X165371662Y-118812201D01*
X165371338Y-119184167D01*
X165513383Y-119527943D01*
X165546500Y-119561118D01*
X165546500Y-120967500D01*
X165604352Y-121258339D01*
X165769099Y-121504901D01*
X165800050Y-121535852D01*
X165714057Y-121571383D01*
X165611281Y-121673979D01*
X163224401Y-119287099D01*
X162977839Y-119122352D01*
X162687000Y-119064500D01*
X161788963Y-119064500D01*
X161756827Y-119032308D01*
X161413299Y-118889662D01*
X161041333Y-118889338D01*
X160697557Y-119031383D01*
X160435893Y-119292591D01*
X160049401Y-118906099D01*
X159802839Y-118741352D01*
X159512000Y-118683500D01*
X134112000Y-118683500D01*
X133821160Y-118741352D01*
X133574599Y-118906099D01*
X132067320Y-120413378D01*
X132021833Y-120413338D01*
X131678057Y-120555383D01*
X131414808Y-120818173D01*
X131272162Y-121161701D01*
X131271838Y-121533667D01*
X131303585Y-121610500D01*
X112865132Y-121610500D01*
X110975066Y-119720434D01*
X110851247Y-119637701D01*
X110606846Y-119474397D01*
X110172500Y-119388000D01*
X107188000Y-119388000D01*
X106753655Y-119474396D01*
X106385434Y-119720434D01*
X104734434Y-121371434D01*
X104488397Y-121739654D01*
X104402000Y-122174000D01*
X101040000Y-122174000D01*
X101040000Y-119293092D01*
X103164091Y-117169000D01*
X166710908Y-117169000D01*
X168835000Y-119293091D01*
X168835000Y-119293091D01*
G37*
X168835000Y-119293091D02*
X168835000Y-152359909D01*
X166710908Y-154484000D01*
X103164091Y-154484000D01*
X101040000Y-152359908D01*
X101040000Y-122174000D01*
X104402000Y-122174000D01*
X104402000Y-150900491D01*
X104488397Y-151334837D01*
X104636950Y-151557162D01*
X104734434Y-151703057D01*
X106358953Y-153327576D01*
X106727173Y-153573613D01*
X107161519Y-153660010D01*
X116333990Y-153660010D01*
X116768336Y-153573613D01*
X117136556Y-153327576D01*
X123212560Y-147251572D01*
X123212560Y-148170000D01*
X123256838Y-148405317D01*
X123395910Y-148621441D01*
X123608110Y-148766431D01*
X123860000Y-148817440D01*
X125060000Y-148817440D01*
X125295317Y-148773162D01*
X125511441Y-148634090D01*
X125610901Y-148488525D01*
X125987386Y-148740084D01*
X126460000Y-148834093D01*
X126932614Y-148740084D01*
X127333277Y-148472370D01*
X127460000Y-148282715D01*
X127586723Y-148472370D01*
X127987386Y-148740084D01*
X128460000Y-148834093D01*
X128932614Y-148740084D01*
X129333277Y-148472370D01*
X129462410Y-148279109D01*
X129630875Y-148501933D01*
X130050624Y-148748286D01*
X130142391Y-148763462D01*
X130333000Y-148638731D01*
X130333000Y-147447000D01*
X130587000Y-147447000D01*
X130587000Y-148638731D01*
X130777609Y-148763462D01*
X130869376Y-148748286D01*
X131289125Y-148501933D01*
X131582647Y-148113701D01*
X131705256Y-147642696D01*
X131542547Y-147447000D01*
X130587000Y-147447000D01*
X130333000Y-147447000D01*
X130313000Y-147447000D01*
X130313000Y-147193000D01*
X130333000Y-147193000D01*
X130333000Y-146001269D01*
X130587000Y-146001269D01*
X130587000Y-147193000D01*
X131542547Y-147193000D01*
X131705256Y-146997304D01*
X131582647Y-146526299D01*
X131540083Y-146470000D01*
X136167560Y-146470000D01*
X136167560Y-148170000D01*
X136211838Y-148405317D01*
X136350910Y-148621441D01*
X136563110Y-148766431D01*
X136815000Y-148817440D01*
X138015000Y-148817440D01*
X138250317Y-148773162D01*
X138466441Y-148634090D01*
X138565901Y-148488525D01*
X138942386Y-148740084D01*
X139415000Y-148834093D01*
X139887614Y-148740084D01*
X140288277Y-148472370D01*
X140415000Y-148282715D01*
X140541723Y-148472370D01*
X140942386Y-148740084D01*
X141415000Y-148834093D01*
X141887614Y-148740084D01*
X142288277Y-148472370D01*
X142415000Y-148282715D01*
X142541723Y-148472370D01*
X142942386Y-148740084D01*
X143415000Y-148834093D01*
X143887614Y-148740084D01*
X144288277Y-148472370D01*
X144417410Y-148279109D01*
X144585875Y-148501933D01*
X145005624Y-148748286D01*
X145097391Y-148763462D01*
X145288000Y-148638731D01*
X145288000Y-147447000D01*
X145542000Y-147447000D01*
X145542000Y-148638731D01*
X145732609Y-148763462D01*
X145824376Y-148748286D01*
X146244125Y-148501933D01*
X146537647Y-148113701D01*
X146660256Y-147642696D01*
X146497547Y-147447000D01*
X145542000Y-147447000D01*
X145288000Y-147447000D01*
X145268000Y-147447000D01*
X145268000Y-147193000D01*
X145288000Y-147193000D01*
X145288000Y-146001269D01*
X145542000Y-146001269D01*
X145542000Y-147193000D01*
X146497547Y-147193000D01*
X146660256Y-146997304D01*
X146537647Y-146526299D01*
X146244125Y-146138067D01*
X145824376Y-145891714D01*
X145732609Y-145876538D01*
X145542000Y-146001269D01*
X145288000Y-146001269D01*
X145097391Y-145876538D01*
X145005624Y-145891714D01*
X144585875Y-146138067D01*
X144417410Y-146360891D01*
X144288277Y-146167630D01*
X143887614Y-145899916D01*
X143415000Y-145805907D01*
X142942386Y-145899916D01*
X142541723Y-146167630D01*
X142415000Y-146357285D01*
X142288277Y-146167630D01*
X141887614Y-145899916D01*
X141415000Y-145805907D01*
X140942386Y-145899916D01*
X140541723Y-146167630D01*
X140415000Y-146357285D01*
X140288277Y-146167630D01*
X139887614Y-145899916D01*
X139415000Y-145805907D01*
X138942386Y-145899916D01*
X138565004Y-146152074D01*
X138479090Y-146018559D01*
X138266890Y-145873569D01*
X138015000Y-145822560D01*
X136815000Y-145822560D01*
X136579683Y-145866838D01*
X136363559Y-146005910D01*
X136218569Y-146218110D01*
X136167560Y-146470000D01*
X131540083Y-146470000D01*
X131289125Y-146138067D01*
X130869376Y-145891714D01*
X130777609Y-145876538D01*
X130587000Y-146001269D01*
X130333000Y-146001269D01*
X130142391Y-145876538D01*
X130050624Y-145891714D01*
X129630875Y-146138067D01*
X129462410Y-146360891D01*
X129333277Y-146167630D01*
X128932614Y-145899916D01*
X128460000Y-145805907D01*
X127987386Y-145899916D01*
X127586723Y-146167630D01*
X127460000Y-146357285D01*
X127333277Y-146167630D01*
X126932614Y-145899916D01*
X126460000Y-145805907D01*
X125987386Y-145899916D01*
X125610004Y-146152074D01*
X125524090Y-146018559D01*
X125311890Y-145873569D01*
X125060000Y-145822560D01*
X124641572Y-145822560D01*
X125072066Y-145392066D01*
X125086248Y-145370841D01*
X125318103Y-145023846D01*
X125404500Y-144589500D01*
X125404500Y-143922829D01*
X125719846Y-143860103D01*
X126088066Y-143614066D01*
X126770825Y-142931307D01*
X127016862Y-142563086D01*
X127103259Y-142128741D01*
X127061837Y-141920500D01*
X127217549Y-141920500D01*
X127249685Y-141952692D01*
X127593213Y-142095338D01*
X127965179Y-142095662D01*
X128308955Y-141953617D01*
X128572204Y-141690827D01*
X128714850Y-141347299D01*
X128715174Y-140975333D01*
X128573129Y-140631557D01*
X128310339Y-140368308D01*
X127966811Y-140225662D01*
X127594845Y-140225338D01*
X127251069Y-140367383D01*
X127217894Y-140400500D01*
X127042483Y-140400500D01*
X127010347Y-140368308D01*
X126666819Y-140225662D01*
X126294853Y-140225338D01*
X125951077Y-140367383D01*
X125687828Y-140630173D01*
X125549709Y-140962800D01*
X125438664Y-140984888D01*
X125070443Y-141230925D01*
X124824406Y-141599146D01*
X124809019Y-141676500D01*
X124739633Y-141676500D01*
X123992566Y-140929434D01*
X123624345Y-140683397D01*
X123190000Y-140597000D01*
X122755655Y-140683397D01*
X122387434Y-140929434D01*
X122141397Y-141297655D01*
X122055000Y-141732000D01*
X122141397Y-142166345D01*
X122387434Y-142534566D01*
X123134500Y-143281633D01*
X123134500Y-144119368D01*
X120271395Y-146982473D01*
X120152647Y-146526299D01*
X119859125Y-146138067D01*
X119439376Y-145891714D01*
X119347609Y-145876538D01*
X119157000Y-146001269D01*
X119157000Y-147193000D01*
X119177000Y-147193000D01*
X119177000Y-147447000D01*
X119157000Y-147447000D01*
X119157000Y-147467000D01*
X118903000Y-147467000D01*
X118903000Y-147447000D01*
X118883000Y-147447000D01*
X118883000Y-147193000D01*
X118903000Y-147193000D01*
X118903000Y-146001269D01*
X118712391Y-145876538D01*
X118620624Y-145891714D01*
X118200875Y-146138067D01*
X118032410Y-146360891D01*
X117903277Y-146167630D01*
X117502614Y-145899916D01*
X117030000Y-145805907D01*
X116557386Y-145899916D01*
X116156723Y-146167630D01*
X116030000Y-146357285D01*
X115903277Y-146167630D01*
X115502614Y-145899916D01*
X115030000Y-145805907D01*
X114557386Y-145899916D01*
X114180004Y-146152074D01*
X114094090Y-146018559D01*
X113881890Y-145873569D01*
X113630000Y-145822560D01*
X112430000Y-145822560D01*
X112194683Y-145866838D01*
X111978559Y-146005910D01*
X111833569Y-146218110D01*
X111782560Y-146470000D01*
X111782560Y-148170000D01*
X111826838Y-148405317D01*
X111965910Y-148621441D01*
X112178110Y-148766431D01*
X112430000Y-148817440D01*
X113630000Y-148817440D01*
X113865317Y-148773162D01*
X114081441Y-148634090D01*
X114180901Y-148488525D01*
X114557386Y-148740084D01*
X115030000Y-148834093D01*
X115502614Y-148740084D01*
X115903277Y-148472370D01*
X116030000Y-148282715D01*
X116156723Y-148472370D01*
X116557386Y-148740084D01*
X117030000Y-148834093D01*
X117502614Y-148740084D01*
X117903277Y-148472370D01*
X118032410Y-148279109D01*
X118200875Y-148501933D01*
X118548129Y-148705739D01*
X115863858Y-151390010D01*
X109293604Y-151390010D01*
X109268731Y-151352000D01*
X108077000Y-151352000D01*
X108077000Y-151372000D01*
X107823000Y-151372000D01*
X107823000Y-151352000D01*
X107803000Y-151352000D01*
X107803000Y-151098000D01*
X107823000Y-151098000D01*
X107823000Y-151078000D01*
X108077000Y-151078000D01*
X108077000Y-151098000D01*
X109268731Y-151098000D01*
X109393462Y-150907391D01*
X109378286Y-150815624D01*
X109131933Y-150395875D01*
X108909109Y-150227410D01*
X109102370Y-150098277D01*
X109370084Y-149697614D01*
X109464093Y-149225000D01*
X109370084Y-148752386D01*
X109102370Y-148351723D01*
X108912715Y-148225000D01*
X109102370Y-148098277D01*
X109370084Y-147697614D01*
X109464093Y-147225000D01*
X109370084Y-146752386D01*
X109117926Y-146375004D01*
X109251441Y-146289090D01*
X109396431Y-146076890D01*
X109447440Y-145825000D01*
X109447440Y-144625000D01*
X109403162Y-144389683D01*
X109264090Y-144173559D01*
X109051890Y-144028569D01*
X108800000Y-143977560D01*
X107100000Y-143977560D01*
X106864683Y-144021838D01*
X106672000Y-144145826D01*
X106672000Y-143060167D01*
X112475838Y-143060167D01*
X112617883Y-143403943D01*
X112880673Y-143667192D01*
X113224201Y-143809838D01*
X113596167Y-143810162D01*
X113939943Y-143668117D01*
X113973118Y-143635000D01*
X115617575Y-143635000D01*
X115908414Y-143577148D01*
X116154976Y-143412401D01*
X119990559Y-139576818D01*
X120036046Y-139576858D01*
X120379822Y-139434813D01*
X120643071Y-139172023D01*
X120785717Y-138828495D01*
X120786041Y-138456529D01*
X120643996Y-138112753D01*
X120381206Y-137849504D01*
X120037678Y-137706858D01*
X119665712Y-137706534D01*
X119321936Y-137848579D01*
X119058687Y-138111369D01*
X118916041Y-138454897D01*
X118916000Y-138501773D01*
X115302773Y-142115000D01*
X113973463Y-142115000D01*
X113941327Y-142082808D01*
X113597799Y-141940162D01*
X113225833Y-141939838D01*
X112882057Y-142081883D01*
X112618808Y-142344673D01*
X112476162Y-142688201D01*
X112475838Y-143060167D01*
X106672000Y-143060167D01*
X106672000Y-140460441D01*
X106768067Y-140624125D01*
X107156299Y-140917647D01*
X107627304Y-141040256D01*
X107823000Y-140877547D01*
X107823000Y-139922000D01*
X108077000Y-139922000D01*
X108077000Y-140877547D01*
X108272696Y-141040256D01*
X108743701Y-140917647D01*
X109131933Y-140624125D01*
X109378286Y-140204376D01*
X109393462Y-140112609D01*
X109268731Y-139922000D01*
X108077000Y-139922000D01*
X107823000Y-139922000D01*
X107803000Y-139922000D01*
X107803000Y-139668000D01*
X107823000Y-139668000D01*
X107823000Y-139648000D01*
X108077000Y-139648000D01*
X108077000Y-139668000D01*
X109268731Y-139668000D01*
X109393462Y-139477391D01*
X109378286Y-139385624D01*
X109131933Y-138965875D01*
X108909109Y-138797410D01*
X109102370Y-138668277D01*
X109370084Y-138267614D01*
X109464093Y-137795000D01*
X109370084Y-137322386D01*
X109102370Y-136921723D01*
X108912715Y-136795000D01*
X109102370Y-136668277D01*
X109370084Y-136267614D01*
X109464093Y-135795000D01*
X109370084Y-135322386D01*
X109117926Y-134945004D01*
X109251441Y-134859090D01*
X109396431Y-134646890D01*
X109447440Y-134395000D01*
X109447440Y-133912572D01*
X109672500Y-134137632D01*
X109672500Y-136080500D01*
X109758897Y-136514846D01*
X110004934Y-136883066D01*
X110373154Y-137129103D01*
X110807500Y-137215500D01*
X111241846Y-137129103D01*
X111610066Y-136883066D01*
X111856103Y-136514846D01*
X111942500Y-136080500D01*
X111942500Y-135316500D01*
X113667698Y-135316500D01*
X114578608Y-136227410D01*
X114825170Y-136392157D01*
X115116009Y-136450009D01*
X117833638Y-136450009D01*
X117865774Y-136482201D01*
X118209302Y-136624847D01*
X118581268Y-136625171D01*
X118925044Y-136483126D01*
X119188293Y-136220336D01*
X119330939Y-135876808D01*
X119331263Y-135504842D01*
X119189218Y-135161066D01*
X118926428Y-134897817D01*
X118582900Y-134755171D01*
X118210934Y-134754847D01*
X117867158Y-134896892D01*
X117833983Y-134930009D01*
X115430811Y-134930009D01*
X114519901Y-134019099D01*
X114273339Y-133854352D01*
X113982500Y-133796500D01*
X111942500Y-133796500D01*
X111942500Y-133667500D01*
X111910613Y-133507192D01*
X111856104Y-133233155D01*
X111610066Y-132864934D01*
X108199679Y-129454547D01*
X108272696Y-129515256D01*
X108743701Y-129392647D01*
X109131933Y-129099125D01*
X109378286Y-128679376D01*
X109393462Y-128587609D01*
X109268731Y-128397000D01*
X108077000Y-128397000D01*
X108077000Y-128417000D01*
X107823000Y-128417000D01*
X107823000Y-128397000D01*
X107803000Y-128397000D01*
X107803000Y-128143000D01*
X107823000Y-128143000D01*
X107823000Y-128123000D01*
X108077000Y-128123000D01*
X108077000Y-128143000D01*
X109268731Y-128143000D01*
X109393462Y-127952391D01*
X109378286Y-127860624D01*
X109131933Y-127440875D01*
X108909109Y-127272410D01*
X109102370Y-127143277D01*
X109370084Y-126742614D01*
X109464093Y-126270000D01*
X109370084Y-125797386D01*
X109116384Y-125417696D01*
X111689744Y-125417696D01*
X111812353Y-125888701D01*
X112105875Y-126276933D01*
X112525624Y-126523286D01*
X112617391Y-126538462D01*
X112808000Y-126413731D01*
X112808000Y-125222000D01*
X111852453Y-125222000D01*
X111689744Y-125417696D01*
X109116384Y-125417696D01*
X109102370Y-125396723D01*
X108912715Y-125270000D01*
X109102370Y-125143277D01*
X109370084Y-124742614D01*
X109464093Y-124270000D01*
X109370084Y-123797386D01*
X109117926Y-123420004D01*
X109251441Y-123334090D01*
X109396431Y-123121890D01*
X109447440Y-122870000D01*
X109447440Y-121670000D01*
X109445182Y-121658000D01*
X109702368Y-121658000D01*
X111592434Y-123548066D01*
X111960655Y-123794104D01*
X112220504Y-123845791D01*
X112105875Y-123913067D01*
X111812353Y-124301299D01*
X111689744Y-124772304D01*
X111852453Y-124968000D01*
X112808000Y-124968000D01*
X112808000Y-124948000D01*
X113062000Y-124948000D01*
X113062000Y-124968000D01*
X113082000Y-124968000D01*
X113082000Y-125222000D01*
X113062000Y-125222000D01*
X113062000Y-126413731D01*
X113252609Y-126538462D01*
X113344376Y-126523286D01*
X113377345Y-126503936D01*
X113301662Y-126686201D01*
X113301338Y-127058167D01*
X113443383Y-127401943D01*
X113706173Y-127665192D01*
X114049701Y-127807838D01*
X114096577Y-127807879D01*
X116323311Y-130034613D01*
X116569872Y-130199360D01*
X116860712Y-130257212D01*
X119354296Y-130257212D01*
X119334162Y-130305701D01*
X119333838Y-130677667D01*
X119475883Y-131021443D01*
X119738673Y-131284692D01*
X120082201Y-131427338D01*
X120454167Y-131427662D01*
X120797943Y-131285617D01*
X121061192Y-131022827D01*
X121124029Y-130871500D01*
X123698000Y-130871500D01*
X123988839Y-130813648D01*
X124235401Y-130648901D01*
X124526140Y-130358162D01*
X124654201Y-130411338D01*
X125026167Y-130411662D01*
X125170083Y-130352197D01*
X125353521Y-130535956D01*
X125697049Y-130678602D01*
X126069015Y-130678926D01*
X126412791Y-130536881D01*
X126445966Y-130503764D01*
X129844236Y-130503764D01*
X130135075Y-130445912D01*
X130381637Y-130281165D01*
X130441680Y-130221122D01*
X130487167Y-130221162D01*
X130754500Y-130110703D01*
X130754500Y-135699500D01*
X130840897Y-136133846D01*
X131044910Y-136439173D01*
X131086934Y-136502066D01*
X131453000Y-136868132D01*
X131453000Y-138874500D01*
X131539397Y-139308846D01*
X131785434Y-139677066D01*
X132153654Y-139923103D01*
X132588000Y-140009500D01*
X133022346Y-139923103D01*
X133390566Y-139677066D01*
X133636603Y-139308846D01*
X133723000Y-138874500D01*
X133723000Y-136398000D01*
X133636603Y-135963654D01*
X133390566Y-135595434D01*
X133024500Y-135229368D01*
X133024500Y-132770500D01*
X133197368Y-132770500D01*
X134120000Y-133693132D01*
X134120000Y-133794500D01*
X134206397Y-134228846D01*
X134452434Y-134597066D01*
X134820654Y-134843103D01*
X135255000Y-134929500D01*
X135689346Y-134843103D01*
X136057566Y-134597066D01*
X136303603Y-134228846D01*
X136352313Y-133983963D01*
X136465201Y-134030838D01*
X136837167Y-134031162D01*
X137180943Y-133889117D01*
X137214118Y-133856000D01*
X139255201Y-133856000D01*
X139306663Y-133907552D01*
X139650191Y-134050198D01*
X140022157Y-134050522D01*
X140152500Y-133996666D01*
X140152500Y-136478896D01*
X140086333Y-136478838D01*
X139742557Y-136620883D01*
X139479308Y-136883673D01*
X139337368Y-137225500D01*
X138674963Y-137225500D01*
X138642827Y-137193308D01*
X138299299Y-137050662D01*
X137927333Y-137050338D01*
X137583557Y-137192383D01*
X137320308Y-137455173D01*
X137177662Y-137798701D01*
X137177338Y-138170667D01*
X137319383Y-138514443D01*
X137582173Y-138777692D01*
X137925701Y-138920338D01*
X138297667Y-138920662D01*
X138641443Y-138778617D01*
X138674618Y-138745500D01*
X139700000Y-138745500D01*
X139990839Y-138687648D01*
X140237401Y-138522901D01*
X140411180Y-138349122D01*
X140456667Y-138349162D01*
X140724000Y-138238703D01*
X140724000Y-139382500D01*
X140810397Y-139816846D01*
X141056434Y-140185066D01*
X141424654Y-140431103D01*
X141859000Y-140517500D01*
X142293346Y-140431103D01*
X142661566Y-140185066D01*
X142907603Y-139816846D01*
X142994000Y-139382500D01*
X142994000Y-137731500D01*
X142907603Y-137297154D01*
X142661566Y-136928934D01*
X142422500Y-136689868D01*
X142422500Y-133580633D01*
X142602930Y-133580790D01*
X142946706Y-133438745D01*
X143209955Y-133175955D01*
X143352601Y-132832427D01*
X143352925Y-132460461D01*
X143210880Y-132116685D01*
X143177763Y-132083510D01*
X143177763Y-131293987D01*
X143219161Y-131321648D01*
X143510000Y-131379500D01*
X144528698Y-131379500D01*
X147227099Y-134077901D01*
X147473661Y-134242648D01*
X147764500Y-134300500D01*
X148145500Y-134300500D01*
X148436339Y-134242648D01*
X148682901Y-134077901D01*
X149000401Y-133760401D01*
X149165148Y-133513839D01*
X149223000Y-133223000D01*
X149223000Y-132705963D01*
X149255192Y-132673827D01*
X149397838Y-132330299D01*
X149398162Y-131958333D01*
X149256117Y-131614557D01*
X149181930Y-131540240D01*
X149382192Y-131340327D01*
X149433487Y-131216796D01*
X149524999Y-131234999D01*
X152809802Y-131234999D01*
X152940983Y-131322651D01*
X153231822Y-131380503D01*
X154494497Y-131380503D01*
X154785336Y-131322651D01*
X155031898Y-131157904D01*
X155079680Y-131110122D01*
X155125167Y-131110162D01*
X155468943Y-130968117D01*
X155732192Y-130705327D01*
X155874838Y-130361799D01*
X155875162Y-129989833D01*
X155733117Y-129646057D01*
X155470327Y-129382808D01*
X155126799Y-129240162D01*
X154754833Y-129239838D01*
X154411057Y-129381883D01*
X154362989Y-129429867D01*
X154362129Y-129429006D01*
X154308648Y-129160140D01*
X154143901Y-128913578D01*
X153678824Y-128448501D01*
X154678699Y-128448501D01*
X156085000Y-129854802D01*
X156085000Y-135327537D01*
X156052808Y-135359673D01*
X155910162Y-135703201D01*
X155909838Y-136075167D01*
X156051883Y-136418943D01*
X156314673Y-136682192D01*
X156658201Y-136824838D01*
X157030167Y-136825162D01*
X157373943Y-136683117D01*
X157637192Y-136420327D01*
X157779838Y-136076799D01*
X157780162Y-135704833D01*
X157638117Y-135361057D01*
X157605000Y-135327882D01*
X157605000Y-130295302D01*
X157990000Y-130680302D01*
X157990000Y-136845198D01*
X156530198Y-138305000D01*
X155502463Y-138305000D01*
X155470327Y-138272808D01*
X155126799Y-138130162D01*
X154754833Y-138129838D01*
X154411057Y-138271883D01*
X154147808Y-138534673D01*
X154005162Y-138878201D01*
X154004838Y-139250167D01*
X154146883Y-139593943D01*
X154409673Y-139857192D01*
X154452304Y-139874894D01*
X150497599Y-143829599D01*
X150332852Y-144076161D01*
X150275000Y-144367000D01*
X150275000Y-145852666D01*
X150239000Y-145859440D01*
X150239000Y-139754463D01*
X150271192Y-139722327D01*
X150413838Y-139378799D01*
X150414162Y-139006833D01*
X150272117Y-138663057D01*
X150009327Y-138399808D01*
X149665799Y-138257162D01*
X149652041Y-138257150D01*
X149652162Y-138117833D01*
X149510117Y-137774057D01*
X149247327Y-137510808D01*
X149065495Y-137435304D01*
X149191692Y-137309327D01*
X149334338Y-136965799D01*
X149334662Y-136593833D01*
X149192617Y-136250057D01*
X148929827Y-135986808D01*
X148586299Y-135844162D01*
X148214333Y-135843838D01*
X147870557Y-135985883D01*
X147607308Y-136248673D01*
X147464662Y-136592201D01*
X147464621Y-136639077D01*
X146243198Y-137860500D01*
X144580463Y-137860500D01*
X144548327Y-137828308D01*
X144204799Y-137685662D01*
X143832833Y-137685338D01*
X143489057Y-137827383D01*
X143225808Y-138090173D01*
X143083162Y-138433701D01*
X143082838Y-138805667D01*
X143224883Y-139149443D01*
X143487673Y-139412692D01*
X143831201Y-139555338D01*
X144203167Y-139555662D01*
X144546943Y-139413617D01*
X144580118Y-139380500D01*
X146558000Y-139380500D01*
X146848839Y-139322648D01*
X147095401Y-139157901D01*
X147781853Y-138471449D01*
X147781838Y-138488167D01*
X147923883Y-138831943D01*
X147957000Y-138865118D01*
X147957000Y-144535037D01*
X147924808Y-144567173D01*
X147782162Y-144910701D01*
X147781838Y-145282667D01*
X147923883Y-145626443D01*
X148186673Y-145889692D01*
X148530201Y-146032338D01*
X148719000Y-146032502D01*
X148719000Y-151447500D01*
X148776852Y-151738339D01*
X148941599Y-151984901D01*
X150592599Y-153635901D01*
X150839161Y-153800648D01*
X151130000Y-153858500D01*
X163576000Y-153858500D01*
X163866839Y-153800648D01*
X164113401Y-153635901D01*
X164443285Y-153306017D01*
X164497383Y-153436943D01*
X164760173Y-153700192D01*
X165103701Y-153842838D01*
X165475667Y-153843162D01*
X165819443Y-153701117D01*
X166082692Y-153438327D01*
X166225338Y-153094799D01*
X166225379Y-153047923D01*
X166780401Y-152492901D01*
X166945148Y-152246340D01*
X166963922Y-152151955D01*
X167003000Y-151955500D01*
X167003000Y-150985444D01*
X167253667Y-150985662D01*
X167597443Y-150843617D01*
X167860692Y-150580827D01*
X168003338Y-150237299D01*
X168003662Y-149865333D01*
X167861617Y-149521557D01*
X167828500Y-149488382D01*
X167828500Y-121729500D01*
X167770648Y-121438661D01*
X167605901Y-121192099D01*
X167066500Y-120652698D01*
X167066500Y-119561463D01*
X167098692Y-119529327D01*
X167241338Y-119185799D01*
X167241662Y-118813833D01*
X167099617Y-118470057D01*
X166836827Y-118206808D01*
X166493299Y-118064162D01*
X166121333Y-118063838D01*
X165777557Y-118205883D01*
X165514308Y-118468673D01*
X165371662Y-118812201D01*
X165371338Y-119184167D01*
X165513383Y-119527943D01*
X165546500Y-119561118D01*
X165546500Y-120967500D01*
X165604352Y-121258339D01*
X165769099Y-121504901D01*
X165800050Y-121535852D01*
X165714057Y-121571383D01*
X165611281Y-121673979D01*
X163224401Y-119287099D01*
X162977839Y-119122352D01*
X162687000Y-119064500D01*
X161788963Y-119064500D01*
X161756827Y-119032308D01*
X161413299Y-118889662D01*
X161041333Y-118889338D01*
X160697557Y-119031383D01*
X160435893Y-119292591D01*
X160049401Y-118906099D01*
X159802839Y-118741352D01*
X159512000Y-118683500D01*
X134112000Y-118683500D01*
X133821160Y-118741352D01*
X133574599Y-118906099D01*
X132067320Y-120413378D01*
X132021833Y-120413338D01*
X131678057Y-120555383D01*
X131414808Y-120818173D01*
X131272162Y-121161701D01*
X131271838Y-121533667D01*
X131303585Y-121610500D01*
X112865132Y-121610500D01*
X110975066Y-119720434D01*
X110851247Y-119637701D01*
X110606846Y-119474397D01*
X110172500Y-119388000D01*
X107188000Y-119388000D01*
X106753655Y-119474396D01*
X106385434Y-119720434D01*
X104734434Y-121371434D01*
X104488397Y-121739654D01*
X104402000Y-122174000D01*
X101040000Y-122174000D01*
X101040000Y-119293092D01*
X103164091Y-117169000D01*
X166710908Y-117169000D01*
X168835000Y-119293091D01*
G36*
X163172673Y-145572192D02*
X163451000Y-145687764D01*
X163451000Y-149821367D01*
X163127799Y-149687162D01*
X162788551Y-149686866D01*
X162710084Y-149292386D01*
X162442370Y-148891723D01*
X162249109Y-148762590D01*
X162471933Y-148594125D01*
X162718286Y-148174376D01*
X162733462Y-148082609D01*
X162608731Y-147892000D01*
X161417000Y-147892000D01*
X161417000Y-147912000D01*
X161163000Y-147912000D01*
X161163000Y-147892000D01*
X159971269Y-147892000D01*
X159846538Y-148082609D01*
X159861714Y-148174376D01*
X160108067Y-148594125D01*
X160330891Y-148762590D01*
X160137630Y-148891723D01*
X159869916Y-149292386D01*
X159775907Y-149765000D01*
X159808730Y-149930010D01*
X156469812Y-149930010D01*
X155317669Y-148777867D01*
X155507614Y-148740084D01*
X155908277Y-148472370D01*
X155994382Y-148343504D01*
X156086701Y-148381838D01*
X156458667Y-148382162D01*
X156802443Y-148240117D01*
X157065692Y-147977327D01*
X157208338Y-147633799D01*
X157208500Y-147447391D01*
X159846538Y-147447391D01*
X159971269Y-147638000D01*
X161163000Y-147638000D01*
X161163000Y-146682453D01*
X161417000Y-146682453D01*
X161417000Y-147638000D01*
X162608731Y-147638000D01*
X162733462Y-147447391D01*
X162718286Y-147355624D01*
X162471933Y-146935875D01*
X162083701Y-146642353D01*
X161612696Y-146519744D01*
X161417000Y-146682453D01*
X161163000Y-146682453D01*
X160967304Y-146519744D01*
X160496299Y-146642353D01*
X160108067Y-146935875D01*
X159861714Y-147355624D01*
X159846538Y-147447391D01*
X157208500Y-147447391D01*
X157208662Y-147261833D01*
X157066617Y-146918057D01*
X157033500Y-146884882D01*
X157033500Y-145540000D01*
X163140537Y-145540000D01*
X163172673Y-145572192D01*
X163172673Y-145572192D01*
G37*
X163172673Y-145572192D02*
X163451000Y-145687764D01*
X163451000Y-149821367D01*
X163127799Y-149687162D01*
X162788551Y-149686866D01*
X162710084Y-149292386D01*
X162442370Y-148891723D01*
X162249109Y-148762590D01*
X162471933Y-148594125D01*
X162718286Y-148174376D01*
X162733462Y-148082609D01*
X162608731Y-147892000D01*
X161417000Y-147892000D01*
X161417000Y-147912000D01*
X161163000Y-147912000D01*
X161163000Y-147892000D01*
X159971269Y-147892000D01*
X159846538Y-148082609D01*
X159861714Y-148174376D01*
X160108067Y-148594125D01*
X160330891Y-148762590D01*
X160137630Y-148891723D01*
X159869916Y-149292386D01*
X159775907Y-149765000D01*
X159808730Y-149930010D01*
X156469812Y-149930010D01*
X155317669Y-148777867D01*
X155507614Y-148740084D01*
X155908277Y-148472370D01*
X155994382Y-148343504D01*
X156086701Y-148381838D01*
X156458667Y-148382162D01*
X156802443Y-148240117D01*
X157065692Y-147977327D01*
X157208338Y-147633799D01*
X157208500Y-147447391D01*
X159846538Y-147447391D01*
X159971269Y-147638000D01*
X161163000Y-147638000D01*
X161163000Y-146682453D01*
X161417000Y-146682453D01*
X161417000Y-147638000D01*
X162608731Y-147638000D01*
X162733462Y-147447391D01*
X162718286Y-147355624D01*
X162471933Y-146935875D01*
X162083701Y-146642353D01*
X161612696Y-146519744D01*
X161417000Y-146682453D01*
X161163000Y-146682453D01*
X160967304Y-146519744D01*
X160496299Y-146642353D01*
X160108067Y-146935875D01*
X159861714Y-147355624D01*
X159846538Y-147447391D01*
X157208500Y-147447391D01*
X157208662Y-147261833D01*
X157066617Y-146918057D01*
X157033500Y-146884882D01*
X157033500Y-145540000D01*
X163140537Y-145540000D01*
X163172673Y-145572192D01*
G36*
X162211383Y-127020943D02*
X162474173Y-127284192D01*
X162817701Y-127426838D01*
X162943000Y-127426947D01*
X162943000Y-141547200D01*
X162787440Y-141702760D01*
X162787440Y-141640000D01*
X162743162Y-141404683D01*
X162604090Y-141188559D01*
X162458525Y-141089099D01*
X162710084Y-140712614D01*
X162804093Y-140240000D01*
X162710084Y-139767386D01*
X162442370Y-139366723D01*
X162249109Y-139237590D01*
X162471933Y-139069125D01*
X162718286Y-138649376D01*
X162733462Y-138557609D01*
X162608731Y-138367000D01*
X161417000Y-138367000D01*
X161417000Y-138387000D01*
X161163000Y-138387000D01*
X161163000Y-138367000D01*
X161143000Y-138367000D01*
X161143000Y-138113000D01*
X161163000Y-138113000D01*
X161163000Y-137157453D01*
X161417000Y-137157453D01*
X161417000Y-138113000D01*
X162608731Y-138113000D01*
X162733462Y-137922391D01*
X162718286Y-137830624D01*
X162471933Y-137410875D01*
X162083701Y-137117353D01*
X161612696Y-136994744D01*
X161417000Y-137157453D01*
X161163000Y-137157453D01*
X160967304Y-136994744D01*
X160496299Y-137117353D01*
X160145000Y-137382952D01*
X160145000Y-134547463D01*
X160177192Y-134515327D01*
X160319838Y-134171799D01*
X160320162Y-133799833D01*
X160178117Y-133456057D01*
X159915327Y-133192808D01*
X159571799Y-133050162D01*
X159510000Y-133050108D01*
X159510000Y-132998803D01*
X159675156Y-132998947D01*
X159854157Y-132924985D01*
X159901673Y-133039698D01*
X160080301Y-133218327D01*
X160313690Y-133315000D01*
X161004250Y-133315000D01*
X161163000Y-133156250D01*
X161163000Y-132207000D01*
X161417000Y-132207000D01*
X161417000Y-133156250D01*
X161575750Y-133315000D01*
X162266310Y-133315000D01*
X162499699Y-133218327D01*
X162678327Y-133039698D01*
X162775000Y-132806309D01*
X162775000Y-132365750D01*
X162616250Y-132207000D01*
X161417000Y-132207000D01*
X161163000Y-132207000D01*
X161143000Y-132207000D01*
X161143000Y-131953000D01*
X161163000Y-131953000D01*
X161163000Y-131933000D01*
X161417000Y-131933000D01*
X161417000Y-131953000D01*
X162616250Y-131953000D01*
X162775000Y-131794250D01*
X162775000Y-131353691D01*
X162678327Y-131120302D01*
X162499699Y-130941673D01*
X162460870Y-130925590D01*
X162710084Y-130552614D01*
X162804093Y-130080000D01*
X162710084Y-129607386D01*
X162442370Y-129206723D01*
X162041707Y-128939009D01*
X161569093Y-128845000D01*
X161010907Y-128845000D01*
X160538293Y-128939009D01*
X160137630Y-129206723D01*
X160122390Y-129229531D01*
X160091403Y-129183155D01*
X160129338Y-129091799D01*
X160129662Y-128719833D01*
X159987617Y-128376057D01*
X159724827Y-128112808D01*
X159381299Y-127970162D01*
X159009333Y-127969838D01*
X158665557Y-128111883D01*
X158402308Y-128374673D01*
X158259662Y-128718201D01*
X158259590Y-128800288D01*
X158240000Y-128780698D01*
X158240000Y-127254000D01*
X158203929Y-127072662D01*
X158189078Y-126998000D01*
X162201903Y-126998000D01*
X162211383Y-127020943D01*
X162211383Y-127020943D01*
G37*
X162211383Y-127020943D02*
X162474173Y-127284192D01*
X162817701Y-127426838D01*
X162943000Y-127426947D01*
X162943000Y-141547200D01*
X162787440Y-141702760D01*
X162787440Y-141640000D01*
X162743162Y-141404683D01*
X162604090Y-141188559D01*
X162458525Y-141089099D01*
X162710084Y-140712614D01*
X162804093Y-140240000D01*
X162710084Y-139767386D01*
X162442370Y-139366723D01*
X162249109Y-139237590D01*
X162471933Y-139069125D01*
X162718286Y-138649376D01*
X162733462Y-138557609D01*
X162608731Y-138367000D01*
X161417000Y-138367000D01*
X161417000Y-138387000D01*
X161163000Y-138387000D01*
X161163000Y-138367000D01*
X161143000Y-138367000D01*
X161143000Y-138113000D01*
X161163000Y-138113000D01*
X161163000Y-137157453D01*
X161417000Y-137157453D01*
X161417000Y-138113000D01*
X162608731Y-138113000D01*
X162733462Y-137922391D01*
X162718286Y-137830624D01*
X162471933Y-137410875D01*
X162083701Y-137117353D01*
X161612696Y-136994744D01*
X161417000Y-137157453D01*
X161163000Y-137157453D01*
X160967304Y-136994744D01*
X160496299Y-137117353D01*
X160145000Y-137382952D01*
X160145000Y-134547463D01*
X160177192Y-134515327D01*
X160319838Y-134171799D01*
X160320162Y-133799833D01*
X160178117Y-133456057D01*
X159915327Y-133192808D01*
X159571799Y-133050162D01*
X159510000Y-133050108D01*
X159510000Y-132998803D01*
X159675156Y-132998947D01*
X159854157Y-132924985D01*
X159901673Y-133039698D01*
X160080301Y-133218327D01*
X160313690Y-133315000D01*
X161004250Y-133315000D01*
X161163000Y-133156250D01*
X161163000Y-132207000D01*
X161417000Y-132207000D01*
X161417000Y-133156250D01*
X161575750Y-133315000D01*
X162266310Y-133315000D01*
X162499699Y-133218327D01*
X162678327Y-133039698D01*
X162775000Y-132806309D01*
X162775000Y-132365750D01*
X162616250Y-132207000D01*
X161417000Y-132207000D01*
X161163000Y-132207000D01*
X161143000Y-132207000D01*
X161143000Y-131953000D01*
X161163000Y-131953000D01*
X161163000Y-131933000D01*
X161417000Y-131933000D01*
X161417000Y-131953000D01*
X162616250Y-131953000D01*
X162775000Y-131794250D01*
X162775000Y-131353691D01*
X162678327Y-131120302D01*
X162499699Y-130941673D01*
X162460870Y-130925590D01*
X162710084Y-130552614D01*
X162804093Y-130080000D01*
X162710084Y-129607386D01*
X162442370Y-129206723D01*
X162041707Y-128939009D01*
X161569093Y-128845000D01*
X161010907Y-128845000D01*
X160538293Y-128939009D01*
X160137630Y-129206723D01*
X160122390Y-129229531D01*
X160091403Y-129183155D01*
X160129338Y-129091799D01*
X160129662Y-128719833D01*
X159987617Y-128376057D01*
X159724827Y-128112808D01*
X159381299Y-127970162D01*
X159009333Y-127969838D01*
X158665557Y-128111883D01*
X158402308Y-128374673D01*
X158259662Y-128718201D01*
X158259590Y-128800288D01*
X158240000Y-128780698D01*
X158240000Y-127254000D01*
X158203929Y-127072662D01*
X158189078Y-126998000D01*
X162201903Y-126998000D01*
X162211383Y-127020943D01*
G36*
X121954099Y-124430599D02*
X121789352Y-124677161D01*
X121731500Y-124968000D01*
X121731500Y-128737212D01*
X117175514Y-128737212D01*
X115171622Y-126733320D01*
X115171662Y-126687833D01*
X115123625Y-126571573D01*
X115407614Y-126515084D01*
X115808277Y-126247370D01*
X115935000Y-126057715D01*
X116061723Y-126247370D01*
X116462386Y-126515084D01*
X116935000Y-126609093D01*
X117407614Y-126515084D01*
X117784996Y-126262926D01*
X117870910Y-126396441D01*
X118083110Y-126541431D01*
X118335000Y-126592440D01*
X119535000Y-126592440D01*
X119770317Y-126548162D01*
X119986441Y-126409090D01*
X120131431Y-126196890D01*
X120182440Y-125945000D01*
X120182440Y-124245000D01*
X120138162Y-124009683D01*
X120055035Y-123880500D01*
X122504198Y-123880500D01*
X121954099Y-124430599D01*
X121954099Y-124430599D01*
G37*
X121954099Y-124430599D02*
X121789352Y-124677161D01*
X121731500Y-124968000D01*
X121731500Y-128737212D01*
X117175514Y-128737212D01*
X115171622Y-126733320D01*
X115171662Y-126687833D01*
X115123625Y-126571573D01*
X115407614Y-126515084D01*
X115808277Y-126247370D01*
X115935000Y-126057715D01*
X116061723Y-126247370D01*
X116462386Y-126515084D01*
X116935000Y-126609093D01*
X117407614Y-126515084D01*
X117784996Y-126262926D01*
X117870910Y-126396441D01*
X118083110Y-126541431D01*
X118335000Y-126592440D01*
X119535000Y-126592440D01*
X119770317Y-126548162D01*
X119986441Y-126409090D01*
X120131431Y-126196890D01*
X120182440Y-125945000D01*
X120182440Y-124245000D01*
X120138162Y-124009683D01*
X120055035Y-123880500D01*
X122504198Y-123880500D01*
X121954099Y-124430599D01*
G36*
X159647039Y-120653341D02*
X159418308Y-120881673D01*
X159275662Y-121225201D01*
X159275338Y-121597167D01*
X159417383Y-121940943D01*
X159680173Y-122204192D01*
X160023701Y-122346838D01*
X160070577Y-122346879D01*
X162943000Y-125219302D01*
X162943000Y-125516291D01*
X162750500Y-125478000D01*
X159072605Y-125478000D01*
X159298629Y-125252370D01*
X159511757Y-124739100D01*
X159512242Y-124183339D01*
X159300010Y-123669697D01*
X158907370Y-123276371D01*
X158394100Y-123063243D01*
X157838339Y-123062758D01*
X157324697Y-123274990D01*
X156931371Y-123667630D01*
X156851605Y-123859727D01*
X156797397Y-123728857D01*
X156555213Y-123659392D01*
X155754605Y-124460000D01*
X156555213Y-125260608D01*
X156797397Y-125191143D01*
X156847509Y-125050682D01*
X156929990Y-125250303D01*
X157157290Y-125478000D01*
X156364770Y-125478000D01*
X156375608Y-125440213D01*
X155575000Y-124639605D01*
X154774392Y-125440213D01*
X154785230Y-125478000D01*
X153992605Y-125478000D01*
X154218629Y-125252370D01*
X154298395Y-125060273D01*
X154352603Y-125191143D01*
X154594787Y-125260608D01*
X155395395Y-124460000D01*
X154594787Y-123659392D01*
X154352603Y-123728857D01*
X154302491Y-123869318D01*
X154220010Y-123669697D01*
X154030432Y-123479787D01*
X154774392Y-123479787D01*
X155575000Y-124280395D01*
X156375608Y-123479787D01*
X156306143Y-123237603D01*
X155782698Y-123050856D01*
X155227632Y-123078638D01*
X154843857Y-123237603D01*
X154774392Y-123479787D01*
X154030432Y-123479787D01*
X153827370Y-123276371D01*
X153314100Y-123063243D01*
X153243313Y-123063181D01*
X152123066Y-121942934D01*
X151962365Y-121835557D01*
X151754846Y-121696897D01*
X151320500Y-121610500D01*
X133110612Y-121610500D01*
X133141838Y-121535299D01*
X133141879Y-121488423D01*
X134426802Y-120203500D01*
X159197198Y-120203500D01*
X159647039Y-120653341D01*
X159647039Y-120653341D01*
G37*
X159647039Y-120653341D02*
X159418308Y-120881673D01*
X159275662Y-121225201D01*
X159275338Y-121597167D01*
X159417383Y-121940943D01*
X159680173Y-122204192D01*
X160023701Y-122346838D01*
X160070577Y-122346879D01*
X162943000Y-125219302D01*
X162943000Y-125516291D01*
X162750500Y-125478000D01*
X159072605Y-125478000D01*
X159298629Y-125252370D01*
X159511757Y-124739100D01*
X159512242Y-124183339D01*
X159300010Y-123669697D01*
X158907370Y-123276371D01*
X158394100Y-123063243D01*
X157838339Y-123062758D01*
X157324697Y-123274990D01*
X156931371Y-123667630D01*
X156851605Y-123859727D01*
X156797397Y-123728857D01*
X156555213Y-123659392D01*
X155754605Y-124460000D01*
X156555213Y-125260608D01*
X156797397Y-125191143D01*
X156847509Y-125050682D01*
X156929990Y-125250303D01*
X157157290Y-125478000D01*
X156364770Y-125478000D01*
X156375608Y-125440213D01*
X155575000Y-124639605D01*
X154774392Y-125440213D01*
X154785230Y-125478000D01*
X153992605Y-125478000D01*
X154218629Y-125252370D01*
X154298395Y-125060273D01*
X154352603Y-125191143D01*
X154594787Y-125260608D01*
X155395395Y-124460000D01*
X154594787Y-123659392D01*
X154352603Y-123728857D01*
X154302491Y-123869318D01*
X154220010Y-123669697D01*
X154030432Y-123479787D01*
X154774392Y-123479787D01*
X155575000Y-124280395D01*
X156375608Y-123479787D01*
X156306143Y-123237603D01*
X155782698Y-123050856D01*
X155227632Y-123078638D01*
X154843857Y-123237603D01*
X154774392Y-123479787D01*
X154030432Y-123479787D01*
X153827370Y-123276371D01*
X153314100Y-123063243D01*
X153243313Y-123063181D01*
X152123066Y-121942934D01*
X151962365Y-121835557D01*
X151754846Y-121696897D01*
X151320500Y-121610500D01*
X133110612Y-121610500D01*
X133141838Y-121535299D01*
X133141879Y-121488423D01*
X134426802Y-120203500D01*
X159197198Y-120203500D01*
X159647039Y-120653341D01*
G36*
X124492000Y-124968000D02*
X124512000Y-124968000D01*
X124512000Y-125222000D01*
X124492000Y-125222000D01*
X124492000Y-125242000D01*
X124238000Y-125242000D01*
X124238000Y-125222000D01*
X124218000Y-125222000D01*
X124218000Y-124968000D01*
X124238000Y-124968000D01*
X124238000Y-124948000D01*
X124492000Y-124948000D01*
X124492000Y-124968000D01*
X124492000Y-124968000D01*
G37*
X124492000Y-124968000D02*
X124512000Y-124968000D01*
X124512000Y-125222000D01*
X124492000Y-125222000D01*
X124492000Y-125242000D01*
X124238000Y-125242000D01*
X124238000Y-125222000D01*
X124218000Y-125222000D01*
X124218000Y-124968000D01*
X124238000Y-124968000D01*
X124238000Y-124948000D01*
X124492000Y-124948000D01*
X124492000Y-124968000D01*
G36*
X146462000Y-124968000D02*
X146482000Y-124968000D01*
X146482000Y-125222000D01*
X146462000Y-125222000D01*
X146462000Y-125242000D01*
X146208000Y-125242000D01*
X146208000Y-125222000D01*
X146188000Y-125222000D01*
X146188000Y-124968000D01*
X146208000Y-124968000D01*
X146208000Y-124948000D01*
X146462000Y-124948000D01*
X146462000Y-124968000D01*
X146462000Y-124968000D01*
G37*
X146462000Y-124968000D02*
X146482000Y-124968000D01*
X146482000Y-125222000D01*
X146462000Y-125222000D01*
X146462000Y-125242000D01*
X146208000Y-125242000D01*
X146208000Y-125222000D01*
X146188000Y-125222000D01*
X146188000Y-124968000D01*
X146208000Y-124968000D01*
X146208000Y-124948000D01*
X146462000Y-124948000D01*
X146462000Y-124968000D01*
D21*
X166370000Y-117729000D03*
X137765000Y-135125000D03*
X138635000Y-135925000D03*
X125412500Y-145605500D03*
X110998000Y-148653500D03*
X110172500Y-149542500D03*
X109601000Y-150558500D03*
X110744000Y-144716500D03*
X109791500Y-145351500D03*
X109410500Y-143637000D03*
X108712000Y-142494000D03*
X108077000Y-141668500D03*
X110045500Y-136906000D03*
X109537500Y-136017000D03*
X109601000Y-134493000D03*
X109728000Y-130619500D03*
X110934500Y-131889500D03*
X112268000Y-133096000D03*
X142303500Y-145351500D03*
X140208000Y-145669000D03*
X137160000Y-145542000D03*
X134810500Y-145669000D03*
X134810500Y-147320000D03*
X132905500Y-147510500D03*
X132588000Y-146431000D03*
X131318000Y-145034000D03*
X129222500Y-144780000D03*
X116713000Y-131953000D03*
X116713000Y-130810000D03*
X116903500Y-127762000D03*
X117792500Y-126936500D03*
X121666000Y-125158500D03*
X120904000Y-124396500D03*
X120713500Y-125793500D03*
X158686500Y-127508000D03*
X142113000Y-149733000D03*
X145415000Y-149733000D03*
X147637500Y-149733000D03*
X158242000Y-148907500D03*
X158242000Y-146177000D03*
X114744500Y-153987500D03*
X121221500Y-153987500D03*
X129857500Y-153987500D03*
X137731500Y-153987500D03*
X146431000Y-153987500D03*
X154241500Y-153987500D03*
X160274000Y-153987500D03*
X167005000Y-153987500D03*
X168402000Y-150558500D03*
X168402000Y-146748500D03*
X168402000Y-141541500D03*
X168402000Y-136652000D03*
X168402000Y-130873500D03*
X168402000Y-125730000D03*
X168402000Y-121539000D03*
X161734500Y-117538500D03*
X156146500Y-117475000D03*
X150812500Y-117665500D03*
X102425500Y-152527000D03*
X102425500Y-148336000D03*
X102425500Y-141859000D03*
X102425500Y-136906000D03*
X102425500Y-131572000D03*
X102425500Y-126619000D03*
X102425500Y-121729500D03*
X105346500Y-117665500D03*
X112839500Y-117729000D03*
X120967500Y-117729000D03*
X128397000Y-117729000D03*
X136398000Y-117538500D03*
X142113000Y-117602000D03*
X146304000Y-117729000D03*
X119507000Y-128460500D03*
X121602500Y-128016000D03*
X120713500Y-128079500D03*
X130619500Y-137985500D03*
X130683000Y-136906000D03*
X134302500Y-137541000D03*
X136398000Y-137795000D03*
X135318500Y-137668000D03*
X114871500Y-144907000D03*
X117729000Y-144272000D03*
X119316500Y-144272000D03*
X120586500Y-144272000D03*
X111125000Y-127825500D03*
X110871000Y-128714500D03*
X111696500Y-129349500D03*
X116014500Y-136842500D03*
X115189000Y-136398000D03*
X117411500Y-138176000D03*
X116649500Y-138176000D03*
X115443000Y-138176000D03*
X120332500Y-140208000D03*
X152146000Y-125539500D03*
X148590000Y-124269500D03*
X151130000Y-127063500D03*
X157543500Y-143827500D03*
X150749000Y-143129000D03*
X143879998Y-137668000D03*
X144040930Y-131337532D03*
X145669000Y-140081000D03*
X153257500Y-135567500D03*
X153257500Y-134202500D03*
X151892500Y-134202500D03*
X151892500Y-135567500D03*
X124236250Y-136233750D03*
X126073750Y-136233750D03*
X126073750Y-134396250D03*
X124236250Y-134396250D03*
X120269000Y-130492500D03*
X140398500Y-130810000D03*
X139954000Y-130365500D03*
X135255000Y-133223000D03*
X135255000Y-133794500D03*
X110807500Y-134175500D03*
X110807500Y-135064500D03*
X110807500Y-136080500D03*
X126047500Y-141859000D03*
X123190000Y-141732000D03*
X118396101Y-135690009D03*
X132588000Y-136969500D03*
X132588000Y-137858500D03*
X132588000Y-138874500D03*
X129667000Y-127825500D03*
X128397000Y-127825500D03*
X127254000Y-127825500D03*
X141859000Y-137731500D03*
X141859000Y-138557000D03*
X141859000Y-139382500D03*
X150495000Y-128270000D03*
X150495000Y-129794000D03*
X163004500Y-126492000D03*
X152971500Y-126238000D03*
X156845000Y-135890000D03*
X154940000Y-130175000D03*
X147837990Y-132715000D03*
X147320000Y-130810000D03*
X148590000Y-130810000D03*
X165290500Y-152908000D03*
X166243000Y-122364500D03*
X149606000Y-127508000D03*
X149606000Y-129667000D03*
X156273500Y-147447000D03*
X161226500Y-119824500D03*
X165227000Y-128333500D03*
X163703000Y-144780000D03*
X156527500Y-139763500D03*
X160210500Y-121412000D03*
X158750000Y-143954500D03*
X158750000Y-139446000D03*
X157543500Y-139446000D03*
X155448000Y-139954000D03*
X151906126Y-126869469D03*
X162941000Y-150622000D03*
X167068500Y-150050500D03*
X166306500Y-118999000D03*
X150050500Y-124396500D03*
X152644057Y-128488536D03*
X153606500Y-129995502D03*
X155003500Y-145097500D03*
X148717000Y-145097500D03*
X148717000Y-138303000D03*
X157099000Y-126873000D03*
X154940000Y-139065000D03*
X159489989Y-132063785D03*
X159194500Y-128905000D03*
X123397011Y-129497212D03*
X132143500Y-123761500D03*
X132207000Y-121348500D03*
X149479000Y-139192000D03*
X114236500Y-126873000D03*
X124841000Y-129476500D03*
X127508000Y-129105490D03*
X125883848Y-129743764D03*
X130302000Y-129286000D03*
X123132527Y-128713644D03*
X130429000Y-126746000D03*
X113411000Y-142875000D03*
X119850879Y-138641696D03*
X156210000Y-143510000D03*
X159385000Y-133985000D03*
X126480020Y-141160500D03*
X127780012Y-141160500D03*
X148463000Y-132143500D03*
X143002000Y-130111500D03*
X140271500Y-137414000D03*
X138112500Y-137985500D03*
X139836990Y-133115360D03*
X136652000Y-133096000D03*
X141668500Y-130492500D03*
X142417763Y-132645628D03*
X144018000Y-138620500D03*
X148399500Y-136779000D03*
X161290000Y-132080000D03*
X161290000Y-130080000D03*
X107950000Y-122270000D03*
X107950000Y-124270000D03*
X107950000Y-126270000D03*
X107950000Y-128270000D03*
X107950000Y-133795000D03*
X107950000Y-135795000D03*
X107950000Y-137795000D03*
X107950000Y-139795000D03*
X118935000Y-125095000D03*
X116935000Y-125095000D03*
X114935000Y-125095000D03*
X112935000Y-125095000D03*
X124460000Y-147320000D03*
X126460000Y-147320000D03*
X128460000Y-147320000D03*
X130460000Y-147320000D03*
X107950000Y-145225000D03*
X107950000Y-147225000D03*
X107950000Y-149225000D03*
X107950000Y-151225000D03*
X113030000Y-147320000D03*
X115030000Y-147320000D03*
X117030000Y-147320000D03*
X119030000Y-147320000D03*
X130365000Y-125095000D03*
X128365000Y-125095000D03*
X126365000Y-125095000D03*
X124365000Y-125095000D03*
X146335000Y-125095000D03*
X144335000Y-125095000D03*
X142335000Y-125095000D03*
X140335000Y-125095000D03*
X138335000Y-125095000D03*
X136335000Y-125095000D03*
X161290000Y-151765000D03*
X161290000Y-149765000D03*
X161290000Y-147765000D03*
X161290000Y-142240000D03*
X161290000Y-140240000D03*
X161290000Y-138240000D03*
X137415000Y-147320000D03*
X139415000Y-147320000D03*
X141415000Y-147320000D03*
X143415000Y-147320000D03*
X145415000Y-147320000D03*
X151035000Y-147320000D03*
X153035000Y-147320000D03*
X155035000Y-147320000D03*
X158115000Y-124460000D03*
X155575000Y-124460000D03*
X153035000Y-124460000D03*
M02*
