M48
;DRILL file {KiCad 4.0.5} date 
;FORMAT={3:3/ absolute / metric / suppress trailing zeros}
FMAT,2
METRIC,LZ
T1C0.400
T2C0.750
T3C0.762
%
G90
G05
M71
T1
X102426Y-12173
X102426Y-126619
X102426Y-131572
X102426Y-136906
X102426Y-141859
X102426Y-148336
X102426Y-152527
X105347Y-117666
X108077Y-141669
X108712Y-142494
X109411Y-143637
X109538Y-136017
X109601Y-134493
X109601Y-150559
X109728Y-130619
X109792Y-145351
X110046Y-136906
X110173Y-149543
X110744Y-144717
X110807Y-134176
X110807Y-135064
X110807Y-136081
X110871Y-128715
X110935Y-13189
X110998Y-148654
X111125Y-127826
X111697Y-12935
X112268Y-133096
X11284Y-117729
X113411Y-142875
X114237Y-126873
X114744Y-153987
X114872Y-144907
X115189Y-136398
X115443Y-138176
X116015Y-136843
X116649Y-138176
X116713Y-13081
X116713Y-131953
X116903Y-127762
X117411Y-138176
X117729Y-144272
X117793Y-126937
X118396Y-13569
X119317Y-144272
X119507Y-128461
X119851Y-138642
X120269Y-130493
X120333Y-140208
X120587Y-144272
X120714Y-125793
X120714Y-12808
X120904Y-124397
X120968Y-117729
X121222Y-153987
X121602Y-128016
X121666Y-125158
X123133Y-128714
X12319Y-141732
X123397Y-129497
X124236Y-134396
X124236Y-136234
X124841Y-129476
X125413Y-145606
X125884Y-129744
X126048Y-141859
X126074Y-134396
X126074Y-136234
X12648Y-14116
X127254Y-127826
X127508Y-129105
X12778Y-14116
X128397Y-117729
X128397Y-127826
X129223Y-14478
X129667Y-127826
X129857Y-153987
X130302Y-129286
X130429Y-126746
X130619Y-137986
X130683Y-136906
X131318Y-145034
X132144Y-123762
X132207Y-121349
X132588Y-136969
X132588Y-137859
X132588Y-138875
X132588Y-146431
X132906Y-147511
X134302Y-137541
X134811Y-145669
X134811Y-14732
X135255Y-133223
X135255Y-133795
X135319Y-137668
X136398Y-117539
X136398Y-137795
X136652Y-133096
X13716Y-145542
X137731Y-153987
X137765Y-135125
X138112Y-137986
X138635Y-135925
X139837Y-133115
X139954Y-130366
X140208Y-145669
X140272Y-137414
X140399Y-13081
X141669Y-130493
X141859Y-137731
X141859Y-138557
X141859Y-139382
X142113Y-117602
X142113Y-149733
X142304Y-145351
X142418Y-132646
X143002Y-130112
X14388Y-137668
X144018Y-138621
X144041Y-131338
X145415Y-149733
X145669Y-140081
X146304Y-117729
X146431Y-153987
X14732Y-13081
X147638Y-149733
X147838Y-132715
X1484Y-136779
X148463Y-132144
X14859Y-124269
X14859Y-13081
X148717Y-138303
X148717Y-145098
X149479Y-139192
X149606Y-127508
X149606Y-129667
X150051Y-124397
X150495Y-12827
X150495Y-129794
X150749Y-143129
X150813Y-117666
X15113Y-127064
X151892Y-134202
X151892Y-135568
X151906Y-126869
X152146Y-12554
X152644Y-128489
X152972Y-126238
X153257Y-134202
X153257Y-135568
X153606Y-129996
X154242Y-153987
X15494Y-130175
X15494Y-139065
X155004Y-145098
X155448Y-139954
X156147Y-117475
X15621Y-14351
X156274Y-147447
X156528Y-139764
X156845Y-13589
X157099Y-126873
X157544Y-139446
X157544Y-143827
X158242Y-146177
X158242Y-148908
X158687Y-127508
X15875Y-139446
X15875Y-143955
X159195Y-128905
X159385Y-133985
X15949Y-132064
X160211Y-121412
X160274Y-153987
X161226Y-119824
X161735Y-117539
X162941Y-150622
X163005Y-126492
X163703Y-14478
X165227Y-128333
X16529Y-152908
X166243Y-122365
X166307Y-118999
X16637Y-117729
X167005Y-153987
X167069Y-150051
X168402Y-121539
X168402Y-12573
X168402Y-130874
X168402Y-136652
X168402Y-141542
X168402Y-146749
X168402Y-150559
T2
X10795Y-12227
X10795Y-12427
X10795Y-12627
X10795Y-12827
X10795Y-133795
X10795Y-135795
X10795Y-137795
X10795Y-139795
X10795Y-145225
X10795Y-147225
X10795Y-149225
X10795Y-151225
X112935Y-125095
X11303Y-14732
X114935Y-125095
X11503Y-14732
X116935Y-125095
X11703Y-14732
X118935Y-125095
X11903Y-14732
X124365Y-125095
X12446Y-14732
X126365Y-125095
X12646Y-14732
X128365Y-125095
X12846Y-14732
X130365Y-125095
X13046Y-14732
X136335Y-125095
X137415Y-14732
X138335Y-125095
X139415Y-14732
X140335Y-125095
X141415Y-14732
X142335Y-125095
X143415Y-14732
X144335Y-125095
X145415Y-14732
X146335Y-125095
X151035Y-14732
X153035Y-14732
X155035Y-14732
X16129Y-13008
X16129Y-13208
X16129Y-13824
X16129Y-14024
X16129Y-14224
X16129Y-147765
X16129Y-149765
X16129Y-151765
T3
X153035Y-12446
X155575Y-12446
X158115Y-12446
T0
M30
