G04 #@! TF.FileFunction,Copper,L2,Bot,Signal*
%FSLAX46Y46*%
G04 Gerber Fmt 4.6, Leading zero omitted, Abs format (unit mm)*
G04 Created by KiCad (PCBNEW 4.0.7) date *
%MOMM*%
%LPD*%
G01*
G04 APERTURE LIST*
%ADD10C,0.100000*%
%ADD11C,1.524000*%
%ADD12R,1.400000X3.200000*%
%ADD13C,1.800000*%
%ADD14R,1.850000X1.850000*%
%ADD15C,1.850000*%
%ADD16R,1.700000X1.700000*%
%ADD17O,1.700000X1.700000*%
%ADD18R,1.200000X1.700000*%
%ADD19O,1.200000X1.700000*%
%ADD20C,0.600000*%
%ADD21C,0.250000*%
%ADD22C,0.200000*%
%ADD23C,1.500000*%
%ADD24C,2.500000*%
%ADD25C,0.254000*%
%ADD26C,0.350000*%
%ADD27O,0.700000X2.200000*%
G04 APERTURE END LIST*
D10*
D11*
X108420000Y-95300000D03*
X108420000Y-97840000D03*
X108420000Y-100380000D03*
X108420000Y-102920000D03*
X108420000Y-105460000D03*
X108420000Y-108000000D03*
X108420000Y-110540000D03*
X108420000Y-113080000D03*
X108420000Y-115620000D03*
D12*
X111170000Y-123260000D03*
X111170000Y-87660000D03*
D13*
X110360000Y-84360000D03*
X110360000Y-126560000D03*
D14*
X176530000Y-86995000D03*
D15*
X176530000Y-84495000D03*
D16*
X138430000Y-91440000D03*
D17*
X140970000Y-91440000D03*
X143510000Y-91440000D03*
X146050000Y-91440000D03*
X148590000Y-91440000D03*
X151130000Y-91440000D03*
D18*
X143860000Y-123825000D03*
D19*
X145860000Y-123825000D03*
X147860000Y-123825000D03*
X149860000Y-123825000D03*
D16*
X191135000Y-113030000D03*
D17*
X193675000Y-113030000D03*
X191135000Y-110490000D03*
X193675000Y-110490000D03*
X191135000Y-107950000D03*
X193675000Y-107950000D03*
X191135000Y-105410000D03*
X193675000Y-105410000D03*
X191135000Y-102870000D03*
X193675000Y-102870000D03*
X191135000Y-100330000D03*
X193675000Y-100330000D03*
X191135000Y-97790000D03*
X193675000Y-97790000D03*
D13*
X154940000Y-115570000D03*
X147320000Y-118110000D03*
X142240000Y-115570000D03*
D20*
X130810000Y-116205000D03*
X136525000Y-116205000D03*
X136525000Y-118745000D03*
X130810000Y-118745000D03*
X125095000Y-118745000D03*
X120015000Y-118745000D03*
X114300000Y-118745000D03*
X114300000Y-121920000D03*
X120015000Y-121920000D03*
X125095000Y-121920000D03*
X130810000Y-121920000D03*
X136525000Y-121920000D03*
X136525000Y-126365000D03*
X130810000Y-126365000D03*
X125095000Y-126365000D03*
X120015000Y-126365000D03*
X114300000Y-126365000D03*
X108585000Y-121920000D03*
X108585000Y-118745000D03*
X106489500Y-109930500D03*
X106680000Y-106680000D03*
X106680000Y-102235000D03*
X106680000Y-99060000D03*
X106680000Y-93980000D03*
X119380000Y-106680000D03*
X116205000Y-103505000D03*
X120015000Y-102870000D03*
X124460000Y-98425000D03*
X119380000Y-98425000D03*
X115570000Y-97155000D03*
X119380000Y-94615000D03*
X124460000Y-94615000D03*
X129540000Y-94615000D03*
X132715000Y-90805000D03*
X128905000Y-89535000D03*
X123825000Y-89535000D03*
X118745000Y-89535000D03*
X114935000Y-89535000D03*
X114935000Y-92710000D03*
X110490000Y-92710000D03*
X107950000Y-90805000D03*
X107950000Y-85725000D03*
X113030000Y-84455000D03*
X118745000Y-84455000D03*
X126365000Y-84455000D03*
X107950000Y-82550000D03*
X114300000Y-82550000D03*
X119380000Y-82550000D03*
X125730000Y-82550000D03*
X130810000Y-82550000D03*
X109728000Y-114554000D03*
X123952000Y-105346500D03*
X126428500Y-102870000D03*
X128841500Y-100584000D03*
X130937000Y-98361500D03*
X134493000Y-95313500D03*
X135191500Y-96266000D03*
X133794500Y-96520000D03*
X139573000Y-96520000D03*
X138366500Y-96520000D03*
X138303000Y-94932500D03*
X138303000Y-93662500D03*
X138938000Y-98933000D03*
X137858500Y-99060000D03*
X135699500Y-99060000D03*
X133921500Y-99123500D03*
X131953000Y-101346000D03*
X129921000Y-103632000D03*
X127571500Y-105791000D03*
X125222000Y-108331000D03*
X122872500Y-110617000D03*
X141033500Y-97218500D03*
X115443000Y-111887000D03*
X115443000Y-111061500D03*
X111125000Y-111442500D03*
X110045500Y-112331500D03*
X109855000Y-109855000D03*
X109982000Y-107442000D03*
X112395000Y-107569000D03*
X134112000Y-106743500D03*
X131953000Y-109029500D03*
X133858000Y-108902500D03*
X135572500Y-109156500D03*
X137985500Y-110871000D03*
X135826500Y-110998000D03*
X133667500Y-110871000D03*
X131635500Y-110807500D03*
X129667000Y-110744000D03*
X127952500Y-112268000D03*
X126555500Y-112966500D03*
X124777500Y-113030000D03*
X121348500Y-112839500D03*
X140348887Y-99187000D03*
X142240000Y-88578590D03*
X140652407Y-88578590D03*
X144208500Y-88578590D03*
X141605000Y-118110000D03*
X141605000Y-121920000D03*
X141605000Y-126365000D03*
X149860000Y-82550000D03*
X145415000Y-82550000D03*
X142240000Y-82550000D03*
X138430000Y-82550000D03*
X142875000Y-84455000D03*
X139700000Y-84455000D03*
X136525000Y-84455000D03*
X133350000Y-84455000D03*
X145732500Y-107632500D03*
X153035000Y-121920000D03*
X152209500Y-123253500D03*
X153860500Y-123444000D03*
X155511500Y-122110500D03*
X157607000Y-119634000D03*
X156845000Y-118427500D03*
X155638500Y-120459500D03*
X153479500Y-120523000D03*
X151447500Y-120523000D03*
X149860000Y-121602500D03*
X153098500Y-115125500D03*
X152209500Y-116078000D03*
X151638000Y-117094000D03*
X150114000Y-117030500D03*
X151193500Y-116332000D03*
X141859000Y-95694500D03*
X141859000Y-94361000D03*
X141922500Y-93345000D03*
X144054091Y-101434290D03*
X146237598Y-99631500D03*
X191579500Y-95186500D03*
X190690500Y-95250000D03*
X191135000Y-96139000D03*
X151447500Y-100076000D03*
X154813000Y-96647000D03*
X154178000Y-96901000D03*
X154876500Y-97409000D03*
X154940000Y-99695000D03*
X154622500Y-100647500D03*
X154178000Y-99758500D03*
X152908000Y-98615500D03*
X171069000Y-95758000D03*
X170116500Y-95758000D03*
X169100500Y-95758000D03*
X167957500Y-95758000D03*
X165290500Y-95758000D03*
X163004500Y-95758000D03*
X160655000Y-95885000D03*
X155702000Y-103187500D03*
X156210000Y-101981000D03*
X156210000Y-100330000D03*
X156210000Y-98806000D03*
X153162000Y-83693000D03*
X153924000Y-82867500D03*
X153733500Y-81597500D03*
X155511500Y-81597500D03*
X157670500Y-81724500D03*
X157797500Y-83121500D03*
X159512000Y-83248500D03*
X159321500Y-81597500D03*
X161353500Y-81597500D03*
X164020500Y-81597500D03*
X166751000Y-81597500D03*
X168910000Y-82232500D03*
X170751500Y-82296000D03*
X172847000Y-82105500D03*
X174815500Y-82804000D03*
X174815500Y-84074000D03*
X176530000Y-82550000D03*
X179070000Y-82550000D03*
X179070000Y-84455000D03*
X146090000Y-106870500D03*
X155829000Y-107378500D03*
X155892500Y-106299000D03*
X153416000Y-105977598D03*
X150050500Y-104584500D03*
X173228000Y-95123000D03*
X156400500Y-97155000D03*
X182880000Y-100965000D03*
X187960000Y-94742000D03*
X188976000Y-95567500D03*
X188976000Y-94488000D03*
X175450500Y-92075000D03*
X176276000Y-91186000D03*
X174625000Y-91376500D03*
X173164500Y-92011500D03*
X172466000Y-91313000D03*
X171005500Y-91122500D03*
X168656000Y-91122500D03*
X184721500Y-91122500D03*
X185610500Y-91757500D03*
X184594500Y-92075000D03*
X185674000Y-93027500D03*
X159893000Y-91186000D03*
X157416500Y-91186000D03*
X155956000Y-91186000D03*
X156210000Y-91884500D03*
X155257500Y-91948000D03*
X161544000Y-91567000D03*
X162750500Y-91567000D03*
X163830000Y-91567000D03*
X165100000Y-91567000D03*
X166370000Y-91567000D03*
X168402000Y-87249000D03*
X166878000Y-87058500D03*
X165163500Y-87058500D03*
X163576000Y-87058500D03*
X162115500Y-87058500D03*
X154495500Y-108839000D03*
X155892500Y-108902500D03*
X155829000Y-110426500D03*
X153670000Y-110490000D03*
X151638000Y-112268000D03*
X149479000Y-111569500D03*
X149860000Y-110871000D03*
X142621000Y-111379000D03*
X144335500Y-112966500D03*
X146367500Y-111760000D03*
X148025000Y-108971000D03*
X147155000Y-109771000D03*
X144081500Y-92773500D03*
X143129000Y-96139000D03*
X167449500Y-93281500D03*
X165735000Y-93345000D03*
X163830000Y-93345000D03*
X162242500Y-93345000D03*
X145502500Y-100697500D03*
X143777500Y-98972500D03*
X135255000Y-97980500D03*
X112522000Y-113030000D03*
X147129500Y-105563483D03*
X147574000Y-106870500D03*
X150177500Y-109601000D03*
X147129500Y-102616000D03*
X149225000Y-85090000D03*
X140525500Y-101282500D03*
X153225500Y-112395000D03*
X189620835Y-90506252D03*
X141986000Y-108477500D03*
X189543645Y-89757809D03*
X141986000Y-109327500D03*
X141942861Y-102308490D03*
X141287500Y-101663500D03*
X141097975Y-99505763D03*
X140973888Y-98677786D03*
X139763500Y-95123000D03*
X138684000Y-89090500D03*
X137858500Y-100662410D03*
X172720000Y-96520000D03*
X145812493Y-103440078D03*
X149796500Y-107251500D03*
X172103041Y-95180590D03*
X155575000Y-95123000D03*
X151130000Y-105410000D03*
X159015559Y-96896972D03*
X135255000Y-100330000D03*
X145288000Y-111125000D03*
X139700000Y-102459498D03*
X146431000Y-88226179D03*
X144780000Y-92392500D03*
X181927500Y-94551500D03*
X147955000Y-101663500D03*
X145542000Y-96329500D03*
X146685000Y-96456500D03*
X147320000Y-95885000D03*
D21*
X136525000Y-116205000D02*
X130810000Y-116205000D01*
X130810000Y-118745000D02*
X136525000Y-118745000D01*
X120015000Y-118745000D02*
X125095000Y-118745000D01*
X114300000Y-121920000D02*
X114300000Y-118745000D01*
X125095000Y-121920000D02*
X120015000Y-121920000D01*
X136525000Y-121920000D02*
X130810000Y-121920000D01*
X130810000Y-126365000D02*
X136525000Y-126365000D01*
X120015000Y-126365000D02*
X125095000Y-126365000D01*
X108585000Y-118745000D02*
X108585000Y-121920000D01*
X106680000Y-102235000D02*
X106680000Y-106680000D01*
X106680000Y-93980000D02*
X106680000Y-99060000D01*
X116205000Y-103505000D02*
X119380000Y-106680000D01*
X124460000Y-98425000D02*
X120015000Y-102870000D01*
X115570000Y-97155000D02*
X116840000Y-98425000D01*
X116840000Y-98425000D02*
X119380000Y-98425000D01*
X124460000Y-94615000D02*
X119380000Y-94615000D01*
X132715000Y-90805000D02*
X129540000Y-93980000D01*
X129540000Y-93980000D02*
X129540000Y-94615000D01*
X123825000Y-89535000D02*
X128905000Y-89535000D01*
X114935000Y-89535000D02*
X118745000Y-89535000D01*
X110490000Y-92710000D02*
X114935000Y-92710000D01*
X107950000Y-85725000D02*
X107950000Y-90805000D01*
X118745000Y-84455000D02*
X113030000Y-84455000D01*
X133350000Y-84455000D02*
X126365000Y-84455000D01*
X119380000Y-82550000D02*
X114300000Y-82550000D01*
X130810000Y-82550000D02*
X125730000Y-82550000D01*
X126428500Y-102870000D02*
X123952000Y-105346500D01*
X130937000Y-98361500D02*
X128841500Y-100457000D01*
X128841500Y-100457000D02*
X128841500Y-100584000D01*
X133794500Y-96520000D02*
X134937500Y-96520000D01*
X134937500Y-96520000D02*
X135191500Y-96266000D01*
X138303000Y-94932500D02*
X138303000Y-96456500D01*
X138303000Y-96456500D02*
X138366500Y-96520000D01*
X138430000Y-91440000D02*
X138430000Y-93535500D01*
X138430000Y-93535500D02*
X138303000Y-93662500D01*
X137858500Y-99060000D02*
X138811000Y-99060000D01*
X138811000Y-99060000D02*
X138938000Y-98933000D01*
X133921500Y-99123500D02*
X135636000Y-99123500D01*
X135636000Y-99123500D02*
X135699500Y-99060000D01*
X129921000Y-103632000D02*
X131953000Y-101600000D01*
X131953000Y-101600000D02*
X131953000Y-101346000D01*
X125222000Y-108331000D02*
X127571500Y-105981500D01*
X127571500Y-105981500D02*
X127571500Y-105791000D01*
X111887000Y-114300000D02*
X119189500Y-114300000D01*
X119189500Y-114300000D02*
X122872500Y-110617000D01*
X111125000Y-113538000D02*
X111887000Y-114300000D01*
X111125000Y-111442500D02*
X111125000Y-113538000D01*
D22*
X141033500Y-97218500D02*
X142113000Y-96139000D01*
X140348887Y-97903113D02*
X141033500Y-97218500D01*
D21*
X115443000Y-111061500D02*
X115443000Y-111887000D01*
X109855000Y-109855000D02*
X109855000Y-112141000D01*
X109855000Y-112141000D02*
X110045500Y-112331500D01*
X112395000Y-107569000D02*
X110109000Y-107569000D01*
X110109000Y-107569000D02*
X109982000Y-107442000D01*
X131953000Y-109029500D02*
X134112000Y-106870500D01*
X134112000Y-106870500D02*
X134112000Y-106743500D01*
X135572500Y-109156500D02*
X134112000Y-109156500D01*
X134112000Y-109156500D02*
X133858000Y-108902500D01*
X135826500Y-110998000D02*
X137858500Y-110998000D01*
X137858500Y-110998000D02*
X137985500Y-110871000D01*
X131635500Y-110807500D02*
X133604000Y-110807500D01*
X133604000Y-110807500D02*
X133667500Y-110871000D01*
X127952500Y-112268000D02*
X128143000Y-112268000D01*
X128143000Y-112268000D02*
X129667000Y-110744000D01*
X124777500Y-113030000D02*
X126492000Y-113030000D01*
X126492000Y-113030000D02*
X126555500Y-112966500D01*
X140348887Y-99187000D02*
X140348887Y-98140699D01*
X140348887Y-99708887D02*
X140348887Y-99377500D01*
X140348887Y-99377500D02*
X140348887Y-99187000D01*
D22*
X144208500Y-88578590D02*
X142240000Y-88578590D01*
X142240000Y-92773500D02*
X142240000Y-88578590D01*
X142240000Y-91801554D02*
X142240000Y-88578590D01*
D21*
X141605000Y-118110000D02*
X141605000Y-116205000D01*
X141605000Y-116205000D02*
X142240000Y-115570000D01*
X141605000Y-121920000D02*
X141605000Y-118110000D01*
X142240000Y-82550000D02*
X145415000Y-82550000D01*
X136525000Y-84455000D02*
X138430000Y-82550000D01*
X136525000Y-84455000D02*
X139700000Y-84455000D01*
X153860500Y-123444000D02*
X152400000Y-123444000D01*
X152400000Y-123444000D02*
X152209500Y-123253500D01*
X157607000Y-119634000D02*
X155511500Y-121729500D01*
X155511500Y-121729500D02*
X155511500Y-122110500D01*
X155638500Y-120459500D02*
X156845000Y-119253000D01*
X156845000Y-119253000D02*
X156845000Y-118427500D01*
X151447500Y-120523000D02*
X153479500Y-120523000D01*
X149860000Y-123825000D02*
X149860000Y-121602500D01*
X152209500Y-116078000D02*
X152209500Y-116014500D01*
X152209500Y-116014500D02*
X153098500Y-115125500D01*
X150114000Y-117030500D02*
X151574500Y-117030500D01*
X151574500Y-117030500D02*
X151638000Y-117094000D01*
X155829000Y-112014000D02*
X151511000Y-116332000D01*
X151511000Y-116332000D02*
X151193500Y-116332000D01*
X155829000Y-110426500D02*
X155829000Y-112014000D01*
X141922500Y-93345000D02*
X141922500Y-94297500D01*
X141922500Y-94297500D02*
X141859000Y-94361000D01*
X145502500Y-100697500D02*
X144790881Y-100697500D01*
X144790881Y-100697500D02*
X144054091Y-101434290D01*
X145502500Y-100697500D02*
X145502500Y-100366598D01*
X145502500Y-100366598D02*
X146237598Y-99631500D01*
D23*
X192405000Y-96520000D02*
X193675000Y-97790000D01*
X191135000Y-97790000D02*
X192405000Y-96520000D01*
X192405000Y-99060000D02*
X191135000Y-97790000D01*
X193675000Y-97790000D02*
X192405000Y-99060000D01*
D21*
X190690500Y-95250000D02*
X191516000Y-95250000D01*
X191516000Y-95250000D02*
X191579500Y-95186500D01*
X152908000Y-98615500D02*
X151447500Y-100076000D01*
X154876500Y-97409000D02*
X154686000Y-97409000D01*
X154686000Y-97409000D02*
X154178000Y-96901000D01*
X154622500Y-100647500D02*
X154622500Y-100012500D01*
X154622500Y-100012500D02*
X154940000Y-99695000D01*
X152908000Y-98615500D02*
X153035000Y-98615500D01*
X153035000Y-98615500D02*
X154178000Y-99758500D01*
X162242500Y-93345000D02*
X156400500Y-93345000D01*
X165735000Y-93345000D02*
X163830000Y-93345000D01*
X170116500Y-95758000D02*
X171069000Y-95758000D01*
X171069000Y-95758000D02*
X172593000Y-95758000D01*
X169100500Y-95758000D02*
X170116500Y-95758000D01*
X167957500Y-95758000D02*
X169100500Y-95758000D01*
X165290500Y-95758000D02*
X167830500Y-95758000D01*
X167830500Y-95758000D02*
X167957500Y-95758000D01*
X163004500Y-95758000D02*
X165290500Y-95758000D01*
X160655000Y-95758000D02*
X163004500Y-95758000D01*
X157797500Y-95758000D02*
X160655000Y-95758000D01*
X160655000Y-95758000D02*
X160655000Y-95885000D01*
X156210000Y-100330000D02*
X156210000Y-101981000D01*
X156400500Y-97155000D02*
X156400500Y-98615500D01*
X156400500Y-98615500D02*
X156210000Y-98806000D01*
X156400500Y-97155000D02*
X156400500Y-102993098D01*
X156400500Y-102993098D02*
X153416000Y-105977598D01*
X153924000Y-82867500D02*
X153924000Y-82931000D01*
X153924000Y-82931000D02*
X153162000Y-83693000D01*
X155511500Y-81597500D02*
X153733500Y-81597500D01*
X157797500Y-83121500D02*
X157797500Y-81851500D01*
X157797500Y-81851500D02*
X157670500Y-81724500D01*
X159321500Y-81597500D02*
X159321500Y-83058000D01*
X159321500Y-83058000D02*
X159512000Y-83248500D01*
X164020500Y-81597500D02*
X161353500Y-81597500D01*
X168910000Y-82232500D02*
X167386000Y-82232500D01*
X167386000Y-82232500D02*
X166751000Y-81597500D01*
X172847000Y-82105500D02*
X170942000Y-82105500D01*
X170942000Y-82105500D02*
X170751500Y-82296000D01*
X176530000Y-84495000D02*
X175236500Y-84495000D01*
X175236500Y-84495000D02*
X174815500Y-84074000D01*
X174815500Y-84074000D02*
X174815500Y-82804000D01*
X179070000Y-82550000D02*
X176530000Y-82550000D01*
X176530000Y-84495000D02*
X179030000Y-84495000D01*
X179030000Y-84495000D02*
X179070000Y-84455000D01*
X155829000Y-107378500D02*
X155829000Y-108839000D01*
X155829000Y-108839000D02*
X155892500Y-108902500D01*
X155892500Y-106299000D02*
X155892500Y-107315000D01*
X155892500Y-107315000D02*
X155829000Y-107378500D01*
X150431500Y-106426000D02*
X152967598Y-106426000D01*
X152967598Y-106426000D02*
X153416000Y-105977598D01*
X150050500Y-106045000D02*
X150431500Y-106426000D01*
X150050500Y-104584500D02*
X150050500Y-106045000D01*
X172593000Y-95758000D02*
X173228000Y-95123000D01*
X156400500Y-97155000D02*
X157797500Y-95758000D01*
X182880000Y-100965000D02*
X185912401Y-103997401D01*
X185912401Y-103997401D02*
X191676153Y-103997401D01*
X191676153Y-103997401D02*
X192547599Y-103125955D01*
X192547599Y-103125955D02*
X192547599Y-100585955D01*
X192547599Y-100585955D02*
X192547599Y-99377500D01*
X188976000Y-94488000D02*
X188976000Y-95567500D01*
D23*
X190285001Y-96051001D02*
X189904001Y-96051001D01*
X185420000Y-91567000D02*
X156083000Y-91567000D01*
X191135000Y-97790000D02*
X190285001Y-96940001D01*
X190285001Y-96940001D02*
X190285001Y-96051001D01*
D21*
X174625000Y-91376500D02*
X176085500Y-91376500D01*
X176085500Y-91376500D02*
X176276000Y-91186000D01*
X172466000Y-91313000D02*
X173164500Y-92011500D01*
X168656000Y-91122500D02*
X171005500Y-91122500D01*
X185610500Y-91757500D02*
X185356500Y-91757500D01*
X185356500Y-91757500D02*
X184721500Y-91122500D01*
X185674000Y-93027500D02*
X185547000Y-93027500D01*
X185547000Y-93027500D02*
X184594500Y-92075000D01*
D23*
X161544000Y-91567000D02*
X156083000Y-91567000D01*
X156083000Y-91567000D02*
X156019500Y-91630500D01*
D21*
X156210000Y-91884500D02*
X156210000Y-91440000D01*
X156210000Y-91440000D02*
X155956000Y-91186000D01*
D23*
X163830000Y-91567000D02*
X161544000Y-91567000D01*
X166370000Y-91567000D02*
X163830000Y-91567000D01*
X191135000Y-97790000D02*
X191135000Y-96329500D01*
X193675000Y-97790000D02*
X191135000Y-97790000D01*
D21*
X193675000Y-97790000D02*
X192825001Y-96940001D01*
X192825001Y-96940001D02*
X191984999Y-96940001D01*
X191984999Y-96940001D02*
X191135000Y-97790000D01*
X192547599Y-99377500D02*
X192547599Y-98917401D01*
X191984999Y-98814900D02*
X192547599Y-99377500D01*
X191135000Y-97790000D02*
X191984999Y-98639999D01*
X191984999Y-98639999D02*
X191984999Y-98814900D01*
X167449500Y-93281500D02*
X184086500Y-93281500D01*
X189865000Y-99060000D02*
X189865000Y-100838000D01*
X184086500Y-93281500D02*
X189865000Y-99060000D01*
X192825001Y-98639999D02*
X193675000Y-97790000D01*
X189865000Y-100838000D02*
X190484401Y-101457401D01*
X190484401Y-101457401D02*
X191676153Y-101457401D01*
X191676153Y-101457401D02*
X192547599Y-100585955D01*
X192547599Y-98917401D02*
X192825001Y-98639999D01*
X165163500Y-87058500D02*
X166878000Y-87058500D01*
X162115500Y-87058500D02*
X163576000Y-87058500D01*
D22*
X155892500Y-108902500D02*
X154559000Y-108902500D01*
X154559000Y-108902500D02*
X154495500Y-108839000D01*
X153670000Y-110490000D02*
X155765500Y-110490000D01*
X155765500Y-110490000D02*
X155829000Y-110426500D01*
X149860000Y-110871000D02*
X149860000Y-111188500D01*
X149860000Y-111188500D02*
X149479000Y-111569500D01*
X142240000Y-92773500D02*
X142240000Y-95250000D01*
X144081500Y-92773500D02*
X142240000Y-92773500D01*
X142240000Y-95250000D02*
X143129000Y-96139000D01*
X144081500Y-92773500D02*
X143211946Y-92773500D01*
X142113000Y-96139000D02*
X143129000Y-96139000D01*
X140348887Y-98140699D02*
X140348887Y-97903113D01*
D21*
X143777500Y-98972500D02*
X142665000Y-98972500D01*
X140348887Y-98140699D02*
X140358543Y-98131043D01*
X140843000Y-100203000D02*
X140348887Y-99708887D01*
X141434500Y-100203000D02*
X140843000Y-100203000D01*
X142665000Y-98972500D02*
X141434500Y-100203000D01*
X167386000Y-93345000D02*
X167449500Y-93281500D01*
X165735000Y-93345000D02*
X167386000Y-93345000D01*
X162242500Y-93345000D02*
X163830000Y-93345000D01*
X148209000Y-99250500D02*
X154114500Y-93345000D01*
X154114500Y-93345000D02*
X156400500Y-93345000D01*
X148062000Y-99250500D02*
X148209000Y-99250500D01*
X145502500Y-100697500D02*
X146615000Y-100697500D01*
X146615000Y-100697500D02*
X148062000Y-99250500D01*
X112522000Y-113030000D02*
X118173500Y-113030000D01*
X118173500Y-113030000D02*
X133223000Y-97980500D01*
X135255000Y-97980500D02*
X133223000Y-97980500D01*
X147129500Y-102616000D02*
X147129500Y-105563483D01*
X147574000Y-106870500D02*
X150177500Y-109474000D01*
X150177500Y-109474000D02*
X150177500Y-109601000D01*
D24*
X176530000Y-86995000D02*
X178435000Y-86995000D01*
X197155011Y-110752070D02*
X194877081Y-113030000D01*
X178435000Y-86995000D02*
X179070000Y-87630000D01*
X179070000Y-87630000D02*
X190500000Y-87630000D01*
X190500000Y-87630000D02*
X197155011Y-94285011D01*
X197155011Y-94285011D02*
X197155011Y-110752070D01*
X194877081Y-113030000D02*
X193675000Y-113030000D01*
D21*
X149225000Y-85090000D02*
X157480000Y-85090000D01*
X157480000Y-85090000D02*
X161290000Y-88900000D01*
X161290000Y-88900000D02*
X175800000Y-88900000D01*
X175800000Y-88900000D02*
X176530000Y-88170000D01*
X176530000Y-88170000D02*
X176530000Y-86995000D01*
D24*
X193675000Y-113030000D02*
X191135000Y-113030000D01*
D21*
X140225501Y-100982501D02*
X140525500Y-101282500D01*
X139771485Y-100528485D02*
X140225501Y-100982501D01*
X139771485Y-97528015D02*
X139771485Y-100528485D01*
X140970000Y-96329500D02*
X139771485Y-97528015D01*
X140970000Y-91440000D02*
X140970000Y-96329500D01*
X177228500Y-98425000D02*
X189293500Y-110490000D01*
X189293500Y-110490000D02*
X191135000Y-110490000D01*
X160591500Y-98425000D02*
X177228500Y-98425000D01*
X158750000Y-120713500D02*
X158623000Y-120840500D01*
X158623000Y-120840500D02*
X154463490Y-125000010D01*
X159004000Y-120459500D02*
X158623000Y-120840500D01*
X160591500Y-98425000D02*
X159004000Y-100012500D01*
X159004000Y-100012500D02*
X159004000Y-120459500D01*
X144785010Y-125000010D02*
X143860000Y-124075000D01*
X154463490Y-125000010D02*
X144785010Y-125000010D01*
X143860000Y-124075000D02*
X143860000Y-123825000D01*
X143860000Y-123575000D02*
X143860000Y-123825000D01*
X143860000Y-123825000D02*
X143860000Y-119756998D01*
X143860000Y-119756998D02*
X146731999Y-116884999D01*
X146731999Y-116884999D02*
X148735501Y-116884999D01*
X148735501Y-116884999D02*
X153225500Y-112395000D01*
X186539553Y-106430001D02*
X177395552Y-97286000D01*
X177395552Y-97286000D02*
X160106948Y-97286000D01*
X191135000Y-105410000D02*
X190114999Y-106430001D01*
X190114999Y-106430001D02*
X186539553Y-106430001D01*
X145860000Y-122725000D02*
X145860000Y-123825000D01*
X145860000Y-122708948D02*
X145860000Y-122725000D01*
X157865000Y-115085448D02*
X154137948Y-118812500D01*
X157865000Y-99527948D02*
X157865000Y-115085448D01*
X160106948Y-97286000D02*
X157865000Y-99527948D01*
X154137948Y-118812500D02*
X149756448Y-118812500D01*
X149756448Y-118812500D02*
X145860000Y-122708948D01*
X186332447Y-106929999D02*
X177188448Y-97786000D01*
X177188448Y-97786000D02*
X160314052Y-97786000D01*
X191135000Y-107950000D02*
X190114999Y-106929999D01*
X190114999Y-106929999D02*
X186332447Y-106929999D01*
X147860000Y-123575000D02*
X147860000Y-123825000D01*
X147010000Y-122725000D02*
X147860000Y-123575000D01*
X147010000Y-122266052D02*
X147010000Y-122725000D01*
X149963552Y-119312500D02*
X147010000Y-122266052D01*
X154345052Y-119312500D02*
X149963552Y-119312500D01*
X158365000Y-115292552D02*
X154345052Y-119312500D01*
X158365000Y-99735052D02*
X158365000Y-115292552D01*
X160314052Y-97786000D02*
X158365000Y-99735052D01*
X153389215Y-89734767D02*
X188564275Y-89734767D01*
X189335760Y-90506252D02*
X189620835Y-90506252D01*
X151026448Y-87372000D02*
X153389215Y-89734767D01*
X188564275Y-89734767D02*
X189335760Y-90506252D01*
X138787552Y-87372000D02*
X151026448Y-87372000D01*
X141986000Y-108477500D02*
X136838500Y-103330000D01*
X136838500Y-103330000D02*
X136838500Y-89321052D01*
X136838500Y-89321052D02*
X138787552Y-87372000D01*
X189118192Y-89332356D02*
X189243646Y-89457810D01*
X189243646Y-89457810D02*
X189543645Y-89757809D01*
X153693908Y-89332356D02*
X189118192Y-89332356D01*
X151233552Y-86872000D02*
X153693908Y-89332356D01*
X138580448Y-86872000D02*
X151233552Y-86872000D01*
X136338500Y-89113948D02*
X138580448Y-86872000D01*
X136338500Y-103680000D02*
X136338500Y-89113948D01*
X141986000Y-109327500D02*
X136338500Y-103680000D01*
X142367125Y-102308490D02*
X141942861Y-102308490D01*
X146104920Y-102308490D02*
X142367125Y-102308490D01*
X189399089Y-99163184D02*
X184215905Y-93980000D01*
X184215905Y-93980000D02*
X182281004Y-93980000D01*
X189399089Y-101134089D02*
X189399089Y-99163184D01*
X191135000Y-102870000D02*
X189399089Y-101134089D01*
X150056009Y-98357401D02*
X146104920Y-102308490D01*
X181627498Y-93926498D02*
X181573996Y-93980000D01*
X181573996Y-93980000D02*
X154305000Y-93980000D01*
X182281004Y-93980000D02*
X182227502Y-93926498D01*
X182227502Y-93926498D02*
X181627498Y-93926498D01*
X154305000Y-93980000D02*
X150056009Y-98228991D01*
X150056009Y-98228991D02*
X150056009Y-98357401D01*
X141287500Y-101663500D02*
X142049500Y-101663500D01*
X144944985Y-98768015D02*
X148055075Y-98768015D01*
X184097911Y-92657911D02*
X190285001Y-98845001D01*
X190285001Y-98845001D02*
X190285001Y-99480001D01*
X190285001Y-99480001D02*
X191135000Y-100330000D01*
X148055075Y-98768015D02*
X154165179Y-92657911D01*
X154165179Y-92657911D02*
X184097911Y-92657911D01*
X142049500Y-101663500D02*
X144944985Y-98768015D01*
X147969681Y-98216999D02*
X142386739Y-98216999D01*
X155647091Y-90539589D02*
X147969681Y-98216999D01*
X188163591Y-90539589D02*
X155647091Y-90539589D01*
X194850001Y-99154999D02*
X194850001Y-97225999D01*
X141397974Y-99205764D02*
X141097975Y-99505763D01*
X194850001Y-97225999D02*
X188163591Y-90539589D01*
X142386739Y-98216999D02*
X141397974Y-99205764D01*
X193675000Y-100330000D02*
X194850001Y-99154999D01*
X195580000Y-100965000D02*
X195580000Y-97319587D01*
X147714270Y-97708999D02*
X141942675Y-97708999D01*
X141942675Y-97708999D02*
X141273887Y-98377787D01*
X188397591Y-90137178D02*
X155286091Y-90137178D01*
X193675000Y-102870000D02*
X195580000Y-100965000D01*
X141273887Y-98377787D02*
X140973888Y-98677786D01*
X195580000Y-97319587D02*
X188397591Y-90137178D01*
X155286091Y-90137178D02*
X147714270Y-97708999D01*
X139763500Y-93091000D02*
X139763500Y-95123000D01*
X139763500Y-93091000D02*
X139763500Y-90170000D01*
X139763500Y-90170000D02*
X138684000Y-89090500D01*
X137858500Y-100662410D02*
X138827914Y-100662410D01*
X138827914Y-100662410D02*
X140325001Y-102159497D01*
X140325001Y-102159497D02*
X140325001Y-103050501D01*
X145384486Y-106616500D02*
X145812493Y-106188493D01*
X140325001Y-103050501D02*
X143891000Y-106616500D01*
X143891000Y-106616500D02*
X145384486Y-106616500D01*
X172720000Y-96520000D02*
X159702500Y-96520000D01*
X159702500Y-96520000D02*
X159406411Y-96223911D01*
X158411089Y-96223911D02*
X156845000Y-97790000D01*
X159406411Y-96223911D02*
X158411089Y-96223911D01*
X156845000Y-97790000D02*
X156845000Y-103505000D01*
X156845000Y-103505000D02*
X153098500Y-107251500D01*
X153098500Y-107251500D02*
X150220764Y-107251500D01*
X150220764Y-107251500D02*
X149796500Y-107251500D01*
X145812493Y-106188493D02*
X148733493Y-106188493D01*
X148733493Y-106188493D02*
X149796500Y-107251500D01*
X145812493Y-103440078D02*
X145812493Y-106188493D01*
X156914410Y-95180590D02*
X171678777Y-95180590D01*
X155575000Y-96520000D02*
X156914410Y-95180590D01*
X171678777Y-95180590D02*
X172103041Y-95180590D01*
X155575000Y-95123000D02*
X155575000Y-95547264D01*
X155575000Y-95547264D02*
X155575000Y-96520000D01*
X155575000Y-102235000D02*
X152400000Y-105410000D01*
X152400000Y-105410000D02*
X151130000Y-105410000D01*
X155575000Y-96520000D02*
X155575000Y-102235000D01*
X157312989Y-113197011D02*
X157312989Y-98599542D01*
X154940000Y-115570000D02*
X157312989Y-113197011D01*
X157312989Y-98599542D02*
X158715560Y-97196971D01*
X158715560Y-97196971D02*
X159015559Y-96896972D01*
X154940000Y-115570000D02*
X152400000Y-118110000D01*
X152400000Y-118110000D02*
X147320000Y-118110000D01*
X108420000Y-115620000D02*
X119965000Y-115620000D01*
X119965000Y-115620000D02*
X135255000Y-100330000D01*
X139700000Y-103441500D02*
X145288000Y-109029500D01*
X145288000Y-109029500D02*
X145288000Y-111125000D01*
X139700000Y-102459498D02*
X139700000Y-103441500D01*
X146131001Y-88526178D02*
X146431000Y-88226179D01*
X144780000Y-92392500D02*
X144780000Y-89877179D01*
X144780000Y-89877179D02*
X146131001Y-88526178D01*
X163068000Y-94488000D02*
X181864000Y-94488000D01*
X181864000Y-94488000D02*
X181927500Y-94551500D01*
X155067000Y-94488000D02*
X163068000Y-94488000D01*
X148254999Y-101300001D02*
X155067000Y-94488000D01*
X147955000Y-101663500D02*
X148254999Y-101363501D01*
X148254999Y-101363501D02*
X148254999Y-101300001D01*
X145542000Y-96329500D02*
X145542000Y-91948000D01*
X145542000Y-91948000D02*
X146050000Y-91440000D01*
X146685000Y-96456500D02*
X146685000Y-93345000D01*
X146685000Y-93345000D02*
X148590000Y-91440000D01*
X148590000Y-93980000D02*
X151130000Y-91440000D01*
X147320000Y-95250000D02*
X148590000Y-93980000D01*
X147320000Y-95885000D02*
X147320000Y-95250000D01*
D25*
G36*
X180213000Y-83685816D02*
X180060000Y-84455000D01*
X180226323Y-85291163D01*
X180529568Y-85745000D01*
X179850792Y-85745000D01*
X179767896Y-85662104D01*
X179156359Y-85253487D01*
X178435000Y-85110000D01*
X177966009Y-85110000D01*
X178101325Y-84741632D01*
X178076097Y-84121539D01*
X177887332Y-83665821D01*
X177628256Y-83576349D01*
X176709605Y-84495000D01*
X176723748Y-84509143D01*
X176544143Y-84688748D01*
X176530000Y-84674605D01*
X176515858Y-84688748D01*
X176336253Y-84509143D01*
X176350395Y-84495000D01*
X175431744Y-83576349D01*
X175172668Y-83665821D01*
X174958675Y-84248368D01*
X174983903Y-84868461D01*
X175172668Y-85324179D01*
X175431742Y-85413650D01*
X175380610Y-85464782D01*
X175369683Y-85466838D01*
X175153559Y-85605910D01*
X175008569Y-85818110D01*
X174971912Y-85999127D01*
X174788487Y-86273642D01*
X174645000Y-86995000D01*
X174788487Y-87716358D01*
X174970497Y-87988755D01*
X174998956Y-88140000D01*
X161604802Y-88140000D01*
X158017401Y-84552599D01*
X157770839Y-84387852D01*
X157480000Y-84330000D01*
X149787463Y-84330000D01*
X149755327Y-84297808D01*
X149411799Y-84155162D01*
X149039833Y-84154838D01*
X148696057Y-84296883D01*
X148432808Y-84559673D01*
X148290162Y-84903201D01*
X148289838Y-85275167D01*
X148431883Y-85618943D01*
X148479274Y-85666417D01*
X148473006Y-85675590D01*
X148463000Y-85725000D01*
X148463000Y-86112000D01*
X138580448Y-86112000D01*
X138289608Y-86169852D01*
X138043047Y-86334599D01*
X135801099Y-88576547D01*
X135636352Y-88823109D01*
X135578500Y-89113948D01*
X135578500Y-97102425D01*
X135441799Y-97045662D01*
X135069833Y-97045338D01*
X134726057Y-97187383D01*
X134692882Y-97220500D01*
X133223000Y-97220500D01*
X132932161Y-97278352D01*
X132685599Y-97443099D01*
X117858698Y-112270000D01*
X113084463Y-112270000D01*
X113052327Y-112237808D01*
X112708799Y-112095162D01*
X112336833Y-112094838D01*
X111993057Y-112236883D01*
X111729808Y-112499673D01*
X111587162Y-112843201D01*
X111586838Y-113215167D01*
X111728883Y-113558943D01*
X111991673Y-113822192D01*
X112335201Y-113964838D01*
X112707167Y-113965162D01*
X113050943Y-113823117D01*
X113084118Y-113790000D01*
X118173500Y-113790000D01*
X118464339Y-113732148D01*
X118710901Y-113567401D01*
X133537802Y-98740500D01*
X134692537Y-98740500D01*
X134724673Y-98772692D01*
X135068201Y-98915338D01*
X135440167Y-98915662D01*
X135578500Y-98858504D01*
X135578500Y-99451925D01*
X135441799Y-99395162D01*
X135069833Y-99394838D01*
X134726057Y-99536883D01*
X134462808Y-99799673D01*
X134320162Y-100143201D01*
X134320121Y-100190077D01*
X119650198Y-114860000D01*
X109617531Y-114860000D01*
X109605010Y-114829697D01*
X109212370Y-114436371D01*
X109004488Y-114350051D01*
X109210303Y-114265010D01*
X109603629Y-113872370D01*
X109816757Y-113359100D01*
X109817242Y-112803339D01*
X109605010Y-112289697D01*
X109212370Y-111896371D01*
X109004488Y-111810051D01*
X109210303Y-111725010D01*
X109603629Y-111332370D01*
X109816757Y-110819100D01*
X109817242Y-110263339D01*
X109605010Y-109749697D01*
X109212370Y-109356371D01*
X109020273Y-109276605D01*
X109151143Y-109222397D01*
X109220608Y-108980213D01*
X108420000Y-108179605D01*
X107619392Y-108980213D01*
X107688857Y-109222397D01*
X107829318Y-109272509D01*
X107629697Y-109354990D01*
X107236371Y-109747630D01*
X107023243Y-110260900D01*
X107022758Y-110816661D01*
X107234990Y-111330303D01*
X107627630Y-111723629D01*
X107835512Y-111809949D01*
X107629697Y-111894990D01*
X107236371Y-112287630D01*
X107023243Y-112800900D01*
X107022758Y-113356661D01*
X107234990Y-113870303D01*
X107627630Y-114263629D01*
X107835512Y-114349949D01*
X107629697Y-114434990D01*
X107236371Y-114827630D01*
X107023243Y-115340900D01*
X107022758Y-115896661D01*
X107234990Y-116410303D01*
X107627630Y-116803629D01*
X108140900Y-117016757D01*
X108696661Y-117017242D01*
X109210303Y-116805010D01*
X109365424Y-116650159D01*
X141339446Y-116650159D01*
X141425852Y-116906643D01*
X141999336Y-117116458D01*
X142609460Y-117090839D01*
X143054148Y-116906643D01*
X143140554Y-116650159D01*
X142240000Y-115749605D01*
X141339446Y-116650159D01*
X109365424Y-116650159D01*
X109603629Y-116412370D01*
X109617070Y-116380000D01*
X119965000Y-116380000D01*
X120255839Y-116322148D01*
X120502401Y-116157401D01*
X121330466Y-115329336D01*
X140693542Y-115329336D01*
X140719161Y-115939460D01*
X140903357Y-116384148D01*
X141159841Y-116470554D01*
X142060395Y-115570000D01*
X142419605Y-115570000D01*
X143320159Y-116470554D01*
X143576643Y-116384148D01*
X143786458Y-115810664D01*
X143760839Y-115200540D01*
X143576643Y-114755852D01*
X143320159Y-114669446D01*
X142419605Y-115570000D01*
X142060395Y-115570000D01*
X141159841Y-114669446D01*
X140903357Y-114755852D01*
X140693542Y-115329336D01*
X121330466Y-115329336D01*
X122169961Y-114489841D01*
X141339446Y-114489841D01*
X142240000Y-115390395D01*
X143140554Y-114489841D01*
X143054148Y-114233357D01*
X142480664Y-114023542D01*
X141870540Y-114049161D01*
X141425852Y-114233357D01*
X141339446Y-114489841D01*
X122169961Y-114489841D01*
X135394680Y-101265122D01*
X135440167Y-101265162D01*
X135578500Y-101208004D01*
X135578500Y-103680000D01*
X135636352Y-103970839D01*
X135801099Y-104217401D01*
X141050878Y-109467180D01*
X141050838Y-109512667D01*
X141192883Y-109856443D01*
X141455673Y-110119692D01*
X141799201Y-110262338D01*
X142171167Y-110262662D01*
X142514943Y-110120617D01*
X142653802Y-109982000D01*
X144528000Y-109982000D01*
X144528000Y-110562537D01*
X144495808Y-110594673D01*
X144353162Y-110938201D01*
X144352838Y-111310167D01*
X144494883Y-111653943D01*
X144757673Y-111917192D01*
X145101201Y-112059838D01*
X145473167Y-112060162D01*
X145816943Y-111918117D01*
X146080192Y-111655327D01*
X146222838Y-111311799D01*
X146223162Y-110939833D01*
X146081117Y-110596057D01*
X146048000Y-110562882D01*
X146048000Y-109029500D01*
X145996750Y-108771852D01*
X145990148Y-108738660D01*
X145825401Y-108492099D01*
X144709802Y-107376500D01*
X145384486Y-107376500D01*
X145675325Y-107318648D01*
X145921887Y-107153901D01*
X146127295Y-106948493D01*
X146638931Y-106948493D01*
X146638838Y-107055667D01*
X146780883Y-107399443D01*
X147043673Y-107662692D01*
X147387201Y-107805338D01*
X147434077Y-107805379D01*
X149242488Y-109613790D01*
X149242338Y-109786167D01*
X149384383Y-110129943D01*
X149647173Y-110393192D01*
X149990701Y-110535838D01*
X150362667Y-110536162D01*
X150706443Y-110394117D01*
X150969692Y-110131327D01*
X151112338Y-109787799D01*
X151112662Y-109415833D01*
X150970617Y-109072057D01*
X150707827Y-108808808D01*
X150501389Y-108723087D01*
X149964949Y-108186647D01*
X149981667Y-108186662D01*
X150325443Y-108044617D01*
X150358618Y-108011500D01*
X153098500Y-108011500D01*
X153389339Y-107953648D01*
X153635901Y-107788901D01*
X156552989Y-104871813D01*
X156552989Y-112882209D01*
X155354964Y-114080234D01*
X155246670Y-114035267D01*
X154636009Y-114034735D01*
X154071629Y-114267932D01*
X153639449Y-114699357D01*
X153405267Y-115263330D01*
X153404735Y-115873991D01*
X153450485Y-115984713D01*
X152085198Y-117350000D01*
X149345302Y-117350000D01*
X153365180Y-113330122D01*
X153410667Y-113330162D01*
X153754443Y-113188117D01*
X154017692Y-112925327D01*
X154160338Y-112581799D01*
X154160662Y-112209833D01*
X154018617Y-111866057D01*
X153755827Y-111602808D01*
X153412299Y-111460162D01*
X153040333Y-111459838D01*
X152696557Y-111601883D01*
X152433308Y-111864673D01*
X152290662Y-112208201D01*
X152290621Y-112255077D01*
X148420699Y-116124999D01*
X146731999Y-116124999D01*
X146441160Y-116182851D01*
X146194598Y-116347598D01*
X143322599Y-119219597D01*
X143157852Y-119466159D01*
X143100000Y-119756998D01*
X143100000Y-122357666D01*
X143024683Y-122371838D01*
X142808559Y-122510910D01*
X142663569Y-122723110D01*
X142612560Y-122975000D01*
X142612560Y-124675000D01*
X142656838Y-124910317D01*
X142754625Y-125062283D01*
X142748000Y-125095000D01*
X142748000Y-129770000D01*
X103312467Y-129770000D01*
X101981540Y-129505262D01*
X100910429Y-128789568D01*
X100194738Y-127718459D01*
X99943420Y-126455000D01*
X101060000Y-126455000D01*
X101226323Y-127291163D01*
X101699972Y-128000028D01*
X102408837Y-128473677D01*
X103245000Y-128640000D01*
X104081163Y-128473677D01*
X104790028Y-128000028D01*
X105263677Y-127291163D01*
X105348646Y-126863991D01*
X108824735Y-126863991D01*
X109057932Y-127428371D01*
X109489357Y-127860551D01*
X110053330Y-128094733D01*
X110663991Y-128095265D01*
X111228371Y-127862068D01*
X111660551Y-127430643D01*
X111894733Y-126866670D01*
X111895265Y-126256009D01*
X111662068Y-125691629D01*
X111465783Y-125495000D01*
X111996310Y-125495000D01*
X112229699Y-125398327D01*
X112408327Y-125219698D01*
X112505000Y-124986309D01*
X112505000Y-123545750D01*
X112346250Y-123387000D01*
X111297000Y-123387000D01*
X111297000Y-123407000D01*
X111043000Y-123407000D01*
X111043000Y-123387000D01*
X109993750Y-123387000D01*
X109835000Y-123545750D01*
X109835000Y-124986309D01*
X109880888Y-125097093D01*
X109491629Y-125257932D01*
X109059449Y-125689357D01*
X108825267Y-126253330D01*
X108824735Y-126863991D01*
X105348646Y-126863991D01*
X105430000Y-126455000D01*
X105263677Y-125618837D01*
X104790028Y-124909972D01*
X104081163Y-124436323D01*
X103245000Y-124270000D01*
X102408837Y-124436323D01*
X101699972Y-124909972D01*
X101226323Y-125618837D01*
X101060000Y-126455000D01*
X99943420Y-126455000D01*
X100194738Y-125191541D01*
X100910429Y-124120432D01*
X101981540Y-123404738D01*
X103312467Y-123140000D01*
X104245000Y-123140000D01*
X104311170Y-123126838D01*
X104378636Y-123126838D01*
X104761319Y-123050718D01*
X105008248Y-122948437D01*
X105008249Y-122948436D01*
X105332672Y-122731664D01*
X105521664Y-122542672D01*
X105738437Y-122218249D01*
X105780803Y-122115968D01*
X105840718Y-121971319D01*
X105916838Y-121588636D01*
X105916838Y-121533691D01*
X109835000Y-121533691D01*
X109835000Y-122974250D01*
X109993750Y-123133000D01*
X111043000Y-123133000D01*
X111043000Y-121183750D01*
X111297000Y-121183750D01*
X111297000Y-123133000D01*
X112346250Y-123133000D01*
X112505000Y-122974250D01*
X112505000Y-121533691D01*
X112408327Y-121300302D01*
X112229699Y-121121673D01*
X111996310Y-121025000D01*
X111455750Y-121025000D01*
X111297000Y-121183750D01*
X111043000Y-121183750D01*
X110884250Y-121025000D01*
X110343690Y-121025000D01*
X110110301Y-121121673D01*
X109931673Y-121300302D01*
X109835000Y-121533691D01*
X105916838Y-121533691D01*
X105916838Y-121521170D01*
X105930000Y-121455000D01*
X105930000Y-107792302D01*
X107010856Y-107792302D01*
X107038638Y-108347368D01*
X107197603Y-108731143D01*
X107439787Y-108800608D01*
X108240395Y-108000000D01*
X108599605Y-108000000D01*
X109400213Y-108800608D01*
X109642397Y-108731143D01*
X109829144Y-108207698D01*
X109801362Y-107652632D01*
X109642397Y-107268857D01*
X109400213Y-107199392D01*
X108599605Y-108000000D01*
X108240395Y-108000000D01*
X107439787Y-107199392D01*
X107197603Y-107268857D01*
X107010856Y-107792302D01*
X105930000Y-107792302D01*
X105930000Y-95576661D01*
X107022758Y-95576661D01*
X107234990Y-96090303D01*
X107627630Y-96483629D01*
X107835512Y-96569949D01*
X107629697Y-96654990D01*
X107236371Y-97047630D01*
X107023243Y-97560900D01*
X107022758Y-98116661D01*
X107234990Y-98630303D01*
X107627630Y-99023629D01*
X107835512Y-99109949D01*
X107629697Y-99194990D01*
X107236371Y-99587630D01*
X107023243Y-100100900D01*
X107022758Y-100656661D01*
X107234990Y-101170303D01*
X107627630Y-101563629D01*
X107835512Y-101649949D01*
X107629697Y-101734990D01*
X107236371Y-102127630D01*
X107023243Y-102640900D01*
X107022758Y-103196661D01*
X107234990Y-103710303D01*
X107627630Y-104103629D01*
X107835512Y-104189949D01*
X107629697Y-104274990D01*
X107236371Y-104667630D01*
X107023243Y-105180900D01*
X107022758Y-105736661D01*
X107234990Y-106250303D01*
X107627630Y-106643629D01*
X107819727Y-106723395D01*
X107688857Y-106777603D01*
X107619392Y-107019787D01*
X108420000Y-107820395D01*
X109220608Y-107019787D01*
X109151143Y-106777603D01*
X109010682Y-106727491D01*
X109210303Y-106645010D01*
X109603629Y-106252370D01*
X109816757Y-105739100D01*
X109817242Y-105183339D01*
X109605010Y-104669697D01*
X109212370Y-104276371D01*
X109004488Y-104190051D01*
X109210303Y-104105010D01*
X109603629Y-103712370D01*
X109816757Y-103199100D01*
X109817242Y-102643339D01*
X109605010Y-102129697D01*
X109212370Y-101736371D01*
X109004488Y-101650051D01*
X109210303Y-101565010D01*
X109603629Y-101172370D01*
X109816757Y-100659100D01*
X109817242Y-100103339D01*
X109605010Y-99589697D01*
X109212370Y-99196371D01*
X109004488Y-99110051D01*
X109210303Y-99025010D01*
X109603629Y-98632370D01*
X109816757Y-98119100D01*
X109817242Y-97563339D01*
X109605010Y-97049697D01*
X109212370Y-96656371D01*
X109004488Y-96570051D01*
X109210303Y-96485010D01*
X109603629Y-96092370D01*
X109816757Y-95579100D01*
X109817242Y-95023339D01*
X109605010Y-94509697D01*
X109212370Y-94116371D01*
X108699100Y-93903243D01*
X108143339Y-93902758D01*
X107629697Y-94114990D01*
X107236371Y-94507630D01*
X107023243Y-95020900D01*
X107022758Y-95576661D01*
X105930000Y-95576661D01*
X105930000Y-89454999D01*
X105916838Y-89388829D01*
X105916838Y-89321363D01*
X105840718Y-88938680D01*
X105770848Y-88769999D01*
X105738437Y-88691750D01*
X105521664Y-88367327D01*
X105332672Y-88178335D01*
X105008248Y-87961562D01*
X104993041Y-87955263D01*
X104761319Y-87859281D01*
X104378636Y-87783161D01*
X104311170Y-87783161D01*
X104245000Y-87769999D01*
X103312467Y-87769999D01*
X101981541Y-87505261D01*
X100910430Y-86789567D01*
X100194739Y-85718458D01*
X99943421Y-84455000D01*
X101060000Y-84455000D01*
X101226323Y-85291163D01*
X101699972Y-86000028D01*
X102408837Y-86473677D01*
X103245000Y-86640000D01*
X104081163Y-86473677D01*
X104790028Y-86000028D01*
X105263677Y-85291163D01*
X105388429Y-84663991D01*
X108824735Y-84663991D01*
X109057932Y-85228371D01*
X109489357Y-85660551D01*
X109871331Y-85819161D01*
X109822560Y-86060000D01*
X109822560Y-89260000D01*
X109866838Y-89495317D01*
X110005910Y-89711441D01*
X110218110Y-89856431D01*
X110470000Y-89907440D01*
X111870000Y-89907440D01*
X112105317Y-89863162D01*
X112321441Y-89724090D01*
X112466431Y-89511890D01*
X112517440Y-89260000D01*
X112517440Y-86060000D01*
X112473162Y-85824683D01*
X112334090Y-85608559D01*
X112121890Y-85463569D01*
X111870000Y-85412560D01*
X111478316Y-85412560D01*
X111660551Y-85230643D01*
X111894733Y-84666670D01*
X111895265Y-84056009D01*
X111662068Y-83491629D01*
X111567349Y-83396744D01*
X175611349Y-83396744D01*
X176530000Y-84315395D01*
X177448651Y-83396744D01*
X177359179Y-83137668D01*
X176776632Y-82923675D01*
X176156539Y-82948903D01*
X175700821Y-83137668D01*
X175611349Y-83396744D01*
X111567349Y-83396744D01*
X111230643Y-83059449D01*
X110666670Y-82825267D01*
X110056009Y-82824735D01*
X109491629Y-83057932D01*
X109059449Y-83489357D01*
X108825267Y-84053330D01*
X108824735Y-84663991D01*
X105388429Y-84663991D01*
X105430000Y-84455000D01*
X105263677Y-83618837D01*
X104790028Y-82909972D01*
X104081163Y-82436323D01*
X103245000Y-82270000D01*
X102408837Y-82436323D01*
X101699972Y-82909972D01*
X101226323Y-83618837D01*
X101060000Y-84455000D01*
X99943421Y-84455000D01*
X100194739Y-83191542D01*
X100910430Y-82120433D01*
X101981541Y-81404739D01*
X103312467Y-81140001D01*
X180213000Y-81140001D01*
X180213000Y-83685816D01*
X180213000Y-83685816D01*
G37*
X180213000Y-83685816D02*
X180060000Y-84455000D01*
X180226323Y-85291163D01*
X180529568Y-85745000D01*
X179850792Y-85745000D01*
X179767896Y-85662104D01*
X179156359Y-85253487D01*
X178435000Y-85110000D01*
X177966009Y-85110000D01*
X178101325Y-84741632D01*
X178076097Y-84121539D01*
X177887332Y-83665821D01*
X177628256Y-83576349D01*
X176709605Y-84495000D01*
X176723748Y-84509143D01*
X176544143Y-84688748D01*
X176530000Y-84674605D01*
X176515858Y-84688748D01*
X176336253Y-84509143D01*
X176350395Y-84495000D01*
X175431744Y-83576349D01*
X175172668Y-83665821D01*
X174958675Y-84248368D01*
X174983903Y-84868461D01*
X175172668Y-85324179D01*
X175431742Y-85413650D01*
X175380610Y-85464782D01*
X175369683Y-85466838D01*
X175153559Y-85605910D01*
X175008569Y-85818110D01*
X174971912Y-85999127D01*
X174788487Y-86273642D01*
X174645000Y-86995000D01*
X174788487Y-87716358D01*
X174970497Y-87988755D01*
X174998956Y-88140000D01*
X161604802Y-88140000D01*
X158017401Y-84552599D01*
X157770839Y-84387852D01*
X157480000Y-84330000D01*
X149787463Y-84330000D01*
X149755327Y-84297808D01*
X149411799Y-84155162D01*
X149039833Y-84154838D01*
X148696057Y-84296883D01*
X148432808Y-84559673D01*
X148290162Y-84903201D01*
X148289838Y-85275167D01*
X148431883Y-85618943D01*
X148479274Y-85666417D01*
X148473006Y-85675590D01*
X148463000Y-85725000D01*
X148463000Y-86112000D01*
X138580448Y-86112000D01*
X138289608Y-86169852D01*
X138043047Y-86334599D01*
X135801099Y-88576547D01*
X135636352Y-88823109D01*
X135578500Y-89113948D01*
X135578500Y-97102425D01*
X135441799Y-97045662D01*
X135069833Y-97045338D01*
X134726057Y-97187383D01*
X134692882Y-97220500D01*
X133223000Y-97220500D01*
X132932161Y-97278352D01*
X132685599Y-97443099D01*
X117858698Y-112270000D01*
X113084463Y-112270000D01*
X113052327Y-112237808D01*
X112708799Y-112095162D01*
X112336833Y-112094838D01*
X111993057Y-112236883D01*
X111729808Y-112499673D01*
X111587162Y-112843201D01*
X111586838Y-113215167D01*
X111728883Y-113558943D01*
X111991673Y-113822192D01*
X112335201Y-113964838D01*
X112707167Y-113965162D01*
X113050943Y-113823117D01*
X113084118Y-113790000D01*
X118173500Y-113790000D01*
X118464339Y-113732148D01*
X118710901Y-113567401D01*
X133537802Y-98740500D01*
X134692537Y-98740500D01*
X134724673Y-98772692D01*
X135068201Y-98915338D01*
X135440167Y-98915662D01*
X135578500Y-98858504D01*
X135578500Y-99451925D01*
X135441799Y-99395162D01*
X135069833Y-99394838D01*
X134726057Y-99536883D01*
X134462808Y-99799673D01*
X134320162Y-100143201D01*
X134320121Y-100190077D01*
X119650198Y-114860000D01*
X109617531Y-114860000D01*
X109605010Y-114829697D01*
X109212370Y-114436371D01*
X109004488Y-114350051D01*
X109210303Y-114265010D01*
X109603629Y-113872370D01*
X109816757Y-113359100D01*
X109817242Y-112803339D01*
X109605010Y-112289697D01*
X109212370Y-111896371D01*
X109004488Y-111810051D01*
X109210303Y-111725010D01*
X109603629Y-111332370D01*
X109816757Y-110819100D01*
X109817242Y-110263339D01*
X109605010Y-109749697D01*
X109212370Y-109356371D01*
X109020273Y-109276605D01*
X109151143Y-109222397D01*
X109220608Y-108980213D01*
X108420000Y-108179605D01*
X107619392Y-108980213D01*
X107688857Y-109222397D01*
X107829318Y-109272509D01*
X107629697Y-109354990D01*
X107236371Y-109747630D01*
X107023243Y-110260900D01*
X107022758Y-110816661D01*
X107234990Y-111330303D01*
X107627630Y-111723629D01*
X107835512Y-111809949D01*
X107629697Y-111894990D01*
X107236371Y-112287630D01*
X107023243Y-112800900D01*
X107022758Y-113356661D01*
X107234990Y-113870303D01*
X107627630Y-114263629D01*
X107835512Y-114349949D01*
X107629697Y-114434990D01*
X107236371Y-114827630D01*
X107023243Y-115340900D01*
X107022758Y-115896661D01*
X107234990Y-116410303D01*
X107627630Y-116803629D01*
X108140900Y-117016757D01*
X108696661Y-117017242D01*
X109210303Y-116805010D01*
X109365424Y-116650159D01*
X141339446Y-116650159D01*
X141425852Y-116906643D01*
X141999336Y-117116458D01*
X142609460Y-117090839D01*
X143054148Y-116906643D01*
X143140554Y-116650159D01*
X142240000Y-115749605D01*
X141339446Y-116650159D01*
X109365424Y-116650159D01*
X109603629Y-116412370D01*
X109617070Y-116380000D01*
X119965000Y-116380000D01*
X120255839Y-116322148D01*
X120502401Y-116157401D01*
X121330466Y-115329336D01*
X140693542Y-115329336D01*
X140719161Y-115939460D01*
X140903357Y-116384148D01*
X141159841Y-116470554D01*
X142060395Y-115570000D01*
X142419605Y-115570000D01*
X143320159Y-116470554D01*
X143576643Y-116384148D01*
X143786458Y-115810664D01*
X143760839Y-115200540D01*
X143576643Y-114755852D01*
X143320159Y-114669446D01*
X142419605Y-115570000D01*
X142060395Y-115570000D01*
X141159841Y-114669446D01*
X140903357Y-114755852D01*
X140693542Y-115329336D01*
X121330466Y-115329336D01*
X122169961Y-114489841D01*
X141339446Y-114489841D01*
X142240000Y-115390395D01*
X143140554Y-114489841D01*
X143054148Y-114233357D01*
X142480664Y-114023542D01*
X141870540Y-114049161D01*
X141425852Y-114233357D01*
X141339446Y-114489841D01*
X122169961Y-114489841D01*
X135394680Y-101265122D01*
X135440167Y-101265162D01*
X135578500Y-101208004D01*
X135578500Y-103680000D01*
X135636352Y-103970839D01*
X135801099Y-104217401D01*
X141050878Y-109467180D01*
X141050838Y-109512667D01*
X141192883Y-109856443D01*
X141455673Y-110119692D01*
X141799201Y-110262338D01*
X142171167Y-110262662D01*
X142514943Y-110120617D01*
X142653802Y-109982000D01*
X144528000Y-109982000D01*
X144528000Y-110562537D01*
X144495808Y-110594673D01*
X144353162Y-110938201D01*
X144352838Y-111310167D01*
X144494883Y-111653943D01*
X144757673Y-111917192D01*
X145101201Y-112059838D01*
X145473167Y-112060162D01*
X145816943Y-111918117D01*
X146080192Y-111655327D01*
X146222838Y-111311799D01*
X146223162Y-110939833D01*
X146081117Y-110596057D01*
X146048000Y-110562882D01*
X146048000Y-109029500D01*
X145996750Y-108771852D01*
X145990148Y-108738660D01*
X145825401Y-108492099D01*
X144709802Y-107376500D01*
X145384486Y-107376500D01*
X145675325Y-107318648D01*
X145921887Y-107153901D01*
X146127295Y-106948493D01*
X146638931Y-106948493D01*
X146638838Y-107055667D01*
X146780883Y-107399443D01*
X147043673Y-107662692D01*
X147387201Y-107805338D01*
X147434077Y-107805379D01*
X149242488Y-109613790D01*
X149242338Y-109786167D01*
X149384383Y-110129943D01*
X149647173Y-110393192D01*
X149990701Y-110535838D01*
X150362667Y-110536162D01*
X150706443Y-110394117D01*
X150969692Y-110131327D01*
X151112338Y-109787799D01*
X151112662Y-109415833D01*
X150970617Y-109072057D01*
X150707827Y-108808808D01*
X150501389Y-108723087D01*
X149964949Y-108186647D01*
X149981667Y-108186662D01*
X150325443Y-108044617D01*
X150358618Y-108011500D01*
X153098500Y-108011500D01*
X153389339Y-107953648D01*
X153635901Y-107788901D01*
X156552989Y-104871813D01*
X156552989Y-112882209D01*
X155354964Y-114080234D01*
X155246670Y-114035267D01*
X154636009Y-114034735D01*
X154071629Y-114267932D01*
X153639449Y-114699357D01*
X153405267Y-115263330D01*
X153404735Y-115873991D01*
X153450485Y-115984713D01*
X152085198Y-117350000D01*
X149345302Y-117350000D01*
X153365180Y-113330122D01*
X153410667Y-113330162D01*
X153754443Y-113188117D01*
X154017692Y-112925327D01*
X154160338Y-112581799D01*
X154160662Y-112209833D01*
X154018617Y-111866057D01*
X153755827Y-111602808D01*
X153412299Y-111460162D01*
X153040333Y-111459838D01*
X152696557Y-111601883D01*
X152433308Y-111864673D01*
X152290662Y-112208201D01*
X152290621Y-112255077D01*
X148420699Y-116124999D01*
X146731999Y-116124999D01*
X146441160Y-116182851D01*
X146194598Y-116347598D01*
X143322599Y-119219597D01*
X143157852Y-119466159D01*
X143100000Y-119756998D01*
X143100000Y-122357666D01*
X143024683Y-122371838D01*
X142808559Y-122510910D01*
X142663569Y-122723110D01*
X142612560Y-122975000D01*
X142612560Y-124675000D01*
X142656838Y-124910317D01*
X142754625Y-125062283D01*
X142748000Y-125095000D01*
X142748000Y-129770000D01*
X103312467Y-129770000D01*
X101981540Y-129505262D01*
X100910429Y-128789568D01*
X100194738Y-127718459D01*
X99943420Y-126455000D01*
X101060000Y-126455000D01*
X101226323Y-127291163D01*
X101699972Y-128000028D01*
X102408837Y-128473677D01*
X103245000Y-128640000D01*
X104081163Y-128473677D01*
X104790028Y-128000028D01*
X105263677Y-127291163D01*
X105348646Y-126863991D01*
X108824735Y-126863991D01*
X109057932Y-127428371D01*
X109489357Y-127860551D01*
X110053330Y-128094733D01*
X110663991Y-128095265D01*
X111228371Y-127862068D01*
X111660551Y-127430643D01*
X111894733Y-126866670D01*
X111895265Y-126256009D01*
X111662068Y-125691629D01*
X111465783Y-125495000D01*
X111996310Y-125495000D01*
X112229699Y-125398327D01*
X112408327Y-125219698D01*
X112505000Y-124986309D01*
X112505000Y-123545750D01*
X112346250Y-123387000D01*
X111297000Y-123387000D01*
X111297000Y-123407000D01*
X111043000Y-123407000D01*
X111043000Y-123387000D01*
X109993750Y-123387000D01*
X109835000Y-123545750D01*
X109835000Y-124986309D01*
X109880888Y-125097093D01*
X109491629Y-125257932D01*
X109059449Y-125689357D01*
X108825267Y-126253330D01*
X108824735Y-126863991D01*
X105348646Y-126863991D01*
X105430000Y-126455000D01*
X105263677Y-125618837D01*
X104790028Y-124909972D01*
X104081163Y-124436323D01*
X103245000Y-124270000D01*
X102408837Y-124436323D01*
X101699972Y-124909972D01*
X101226323Y-125618837D01*
X101060000Y-126455000D01*
X99943420Y-126455000D01*
X100194738Y-125191541D01*
X100910429Y-124120432D01*
X101981540Y-123404738D01*
X103312467Y-123140000D01*
X104245000Y-123140000D01*
X104311170Y-123126838D01*
X104378636Y-123126838D01*
X104761319Y-123050718D01*
X105008248Y-122948437D01*
X105008249Y-122948436D01*
X105332672Y-122731664D01*
X105521664Y-122542672D01*
X105738437Y-122218249D01*
X105780803Y-122115968D01*
X105840718Y-121971319D01*
X105916838Y-121588636D01*
X105916838Y-121533691D01*
X109835000Y-121533691D01*
X109835000Y-122974250D01*
X109993750Y-123133000D01*
X111043000Y-123133000D01*
X111043000Y-121183750D01*
X111297000Y-121183750D01*
X111297000Y-123133000D01*
X112346250Y-123133000D01*
X112505000Y-122974250D01*
X112505000Y-121533691D01*
X112408327Y-121300302D01*
X112229699Y-121121673D01*
X111996310Y-121025000D01*
X111455750Y-121025000D01*
X111297000Y-121183750D01*
X111043000Y-121183750D01*
X110884250Y-121025000D01*
X110343690Y-121025000D01*
X110110301Y-121121673D01*
X109931673Y-121300302D01*
X109835000Y-121533691D01*
X105916838Y-121533691D01*
X105916838Y-121521170D01*
X105930000Y-121455000D01*
X105930000Y-107792302D01*
X107010856Y-107792302D01*
X107038638Y-108347368D01*
X107197603Y-108731143D01*
X107439787Y-108800608D01*
X108240395Y-108000000D01*
X108599605Y-108000000D01*
X109400213Y-108800608D01*
X109642397Y-108731143D01*
X109829144Y-108207698D01*
X109801362Y-107652632D01*
X109642397Y-107268857D01*
X109400213Y-107199392D01*
X108599605Y-108000000D01*
X108240395Y-108000000D01*
X107439787Y-107199392D01*
X107197603Y-107268857D01*
X107010856Y-107792302D01*
X105930000Y-107792302D01*
X105930000Y-95576661D01*
X107022758Y-95576661D01*
X107234990Y-96090303D01*
X107627630Y-96483629D01*
X107835512Y-96569949D01*
X107629697Y-96654990D01*
X107236371Y-97047630D01*
X107023243Y-97560900D01*
X107022758Y-98116661D01*
X107234990Y-98630303D01*
X107627630Y-99023629D01*
X107835512Y-99109949D01*
X107629697Y-99194990D01*
X107236371Y-99587630D01*
X107023243Y-100100900D01*
X107022758Y-100656661D01*
X107234990Y-101170303D01*
X107627630Y-101563629D01*
X107835512Y-101649949D01*
X107629697Y-101734990D01*
X107236371Y-102127630D01*
X107023243Y-102640900D01*
X107022758Y-103196661D01*
X107234990Y-103710303D01*
X107627630Y-104103629D01*
X107835512Y-104189949D01*
X107629697Y-104274990D01*
X107236371Y-104667630D01*
X107023243Y-105180900D01*
X107022758Y-105736661D01*
X107234990Y-106250303D01*
X107627630Y-106643629D01*
X107819727Y-106723395D01*
X107688857Y-106777603D01*
X107619392Y-107019787D01*
X108420000Y-107820395D01*
X109220608Y-107019787D01*
X109151143Y-106777603D01*
X109010682Y-106727491D01*
X109210303Y-106645010D01*
X109603629Y-106252370D01*
X109816757Y-105739100D01*
X109817242Y-105183339D01*
X109605010Y-104669697D01*
X109212370Y-104276371D01*
X109004488Y-104190051D01*
X109210303Y-104105010D01*
X109603629Y-103712370D01*
X109816757Y-103199100D01*
X109817242Y-102643339D01*
X109605010Y-102129697D01*
X109212370Y-101736371D01*
X109004488Y-101650051D01*
X109210303Y-101565010D01*
X109603629Y-101172370D01*
X109816757Y-100659100D01*
X109817242Y-100103339D01*
X109605010Y-99589697D01*
X109212370Y-99196371D01*
X109004488Y-99110051D01*
X109210303Y-99025010D01*
X109603629Y-98632370D01*
X109816757Y-98119100D01*
X109817242Y-97563339D01*
X109605010Y-97049697D01*
X109212370Y-96656371D01*
X109004488Y-96570051D01*
X109210303Y-96485010D01*
X109603629Y-96092370D01*
X109816757Y-95579100D01*
X109817242Y-95023339D01*
X109605010Y-94509697D01*
X109212370Y-94116371D01*
X108699100Y-93903243D01*
X108143339Y-93902758D01*
X107629697Y-94114990D01*
X107236371Y-94507630D01*
X107023243Y-95020900D01*
X107022758Y-95576661D01*
X105930000Y-95576661D01*
X105930000Y-89454999D01*
X105916838Y-89388829D01*
X105916838Y-89321363D01*
X105840718Y-88938680D01*
X105770848Y-88769999D01*
X105738437Y-88691750D01*
X105521664Y-88367327D01*
X105332672Y-88178335D01*
X105008248Y-87961562D01*
X104993041Y-87955263D01*
X104761319Y-87859281D01*
X104378636Y-87783161D01*
X104311170Y-87783161D01*
X104245000Y-87769999D01*
X103312467Y-87769999D01*
X101981541Y-87505261D01*
X100910430Y-86789567D01*
X100194739Y-85718458D01*
X99943421Y-84455000D01*
X101060000Y-84455000D01*
X101226323Y-85291163D01*
X101699972Y-86000028D01*
X102408837Y-86473677D01*
X103245000Y-86640000D01*
X104081163Y-86473677D01*
X104790028Y-86000028D01*
X105263677Y-85291163D01*
X105388429Y-84663991D01*
X108824735Y-84663991D01*
X109057932Y-85228371D01*
X109489357Y-85660551D01*
X109871331Y-85819161D01*
X109822560Y-86060000D01*
X109822560Y-89260000D01*
X109866838Y-89495317D01*
X110005910Y-89711441D01*
X110218110Y-89856431D01*
X110470000Y-89907440D01*
X111870000Y-89907440D01*
X112105317Y-89863162D01*
X112321441Y-89724090D01*
X112466431Y-89511890D01*
X112517440Y-89260000D01*
X112517440Y-86060000D01*
X112473162Y-85824683D01*
X112334090Y-85608559D01*
X112121890Y-85463569D01*
X111870000Y-85412560D01*
X111478316Y-85412560D01*
X111660551Y-85230643D01*
X111894733Y-84666670D01*
X111895265Y-84056009D01*
X111662068Y-83491629D01*
X111567349Y-83396744D01*
X175611349Y-83396744D01*
X176530000Y-84315395D01*
X177448651Y-83396744D01*
X177359179Y-83137668D01*
X176776632Y-82923675D01*
X176156539Y-82948903D01*
X175700821Y-83137668D01*
X175611349Y-83396744D01*
X111567349Y-83396744D01*
X111230643Y-83059449D01*
X110666670Y-82825267D01*
X110056009Y-82824735D01*
X109491629Y-83057932D01*
X109059449Y-83489357D01*
X108825267Y-84053330D01*
X108824735Y-84663991D01*
X105388429Y-84663991D01*
X105430000Y-84455000D01*
X105263677Y-83618837D01*
X104790028Y-82909972D01*
X104081163Y-82436323D01*
X103245000Y-82270000D01*
X102408837Y-82436323D01*
X101699972Y-82909972D01*
X101226323Y-83618837D01*
X101060000Y-84455000D01*
X99943421Y-84455000D01*
X100194739Y-83191542D01*
X100910430Y-82120433D01*
X101981541Y-81404739D01*
X103312467Y-81140001D01*
X180213000Y-81140001D01*
X180213000Y-83685816D01*
G36*
X158244000Y-120144698D02*
X154148688Y-124240010D01*
X151081225Y-124240010D01*
X151105256Y-124147696D01*
X150942547Y-123952000D01*
X149987000Y-123952000D01*
X149987000Y-123972000D01*
X149733000Y-123972000D01*
X149733000Y-123952000D01*
X149713000Y-123952000D01*
X149713000Y-123698000D01*
X149733000Y-123698000D01*
X149733000Y-122506269D01*
X149987000Y-122506269D01*
X149987000Y-123698000D01*
X150942547Y-123698000D01*
X151105256Y-123502304D01*
X150982647Y-123031299D01*
X150689125Y-122643067D01*
X150269376Y-122396714D01*
X150177609Y-122381538D01*
X149987000Y-122506269D01*
X149733000Y-122506269D01*
X149542391Y-122381538D01*
X149450624Y-122396714D01*
X149030875Y-122643067D01*
X148862410Y-122865891D01*
X148733277Y-122672630D01*
X148332614Y-122404916D01*
X148010092Y-122340762D01*
X150278354Y-120072500D01*
X154345052Y-120072500D01*
X154635891Y-120014648D01*
X154882453Y-119849901D01*
X158244000Y-116488354D01*
X158244000Y-120144698D01*
X158244000Y-120144698D01*
G37*
X158244000Y-120144698D02*
X154148688Y-124240010D01*
X151081225Y-124240010D01*
X151105256Y-124147696D01*
X150942547Y-123952000D01*
X149987000Y-123952000D01*
X149987000Y-123972000D01*
X149733000Y-123972000D01*
X149733000Y-123952000D01*
X149713000Y-123952000D01*
X149713000Y-123698000D01*
X149733000Y-123698000D01*
X149733000Y-122506269D01*
X149987000Y-122506269D01*
X149987000Y-123698000D01*
X150942547Y-123698000D01*
X151105256Y-123502304D01*
X150982647Y-123031299D01*
X150689125Y-122643067D01*
X150269376Y-122396714D01*
X150177609Y-122381538D01*
X149987000Y-122506269D01*
X149733000Y-122506269D01*
X149542391Y-122381538D01*
X149450624Y-122396714D01*
X149030875Y-122643067D01*
X148862410Y-122865891D01*
X148733277Y-122672630D01*
X148332614Y-122404916D01*
X148010092Y-122340762D01*
X150278354Y-120072500D01*
X154345052Y-120072500D01*
X154635891Y-120014648D01*
X154882453Y-119849901D01*
X158244000Y-116488354D01*
X158244000Y-120144698D01*
G36*
X154815000Y-101920198D02*
X152085198Y-104650000D01*
X151692463Y-104650000D01*
X151660327Y-104617808D01*
X151316799Y-104475162D01*
X150944833Y-104474838D01*
X150601057Y-104616883D01*
X150337808Y-104879673D01*
X150195162Y-105223201D01*
X150194838Y-105595167D01*
X150336883Y-105938943D01*
X150599673Y-106202192D01*
X150943201Y-106344838D01*
X151315167Y-106345162D01*
X151658943Y-106203117D01*
X151692118Y-106170000D01*
X152400000Y-106170000D01*
X152690839Y-106112148D01*
X152937401Y-105947401D01*
X156085000Y-102799802D01*
X156085000Y-103190198D01*
X152783698Y-106491500D01*
X150358963Y-106491500D01*
X150326827Y-106459308D01*
X149983299Y-106316662D01*
X149936423Y-106316621D01*
X149270894Y-105651092D01*
X149024332Y-105486345D01*
X148733493Y-105428493D01*
X148064618Y-105428493D01*
X148064662Y-105378316D01*
X147922617Y-105034540D01*
X147889500Y-105001365D01*
X147889500Y-103178463D01*
X147921692Y-103146327D01*
X148064338Y-102802799D01*
X148064516Y-102598596D01*
X148140167Y-102598662D01*
X148483943Y-102456617D01*
X148747192Y-102193827D01*
X148889838Y-101850299D01*
X148889921Y-101754951D01*
X148920267Y-101709535D01*
X154815000Y-95814802D01*
X154815000Y-101920198D01*
X154815000Y-101920198D01*
G37*
X154815000Y-101920198D02*
X152085198Y-104650000D01*
X151692463Y-104650000D01*
X151660327Y-104617808D01*
X151316799Y-104475162D01*
X150944833Y-104474838D01*
X150601057Y-104616883D01*
X150337808Y-104879673D01*
X150195162Y-105223201D01*
X150194838Y-105595167D01*
X150336883Y-105938943D01*
X150599673Y-106202192D01*
X150943201Y-106344838D01*
X151315167Y-106345162D01*
X151658943Y-106203117D01*
X151692118Y-106170000D01*
X152400000Y-106170000D01*
X152690839Y-106112148D01*
X152937401Y-105947401D01*
X156085000Y-102799802D01*
X156085000Y-103190198D01*
X152783698Y-106491500D01*
X150358963Y-106491500D01*
X150326827Y-106459308D01*
X149983299Y-106316662D01*
X149936423Y-106316621D01*
X149270894Y-105651092D01*
X149024332Y-105486345D01*
X148733493Y-105428493D01*
X148064618Y-105428493D01*
X148064662Y-105378316D01*
X147922617Y-105034540D01*
X147889500Y-105001365D01*
X147889500Y-103178463D01*
X147921692Y-103146327D01*
X148064338Y-102802799D01*
X148064516Y-102598596D01*
X148140167Y-102598662D01*
X148483943Y-102456617D01*
X148747192Y-102193827D01*
X148889838Y-101850299D01*
X148889921Y-101754951D01*
X148920267Y-101709535D01*
X154815000Y-95814802D01*
X154815000Y-101920198D01*
G36*
X145790118Y-101548490D02*
X143239312Y-101548490D01*
X145259787Y-99528015D01*
X147810593Y-99528015D01*
X145790118Y-101548490D01*
X145790118Y-101548490D01*
G37*
X145790118Y-101548490D02*
X143239312Y-101548490D01*
X145259787Y-99528015D01*
X147810593Y-99528015D01*
X145790118Y-101548490D01*
G36*
X138557000Y-91313000D02*
X138577000Y-91313000D01*
X138577000Y-91567000D01*
X138557000Y-91567000D01*
X138557000Y-92766250D01*
X138715750Y-92925000D01*
X139003500Y-92925000D01*
X139003500Y-94560537D01*
X138971308Y-94592673D01*
X138828662Y-94936201D01*
X138828338Y-95308167D01*
X138970383Y-95651943D01*
X139233173Y-95915192D01*
X139576701Y-96057838D01*
X139948667Y-96058162D01*
X140210000Y-95950182D01*
X140210000Y-96014698D01*
X139234084Y-96990614D01*
X139069337Y-97237176D01*
X139011485Y-97528015D01*
X139011485Y-99938925D01*
X138827914Y-99902410D01*
X138420963Y-99902410D01*
X138388827Y-99870218D01*
X138045299Y-99727572D01*
X137673333Y-99727248D01*
X137598500Y-99758168D01*
X137598500Y-92925000D01*
X138144250Y-92925000D01*
X138303000Y-92766250D01*
X138303000Y-91567000D01*
X138283000Y-91567000D01*
X138283000Y-91313000D01*
X138303000Y-91313000D01*
X138303000Y-91293000D01*
X138557000Y-91293000D01*
X138557000Y-91313000D01*
X138557000Y-91313000D01*
G37*
X138557000Y-91313000D02*
X138577000Y-91313000D01*
X138577000Y-91567000D01*
X138557000Y-91567000D01*
X138557000Y-92766250D01*
X138715750Y-92925000D01*
X139003500Y-92925000D01*
X139003500Y-94560537D01*
X138971308Y-94592673D01*
X138828662Y-94936201D01*
X138828338Y-95308167D01*
X138970383Y-95651943D01*
X139233173Y-95915192D01*
X139576701Y-96057838D01*
X139948667Y-96058162D01*
X140210000Y-95950182D01*
X140210000Y-96014698D01*
X139234084Y-96990614D01*
X139069337Y-97237176D01*
X139011485Y-97528015D01*
X139011485Y-99938925D01*
X138827914Y-99902410D01*
X138420963Y-99902410D01*
X138388827Y-99870218D01*
X138045299Y-99727572D01*
X137673333Y-99727248D01*
X137598500Y-99758168D01*
X137598500Y-92925000D01*
X138144250Y-92925000D01*
X138303000Y-92766250D01*
X138303000Y-91567000D01*
X138283000Y-91567000D01*
X138283000Y-91313000D01*
X138303000Y-91313000D01*
X138303000Y-91293000D01*
X138557000Y-91293000D01*
X138557000Y-91313000D01*
G36*
X192793642Y-98985183D02*
X192936553Y-99052298D01*
X192595853Y-99279946D01*
X192405000Y-99565578D01*
X192214147Y-99279946D01*
X191873447Y-99052298D01*
X192016358Y-98985183D01*
X192405000Y-98558729D01*
X192793642Y-98985183D01*
X192793642Y-98985183D01*
G37*
X192793642Y-98985183D02*
X192936553Y-99052298D01*
X192595853Y-99279946D01*
X192405000Y-99565578D01*
X192214147Y-99279946D01*
X191873447Y-99052298D01*
X192016358Y-98985183D01*
X192405000Y-98558729D01*
X192793642Y-98985183D01*
G36*
X193032053Y-96482853D02*
X192793642Y-96594817D01*
X192405000Y-97021271D01*
X192016358Y-96594817D01*
X191491892Y-96348514D01*
X191262000Y-96469181D01*
X191262000Y-97663000D01*
X193548000Y-97663000D01*
X193548000Y-97643000D01*
X193802000Y-97643000D01*
X193802000Y-97663000D01*
X193822000Y-97663000D01*
X193822000Y-97917000D01*
X193802000Y-97917000D01*
X193802000Y-97937000D01*
X193548000Y-97937000D01*
X193548000Y-97917000D01*
X191262000Y-97917000D01*
X191262000Y-97937000D01*
X191008000Y-97937000D01*
X191008000Y-97917000D01*
X190988000Y-97917000D01*
X190988000Y-97663000D01*
X191008000Y-97663000D01*
X191008000Y-96469181D01*
X190778108Y-96348514D01*
X190253642Y-96594817D01*
X189863355Y-97023076D01*
X189768029Y-97253227D01*
X184635312Y-92120510D01*
X184388750Y-91955763D01*
X184097911Y-91897911D01*
X155363571Y-91897911D01*
X155961893Y-91299589D01*
X187848789Y-91299589D01*
X193032053Y-96482853D01*
X193032053Y-96482853D01*
G37*
X193032053Y-96482853D02*
X192793642Y-96594817D01*
X192405000Y-97021271D01*
X192016358Y-96594817D01*
X191491892Y-96348514D01*
X191262000Y-96469181D01*
X191262000Y-97663000D01*
X193548000Y-97663000D01*
X193548000Y-97643000D01*
X193802000Y-97643000D01*
X193802000Y-97663000D01*
X193822000Y-97663000D01*
X193822000Y-97917000D01*
X193802000Y-97917000D01*
X193802000Y-97937000D01*
X193548000Y-97937000D01*
X193548000Y-97917000D01*
X191262000Y-97917000D01*
X191262000Y-97937000D01*
X191008000Y-97937000D01*
X191008000Y-97917000D01*
X190988000Y-97917000D01*
X190988000Y-97663000D01*
X191008000Y-97663000D01*
X191008000Y-96469181D01*
X190778108Y-96348514D01*
X190253642Y-96594817D01*
X189863355Y-97023076D01*
X189768029Y-97253227D01*
X184635312Y-92120510D01*
X184388750Y-91955763D01*
X184097911Y-91897911D01*
X155363571Y-91897911D01*
X155961893Y-91299589D01*
X187848789Y-91299589D01*
X193032053Y-96482853D01*
G36*
X142459946Y-92519147D02*
X142941715Y-92841054D01*
X143510000Y-92954093D01*
X143963131Y-92863960D01*
X143986883Y-92921443D01*
X144249673Y-93184692D01*
X144593201Y-93327338D01*
X144782000Y-93327502D01*
X144782000Y-95767037D01*
X144749808Y-95799173D01*
X144607162Y-96142701D01*
X144606838Y-96514667D01*
X144748883Y-96858443D01*
X144839281Y-96948999D01*
X141942675Y-96948999D01*
X141651836Y-97006851D01*
X141405274Y-97171598D01*
X140834208Y-97742664D01*
X140788721Y-97742624D01*
X140531485Y-97848911D01*
X140531485Y-97842817D01*
X141507401Y-96866901D01*
X141672148Y-96620340D01*
X141730000Y-96329500D01*
X141730000Y-92712954D01*
X142020054Y-92519147D01*
X142240000Y-92189974D01*
X142459946Y-92519147D01*
X142459946Y-92519147D01*
G37*
X142459946Y-92519147D02*
X142941715Y-92841054D01*
X143510000Y-92954093D01*
X143963131Y-92863960D01*
X143986883Y-92921443D01*
X144249673Y-93184692D01*
X144593201Y-93327338D01*
X144782000Y-93327502D01*
X144782000Y-95767037D01*
X144749808Y-95799173D01*
X144607162Y-96142701D01*
X144606838Y-96514667D01*
X144748883Y-96858443D01*
X144839281Y-96948999D01*
X141942675Y-96948999D01*
X141651836Y-97006851D01*
X141405274Y-97171598D01*
X140834208Y-97742664D01*
X140788721Y-97742624D01*
X140531485Y-97848911D01*
X140531485Y-97842817D01*
X141507401Y-96866901D01*
X141672148Y-96620340D01*
X141730000Y-96329500D01*
X141730000Y-92712954D01*
X142020054Y-92519147D01*
X142240000Y-92189974D01*
X142459946Y-92519147D01*
G36*
X156335000Y-97225198D02*
X156335000Y-96834802D01*
X157229212Y-95940590D01*
X157619608Y-95940590D01*
X156335000Y-97225198D01*
X156335000Y-97225198D01*
G37*
X156335000Y-97225198D02*
X156335000Y-96834802D01*
X157229212Y-95940590D01*
X157619608Y-95940590D01*
X156335000Y-97225198D01*
G36*
X144242599Y-89339778D02*
X144077852Y-89586340D01*
X144020000Y-89877179D01*
X144020000Y-90027352D01*
X143510000Y-89925907D01*
X142941715Y-90038946D01*
X142459946Y-90360853D01*
X142240000Y-90690026D01*
X142020054Y-90360853D01*
X141538285Y-90038946D01*
X140970000Y-89925907D01*
X140493788Y-90020631D01*
X140465648Y-89879161D01*
X140300901Y-89632599D01*
X139619122Y-88950820D01*
X139619162Y-88905333D01*
X139477117Y-88561557D01*
X139214327Y-88298308D01*
X139017695Y-88216659D01*
X139102354Y-88132000D01*
X145450377Y-88132000D01*
X144242599Y-89339778D01*
X144242599Y-89339778D01*
G37*
X144242599Y-89339778D02*
X144077852Y-89586340D01*
X144020000Y-89877179D01*
X144020000Y-90027352D01*
X143510000Y-89925907D01*
X142941715Y-90038946D01*
X142459946Y-90360853D01*
X142240000Y-90690026D01*
X142020054Y-90360853D01*
X141538285Y-90038946D01*
X140970000Y-89925907D01*
X140493788Y-90020631D01*
X140465648Y-89879161D01*
X140300901Y-89632599D01*
X139619122Y-88950820D01*
X139619162Y-88905333D01*
X139477117Y-88561557D01*
X139214327Y-88298308D01*
X139017695Y-88216659D01*
X139102354Y-88132000D01*
X145450377Y-88132000D01*
X144242599Y-89339778D01*
D26*
X130810000Y-116205000D03*
X136525000Y-116205000D03*
X136525000Y-118745000D03*
X130810000Y-118745000D03*
X125095000Y-118745000D03*
X120015000Y-118745000D03*
X114300000Y-118745000D03*
X114300000Y-121920000D03*
X120015000Y-121920000D03*
X125095000Y-121920000D03*
X130810000Y-121920000D03*
X136525000Y-121920000D03*
X136525000Y-126365000D03*
X130810000Y-126365000D03*
X125095000Y-126365000D03*
X120015000Y-126365000D03*
X114300000Y-126365000D03*
X108585000Y-121920000D03*
X108585000Y-118745000D03*
X106489500Y-109930500D03*
X106680000Y-106680000D03*
X106680000Y-102235000D03*
X106680000Y-99060000D03*
X106680000Y-93980000D03*
X119380000Y-106680000D03*
X116205000Y-103505000D03*
X120015000Y-102870000D03*
X124460000Y-98425000D03*
X119380000Y-98425000D03*
X115570000Y-97155000D03*
X119380000Y-94615000D03*
X124460000Y-94615000D03*
X129540000Y-94615000D03*
X132715000Y-90805000D03*
X128905000Y-89535000D03*
X123825000Y-89535000D03*
X118745000Y-89535000D03*
X114935000Y-89535000D03*
X114935000Y-92710000D03*
X110490000Y-92710000D03*
X107950000Y-90805000D03*
X107950000Y-85725000D03*
X113030000Y-84455000D03*
X118745000Y-84455000D03*
X126365000Y-84455000D03*
X107950000Y-82550000D03*
X114300000Y-82550000D03*
X119380000Y-82550000D03*
X125730000Y-82550000D03*
X130810000Y-82550000D03*
X109728000Y-114554000D03*
X123952000Y-105346500D03*
X126428500Y-102870000D03*
X128841500Y-100584000D03*
X130937000Y-98361500D03*
X134493000Y-95313500D03*
X135191500Y-96266000D03*
X133794500Y-96520000D03*
X139573000Y-96520000D03*
X138366500Y-96520000D03*
X138303000Y-94932500D03*
X138303000Y-93662500D03*
X138938000Y-98933000D03*
X137858500Y-99060000D03*
X135699500Y-99060000D03*
X133921500Y-99123500D03*
X131953000Y-101346000D03*
X129921000Y-103632000D03*
X127571500Y-105791000D03*
X125222000Y-108331000D03*
X122872500Y-110617000D03*
X141033500Y-97218500D03*
X115443000Y-111887000D03*
X115443000Y-111061500D03*
X111125000Y-111442500D03*
X110045500Y-112331500D03*
X109855000Y-109855000D03*
X109982000Y-107442000D03*
X112395000Y-107569000D03*
X134112000Y-106743500D03*
X131953000Y-109029500D03*
X133858000Y-108902500D03*
X135572500Y-109156500D03*
X137985500Y-110871000D03*
X135826500Y-110998000D03*
X133667500Y-110871000D03*
X131635500Y-110807500D03*
X129667000Y-110744000D03*
X127952500Y-112268000D03*
X126555500Y-112966500D03*
X124777500Y-113030000D03*
X121348500Y-112839500D03*
X140348887Y-99187000D03*
X142240000Y-88578590D03*
X140652407Y-88578590D03*
X144208500Y-88578590D03*
X141605000Y-118110000D03*
X141605000Y-121920000D03*
X141605000Y-126365000D03*
X149860000Y-82550000D03*
X145415000Y-82550000D03*
X142240000Y-82550000D03*
X138430000Y-82550000D03*
X142875000Y-84455000D03*
X139700000Y-84455000D03*
X136525000Y-84455000D03*
X133350000Y-84455000D03*
X145732500Y-107632500D03*
X153035000Y-121920000D03*
X152209500Y-123253500D03*
X153860500Y-123444000D03*
X155511500Y-122110500D03*
X157607000Y-119634000D03*
X156845000Y-118427500D03*
X155638500Y-120459500D03*
X153479500Y-120523000D03*
X151447500Y-120523000D03*
X149860000Y-121602500D03*
X153098500Y-115125500D03*
X152209500Y-116078000D03*
X151638000Y-117094000D03*
X150114000Y-117030500D03*
X151193500Y-116332000D03*
X141859000Y-95694500D03*
X141859000Y-94361000D03*
X141922500Y-93345000D03*
X144054091Y-101434290D03*
X146237598Y-99631500D03*
X191579500Y-95186500D03*
X190690500Y-95250000D03*
X191135000Y-96139000D03*
X151447500Y-100076000D03*
X154813000Y-96647000D03*
X154178000Y-96901000D03*
X154876500Y-97409000D03*
X154940000Y-99695000D03*
X154622500Y-100647500D03*
X154178000Y-99758500D03*
X152908000Y-98615500D03*
X171069000Y-95758000D03*
X170116500Y-95758000D03*
X169100500Y-95758000D03*
X167957500Y-95758000D03*
X165290500Y-95758000D03*
X163004500Y-95758000D03*
X160655000Y-95885000D03*
X155702000Y-103187500D03*
X156210000Y-101981000D03*
X156210000Y-100330000D03*
X156210000Y-98806000D03*
X153162000Y-83693000D03*
X153924000Y-82867500D03*
X153733500Y-81597500D03*
X155511500Y-81597500D03*
X157670500Y-81724500D03*
X157797500Y-83121500D03*
X159512000Y-83248500D03*
X159321500Y-81597500D03*
X161353500Y-81597500D03*
X164020500Y-81597500D03*
X166751000Y-81597500D03*
X168910000Y-82232500D03*
X170751500Y-82296000D03*
X172847000Y-82105500D03*
X174815500Y-82804000D03*
X174815500Y-84074000D03*
X176530000Y-82550000D03*
X179070000Y-82550000D03*
X179070000Y-84455000D03*
X146090000Y-106870500D03*
X155829000Y-107378500D03*
X155892500Y-106299000D03*
X153416000Y-105977598D03*
X150050500Y-104584500D03*
X173228000Y-95123000D03*
X156400500Y-97155000D03*
X182880000Y-100965000D03*
X187960000Y-94742000D03*
X188976000Y-95567500D03*
X188976000Y-94488000D03*
X175450500Y-92075000D03*
X176276000Y-91186000D03*
X174625000Y-91376500D03*
X173164500Y-92011500D03*
X172466000Y-91313000D03*
X171005500Y-91122500D03*
X168656000Y-91122500D03*
X184721500Y-91122500D03*
X185610500Y-91757500D03*
X184594500Y-92075000D03*
X185674000Y-93027500D03*
X159893000Y-91186000D03*
X157416500Y-91186000D03*
X155956000Y-91186000D03*
X156210000Y-91884500D03*
X155257500Y-91948000D03*
X161544000Y-91567000D03*
X162750500Y-91567000D03*
X163830000Y-91567000D03*
X165100000Y-91567000D03*
X166370000Y-91567000D03*
X168402000Y-87249000D03*
X166878000Y-87058500D03*
X165163500Y-87058500D03*
X163576000Y-87058500D03*
X162115500Y-87058500D03*
X154495500Y-108839000D03*
X155892500Y-108902500D03*
X155829000Y-110426500D03*
X153670000Y-110490000D03*
X151638000Y-112268000D03*
X149479000Y-111569500D03*
X149860000Y-110871000D03*
X142621000Y-111379000D03*
X144335500Y-112966500D03*
X146367500Y-111760000D03*
X148025000Y-108971000D03*
X147155000Y-109771000D03*
X144081500Y-92773500D03*
X143129000Y-96139000D03*
X167449500Y-93281500D03*
X165735000Y-93345000D03*
X163830000Y-93345000D03*
X162242500Y-93345000D03*
X145502500Y-100697500D03*
X143777500Y-98972500D03*
X135255000Y-97980500D03*
X112522000Y-113030000D03*
X147129500Y-105563483D03*
X147574000Y-106870500D03*
X150177500Y-109601000D03*
X147129500Y-102616000D03*
X149225000Y-85090000D03*
X140525500Y-101282500D03*
X153225500Y-112395000D03*
X189620835Y-90506252D03*
X141986000Y-108477500D03*
X189543645Y-89757809D03*
X141986000Y-109327500D03*
X141942861Y-102308490D03*
X141287500Y-101663500D03*
X141097975Y-99505763D03*
X140973888Y-98677786D03*
X139763500Y-95123000D03*
X138684000Y-89090500D03*
X137858500Y-100662410D03*
X172720000Y-96520000D03*
X145812493Y-103440078D03*
X149796500Y-107251500D03*
X172103041Y-95180590D03*
X155575000Y-95123000D03*
X151130000Y-105410000D03*
X159015559Y-96896972D03*
X135255000Y-100330000D03*
X145288000Y-111125000D03*
X139700000Y-102459498D03*
X146431000Y-88226179D03*
X144780000Y-92392500D03*
X181927500Y-94551500D03*
X147955000Y-101663500D03*
X145542000Y-96329500D03*
X146685000Y-96456500D03*
X147320000Y-95885000D03*
X108420000Y-95300000D03*
X108420000Y-97840000D03*
X108420000Y-100380000D03*
X108420000Y-102920000D03*
X108420000Y-105460000D03*
X108420000Y-108000000D03*
X108420000Y-110540000D03*
X108420000Y-113080000D03*
X108420000Y-115620000D03*
D27*
X111170000Y-123260000D03*
X111170000Y-87660000D03*
D26*
X110360000Y-84360000D03*
X110360000Y-126560000D03*
X176530000Y-86995000D03*
X176530000Y-84495000D03*
X138430000Y-91440000D03*
X140970000Y-91440000D03*
X143510000Y-91440000D03*
X146050000Y-91440000D03*
X148590000Y-91440000D03*
X151130000Y-91440000D03*
X143860000Y-123825000D03*
X145860000Y-123825000D03*
X147860000Y-123825000D03*
X149860000Y-123825000D03*
X191135000Y-113030000D03*
X193675000Y-113030000D03*
X191135000Y-110490000D03*
X193675000Y-110490000D03*
X191135000Y-107950000D03*
X193675000Y-107950000D03*
X191135000Y-105410000D03*
X193675000Y-105410000D03*
X191135000Y-102870000D03*
X193675000Y-102870000D03*
X191135000Y-100330000D03*
X193675000Y-100330000D03*
X191135000Y-97790000D03*
X193675000Y-97790000D03*
X154940000Y-115570000D03*
X147320000Y-118110000D03*
X142240000Y-115570000D03*
M02*
