G04 #@! TF.FileFunction,Legend,Bot*
%FSLAX46Y46*%
G04 Gerber Fmt 4.6, Leading zero omitted, Abs format (unit mm)*
G04 Created by KiCad (PCBNEW 4.0.7) date *
%MOMM*%
%LPD*%
G01*
G04 APERTURE LIST*
%ADD10C,0.100000*%
%ADD11C,1.524000*%
%ADD12R,1.400000X3.200000*%
%ADD13C,1.800000*%
%ADD14R,0.700000X0.250000*%
%ADD15R,0.250000X0.700000*%
%ADD16R,1.725000X1.725000*%
%ADD17R,3.000000X1.000000*%
%ADD18R,0.800000X0.750000*%
%ADD19R,0.750000X0.800000*%
%ADD20R,1.250000X1.000000*%
%ADD21R,1.850000X1.850000*%
%ADD22C,1.850000*%
%ADD23R,1.700000X1.700000*%
%ADD24O,1.700000X1.700000*%
%ADD25R,1.200000X1.700000*%
%ADD26O,1.200000X1.700000*%
%ADD27R,0.800000X0.900000*%
%ADD28R,0.900000X0.500000*%
%ADD29R,0.500000X0.900000*%
%ADD30R,4.070000X1.770000*%
%ADD31R,1.770000X4.070000*%
%ADD32R,1.550000X0.600000*%
%ADD33R,0.500000X0.200000*%
%ADD34R,0.550000X0.200000*%
%ADD35R,0.200000X0.500000*%
%ADD36R,0.200000X0.550000*%
%ADD37R,0.875000X0.800000*%
%ADD38C,0.600000*%
%ADD39C,0.250000*%
%ADD40C,0.200000*%
%ADD41C,0.500000*%
%ADD42C,2.500000*%
%ADD43C,1.500000*%
%ADD44C,1.000000*%
%ADD45C,0.254000*%
%ADD46C,0.350000*%
%ADD47O,0.700000X2.200000*%
G04 APERTURE END LIST*
D10*
D11*
X108420000Y-95300000D03*
X108420000Y-97840000D03*
X108420000Y-100380000D03*
X108420000Y-102920000D03*
X108420000Y-105460000D03*
X108420000Y-108000000D03*
X108420000Y-110540000D03*
X108420000Y-113080000D03*
X108420000Y-115620000D03*
D12*
X111170000Y-123260000D03*
X111170000Y-87660000D03*
D13*
X110360000Y-84360000D03*
X110360000Y-126560000D03*
D14*
X147040000Y-98085000D03*
X147040000Y-98585000D03*
X147040000Y-99085000D03*
X147040000Y-99585000D03*
X147040000Y-100085000D03*
X147040000Y-100585000D03*
X147040000Y-101085000D03*
X147040000Y-101585000D03*
D15*
X146390000Y-102235000D03*
X145890000Y-102235000D03*
X145390000Y-102235000D03*
X144890000Y-102235000D03*
X144390000Y-102235000D03*
X143890000Y-102235000D03*
X143390000Y-102235000D03*
X142890000Y-102235000D03*
D14*
X142240000Y-101585000D03*
X142240000Y-101085000D03*
X142240000Y-100585000D03*
X142240000Y-100085000D03*
X142240000Y-99585000D03*
X142240000Y-99085000D03*
X142240000Y-98585000D03*
X142240000Y-98085000D03*
D15*
X142890000Y-97435000D03*
X143390000Y-97435000D03*
X143890000Y-97435000D03*
X144390000Y-97435000D03*
X144890000Y-97435000D03*
X145390000Y-97435000D03*
X145890000Y-97435000D03*
X146390000Y-97435000D03*
D16*
X143777500Y-100697500D03*
X143777500Y-98972500D03*
X145502500Y-100697500D03*
X145502500Y-98972500D03*
D17*
X185330000Y-121090000D03*
X180290000Y-121090000D03*
X185330000Y-118550000D03*
X180290000Y-118550000D03*
X185330000Y-116010000D03*
X180290000Y-116010000D03*
X185330000Y-113470000D03*
X180290000Y-113470000D03*
X185330000Y-110930000D03*
X180290000Y-110930000D03*
X185330000Y-108390000D03*
X180290000Y-108390000D03*
X185330000Y-105850000D03*
X180290000Y-105850000D03*
X185330000Y-103310000D03*
X180290000Y-103310000D03*
X185330000Y-100770000D03*
X180290000Y-100770000D03*
X185330000Y-98230000D03*
X180290000Y-98230000D03*
D18*
X141605000Y-104457500D03*
X143105000Y-104457500D03*
X143280000Y-93599000D03*
X144780000Y-93599000D03*
D19*
X151130000Y-111125000D03*
X151130000Y-109625000D03*
D20*
X173355000Y-86360000D03*
X173355000Y-84360000D03*
D19*
X148590000Y-104255000D03*
X148590000Y-102755000D03*
D18*
X144780000Y-95250000D03*
X143280000Y-95250000D03*
D20*
X155575000Y-85090000D03*
X155575000Y-83090000D03*
D19*
X179705000Y-91440000D03*
X179705000Y-89940000D03*
D18*
X146280000Y-104457500D03*
X144780000Y-104457500D03*
D10*
G36*
X153583008Y-97382018D02*
X153052678Y-97912348D01*
X152486992Y-97346662D01*
X153017322Y-96816332D01*
X153583008Y-97382018D01*
X153583008Y-97382018D01*
G37*
G36*
X154643668Y-98442678D02*
X154113338Y-98973008D01*
X153547652Y-98407322D01*
X154077982Y-97876992D01*
X154643668Y-98442678D01*
X154643668Y-98442678D01*
G37*
G36*
X153262018Y-102112652D02*
X153792348Y-102642982D01*
X153226662Y-103208668D01*
X152696332Y-102678338D01*
X153262018Y-102112652D01*
X153262018Y-102112652D01*
G37*
G36*
X154322678Y-101051992D02*
X154853008Y-101582322D01*
X154287322Y-102148008D01*
X153756992Y-101617678D01*
X154322678Y-101051992D01*
X154322678Y-101051992D01*
G37*
D18*
X115570000Y-106910000D03*
X114070000Y-106910000D03*
D19*
X143891000Y-111799500D03*
X143891000Y-110299500D03*
D18*
X148995000Y-112776000D03*
X150495000Y-112776000D03*
X111125000Y-97790000D03*
X112625000Y-97790000D03*
X145415000Y-112776000D03*
X146915000Y-112776000D03*
D19*
X111125000Y-102235000D03*
X111125000Y-100735000D03*
X111125000Y-107315000D03*
X111125000Y-105815000D03*
D21*
X176530000Y-86995000D03*
D22*
X176530000Y-84495000D03*
D23*
X138430000Y-91440000D03*
D24*
X140970000Y-91440000D03*
X143510000Y-91440000D03*
X146050000Y-91440000D03*
X148590000Y-91440000D03*
X151130000Y-91440000D03*
D25*
X143860000Y-123825000D03*
D26*
X145860000Y-123825000D03*
X147860000Y-123825000D03*
X149860000Y-123825000D03*
D23*
X191135000Y-113030000D03*
D24*
X193675000Y-113030000D03*
X191135000Y-110490000D03*
X193675000Y-110490000D03*
X191135000Y-107950000D03*
X193675000Y-107950000D03*
X191135000Y-105410000D03*
X193675000Y-105410000D03*
X191135000Y-102870000D03*
X193675000Y-102870000D03*
X191135000Y-100330000D03*
X193675000Y-100330000D03*
X191135000Y-97790000D03*
X193675000Y-97790000D03*
D27*
X139951500Y-103409500D03*
X138051500Y-103409500D03*
X139001500Y-101409500D03*
X136840000Y-88995000D03*
X134940000Y-88995000D03*
X135890000Y-86995000D03*
D28*
X154559000Y-111228000D03*
X154559000Y-109728000D03*
X152781000Y-109688500D03*
X152781000Y-111188500D03*
D29*
X147955000Y-85090000D03*
X146455000Y-85090000D03*
X146455000Y-86995000D03*
X147955000Y-86995000D03*
D28*
X151130000Y-108180000D03*
X151130000Y-106680000D03*
X153035000Y-108180000D03*
X153035000Y-106680000D03*
D29*
X150090000Y-95885000D03*
X148590000Y-95885000D03*
D28*
X142875000Y-107366500D03*
X142875000Y-105866500D03*
X144653000Y-107378500D03*
X144653000Y-105878500D03*
X141033500Y-105878500D03*
X141033500Y-107378500D03*
X111125000Y-113895000D03*
X111125000Y-112395000D03*
X111125000Y-109105000D03*
X111125000Y-110605000D03*
D13*
X154940000Y-115570000D03*
X147320000Y-118110000D03*
X142240000Y-115570000D03*
D10*
G36*
X171275000Y-94135000D02*
X171275000Y-95095000D01*
X168275000Y-95095000D01*
X168275000Y-94135000D01*
X171275000Y-94135000D01*
X171275000Y-94135000D01*
G37*
G36*
X166945000Y-94135000D02*
X166945000Y-97135000D01*
X165985000Y-97135000D01*
X165985000Y-94135000D01*
X166945000Y-94135000D01*
X166945000Y-94135000D01*
G37*
G36*
X164655000Y-94135000D02*
X164655000Y-97135000D01*
X163695000Y-97135000D01*
X163695000Y-94135000D01*
X164655000Y-94135000D01*
X164655000Y-94135000D01*
G37*
G36*
X162365000Y-94135000D02*
X162365000Y-97135000D01*
X161405000Y-97135000D01*
X161405000Y-94135000D01*
X162365000Y-94135000D01*
X162365000Y-94135000D01*
G37*
G36*
X160075000Y-94135000D02*
X160075000Y-95095000D01*
X157075000Y-95095000D01*
X157075000Y-94135000D01*
X160075000Y-94135000D01*
X160075000Y-94135000D01*
G37*
G36*
X171275000Y-91845000D02*
X171275000Y-92805000D01*
X168275000Y-92805000D01*
X168275000Y-91845000D01*
X171275000Y-91845000D01*
X171275000Y-91845000D01*
G37*
G36*
X171275000Y-89555000D02*
X171275000Y-90515000D01*
X168275000Y-90515000D01*
X168275000Y-89555000D01*
X171275000Y-89555000D01*
X171275000Y-89555000D01*
G37*
G36*
X160075000Y-91845000D02*
X160075000Y-92805000D01*
X157075000Y-92805000D01*
X157075000Y-91845000D01*
X160075000Y-91845000D01*
X160075000Y-91845000D01*
G37*
G36*
X160075000Y-89555000D02*
X160075000Y-90515000D01*
X157075000Y-90515000D01*
X157075000Y-89555000D01*
X160075000Y-89555000D01*
X160075000Y-89555000D01*
G37*
G36*
X171275000Y-84975000D02*
X171275000Y-85935000D01*
X168275000Y-85935000D01*
X168275000Y-84975000D01*
X171275000Y-84975000D01*
X171275000Y-84975000D01*
G37*
G36*
X160075000Y-84975000D02*
X160075000Y-85935000D01*
X157075000Y-85935000D01*
X157075000Y-84975000D01*
X160075000Y-84975000D01*
X160075000Y-84975000D01*
G37*
G36*
X166945000Y-82935000D02*
X166945000Y-85935000D01*
X165985000Y-85935000D01*
X165985000Y-82935000D01*
X166945000Y-82935000D01*
X166945000Y-82935000D01*
G37*
G36*
X164655000Y-82935000D02*
X164655000Y-85935000D01*
X163695000Y-85935000D01*
X163695000Y-82935000D01*
X164655000Y-82935000D01*
X164655000Y-82935000D01*
G37*
G36*
X162365000Y-82935000D02*
X162365000Y-85935000D01*
X161405000Y-85935000D01*
X161405000Y-82935000D01*
X162365000Y-82935000D01*
X162365000Y-82935000D01*
G37*
D30*
X167865000Y-85090000D03*
X162965000Y-85090000D03*
D31*
X159385000Y-86735000D03*
D32*
X187485000Y-89535000D03*
X187485000Y-90805000D03*
X187485000Y-92075000D03*
X187485000Y-93345000D03*
X182085000Y-93345000D03*
X182085000Y-92075000D03*
X182085000Y-90805000D03*
X182085000Y-89535000D03*
X119540000Y-109220000D03*
X119540000Y-110490000D03*
X119540000Y-111760000D03*
X119540000Y-113030000D03*
X114140000Y-113030000D03*
X114140000Y-111760000D03*
X114140000Y-110490000D03*
X114140000Y-109220000D03*
D33*
X149090000Y-108371000D03*
D34*
X149090000Y-108771000D03*
X149090000Y-109171000D03*
X149090000Y-109571000D03*
X149090000Y-109971000D03*
D33*
X149090000Y-110371000D03*
D35*
X148590000Y-110871000D03*
D36*
X148190000Y-110871000D03*
X147790000Y-110871000D03*
X147390000Y-110871000D03*
X146990000Y-110871000D03*
D35*
X146590000Y-110871000D03*
D33*
X146090000Y-110371000D03*
D34*
X146090000Y-109971000D03*
X146090000Y-109571000D03*
X146090000Y-109171000D03*
X146090000Y-108771000D03*
D33*
X146090000Y-108371000D03*
D35*
X146590000Y-107871000D03*
D36*
X146990000Y-107871000D03*
X147390000Y-107871000D03*
X147790000Y-107871000D03*
X148190000Y-107871000D03*
D35*
X148590000Y-107871000D03*
D37*
X147155000Y-109771000D03*
X147155000Y-108971000D03*
X148025000Y-109771000D03*
X148025000Y-108971000D03*
D10*
G36*
X150418704Y-98424009D02*
X151267232Y-97575481D01*
X152257182Y-98565431D01*
X151408654Y-99413959D01*
X150418704Y-98424009D01*
X150418704Y-98424009D01*
G37*
G36*
X152115761Y-100121066D02*
X152964289Y-99272538D01*
X153954239Y-100262488D01*
X153105711Y-101111016D01*
X152115761Y-100121066D01*
X152115761Y-100121066D01*
G37*
G36*
X150772258Y-101464569D02*
X151620786Y-100616041D01*
X152610736Y-101605991D01*
X151762208Y-102454519D01*
X150772258Y-101464569D01*
X150772258Y-101464569D01*
G37*
G36*
X149075201Y-99767512D02*
X149923729Y-98918984D01*
X150913679Y-99908934D01*
X150065151Y-100757462D01*
X149075201Y-99767512D01*
X149075201Y-99767512D01*
G37*
D29*
X112625000Y-95250000D03*
X111125000Y-95250000D03*
D38*
X130810000Y-116205000D03*
X136525000Y-116205000D03*
X136525000Y-118745000D03*
X130810000Y-118745000D03*
X125095000Y-118745000D03*
X120015000Y-118745000D03*
X114300000Y-118745000D03*
X114300000Y-121920000D03*
X120015000Y-121920000D03*
X125095000Y-121920000D03*
X130810000Y-121920000D03*
X136525000Y-121920000D03*
X136525000Y-126365000D03*
X130810000Y-126365000D03*
X125095000Y-126365000D03*
X120015000Y-126365000D03*
X114300000Y-126365000D03*
X108585000Y-121920000D03*
X108585000Y-118745000D03*
X106489500Y-109930500D03*
X106680000Y-106680000D03*
X106680000Y-102235000D03*
X106680000Y-99060000D03*
X106680000Y-93980000D03*
X119380000Y-106680000D03*
X116205000Y-103505000D03*
X120015000Y-102870000D03*
X124460000Y-98425000D03*
X119380000Y-98425000D03*
X115570000Y-97155000D03*
X119380000Y-94615000D03*
X124460000Y-94615000D03*
X129540000Y-94615000D03*
X132715000Y-90805000D03*
X128905000Y-89535000D03*
X123825000Y-89535000D03*
X118745000Y-89535000D03*
X114935000Y-89535000D03*
X114935000Y-92710000D03*
X110490000Y-92710000D03*
X107950000Y-90805000D03*
X107950000Y-85725000D03*
X113030000Y-84455000D03*
X118745000Y-84455000D03*
X126365000Y-84455000D03*
X107950000Y-82550000D03*
X114300000Y-82550000D03*
X119380000Y-82550000D03*
X125730000Y-82550000D03*
X130810000Y-82550000D03*
X109728000Y-114554000D03*
X123952000Y-105346500D03*
X126428500Y-102870000D03*
X128841500Y-100584000D03*
X130937000Y-98361500D03*
X134493000Y-95313500D03*
X135191500Y-96266000D03*
X133794500Y-96520000D03*
X139573000Y-96520000D03*
X138366500Y-96520000D03*
X138303000Y-94932500D03*
X138303000Y-93662500D03*
X138938000Y-98933000D03*
X137858500Y-99060000D03*
X135699500Y-99060000D03*
X133921500Y-99123500D03*
X131953000Y-101346000D03*
X129921000Y-103632000D03*
X127571500Y-105791000D03*
X125222000Y-108331000D03*
X122872500Y-110617000D03*
X141033500Y-97218500D03*
X115443000Y-111887000D03*
X115443000Y-111061500D03*
X111125000Y-111442500D03*
X110045500Y-112331500D03*
X109855000Y-109855000D03*
X109982000Y-107442000D03*
X112395000Y-107569000D03*
X134112000Y-106743500D03*
X131953000Y-109029500D03*
X133858000Y-108902500D03*
X135572500Y-109156500D03*
X137985500Y-110871000D03*
X135826500Y-110998000D03*
X133667500Y-110871000D03*
X131635500Y-110807500D03*
X129667000Y-110744000D03*
X127952500Y-112268000D03*
X126555500Y-112966500D03*
X124777500Y-113030000D03*
X121348500Y-112839500D03*
X140348887Y-99187000D03*
X142240000Y-88578590D03*
X140652407Y-88578590D03*
X144208500Y-88578590D03*
X141605000Y-118110000D03*
X141605000Y-121920000D03*
X141605000Y-126365000D03*
X149860000Y-82550000D03*
X145415000Y-82550000D03*
X142240000Y-82550000D03*
X138430000Y-82550000D03*
X142875000Y-84455000D03*
X139700000Y-84455000D03*
X136525000Y-84455000D03*
X133350000Y-84455000D03*
X145732500Y-107632500D03*
X153035000Y-121920000D03*
X152209500Y-123253500D03*
X153860500Y-123444000D03*
X155511500Y-122110500D03*
X157607000Y-119634000D03*
X156845000Y-118427500D03*
X155638500Y-120459500D03*
X153479500Y-120523000D03*
X151447500Y-120523000D03*
X149860000Y-121602500D03*
X153098500Y-115125500D03*
X152209500Y-116078000D03*
X151638000Y-117094000D03*
X150114000Y-117030500D03*
X151193500Y-116332000D03*
X141859000Y-95694500D03*
X141859000Y-94361000D03*
X141922500Y-93345000D03*
X144054091Y-101434290D03*
X146237598Y-99631500D03*
X191579500Y-95186500D03*
X190690500Y-95250000D03*
X191135000Y-96139000D03*
X151447500Y-100076000D03*
X154813000Y-96647000D03*
X154178000Y-96901000D03*
X154876500Y-97409000D03*
X154940000Y-99695000D03*
X154622500Y-100647500D03*
X154178000Y-99758500D03*
X152908000Y-98615500D03*
X171069000Y-95758000D03*
X170116500Y-95758000D03*
X169100500Y-95758000D03*
X167957500Y-95758000D03*
X165290500Y-95758000D03*
X163004500Y-95758000D03*
X160655000Y-95885000D03*
X155702000Y-103187500D03*
X156210000Y-101981000D03*
X156210000Y-100330000D03*
X156210000Y-98806000D03*
X153162000Y-83693000D03*
X153924000Y-82867500D03*
X153733500Y-81597500D03*
X155511500Y-81597500D03*
X157670500Y-81724500D03*
X157797500Y-83121500D03*
X159512000Y-83248500D03*
X159321500Y-81597500D03*
X161353500Y-81597500D03*
X164020500Y-81597500D03*
X166751000Y-81597500D03*
X168910000Y-82232500D03*
X170751500Y-82296000D03*
X172847000Y-82105500D03*
X174815500Y-82804000D03*
X174815500Y-84074000D03*
X176530000Y-82550000D03*
X179070000Y-82550000D03*
X179070000Y-84455000D03*
X146090000Y-106870500D03*
X155829000Y-107378500D03*
X155892500Y-106299000D03*
X153416000Y-105977598D03*
X150050500Y-104584500D03*
X173228000Y-95123000D03*
X156400500Y-97155000D03*
X182880000Y-100965000D03*
X187960000Y-94742000D03*
X188976000Y-95567500D03*
X188976000Y-94488000D03*
X175450500Y-92075000D03*
X176276000Y-91186000D03*
X174625000Y-91376500D03*
X173164500Y-92011500D03*
X172466000Y-91313000D03*
X171005500Y-91122500D03*
X168656000Y-91122500D03*
X184721500Y-91122500D03*
X185610500Y-91757500D03*
X184594500Y-92075000D03*
X185674000Y-93027500D03*
X159893000Y-91186000D03*
X157416500Y-91186000D03*
X155956000Y-91186000D03*
X156210000Y-91884500D03*
X155257500Y-91948000D03*
X161544000Y-91567000D03*
X162750500Y-91567000D03*
X163830000Y-91567000D03*
X165100000Y-91567000D03*
X166370000Y-91567000D03*
X168402000Y-87249000D03*
X166878000Y-87058500D03*
X165163500Y-87058500D03*
X163576000Y-87058500D03*
X162115500Y-87058500D03*
X154495500Y-108839000D03*
X155892500Y-108902500D03*
X155829000Y-110426500D03*
X153670000Y-110490000D03*
X151638000Y-112268000D03*
X149479000Y-111569500D03*
X149860000Y-110871000D03*
X142621000Y-111379000D03*
X144335500Y-112966500D03*
X146367500Y-111760000D03*
X148025000Y-108971000D03*
X147155000Y-109771000D03*
X144081500Y-92773500D03*
X143129000Y-96139000D03*
X167449500Y-93281500D03*
X165735000Y-93345000D03*
X163830000Y-93345000D03*
X162242500Y-93345000D03*
X145502500Y-100697500D03*
X143777500Y-98972500D03*
X135255000Y-97980500D03*
X112522000Y-113030000D03*
X147129500Y-105563483D03*
X147574000Y-106870500D03*
X150177500Y-109601000D03*
X147129500Y-102616000D03*
X149225000Y-85090000D03*
X140525500Y-101282500D03*
X153225500Y-112395000D03*
X189620835Y-90506252D03*
X141986000Y-108477500D03*
X189543645Y-89757809D03*
X141986000Y-109327500D03*
X141942861Y-102308490D03*
X141287500Y-101663500D03*
X141097975Y-99505763D03*
X140973888Y-98677786D03*
X139763500Y-95123000D03*
X138684000Y-89090500D03*
X137858500Y-100662410D03*
X172720000Y-96520000D03*
X145812493Y-103440078D03*
X149796500Y-107251500D03*
X172103041Y-95180590D03*
X155575000Y-95123000D03*
X151130000Y-105410000D03*
X159015559Y-96896972D03*
X135255000Y-100330000D03*
X145288000Y-111125000D03*
X139700000Y-102459498D03*
X146431000Y-88226179D03*
X144780000Y-92392500D03*
X181927500Y-94551500D03*
X147955000Y-101663500D03*
X145542000Y-96329500D03*
X146685000Y-96456500D03*
X147320000Y-95885000D03*
D39*
X113030000Y-84455000D02*
X113030000Y-83820000D01*
X113030000Y-83820000D02*
X114300000Y-82550000D01*
X107950000Y-85725000D02*
X107950000Y-82550000D01*
X108585000Y-122555000D02*
X108585000Y-127635000D01*
X113030000Y-128270000D02*
X114300000Y-127000000D01*
X108585000Y-127635000D02*
X109220000Y-128270000D01*
X109220000Y-128270000D02*
X113030000Y-128270000D01*
X114300000Y-127000000D02*
X114300000Y-126365000D01*
X108585000Y-121920000D02*
X108585000Y-122555000D01*
X108345500Y-122760000D02*
X108380000Y-122760000D01*
X108380000Y-122760000D02*
X108585000Y-122555000D01*
X136525000Y-118745000D02*
X136525000Y-116205000D01*
X125095000Y-118745000D02*
X130810000Y-118745000D01*
X114300000Y-118745000D02*
X120015000Y-118745000D01*
X120015000Y-121920000D02*
X114300000Y-121920000D01*
X130810000Y-121920000D02*
X125095000Y-121920000D01*
X136525000Y-126365000D02*
X136525000Y-121920000D01*
X125095000Y-126365000D02*
X130810000Y-126365000D01*
X114300000Y-126365000D02*
X120015000Y-126365000D01*
X111020000Y-118745000D02*
X111020000Y-115846000D01*
X111020000Y-119380000D02*
X111020000Y-118745000D01*
X111020000Y-118745000D02*
X108585000Y-118745000D01*
X106680000Y-106680000D02*
X106680000Y-109740000D01*
X106680000Y-109740000D02*
X106489500Y-109930500D01*
X106680000Y-99060000D02*
X106680000Y-102235000D01*
X107950000Y-90805000D02*
X107950000Y-92710000D01*
X107950000Y-92710000D02*
X106680000Y-93980000D01*
X120015000Y-102870000D02*
X119380000Y-103505000D01*
X119380000Y-103505000D02*
X116205000Y-103505000D01*
X119380000Y-98425000D02*
X124460000Y-98425000D01*
X119380000Y-94615000D02*
X118110000Y-94615000D01*
X118110000Y-94615000D02*
X115570000Y-97155000D01*
X129540000Y-94615000D02*
X124460000Y-94615000D01*
X128905000Y-89535000D02*
X131445000Y-89535000D01*
X131445000Y-89535000D02*
X132715000Y-90805000D01*
X118745000Y-89535000D02*
X123825000Y-89535000D01*
X114935000Y-92710000D02*
X114935000Y-89535000D01*
X107950000Y-90805000D02*
X108585000Y-90805000D01*
X108585000Y-90805000D02*
X110490000Y-92710000D01*
X126365000Y-84455000D02*
X118745000Y-84455000D01*
X114300000Y-82550000D02*
X107950000Y-82550000D01*
X125730000Y-82550000D02*
X119380000Y-82550000D01*
X138430000Y-82550000D02*
X130810000Y-82550000D01*
X111020000Y-115846000D02*
X109728000Y-114554000D01*
X128841500Y-100584000D02*
X126555500Y-102870000D01*
X126555500Y-102870000D02*
X126428500Y-102870000D01*
X133794500Y-96520000D02*
X132778500Y-96520000D01*
X132778500Y-96520000D02*
X130937000Y-98361500D01*
X135191500Y-96266000D02*
X135191500Y-96012000D01*
X135191500Y-96012000D02*
X134493000Y-95313500D01*
X133921500Y-99123500D02*
X133921500Y-96647000D01*
X133921500Y-96647000D02*
X133794500Y-96520000D01*
X140271500Y-97218500D02*
X139573000Y-96520000D01*
X139573000Y-96520000D02*
X139255500Y-96202500D01*
X138366500Y-96520000D02*
X139573000Y-96520000D01*
X138303000Y-93662500D02*
X138303000Y-94932500D01*
X135699500Y-99060000D02*
X137858500Y-99060000D01*
X131953000Y-101346000D02*
X133921500Y-99377500D01*
X133921500Y-99377500D02*
X133921500Y-99123500D01*
X127571500Y-105791000D02*
X129730500Y-103632000D01*
X129730500Y-103632000D02*
X129921000Y-103632000D01*
X122872500Y-110617000D02*
X125158500Y-108331000D01*
X125158500Y-108331000D02*
X125222000Y-108331000D01*
X136715500Y-92054500D02*
X136715500Y-92773500D01*
X138430000Y-91440000D02*
X137330000Y-91440000D01*
X137330000Y-91440000D02*
X136715500Y-92054500D01*
X139255500Y-96202500D02*
X138430000Y-96202500D01*
X141033500Y-97218500D02*
X140271500Y-97218500D01*
X111125000Y-111442500D02*
X111424999Y-111142501D01*
X111424999Y-111142501D02*
X115361999Y-111142501D01*
X115361999Y-111142501D02*
X115443000Y-111061500D01*
X110045500Y-112331500D02*
X110934500Y-111442500D01*
X110934500Y-111442500D02*
X111125000Y-111442500D01*
X109982000Y-107442000D02*
X109982000Y-109728000D01*
X109982000Y-109728000D02*
X109855000Y-109855000D01*
X111125000Y-107315000D02*
X112141000Y-107315000D01*
X112141000Y-107315000D02*
X112395000Y-107569000D01*
X118046500Y-109029500D02*
X117157500Y-108140500D01*
X118046500Y-111633000D02*
X118046500Y-109029500D01*
X122936000Y-111125000D02*
X123634500Y-110426500D01*
X118554500Y-111125000D02*
X122936000Y-111125000D01*
X118046500Y-111633000D02*
X118554500Y-111125000D01*
X118046500Y-112011500D02*
X118046500Y-111633000D01*
X119540000Y-113030000D02*
X119065000Y-113030000D01*
X119065000Y-113030000D02*
X118046500Y-112011500D01*
X133858000Y-108902500D02*
X132080000Y-108902500D01*
X132080000Y-108902500D02*
X131953000Y-109029500D01*
X137985500Y-110871000D02*
X136271000Y-109156500D01*
X136271000Y-109156500D02*
X135572500Y-109156500D01*
X133667500Y-110871000D02*
X135699500Y-110871000D01*
X135699500Y-110871000D02*
X135826500Y-110998000D01*
X129667000Y-110744000D02*
X131572000Y-110744000D01*
X131572000Y-110744000D02*
X131635500Y-110807500D01*
X126555500Y-112966500D02*
X127254000Y-112966500D01*
X127254000Y-112966500D02*
X127952500Y-112268000D01*
X121348500Y-112839500D02*
X124587000Y-112839500D01*
X124587000Y-112839500D02*
X124777500Y-113030000D01*
X119540000Y-113030000D02*
X121158000Y-113030000D01*
X121158000Y-113030000D02*
X121348500Y-112839500D01*
X141605000Y-104457500D02*
X141605000Y-105082500D01*
X142240000Y-106616500D02*
X142285999Y-106570501D01*
X141605000Y-105082500D02*
X141922500Y-105400000D01*
X141922500Y-105400000D02*
X141922500Y-106299000D01*
X141922500Y-106299000D02*
X142240000Y-106616500D01*
X142285999Y-106570501D02*
X145790001Y-106570501D01*
X145790001Y-106570501D02*
X146090000Y-106870500D01*
X108420000Y-108000000D02*
X106489500Y-109930500D01*
X106489500Y-109930500D02*
X106045000Y-110375000D01*
X105918000Y-112966500D02*
X105918000Y-110502000D01*
X105918000Y-110502000D02*
X106489500Y-109930500D01*
X106045000Y-113093500D02*
X105918000Y-112966500D01*
X106045000Y-113411000D02*
X106045000Y-120459500D01*
X106045000Y-110375000D02*
X106045000Y-113411000D01*
X106045000Y-113411000D02*
X106045000Y-113093500D01*
X106045000Y-120459500D02*
X108345500Y-122760000D01*
D40*
X144832763Y-88778589D02*
X144632764Y-88578590D01*
X147955000Y-87645000D02*
X146821411Y-88778589D01*
X146821411Y-88778589D02*
X144832763Y-88778589D01*
X147955000Y-86995000D02*
X147955000Y-87645000D01*
X142240000Y-88578590D02*
X140652407Y-88578590D01*
X144632764Y-88578590D02*
X144208500Y-88578590D01*
D39*
X155575000Y-83090000D02*
X149860000Y-83090000D01*
X149860000Y-82550000D02*
X149860000Y-83090000D01*
X141605000Y-126365000D02*
X141605000Y-121920000D01*
X145415000Y-82550000D02*
X149860000Y-82550000D01*
X138430000Y-82550000D02*
X142240000Y-82550000D01*
X139700000Y-84455000D02*
X142875000Y-84455000D01*
X133350000Y-84455000D02*
X136525000Y-84455000D01*
X146090000Y-106870500D02*
X146090000Y-107275000D01*
X146090000Y-107275000D02*
X145732500Y-107632500D01*
X152209500Y-123253500D02*
X152209500Y-122745500D01*
X152209500Y-122745500D02*
X153035000Y-121920000D01*
X155511500Y-122110500D02*
X155194000Y-122110500D01*
X155194000Y-122110500D02*
X153860500Y-123444000D01*
X156845000Y-118427500D02*
X156845000Y-118872000D01*
X156845000Y-118872000D02*
X157607000Y-119634000D01*
X153479500Y-120523000D02*
X155575000Y-120523000D01*
X155575000Y-120523000D02*
X155638500Y-120459500D01*
X149860000Y-121602500D02*
X150368000Y-121602500D01*
X150368000Y-121602500D02*
X151447500Y-120523000D01*
X151638000Y-117094000D02*
X151638000Y-116649500D01*
X151638000Y-116649500D02*
X152209500Y-116078000D01*
X151193500Y-116332000D02*
X150812500Y-116332000D01*
X150812500Y-116332000D02*
X150114000Y-117030500D01*
X141859000Y-94361000D02*
X141859000Y-95694500D01*
X138917500Y-93027500D02*
X141605000Y-93027500D01*
X141605000Y-93027500D02*
X141922500Y-93345000D01*
X138430000Y-91440000D02*
X138430000Y-92540000D01*
X138430000Y-92540000D02*
X138917500Y-93027500D01*
X144054091Y-101434290D02*
X144054091Y-100974091D01*
X144054091Y-100974091D02*
X143777500Y-100697500D01*
X146237598Y-99631500D02*
X146161500Y-99631500D01*
X146161500Y-99631500D02*
X145502500Y-98972500D01*
X191135000Y-96139000D02*
X191135000Y-95694500D01*
X191135000Y-95694500D02*
X190690500Y-95250000D01*
X191135000Y-97790000D02*
X191135000Y-96139000D01*
X191135000Y-96139000D02*
X191135000Y-94107000D01*
X154178000Y-96901000D02*
X154559000Y-96901000D01*
X154559000Y-96901000D02*
X154813000Y-96647000D01*
X154940000Y-99695000D02*
X154940000Y-97472500D01*
X154940000Y-97472500D02*
X154876500Y-97409000D01*
X154178000Y-99758500D02*
X154178000Y-100203000D01*
X154178000Y-100203000D02*
X154622500Y-100647500D01*
X153035000Y-100191777D02*
X153035000Y-98742500D01*
X153035000Y-98742500D02*
X152908000Y-98615500D01*
X156210000Y-101981000D02*
X156210000Y-102679500D01*
X156210000Y-102679500D02*
X155702000Y-103187500D01*
X156210000Y-98806000D02*
X156210000Y-100330000D01*
X153733500Y-81597500D02*
X153733500Y-82677000D01*
X153733500Y-82677000D02*
X153924000Y-82867500D01*
X157670500Y-81724500D02*
X155638500Y-81724500D01*
X155638500Y-81724500D02*
X155511500Y-81597500D01*
X156481500Y-83121500D02*
X157797500Y-83121500D01*
X157797500Y-83121500D02*
X160571500Y-83121500D01*
X159512000Y-83248500D02*
X157924500Y-83248500D01*
X157924500Y-83248500D02*
X157797500Y-83121500D01*
X161353500Y-81597500D02*
X159321500Y-81597500D01*
X166751000Y-81597500D02*
X164020500Y-81597500D01*
X170751500Y-82296000D02*
X168973500Y-82296000D01*
X168973500Y-82296000D02*
X168910000Y-82232500D01*
X173355000Y-84360000D02*
X173355000Y-82613500D01*
X173355000Y-82613500D02*
X172847000Y-82105500D01*
X175617500Y-84495000D02*
X175196500Y-84074000D01*
X175196500Y-84074000D02*
X174815500Y-84074000D01*
X176530000Y-84495000D02*
X175617500Y-84495000D01*
X176530000Y-82550000D02*
X176530000Y-84495000D01*
X179070000Y-84455000D02*
X179070000Y-82550000D01*
X147155000Y-109771000D02*
X148025000Y-109771000D01*
X148025000Y-109771000D02*
X148025000Y-108971000D01*
X147155000Y-108971000D02*
X147225000Y-108971000D01*
X147225000Y-108971000D02*
X148025000Y-109771000D01*
X146090000Y-108371000D02*
X146090000Y-106870500D01*
X146090000Y-106870500D02*
X146090000Y-106743500D01*
X146280000Y-104457500D02*
X146280000Y-106680500D01*
X146280000Y-106680500D02*
X146090000Y-106870500D01*
X153416000Y-105977598D02*
X155571098Y-105977598D01*
X155571098Y-105977598D02*
X155892500Y-106299000D01*
X148590000Y-104255000D02*
X149721000Y-104255000D01*
X149721000Y-104255000D02*
X150050500Y-104584500D01*
X174371000Y-93980000D02*
X173228000Y-95123000D01*
X173228000Y-95123000D02*
X172212000Y-96139000D01*
X155302160Y-97218500D02*
X156337000Y-97218500D01*
X156337000Y-97218500D02*
X156400500Y-97155000D01*
X154095660Y-98425000D02*
X155302160Y-97218500D01*
X149994440Y-99838223D02*
X152681446Y-99838223D01*
X152681446Y-99838223D02*
X153035000Y-100191777D01*
X180290000Y-100770000D02*
X182685000Y-100770000D01*
X182685000Y-100770000D02*
X182880000Y-100965000D01*
D41*
X180290000Y-100770000D02*
X180290000Y-103310000D01*
X180290000Y-98230000D02*
X180290000Y-100770000D01*
X180290000Y-98230000D02*
X185330000Y-98230000D01*
D39*
X188976000Y-95567500D02*
X188785500Y-95567500D01*
X188785500Y-95567500D02*
X187960000Y-94742000D01*
X188785500Y-93345000D02*
X188976000Y-93535500D01*
X188976000Y-93535500D02*
X188976000Y-94488000D01*
X187485000Y-93345000D02*
X188785500Y-93345000D01*
X176276000Y-91186000D02*
X176276000Y-91249500D01*
X176276000Y-91249500D02*
X175450500Y-92075000D01*
X173164500Y-92011500D02*
X173990000Y-92011500D01*
X173990000Y-92011500D02*
X174625000Y-91376500D01*
X171005500Y-91122500D02*
X172275500Y-91122500D01*
X172275500Y-91122500D02*
X172466000Y-91313000D01*
X168511499Y-91267001D02*
X168656000Y-91122500D01*
X166370000Y-91567000D02*
X166669999Y-91267001D01*
X166669999Y-91267001D02*
X168511499Y-91267001D01*
X184594500Y-92075000D02*
X185293000Y-92075000D01*
X185293000Y-92075000D02*
X185610500Y-91757500D01*
X187485000Y-93345000D02*
X185991500Y-93345000D01*
X185991500Y-93345000D02*
X185674000Y-93027500D01*
X188468000Y-90170000D02*
X185737500Y-90170000D01*
X193675000Y-95377000D02*
X188468000Y-90170000D01*
X193675000Y-97790000D02*
X193675000Y-95377000D01*
X186482178Y-91376500D02*
X185483500Y-91376500D01*
X188410401Y-91382401D02*
X186488079Y-91382401D01*
X186488079Y-91382401D02*
X186482178Y-91376500D01*
X191135000Y-94107000D02*
X188410401Y-91382401D01*
X166370000Y-91567000D02*
X167132000Y-91567000D01*
X160718500Y-91186000D02*
X159893000Y-91186000D01*
X159893000Y-91186000D02*
X157416500Y-91186000D01*
X157416500Y-91186000D02*
X156464000Y-91186000D01*
X155956000Y-91186000D02*
X157416500Y-91186000D01*
X156400500Y-92075000D02*
X156210000Y-91884500D01*
X156083000Y-91567000D02*
X155638500Y-91567000D01*
X155638500Y-91567000D02*
X155257500Y-91948000D01*
X156464000Y-91186000D02*
X156083000Y-91567000D01*
X161099500Y-91567000D02*
X160718500Y-91186000D01*
X161544000Y-91567000D02*
X161099500Y-91567000D01*
X161544000Y-91567000D02*
X161036000Y-91567000D01*
X161544000Y-91567000D02*
X161544000Y-91186000D01*
X161544000Y-91186000D02*
X162369500Y-90360500D01*
X162750500Y-91567000D02*
X161544000Y-91567000D01*
X163830000Y-91567000D02*
X162750500Y-91567000D01*
X165100000Y-91567000D02*
X163830000Y-91567000D01*
X166370000Y-91567000D02*
X165100000Y-91567000D01*
X169775000Y-90035000D02*
X167902000Y-90035000D01*
X167902000Y-90035000D02*
X166370000Y-91567000D01*
X168021000Y-96139000D02*
X167449500Y-95567500D01*
X167449500Y-95567500D02*
X167449500Y-93281500D01*
X172212000Y-96139000D02*
X168021000Y-96139000D01*
X177815000Y-93980000D02*
X174371000Y-93980000D01*
X179705000Y-91440000D02*
X179705000Y-92090000D01*
X179705000Y-92090000D02*
X177815000Y-93980000D01*
X163639500Y-82042000D02*
X164175000Y-82577500D01*
X164175000Y-82577500D02*
X164175000Y-84435000D01*
X162965000Y-82716500D02*
X163639500Y-82042000D01*
X162965000Y-85090000D02*
X162965000Y-82716500D01*
X164338000Y-86169500D02*
X163258500Y-85090000D01*
X163258500Y-85090000D02*
X162965000Y-85090000D01*
X164338000Y-86296500D02*
X164338000Y-86169500D01*
X163576000Y-87058500D02*
X164338000Y-86296500D01*
X162115500Y-87058500D02*
X162115500Y-86106000D01*
X162115500Y-86106000D02*
X162965000Y-85256500D01*
X162965000Y-85256500D02*
X162965000Y-85090000D01*
X166878000Y-87058500D02*
X168211500Y-87058500D01*
X168211500Y-87058500D02*
X168402000Y-87249000D01*
X163576000Y-87058500D02*
X165163500Y-87058500D01*
X162965000Y-85090000D02*
X162965000Y-86209000D01*
X162965000Y-86209000D02*
X162115500Y-87058500D01*
X160571500Y-83121500D02*
X161885000Y-84435000D01*
X155575000Y-83090000D02*
X156450000Y-83090000D01*
X156450000Y-83090000D02*
X156481500Y-83121500D01*
D40*
X155829000Y-110426500D02*
X155829000Y-108966000D01*
X155829000Y-108966000D02*
X155892500Y-108902500D01*
X152781000Y-111188500D02*
X152971500Y-111188500D01*
X152971500Y-111188500D02*
X153670000Y-110490000D01*
X151638000Y-112268000D02*
X151638000Y-111633000D01*
X151638000Y-111633000D02*
X151130000Y-111125000D01*
X150495000Y-112776000D02*
X151130000Y-112776000D01*
X151130000Y-112776000D02*
X151638000Y-112268000D01*
X151130000Y-111125000D02*
X150114000Y-111125000D01*
X150114000Y-111125000D02*
X149860000Y-110871000D01*
X143891000Y-111799500D02*
X143041500Y-111799500D01*
X143041500Y-111799500D02*
X142621000Y-111379000D01*
X143891000Y-111799500D02*
X143891000Y-112522000D01*
X143891000Y-112522000D02*
X144335500Y-112966500D01*
X145415000Y-112776000D02*
X145415000Y-112712500D01*
X145415000Y-112712500D02*
X146367500Y-111760000D01*
X146090000Y-108371000D02*
X146092401Y-108373401D01*
X146092401Y-108373401D02*
X146557401Y-108373401D01*
X146557401Y-108373401D02*
X147155000Y-108971000D01*
D39*
X146990000Y-107871000D02*
X146990000Y-108806000D01*
X146990000Y-108806000D02*
X147155000Y-108971000D01*
X146090000Y-106743500D02*
X146090000Y-105640822D01*
X146990000Y-107346000D02*
X146387500Y-106743500D01*
X146990000Y-107871000D02*
X146990000Y-107346000D01*
X146387500Y-106743500D02*
X146090000Y-106743500D01*
X146090000Y-105640822D02*
X146280000Y-105450822D01*
X146280000Y-105450822D02*
X146280000Y-105082500D01*
X146280000Y-105082500D02*
X146280000Y-104457500D01*
D40*
X143280000Y-93599000D02*
X143280000Y-93575000D01*
X143280000Y-93575000D02*
X144081500Y-92773500D01*
X143280000Y-95250000D02*
X143280000Y-93599000D01*
X143129000Y-96139000D02*
X143129000Y-95401000D01*
X143129000Y-95401000D02*
X143280000Y-95250000D01*
D39*
X164175000Y-95635000D02*
X164175000Y-93690000D01*
X164175000Y-93690000D02*
X163830000Y-93345000D01*
X163830000Y-93345000D02*
X165735000Y-93345000D01*
X143777500Y-98972500D02*
X145502500Y-100697500D01*
X141541500Y-98298000D02*
X141224000Y-97980500D01*
X141224000Y-97980500D02*
X135255000Y-97980500D01*
X141541500Y-98486500D02*
X141541500Y-98298000D01*
X142240000Y-98585000D02*
X141640000Y-98585000D01*
X141640000Y-98585000D02*
X141541500Y-98486500D01*
X114140000Y-113030000D02*
X112522000Y-113030000D01*
X142240000Y-98585000D02*
X142190001Y-98535001D01*
X147574000Y-106870500D02*
X147129500Y-106426000D01*
X147129500Y-105987747D02*
X147129500Y-105563483D01*
X147129500Y-106426000D02*
X147129500Y-105987747D01*
X150177500Y-109601000D02*
X151106000Y-109601000D01*
X151106000Y-109601000D02*
X151130000Y-109625000D01*
X146390000Y-102235000D02*
X146748500Y-102235000D01*
X146748500Y-102235000D02*
X147129500Y-102616000D01*
X152781000Y-109688500D02*
X151193500Y-109688500D01*
X151193500Y-109688500D02*
X151130000Y-109625000D01*
X154559000Y-109728000D02*
X152820500Y-109728000D01*
X152820500Y-109728000D02*
X152781000Y-109688500D01*
X147955000Y-85090000D02*
X149225000Y-85090000D01*
D42*
X176530000Y-86995000D02*
X175514998Y-86995000D01*
X175514998Y-86995000D02*
X174879998Y-86360000D01*
X174879998Y-86360000D02*
X173355000Y-86360000D01*
X167865000Y-85090000D02*
X167120000Y-85090000D01*
X167120000Y-85090000D02*
X166465000Y-84435000D01*
X169775000Y-85455000D02*
X168230000Y-85455000D01*
X168230000Y-85455000D02*
X167865000Y-85090000D01*
X170680000Y-86360000D02*
X169775000Y-85455000D01*
X173355000Y-86360000D02*
X170680000Y-86360000D01*
D43*
X141168002Y-110633004D02*
X136930000Y-106395002D01*
X136930000Y-106395002D02*
X136930000Y-104179500D01*
X136930000Y-104179500D02*
X137700000Y-103409500D01*
X137700000Y-103409500D02*
X138051500Y-103409500D01*
X114140000Y-109220000D02*
X111240000Y-109220000D01*
X111240000Y-109220000D02*
X111125000Y-109105000D01*
X112625000Y-97790000D02*
X112625000Y-95250000D01*
X114140000Y-109220000D02*
X114140000Y-107726500D01*
X116840000Y-110426500D02*
X114140000Y-107726500D01*
X114140000Y-107726500D02*
X114140000Y-106980000D01*
X116840000Y-113665000D02*
X116840000Y-110426500D01*
X112625000Y-97790000D02*
X112625000Y-99665000D01*
X112625000Y-99665000D02*
X113435000Y-100475000D01*
X113435000Y-100475000D02*
X113435000Y-105815000D01*
X111125000Y-105815000D02*
X108775000Y-105815000D01*
X108775000Y-105815000D02*
X108420000Y-105460000D01*
X114140000Y-106520000D02*
X113435000Y-105815000D01*
X113435000Y-105815000D02*
X111125000Y-105815000D01*
X114140000Y-106980000D02*
X114140000Y-106520000D01*
X114140000Y-106980000D02*
X114070000Y-106910000D01*
X112365000Y-114935000D02*
X118110000Y-114935000D01*
X111125000Y-113895000D02*
X111325000Y-113895000D01*
X111325000Y-113895000D02*
X112365000Y-114935000D01*
X141168002Y-112831998D02*
X129738002Y-112831998D01*
X129738002Y-112831998D02*
X127635000Y-114935000D01*
X127635000Y-114935000D02*
X118110000Y-114935000D01*
X118110000Y-114935000D02*
X116840000Y-113665000D01*
D41*
X140081000Y-89281000D02*
X138845000Y-88045000D01*
X138845000Y-88045000D02*
X135840000Y-88045000D01*
X134940000Y-88945000D02*
X134940000Y-88995000D01*
X135840000Y-88045000D02*
X134940000Y-88945000D01*
X151574500Y-89281000D02*
X140081000Y-89281000D01*
X156672590Y-94379090D02*
X151574500Y-89281000D01*
X156845000Y-95885000D02*
X156672590Y-95712590D01*
X156672590Y-95712590D02*
X156672590Y-94379090D01*
D39*
X148995000Y-112776000D02*
X148995000Y-114070000D01*
D43*
X187325000Y-96520000D02*
X183515000Y-96520000D01*
D40*
X146090000Y-110371000D02*
X143962500Y-110371000D01*
D39*
X148590000Y-101373496D02*
X148590000Y-102105000D01*
X147801504Y-100585000D02*
X148590000Y-101373496D01*
X147040000Y-100585000D02*
X147801504Y-100585000D01*
X148590000Y-102105000D02*
X148590000Y-102755000D01*
D43*
X158115000Y-107950000D02*
X158115000Y-110082002D01*
X158115000Y-110082002D02*
X154477003Y-113719999D01*
X154477003Y-113719999D02*
X152036003Y-113719999D01*
X152036003Y-113719999D02*
X151456002Y-114300000D01*
X151456002Y-114300000D02*
X149225000Y-114300000D01*
X183515000Y-96520000D02*
X175260000Y-96520000D01*
D41*
X182085000Y-89535000D02*
X182560000Y-89535000D01*
X182560000Y-89535000D02*
X183515000Y-90490000D01*
X183515000Y-90490000D02*
X183515000Y-96520000D01*
X182085000Y-89535000D02*
X180110000Y-89535000D01*
X180110000Y-89535000D02*
X179705000Y-89940000D01*
X143891000Y-110299500D02*
X141501506Y-110299500D01*
X141501506Y-110299500D02*
X141168002Y-110633004D01*
D43*
X141168002Y-110633004D02*
X141168002Y-112831998D01*
D40*
X143962500Y-110371000D02*
X143891000Y-110299500D01*
D43*
X158115000Y-104775000D02*
X158115000Y-107950000D01*
D39*
X153035000Y-108180000D02*
X157885000Y-108180000D01*
X157885000Y-108180000D02*
X158115000Y-107950000D01*
X151130000Y-108180000D02*
X153035000Y-108180000D01*
D41*
X146315000Y-94615000D02*
X149020000Y-94615000D01*
X149020000Y-94615000D02*
X150090000Y-95685000D01*
X150090000Y-95685000D02*
X150090000Y-95885000D01*
X144780000Y-95250000D02*
X145680000Y-95250000D01*
X145680000Y-95250000D02*
X146315000Y-94615000D01*
X150090000Y-95885000D02*
X156845000Y-95885000D01*
X156845000Y-95885000D02*
X159385000Y-98425000D01*
D43*
X159385000Y-98425000D02*
X158115000Y-99695000D01*
X158115000Y-99695000D02*
X158115000Y-104775000D01*
X173355000Y-98425000D02*
X159385000Y-98425000D01*
X148590000Y-102755000D02*
X150465000Y-102755000D01*
X150465000Y-102755000D02*
X152485000Y-104775000D01*
X152485000Y-104775000D02*
X158115000Y-104775000D01*
X141168002Y-112831998D02*
X142240000Y-112831998D01*
X149225000Y-114300000D02*
X143708002Y-114300000D01*
D44*
X148995000Y-114070000D02*
X149225000Y-114300000D01*
D43*
X143708002Y-114300000D02*
X142240000Y-112831998D01*
X185330000Y-121090000D02*
X186885000Y-121090000D01*
X186885000Y-121090000D02*
X188595000Y-119380000D01*
X188595000Y-119380000D02*
X188595000Y-97790000D01*
X188595000Y-97790000D02*
X187325000Y-96520000D01*
X175260000Y-96520000D02*
X173355000Y-98425000D01*
D39*
X144890000Y-97435000D02*
X144890000Y-95360000D01*
X144890000Y-95360000D02*
X144780000Y-95250000D01*
D40*
X144165000Y-110371000D02*
X144145000Y-110351000D01*
X148190000Y-110871000D02*
X148190000Y-111996000D01*
X148190000Y-111996000D02*
X148970000Y-112776000D01*
X148970000Y-112776000D02*
X148995000Y-112776000D01*
D43*
X159385000Y-86735000D02*
X161210011Y-88560011D01*
X161210011Y-88560011D02*
X173968726Y-88560011D01*
X173968726Y-88560011D02*
X174603725Y-89195010D01*
X174603725Y-89195010D02*
X177889992Y-89195010D01*
X191135000Y-87630000D02*
X197515011Y-94010011D01*
X177889992Y-89195010D02*
X179455002Y-87630000D01*
X179455002Y-87630000D02*
X191135000Y-87630000D01*
X197515011Y-94010011D02*
X197515011Y-107852070D01*
X197515011Y-107852070D02*
X194877081Y-110490000D01*
X194877081Y-110490000D02*
X193675000Y-110490000D01*
X159385000Y-86735000D02*
X159385000Y-89225000D01*
X159385000Y-89225000D02*
X158575000Y-90035000D01*
X155575000Y-85090000D02*
X158210000Y-85090000D01*
X158210000Y-85090000D02*
X158575000Y-85455000D01*
D39*
X144653000Y-105878500D02*
X144653000Y-104584500D01*
X144653000Y-104584500D02*
X144780000Y-104457500D01*
X144780000Y-104457500D02*
X144390000Y-104067500D01*
X144390000Y-104067500D02*
X144390000Y-102235000D01*
X144780000Y-104775000D02*
X144755000Y-104775000D01*
X151337943Y-98494720D02*
X151904620Y-98494720D01*
X151904620Y-98494720D02*
X153035000Y-97364340D01*
X149155280Y-98494720D02*
X148065000Y-99585000D01*
X148065000Y-99585000D02*
X147040000Y-99585000D01*
X151337943Y-98494720D02*
X149155280Y-98494720D01*
X150742969Y-101535280D02*
X151691497Y-101535280D01*
X148345000Y-100085000D02*
X149795280Y-101535280D01*
X147040000Y-100085000D02*
X148345000Y-100085000D01*
X149795280Y-101535280D02*
X150742969Y-101535280D01*
X153244340Y-102660660D02*
X152816877Y-102660660D01*
X152816877Y-102660660D02*
X151691497Y-101535280D01*
X143105000Y-104457500D02*
X143105000Y-105636500D01*
X143105000Y-105636500D02*
X142875000Y-105866500D01*
X143890000Y-102235000D02*
X143890000Y-103697500D01*
X143130000Y-104457500D02*
X143105000Y-104457500D01*
X143890000Y-103697500D02*
X143130000Y-104457500D01*
X143105000Y-104775000D02*
X143192500Y-104775000D01*
D40*
X143130000Y-104775000D02*
X143105000Y-104775000D01*
D43*
X108420000Y-97840000D02*
X110972590Y-97840000D01*
X110972590Y-97840000D02*
X110972590Y-97790000D01*
D40*
X147390000Y-110871000D02*
X147390000Y-112301000D01*
X147390000Y-112301000D02*
X146915000Y-112776000D01*
D43*
X110440000Y-102920000D02*
X111125000Y-102235000D01*
X108420000Y-102920000D02*
X110440000Y-102920000D01*
X108420000Y-100380000D02*
X110770000Y-100380000D01*
X110770000Y-100380000D02*
X110972591Y-100582591D01*
X110972591Y-100582591D02*
X111125000Y-100582591D01*
D39*
X142890000Y-97210000D02*
X142890000Y-97435000D01*
X142515000Y-92435000D02*
X142515000Y-96835000D01*
X143510000Y-91440000D02*
X142515000Y-92435000D01*
X142515000Y-96835000D02*
X142890000Y-97210000D01*
X142240000Y-100585000D02*
X141223000Y-100585000D01*
X141223000Y-100585000D02*
X140525500Y-101282500D01*
X153225500Y-112395000D02*
X153392000Y-112395000D01*
X153392000Y-112395000D02*
X154559000Y-111228000D01*
X189920834Y-90806251D02*
X189620835Y-90506252D01*
X195901500Y-103183500D02*
X195901500Y-96786917D01*
X193675000Y-105410000D02*
X195901500Y-103183500D01*
X195901500Y-96786917D02*
X189920834Y-90806251D01*
X142875000Y-107366500D02*
X142875000Y-108449394D01*
X142875000Y-108449394D02*
X142671893Y-108652501D01*
X142671893Y-108652501D02*
X142161001Y-108652501D01*
X142161001Y-108652501D02*
X141986000Y-108477500D01*
X141033500Y-107378500D02*
X142863000Y-107378500D01*
X142863000Y-107378500D02*
X142875000Y-107366500D01*
X189967909Y-89757809D02*
X189543645Y-89757809D01*
X196401500Y-105223500D02*
X196401500Y-96191400D01*
X193675000Y-107950000D02*
X196401500Y-105223500D01*
X196401500Y-96191400D02*
X189967909Y-89757809D01*
X144653000Y-107378500D02*
X142879001Y-109152499D01*
X142879001Y-109152499D02*
X142161001Y-109152499D01*
X142161001Y-109152499D02*
X141986000Y-109327500D01*
X142240000Y-102011351D02*
X141942861Y-102308490D01*
X142240000Y-101585000D02*
X142240000Y-102011351D01*
X142240000Y-101085000D02*
X141640000Y-101085000D01*
X141640000Y-101085000D02*
X141287500Y-101437500D01*
X141287500Y-101437500D02*
X141287500Y-101663500D01*
X141177212Y-99585000D02*
X141097975Y-99505763D01*
X142240000Y-99585000D02*
X141177212Y-99585000D01*
X142240000Y-99085000D02*
X141640000Y-99085000D01*
X141443599Y-98985012D02*
X141136373Y-98677786D01*
X141136373Y-98677786D02*
X140973888Y-98677786D01*
X141640000Y-99085000D02*
X141540012Y-98985012D01*
X141540012Y-98985012D02*
X141443599Y-98985012D01*
X192499999Y-94794999D02*
X192499999Y-114998500D01*
X188468000Y-123698000D02*
X192499999Y-119666001D01*
X192499999Y-114998500D02*
X192499999Y-115220499D01*
X192499999Y-119666001D02*
X192499999Y-114998500D01*
X179260500Y-123698000D02*
X188468000Y-123698000D01*
X177609500Y-122047000D02*
X179260500Y-123698000D01*
X177609500Y-107823000D02*
X177609500Y-122047000D01*
X178562000Y-106870500D02*
X177609500Y-107823000D01*
X184560500Y-106870500D02*
X178562000Y-106870500D01*
X185330000Y-108390000D02*
X185330000Y-107640000D01*
X185330000Y-107640000D02*
X184560500Y-106870500D01*
X187485000Y-90805000D02*
X188510000Y-90805000D01*
X188510000Y-90805000D02*
X192499999Y-94794999D01*
X187452000Y-122555000D02*
X184209998Y-122555000D01*
X182115001Y-120460003D02*
X182115001Y-109215001D01*
X184209998Y-122555000D02*
X182115001Y-120460003D01*
X182115001Y-109215001D02*
X181290000Y-108390000D01*
X181290000Y-108390000D02*
X180290000Y-108390000D01*
X189959999Y-120047001D02*
X187452000Y-122555000D01*
X189959999Y-115570000D02*
X189959999Y-115728499D01*
X189959999Y-93524999D02*
X189959999Y-115570000D01*
X189959999Y-115570000D02*
X189959999Y-120047001D01*
X187485000Y-92075000D02*
X188510000Y-92075000D01*
X188510000Y-92075000D02*
X189959999Y-93524999D01*
X139951500Y-103409500D02*
X142815500Y-103409500D01*
X142815500Y-103409500D02*
X143390000Y-102835000D01*
X143390000Y-102835000D02*
X143390000Y-102235000D01*
X139078911Y-104123911D02*
X140833500Y-105878500D01*
X139001500Y-102109500D02*
X139078911Y-102186911D01*
X139001500Y-101409500D02*
X139001500Y-102109500D01*
X140833500Y-105878500D02*
X141033500Y-105878500D01*
X139078911Y-102186911D02*
X139078911Y-104123911D01*
X138684000Y-89090500D02*
X136935500Y-89090500D01*
X142240000Y-98085000D02*
X142240000Y-97599500D01*
X142240000Y-97599500D02*
X139763500Y-95123000D01*
X136935500Y-89090500D02*
X136840000Y-88995000D01*
D41*
X135890000Y-86995000D02*
X113030000Y-86995000D01*
X112370000Y-87660000D02*
X111170000Y-87660000D01*
X113030000Y-86995000D02*
X113030000Y-87000000D01*
X113030000Y-87000000D02*
X112370000Y-87660000D01*
D39*
X137558501Y-100962409D02*
X137858500Y-100662410D01*
X119540000Y-111760000D02*
X126760910Y-111760000D01*
X126760910Y-111760000D02*
X137558501Y-100962409D01*
X174625000Y-94615000D02*
X172720000Y-96520000D01*
X179070000Y-94615000D02*
X174625000Y-94615000D01*
X179705000Y-93980000D02*
X179070000Y-94615000D01*
X145812493Y-103273551D02*
X145812493Y-103440078D01*
X145390000Y-102851058D02*
X145812493Y-103273551D01*
X145390000Y-102235000D02*
X145390000Y-102851058D01*
D40*
X151130000Y-106680000D02*
X150368000Y-106680000D01*
X150368000Y-106680000D02*
X149796500Y-107251500D01*
X148590000Y-107871000D02*
X149177000Y-107871000D01*
X149177000Y-107871000D02*
X149796500Y-107251500D01*
D39*
X179705000Y-93980000D02*
X181610000Y-92075000D01*
X181610000Y-92075000D02*
X182085000Y-92075000D01*
D40*
X145415000Y-102260000D02*
X145390000Y-102235000D01*
D39*
X122555000Y-109220000D02*
X121285000Y-110490000D01*
X121285000Y-110490000D02*
X119540000Y-110490000D01*
X122555000Y-105115678D02*
X122555000Y-109220000D01*
X137500678Y-90170000D02*
X122555000Y-105115678D01*
X151599002Y-90170000D02*
X137500678Y-90170000D01*
X180969999Y-90714999D02*
X179160001Y-90714999D01*
X176530000Y-93345000D02*
X173938631Y-93345000D01*
X173938631Y-93345000D02*
X172403040Y-94880591D01*
X179160001Y-90714999D02*
X176530000Y-93345000D01*
X182085000Y-90805000D02*
X181060000Y-90805000D01*
X181060000Y-90805000D02*
X180969999Y-90714999D01*
X172403040Y-94880591D02*
X172103041Y-95180590D01*
X151599002Y-90170000D02*
X155575000Y-94145998D01*
X155575000Y-94145998D02*
X155575000Y-95123000D01*
D40*
X145890000Y-102235000D02*
X145890000Y-102647496D01*
X145890000Y-102647496D02*
X147447000Y-104204496D01*
X147447000Y-104204496D02*
X147447000Y-105029000D01*
X147447000Y-105029000D02*
X148190000Y-105772000D01*
X148190000Y-105772000D02*
X148190000Y-107378500D01*
X148190000Y-107378500D02*
X148190000Y-107490000D01*
X148190000Y-107871000D02*
X148190000Y-107378500D01*
D39*
X152400000Y-106680000D02*
X153035000Y-106680000D01*
X151130000Y-105410000D02*
X152400000Y-106680000D01*
X151130000Y-105410000D02*
X148552000Y-105410000D01*
X148552000Y-105410000D02*
X148190000Y-105772000D01*
X182085000Y-90805000D02*
X181610000Y-90805000D01*
D43*
X108420000Y-95300000D02*
X110972590Y-95300000D01*
X110972590Y-95300000D02*
X110972590Y-95250000D01*
D39*
X109020000Y-114300000D02*
X110925000Y-112395000D01*
X107950000Y-114300000D02*
X109020000Y-114300000D01*
X110925000Y-112395000D02*
X111125000Y-112395000D01*
X106680000Y-113030000D02*
X107950000Y-114300000D01*
X106680000Y-112280000D02*
X106680000Y-113030000D01*
X108420000Y-110540000D02*
X106680000Y-112280000D01*
X111760000Y-111760000D02*
X111125000Y-112395000D01*
X114140000Y-111760000D02*
X111760000Y-111760000D01*
X111125000Y-110605000D02*
X114025000Y-110605000D01*
X114025000Y-110605000D02*
X114140000Y-110490000D01*
X108420000Y-113080000D02*
X110895000Y-110605000D01*
X110895000Y-110605000D02*
X111125000Y-110605000D01*
X158715560Y-96596973D02*
X159015559Y-96896972D01*
X158575000Y-94615000D02*
X158575000Y-96456413D01*
X158575000Y-96456413D02*
X158715560Y-96596973D01*
X142240000Y-100085000D02*
X135500000Y-100085000D01*
X135500000Y-100085000D02*
X135255000Y-100330000D01*
X142416500Y-102933500D02*
X140910502Y-102933500D01*
X140910502Y-102933500D02*
X140436500Y-102459498D01*
X140436500Y-102459498D02*
X140124264Y-102459498D01*
X140124264Y-102459498D02*
X139700000Y-102459498D01*
X142890000Y-102460000D02*
X142416500Y-102933500D01*
X142890000Y-102235000D02*
X142890000Y-102460000D01*
X145288000Y-111125000D02*
X146336000Y-111125000D01*
X146336000Y-111125000D02*
X146564999Y-110896001D01*
X139726501Y-102432997D02*
X139700000Y-102459498D01*
X146455000Y-86995000D02*
X146455000Y-88202179D01*
X146455000Y-88202179D02*
X146431000Y-88226179D01*
X144780000Y-93599000D02*
X144780000Y-92392500D01*
X143390000Y-97435000D02*
X143390000Y-96835000D01*
X143390000Y-96835000D02*
X144054999Y-96170001D01*
X144054999Y-94299001D02*
X144755000Y-93599000D01*
X144054999Y-96170001D02*
X144054999Y-94299001D01*
X144755000Y-93599000D02*
X144780000Y-93599000D01*
X146455000Y-86995000D02*
X146455000Y-85090000D01*
X181927500Y-94551500D02*
X181927500Y-93502500D01*
X181927500Y-93502500D02*
X182085000Y-93345000D01*
X147040000Y-101585000D02*
X147876500Y-101585000D01*
X147876500Y-101585000D02*
X147955000Y-101663500D01*
X145542000Y-91948000D02*
X146050000Y-91440000D01*
X145890000Y-97435000D02*
X145890000Y-96677500D01*
X145890000Y-96677500D02*
X145542000Y-96329500D01*
X148590000Y-92202000D02*
X148590000Y-91440000D01*
X146390000Y-97435000D02*
X146390000Y-96751500D01*
X146390000Y-96751500D02*
X146685000Y-96456500D01*
X148590000Y-95885000D02*
X147320000Y-95885000D01*
X147040000Y-98585000D02*
X147640000Y-98585000D01*
X147640000Y-98585000D02*
X148590000Y-97635000D01*
X148590000Y-97635000D02*
X148590000Y-96585000D01*
X148590000Y-96585000D02*
X148590000Y-95885000D01*
D45*
G36*
X105977852Y-113320839D02*
X106142599Y-113567401D01*
X107319672Y-114744474D01*
X107236371Y-114827630D01*
X107023243Y-115340900D01*
X107022758Y-115896661D01*
X107234990Y-116410303D01*
X107627630Y-116803629D01*
X108140900Y-117016757D01*
X108696661Y-117017242D01*
X109210303Y-116805010D01*
X109365424Y-116650159D01*
X141339446Y-116650159D01*
X141425852Y-116906643D01*
X141999336Y-117116458D01*
X142609460Y-117090839D01*
X143054148Y-116906643D01*
X143140554Y-116650159D01*
X142240000Y-115749605D01*
X141339446Y-116650159D01*
X109365424Y-116650159D01*
X109603629Y-116412370D01*
X109816757Y-115899100D01*
X109817242Y-115343339D01*
X109605010Y-114829697D01*
X109585075Y-114809727D01*
X109895238Y-114499564D01*
X110145657Y-114874343D01*
X110594983Y-115174573D01*
X110658527Y-115187213D01*
X111385657Y-115914343D01*
X111834983Y-116214573D01*
X112365000Y-116320000D01*
X127635000Y-116320000D01*
X128165017Y-116214573D01*
X128614343Y-115914343D01*
X129199350Y-115329336D01*
X140693542Y-115329336D01*
X140719161Y-115939460D01*
X140903357Y-116384148D01*
X141159841Y-116470554D01*
X142060395Y-115570000D01*
X141159841Y-114669446D01*
X140903357Y-114755852D01*
X140693542Y-115329336D01*
X129199350Y-115329336D01*
X130311688Y-114216998D01*
X141465346Y-114216998D01*
X141425852Y-114233357D01*
X141339446Y-114489841D01*
X142240000Y-115390395D01*
X142254143Y-115376253D01*
X142433748Y-115555858D01*
X142419605Y-115570000D01*
X143320159Y-116470554D01*
X143576643Y-116384148D01*
X143786458Y-115810664D01*
X143781181Y-115685000D01*
X151456002Y-115685000D01*
X151986019Y-115579573D01*
X152435345Y-115279343D01*
X152609689Y-115104999D01*
X153471012Y-115104999D01*
X153405267Y-115263330D01*
X153404735Y-115873991D01*
X153637932Y-116438371D01*
X154069357Y-116870551D01*
X154633330Y-117104733D01*
X155243991Y-117105265D01*
X155808371Y-116872068D01*
X156240551Y-116440643D01*
X156474733Y-115876670D01*
X156475265Y-115266009D01*
X156390970Y-115062000D01*
X159153167Y-115062000D01*
X159153167Y-129671264D01*
X159054431Y-129770000D01*
X103312467Y-129770000D01*
X101981540Y-129505262D01*
X100910429Y-128789568D01*
X100194738Y-127718459D01*
X99943420Y-126455000D01*
X101060000Y-126455000D01*
X101226323Y-127291163D01*
X101699972Y-128000028D01*
X102408837Y-128473677D01*
X103245000Y-128640000D01*
X104081163Y-128473677D01*
X104790028Y-128000028D01*
X105263677Y-127291163D01*
X105348646Y-126863991D01*
X108824735Y-126863991D01*
X109057932Y-127428371D01*
X109489357Y-127860551D01*
X110053330Y-128094733D01*
X110663991Y-128095265D01*
X111228371Y-127862068D01*
X111660551Y-127430643D01*
X111894733Y-126866670D01*
X111895265Y-126256009D01*
X111662068Y-125691629D01*
X111465783Y-125495000D01*
X111996310Y-125495000D01*
X112229699Y-125398327D01*
X112408327Y-125219698D01*
X112505000Y-124986309D01*
X112505000Y-123545750D01*
X112346250Y-123387000D01*
X111297000Y-123387000D01*
X111297000Y-123407000D01*
X111043000Y-123407000D01*
X111043000Y-123387000D01*
X109993750Y-123387000D01*
X109835000Y-123545750D01*
X109835000Y-124986309D01*
X109880888Y-125097093D01*
X109491629Y-125257932D01*
X109059449Y-125689357D01*
X108825267Y-126253330D01*
X108824735Y-126863991D01*
X105348646Y-126863991D01*
X105430000Y-126455000D01*
X105263677Y-125618837D01*
X104790028Y-124909972D01*
X104081163Y-124436323D01*
X103245000Y-124270000D01*
X102408837Y-124436323D01*
X101699972Y-124909972D01*
X101226323Y-125618837D01*
X101060000Y-126455000D01*
X99943420Y-126455000D01*
X100194738Y-125191541D01*
X100910429Y-124120432D01*
X101981540Y-123404738D01*
X103312467Y-123140000D01*
X104245000Y-123140000D01*
X104311170Y-123126838D01*
X104378636Y-123126838D01*
X104761319Y-123050718D01*
X105008248Y-122948437D01*
X105008249Y-122948436D01*
X105332672Y-122731664D01*
X105521664Y-122542672D01*
X105738437Y-122218249D01*
X105780803Y-122115968D01*
X105840718Y-121971319D01*
X105916838Y-121588636D01*
X105916838Y-121533691D01*
X109835000Y-121533691D01*
X109835000Y-122974250D01*
X109993750Y-123133000D01*
X111043000Y-123133000D01*
X111043000Y-121183750D01*
X111297000Y-121183750D01*
X111297000Y-123133000D01*
X112346250Y-123133000D01*
X112504250Y-122975000D01*
X142612560Y-122975000D01*
X142612560Y-124675000D01*
X142656838Y-124910317D01*
X142795910Y-125126441D01*
X143008110Y-125271431D01*
X143260000Y-125322440D01*
X144460000Y-125322440D01*
X144695317Y-125278162D01*
X144911441Y-125139090D01*
X145010901Y-124993525D01*
X145387386Y-125245084D01*
X145860000Y-125339093D01*
X146332614Y-125245084D01*
X146733277Y-124977370D01*
X146860000Y-124787715D01*
X146986723Y-124977370D01*
X147387386Y-125245084D01*
X147860000Y-125339093D01*
X148332614Y-125245084D01*
X148733277Y-124977370D01*
X148862410Y-124784109D01*
X149030875Y-125006933D01*
X149450624Y-125253286D01*
X149542391Y-125268462D01*
X149733000Y-125143731D01*
X149733000Y-123952000D01*
X149987000Y-123952000D01*
X149987000Y-125143731D01*
X150177609Y-125268462D01*
X150269376Y-125253286D01*
X150689125Y-125006933D01*
X150982647Y-124618701D01*
X151105256Y-124147696D01*
X150942547Y-123952000D01*
X149987000Y-123952000D01*
X149733000Y-123952000D01*
X149713000Y-123952000D01*
X149713000Y-123698000D01*
X149733000Y-123698000D01*
X149733000Y-122506269D01*
X149987000Y-122506269D01*
X149987000Y-123698000D01*
X150942547Y-123698000D01*
X151105256Y-123502304D01*
X150982647Y-123031299D01*
X150689125Y-122643067D01*
X150269376Y-122396714D01*
X150177609Y-122381538D01*
X149987000Y-122506269D01*
X149733000Y-122506269D01*
X149542391Y-122381538D01*
X149450624Y-122396714D01*
X149030875Y-122643067D01*
X148862410Y-122865891D01*
X148733277Y-122672630D01*
X148332614Y-122404916D01*
X147860000Y-122310907D01*
X147387386Y-122404916D01*
X146986723Y-122672630D01*
X146860000Y-122862285D01*
X146733277Y-122672630D01*
X146332614Y-122404916D01*
X145860000Y-122310907D01*
X145387386Y-122404916D01*
X145010004Y-122657074D01*
X144924090Y-122523559D01*
X144711890Y-122378569D01*
X144460000Y-122327560D01*
X143260000Y-122327560D01*
X143024683Y-122371838D01*
X142808559Y-122510910D01*
X142663569Y-122723110D01*
X142612560Y-122975000D01*
X112504250Y-122975000D01*
X112505000Y-122974250D01*
X112505000Y-121533691D01*
X112408327Y-121300302D01*
X112229699Y-121121673D01*
X111996310Y-121025000D01*
X111455750Y-121025000D01*
X111297000Y-121183750D01*
X111043000Y-121183750D01*
X110884250Y-121025000D01*
X110343690Y-121025000D01*
X110110301Y-121121673D01*
X109931673Y-121300302D01*
X109835000Y-121533691D01*
X105916838Y-121533691D01*
X105916838Y-121521170D01*
X105930000Y-121455000D01*
X105930000Y-118413991D01*
X145784735Y-118413991D01*
X146017932Y-118978371D01*
X146449357Y-119410551D01*
X147013330Y-119644733D01*
X147623991Y-119645265D01*
X148188371Y-119412068D01*
X148620551Y-118980643D01*
X148854733Y-118416670D01*
X148855265Y-117806009D01*
X148622068Y-117241629D01*
X148190643Y-116809449D01*
X147626670Y-116575267D01*
X147016009Y-116574735D01*
X146451629Y-116807932D01*
X146019449Y-117239357D01*
X145785267Y-117803330D01*
X145784735Y-118413991D01*
X105930000Y-118413991D01*
X105930000Y-113080273D01*
X105977852Y-113320839D01*
X105977852Y-113320839D01*
G37*
X105977852Y-113320839D02*
X106142599Y-113567401D01*
X107319672Y-114744474D01*
X107236371Y-114827630D01*
X107023243Y-115340900D01*
X107022758Y-115896661D01*
X107234990Y-116410303D01*
X107627630Y-116803629D01*
X108140900Y-117016757D01*
X108696661Y-117017242D01*
X109210303Y-116805010D01*
X109365424Y-116650159D01*
X141339446Y-116650159D01*
X141425852Y-116906643D01*
X141999336Y-117116458D01*
X142609460Y-117090839D01*
X143054148Y-116906643D01*
X143140554Y-116650159D01*
X142240000Y-115749605D01*
X141339446Y-116650159D01*
X109365424Y-116650159D01*
X109603629Y-116412370D01*
X109816757Y-115899100D01*
X109817242Y-115343339D01*
X109605010Y-114829697D01*
X109585075Y-114809727D01*
X109895238Y-114499564D01*
X110145657Y-114874343D01*
X110594983Y-115174573D01*
X110658527Y-115187213D01*
X111385657Y-115914343D01*
X111834983Y-116214573D01*
X112365000Y-116320000D01*
X127635000Y-116320000D01*
X128165017Y-116214573D01*
X128614343Y-115914343D01*
X129199350Y-115329336D01*
X140693542Y-115329336D01*
X140719161Y-115939460D01*
X140903357Y-116384148D01*
X141159841Y-116470554D01*
X142060395Y-115570000D01*
X141159841Y-114669446D01*
X140903357Y-114755852D01*
X140693542Y-115329336D01*
X129199350Y-115329336D01*
X130311688Y-114216998D01*
X141465346Y-114216998D01*
X141425852Y-114233357D01*
X141339446Y-114489841D01*
X142240000Y-115390395D01*
X142254143Y-115376253D01*
X142433748Y-115555858D01*
X142419605Y-115570000D01*
X143320159Y-116470554D01*
X143576643Y-116384148D01*
X143786458Y-115810664D01*
X143781181Y-115685000D01*
X151456002Y-115685000D01*
X151986019Y-115579573D01*
X152435345Y-115279343D01*
X152609689Y-115104999D01*
X153471012Y-115104999D01*
X153405267Y-115263330D01*
X153404735Y-115873991D01*
X153637932Y-116438371D01*
X154069357Y-116870551D01*
X154633330Y-117104733D01*
X155243991Y-117105265D01*
X155808371Y-116872068D01*
X156240551Y-116440643D01*
X156474733Y-115876670D01*
X156475265Y-115266009D01*
X156390970Y-115062000D01*
X159153167Y-115062000D01*
X159153167Y-129671264D01*
X159054431Y-129770000D01*
X103312467Y-129770000D01*
X101981540Y-129505262D01*
X100910429Y-128789568D01*
X100194738Y-127718459D01*
X99943420Y-126455000D01*
X101060000Y-126455000D01*
X101226323Y-127291163D01*
X101699972Y-128000028D01*
X102408837Y-128473677D01*
X103245000Y-128640000D01*
X104081163Y-128473677D01*
X104790028Y-128000028D01*
X105263677Y-127291163D01*
X105348646Y-126863991D01*
X108824735Y-126863991D01*
X109057932Y-127428371D01*
X109489357Y-127860551D01*
X110053330Y-128094733D01*
X110663991Y-128095265D01*
X111228371Y-127862068D01*
X111660551Y-127430643D01*
X111894733Y-126866670D01*
X111895265Y-126256009D01*
X111662068Y-125691629D01*
X111465783Y-125495000D01*
X111996310Y-125495000D01*
X112229699Y-125398327D01*
X112408327Y-125219698D01*
X112505000Y-124986309D01*
X112505000Y-123545750D01*
X112346250Y-123387000D01*
X111297000Y-123387000D01*
X111297000Y-123407000D01*
X111043000Y-123407000D01*
X111043000Y-123387000D01*
X109993750Y-123387000D01*
X109835000Y-123545750D01*
X109835000Y-124986309D01*
X109880888Y-125097093D01*
X109491629Y-125257932D01*
X109059449Y-125689357D01*
X108825267Y-126253330D01*
X108824735Y-126863991D01*
X105348646Y-126863991D01*
X105430000Y-126455000D01*
X105263677Y-125618837D01*
X104790028Y-124909972D01*
X104081163Y-124436323D01*
X103245000Y-124270000D01*
X102408837Y-124436323D01*
X101699972Y-124909972D01*
X101226323Y-125618837D01*
X101060000Y-126455000D01*
X99943420Y-126455000D01*
X100194738Y-125191541D01*
X100910429Y-124120432D01*
X101981540Y-123404738D01*
X103312467Y-123140000D01*
X104245000Y-123140000D01*
X104311170Y-123126838D01*
X104378636Y-123126838D01*
X104761319Y-123050718D01*
X105008248Y-122948437D01*
X105008249Y-122948436D01*
X105332672Y-122731664D01*
X105521664Y-122542672D01*
X105738437Y-122218249D01*
X105780803Y-122115968D01*
X105840718Y-121971319D01*
X105916838Y-121588636D01*
X105916838Y-121533691D01*
X109835000Y-121533691D01*
X109835000Y-122974250D01*
X109993750Y-123133000D01*
X111043000Y-123133000D01*
X111043000Y-121183750D01*
X111297000Y-121183750D01*
X111297000Y-123133000D01*
X112346250Y-123133000D01*
X112504250Y-122975000D01*
X142612560Y-122975000D01*
X142612560Y-124675000D01*
X142656838Y-124910317D01*
X142795910Y-125126441D01*
X143008110Y-125271431D01*
X143260000Y-125322440D01*
X144460000Y-125322440D01*
X144695317Y-125278162D01*
X144911441Y-125139090D01*
X145010901Y-124993525D01*
X145387386Y-125245084D01*
X145860000Y-125339093D01*
X146332614Y-125245084D01*
X146733277Y-124977370D01*
X146860000Y-124787715D01*
X146986723Y-124977370D01*
X147387386Y-125245084D01*
X147860000Y-125339093D01*
X148332614Y-125245084D01*
X148733277Y-124977370D01*
X148862410Y-124784109D01*
X149030875Y-125006933D01*
X149450624Y-125253286D01*
X149542391Y-125268462D01*
X149733000Y-125143731D01*
X149733000Y-123952000D01*
X149987000Y-123952000D01*
X149987000Y-125143731D01*
X150177609Y-125268462D01*
X150269376Y-125253286D01*
X150689125Y-125006933D01*
X150982647Y-124618701D01*
X151105256Y-124147696D01*
X150942547Y-123952000D01*
X149987000Y-123952000D01*
X149733000Y-123952000D01*
X149713000Y-123952000D01*
X149713000Y-123698000D01*
X149733000Y-123698000D01*
X149733000Y-122506269D01*
X149987000Y-122506269D01*
X149987000Y-123698000D01*
X150942547Y-123698000D01*
X151105256Y-123502304D01*
X150982647Y-123031299D01*
X150689125Y-122643067D01*
X150269376Y-122396714D01*
X150177609Y-122381538D01*
X149987000Y-122506269D01*
X149733000Y-122506269D01*
X149542391Y-122381538D01*
X149450624Y-122396714D01*
X149030875Y-122643067D01*
X148862410Y-122865891D01*
X148733277Y-122672630D01*
X148332614Y-122404916D01*
X147860000Y-122310907D01*
X147387386Y-122404916D01*
X146986723Y-122672630D01*
X146860000Y-122862285D01*
X146733277Y-122672630D01*
X146332614Y-122404916D01*
X145860000Y-122310907D01*
X145387386Y-122404916D01*
X145010004Y-122657074D01*
X144924090Y-122523559D01*
X144711890Y-122378569D01*
X144460000Y-122327560D01*
X143260000Y-122327560D01*
X143024683Y-122371838D01*
X142808559Y-122510910D01*
X142663569Y-122723110D01*
X142612560Y-122975000D01*
X112504250Y-122975000D01*
X112505000Y-122974250D01*
X112505000Y-121533691D01*
X112408327Y-121300302D01*
X112229699Y-121121673D01*
X111996310Y-121025000D01*
X111455750Y-121025000D01*
X111297000Y-121183750D01*
X111043000Y-121183750D01*
X110884250Y-121025000D01*
X110343690Y-121025000D01*
X110110301Y-121121673D01*
X109931673Y-121300302D01*
X109835000Y-121533691D01*
X105916838Y-121533691D01*
X105916838Y-121521170D01*
X105930000Y-121455000D01*
X105930000Y-118413991D01*
X145784735Y-118413991D01*
X146017932Y-118978371D01*
X146449357Y-119410551D01*
X147013330Y-119644733D01*
X147623991Y-119645265D01*
X148188371Y-119412068D01*
X148620551Y-118980643D01*
X148854733Y-118416670D01*
X148855265Y-117806009D01*
X148622068Y-117241629D01*
X148190643Y-116809449D01*
X147626670Y-116575267D01*
X147016009Y-116574735D01*
X146451629Y-116807932D01*
X146019449Y-117239357D01*
X145785267Y-117803330D01*
X145784735Y-118413991D01*
X105930000Y-118413991D01*
X105930000Y-113080273D01*
X105977852Y-113320839D01*
G36*
X135128000Y-104775000D02*
X135136685Y-104821159D01*
X135163965Y-104863553D01*
X135205590Y-104891994D01*
X135255000Y-104902000D01*
X135545000Y-104902000D01*
X135545000Y-106395002D01*
X135650427Y-106925019D01*
X135858420Y-107236302D01*
X135950657Y-107374345D01*
X139783002Y-111206690D01*
X139783002Y-111446998D01*
X129738002Y-111446998D01*
X129207985Y-111552425D01*
X128840160Y-111798198D01*
X128758659Y-111852655D01*
X127061314Y-113550000D01*
X120911192Y-113550000D01*
X120950000Y-113456310D01*
X120950000Y-113315750D01*
X120791250Y-113157000D01*
X119667000Y-113157000D01*
X119667000Y-113177000D01*
X119413000Y-113177000D01*
X119413000Y-113157000D01*
X119393000Y-113157000D01*
X119393000Y-112903000D01*
X119413000Y-112903000D01*
X119413000Y-112883000D01*
X119667000Y-112883000D01*
X119667000Y-112903000D01*
X120791250Y-112903000D01*
X120950000Y-112744250D01*
X120950000Y-112603690D01*
X120915334Y-112520000D01*
X126760910Y-112520000D01*
X127051749Y-112462148D01*
X127298311Y-112297401D01*
X135128000Y-104467712D01*
X135128000Y-104775000D01*
X135128000Y-104775000D01*
G37*
X135128000Y-104775000D02*
X135136685Y-104821159D01*
X135163965Y-104863553D01*
X135205590Y-104891994D01*
X135255000Y-104902000D01*
X135545000Y-104902000D01*
X135545000Y-106395002D01*
X135650427Y-106925019D01*
X135858420Y-107236302D01*
X135950657Y-107374345D01*
X139783002Y-111206690D01*
X139783002Y-111446998D01*
X129738002Y-111446998D01*
X129207985Y-111552425D01*
X128840160Y-111798198D01*
X128758659Y-111852655D01*
X127061314Y-113550000D01*
X120911192Y-113550000D01*
X120950000Y-113456310D01*
X120950000Y-113315750D01*
X120791250Y-113157000D01*
X119667000Y-113157000D01*
X119667000Y-113177000D01*
X119413000Y-113177000D01*
X119413000Y-113157000D01*
X119393000Y-113157000D01*
X119393000Y-112903000D01*
X119413000Y-112903000D01*
X119413000Y-112883000D01*
X119667000Y-112883000D01*
X119667000Y-112903000D01*
X120791250Y-112903000D01*
X120950000Y-112744250D01*
X120950000Y-112603690D01*
X120915334Y-112520000D01*
X126760910Y-112520000D01*
X127051749Y-112462148D01*
X127298311Y-112297401D01*
X135128000Y-104467712D01*
X135128000Y-104775000D01*
G36*
X150622000Y-112649000D02*
X150642000Y-112649000D01*
X150642000Y-112903000D01*
X150622000Y-112903000D01*
X150622000Y-112915000D01*
X150368000Y-112915000D01*
X150368000Y-112903000D01*
X150348000Y-112903000D01*
X150348000Y-112649000D01*
X150368000Y-112649000D01*
X150368000Y-112629000D01*
X150622000Y-112629000D01*
X150622000Y-112649000D01*
X150622000Y-112649000D01*
G37*
X150622000Y-112649000D02*
X150642000Y-112649000D01*
X150642000Y-112903000D01*
X150622000Y-112903000D01*
X150622000Y-112915000D01*
X150368000Y-112915000D01*
X150368000Y-112903000D01*
X150348000Y-112903000D01*
X150348000Y-112649000D01*
X150368000Y-112649000D01*
X150368000Y-112629000D01*
X150622000Y-112629000D01*
X150622000Y-112649000D01*
G36*
X145542000Y-112649000D02*
X145562000Y-112649000D01*
X145562000Y-112903000D01*
X145542000Y-112903000D01*
X145542000Y-112915000D01*
X145288000Y-112915000D01*
X145288000Y-112903000D01*
X145268000Y-112903000D01*
X145268000Y-112649000D01*
X145288000Y-112649000D01*
X145288000Y-112629000D01*
X145542000Y-112629000D01*
X145542000Y-112649000D01*
X145542000Y-112649000D01*
G37*
X145542000Y-112649000D02*
X145562000Y-112649000D01*
X145562000Y-112903000D01*
X145542000Y-112903000D01*
X145542000Y-112915000D01*
X145288000Y-112915000D01*
X145288000Y-112903000D01*
X145268000Y-112903000D01*
X145268000Y-112649000D01*
X145288000Y-112649000D01*
X145288000Y-112629000D01*
X145542000Y-112629000D01*
X145542000Y-112649000D01*
G36*
X151971301Y-111976827D02*
X152204690Y-112073500D01*
X152346595Y-112073500D01*
X152290662Y-112208201D01*
X152290552Y-112334999D01*
X152036003Y-112334999D01*
X151530000Y-112435649D01*
X151530000Y-112274690D01*
X151482494Y-112160000D01*
X151631310Y-112160000D01*
X151864699Y-112063327D01*
X151961250Y-111966776D01*
X151971301Y-111976827D01*
X151971301Y-111976827D01*
G37*
X151971301Y-111976827D02*
X152204690Y-112073500D01*
X152346595Y-112073500D01*
X152290662Y-112208201D01*
X152290552Y-112334999D01*
X152036003Y-112334999D01*
X151530000Y-112435649D01*
X151530000Y-112274690D01*
X151482494Y-112160000D01*
X151631310Y-112160000D01*
X151864699Y-112063327D01*
X151961250Y-111966776D01*
X151971301Y-111976827D01*
G36*
X180213000Y-83685816D02*
X180060000Y-84455000D01*
X180226323Y-85291163D01*
X180699972Y-86000028D01*
X181066598Y-86245000D01*
X179455002Y-86245000D01*
X178924985Y-86350427D01*
X178517889Y-86622440D01*
X178475659Y-86650657D01*
X178367934Y-86758382D01*
X178271513Y-86273642D01*
X178089503Y-86001245D01*
X178058162Y-85834683D01*
X177919090Y-85618559D01*
X177706890Y-85473569D01*
X177683425Y-85468817D01*
X177628258Y-85413650D01*
X177887332Y-85324179D01*
X178101325Y-84741632D01*
X178076097Y-84121539D01*
X177887332Y-83665821D01*
X177628256Y-83576349D01*
X176709605Y-84495000D01*
X176723748Y-84509143D01*
X176544143Y-84688748D01*
X176530000Y-84674605D01*
X176515858Y-84688748D01*
X176336253Y-84509143D01*
X176350395Y-84495000D01*
X175431744Y-83576349D01*
X175172668Y-83665821D01*
X174958675Y-84248368D01*
X174968612Y-84492626D01*
X174879998Y-84475000D01*
X171668022Y-84475000D01*
X171526890Y-84378569D01*
X171323091Y-84337299D01*
X171107896Y-84122104D01*
X170526597Y-83733691D01*
X172095000Y-83733691D01*
X172095000Y-84074250D01*
X172253750Y-84233000D01*
X173228000Y-84233000D01*
X173228000Y-83383750D01*
X173482000Y-83383750D01*
X173482000Y-84233000D01*
X174456250Y-84233000D01*
X174615000Y-84074250D01*
X174615000Y-83733691D01*
X174518327Y-83500302D01*
X174414770Y-83396744D01*
X175611349Y-83396744D01*
X176530000Y-84315395D01*
X177448651Y-83396744D01*
X177359179Y-83137668D01*
X176776632Y-82923675D01*
X176156539Y-82948903D01*
X175700821Y-83137668D01*
X175611349Y-83396744D01*
X174414770Y-83396744D01*
X174339699Y-83321673D01*
X174106310Y-83225000D01*
X173640750Y-83225000D01*
X173482000Y-83383750D01*
X173228000Y-83383750D01*
X173069250Y-83225000D01*
X172603690Y-83225000D01*
X172370301Y-83321673D01*
X172191673Y-83500302D01*
X172095000Y-83733691D01*
X170526597Y-83733691D01*
X170496359Y-83713487D01*
X170227039Y-83659916D01*
X170151890Y-83608569D01*
X169900000Y-83557560D01*
X168899258Y-83557560D01*
X168586359Y-83348487D01*
X167909679Y-83213887D01*
X167797896Y-83102104D01*
X167592440Y-82964822D01*
X167592440Y-82935000D01*
X167548162Y-82699683D01*
X167409090Y-82483559D01*
X167196890Y-82338569D01*
X166945000Y-82287560D01*
X165985000Y-82287560D01*
X165749683Y-82331838D01*
X165533559Y-82470910D01*
X165388569Y-82683110D01*
X165337560Y-82935000D01*
X165337560Y-82964822D01*
X165302440Y-82988289D01*
X165302440Y-82935000D01*
X165258162Y-82699683D01*
X165119090Y-82483559D01*
X164906890Y-82338569D01*
X164655000Y-82287560D01*
X164302000Y-82287560D01*
X164302000Y-83570000D01*
X164048000Y-83570000D01*
X164048000Y-82287560D01*
X163695000Y-82287560D01*
X163459683Y-82331838D01*
X163243559Y-82470910D01*
X163098569Y-82683110D01*
X163047560Y-82935000D01*
X163047560Y-83570000D01*
X163012440Y-83570000D01*
X163012440Y-82935000D01*
X162968162Y-82699683D01*
X162829090Y-82483559D01*
X162616890Y-82338569D01*
X162365000Y-82287560D01*
X162012000Y-82287560D01*
X162012000Y-83570000D01*
X161758000Y-83570000D01*
X161758000Y-82287560D01*
X161405000Y-82287560D01*
X161169683Y-82331838D01*
X160953559Y-82470910D01*
X160808569Y-82683110D01*
X160757560Y-82935000D01*
X160757560Y-83589108D01*
X160570302Y-83666673D01*
X160391673Y-83845301D01*
X160303051Y-84059253D01*
X160270000Y-84052560D01*
X159102395Y-84052560D01*
X158740017Y-83810427D01*
X158210000Y-83705000D01*
X156835000Y-83705000D01*
X156835000Y-83375750D01*
X156676250Y-83217000D01*
X155702000Y-83217000D01*
X155702000Y-83237000D01*
X155448000Y-83237000D01*
X155448000Y-83217000D01*
X154473750Y-83217000D01*
X154315000Y-83375750D01*
X154315000Y-83716309D01*
X154411673Y-83949698D01*
X154552910Y-84090936D01*
X154498559Y-84125910D01*
X154353569Y-84338110D01*
X154314384Y-84531612D01*
X154295427Y-84559983D01*
X154190000Y-85090000D01*
X154295427Y-85620017D01*
X154313218Y-85646643D01*
X154346838Y-85825317D01*
X154485910Y-86041441D01*
X154698110Y-86186431D01*
X154802542Y-86207579D01*
X155044983Y-86369573D01*
X155575000Y-86475000D01*
X156740520Y-86475000D01*
X156823110Y-86531431D01*
X157075000Y-86582440D01*
X157817300Y-86582440D01*
X157852560Y-86606000D01*
X157852560Y-88770000D01*
X157857114Y-88794200D01*
X157743754Y-88907560D01*
X157075000Y-88907560D01*
X156839683Y-88951838D01*
X156623559Y-89090910D01*
X156478569Y-89303110D01*
X156427560Y-89555000D01*
X156427560Y-90515000D01*
X156471838Y-90750317D01*
X156610910Y-90966441D01*
X156823110Y-91111431D01*
X157075000Y-91162440D01*
X157817300Y-91162440D01*
X157869861Y-91197560D01*
X157075000Y-91197560D01*
X156839683Y-91241838D01*
X156623559Y-91380910D01*
X156478569Y-91593110D01*
X156427560Y-91845000D01*
X156427560Y-92805000D01*
X156445518Y-92900439D01*
X152200290Y-88655210D01*
X152131645Y-88609343D01*
X151913175Y-88463367D01*
X151856984Y-88452190D01*
X151574500Y-88395999D01*
X151574495Y-88396000D01*
X147365853Y-88396000D01*
X147366162Y-88041012D01*
X147340232Y-87978257D01*
X147345302Y-87983327D01*
X147578691Y-88080000D01*
X147671250Y-88080000D01*
X147830000Y-87921250D01*
X147830000Y-87122000D01*
X148080000Y-87122000D01*
X148080000Y-87921250D01*
X148238750Y-88080000D01*
X148331309Y-88080000D01*
X148564698Y-87983327D01*
X148743327Y-87804699D01*
X148840000Y-87571310D01*
X148840000Y-87280750D01*
X148681250Y-87122000D01*
X148080000Y-87122000D01*
X147830000Y-87122000D01*
X147808000Y-87122000D01*
X147808000Y-86868000D01*
X147830000Y-86868000D01*
X147830000Y-86848000D01*
X148080000Y-86848000D01*
X148080000Y-86868000D01*
X148681250Y-86868000D01*
X148840000Y-86709250D01*
X148840000Y-86418690D01*
X148743327Y-86185301D01*
X148599047Y-86041022D01*
X148656441Y-86004090D01*
X148729772Y-85896766D01*
X149038201Y-86024838D01*
X149410167Y-86025162D01*
X149753943Y-85883117D01*
X150017192Y-85620327D01*
X150159838Y-85276799D01*
X150160162Y-84904833D01*
X150018117Y-84561057D01*
X149755327Y-84297808D01*
X149411799Y-84155162D01*
X149039833Y-84154838D01*
X148729818Y-84282933D01*
X148669090Y-84188559D01*
X148456890Y-84043569D01*
X148205000Y-83992560D01*
X147705000Y-83992560D01*
X147469683Y-84036838D01*
X147253559Y-84175910D01*
X147205866Y-84245711D01*
X147169090Y-84188559D01*
X146956890Y-84043569D01*
X146705000Y-83992560D01*
X146205000Y-83992560D01*
X145969683Y-84036838D01*
X145753559Y-84175910D01*
X145608569Y-84388110D01*
X145557560Y-84640000D01*
X145557560Y-85540000D01*
X145601838Y-85775317D01*
X145695000Y-85920095D01*
X145695000Y-86166614D01*
X145608569Y-86293110D01*
X145557560Y-86545000D01*
X145557560Y-87445000D01*
X145601838Y-87680317D01*
X145628229Y-87721329D01*
X145496162Y-88039380D01*
X145495851Y-88396000D01*
X140447579Y-88396000D01*
X139470790Y-87419210D01*
X139350260Y-87338675D01*
X139183675Y-87227367D01*
X139127484Y-87216190D01*
X138845000Y-87159999D01*
X138844995Y-87160000D01*
X136937440Y-87160000D01*
X136937440Y-86545000D01*
X136893162Y-86309683D01*
X136754090Y-86093559D01*
X136541890Y-85948569D01*
X136290000Y-85897560D01*
X135490000Y-85897560D01*
X135254683Y-85941838D01*
X135038559Y-86080910D01*
X135018683Y-86110000D01*
X113030000Y-86110000D01*
X112691325Y-86177367D01*
X112517440Y-86293553D01*
X112517440Y-86060000D01*
X112473162Y-85824683D01*
X112334090Y-85608559D01*
X112121890Y-85463569D01*
X111870000Y-85412560D01*
X111478316Y-85412560D01*
X111660551Y-85230643D01*
X111894733Y-84666670D01*
X111895265Y-84056009D01*
X111662068Y-83491629D01*
X111230643Y-83059449D01*
X110666670Y-82825267D01*
X110056009Y-82824735D01*
X109491629Y-83057932D01*
X109059449Y-83489357D01*
X108825267Y-84053330D01*
X108824735Y-84663991D01*
X109057932Y-85228371D01*
X109489357Y-85660551D01*
X109871331Y-85819161D01*
X109822560Y-86060000D01*
X109822560Y-89260000D01*
X109866838Y-89495317D01*
X110005910Y-89711441D01*
X110218110Y-89856431D01*
X110470000Y-89907440D01*
X111870000Y-89907440D01*
X112105317Y-89863162D01*
X112321441Y-89724090D01*
X112466431Y-89511890D01*
X112517440Y-89260000D01*
X112517440Y-88515673D01*
X112652484Y-88488810D01*
X112708675Y-88477633D01*
X112995790Y-88285790D01*
X113401579Y-87880000D01*
X134753420Y-87880000D01*
X134735860Y-87897560D01*
X134540000Y-87897560D01*
X134304683Y-87941838D01*
X134088559Y-88080910D01*
X133943569Y-88293110D01*
X133892560Y-88545000D01*
X133892560Y-89445000D01*
X133936838Y-89680317D01*
X134075910Y-89896441D01*
X134288110Y-90041431D01*
X134540000Y-90092440D01*
X135340000Y-90092440D01*
X135575317Y-90048162D01*
X135791441Y-89909090D01*
X135890633Y-89763917D01*
X135975910Y-89896441D01*
X136188110Y-90041431D01*
X136440000Y-90092440D01*
X136503436Y-90092440D01*
X122017599Y-104578277D01*
X121852852Y-104824839D01*
X121795000Y-105115678D01*
X121795000Y-108905198D01*
X120970198Y-109730000D01*
X120919914Y-109730000D01*
X120962440Y-109520000D01*
X120962440Y-108920000D01*
X120918162Y-108684683D01*
X120779090Y-108468559D01*
X120566890Y-108323569D01*
X120315000Y-108272560D01*
X118765000Y-108272560D01*
X118529683Y-108316838D01*
X118313559Y-108455910D01*
X118168569Y-108668110D01*
X118117560Y-108920000D01*
X118117560Y-109520000D01*
X118161838Y-109755317D01*
X118225678Y-109854528D01*
X118168569Y-109938110D01*
X118148029Y-110039539D01*
X118119574Y-109896484D01*
X117819343Y-109447157D01*
X116234815Y-107862629D01*
X116329698Y-107823327D01*
X116508327Y-107644699D01*
X116605000Y-107411310D01*
X116605000Y-107195750D01*
X116446250Y-107037000D01*
X115697000Y-107037000D01*
X115697000Y-107057000D01*
X115525000Y-107057000D01*
X115525000Y-106520000D01*
X115517254Y-106481060D01*
X115443000Y-106107755D01*
X115443000Y-106058750D01*
X115697000Y-106058750D01*
X115697000Y-106783000D01*
X116446250Y-106783000D01*
X116605000Y-106624250D01*
X116605000Y-106408690D01*
X116508327Y-106175301D01*
X116329698Y-105996673D01*
X116096309Y-105900000D01*
X115855750Y-105900000D01*
X115697000Y-106058750D01*
X115443000Y-106058750D01*
X115430832Y-106046582D01*
X115419574Y-105989984D01*
X115119343Y-105540657D01*
X114820000Y-105241314D01*
X114820000Y-100475000D01*
X114714573Y-99944983D01*
X114414343Y-99495657D01*
X114010000Y-99091314D01*
X114010000Y-95250000D01*
X113904573Y-94719983D01*
X113604343Y-94270657D01*
X113155017Y-93970427D01*
X112625000Y-93865000D01*
X112094983Y-93970427D01*
X111798795Y-94168333D01*
X111502607Y-93970427D01*
X110972590Y-93865000D01*
X110721223Y-93915000D01*
X108727414Y-93915000D01*
X108699100Y-93903243D01*
X108143339Y-93902758D01*
X107629697Y-94114990D01*
X107236371Y-94507630D01*
X107023243Y-95020900D01*
X107022758Y-95576661D01*
X107234990Y-96090303D01*
X107627630Y-96483629D01*
X107835512Y-96569949D01*
X107629697Y-96654990D01*
X107236371Y-97047630D01*
X107023243Y-97560900D01*
X107022758Y-98116661D01*
X107234990Y-98630303D01*
X107627630Y-99023629D01*
X107835512Y-99109949D01*
X107629697Y-99194990D01*
X107236371Y-99587630D01*
X107023243Y-100100900D01*
X107022758Y-100656661D01*
X107234990Y-101170303D01*
X107627630Y-101563629D01*
X107835512Y-101649949D01*
X107629697Y-101734990D01*
X107236371Y-102127630D01*
X107023243Y-102640900D01*
X107022758Y-103196661D01*
X107234990Y-103710303D01*
X107627630Y-104103629D01*
X107835512Y-104189949D01*
X107629697Y-104274990D01*
X107236371Y-104667630D01*
X107023243Y-105180900D01*
X107022758Y-105736661D01*
X107234990Y-106250303D01*
X107627630Y-106643629D01*
X107657237Y-106655923D01*
X107752539Y-106751225D01*
X107688857Y-106777603D01*
X107619392Y-107019787D01*
X108420000Y-107820395D01*
X108434143Y-107806253D01*
X108613748Y-107985858D01*
X108599605Y-108000000D01*
X109400213Y-108800608D01*
X109642397Y-108731143D01*
X109829144Y-108207698D01*
X109801362Y-107652632D01*
X109642397Y-107268857D01*
X109402333Y-107200000D01*
X112742685Y-107200000D01*
X112755000Y-107261913D01*
X112755000Y-107835000D01*
X112135000Y-107835000D01*
X112135000Y-107600750D01*
X111976250Y-107442000D01*
X111252000Y-107442000D01*
X111252000Y-107462000D01*
X110998000Y-107462000D01*
X110998000Y-107442000D01*
X110273750Y-107442000D01*
X110115000Y-107600750D01*
X110115000Y-107841309D01*
X110211673Y-108074698D01*
X110215778Y-108078803D01*
X110145657Y-108125657D01*
X109845427Y-108574984D01*
X109740000Y-109105000D01*
X109845427Y-109635016D01*
X110118827Y-110044190D01*
X110078569Y-110103110D01*
X110027560Y-110355000D01*
X110027560Y-110397638D01*
X109816941Y-110608257D01*
X109817242Y-110263339D01*
X109605010Y-109749697D01*
X109212370Y-109356371D01*
X109020273Y-109276605D01*
X109151143Y-109222397D01*
X109220608Y-108980213D01*
X108420000Y-108179605D01*
X107619392Y-108980213D01*
X107688857Y-109222397D01*
X107829318Y-109272509D01*
X107629697Y-109354990D01*
X107236371Y-109747630D01*
X107023243Y-110260900D01*
X107022758Y-110816661D01*
X107036143Y-110849055D01*
X106142599Y-111742599D01*
X105977852Y-111989161D01*
X105930000Y-112229727D01*
X105930000Y-107792302D01*
X107010856Y-107792302D01*
X107038638Y-108347368D01*
X107197603Y-108731143D01*
X107439787Y-108800608D01*
X108240395Y-108000000D01*
X107439787Y-107199392D01*
X107197603Y-107268857D01*
X107010856Y-107792302D01*
X105930000Y-107792302D01*
X105930000Y-89454999D01*
X105916838Y-89388829D01*
X105916838Y-89321363D01*
X105840718Y-88938680D01*
X105770848Y-88769999D01*
X105738437Y-88691750D01*
X105521664Y-88367327D01*
X105332672Y-88178335D01*
X105008248Y-87961562D01*
X104976880Y-87948569D01*
X104761319Y-87859281D01*
X104378636Y-87783161D01*
X104311170Y-87783161D01*
X104245000Y-87769999D01*
X103312467Y-87769999D01*
X101981541Y-87505261D01*
X100910430Y-86789567D01*
X100194739Y-85718458D01*
X99943421Y-84455000D01*
X101060000Y-84455000D01*
X101226323Y-85291163D01*
X101699972Y-86000028D01*
X102408837Y-86473677D01*
X103245000Y-86640000D01*
X104081163Y-86473677D01*
X104790028Y-86000028D01*
X105263677Y-85291163D01*
X105430000Y-84455000D01*
X105263677Y-83618837D01*
X104790028Y-82909972D01*
X104122123Y-82463691D01*
X154315000Y-82463691D01*
X154315000Y-82804250D01*
X154473750Y-82963000D01*
X155448000Y-82963000D01*
X155448000Y-82113750D01*
X155702000Y-82113750D01*
X155702000Y-82963000D01*
X156676250Y-82963000D01*
X156835000Y-82804250D01*
X156835000Y-82463691D01*
X156738327Y-82230302D01*
X156559699Y-82051673D01*
X156326310Y-81955000D01*
X155860750Y-81955000D01*
X155702000Y-82113750D01*
X155448000Y-82113750D01*
X155289250Y-81955000D01*
X154823690Y-81955000D01*
X154590301Y-82051673D01*
X154411673Y-82230302D01*
X154315000Y-82463691D01*
X104122123Y-82463691D01*
X104081163Y-82436323D01*
X103245000Y-82270000D01*
X102408837Y-82436323D01*
X101699972Y-82909972D01*
X101226323Y-83618837D01*
X101060000Y-84455000D01*
X99943421Y-84455000D01*
X100194739Y-83191542D01*
X100910430Y-82120433D01*
X101981541Y-81404739D01*
X103312467Y-81140001D01*
X180213000Y-81140001D01*
X180213000Y-83685816D01*
X180213000Y-83685816D01*
G37*
X180213000Y-83685816D02*
X180060000Y-84455000D01*
X180226323Y-85291163D01*
X180699972Y-86000028D01*
X181066598Y-86245000D01*
X179455002Y-86245000D01*
X178924985Y-86350427D01*
X178517889Y-86622440D01*
X178475659Y-86650657D01*
X178367934Y-86758382D01*
X178271513Y-86273642D01*
X178089503Y-86001245D01*
X178058162Y-85834683D01*
X177919090Y-85618559D01*
X177706890Y-85473569D01*
X177683425Y-85468817D01*
X177628258Y-85413650D01*
X177887332Y-85324179D01*
X178101325Y-84741632D01*
X178076097Y-84121539D01*
X177887332Y-83665821D01*
X177628256Y-83576349D01*
X176709605Y-84495000D01*
X176723748Y-84509143D01*
X176544143Y-84688748D01*
X176530000Y-84674605D01*
X176515858Y-84688748D01*
X176336253Y-84509143D01*
X176350395Y-84495000D01*
X175431744Y-83576349D01*
X175172668Y-83665821D01*
X174958675Y-84248368D01*
X174968612Y-84492626D01*
X174879998Y-84475000D01*
X171668022Y-84475000D01*
X171526890Y-84378569D01*
X171323091Y-84337299D01*
X171107896Y-84122104D01*
X170526597Y-83733691D01*
X172095000Y-83733691D01*
X172095000Y-84074250D01*
X172253750Y-84233000D01*
X173228000Y-84233000D01*
X173228000Y-83383750D01*
X173482000Y-83383750D01*
X173482000Y-84233000D01*
X174456250Y-84233000D01*
X174615000Y-84074250D01*
X174615000Y-83733691D01*
X174518327Y-83500302D01*
X174414770Y-83396744D01*
X175611349Y-83396744D01*
X176530000Y-84315395D01*
X177448651Y-83396744D01*
X177359179Y-83137668D01*
X176776632Y-82923675D01*
X176156539Y-82948903D01*
X175700821Y-83137668D01*
X175611349Y-83396744D01*
X174414770Y-83396744D01*
X174339699Y-83321673D01*
X174106310Y-83225000D01*
X173640750Y-83225000D01*
X173482000Y-83383750D01*
X173228000Y-83383750D01*
X173069250Y-83225000D01*
X172603690Y-83225000D01*
X172370301Y-83321673D01*
X172191673Y-83500302D01*
X172095000Y-83733691D01*
X170526597Y-83733691D01*
X170496359Y-83713487D01*
X170227039Y-83659916D01*
X170151890Y-83608569D01*
X169900000Y-83557560D01*
X168899258Y-83557560D01*
X168586359Y-83348487D01*
X167909679Y-83213887D01*
X167797896Y-83102104D01*
X167592440Y-82964822D01*
X167592440Y-82935000D01*
X167548162Y-82699683D01*
X167409090Y-82483559D01*
X167196890Y-82338569D01*
X166945000Y-82287560D01*
X165985000Y-82287560D01*
X165749683Y-82331838D01*
X165533559Y-82470910D01*
X165388569Y-82683110D01*
X165337560Y-82935000D01*
X165337560Y-82964822D01*
X165302440Y-82988289D01*
X165302440Y-82935000D01*
X165258162Y-82699683D01*
X165119090Y-82483559D01*
X164906890Y-82338569D01*
X164655000Y-82287560D01*
X164302000Y-82287560D01*
X164302000Y-83570000D01*
X164048000Y-83570000D01*
X164048000Y-82287560D01*
X163695000Y-82287560D01*
X163459683Y-82331838D01*
X163243559Y-82470910D01*
X163098569Y-82683110D01*
X163047560Y-82935000D01*
X163047560Y-83570000D01*
X163012440Y-83570000D01*
X163012440Y-82935000D01*
X162968162Y-82699683D01*
X162829090Y-82483559D01*
X162616890Y-82338569D01*
X162365000Y-82287560D01*
X162012000Y-82287560D01*
X162012000Y-83570000D01*
X161758000Y-83570000D01*
X161758000Y-82287560D01*
X161405000Y-82287560D01*
X161169683Y-82331838D01*
X160953559Y-82470910D01*
X160808569Y-82683110D01*
X160757560Y-82935000D01*
X160757560Y-83589108D01*
X160570302Y-83666673D01*
X160391673Y-83845301D01*
X160303051Y-84059253D01*
X160270000Y-84052560D01*
X159102395Y-84052560D01*
X158740017Y-83810427D01*
X158210000Y-83705000D01*
X156835000Y-83705000D01*
X156835000Y-83375750D01*
X156676250Y-83217000D01*
X155702000Y-83217000D01*
X155702000Y-83237000D01*
X155448000Y-83237000D01*
X155448000Y-83217000D01*
X154473750Y-83217000D01*
X154315000Y-83375750D01*
X154315000Y-83716309D01*
X154411673Y-83949698D01*
X154552910Y-84090936D01*
X154498559Y-84125910D01*
X154353569Y-84338110D01*
X154314384Y-84531612D01*
X154295427Y-84559983D01*
X154190000Y-85090000D01*
X154295427Y-85620017D01*
X154313218Y-85646643D01*
X154346838Y-85825317D01*
X154485910Y-86041441D01*
X154698110Y-86186431D01*
X154802542Y-86207579D01*
X155044983Y-86369573D01*
X155575000Y-86475000D01*
X156740520Y-86475000D01*
X156823110Y-86531431D01*
X157075000Y-86582440D01*
X157817300Y-86582440D01*
X157852560Y-86606000D01*
X157852560Y-88770000D01*
X157857114Y-88794200D01*
X157743754Y-88907560D01*
X157075000Y-88907560D01*
X156839683Y-88951838D01*
X156623559Y-89090910D01*
X156478569Y-89303110D01*
X156427560Y-89555000D01*
X156427560Y-90515000D01*
X156471838Y-90750317D01*
X156610910Y-90966441D01*
X156823110Y-91111431D01*
X157075000Y-91162440D01*
X157817300Y-91162440D01*
X157869861Y-91197560D01*
X157075000Y-91197560D01*
X156839683Y-91241838D01*
X156623559Y-91380910D01*
X156478569Y-91593110D01*
X156427560Y-91845000D01*
X156427560Y-92805000D01*
X156445518Y-92900439D01*
X152200290Y-88655210D01*
X152131645Y-88609343D01*
X151913175Y-88463367D01*
X151856984Y-88452190D01*
X151574500Y-88395999D01*
X151574495Y-88396000D01*
X147365853Y-88396000D01*
X147366162Y-88041012D01*
X147340232Y-87978257D01*
X147345302Y-87983327D01*
X147578691Y-88080000D01*
X147671250Y-88080000D01*
X147830000Y-87921250D01*
X147830000Y-87122000D01*
X148080000Y-87122000D01*
X148080000Y-87921250D01*
X148238750Y-88080000D01*
X148331309Y-88080000D01*
X148564698Y-87983327D01*
X148743327Y-87804699D01*
X148840000Y-87571310D01*
X148840000Y-87280750D01*
X148681250Y-87122000D01*
X148080000Y-87122000D01*
X147830000Y-87122000D01*
X147808000Y-87122000D01*
X147808000Y-86868000D01*
X147830000Y-86868000D01*
X147830000Y-86848000D01*
X148080000Y-86848000D01*
X148080000Y-86868000D01*
X148681250Y-86868000D01*
X148840000Y-86709250D01*
X148840000Y-86418690D01*
X148743327Y-86185301D01*
X148599047Y-86041022D01*
X148656441Y-86004090D01*
X148729772Y-85896766D01*
X149038201Y-86024838D01*
X149410167Y-86025162D01*
X149753943Y-85883117D01*
X150017192Y-85620327D01*
X150159838Y-85276799D01*
X150160162Y-84904833D01*
X150018117Y-84561057D01*
X149755327Y-84297808D01*
X149411799Y-84155162D01*
X149039833Y-84154838D01*
X148729818Y-84282933D01*
X148669090Y-84188559D01*
X148456890Y-84043569D01*
X148205000Y-83992560D01*
X147705000Y-83992560D01*
X147469683Y-84036838D01*
X147253559Y-84175910D01*
X147205866Y-84245711D01*
X147169090Y-84188559D01*
X146956890Y-84043569D01*
X146705000Y-83992560D01*
X146205000Y-83992560D01*
X145969683Y-84036838D01*
X145753559Y-84175910D01*
X145608569Y-84388110D01*
X145557560Y-84640000D01*
X145557560Y-85540000D01*
X145601838Y-85775317D01*
X145695000Y-85920095D01*
X145695000Y-86166614D01*
X145608569Y-86293110D01*
X145557560Y-86545000D01*
X145557560Y-87445000D01*
X145601838Y-87680317D01*
X145628229Y-87721329D01*
X145496162Y-88039380D01*
X145495851Y-88396000D01*
X140447579Y-88396000D01*
X139470790Y-87419210D01*
X139350260Y-87338675D01*
X139183675Y-87227367D01*
X139127484Y-87216190D01*
X138845000Y-87159999D01*
X138844995Y-87160000D01*
X136937440Y-87160000D01*
X136937440Y-86545000D01*
X136893162Y-86309683D01*
X136754090Y-86093559D01*
X136541890Y-85948569D01*
X136290000Y-85897560D01*
X135490000Y-85897560D01*
X135254683Y-85941838D01*
X135038559Y-86080910D01*
X135018683Y-86110000D01*
X113030000Y-86110000D01*
X112691325Y-86177367D01*
X112517440Y-86293553D01*
X112517440Y-86060000D01*
X112473162Y-85824683D01*
X112334090Y-85608559D01*
X112121890Y-85463569D01*
X111870000Y-85412560D01*
X111478316Y-85412560D01*
X111660551Y-85230643D01*
X111894733Y-84666670D01*
X111895265Y-84056009D01*
X111662068Y-83491629D01*
X111230643Y-83059449D01*
X110666670Y-82825267D01*
X110056009Y-82824735D01*
X109491629Y-83057932D01*
X109059449Y-83489357D01*
X108825267Y-84053330D01*
X108824735Y-84663991D01*
X109057932Y-85228371D01*
X109489357Y-85660551D01*
X109871331Y-85819161D01*
X109822560Y-86060000D01*
X109822560Y-89260000D01*
X109866838Y-89495317D01*
X110005910Y-89711441D01*
X110218110Y-89856431D01*
X110470000Y-89907440D01*
X111870000Y-89907440D01*
X112105317Y-89863162D01*
X112321441Y-89724090D01*
X112466431Y-89511890D01*
X112517440Y-89260000D01*
X112517440Y-88515673D01*
X112652484Y-88488810D01*
X112708675Y-88477633D01*
X112995790Y-88285790D01*
X113401579Y-87880000D01*
X134753420Y-87880000D01*
X134735860Y-87897560D01*
X134540000Y-87897560D01*
X134304683Y-87941838D01*
X134088559Y-88080910D01*
X133943569Y-88293110D01*
X133892560Y-88545000D01*
X133892560Y-89445000D01*
X133936838Y-89680317D01*
X134075910Y-89896441D01*
X134288110Y-90041431D01*
X134540000Y-90092440D01*
X135340000Y-90092440D01*
X135575317Y-90048162D01*
X135791441Y-89909090D01*
X135890633Y-89763917D01*
X135975910Y-89896441D01*
X136188110Y-90041431D01*
X136440000Y-90092440D01*
X136503436Y-90092440D01*
X122017599Y-104578277D01*
X121852852Y-104824839D01*
X121795000Y-105115678D01*
X121795000Y-108905198D01*
X120970198Y-109730000D01*
X120919914Y-109730000D01*
X120962440Y-109520000D01*
X120962440Y-108920000D01*
X120918162Y-108684683D01*
X120779090Y-108468559D01*
X120566890Y-108323569D01*
X120315000Y-108272560D01*
X118765000Y-108272560D01*
X118529683Y-108316838D01*
X118313559Y-108455910D01*
X118168569Y-108668110D01*
X118117560Y-108920000D01*
X118117560Y-109520000D01*
X118161838Y-109755317D01*
X118225678Y-109854528D01*
X118168569Y-109938110D01*
X118148029Y-110039539D01*
X118119574Y-109896484D01*
X117819343Y-109447157D01*
X116234815Y-107862629D01*
X116329698Y-107823327D01*
X116508327Y-107644699D01*
X116605000Y-107411310D01*
X116605000Y-107195750D01*
X116446250Y-107037000D01*
X115697000Y-107037000D01*
X115697000Y-107057000D01*
X115525000Y-107057000D01*
X115525000Y-106520000D01*
X115517254Y-106481060D01*
X115443000Y-106107755D01*
X115443000Y-106058750D01*
X115697000Y-106058750D01*
X115697000Y-106783000D01*
X116446250Y-106783000D01*
X116605000Y-106624250D01*
X116605000Y-106408690D01*
X116508327Y-106175301D01*
X116329698Y-105996673D01*
X116096309Y-105900000D01*
X115855750Y-105900000D01*
X115697000Y-106058750D01*
X115443000Y-106058750D01*
X115430832Y-106046582D01*
X115419574Y-105989984D01*
X115119343Y-105540657D01*
X114820000Y-105241314D01*
X114820000Y-100475000D01*
X114714573Y-99944983D01*
X114414343Y-99495657D01*
X114010000Y-99091314D01*
X114010000Y-95250000D01*
X113904573Y-94719983D01*
X113604343Y-94270657D01*
X113155017Y-93970427D01*
X112625000Y-93865000D01*
X112094983Y-93970427D01*
X111798795Y-94168333D01*
X111502607Y-93970427D01*
X110972590Y-93865000D01*
X110721223Y-93915000D01*
X108727414Y-93915000D01*
X108699100Y-93903243D01*
X108143339Y-93902758D01*
X107629697Y-94114990D01*
X107236371Y-94507630D01*
X107023243Y-95020900D01*
X107022758Y-95576661D01*
X107234990Y-96090303D01*
X107627630Y-96483629D01*
X107835512Y-96569949D01*
X107629697Y-96654990D01*
X107236371Y-97047630D01*
X107023243Y-97560900D01*
X107022758Y-98116661D01*
X107234990Y-98630303D01*
X107627630Y-99023629D01*
X107835512Y-99109949D01*
X107629697Y-99194990D01*
X107236371Y-99587630D01*
X107023243Y-100100900D01*
X107022758Y-100656661D01*
X107234990Y-101170303D01*
X107627630Y-101563629D01*
X107835512Y-101649949D01*
X107629697Y-101734990D01*
X107236371Y-102127630D01*
X107023243Y-102640900D01*
X107022758Y-103196661D01*
X107234990Y-103710303D01*
X107627630Y-104103629D01*
X107835512Y-104189949D01*
X107629697Y-104274990D01*
X107236371Y-104667630D01*
X107023243Y-105180900D01*
X107022758Y-105736661D01*
X107234990Y-106250303D01*
X107627630Y-106643629D01*
X107657237Y-106655923D01*
X107752539Y-106751225D01*
X107688857Y-106777603D01*
X107619392Y-107019787D01*
X108420000Y-107820395D01*
X108434143Y-107806253D01*
X108613748Y-107985858D01*
X108599605Y-108000000D01*
X109400213Y-108800608D01*
X109642397Y-108731143D01*
X109829144Y-108207698D01*
X109801362Y-107652632D01*
X109642397Y-107268857D01*
X109402333Y-107200000D01*
X112742685Y-107200000D01*
X112755000Y-107261913D01*
X112755000Y-107835000D01*
X112135000Y-107835000D01*
X112135000Y-107600750D01*
X111976250Y-107442000D01*
X111252000Y-107442000D01*
X111252000Y-107462000D01*
X110998000Y-107462000D01*
X110998000Y-107442000D01*
X110273750Y-107442000D01*
X110115000Y-107600750D01*
X110115000Y-107841309D01*
X110211673Y-108074698D01*
X110215778Y-108078803D01*
X110145657Y-108125657D01*
X109845427Y-108574984D01*
X109740000Y-109105000D01*
X109845427Y-109635016D01*
X110118827Y-110044190D01*
X110078569Y-110103110D01*
X110027560Y-110355000D01*
X110027560Y-110397638D01*
X109816941Y-110608257D01*
X109817242Y-110263339D01*
X109605010Y-109749697D01*
X109212370Y-109356371D01*
X109020273Y-109276605D01*
X109151143Y-109222397D01*
X109220608Y-108980213D01*
X108420000Y-108179605D01*
X107619392Y-108980213D01*
X107688857Y-109222397D01*
X107829318Y-109272509D01*
X107629697Y-109354990D01*
X107236371Y-109747630D01*
X107023243Y-110260900D01*
X107022758Y-110816661D01*
X107036143Y-110849055D01*
X106142599Y-111742599D01*
X105977852Y-111989161D01*
X105930000Y-112229727D01*
X105930000Y-107792302D01*
X107010856Y-107792302D01*
X107038638Y-108347368D01*
X107197603Y-108731143D01*
X107439787Y-108800608D01*
X108240395Y-108000000D01*
X107439787Y-107199392D01*
X107197603Y-107268857D01*
X107010856Y-107792302D01*
X105930000Y-107792302D01*
X105930000Y-89454999D01*
X105916838Y-89388829D01*
X105916838Y-89321363D01*
X105840718Y-88938680D01*
X105770848Y-88769999D01*
X105738437Y-88691750D01*
X105521664Y-88367327D01*
X105332672Y-88178335D01*
X105008248Y-87961562D01*
X104976880Y-87948569D01*
X104761319Y-87859281D01*
X104378636Y-87783161D01*
X104311170Y-87783161D01*
X104245000Y-87769999D01*
X103312467Y-87769999D01*
X101981541Y-87505261D01*
X100910430Y-86789567D01*
X100194739Y-85718458D01*
X99943421Y-84455000D01*
X101060000Y-84455000D01*
X101226323Y-85291163D01*
X101699972Y-86000028D01*
X102408837Y-86473677D01*
X103245000Y-86640000D01*
X104081163Y-86473677D01*
X104790028Y-86000028D01*
X105263677Y-85291163D01*
X105430000Y-84455000D01*
X105263677Y-83618837D01*
X104790028Y-82909972D01*
X104122123Y-82463691D01*
X154315000Y-82463691D01*
X154315000Y-82804250D01*
X154473750Y-82963000D01*
X155448000Y-82963000D01*
X155448000Y-82113750D01*
X155702000Y-82113750D01*
X155702000Y-82963000D01*
X156676250Y-82963000D01*
X156835000Y-82804250D01*
X156835000Y-82463691D01*
X156738327Y-82230302D01*
X156559699Y-82051673D01*
X156326310Y-81955000D01*
X155860750Y-81955000D01*
X155702000Y-82113750D01*
X155448000Y-82113750D01*
X155289250Y-81955000D01*
X154823690Y-81955000D01*
X154590301Y-82051673D01*
X154411673Y-82230302D01*
X154315000Y-82463691D01*
X104122123Y-82463691D01*
X104081163Y-82436323D01*
X103245000Y-82270000D01*
X102408837Y-82436323D01*
X101699972Y-82909972D01*
X101226323Y-83618837D01*
X101060000Y-84455000D01*
X99943421Y-84455000D01*
X100194739Y-83191542D01*
X100910430Y-82120433D01*
X101981541Y-81404739D01*
X103312467Y-81140001D01*
X180213000Y-81140001D01*
X180213000Y-83685816D01*
G36*
X144018000Y-111672500D02*
X144038000Y-111672500D01*
X144038000Y-111926500D01*
X144018000Y-111926500D01*
X144018000Y-111946500D01*
X143764000Y-111946500D01*
X143764000Y-111926500D01*
X143744000Y-111926500D01*
X143744000Y-111672500D01*
X143764000Y-111672500D01*
X143764000Y-111652500D01*
X144018000Y-111652500D01*
X144018000Y-111672500D01*
X144018000Y-111672500D01*
G37*
X144018000Y-111672500D02*
X144038000Y-111672500D01*
X144038000Y-111926500D01*
X144018000Y-111926500D01*
X144018000Y-111946500D01*
X143764000Y-111946500D01*
X143764000Y-111926500D01*
X143744000Y-111926500D01*
X143744000Y-111672500D01*
X143764000Y-111672500D01*
X143764000Y-111652500D01*
X144018000Y-111652500D01*
X144018000Y-111672500D01*
G36*
X149990701Y-110535838D02*
X150145979Y-110535973D01*
X150120000Y-110598691D01*
X150120000Y-110839250D01*
X150278750Y-110998000D01*
X151003000Y-110998000D01*
X151003000Y-110978000D01*
X151257000Y-110978000D01*
X151257000Y-110998000D01*
X151789250Y-110998000D01*
X151854750Y-111063500D01*
X152654000Y-111063500D01*
X152654000Y-111041500D01*
X152908000Y-111041500D01*
X152908000Y-111063500D01*
X152928000Y-111063500D01*
X152928000Y-111313500D01*
X152908000Y-111313500D01*
X152908000Y-111335500D01*
X152654000Y-111335500D01*
X152654000Y-111313500D01*
X152042750Y-111313500D01*
X151981250Y-111252000D01*
X151257000Y-111252000D01*
X151257000Y-111272000D01*
X151003000Y-111272000D01*
X151003000Y-111252000D01*
X150278750Y-111252000D01*
X150120000Y-111410750D01*
X150120000Y-111651309D01*
X150167507Y-111766000D01*
X149968691Y-111766000D01*
X149735302Y-111862673D01*
X149733932Y-111864043D01*
X149646890Y-111804569D01*
X149395000Y-111753560D01*
X148987006Y-111753560D01*
X148944965Y-111711519D01*
X149141441Y-111585090D01*
X149286431Y-111372890D01*
X149337440Y-111121000D01*
X149337440Y-111118440D01*
X149340000Y-111118440D01*
X149575317Y-111074162D01*
X149791441Y-110935090D01*
X149936431Y-110722890D01*
X149975581Y-110529560D01*
X149990701Y-110535838D01*
X149990701Y-110535838D01*
G37*
X149990701Y-110535838D02*
X150145979Y-110535973D01*
X150120000Y-110598691D01*
X150120000Y-110839250D01*
X150278750Y-110998000D01*
X151003000Y-110998000D01*
X151003000Y-110978000D01*
X151257000Y-110978000D01*
X151257000Y-110998000D01*
X151789250Y-110998000D01*
X151854750Y-111063500D01*
X152654000Y-111063500D01*
X152654000Y-111041500D01*
X152908000Y-111041500D01*
X152908000Y-111063500D01*
X152928000Y-111063500D01*
X152928000Y-111313500D01*
X152908000Y-111313500D01*
X152908000Y-111335500D01*
X152654000Y-111335500D01*
X152654000Y-111313500D01*
X152042750Y-111313500D01*
X151981250Y-111252000D01*
X151257000Y-111252000D01*
X151257000Y-111272000D01*
X151003000Y-111272000D01*
X151003000Y-111252000D01*
X150278750Y-111252000D01*
X150120000Y-111410750D01*
X150120000Y-111651309D01*
X150167507Y-111766000D01*
X149968691Y-111766000D01*
X149735302Y-111862673D01*
X149733932Y-111864043D01*
X149646890Y-111804569D01*
X149395000Y-111753560D01*
X148987006Y-111753560D01*
X148944965Y-111711519D01*
X149141441Y-111585090D01*
X149286431Y-111372890D01*
X149337440Y-111121000D01*
X149337440Y-111118440D01*
X149340000Y-111118440D01*
X149575317Y-111074162D01*
X149791441Y-110935090D01*
X149936431Y-110722890D01*
X149975581Y-110529560D01*
X149990701Y-110535838D01*
G36*
X142881000Y-111273191D02*
X142881000Y-111513750D01*
X143039748Y-111672498D01*
X142949719Y-111672498D01*
X142770017Y-111552425D01*
X142553002Y-111509258D01*
X142553002Y-111184500D01*
X142917737Y-111184500D01*
X142881000Y-111273191D01*
X142881000Y-111273191D01*
G37*
X142881000Y-111273191D02*
X142881000Y-111513750D01*
X143039748Y-111672498D01*
X142949719Y-111672498D01*
X142770017Y-111552425D01*
X142553002Y-111509258D01*
X142553002Y-111184500D01*
X142917737Y-111184500D01*
X142881000Y-111273191D01*
G36*
X138557000Y-91313000D02*
X138577000Y-91313000D01*
X138577000Y-91567000D01*
X138557000Y-91567000D01*
X138557000Y-92766250D01*
X138715750Y-92925000D01*
X139406310Y-92925000D01*
X139639699Y-92828327D01*
X139818327Y-92649698D01*
X139890597Y-92475223D01*
X139919946Y-92519147D01*
X140401715Y-92841054D01*
X140970000Y-92954093D01*
X141538285Y-92841054D01*
X141755000Y-92696250D01*
X141755000Y-96039698D01*
X140698622Y-94983320D01*
X140698662Y-94937833D01*
X140556617Y-94594057D01*
X140293827Y-94330808D01*
X139950299Y-94188162D01*
X139578333Y-94187838D01*
X139234557Y-94329883D01*
X138971308Y-94592673D01*
X138828662Y-94936201D01*
X138828338Y-95308167D01*
X138970383Y-95651943D01*
X139233173Y-95915192D01*
X139576701Y-96057838D01*
X139623577Y-96057879D01*
X140786198Y-97220500D01*
X135817463Y-97220500D01*
X135785327Y-97188308D01*
X135441799Y-97045662D01*
X135069833Y-97045338D01*
X134726057Y-97187383D01*
X134462808Y-97450173D01*
X134320162Y-97793701D01*
X134319838Y-98165667D01*
X134461883Y-98509443D01*
X134724673Y-98772692D01*
X135068201Y-98915338D01*
X135440167Y-98915662D01*
X135783943Y-98773617D01*
X135817118Y-98740500D01*
X140038833Y-98740500D01*
X140038726Y-98862953D01*
X140180771Y-99206729D01*
X140201231Y-99227224D01*
X140163137Y-99318964D01*
X140163132Y-99325000D01*
X135500000Y-99325000D01*
X135209160Y-99382852D01*
X135191064Y-99394944D01*
X135069833Y-99394838D01*
X134726057Y-99536883D01*
X134462808Y-99799673D01*
X134320162Y-100143201D01*
X134319838Y-100515167D01*
X134461883Y-100858943D01*
X134724673Y-101122192D01*
X135068201Y-101264838D01*
X135440167Y-101265162D01*
X135783943Y-101123117D01*
X136047192Y-100860327D01*
X136053556Y-100845000D01*
X136601108Y-100845000D01*
X126446108Y-111000000D01*
X121849802Y-111000000D01*
X123092401Y-109757401D01*
X123257148Y-109510840D01*
X123315000Y-109220000D01*
X123315000Y-105430480D01*
X136945000Y-91800480D01*
X136945000Y-92416309D01*
X137041673Y-92649698D01*
X137220301Y-92828327D01*
X137453690Y-92925000D01*
X138144250Y-92925000D01*
X138303000Y-92766250D01*
X138303000Y-91567000D01*
X138283000Y-91567000D01*
X138283000Y-91313000D01*
X138303000Y-91313000D01*
X138303000Y-91293000D01*
X138557000Y-91293000D01*
X138557000Y-91313000D01*
X138557000Y-91313000D01*
G37*
X138557000Y-91313000D02*
X138577000Y-91313000D01*
X138577000Y-91567000D01*
X138557000Y-91567000D01*
X138557000Y-92766250D01*
X138715750Y-92925000D01*
X139406310Y-92925000D01*
X139639699Y-92828327D01*
X139818327Y-92649698D01*
X139890597Y-92475223D01*
X139919946Y-92519147D01*
X140401715Y-92841054D01*
X140970000Y-92954093D01*
X141538285Y-92841054D01*
X141755000Y-92696250D01*
X141755000Y-96039698D01*
X140698622Y-94983320D01*
X140698662Y-94937833D01*
X140556617Y-94594057D01*
X140293827Y-94330808D01*
X139950299Y-94188162D01*
X139578333Y-94187838D01*
X139234557Y-94329883D01*
X138971308Y-94592673D01*
X138828662Y-94936201D01*
X138828338Y-95308167D01*
X138970383Y-95651943D01*
X139233173Y-95915192D01*
X139576701Y-96057838D01*
X139623577Y-96057879D01*
X140786198Y-97220500D01*
X135817463Y-97220500D01*
X135785327Y-97188308D01*
X135441799Y-97045662D01*
X135069833Y-97045338D01*
X134726057Y-97187383D01*
X134462808Y-97450173D01*
X134320162Y-97793701D01*
X134319838Y-98165667D01*
X134461883Y-98509443D01*
X134724673Y-98772692D01*
X135068201Y-98915338D01*
X135440167Y-98915662D01*
X135783943Y-98773617D01*
X135817118Y-98740500D01*
X140038833Y-98740500D01*
X140038726Y-98862953D01*
X140180771Y-99206729D01*
X140201231Y-99227224D01*
X140163137Y-99318964D01*
X140163132Y-99325000D01*
X135500000Y-99325000D01*
X135209160Y-99382852D01*
X135191064Y-99394944D01*
X135069833Y-99394838D01*
X134726057Y-99536883D01*
X134462808Y-99799673D01*
X134320162Y-100143201D01*
X134319838Y-100515167D01*
X134461883Y-100858943D01*
X134724673Y-101122192D01*
X135068201Y-101264838D01*
X135440167Y-101265162D01*
X135783943Y-101123117D01*
X136047192Y-100860327D01*
X136053556Y-100845000D01*
X136601108Y-100845000D01*
X126446108Y-111000000D01*
X121849802Y-111000000D01*
X123092401Y-109757401D01*
X123257148Y-109510840D01*
X123315000Y-109220000D01*
X123315000Y-105430480D01*
X136945000Y-91800480D01*
X136945000Y-92416309D01*
X137041673Y-92649698D01*
X137220301Y-92828327D01*
X137453690Y-92925000D01*
X138144250Y-92925000D01*
X138303000Y-92766250D01*
X138303000Y-91567000D01*
X138283000Y-91567000D01*
X138283000Y-91313000D01*
X138303000Y-91313000D01*
X138303000Y-91293000D01*
X138557000Y-91293000D01*
X138557000Y-91313000D01*
G36*
X156730000Y-109508316D02*
X155566537Y-110671779D01*
X155473090Y-110526559D01*
X155403289Y-110478866D01*
X155460441Y-110442090D01*
X155605431Y-110229890D01*
X155656440Y-109978000D01*
X155656440Y-109478000D01*
X155612162Y-109242683D01*
X155473090Y-109026559D01*
X155346407Y-108940000D01*
X156730000Y-108940000D01*
X156730000Y-109508316D01*
X156730000Y-109508316D01*
G37*
X156730000Y-109508316D02*
X155566537Y-110671779D01*
X155473090Y-110526559D01*
X155403289Y-110478866D01*
X155460441Y-110442090D01*
X155605431Y-110229890D01*
X155656440Y-109978000D01*
X155656440Y-109478000D01*
X155612162Y-109242683D01*
X155473090Y-109026559D01*
X155346407Y-108940000D01*
X156730000Y-108940000D01*
X156730000Y-109508316D01*
G36*
X146152998Y-105467500D02*
X146194583Y-105467500D01*
X146194338Y-105748650D01*
X146336383Y-106092426D01*
X146369500Y-106125601D01*
X146369500Y-106426000D01*
X146427352Y-106716839D01*
X146592099Y-106963401D01*
X146602258Y-106973560D01*
X146490000Y-106973560D01*
X146254683Y-107017838D01*
X146038559Y-107156910D01*
X145893569Y-107369110D01*
X145842560Y-107621000D01*
X145842560Y-107672310D01*
X145806250Y-107636000D01*
X145748921Y-107636000D01*
X145750440Y-107628500D01*
X145750440Y-107128500D01*
X145706162Y-106893183D01*
X145567090Y-106677059D01*
X145497289Y-106629366D01*
X145554441Y-106592590D01*
X145699431Y-106380390D01*
X145750440Y-106128500D01*
X145750440Y-105628500D01*
X145717310Y-105452431D01*
X145753691Y-105467500D01*
X145994250Y-105467500D01*
X146152998Y-105308752D01*
X146152998Y-105467500D01*
X146152998Y-105467500D01*
G37*
X146152998Y-105467500D02*
X146194583Y-105467500D01*
X146194338Y-105748650D01*
X146336383Y-106092426D01*
X146369500Y-106125601D01*
X146369500Y-106426000D01*
X146427352Y-106716839D01*
X146592099Y-106963401D01*
X146602258Y-106973560D01*
X146490000Y-106973560D01*
X146254683Y-107017838D01*
X146038559Y-107156910D01*
X145893569Y-107369110D01*
X145842560Y-107621000D01*
X145842560Y-107672310D01*
X145806250Y-107636000D01*
X145748921Y-107636000D01*
X145750440Y-107628500D01*
X145750440Y-107128500D01*
X145706162Y-106893183D01*
X145567090Y-106677059D01*
X145497289Y-106629366D01*
X145554441Y-106592590D01*
X145699431Y-106380390D01*
X145750440Y-106128500D01*
X145750440Y-105628500D01*
X145717310Y-105452431D01*
X145753691Y-105467500D01*
X145994250Y-105467500D01*
X146152998Y-105308752D01*
X146152998Y-105467500D01*
G36*
X156730000Y-107420000D02*
X153896176Y-107420000D01*
X153936441Y-107394090D01*
X154081431Y-107181890D01*
X154132440Y-106930000D01*
X154132440Y-106430000D01*
X154088162Y-106194683D01*
X154065844Y-106160000D01*
X156730000Y-106160000D01*
X156730000Y-107420000D01*
X156730000Y-107420000D01*
G37*
X156730000Y-107420000D02*
X153896176Y-107420000D01*
X153936441Y-107394090D01*
X154081431Y-107181890D01*
X154132440Y-106930000D01*
X154132440Y-106430000D01*
X154088162Y-106194683D01*
X154065844Y-106160000D01*
X156730000Y-106160000D01*
X156730000Y-107420000D01*
G36*
X148590000Y-104140000D02*
X149891314Y-104140000D01*
X150401314Y-104650000D01*
X149600000Y-104650000D01*
X149600000Y-104540750D01*
X149441250Y-104382000D01*
X148717000Y-104382000D01*
X148717000Y-104402000D01*
X148463000Y-104402000D01*
X148463000Y-104382000D01*
X148443000Y-104382000D01*
X148443000Y-104128000D01*
X148463000Y-104128000D01*
X148463000Y-104114738D01*
X148590000Y-104140000D01*
X148590000Y-104140000D01*
G37*
X148590000Y-104140000D02*
X149891314Y-104140000D01*
X150401314Y-104650000D01*
X149600000Y-104650000D01*
X149600000Y-104540750D01*
X149441250Y-104382000D01*
X148717000Y-104382000D01*
X148717000Y-104402000D01*
X148463000Y-104402000D01*
X148463000Y-104382000D01*
X148443000Y-104382000D01*
X148443000Y-104128000D01*
X148463000Y-104128000D01*
X148463000Y-104114738D01*
X148590000Y-104140000D01*
G36*
X146407000Y-104330500D02*
X146427000Y-104330500D01*
X146427000Y-104584500D01*
X146407000Y-104584500D01*
X146407000Y-104604500D01*
X146153000Y-104604500D01*
X146153000Y-104584500D01*
X146133000Y-104584500D01*
X146133000Y-104330500D01*
X146153000Y-104330500D01*
X146153000Y-104311055D01*
X146154343Y-104310500D01*
X146407000Y-104310500D01*
X146407000Y-104330500D01*
X146407000Y-104330500D01*
G37*
X146407000Y-104330500D02*
X146427000Y-104330500D01*
X146427000Y-104584500D01*
X146407000Y-104584500D01*
X146407000Y-104604500D01*
X146153000Y-104604500D01*
X146153000Y-104584500D01*
X146133000Y-104584500D01*
X146133000Y-104330500D01*
X146153000Y-104330500D01*
X146153000Y-104311055D01*
X146154343Y-104310500D01*
X146407000Y-104310500D01*
X146407000Y-104330500D01*
G36*
X141732000Y-104330500D02*
X141752000Y-104330500D01*
X141752000Y-104584500D01*
X141732000Y-104584500D01*
X141732000Y-104604500D01*
X141478000Y-104604500D01*
X141478000Y-104584500D01*
X141458000Y-104584500D01*
X141458000Y-104330500D01*
X141478000Y-104330500D01*
X141478000Y-104310500D01*
X141732000Y-104310500D01*
X141732000Y-104330500D01*
X141732000Y-104330500D01*
G37*
X141732000Y-104330500D02*
X141752000Y-104330500D01*
X141752000Y-104584500D01*
X141732000Y-104584500D01*
X141732000Y-104604500D01*
X141478000Y-104604500D01*
X141478000Y-104584500D01*
X141458000Y-104584500D01*
X141458000Y-104330500D01*
X141478000Y-104330500D01*
X141478000Y-104310500D01*
X141732000Y-104310500D01*
X141732000Y-104330500D01*
G36*
X157779867Y-98071447D02*
X157135657Y-98715657D01*
X156835427Y-99164983D01*
X156730000Y-99695000D01*
X156730000Y-103390000D01*
X153960948Y-103390000D01*
X154250157Y-103100791D01*
X154385242Y-102903088D01*
X154411291Y-102783007D01*
X154413632Y-102783007D01*
X154647021Y-102686335D01*
X154817122Y-102516234D01*
X154817122Y-102291727D01*
X154305000Y-101779605D01*
X154290858Y-101793748D01*
X154111253Y-101614143D01*
X154125395Y-101600000D01*
X154484605Y-101600000D01*
X154996727Y-102112122D01*
X155221234Y-102112122D01*
X155391335Y-101942021D01*
X155488007Y-101708632D01*
X155488008Y-101456013D01*
X155391335Y-101222624D01*
X155238911Y-101070200D01*
X155014405Y-101070200D01*
X154484605Y-101600000D01*
X154125395Y-101600000D01*
X153776932Y-101251537D01*
X153776932Y-101113314D01*
X153035000Y-100371382D01*
X153020858Y-100385525D01*
X152841253Y-100205920D01*
X152855395Y-100191777D01*
X152841253Y-100177635D01*
X153020858Y-99998030D01*
X153035000Y-100012172D01*
X153049143Y-99998030D01*
X153228748Y-100177635D01*
X153214605Y-100191777D01*
X153792878Y-100770050D01*
X153792878Y-100908273D01*
X154305000Y-101420395D01*
X154834800Y-100890595D01*
X154834800Y-100666089D01*
X154682376Y-100513665D01*
X154558731Y-100462450D01*
X154589239Y-100388797D01*
X154589238Y-100136178D01*
X154492566Y-99902789D01*
X154197785Y-99608008D01*
X154239647Y-99608008D01*
X154473036Y-99511335D01*
X154625460Y-99358911D01*
X154625460Y-99134405D01*
X154095660Y-98604605D01*
X154081518Y-98618748D01*
X153901913Y-98439143D01*
X153916055Y-98425000D01*
X154275265Y-98425000D01*
X154805065Y-98954800D01*
X155029571Y-98954800D01*
X155181995Y-98802376D01*
X155278668Y-98568987D01*
X155278667Y-98316368D01*
X155181995Y-98082979D01*
X155011894Y-97912878D01*
X154787387Y-97912878D01*
X154275265Y-98425000D01*
X153916055Y-98425000D01*
X153901913Y-98410858D01*
X154081518Y-98231253D01*
X154095660Y-98245395D01*
X154607782Y-97733273D01*
X154607782Y-97508766D01*
X154437681Y-97338665D01*
X154204292Y-97241993D01*
X154202356Y-97241993D01*
X154182862Y-97138391D01*
X154040817Y-96924209D01*
X153886608Y-96770000D01*
X156478420Y-96770000D01*
X157779867Y-98071447D01*
X157779867Y-98071447D01*
G37*
X157779867Y-98071447D02*
X157135657Y-98715657D01*
X156835427Y-99164983D01*
X156730000Y-99695000D01*
X156730000Y-103390000D01*
X153960948Y-103390000D01*
X154250157Y-103100791D01*
X154385242Y-102903088D01*
X154411291Y-102783007D01*
X154413632Y-102783007D01*
X154647021Y-102686335D01*
X154817122Y-102516234D01*
X154817122Y-102291727D01*
X154305000Y-101779605D01*
X154290858Y-101793748D01*
X154111253Y-101614143D01*
X154125395Y-101600000D01*
X154484605Y-101600000D01*
X154996727Y-102112122D01*
X155221234Y-102112122D01*
X155391335Y-101942021D01*
X155488007Y-101708632D01*
X155488008Y-101456013D01*
X155391335Y-101222624D01*
X155238911Y-101070200D01*
X155014405Y-101070200D01*
X154484605Y-101600000D01*
X154125395Y-101600000D01*
X153776932Y-101251537D01*
X153776932Y-101113314D01*
X153035000Y-100371382D01*
X153020858Y-100385525D01*
X152841253Y-100205920D01*
X152855395Y-100191777D01*
X152841253Y-100177635D01*
X153020858Y-99998030D01*
X153035000Y-100012172D01*
X153049143Y-99998030D01*
X153228748Y-100177635D01*
X153214605Y-100191777D01*
X153792878Y-100770050D01*
X153792878Y-100908273D01*
X154305000Y-101420395D01*
X154834800Y-100890595D01*
X154834800Y-100666089D01*
X154682376Y-100513665D01*
X154558731Y-100462450D01*
X154589239Y-100388797D01*
X154589238Y-100136178D01*
X154492566Y-99902789D01*
X154197785Y-99608008D01*
X154239647Y-99608008D01*
X154473036Y-99511335D01*
X154625460Y-99358911D01*
X154625460Y-99134405D01*
X154095660Y-98604605D01*
X154081518Y-98618748D01*
X153901913Y-98439143D01*
X153916055Y-98425000D01*
X154275265Y-98425000D01*
X154805065Y-98954800D01*
X155029571Y-98954800D01*
X155181995Y-98802376D01*
X155278668Y-98568987D01*
X155278667Y-98316368D01*
X155181995Y-98082979D01*
X155011894Y-97912878D01*
X154787387Y-97912878D01*
X154275265Y-98425000D01*
X153916055Y-98425000D01*
X153901913Y-98410858D01*
X154081518Y-98231253D01*
X154095660Y-98245395D01*
X154607782Y-97733273D01*
X154607782Y-97508766D01*
X154437681Y-97338665D01*
X154204292Y-97241993D01*
X154202356Y-97241993D01*
X154182862Y-97138391D01*
X154040817Y-96924209D01*
X153886608Y-96770000D01*
X156478420Y-96770000D01*
X157779867Y-98071447D01*
G36*
X143904500Y-98845500D02*
X145375500Y-98845500D01*
X145375500Y-98825500D01*
X145629500Y-98825500D01*
X145629500Y-98845500D01*
X145649500Y-98845500D01*
X145649500Y-99099500D01*
X145629500Y-99099500D01*
X145629500Y-100570500D01*
X145649500Y-100570500D01*
X145649500Y-100824500D01*
X145629500Y-100824500D01*
X145629500Y-100844500D01*
X145375500Y-100844500D01*
X145375500Y-100824500D01*
X143904500Y-100824500D01*
X143904500Y-100844500D01*
X143650500Y-100844500D01*
X143650500Y-100824500D01*
X143630500Y-100824500D01*
X143630500Y-100570500D01*
X143650500Y-100570500D01*
X143650500Y-99099500D01*
X143904500Y-99099500D01*
X143904500Y-100570500D01*
X145375500Y-100570500D01*
X145375500Y-99099500D01*
X143904500Y-99099500D01*
X143650500Y-99099500D01*
X143630500Y-99099500D01*
X143630500Y-98845500D01*
X143650500Y-98845500D01*
X143650500Y-98825500D01*
X143904500Y-98825500D01*
X143904500Y-98845500D01*
X143904500Y-98845500D01*
G37*
X143904500Y-98845500D02*
X145375500Y-98845500D01*
X145375500Y-98825500D01*
X145629500Y-98825500D01*
X145629500Y-98845500D01*
X145649500Y-98845500D01*
X145649500Y-99099500D01*
X145629500Y-99099500D01*
X145629500Y-100570500D01*
X145649500Y-100570500D01*
X145649500Y-100824500D01*
X145629500Y-100824500D01*
X145629500Y-100844500D01*
X145375500Y-100844500D01*
X145375500Y-100824500D01*
X143904500Y-100824500D01*
X143904500Y-100844500D01*
X143650500Y-100844500D01*
X143650500Y-100824500D01*
X143630500Y-100824500D01*
X143630500Y-100570500D01*
X143650500Y-100570500D01*
X143650500Y-99099500D01*
X143904500Y-99099500D01*
X143904500Y-100570500D01*
X145375500Y-100570500D01*
X145375500Y-99099500D01*
X143904500Y-99099500D01*
X143650500Y-99099500D01*
X143630500Y-99099500D01*
X143630500Y-98845500D01*
X143650500Y-98845500D01*
X143650500Y-98825500D01*
X143904500Y-98825500D01*
X143904500Y-98845500D01*
G36*
X150188188Y-99824081D02*
X150174045Y-99838223D01*
X150188188Y-99852366D01*
X150008583Y-100031971D01*
X149994440Y-100017828D01*
X149980298Y-100031971D01*
X149800693Y-99852366D01*
X149814835Y-99838223D01*
X149800693Y-99824081D01*
X149980298Y-99644476D01*
X149994440Y-99658618D01*
X150008583Y-99644476D01*
X150188188Y-99824081D01*
X150188188Y-99824081D01*
G37*
X150188188Y-99824081D02*
X150174045Y-99838223D01*
X150188188Y-99852366D01*
X150008583Y-100031971D01*
X149994440Y-100017828D01*
X149980298Y-100031971D01*
X149800693Y-99852366D01*
X149814835Y-99838223D01*
X149800693Y-99824081D01*
X149980298Y-99644476D01*
X149994440Y-99658618D01*
X150008583Y-99644476D01*
X150188188Y-99824081D01*
G36*
X152955692Y-98637538D02*
X152890858Y-98637538D01*
X152904560Y-98574375D01*
X152903801Y-98570341D01*
X152920812Y-98553330D01*
X152955692Y-98637538D01*
X152955692Y-98637538D01*
G37*
X152955692Y-98637538D02*
X152890858Y-98637538D01*
X152904560Y-98574375D01*
X152903801Y-98570341D01*
X152920812Y-98553330D01*
X152955692Y-98637538D01*
G36*
X193802000Y-97663000D02*
X193822000Y-97663000D01*
X193822000Y-97917000D01*
X193802000Y-97917000D01*
X193802000Y-97937000D01*
X193548000Y-97937000D01*
X193548000Y-97917000D01*
X193528000Y-97917000D01*
X193528000Y-97663000D01*
X193548000Y-97663000D01*
X193548000Y-97643000D01*
X193802000Y-97643000D01*
X193802000Y-97663000D01*
X193802000Y-97663000D01*
G37*
X193802000Y-97663000D02*
X193822000Y-97663000D01*
X193822000Y-97917000D01*
X193802000Y-97917000D01*
X193802000Y-97937000D01*
X193548000Y-97937000D01*
X193548000Y-97917000D01*
X193528000Y-97917000D01*
X193528000Y-97663000D01*
X193548000Y-97663000D01*
X193548000Y-97643000D01*
X193802000Y-97643000D01*
X193802000Y-97663000D01*
G36*
X191739999Y-95109801D02*
X191739999Y-96465032D01*
X191491892Y-96348514D01*
X191262000Y-96469181D01*
X191262000Y-97663000D01*
X191282000Y-97663000D01*
X191282000Y-97917000D01*
X191262000Y-97917000D01*
X191262000Y-97937000D01*
X191008000Y-97937000D01*
X191008000Y-97917000D01*
X190988000Y-97917000D01*
X190988000Y-97663000D01*
X191008000Y-97663000D01*
X191008000Y-96469181D01*
X190778108Y-96348514D01*
X190719999Y-96375804D01*
X190719999Y-94089801D01*
X191739999Y-95109801D01*
X191739999Y-95109801D01*
G37*
X191739999Y-95109801D02*
X191739999Y-96465032D01*
X191491892Y-96348514D01*
X191262000Y-96469181D01*
X191262000Y-97663000D01*
X191282000Y-97663000D01*
X191282000Y-97917000D01*
X191262000Y-97917000D01*
X191262000Y-97937000D01*
X191008000Y-97937000D01*
X191008000Y-97917000D01*
X190988000Y-97917000D01*
X190988000Y-97663000D01*
X191008000Y-97663000D01*
X191008000Y-96469181D01*
X190778108Y-96348514D01*
X190719999Y-96375804D01*
X190719999Y-94089801D01*
X191739999Y-95109801D01*
G36*
X161210011Y-89945011D02*
X173395040Y-89945011D01*
X173624382Y-90174353D01*
X174073708Y-90474583D01*
X174603725Y-90580010D01*
X177889992Y-90580010D01*
X178302177Y-90498021D01*
X176215198Y-92585000D01*
X173938631Y-92585000D01*
X173647792Y-92642852D01*
X173401230Y-92807599D01*
X171963361Y-94245468D01*
X171922440Y-94245432D01*
X171922440Y-94135000D01*
X171878162Y-93899683D01*
X171739090Y-93683559D01*
X171526890Y-93538569D01*
X171275000Y-93487560D01*
X168275000Y-93487560D01*
X168039683Y-93531838D01*
X167823559Y-93670910D01*
X167678569Y-93883110D01*
X167627560Y-94135000D01*
X167627560Y-95095000D01*
X167671838Y-95330317D01*
X167810910Y-95546441D01*
X168023110Y-95691431D01*
X168275000Y-95742440D01*
X171275000Y-95742440D01*
X171332056Y-95731704D01*
X171572714Y-95972782D01*
X171881568Y-96101030D01*
X171785162Y-96333201D01*
X171784838Y-96705167D01*
X171923188Y-97040000D01*
X167592440Y-97040000D01*
X167592440Y-94135000D01*
X167548162Y-93899683D01*
X167409090Y-93683559D01*
X167196890Y-93538569D01*
X166945000Y-93487560D01*
X165985000Y-93487560D01*
X165749683Y-93531838D01*
X165533559Y-93670910D01*
X165388569Y-93883110D01*
X165337560Y-94135000D01*
X165337560Y-97040000D01*
X165302440Y-97040000D01*
X165302440Y-95762000D01*
X164302000Y-95762000D01*
X164302000Y-95782000D01*
X164048000Y-95782000D01*
X164048000Y-95762000D01*
X163047560Y-95762000D01*
X163047560Y-97040000D01*
X163012440Y-97040000D01*
X163012440Y-94135000D01*
X163047560Y-94135000D01*
X163047560Y-95508000D01*
X164048000Y-95508000D01*
X164048000Y-93487560D01*
X164302000Y-93487560D01*
X164302000Y-95508000D01*
X165302440Y-95508000D01*
X165302440Y-94135000D01*
X165258162Y-93899683D01*
X165119090Y-93683559D01*
X164906890Y-93538569D01*
X164655000Y-93487560D01*
X164302000Y-93487560D01*
X164048000Y-93487560D01*
X163695000Y-93487560D01*
X163459683Y-93531838D01*
X163243559Y-93670910D01*
X163098569Y-93883110D01*
X163047560Y-94135000D01*
X163012440Y-94135000D01*
X162968162Y-93899683D01*
X162829090Y-93683559D01*
X162616890Y-93538569D01*
X162365000Y-93487560D01*
X161405000Y-93487560D01*
X161169683Y-93531838D01*
X160953559Y-93670910D01*
X160808569Y-93883110D01*
X160757560Y-94135000D01*
X160757560Y-97040000D01*
X159950435Y-97040000D01*
X159950721Y-96711805D01*
X159808676Y-96368029D01*
X159545886Y-96104780D01*
X159335000Y-96017212D01*
X159335000Y-95742440D01*
X160075000Y-95742440D01*
X160310317Y-95698162D01*
X160526441Y-95559090D01*
X160671431Y-95346890D01*
X160722440Y-95095000D01*
X160722440Y-94135000D01*
X160678162Y-93899683D01*
X160539090Y-93683559D01*
X160326890Y-93538569D01*
X160075000Y-93487560D01*
X157075000Y-93487560D01*
X157039348Y-93494268D01*
X156977845Y-93432766D01*
X157075000Y-93452440D01*
X160075000Y-93452440D01*
X160310317Y-93408162D01*
X160526441Y-93269090D01*
X160671431Y-93056890D01*
X160722440Y-92805000D01*
X160722440Y-91845000D01*
X167627560Y-91845000D01*
X167627560Y-92805000D01*
X167671838Y-93040317D01*
X167810910Y-93256441D01*
X168023110Y-93401431D01*
X168275000Y-93452440D01*
X171275000Y-93452440D01*
X171510317Y-93408162D01*
X171726441Y-93269090D01*
X171871431Y-93056890D01*
X171922440Y-92805000D01*
X171922440Y-91845000D01*
X171878162Y-91609683D01*
X171739090Y-91393559D01*
X171526890Y-91248569D01*
X171275000Y-91197560D01*
X168275000Y-91197560D01*
X168039683Y-91241838D01*
X167823559Y-91380910D01*
X167678569Y-91593110D01*
X167627560Y-91845000D01*
X160722440Y-91845000D01*
X160678162Y-91609683D01*
X160539090Y-91393559D01*
X160326890Y-91248569D01*
X160075000Y-91197560D01*
X159280139Y-91197560D01*
X159332700Y-91162440D01*
X160075000Y-91162440D01*
X160310317Y-91118162D01*
X160526441Y-90979090D01*
X160671431Y-90766890D01*
X160722440Y-90515000D01*
X160722440Y-90162000D01*
X167627560Y-90162000D01*
X167627560Y-90515000D01*
X167671838Y-90750317D01*
X167810910Y-90966441D01*
X168023110Y-91111431D01*
X168275000Y-91162440D01*
X169648000Y-91162440D01*
X169648000Y-90162000D01*
X169902000Y-90162000D01*
X169902000Y-91162440D01*
X171275000Y-91162440D01*
X171510317Y-91118162D01*
X171726441Y-90979090D01*
X171871431Y-90766890D01*
X171922440Y-90515000D01*
X171922440Y-90162000D01*
X169902000Y-90162000D01*
X169648000Y-90162000D01*
X167627560Y-90162000D01*
X160722440Y-90162000D01*
X160722440Y-89848027D01*
X161210011Y-89945011D01*
X161210011Y-89945011D01*
G37*
X161210011Y-89945011D02*
X173395040Y-89945011D01*
X173624382Y-90174353D01*
X174073708Y-90474583D01*
X174603725Y-90580010D01*
X177889992Y-90580010D01*
X178302177Y-90498021D01*
X176215198Y-92585000D01*
X173938631Y-92585000D01*
X173647792Y-92642852D01*
X173401230Y-92807599D01*
X171963361Y-94245468D01*
X171922440Y-94245432D01*
X171922440Y-94135000D01*
X171878162Y-93899683D01*
X171739090Y-93683559D01*
X171526890Y-93538569D01*
X171275000Y-93487560D01*
X168275000Y-93487560D01*
X168039683Y-93531838D01*
X167823559Y-93670910D01*
X167678569Y-93883110D01*
X167627560Y-94135000D01*
X167627560Y-95095000D01*
X167671838Y-95330317D01*
X167810910Y-95546441D01*
X168023110Y-95691431D01*
X168275000Y-95742440D01*
X171275000Y-95742440D01*
X171332056Y-95731704D01*
X171572714Y-95972782D01*
X171881568Y-96101030D01*
X171785162Y-96333201D01*
X171784838Y-96705167D01*
X171923188Y-97040000D01*
X167592440Y-97040000D01*
X167592440Y-94135000D01*
X167548162Y-93899683D01*
X167409090Y-93683559D01*
X167196890Y-93538569D01*
X166945000Y-93487560D01*
X165985000Y-93487560D01*
X165749683Y-93531838D01*
X165533559Y-93670910D01*
X165388569Y-93883110D01*
X165337560Y-94135000D01*
X165337560Y-97040000D01*
X165302440Y-97040000D01*
X165302440Y-95762000D01*
X164302000Y-95762000D01*
X164302000Y-95782000D01*
X164048000Y-95782000D01*
X164048000Y-95762000D01*
X163047560Y-95762000D01*
X163047560Y-97040000D01*
X163012440Y-97040000D01*
X163012440Y-94135000D01*
X163047560Y-94135000D01*
X163047560Y-95508000D01*
X164048000Y-95508000D01*
X164048000Y-93487560D01*
X164302000Y-93487560D01*
X164302000Y-95508000D01*
X165302440Y-95508000D01*
X165302440Y-94135000D01*
X165258162Y-93899683D01*
X165119090Y-93683559D01*
X164906890Y-93538569D01*
X164655000Y-93487560D01*
X164302000Y-93487560D01*
X164048000Y-93487560D01*
X163695000Y-93487560D01*
X163459683Y-93531838D01*
X163243559Y-93670910D01*
X163098569Y-93883110D01*
X163047560Y-94135000D01*
X163012440Y-94135000D01*
X162968162Y-93899683D01*
X162829090Y-93683559D01*
X162616890Y-93538569D01*
X162365000Y-93487560D01*
X161405000Y-93487560D01*
X161169683Y-93531838D01*
X160953559Y-93670910D01*
X160808569Y-93883110D01*
X160757560Y-94135000D01*
X160757560Y-97040000D01*
X159950435Y-97040000D01*
X159950721Y-96711805D01*
X159808676Y-96368029D01*
X159545886Y-96104780D01*
X159335000Y-96017212D01*
X159335000Y-95742440D01*
X160075000Y-95742440D01*
X160310317Y-95698162D01*
X160526441Y-95559090D01*
X160671431Y-95346890D01*
X160722440Y-95095000D01*
X160722440Y-94135000D01*
X160678162Y-93899683D01*
X160539090Y-93683559D01*
X160326890Y-93538569D01*
X160075000Y-93487560D01*
X157075000Y-93487560D01*
X157039348Y-93494268D01*
X156977845Y-93432766D01*
X157075000Y-93452440D01*
X160075000Y-93452440D01*
X160310317Y-93408162D01*
X160526441Y-93269090D01*
X160671431Y-93056890D01*
X160722440Y-92805000D01*
X160722440Y-91845000D01*
X167627560Y-91845000D01*
X167627560Y-92805000D01*
X167671838Y-93040317D01*
X167810910Y-93256441D01*
X168023110Y-93401431D01*
X168275000Y-93452440D01*
X171275000Y-93452440D01*
X171510317Y-93408162D01*
X171726441Y-93269090D01*
X171871431Y-93056890D01*
X171922440Y-92805000D01*
X171922440Y-91845000D01*
X171878162Y-91609683D01*
X171739090Y-91393559D01*
X171526890Y-91248569D01*
X171275000Y-91197560D01*
X168275000Y-91197560D01*
X168039683Y-91241838D01*
X167823559Y-91380910D01*
X167678569Y-91593110D01*
X167627560Y-91845000D01*
X160722440Y-91845000D01*
X160678162Y-91609683D01*
X160539090Y-91393559D01*
X160326890Y-91248569D01*
X160075000Y-91197560D01*
X159280139Y-91197560D01*
X159332700Y-91162440D01*
X160075000Y-91162440D01*
X160310317Y-91118162D01*
X160526441Y-90979090D01*
X160671431Y-90766890D01*
X160722440Y-90515000D01*
X160722440Y-90162000D01*
X167627560Y-90162000D01*
X167627560Y-90515000D01*
X167671838Y-90750317D01*
X167810910Y-90966441D01*
X168023110Y-91111431D01*
X168275000Y-91162440D01*
X169648000Y-91162440D01*
X169648000Y-90162000D01*
X169902000Y-90162000D01*
X169902000Y-91162440D01*
X171275000Y-91162440D01*
X171510317Y-91118162D01*
X171726441Y-90979090D01*
X171871431Y-90766890D01*
X171922440Y-90515000D01*
X171922440Y-90162000D01*
X169902000Y-90162000D01*
X169648000Y-90162000D01*
X167627560Y-90162000D01*
X160722440Y-90162000D01*
X160722440Y-89848027D01*
X161210011Y-89945011D01*
G36*
X186170678Y-90169528D02*
X186113569Y-90253110D01*
X186062560Y-90505000D01*
X186062560Y-91105000D01*
X186106838Y-91340317D01*
X186170678Y-91439528D01*
X186113569Y-91523110D01*
X186062560Y-91775000D01*
X186062560Y-92375000D01*
X186106838Y-92610317D01*
X186165178Y-92700980D01*
X186075000Y-92918690D01*
X186075000Y-93059250D01*
X186233750Y-93218000D01*
X187358000Y-93218000D01*
X187358000Y-93198000D01*
X187612000Y-93198000D01*
X187612000Y-93218000D01*
X187632000Y-93218000D01*
X187632000Y-93472000D01*
X187612000Y-93472000D01*
X187612000Y-94121250D01*
X187770750Y-94280000D01*
X188386309Y-94280000D01*
X188619698Y-94183327D01*
X188798327Y-94004699D01*
X188895000Y-93771310D01*
X188895000Y-93630750D01*
X188736252Y-93472002D01*
X188832200Y-93472002D01*
X189199999Y-93839801D01*
X189199999Y-96436313D01*
X188304343Y-95540657D01*
X188299331Y-95537308D01*
X187855017Y-95240427D01*
X187325000Y-95135000D01*
X184400000Y-95135000D01*
X184400000Y-93630750D01*
X186075000Y-93630750D01*
X186075000Y-93771310D01*
X186171673Y-94004699D01*
X186350302Y-94183327D01*
X186583691Y-94280000D01*
X187199250Y-94280000D01*
X187358000Y-94121250D01*
X187358000Y-93472000D01*
X186233750Y-93472000D01*
X186075000Y-93630750D01*
X184400000Y-93630750D01*
X184400000Y-90490005D01*
X184400001Y-90490000D01*
X184337859Y-90177598D01*
X184332633Y-90151325D01*
X184302682Y-90106500D01*
X186130121Y-90106500D01*
X186170678Y-90169528D01*
X186170678Y-90169528D01*
G37*
X186170678Y-90169528D02*
X186113569Y-90253110D01*
X186062560Y-90505000D01*
X186062560Y-91105000D01*
X186106838Y-91340317D01*
X186170678Y-91439528D01*
X186113569Y-91523110D01*
X186062560Y-91775000D01*
X186062560Y-92375000D01*
X186106838Y-92610317D01*
X186165178Y-92700980D01*
X186075000Y-92918690D01*
X186075000Y-93059250D01*
X186233750Y-93218000D01*
X187358000Y-93218000D01*
X187358000Y-93198000D01*
X187612000Y-93198000D01*
X187612000Y-93218000D01*
X187632000Y-93218000D01*
X187632000Y-93472000D01*
X187612000Y-93472000D01*
X187612000Y-94121250D01*
X187770750Y-94280000D01*
X188386309Y-94280000D01*
X188619698Y-94183327D01*
X188798327Y-94004699D01*
X188895000Y-93771310D01*
X188895000Y-93630750D01*
X188736252Y-93472002D01*
X188832200Y-93472002D01*
X189199999Y-93839801D01*
X189199999Y-96436313D01*
X188304343Y-95540657D01*
X188299331Y-95537308D01*
X187855017Y-95240427D01*
X187325000Y-95135000D01*
X184400000Y-95135000D01*
X184400000Y-93630750D01*
X186075000Y-93630750D01*
X186075000Y-93771310D01*
X186171673Y-94004699D01*
X186350302Y-94183327D01*
X186583691Y-94280000D01*
X187199250Y-94280000D01*
X187358000Y-94121250D01*
X187358000Y-93472000D01*
X186233750Y-93472000D01*
X186075000Y-93630750D01*
X184400000Y-93630750D01*
X184400000Y-90490005D01*
X184400001Y-90490000D01*
X184337859Y-90177598D01*
X184332633Y-90151325D01*
X184302682Y-90106500D01*
X186130121Y-90106500D01*
X186170678Y-90169528D01*
G36*
X143407000Y-93472000D02*
X143427000Y-93472000D01*
X143427000Y-93726000D01*
X143407000Y-93726000D01*
X143407000Y-93927122D01*
X143352851Y-94008162D01*
X143294999Y-94299001D01*
X143294999Y-95397000D01*
X143275000Y-95397000D01*
X143275000Y-93452000D01*
X143407000Y-93452000D01*
X143407000Y-93472000D01*
X143407000Y-93472000D01*
G37*
X143407000Y-93472000D02*
X143427000Y-93472000D01*
X143427000Y-93726000D01*
X143407000Y-93726000D01*
X143407000Y-93927122D01*
X143352851Y-94008162D01*
X143294999Y-94299001D01*
X143294999Y-95397000D01*
X143275000Y-95397000D01*
X143275000Y-93452000D01*
X143407000Y-93452000D01*
X143407000Y-93472000D01*
G36*
X179852000Y-91567000D02*
X179832000Y-91567000D01*
X179832000Y-92316250D01*
X179990750Y-92475000D01*
X180135198Y-92475000D01*
X178755198Y-93855000D01*
X177094802Y-93855000D01*
X178779498Y-92170304D01*
X178791673Y-92199698D01*
X178970301Y-92378327D01*
X179203690Y-92475000D01*
X179419250Y-92475000D01*
X179578000Y-92316250D01*
X179578000Y-91567000D01*
X179558000Y-91567000D01*
X179558000Y-91474999D01*
X179852000Y-91474999D01*
X179852000Y-91567000D01*
X179852000Y-91567000D01*
G37*
X179852000Y-91567000D02*
X179832000Y-91567000D01*
X179832000Y-92316250D01*
X179990750Y-92475000D01*
X180135198Y-92475000D01*
X178755198Y-93855000D01*
X177094802Y-93855000D01*
X178779498Y-92170304D01*
X178791673Y-92199698D01*
X178970301Y-92378327D01*
X179203690Y-92475000D01*
X179419250Y-92475000D01*
X179578000Y-92316250D01*
X179578000Y-91567000D01*
X179558000Y-91567000D01*
X179558000Y-91474999D01*
X179852000Y-91474999D01*
X179852000Y-91567000D01*
G36*
X163047560Y-85935000D02*
X163091838Y-86170317D01*
X163092000Y-86170569D01*
X163092000Y-86451250D01*
X163250750Y-86610000D01*
X165126309Y-86610000D01*
X165359698Y-86513327D01*
X165413837Y-86459188D01*
X165578110Y-86571431D01*
X165830000Y-86622440D01*
X166085742Y-86622440D01*
X166398642Y-86831513D01*
X167120000Y-86975000D01*
X167177125Y-86975000D01*
X167476462Y-87175011D01*
X161783697Y-87175011D01*
X161218686Y-86610000D01*
X162679250Y-86610000D01*
X162838000Y-86451250D01*
X162838000Y-86367537D01*
X162961431Y-86186890D01*
X163012440Y-85935000D01*
X163012440Y-84943000D01*
X163047560Y-84943000D01*
X163047560Y-85935000D01*
X163047560Y-85935000D01*
G37*
X163047560Y-85935000D02*
X163091838Y-86170317D01*
X163092000Y-86170569D01*
X163092000Y-86451250D01*
X163250750Y-86610000D01*
X165126309Y-86610000D01*
X165359698Y-86513327D01*
X165413837Y-86459188D01*
X165578110Y-86571431D01*
X165830000Y-86622440D01*
X166085742Y-86622440D01*
X166398642Y-86831513D01*
X167120000Y-86975000D01*
X167177125Y-86975000D01*
X167476462Y-87175011D01*
X161783697Y-87175011D01*
X161218686Y-86610000D01*
X162679250Y-86610000D01*
X162838000Y-86451250D01*
X162838000Y-86367537D01*
X162961431Y-86186890D01*
X163012440Y-85935000D01*
X163012440Y-84943000D01*
X163047560Y-84943000D01*
X163047560Y-85935000D01*
D46*
X130810000Y-116205000D03*
X136525000Y-116205000D03*
X136525000Y-118745000D03*
X130810000Y-118745000D03*
X125095000Y-118745000D03*
X120015000Y-118745000D03*
X114300000Y-118745000D03*
X114300000Y-121920000D03*
X120015000Y-121920000D03*
X125095000Y-121920000D03*
X130810000Y-121920000D03*
X136525000Y-121920000D03*
X136525000Y-126365000D03*
X130810000Y-126365000D03*
X125095000Y-126365000D03*
X120015000Y-126365000D03*
X114300000Y-126365000D03*
X108585000Y-121920000D03*
X108585000Y-118745000D03*
X106489500Y-109930500D03*
X106680000Y-106680000D03*
X106680000Y-102235000D03*
X106680000Y-99060000D03*
X106680000Y-93980000D03*
X119380000Y-106680000D03*
X116205000Y-103505000D03*
X120015000Y-102870000D03*
X124460000Y-98425000D03*
X119380000Y-98425000D03*
X115570000Y-97155000D03*
X119380000Y-94615000D03*
X124460000Y-94615000D03*
X129540000Y-94615000D03*
X132715000Y-90805000D03*
X128905000Y-89535000D03*
X123825000Y-89535000D03*
X118745000Y-89535000D03*
X114935000Y-89535000D03*
X114935000Y-92710000D03*
X110490000Y-92710000D03*
X107950000Y-90805000D03*
X107950000Y-85725000D03*
X113030000Y-84455000D03*
X118745000Y-84455000D03*
X126365000Y-84455000D03*
X107950000Y-82550000D03*
X114300000Y-82550000D03*
X119380000Y-82550000D03*
X125730000Y-82550000D03*
X130810000Y-82550000D03*
X109728000Y-114554000D03*
X123952000Y-105346500D03*
X126428500Y-102870000D03*
X128841500Y-100584000D03*
X130937000Y-98361500D03*
X134493000Y-95313500D03*
X135191500Y-96266000D03*
X133794500Y-96520000D03*
X139573000Y-96520000D03*
X138366500Y-96520000D03*
X138303000Y-94932500D03*
X138303000Y-93662500D03*
X138938000Y-98933000D03*
X137858500Y-99060000D03*
X135699500Y-99060000D03*
X133921500Y-99123500D03*
X131953000Y-101346000D03*
X129921000Y-103632000D03*
X127571500Y-105791000D03*
X125222000Y-108331000D03*
X122872500Y-110617000D03*
X141033500Y-97218500D03*
X115443000Y-111887000D03*
X115443000Y-111061500D03*
X111125000Y-111442500D03*
X110045500Y-112331500D03*
X109855000Y-109855000D03*
X109982000Y-107442000D03*
X112395000Y-107569000D03*
X134112000Y-106743500D03*
X131953000Y-109029500D03*
X133858000Y-108902500D03*
X135572500Y-109156500D03*
X137985500Y-110871000D03*
X135826500Y-110998000D03*
X133667500Y-110871000D03*
X131635500Y-110807500D03*
X129667000Y-110744000D03*
X127952500Y-112268000D03*
X126555500Y-112966500D03*
X124777500Y-113030000D03*
X121348500Y-112839500D03*
X140348887Y-99187000D03*
X142240000Y-88578590D03*
X140652407Y-88578590D03*
X144208500Y-88578590D03*
X141605000Y-118110000D03*
X141605000Y-121920000D03*
X141605000Y-126365000D03*
X149860000Y-82550000D03*
X145415000Y-82550000D03*
X142240000Y-82550000D03*
X138430000Y-82550000D03*
X142875000Y-84455000D03*
X139700000Y-84455000D03*
X136525000Y-84455000D03*
X133350000Y-84455000D03*
X145732500Y-107632500D03*
X153035000Y-121920000D03*
X152209500Y-123253500D03*
X153860500Y-123444000D03*
X155511500Y-122110500D03*
X157607000Y-119634000D03*
X156845000Y-118427500D03*
X155638500Y-120459500D03*
X153479500Y-120523000D03*
X151447500Y-120523000D03*
X149860000Y-121602500D03*
X153098500Y-115125500D03*
X152209500Y-116078000D03*
X151638000Y-117094000D03*
X150114000Y-117030500D03*
X151193500Y-116332000D03*
X141859000Y-95694500D03*
X141859000Y-94361000D03*
X141922500Y-93345000D03*
X144054091Y-101434290D03*
X146237598Y-99631500D03*
X191579500Y-95186500D03*
X190690500Y-95250000D03*
X191135000Y-96139000D03*
X151447500Y-100076000D03*
X154813000Y-96647000D03*
X154178000Y-96901000D03*
X154876500Y-97409000D03*
X154940000Y-99695000D03*
X154622500Y-100647500D03*
X154178000Y-99758500D03*
X152908000Y-98615500D03*
X171069000Y-95758000D03*
X170116500Y-95758000D03*
X169100500Y-95758000D03*
X167957500Y-95758000D03*
X165290500Y-95758000D03*
X163004500Y-95758000D03*
X160655000Y-95885000D03*
X155702000Y-103187500D03*
X156210000Y-101981000D03*
X156210000Y-100330000D03*
X156210000Y-98806000D03*
X153162000Y-83693000D03*
X153924000Y-82867500D03*
X153733500Y-81597500D03*
X155511500Y-81597500D03*
X157670500Y-81724500D03*
X157797500Y-83121500D03*
X159512000Y-83248500D03*
X159321500Y-81597500D03*
X161353500Y-81597500D03*
X164020500Y-81597500D03*
X166751000Y-81597500D03*
X168910000Y-82232500D03*
X170751500Y-82296000D03*
X172847000Y-82105500D03*
X174815500Y-82804000D03*
X174815500Y-84074000D03*
X176530000Y-82550000D03*
X179070000Y-82550000D03*
X179070000Y-84455000D03*
X146090000Y-106870500D03*
X155829000Y-107378500D03*
X155892500Y-106299000D03*
X153416000Y-105977598D03*
X150050500Y-104584500D03*
X173228000Y-95123000D03*
X156400500Y-97155000D03*
X182880000Y-100965000D03*
X187960000Y-94742000D03*
X188976000Y-95567500D03*
X188976000Y-94488000D03*
X175450500Y-92075000D03*
X176276000Y-91186000D03*
X174625000Y-91376500D03*
X173164500Y-92011500D03*
X172466000Y-91313000D03*
X171005500Y-91122500D03*
X168656000Y-91122500D03*
X184721500Y-91122500D03*
X185610500Y-91757500D03*
X184594500Y-92075000D03*
X185674000Y-93027500D03*
X159893000Y-91186000D03*
X157416500Y-91186000D03*
X155956000Y-91186000D03*
X156210000Y-91884500D03*
X155257500Y-91948000D03*
X161544000Y-91567000D03*
X162750500Y-91567000D03*
X163830000Y-91567000D03*
X165100000Y-91567000D03*
X166370000Y-91567000D03*
X168402000Y-87249000D03*
X166878000Y-87058500D03*
X165163500Y-87058500D03*
X163576000Y-87058500D03*
X162115500Y-87058500D03*
X154495500Y-108839000D03*
X155892500Y-108902500D03*
X155829000Y-110426500D03*
X153670000Y-110490000D03*
X151638000Y-112268000D03*
X149479000Y-111569500D03*
X149860000Y-110871000D03*
X142621000Y-111379000D03*
X144335500Y-112966500D03*
X146367500Y-111760000D03*
X148025000Y-108971000D03*
X147155000Y-109771000D03*
X144081500Y-92773500D03*
X143129000Y-96139000D03*
X167449500Y-93281500D03*
X165735000Y-93345000D03*
X163830000Y-93345000D03*
X162242500Y-93345000D03*
X145502500Y-100697500D03*
X143777500Y-98972500D03*
X135255000Y-97980500D03*
X112522000Y-113030000D03*
X147129500Y-105563483D03*
X147574000Y-106870500D03*
X150177500Y-109601000D03*
X147129500Y-102616000D03*
X149225000Y-85090000D03*
X140525500Y-101282500D03*
X153225500Y-112395000D03*
X189620835Y-90506252D03*
X141986000Y-108477500D03*
X189543645Y-89757809D03*
X141986000Y-109327500D03*
X141942861Y-102308490D03*
X141287500Y-101663500D03*
X141097975Y-99505763D03*
X140973888Y-98677786D03*
X139763500Y-95123000D03*
X138684000Y-89090500D03*
X137858500Y-100662410D03*
X172720000Y-96520000D03*
X145812493Y-103440078D03*
X149796500Y-107251500D03*
X172103041Y-95180590D03*
X155575000Y-95123000D03*
X151130000Y-105410000D03*
X159015559Y-96896972D03*
X135255000Y-100330000D03*
X145288000Y-111125000D03*
X139700000Y-102459498D03*
X146431000Y-88226179D03*
X144780000Y-92392500D03*
X181927500Y-94551500D03*
X147955000Y-101663500D03*
X145542000Y-96329500D03*
X146685000Y-96456500D03*
X147320000Y-95885000D03*
X108420000Y-95300000D03*
X108420000Y-97840000D03*
X108420000Y-100380000D03*
X108420000Y-102920000D03*
X108420000Y-105460000D03*
X108420000Y-108000000D03*
X108420000Y-110540000D03*
X108420000Y-113080000D03*
X108420000Y-115620000D03*
D47*
X111170000Y-123260000D03*
X111170000Y-87660000D03*
D46*
X110360000Y-84360000D03*
X110360000Y-126560000D03*
X176530000Y-86995000D03*
X176530000Y-84495000D03*
X138430000Y-91440000D03*
X140970000Y-91440000D03*
X143510000Y-91440000D03*
X146050000Y-91440000D03*
X148590000Y-91440000D03*
X151130000Y-91440000D03*
X143860000Y-123825000D03*
X145860000Y-123825000D03*
X147860000Y-123825000D03*
X149860000Y-123825000D03*
X191135000Y-113030000D03*
X193675000Y-113030000D03*
X191135000Y-110490000D03*
X193675000Y-110490000D03*
X191135000Y-107950000D03*
X193675000Y-107950000D03*
X191135000Y-105410000D03*
X193675000Y-105410000D03*
X191135000Y-102870000D03*
X193675000Y-102870000D03*
X191135000Y-100330000D03*
X193675000Y-100330000D03*
X191135000Y-97790000D03*
X193675000Y-97790000D03*
X154940000Y-115570000D03*
X147320000Y-118110000D03*
X142240000Y-115570000D03*
M02*
