M48
;DRILL file {KiCad 4.0.7} date 
;FORMAT={3:3/ absolute / metric / suppress trailing zeros}
FMAT,2
METRIC,LZ
T1C0.400
T2C0.700
T3C0.750
T4C0.762
T5C0.900
T6C1.000
%
G90
G05
M71
T1
X10649Y-109931
X10668Y-09398
X10668Y-09906
X10668Y-102235
X10668Y-10668
X10795Y-08255
X10795Y-085725
X10795Y-090805
X108585Y-118745
X108585Y-12192
X109728Y-114554
X109855Y-109855
X109982Y-107442
X110046Y-112331
X11049Y-09271
X111125Y-111443
X112395Y-107569
X112522Y-11303
X11303Y-084455
X1143Y-08255
X1143Y-118745
X1143Y-12192
X1143Y-126365
X114935Y-089535
X114935Y-09271
X115443Y-111062
X115443Y-111887
X11557Y-097155
X116205Y-103505
X118745Y-084455
X118745Y-089535
X11938Y-08255
X11938Y-094615
X11938Y-098425
X11938Y-10668
X120015Y-10287
X120015Y-118745
X120015Y-12192
X120015Y-126365
X121349Y-11284
X122873Y-110617
X123825Y-089535
X123952Y-105347
X12446Y-094615
X12446Y-098425
X124777Y-11303
X125095Y-118745
X125095Y-12192
X125095Y-126365
X125222Y-108331
X12573Y-08255
X126365Y-084455
X126429Y-10287
X126556Y-112967
X127572Y-105791
X127953Y-112268
X128842Y-100584
X128905Y-089535
X12954Y-094615
X129667Y-110744
X129921Y-103632
X13081Y-08255
X13081Y-116205
X13081Y-118745
X13081Y-12192
X13081Y-126365
X130937Y-098362
X131636Y-110807
X131953Y-101346
X131953Y-10903
X132715Y-090805
X13335Y-084455
X133668Y-110871
X133795Y-09652
X133858Y-108902
X133921Y-099123
X134112Y-106743
X134493Y-095313
X135192Y-096266
X135255Y-097981
X135255Y-10033
X135573Y-109157
X1357Y-09906
X135826Y-110998
X136525Y-084455
X136525Y-116205
X136525Y-118745
X136525Y-12192
X136525Y-126365
X137859Y-09906
X137859Y-100662
X137986Y-110871
X138303Y-093663
X138303Y-094933
X138367Y-09652
X13843Y-08255
X138684Y-089091
X138938Y-098933
X139573Y-09652
X1397Y-084455
X1397Y-102459
X139764Y-095123
X140349Y-099187
X140526Y-101283
X140652Y-088579
X140974Y-098678
X141034Y-097218
X141098Y-099506
X141288Y-101664
X141605Y-11811
X141605Y-12192
X141605Y-126365
X141859Y-094361
X141859Y-095694
X141923Y-093345
X141943Y-102308
X141986Y-108477
X141986Y-109328
X14224Y-08255
X14224Y-088579
X142621Y-111379
X142875Y-084455
X143129Y-096139
X143778Y-098973
X144054Y-101434
X144082Y-092774
X144209Y-088579
X144336Y-112967
X14478Y-092393
X145288Y-111125
X145415Y-08255
X145503Y-100698
X145542Y-096329
X145732Y-107632
X145812Y-10344
X14609Y-106871
X146238Y-099631
X146368Y-11176
X146431Y-088226
X146685Y-096457
X14713Y-102616
X14713Y-105563
X147155Y-109771
X14732Y-095885
X147574Y-106871
X147955Y-101664
X148025Y-108971
X149225Y-08509
X149479Y-111569
X149796Y-107251
X14986Y-08255
X14986Y-110871
X14986Y-121602
X150051Y-104584
X150114Y-117031
X150177Y-109601
X15113Y-10541
X151194Y-116332
X151448Y-100076
X151448Y-120523
X151638Y-112268
X151638Y-117094
X152209Y-116078
X152209Y-123253
X152908Y-098616
X153035Y-12192
X153099Y-115126
X153162Y-083693
X153226Y-112395
X153416Y-105978
X15348Y-120523
X15367Y-11049
X153734Y-081597
X153861Y-123444
X153924Y-082868
X154178Y-096901
X154178Y-099759
X154496Y-108839
X154623Y-100648
X154813Y-096647
X154876Y-097409
X15494Y-099695
X155257Y-091948
X155511Y-081597
X155511Y-12211
X155575Y-095123
X155639Y-120459
X155702Y-103188
X155829Y-107378
X155829Y-110426
X155892Y-106299
X155892Y-108902
X155956Y-091186
X15621Y-091885
X15621Y-098806
X15621Y-10033
X15621Y-101981
X156401Y-097155
X156845Y-118427
X157417Y-091186
X157607Y-119634
X157671Y-081724
X157798Y-083122
X159016Y-096897
X159322Y-081597
X159512Y-083248
X159893Y-091186
X160655Y-095885
X161354Y-081597
X161544Y-091567
X162116Y-087058
X162243Y-093345
X162751Y-091567
X163005Y-095758
X163576Y-087058
X16383Y-091567
X16383Y-093345
X164021Y-081597
X1651Y-091567
X165164Y-087058
X16529Y-095758
X165735Y-093345
X16637Y-091567
X166751Y-081597
X166878Y-087058
X167449Y-093282
X167958Y-095758
X168402Y-087249
X168656Y-091123
X16891Y-082233
X169101Y-095758
X170117Y-095758
X170751Y-082296
X171006Y-091123
X171069Y-095758
X172103Y-095181
X172466Y-091313
X17272Y-09652
X172847Y-082106
X173165Y-092012
X173228Y-095123
X174625Y-091376
X174815Y-082804
X174815Y-084074
X175451Y-092075
X176276Y-091186
X17653Y-08255
X17907Y-08255
X17907Y-084455
X181928Y-094551
X18288Y-100965
X184594Y-092075
X184721Y-091123
X185611Y-091758
X185674Y-093027
X18796Y-094742
X188976Y-094488
X188976Y-095568
X189544Y-089758
X189621Y-090506
X19069Y-09525
X191135Y-096139
X19158Y-095187
T3
X14386Y-123825
X14586Y-123825
X14786Y-123825
X14986Y-123825
T4
X10842Y-0953
X10842Y-09784
X10842Y-10038
X10842Y-10292
X10842Y-10546
X10842Y-108
X10842Y-11054
X10842Y-11308
X10842Y-11562
T5
X17653Y-084495
X17653Y-086995
T6
X13843Y-09144
X14097Y-09144
X14224Y-11557
X14351Y-09144
X14605Y-09144
X14732Y-11811
X14859Y-09144
X15113Y-09144
X15494Y-11557
X191135Y-09779
X191135Y-10033
X191135Y-10287
X191135Y-10541
X191135Y-10795
X191135Y-11049
X191135Y-11303
X193675Y-09779
X193675Y-10033
X193675Y-10287
X193675Y-10541
X193675Y-10795
X193675Y-11049
X193675Y-11303
T2
X11117Y-08691G85X11117Y-08841
G05
X11117Y-12251G85X11117Y-12401
G05
T0
M30
