G04 #@! TF.FileFunction,Copper,L1,Top,Signal*
%FSLAX46Y46*%
G04 Gerber Fmt 4.6, Leading zero omitted, Abs format (unit mm)*
G04 Created by KiCad (PCBNEW 4.0.7) date *
%MOMM*%
%LPD*%
G01*
G04 APERTURE LIST*
%ADD10C,0.100000*%
%ADD11C,0.300000*%
%ADD12C,0.120000*%
%ADD13C,0.150000*%
G04 APERTURE END LIST*
D10*
X105240082Y-105457074D02*
X107240082Y-105457074D01*
D11*
X151745071Y-97615142D02*
X151030786Y-98115142D01*
X151745071Y-98472285D02*
X150245071Y-98472285D01*
X150245071Y-97900857D01*
X150316500Y-97757999D01*
X150387929Y-97686571D01*
X150530786Y-97615142D01*
X150745071Y-97615142D01*
X150887929Y-97686571D01*
X150959357Y-97757999D01*
X151030786Y-97900857D01*
X151030786Y-98472285D01*
X151673643Y-96400857D02*
X151745071Y-96543714D01*
X151745071Y-96829428D01*
X151673643Y-96972285D01*
X151530786Y-97043714D01*
X150959357Y-97043714D01*
X150816500Y-96972285D01*
X150745071Y-96829428D01*
X150745071Y-96543714D01*
X150816500Y-96400857D01*
X150959357Y-96329428D01*
X151102214Y-96329428D01*
X151245071Y-97043714D01*
X151673643Y-95758000D02*
X151745071Y-95615143D01*
X151745071Y-95329428D01*
X151673643Y-95186571D01*
X151530786Y-95115143D01*
X151459357Y-95115143D01*
X151316500Y-95186571D01*
X151245071Y-95329428D01*
X151245071Y-95543714D01*
X151173643Y-95686571D01*
X151030786Y-95758000D01*
X150959357Y-95758000D01*
X150816500Y-95686571D01*
X150745071Y-95543714D01*
X150745071Y-95329428D01*
X150816500Y-95186571D01*
X151673643Y-93900857D02*
X151745071Y-94043714D01*
X151745071Y-94329428D01*
X151673643Y-94472285D01*
X151530786Y-94543714D01*
X150959357Y-94543714D01*
X150816500Y-94472285D01*
X150745071Y-94329428D01*
X150745071Y-94043714D01*
X150816500Y-93900857D01*
X150959357Y-93829428D01*
X151102214Y-93829428D01*
X151245071Y-94543714D01*
X150745071Y-93400857D02*
X150745071Y-92829428D01*
X150245071Y-93186571D02*
X151530786Y-93186571D01*
X151673643Y-93115143D01*
X151745071Y-92972285D01*
X151745071Y-92829428D01*
X147768571Y-95122857D02*
X147768571Y-94265714D01*
X149268571Y-94694285D02*
X147768571Y-94694285D01*
X147768571Y-93908571D02*
X149268571Y-92908571D01*
X147768571Y-92908571D02*
X149268571Y-93908571D01*
X146792071Y-94356999D02*
X146077786Y-94856999D01*
X146792071Y-95214142D02*
X145292071Y-95214142D01*
X145292071Y-94642714D01*
X145363500Y-94499856D01*
X145434929Y-94428428D01*
X145577786Y-94356999D01*
X145792071Y-94356999D01*
X145934929Y-94428428D01*
X146006357Y-94499856D01*
X146077786Y-94642714D01*
X146077786Y-95214142D01*
X145292071Y-93856999D02*
X146792071Y-92856999D01*
X145292071Y-92856999D02*
X146792071Y-93856999D01*
X144188571Y-96023714D02*
X142688571Y-96023714D01*
X142688571Y-95666571D01*
X142760000Y-95452286D01*
X142902857Y-95309428D01*
X143045714Y-95238000D01*
X143331429Y-95166571D01*
X143545714Y-95166571D01*
X143831429Y-95238000D01*
X143974286Y-95309428D01*
X144117143Y-95452286D01*
X144188571Y-95666571D01*
X144188571Y-96023714D01*
X144188571Y-94523714D02*
X142688571Y-94523714D01*
X142688571Y-93523714D02*
X142688571Y-93238000D01*
X142760000Y-93095142D01*
X142902857Y-92952285D01*
X143188571Y-92880857D01*
X143688571Y-92880857D01*
X143974286Y-92952285D01*
X144117143Y-93095142D01*
X144188571Y-93238000D01*
X144188571Y-93523714D01*
X144117143Y-93666571D01*
X143974286Y-93809428D01*
X143688571Y-93880857D01*
X143188571Y-93880857D01*
X142902857Y-93809428D01*
X142760000Y-93666571D01*
X142688571Y-93523714D01*
X141505714Y-95444357D02*
X141577143Y-95515786D01*
X141648571Y-95730072D01*
X141648571Y-95872929D01*
X141577143Y-96087214D01*
X141434286Y-96230072D01*
X141291429Y-96301500D01*
X141005714Y-96372929D01*
X140791429Y-96372929D01*
X140505714Y-96301500D01*
X140362857Y-96230072D01*
X140220000Y-96087214D01*
X140148571Y-95872929D01*
X140148571Y-95730072D01*
X140220000Y-95515786D01*
X140291429Y-95444357D01*
X141648571Y-94087214D02*
X141648571Y-94801500D01*
X140148571Y-94801500D01*
X141648571Y-93587214D02*
X140148571Y-93587214D01*
X141648571Y-92730071D02*
X140791429Y-93372928D01*
X140148571Y-92730071D02*
X141005714Y-93587214D01*
X191135143Y-94881000D02*
X190992286Y-94809571D01*
X190778000Y-94809571D01*
X190563715Y-94881000D01*
X190420857Y-95023857D01*
X190349429Y-95166714D01*
X190278000Y-95452429D01*
X190278000Y-95666714D01*
X190349429Y-95952429D01*
X190420857Y-96095286D01*
X190563715Y-96238143D01*
X190778000Y-96309571D01*
X190920857Y-96309571D01*
X191135143Y-96238143D01*
X191206572Y-96166714D01*
X191206572Y-95666714D01*
X190920857Y-95666714D01*
X191849429Y-96309571D02*
X191849429Y-94809571D01*
X192706572Y-96309571D01*
X192706572Y-94809571D01*
X193420858Y-96309571D02*
X193420858Y-94809571D01*
X193778001Y-94809571D01*
X193992286Y-94881000D01*
X194135144Y-95023857D01*
X194206572Y-95166714D01*
X194278001Y-95452429D01*
X194278001Y-95666714D01*
X194206572Y-95952429D01*
X194135144Y-96095286D01*
X193992286Y-96238143D01*
X193778001Y-96309571D01*
X193420858Y-96309571D01*
X195096000Y-101199071D02*
X195096000Y-99699071D01*
X195453143Y-99699071D01*
X195667428Y-99770500D01*
X195810286Y-99913357D01*
X195881714Y-100056214D01*
X195953143Y-100341929D01*
X195953143Y-100556214D01*
X195881714Y-100841929D01*
X195810286Y-100984786D01*
X195667428Y-101127643D01*
X195453143Y-101199071D01*
X195096000Y-101199071D01*
X196596000Y-101199071D02*
X196596000Y-99699071D01*
X198167429Y-101199071D02*
X197667429Y-100484786D01*
X197310286Y-101199071D02*
X197310286Y-99699071D01*
X197881714Y-99699071D01*
X198024572Y-99770500D01*
X198096000Y-99841929D01*
X198167429Y-99984786D01*
X198167429Y-100199071D01*
X198096000Y-100341929D01*
X198024572Y-100413357D01*
X197881714Y-100484786D01*
X197310286Y-100484786D01*
X195159500Y-103612071D02*
X195159500Y-102112071D01*
X195516643Y-102112071D01*
X195730928Y-102183500D01*
X195873786Y-102326357D01*
X195945214Y-102469214D01*
X196016643Y-102754929D01*
X196016643Y-102969214D01*
X195945214Y-103254929D01*
X195873786Y-103397786D01*
X195730928Y-103540643D01*
X195516643Y-103612071D01*
X195159500Y-103612071D01*
X196659500Y-103612071D02*
X196659500Y-102112071D01*
X198230929Y-103612071D02*
X197730929Y-102897786D01*
X197373786Y-103612071D02*
X197373786Y-102112071D01*
X197945214Y-102112071D01*
X198088072Y-102183500D01*
X198159500Y-102254929D01*
X198230929Y-102397786D01*
X198230929Y-102612071D01*
X198159500Y-102754929D01*
X198088072Y-102826357D01*
X197945214Y-102897786D01*
X197373786Y-102897786D01*
X182249429Y-101072071D02*
X182249429Y-99572071D01*
X182749429Y-100643500D01*
X183249429Y-99572071D01*
X183249429Y-101072071D01*
X183892286Y-99714929D02*
X183963715Y-99643500D01*
X184106572Y-99572071D01*
X184463715Y-99572071D01*
X184606572Y-99643500D01*
X184678001Y-99714929D01*
X184749429Y-99857786D01*
X184749429Y-100000643D01*
X184678001Y-100214929D01*
X183820858Y-101072071D01*
X184749429Y-101072071D01*
X185392286Y-101072071D02*
X185392286Y-99572071D01*
X185963714Y-99572071D01*
X186106572Y-99643500D01*
X186178000Y-99714929D01*
X186249429Y-99857786D01*
X186249429Y-100072071D01*
X186178000Y-100214929D01*
X186106572Y-100286357D01*
X185963714Y-100357786D01*
X185392286Y-100357786D01*
X186749429Y-99572071D02*
X187106572Y-101072071D01*
X187392286Y-100000643D01*
X187678000Y-101072071D01*
X188035143Y-99572071D01*
X188606572Y-101072071D02*
X188606572Y-99572071D01*
X189106572Y-100643500D01*
X189606572Y-99572071D01*
X189606572Y-101072071D01*
X182249429Y-103612071D02*
X182249429Y-102112071D01*
X182749429Y-103183500D01*
X183249429Y-102112071D01*
X183249429Y-103612071D01*
X184749429Y-103612071D02*
X183892286Y-103612071D01*
X184320858Y-103612071D02*
X184320858Y-102112071D01*
X184178001Y-102326357D01*
X184035143Y-102469214D01*
X183892286Y-102540643D01*
X185392286Y-103612071D02*
X185392286Y-102112071D01*
X185963714Y-102112071D01*
X186106572Y-102183500D01*
X186178000Y-102254929D01*
X186249429Y-102397786D01*
X186249429Y-102612071D01*
X186178000Y-102754929D01*
X186106572Y-102826357D01*
X185963714Y-102897786D01*
X185392286Y-102897786D01*
X186749429Y-102112071D02*
X187106572Y-103612071D01*
X187392286Y-102540643D01*
X187678000Y-103612071D01*
X188035143Y-102112071D01*
X188606572Y-103612071D02*
X188606572Y-102112071D01*
X189106572Y-103183500D01*
X189606572Y-102112071D01*
X189606572Y-103612071D01*
X181979571Y-108565071D02*
X181979571Y-107065071D01*
X181979571Y-107779357D02*
X182836714Y-107779357D01*
X182836714Y-108565071D02*
X182836714Y-107065071D01*
X183765286Y-108565071D02*
X183622428Y-108493643D01*
X183551000Y-108422214D01*
X183479571Y-108279357D01*
X183479571Y-107850786D01*
X183551000Y-107707929D01*
X183622428Y-107636500D01*
X183765286Y-107565071D01*
X183979571Y-107565071D01*
X184122428Y-107636500D01*
X184193857Y-107707929D01*
X184265286Y-107850786D01*
X184265286Y-108279357D01*
X184193857Y-108422214D01*
X184122428Y-108493643D01*
X183979571Y-108565071D01*
X183765286Y-108565071D01*
X184836714Y-108493643D02*
X184979571Y-108565071D01*
X185265286Y-108565071D01*
X185408143Y-108493643D01*
X185479571Y-108350786D01*
X185479571Y-108279357D01*
X185408143Y-108136500D01*
X185265286Y-108065071D01*
X185051000Y-108065071D01*
X184908143Y-107993643D01*
X184836714Y-107850786D01*
X184836714Y-107779357D01*
X184908143Y-107636500D01*
X185051000Y-107565071D01*
X185265286Y-107565071D01*
X185408143Y-107636500D01*
X185908143Y-107565071D02*
X186479572Y-107565071D01*
X186122429Y-107065071D02*
X186122429Y-108350786D01*
X186193857Y-108493643D01*
X186336715Y-108565071D01*
X186479572Y-108565071D01*
X186979572Y-108565071D02*
X186979572Y-107065071D01*
X187336715Y-107065071D01*
X187551000Y-107136500D01*
X187693858Y-107279357D01*
X187765286Y-107422214D01*
X187836715Y-107707929D01*
X187836715Y-107922214D01*
X187765286Y-108207929D01*
X187693858Y-108350786D01*
X187551000Y-108493643D01*
X187336715Y-108565071D01*
X186979572Y-108565071D01*
X188479572Y-107993643D02*
X189622429Y-107993643D01*
X189051000Y-108565071D02*
X189051000Y-107422214D01*
X182106571Y-106025071D02*
X182106571Y-104525071D01*
X182106571Y-105239357D02*
X182963714Y-105239357D01*
X182963714Y-106025071D02*
X182963714Y-104525071D01*
X183892286Y-106025071D02*
X183749428Y-105953643D01*
X183678000Y-105882214D01*
X183606571Y-105739357D01*
X183606571Y-105310786D01*
X183678000Y-105167929D01*
X183749428Y-105096500D01*
X183892286Y-105025071D01*
X184106571Y-105025071D01*
X184249428Y-105096500D01*
X184320857Y-105167929D01*
X184392286Y-105310786D01*
X184392286Y-105739357D01*
X184320857Y-105882214D01*
X184249428Y-105953643D01*
X184106571Y-106025071D01*
X183892286Y-106025071D01*
X184963714Y-105953643D02*
X185106571Y-106025071D01*
X185392286Y-106025071D01*
X185535143Y-105953643D01*
X185606571Y-105810786D01*
X185606571Y-105739357D01*
X185535143Y-105596500D01*
X185392286Y-105525071D01*
X185178000Y-105525071D01*
X185035143Y-105453643D01*
X184963714Y-105310786D01*
X184963714Y-105239357D01*
X185035143Y-105096500D01*
X185178000Y-105025071D01*
X185392286Y-105025071D01*
X185535143Y-105096500D01*
X186035143Y-105025071D02*
X186606572Y-105025071D01*
X186249429Y-104525071D02*
X186249429Y-105810786D01*
X186320857Y-105953643D01*
X186463715Y-106025071D01*
X186606572Y-106025071D01*
X187106572Y-106025071D02*
X187106572Y-104525071D01*
X187463715Y-104525071D01*
X187678000Y-104596500D01*
X187820858Y-104739357D01*
X187892286Y-104882214D01*
X187963715Y-105167929D01*
X187963715Y-105382214D01*
X187892286Y-105667929D01*
X187820858Y-105810786D01*
X187678000Y-105953643D01*
X187463715Y-106025071D01*
X187106572Y-106025071D01*
X188606572Y-105453643D02*
X189749429Y-105453643D01*
X195147572Y-106152071D02*
X195147572Y-104652071D01*
X195504715Y-104652071D01*
X195719000Y-104723500D01*
X195861858Y-104866357D01*
X195933286Y-105009214D01*
X196004715Y-105294929D01*
X196004715Y-105509214D01*
X195933286Y-105794929D01*
X195861858Y-105937786D01*
X195719000Y-106080643D01*
X195504715Y-106152071D01*
X195147572Y-106152071D01*
X196647572Y-105580643D02*
X197790429Y-105580643D01*
X197219000Y-106152071D02*
X197219000Y-105009214D01*
X195147572Y-108755571D02*
X195147572Y-107255571D01*
X195504715Y-107255571D01*
X195719000Y-107327000D01*
X195861858Y-107469857D01*
X195933286Y-107612714D01*
X196004715Y-107898429D01*
X196004715Y-108112714D01*
X195933286Y-108398429D01*
X195861858Y-108541286D01*
X195719000Y-108684143D01*
X195504715Y-108755571D01*
X195147572Y-108755571D01*
X196647572Y-108184143D02*
X197790429Y-108184143D01*
X184321000Y-109732071D02*
X184821000Y-111232071D01*
X185321000Y-109732071D01*
X186321000Y-110446357D02*
X186535286Y-110517786D01*
X186606714Y-110589214D01*
X186678143Y-110732071D01*
X186678143Y-110946357D01*
X186606714Y-111089214D01*
X186535286Y-111160643D01*
X186392428Y-111232071D01*
X185821000Y-111232071D01*
X185821000Y-109732071D01*
X186321000Y-109732071D01*
X186463857Y-109803500D01*
X186535286Y-109874929D01*
X186606714Y-110017786D01*
X186606714Y-110160643D01*
X186535286Y-110303500D01*
X186463857Y-110374929D01*
X186321000Y-110446357D01*
X185821000Y-110446357D01*
X187321000Y-109732071D02*
X187321000Y-110946357D01*
X187392428Y-111089214D01*
X187463857Y-111160643D01*
X187606714Y-111232071D01*
X187892428Y-111232071D01*
X188035286Y-111160643D01*
X188106714Y-111089214D01*
X188178143Y-110946357D01*
X188178143Y-109732071D01*
X188821000Y-111160643D02*
X189035286Y-111232071D01*
X189392429Y-111232071D01*
X189535286Y-111160643D01*
X189606715Y-111089214D01*
X189678143Y-110946357D01*
X189678143Y-110803500D01*
X189606715Y-110660643D01*
X189535286Y-110589214D01*
X189392429Y-110517786D01*
X189106715Y-110446357D01*
X188963857Y-110374929D01*
X188892429Y-110303500D01*
X188821000Y-110160643D01*
X188821000Y-110017786D01*
X188892429Y-109874929D01*
X188963857Y-109803500D01*
X189106715Y-109732071D01*
X189463857Y-109732071D01*
X189678143Y-109803500D01*
X196056287Y-109732071D02*
X195342001Y-109732071D01*
X195270572Y-110446357D01*
X195342001Y-110374929D01*
X195484858Y-110303500D01*
X195842001Y-110303500D01*
X195984858Y-110374929D01*
X196056287Y-110446357D01*
X196127715Y-110589214D01*
X196127715Y-110946357D01*
X196056287Y-111089214D01*
X195984858Y-111160643D01*
X195842001Y-111232071D01*
X195484858Y-111232071D01*
X195342001Y-111160643D01*
X195270572Y-111089214D01*
X196556286Y-109732071D02*
X197056286Y-111232071D01*
X197556286Y-109732071D01*
X188853358Y-115613643D02*
X189996215Y-115613643D01*
X189424786Y-116185071D02*
X189424786Y-115042214D01*
X191210501Y-115399357D02*
X191424787Y-115470786D01*
X191496215Y-115542214D01*
X191567644Y-115685071D01*
X191567644Y-115899357D01*
X191496215Y-116042214D01*
X191424787Y-116113643D01*
X191281929Y-116185071D01*
X190710501Y-116185071D01*
X190710501Y-114685071D01*
X191210501Y-114685071D01*
X191353358Y-114756500D01*
X191424787Y-114827929D01*
X191496215Y-114970786D01*
X191496215Y-115113643D01*
X191424787Y-115256500D01*
X191353358Y-115327929D01*
X191210501Y-115399357D01*
X190710501Y-115399357D01*
X192139072Y-115756500D02*
X192853358Y-115756500D01*
X191996215Y-116185071D02*
X192496215Y-114685071D01*
X192996215Y-116185071D01*
X193281929Y-114685071D02*
X194139072Y-114685071D01*
X193710501Y-116185071D02*
X193710501Y-114685071D01*
X194424786Y-114685071D02*
X195281929Y-114685071D01*
X194853358Y-116185071D02*
X194853358Y-114685071D01*
X149300500Y-121538857D02*
X149229071Y-121681714D01*
X149229071Y-121896000D01*
X149300500Y-122110285D01*
X149443357Y-122253143D01*
X149586214Y-122324571D01*
X149871929Y-122396000D01*
X150086214Y-122396000D01*
X150371929Y-122324571D01*
X150514786Y-122253143D01*
X150657643Y-122110285D01*
X150729071Y-121896000D01*
X150729071Y-121753143D01*
X150657643Y-121538857D01*
X150586214Y-121467428D01*
X150086214Y-121467428D01*
X150086214Y-121753143D01*
X150729071Y-120824571D02*
X149229071Y-120824571D01*
X150729071Y-119967428D01*
X149229071Y-119967428D01*
X150729071Y-119253142D02*
X149229071Y-119253142D01*
X149229071Y-118895999D01*
X149300500Y-118681714D01*
X149443357Y-118538856D01*
X149586214Y-118467428D01*
X149871929Y-118395999D01*
X150086214Y-118395999D01*
X150371929Y-118467428D01*
X150514786Y-118538856D01*
X150657643Y-118681714D01*
X150729071Y-118895999D01*
X150729071Y-119253142D01*
X146474571Y-122352428D02*
X144974571Y-122352428D01*
X144974571Y-121995285D01*
X145046000Y-121781000D01*
X145188857Y-121638142D01*
X145331714Y-121566714D01*
X145617429Y-121495285D01*
X145831714Y-121495285D01*
X146117429Y-121566714D01*
X146260286Y-121638142D01*
X146403143Y-121781000D01*
X146474571Y-121995285D01*
X146474571Y-122352428D01*
X145903143Y-120852428D02*
X145903143Y-119709571D01*
X148570071Y-122415928D02*
X147070071Y-122415928D01*
X147070071Y-122058785D01*
X147141500Y-121844500D01*
X147284357Y-121701642D01*
X147427214Y-121630214D01*
X147712929Y-121558785D01*
X147927214Y-121558785D01*
X148212929Y-121630214D01*
X148355786Y-121701642D01*
X148498643Y-121844500D01*
X148570071Y-122058785D01*
X148570071Y-122415928D01*
X147998643Y-120915928D02*
X147998643Y-119773071D01*
X148570071Y-120344500D02*
X147427214Y-120344500D01*
X143133071Y-122066500D02*
X144633071Y-121566500D01*
X143133071Y-121066500D01*
X143847357Y-120066500D02*
X143918786Y-119852214D01*
X143990214Y-119780786D01*
X144133071Y-119709357D01*
X144347357Y-119709357D01*
X144490214Y-119780786D01*
X144561643Y-119852214D01*
X144633071Y-119995072D01*
X144633071Y-120566500D01*
X143133071Y-120566500D01*
X143133071Y-120066500D01*
X143204500Y-119923643D01*
X143275929Y-119852214D01*
X143418786Y-119780786D01*
X143561643Y-119780786D01*
X143704500Y-119852214D01*
X143775929Y-119923643D01*
X143847357Y-120066500D01*
X143847357Y-120566500D01*
X143133071Y-119066500D02*
X144347357Y-119066500D01*
X144490214Y-118995072D01*
X144561643Y-118923643D01*
X144633071Y-118780786D01*
X144633071Y-118495072D01*
X144561643Y-118352214D01*
X144490214Y-118280786D01*
X144347357Y-118209357D01*
X143133071Y-118209357D01*
X144561643Y-117566500D02*
X144633071Y-117352214D01*
X144633071Y-116995071D01*
X144561643Y-116852214D01*
X144490214Y-116780785D01*
X144347357Y-116709357D01*
X144204500Y-116709357D01*
X144061643Y-116780785D01*
X143990214Y-116852214D01*
X143918786Y-116995071D01*
X143847357Y-117280785D01*
X143775929Y-117423643D01*
X143704500Y-117495071D01*
X143561643Y-117566500D01*
X143418786Y-117566500D01*
X143275929Y-117495071D01*
X143204500Y-117423643D01*
X143133071Y-117280785D01*
X143133071Y-116923643D01*
X143204500Y-116709357D01*
X136283000Y-84835857D02*
X136211571Y-84978714D01*
X136211571Y-85193000D01*
X136283000Y-85407285D01*
X136425857Y-85550143D01*
X136568714Y-85621571D01*
X136854429Y-85693000D01*
X137068714Y-85693000D01*
X137354429Y-85621571D01*
X137497286Y-85550143D01*
X137640143Y-85407285D01*
X137711571Y-85193000D01*
X137711571Y-85050143D01*
X137640143Y-84835857D01*
X137568714Y-84764428D01*
X137068714Y-84764428D01*
X137068714Y-85050143D01*
X137711571Y-84121571D02*
X136211571Y-84121571D01*
X137711571Y-83264428D01*
X136211571Y-83264428D01*
X137711571Y-82550142D02*
X136211571Y-82550142D01*
X136211571Y-82192999D01*
X136283000Y-81978714D01*
X136425857Y-81835856D01*
X136568714Y-81764428D01*
X136854429Y-81692999D01*
X137068714Y-81692999D01*
X137354429Y-81764428D01*
X137497286Y-81835856D01*
X137640143Y-81978714D01*
X137711571Y-82192999D01*
X137711571Y-82550142D01*
X167068572Y-84562143D02*
X168211429Y-84562143D01*
X179133572Y-83927143D02*
X180276429Y-83927143D01*
X179133572Y-87737143D02*
X180276429Y-87737143D01*
X179705000Y-88308571D02*
X179705000Y-87165714D01*
X167068572Y-87102143D02*
X168211429Y-87102143D01*
X167640000Y-87673571D02*
X167640000Y-86530714D01*
D10*
X117320000Y-87360000D02*
G75*
G02X118320000Y-86360000I1000000J0D01*
G01*
X129140000Y-86360000D02*
G75*
G02X130140000Y-87360000I0J-1000000D01*
G01*
X117320000Y-87360000D02*
X117320000Y-123560000D01*
X118318255Y-124559998D02*
G75*
G02X117320000Y-123560000I1745J999998D01*
G01*
X107370000Y-84160000D02*
X107870000Y-83660000D01*
X107370000Y-126760000D02*
X107370000Y-84160000D01*
X130140000Y-123560000D02*
G75*
G02X129140000Y-124560000I-1000000J0D01*
G01*
X132340000Y-83660000D02*
X107870000Y-83660000D01*
X132840000Y-84160000D02*
X132840000Y-126760000D01*
X132340000Y-127260000D02*
X107870000Y-127260000D01*
X129140000Y-86360000D02*
X118320000Y-86360000D01*
X132840000Y-126760000D02*
X132340000Y-127260000D01*
X132340000Y-83660000D02*
X132840000Y-84160000D01*
X107870000Y-127260000D02*
X107370000Y-126760000D01*
X130140000Y-87360000D02*
X130140000Y-123560000D01*
X129140000Y-124560000D02*
X118320000Y-124560000D01*
D12*
X175980000Y-88145000D02*
X178180000Y-88145000D01*
X178180000Y-88145000D02*
X178180000Y-89645000D01*
X178180000Y-89645000D02*
X169680000Y-89645000D01*
X169680000Y-89645000D02*
X169680000Y-81845000D01*
X169680000Y-81845000D02*
X178180000Y-81845000D01*
X178180000Y-81845000D02*
X178180000Y-83345000D01*
X178180000Y-83345000D02*
X175980000Y-83345000D01*
X171180000Y-89645000D02*
X171180000Y-88145000D01*
X171180000Y-88145000D02*
X175980000Y-88145000D01*
X175980000Y-88145000D02*
X175980000Y-89645000D01*
X171180000Y-81845000D02*
X171180000Y-83345000D01*
X171180000Y-83345000D02*
X175980000Y-83345000D01*
X175980000Y-83345000D02*
X175980000Y-81845000D01*
X174030000Y-88145000D02*
X174030000Y-83345000D01*
X175030000Y-88145000D02*
X175030000Y-83345000D01*
X174030000Y-86995000D02*
X174030000Y-87315000D01*
X174030000Y-87315000D02*
X170610000Y-87315000D01*
X170610000Y-87315000D02*
X170530000Y-86995000D01*
X170530000Y-86995000D02*
X170610000Y-86675000D01*
X170610000Y-86675000D02*
X174030000Y-86675000D01*
X174030000Y-86675000D02*
X174030000Y-86995000D01*
X174030000Y-84495000D02*
X174030000Y-84815000D01*
X174030000Y-84815000D02*
X170610000Y-84815000D01*
X170610000Y-84815000D02*
X170530000Y-84495000D01*
X170530000Y-84495000D02*
X170610000Y-84175000D01*
X170610000Y-84175000D02*
X174030000Y-84175000D01*
X174030000Y-84175000D02*
X174030000Y-84495000D01*
X178030000Y-86995000D02*
X178630000Y-87295000D01*
X178630000Y-87295000D02*
X178630000Y-86695000D01*
X178630000Y-86695000D02*
X178030000Y-86995000D01*
X137100000Y-90000000D02*
X152460000Y-90000000D01*
X152460000Y-90000000D02*
X152460000Y-87340000D01*
X152460000Y-87340000D02*
X137100000Y-87340000D01*
X137100000Y-87340000D02*
X137100000Y-90000000D01*
X138050000Y-87340000D02*
X138050000Y-81340000D01*
X138050000Y-81340000D02*
X138810000Y-81340000D01*
X138810000Y-81340000D02*
X138810000Y-87340000D01*
X138110000Y-87340000D02*
X138110000Y-81340000D01*
X138230000Y-87340000D02*
X138230000Y-81340000D01*
X138350000Y-87340000D02*
X138350000Y-81340000D01*
X138470000Y-87340000D02*
X138470000Y-81340000D01*
X138590000Y-87340000D02*
X138590000Y-81340000D01*
X138710000Y-87340000D02*
X138710000Y-81340000D01*
X138050000Y-90330000D02*
X138050000Y-90000000D01*
X138810000Y-90330000D02*
X138810000Y-90000000D01*
X139700000Y-90000000D02*
X139700000Y-87340000D01*
X140590000Y-87340000D02*
X140590000Y-81340000D01*
X140590000Y-81340000D02*
X141350000Y-81340000D01*
X141350000Y-81340000D02*
X141350000Y-87340000D01*
X140590000Y-90397071D02*
X140590000Y-90000000D01*
X141350000Y-90397071D02*
X141350000Y-90000000D01*
X142240000Y-90000000D02*
X142240000Y-87340000D01*
X143130000Y-87340000D02*
X143130000Y-81340000D01*
X143130000Y-81340000D02*
X143890000Y-81340000D01*
X143890000Y-81340000D02*
X143890000Y-87340000D01*
X143130000Y-90397071D02*
X143130000Y-90000000D01*
X143890000Y-90397071D02*
X143890000Y-90000000D01*
X144780000Y-90000000D02*
X144780000Y-87340000D01*
X145670000Y-87340000D02*
X145670000Y-81340000D01*
X145670000Y-81340000D02*
X146430000Y-81340000D01*
X146430000Y-81340000D02*
X146430000Y-87340000D01*
X145670000Y-90397071D02*
X145670000Y-90000000D01*
X146430000Y-90397071D02*
X146430000Y-90000000D01*
X147320000Y-90000000D02*
X147320000Y-87340000D01*
X148210000Y-87340000D02*
X148210000Y-81340000D01*
X148210000Y-81340000D02*
X148970000Y-81340000D01*
X148970000Y-81340000D02*
X148970000Y-87340000D01*
X148210000Y-90397071D02*
X148210000Y-90000000D01*
X148970000Y-90397071D02*
X148970000Y-90000000D01*
X149860000Y-90000000D02*
X149860000Y-87340000D01*
X150750000Y-87340000D02*
X150750000Y-81340000D01*
X150750000Y-81340000D02*
X151510000Y-81340000D01*
X151510000Y-81340000D02*
X151510000Y-87340000D01*
X150750000Y-90397071D02*
X150750000Y-90000000D01*
X151510000Y-90397071D02*
X151510000Y-90000000D01*
X138430000Y-92710000D02*
X137160000Y-92710000D01*
X137160000Y-92710000D02*
X137160000Y-91440000D01*
X144360000Y-130175000D02*
X144360000Y-125825000D01*
X144360000Y-125825000D02*
X149360000Y-125825000D01*
X149360000Y-125825000D02*
X149360000Y-130175000D01*
X143060000Y-123975000D02*
X142710000Y-123975000D01*
X142710000Y-123975000D02*
X142710000Y-122375000D01*
X142710000Y-122375000D02*
X141810000Y-122375000D01*
X141810000Y-122375000D02*
X141810000Y-130175000D01*
X141810000Y-130175000D02*
X151910000Y-130175000D01*
X151910000Y-130175000D02*
X151910000Y-122375000D01*
X151910000Y-122375000D02*
X151010000Y-122375000D01*
X151010000Y-122375000D02*
X151010000Y-123975000D01*
X151010000Y-123975000D02*
X150660000Y-123975000D01*
X141810000Y-123975000D02*
X142710000Y-123975000D01*
X151910000Y-123975000D02*
X151010000Y-123975000D01*
X142560000Y-126325000D02*
X142560000Y-127925000D01*
X142560000Y-127925000D02*
X143560000Y-127925000D01*
X143560000Y-127925000D02*
X143560000Y-126325000D01*
X143560000Y-126325000D02*
X142560000Y-126325000D01*
X151160000Y-126325000D02*
X151160000Y-127925000D01*
X151160000Y-127925000D02*
X150160000Y-127925000D01*
X150160000Y-127925000D02*
X150160000Y-126325000D01*
X150160000Y-126325000D02*
X151160000Y-126325000D01*
X143560000Y-127925000D02*
X143560000Y-130175000D01*
X143060000Y-127925000D02*
X143060000Y-130175000D01*
X143060000Y-123975000D02*
X143060000Y-122775000D01*
D13*
X105332381Y-106221905D02*
X106141905Y-106221905D01*
X106237143Y-106174286D01*
X106284762Y-106126667D01*
X106332381Y-106031429D01*
X106332381Y-105840952D01*
X106284762Y-105745714D01*
X106237143Y-105698095D01*
X106141905Y-105650476D01*
X105332381Y-105650476D01*
X105332381Y-104698095D02*
X105332381Y-105174286D01*
X105808571Y-105221905D01*
X105760952Y-105174286D01*
X105713333Y-105079048D01*
X105713333Y-104840952D01*
X105760952Y-104745714D01*
X105808571Y-104698095D01*
X105903810Y-104650476D01*
X106141905Y-104650476D01*
X106237143Y-104698095D01*
X106284762Y-104745714D01*
X106332381Y-104840952D01*
X106332381Y-105079048D01*
X106284762Y-105174286D01*
X106237143Y-105221905D01*
X178982381Y-86078333D02*
X179696667Y-86078333D01*
X179839524Y-86125953D01*
X179934762Y-86221191D01*
X179982381Y-86364048D01*
X179982381Y-86459286D01*
X179982381Y-85078333D02*
X179982381Y-85649762D01*
X179982381Y-85364048D02*
X178982381Y-85364048D01*
X179125238Y-85459286D01*
X179220476Y-85554524D01*
X179268095Y-85649762D01*
X136612381Y-93995833D02*
X137326667Y-93995833D01*
X137469524Y-94043453D01*
X137564762Y-94138691D01*
X137612381Y-94281548D01*
X137612381Y-94376786D01*
X136707619Y-93567262D02*
X136660000Y-93519643D01*
X136612381Y-93424405D01*
X136612381Y-93186309D01*
X136660000Y-93091071D01*
X136707619Y-93043452D01*
X136802857Y-92995833D01*
X136898095Y-92995833D01*
X137040952Y-93043452D01*
X137612381Y-93614881D01*
X137612381Y-92995833D01*
X152701667Y-126388881D02*
X152701667Y-127103167D01*
X152654047Y-127246024D01*
X152558809Y-127341262D01*
X152415952Y-127388881D01*
X152320714Y-127388881D01*
X153082619Y-126388881D02*
X153701667Y-126388881D01*
X153368333Y-126769833D01*
X153511191Y-126769833D01*
X153606429Y-126817452D01*
X153654048Y-126865071D01*
X153701667Y-126960310D01*
X153701667Y-127198405D01*
X153654048Y-127293643D01*
X153606429Y-127341262D01*
X153511191Y-127388881D01*
X153225476Y-127388881D01*
X153130238Y-127341262D01*
X153082619Y-127293643D01*
M02*
