G04 #@! TF.FileFunction,Profile,NP*
%FSLAX46Y46*%
G04 Gerber Fmt 4.6, Leading zero omitted, Abs format (unit mm)*
G04 Created by KiCad (PCBNEW 4.0.7) date *
%MOMM*%
%LPD*%
G01*
G04 APERTURE LIST*
%ADD10C,0.100000*%
%ADD11C,0.300000*%
%ADD12C,0.150000*%
%ADD13C,0.120000*%
G04 APERTURE END LIST*
D10*
D11*
X178498572Y-87102143D02*
X179641429Y-87102143D01*
X179070000Y-87673571D02*
X179070000Y-86530714D01*
X178498572Y-83292143D02*
X179641429Y-83292143D01*
D10*
X180276000Y-109665003D02*
X185355999Y-109665003D01*
X182816000Y-122365004D02*
X182816000Y-96965003D01*
D12*
X142015000Y-97210000D02*
X142015000Y-97735000D01*
X147265000Y-102460000D02*
X147265000Y-101935000D01*
X142015000Y-102460000D02*
X142015000Y-101935000D01*
X147265000Y-97210000D02*
X146740000Y-97210000D01*
X147265000Y-102460000D02*
X146740000Y-102460000D01*
X142015000Y-102460000D02*
X142540000Y-102460000D01*
X142015000Y-97210000D02*
X142540000Y-97210000D01*
D13*
X180210000Y-121890000D02*
X180210000Y-122420000D01*
X180210000Y-122420000D02*
X185410000Y-122420000D01*
X185410000Y-122420000D02*
X185410000Y-121890000D01*
X180210000Y-97430000D02*
X180210000Y-96900000D01*
X180210000Y-96900000D02*
X185410000Y-96900000D01*
X185410000Y-96900000D02*
X185410000Y-97430000D01*
X186830000Y-121890000D02*
X185410000Y-121890000D01*
X142005000Y-105057500D02*
X142705000Y-105057500D01*
X142705000Y-103857500D02*
X142005000Y-103857500D01*
X143680000Y-94199000D02*
X144380000Y-94199000D01*
X144380000Y-92999000D02*
X143680000Y-92999000D01*
X151730000Y-110725000D02*
X151730000Y-110025000D01*
X150530000Y-110025000D02*
X150530000Y-110725000D01*
X174205000Y-84860000D02*
X174205000Y-85860000D01*
X172505000Y-85860000D02*
X172505000Y-84860000D01*
X149190000Y-103855000D02*
X149190000Y-103155000D01*
X147990000Y-103155000D02*
X147990000Y-103855000D01*
X144380000Y-94650000D02*
X143680000Y-94650000D01*
X143680000Y-95850000D02*
X144380000Y-95850000D01*
X156425000Y-83590000D02*
X156425000Y-84590000D01*
X154725000Y-84590000D02*
X154725000Y-83590000D01*
X180305000Y-91040000D02*
X180305000Y-90340000D01*
X179105000Y-90340000D02*
X179105000Y-91040000D01*
X145880000Y-103857500D02*
X145180000Y-103857500D01*
X145180000Y-105057500D02*
X145880000Y-105057500D01*
X152893579Y-98071447D02*
X153388553Y-98566421D01*
X154237081Y-97717893D02*
X153742107Y-97222919D01*
X153951447Y-102802081D02*
X154446421Y-102307107D01*
X153597893Y-101458579D02*
X153102919Y-101953553D01*
X115170000Y-106310000D02*
X114470000Y-106310000D01*
X114470000Y-107510000D02*
X115170000Y-107510000D01*
X144491000Y-111399500D02*
X144491000Y-110699500D01*
X143291000Y-110699500D02*
X143291000Y-111399500D01*
X149395000Y-113376000D02*
X150095000Y-113376000D01*
X150095000Y-112176000D02*
X149395000Y-112176000D01*
X111525000Y-98390000D02*
X112225000Y-98390000D01*
X112225000Y-97190000D02*
X111525000Y-97190000D01*
X145815000Y-113376000D02*
X146515000Y-113376000D01*
X146515000Y-112176000D02*
X145815000Y-112176000D01*
X111725000Y-101835000D02*
X111725000Y-101135000D01*
X110525000Y-101135000D02*
X110525000Y-101835000D01*
X111725000Y-106915000D02*
X111725000Y-106215000D01*
X110525000Y-106215000D02*
X110525000Y-106915000D01*
X189805000Y-96460000D02*
X195005000Y-96460000D01*
X189805000Y-111760000D02*
X189805000Y-96460000D01*
X195005000Y-114360000D02*
X195005000Y-96460000D01*
X189805000Y-111760000D02*
X192405000Y-111760000D01*
X192405000Y-111760000D02*
X192405000Y-114360000D01*
X192405000Y-114360000D02*
X195005000Y-114360000D01*
X189805000Y-113030000D02*
X189805000Y-114360000D01*
X189805000Y-114360000D02*
X191135000Y-114360000D01*
X137421500Y-101649500D02*
X138351500Y-101649500D01*
X140581500Y-101649500D02*
X139651500Y-101649500D01*
X140581500Y-101649500D02*
X140581500Y-103809500D01*
X137421500Y-101649500D02*
X137421500Y-103109500D01*
X134310000Y-87235000D02*
X135240000Y-87235000D01*
X137470000Y-87235000D02*
X136540000Y-87235000D01*
X137470000Y-87235000D02*
X137470000Y-89395000D01*
X134310000Y-87235000D02*
X134310000Y-88695000D01*
X153879000Y-109978000D02*
X153879000Y-110978000D01*
X155239000Y-110978000D02*
X155239000Y-109978000D01*
X153461000Y-110938500D02*
X153461000Y-109938500D01*
X152101000Y-109938500D02*
X152101000Y-110938500D01*
X146705000Y-85770000D02*
X147705000Y-85770000D01*
X147705000Y-84410000D02*
X146705000Y-84410000D01*
X147705000Y-86315000D02*
X146705000Y-86315000D01*
X146705000Y-87675000D02*
X147705000Y-87675000D01*
X150450000Y-106930000D02*
X150450000Y-107930000D01*
X151810000Y-107930000D02*
X151810000Y-106930000D01*
X152355000Y-106930000D02*
X152355000Y-107930000D01*
X153715000Y-107930000D02*
X153715000Y-106930000D01*
X148840000Y-96565000D02*
X149840000Y-96565000D01*
X149840000Y-95205000D02*
X148840000Y-95205000D01*
X142195000Y-106116500D02*
X142195000Y-107116500D01*
X143555000Y-107116500D02*
X143555000Y-106116500D01*
X143973000Y-106128500D02*
X143973000Y-107128500D01*
X145333000Y-107128500D02*
X145333000Y-106128500D01*
X141713500Y-107128500D02*
X141713500Y-106128500D01*
X140353500Y-106128500D02*
X140353500Y-107128500D01*
X110445000Y-112645000D02*
X110445000Y-113645000D01*
X111805000Y-113645000D02*
X111805000Y-112645000D01*
X111805000Y-110355000D02*
X111805000Y-109355000D01*
X110445000Y-109355000D02*
X110445000Y-110355000D01*
X138880000Y-119315000D02*
X158051000Y-119315000D01*
X138880000Y-114364000D02*
X158051000Y-114364000D01*
X138880000Y-119315000D02*
X138880000Y-114364000D01*
X158051000Y-119315000D02*
X158051000Y-114364000D01*
X137360000Y-118080000D02*
X138879000Y-118080000D01*
X137360000Y-115600000D02*
X138879000Y-115600000D01*
X137360000Y-118080000D02*
X137360000Y-115600000D01*
X138879000Y-118080000D02*
X138879000Y-115600000D01*
X137360000Y-116840000D02*
X138120000Y-116840000D01*
D12*
X167304806Y-89535000D02*
G75*
G03X167304806Y-89535000I-2839806J0D01*
G01*
X169545000Y-84455000D02*
X158750000Y-84455000D01*
X158750000Y-95250000D02*
X169545000Y-95250000D01*
X158750000Y-95250000D02*
X158750000Y-84455000D01*
X169545000Y-95250000D02*
X158750000Y-95250000D01*
X169545000Y-84455000D02*
X169545000Y-95250000D01*
X186860000Y-88865000D02*
X186860000Y-88915000D01*
X182710000Y-88865000D02*
X182710000Y-89010000D01*
X182710000Y-94015000D02*
X182710000Y-93870000D01*
X186860000Y-94015000D02*
X186860000Y-93870000D01*
X186860000Y-88865000D02*
X182710000Y-88865000D01*
X186860000Y-94015000D02*
X182710000Y-94015000D01*
X186860000Y-88915000D02*
X188260000Y-88915000D01*
X118915000Y-108550000D02*
X118915000Y-108600000D01*
X114765000Y-108550000D02*
X114765000Y-108695000D01*
X114765000Y-113700000D02*
X114765000Y-113555000D01*
X118915000Y-113700000D02*
X118915000Y-113555000D01*
X118915000Y-108550000D02*
X114765000Y-108550000D01*
X118915000Y-113700000D02*
X114765000Y-113700000D01*
X118915000Y-108600000D02*
X120315000Y-108600000D01*
X149190000Y-110971000D02*
X149190000Y-110571000D01*
X149190000Y-110971000D02*
X148790000Y-110971000D01*
X145990000Y-110971000D02*
X145990000Y-110571000D01*
X145990000Y-110971000D02*
X146390000Y-110971000D01*
X145990000Y-107771000D02*
X145990000Y-108171000D01*
X145990000Y-107771000D02*
X146390000Y-107771000D01*
X149190000Y-107771000D02*
X148790000Y-107771000D01*
D13*
X148792359Y-99767513D02*
X151267233Y-97292639D01*
X151267233Y-97292639D02*
X154237081Y-100262487D01*
X111375000Y-95930000D02*
X112375000Y-95930000D01*
X112375000Y-94570000D02*
X111375000Y-94570000D01*
D12*
X141350905Y-96734381D02*
X141350905Y-97543905D01*
X141303286Y-97639143D01*
X141255667Y-97686762D01*
X141160429Y-97734381D01*
X140969952Y-97734381D01*
X140874714Y-97686762D01*
X140827095Y-97639143D01*
X140779476Y-97543905D01*
X140779476Y-96734381D01*
X140350905Y-96829619D02*
X140303286Y-96782000D01*
X140208048Y-96734381D01*
X139969952Y-96734381D01*
X139874714Y-96782000D01*
X139827095Y-96829619D01*
X139779476Y-96924857D01*
X139779476Y-97020095D01*
X139827095Y-97162952D01*
X140398524Y-97734381D01*
X139779476Y-97734381D01*
X183143333Y-122872381D02*
X183143333Y-123586667D01*
X183190953Y-123729524D01*
X183286191Y-123824762D01*
X183429048Y-123872381D01*
X183524286Y-123872381D01*
X182190952Y-122872381D02*
X182667143Y-122872381D01*
X182714762Y-123348571D01*
X182667143Y-123300952D01*
X182571905Y-123253333D01*
X182333809Y-123253333D01*
X182238571Y-123300952D01*
X182190952Y-123348571D01*
X182143333Y-123443810D01*
X182143333Y-123681905D01*
X182190952Y-123777143D01*
X182238571Y-123824762D01*
X182333809Y-123872381D01*
X182571905Y-123872381D01*
X182667143Y-123824762D01*
X182714762Y-123777143D01*
X143200357Y-103735143D02*
X143247976Y-103782762D01*
X143390833Y-103830381D01*
X143486071Y-103830381D01*
X143628929Y-103782762D01*
X143724167Y-103687524D01*
X143771786Y-103592286D01*
X143819405Y-103401810D01*
X143819405Y-103258952D01*
X143771786Y-103068476D01*
X143724167Y-102973238D01*
X143628929Y-102878000D01*
X143486071Y-102830381D01*
X143390833Y-102830381D01*
X143247976Y-102878000D01*
X143200357Y-102925619D01*
X142247976Y-103830381D02*
X142819405Y-103830381D01*
X142533691Y-103830381D02*
X142533691Y-102830381D01*
X142628929Y-102973238D01*
X142724167Y-103068476D01*
X142819405Y-103116095D01*
X141295595Y-103830381D02*
X141867024Y-103830381D01*
X141581310Y-103830381D02*
X141581310Y-102830381D01*
X141676548Y-102973238D01*
X141771786Y-103068476D01*
X141867024Y-103116095D01*
X141771666Y-93892643D02*
X141819285Y-93940262D01*
X141962142Y-93987881D01*
X142057380Y-93987881D01*
X142200238Y-93940262D01*
X142295476Y-93845024D01*
X142343095Y-93749786D01*
X142390714Y-93559310D01*
X142390714Y-93416452D01*
X142343095Y-93225976D01*
X142295476Y-93130738D01*
X142200238Y-93035500D01*
X142057380Y-92987881D01*
X141962142Y-92987881D01*
X141819285Y-93035500D01*
X141771666Y-93083119D01*
X140819285Y-93987881D02*
X141390714Y-93987881D01*
X141105000Y-93987881D02*
X141105000Y-92987881D01*
X141200238Y-93130738D01*
X141295476Y-93225976D01*
X141390714Y-93273595D01*
X150344143Y-110132834D02*
X150391762Y-110085215D01*
X150439381Y-109942358D01*
X150439381Y-109847120D01*
X150391762Y-109704262D01*
X150296524Y-109609024D01*
X150201286Y-109561405D01*
X150010810Y-109513786D01*
X149867952Y-109513786D01*
X149677476Y-109561405D01*
X149582238Y-109609024D01*
X149487000Y-109704262D01*
X149439381Y-109847120D01*
X149439381Y-109942358D01*
X149487000Y-110085215D01*
X149534619Y-110132834D01*
X149534619Y-110513786D02*
X149487000Y-110561405D01*
X149439381Y-110656643D01*
X149439381Y-110894739D01*
X149487000Y-110989977D01*
X149534619Y-111037596D01*
X149629857Y-111085215D01*
X149725095Y-111085215D01*
X149867952Y-111037596D01*
X150439381Y-110466167D01*
X150439381Y-111085215D01*
X175212143Y-85193334D02*
X175259762Y-85145715D01*
X175307381Y-85002858D01*
X175307381Y-84907620D01*
X175259762Y-84764762D01*
X175164524Y-84669524D01*
X175069286Y-84621905D01*
X174878810Y-84574286D01*
X174735952Y-84574286D01*
X174545476Y-84621905D01*
X174450238Y-84669524D01*
X174355000Y-84764762D01*
X174307381Y-84907620D01*
X174307381Y-85002858D01*
X174355000Y-85145715D01*
X174402619Y-85193334D01*
X174307381Y-85526667D02*
X174307381Y-86145715D01*
X174688333Y-85812381D01*
X174688333Y-85955239D01*
X174735952Y-86050477D01*
X174783571Y-86098096D01*
X174878810Y-86145715D01*
X175116905Y-86145715D01*
X175212143Y-86098096D01*
X175259762Y-86050477D01*
X175307381Y-85955239D01*
X175307381Y-85669524D01*
X175259762Y-85574286D01*
X175212143Y-85526667D01*
X147447143Y-103338334D02*
X147494762Y-103290715D01*
X147542381Y-103147858D01*
X147542381Y-103052620D01*
X147494762Y-102909762D01*
X147399524Y-102814524D01*
X147304286Y-102766905D01*
X147113810Y-102719286D01*
X146970952Y-102719286D01*
X146780476Y-102766905D01*
X146685238Y-102814524D01*
X146590000Y-102909762D01*
X146542381Y-103052620D01*
X146542381Y-103147858D01*
X146590000Y-103290715D01*
X146637619Y-103338334D01*
X146875714Y-104195477D02*
X147542381Y-104195477D01*
X146494762Y-103957381D02*
X147209048Y-103719286D01*
X147209048Y-104338334D01*
X141898666Y-95670643D02*
X141946285Y-95718262D01*
X142089142Y-95765881D01*
X142184380Y-95765881D01*
X142327238Y-95718262D01*
X142422476Y-95623024D01*
X142470095Y-95527786D01*
X142517714Y-95337310D01*
X142517714Y-95194452D01*
X142470095Y-95003976D01*
X142422476Y-94908738D01*
X142327238Y-94813500D01*
X142184380Y-94765881D01*
X142089142Y-94765881D01*
X141946285Y-94813500D01*
X141898666Y-94861119D01*
X140993904Y-94765881D02*
X141470095Y-94765881D01*
X141517714Y-95242071D01*
X141470095Y-95194452D01*
X141374857Y-95146833D01*
X141136761Y-95146833D01*
X141041523Y-95194452D01*
X140993904Y-95242071D01*
X140946285Y-95337310D01*
X140946285Y-95575405D01*
X140993904Y-95670643D01*
X141041523Y-95718262D01*
X141136761Y-95765881D01*
X141374857Y-95765881D01*
X141470095Y-95718262D01*
X141517714Y-95670643D01*
X157432143Y-83923334D02*
X157479762Y-83875715D01*
X157527381Y-83732858D01*
X157527381Y-83637620D01*
X157479762Y-83494762D01*
X157384524Y-83399524D01*
X157289286Y-83351905D01*
X157098810Y-83304286D01*
X156955952Y-83304286D01*
X156765476Y-83351905D01*
X156670238Y-83399524D01*
X156575000Y-83494762D01*
X156527381Y-83637620D01*
X156527381Y-83732858D01*
X156575000Y-83875715D01*
X156622619Y-83923334D01*
X156527381Y-84780477D02*
X156527381Y-84590000D01*
X156575000Y-84494762D01*
X156622619Y-84447143D01*
X156765476Y-84351905D01*
X156955952Y-84304286D01*
X157336905Y-84304286D01*
X157432143Y-84351905D01*
X157479762Y-84399524D01*
X157527381Y-84494762D01*
X157527381Y-84685239D01*
X157479762Y-84780477D01*
X157432143Y-84828096D01*
X157336905Y-84875715D01*
X157098810Y-84875715D01*
X157003571Y-84828096D01*
X156955952Y-84780477D01*
X156908333Y-84685239D01*
X156908333Y-84494762D01*
X156955952Y-84399524D01*
X157003571Y-84351905D01*
X157098810Y-84304286D01*
X178562143Y-90523334D02*
X178609762Y-90475715D01*
X178657381Y-90332858D01*
X178657381Y-90237620D01*
X178609762Y-90094762D01*
X178514524Y-89999524D01*
X178419286Y-89951905D01*
X178228810Y-89904286D01*
X178085952Y-89904286D01*
X177895476Y-89951905D01*
X177800238Y-89999524D01*
X177705000Y-90094762D01*
X177657381Y-90237620D01*
X177657381Y-90332858D01*
X177705000Y-90475715D01*
X177752619Y-90523334D01*
X177657381Y-90856667D02*
X177657381Y-91523334D01*
X178657381Y-91094762D01*
X147105666Y-106021143D02*
X147153285Y-106068762D01*
X147296142Y-106116381D01*
X147391380Y-106116381D01*
X147534238Y-106068762D01*
X147629476Y-105973524D01*
X147677095Y-105878286D01*
X147724714Y-105687810D01*
X147724714Y-105544952D01*
X147677095Y-105354476D01*
X147629476Y-105259238D01*
X147534238Y-105164000D01*
X147391380Y-105116381D01*
X147296142Y-105116381D01*
X147153285Y-105164000D01*
X147105666Y-105211619D01*
X146534238Y-105544952D02*
X146629476Y-105497333D01*
X146677095Y-105449714D01*
X146724714Y-105354476D01*
X146724714Y-105306857D01*
X146677095Y-105211619D01*
X146629476Y-105164000D01*
X146534238Y-105116381D01*
X146343761Y-105116381D01*
X146248523Y-105164000D01*
X146200904Y-105211619D01*
X146153285Y-105306857D01*
X146153285Y-105354476D01*
X146200904Y-105449714D01*
X146248523Y-105497333D01*
X146343761Y-105544952D01*
X146534238Y-105544952D01*
X146629476Y-105592571D01*
X146677095Y-105640190D01*
X146724714Y-105735429D01*
X146724714Y-105925905D01*
X146677095Y-106021143D01*
X146629476Y-106068762D01*
X146534238Y-106116381D01*
X146343761Y-106116381D01*
X146248523Y-106068762D01*
X146200904Y-106021143D01*
X146153285Y-105925905D01*
X146153285Y-105735429D01*
X146200904Y-105640190D01*
X146248523Y-105592571D01*
X146343761Y-105544952D01*
X151693812Y-96572889D02*
X151693812Y-96640232D01*
X151761156Y-96774919D01*
X151828499Y-96842263D01*
X151963187Y-96909607D01*
X152097874Y-96909607D01*
X152198889Y-96875935D01*
X152367247Y-96774920D01*
X152468263Y-96673904D01*
X152569278Y-96505545D01*
X152602950Y-96404530D01*
X152602950Y-96269843D01*
X152535606Y-96135156D01*
X152468263Y-96067812D01*
X152333576Y-96000469D01*
X152266232Y-96000469D01*
X151289752Y-96303515D02*
X151155065Y-96168828D01*
X151121393Y-96067812D01*
X151121393Y-96000469D01*
X151155064Y-95832110D01*
X151256079Y-95663752D01*
X151525454Y-95394377D01*
X151626469Y-95360706D01*
X151693812Y-95360706D01*
X151794828Y-95394377D01*
X151929515Y-95529065D01*
X151963187Y-95630080D01*
X151963187Y-95697424D01*
X151929515Y-95798439D01*
X151761157Y-95966797D01*
X151660141Y-96000469D01*
X151592797Y-96000470D01*
X151491782Y-95966798D01*
X151357095Y-95832110D01*
X151323423Y-95731095D01*
X151323424Y-95663751D01*
X151357095Y-95562736D01*
X154885107Y-103493470D02*
X154952450Y-103493470D01*
X155087137Y-103426126D01*
X155154481Y-103358783D01*
X155221825Y-103224095D01*
X155221825Y-103089408D01*
X155188153Y-102988393D01*
X155087138Y-102820035D01*
X154986122Y-102719019D01*
X154817763Y-102618004D01*
X154716748Y-102584332D01*
X154582061Y-102584332D01*
X154447374Y-102651676D01*
X154380030Y-102719019D01*
X154312687Y-102853706D01*
X154312687Y-102921050D01*
X154279015Y-104234248D02*
X154683076Y-103830187D01*
X154481046Y-104032217D02*
X153773939Y-103325110D01*
X153942298Y-103358782D01*
X154076985Y-103358782D01*
X154178000Y-103325110D01*
X153134176Y-103964874D02*
X153066832Y-104032218D01*
X153033160Y-104133233D01*
X153033160Y-104200576D01*
X153066832Y-104301592D01*
X153167847Y-104469950D01*
X153336206Y-104638310D01*
X153504565Y-104739325D01*
X153605580Y-104772996D01*
X153672924Y-104772996D01*
X153773939Y-104739325D01*
X153841283Y-104671981D01*
X153874955Y-104570965D01*
X153874955Y-104503622D01*
X153841283Y-104402607D01*
X153740268Y-104234248D01*
X153571908Y-104065889D01*
X153403550Y-103964874D01*
X153302535Y-103931202D01*
X153235191Y-103931202D01*
X153134176Y-103964874D01*
X115577857Y-105767143D02*
X115625476Y-105814762D01*
X115768333Y-105862381D01*
X115863571Y-105862381D01*
X116006429Y-105814762D01*
X116101667Y-105719524D01*
X116149286Y-105624286D01*
X116196905Y-105433810D01*
X116196905Y-105290952D01*
X116149286Y-105100476D01*
X116101667Y-105005238D01*
X116006429Y-104910000D01*
X115863571Y-104862381D01*
X115768333Y-104862381D01*
X115625476Y-104910000D01*
X115577857Y-104957619D01*
X114625476Y-105862381D02*
X115196905Y-105862381D01*
X114911191Y-105862381D02*
X114911191Y-104862381D01*
X115006429Y-105005238D01*
X115101667Y-105100476D01*
X115196905Y-105148095D01*
X114244524Y-104957619D02*
X114196905Y-104910000D01*
X114101667Y-104862381D01*
X113863571Y-104862381D01*
X113768333Y-104910000D01*
X113720714Y-104957619D01*
X113673095Y-105052857D01*
X113673095Y-105148095D01*
X113720714Y-105290952D01*
X114292143Y-105862381D01*
X113673095Y-105862381D01*
X142748143Y-110406643D02*
X142795762Y-110359024D01*
X142843381Y-110216167D01*
X142843381Y-110120929D01*
X142795762Y-109978071D01*
X142700524Y-109882833D01*
X142605286Y-109835214D01*
X142414810Y-109787595D01*
X142271952Y-109787595D01*
X142081476Y-109835214D01*
X141986238Y-109882833D01*
X141891000Y-109978071D01*
X141843381Y-110120929D01*
X141843381Y-110216167D01*
X141891000Y-110359024D01*
X141938619Y-110406643D01*
X142843381Y-111359024D02*
X142843381Y-110787595D01*
X142843381Y-111073309D02*
X141843381Y-111073309D01*
X141986238Y-110978071D01*
X142081476Y-110882833D01*
X142129095Y-110787595D01*
X141843381Y-111692357D02*
X141843381Y-112311405D01*
X142224333Y-111978071D01*
X142224333Y-112120929D01*
X142271952Y-112216167D01*
X142319571Y-112263786D01*
X142414810Y-112311405D01*
X142652905Y-112311405D01*
X142748143Y-112263786D01*
X142795762Y-112216167D01*
X142843381Y-112120929D01*
X142843381Y-111835214D01*
X142795762Y-111739976D01*
X142748143Y-111692357D01*
X153106357Y-114022143D02*
X153153976Y-114069762D01*
X153296833Y-114117381D01*
X153392071Y-114117381D01*
X153534929Y-114069762D01*
X153630167Y-113974524D01*
X153677786Y-113879286D01*
X153725405Y-113688810D01*
X153725405Y-113545952D01*
X153677786Y-113355476D01*
X153630167Y-113260238D01*
X153534929Y-113165000D01*
X153392071Y-113117381D01*
X153296833Y-113117381D01*
X153153976Y-113165000D01*
X153106357Y-113212619D01*
X152153976Y-114117381D02*
X152725405Y-114117381D01*
X152439691Y-114117381D02*
X152439691Y-113117381D01*
X152534929Y-113260238D01*
X152630167Y-113355476D01*
X152725405Y-113403095D01*
X151296833Y-113450714D02*
X151296833Y-114117381D01*
X151534929Y-113069762D02*
X151773024Y-113784048D01*
X151153976Y-113784048D01*
X115577857Y-98782143D02*
X115625476Y-98829762D01*
X115768333Y-98877381D01*
X115863571Y-98877381D01*
X116006429Y-98829762D01*
X116101667Y-98734524D01*
X116149286Y-98639286D01*
X116196905Y-98448810D01*
X116196905Y-98305952D01*
X116149286Y-98115476D01*
X116101667Y-98020238D01*
X116006429Y-97925000D01*
X115863571Y-97877381D01*
X115768333Y-97877381D01*
X115625476Y-97925000D01*
X115577857Y-97972619D01*
X114625476Y-98877381D02*
X115196905Y-98877381D01*
X114911191Y-98877381D02*
X114911191Y-97877381D01*
X115006429Y-98020238D01*
X115101667Y-98115476D01*
X115196905Y-98163095D01*
X113720714Y-97877381D02*
X114196905Y-97877381D01*
X114244524Y-98353571D01*
X114196905Y-98305952D01*
X114101667Y-98258333D01*
X113863571Y-98258333D01*
X113768333Y-98305952D01*
X113720714Y-98353571D01*
X113673095Y-98448810D01*
X113673095Y-98686905D01*
X113720714Y-98782143D01*
X113768333Y-98829762D01*
X113863571Y-98877381D01*
X114101667Y-98877381D01*
X114196905Y-98829762D01*
X114244524Y-98782143D01*
X143962357Y-113958643D02*
X144009976Y-114006262D01*
X144152833Y-114053881D01*
X144248071Y-114053881D01*
X144390929Y-114006262D01*
X144486167Y-113911024D01*
X144533786Y-113815786D01*
X144581405Y-113625310D01*
X144581405Y-113482452D01*
X144533786Y-113291976D01*
X144486167Y-113196738D01*
X144390929Y-113101500D01*
X144248071Y-113053881D01*
X144152833Y-113053881D01*
X144009976Y-113101500D01*
X143962357Y-113149119D01*
X143009976Y-114053881D02*
X143581405Y-114053881D01*
X143295691Y-114053881D02*
X143295691Y-113053881D01*
X143390929Y-113196738D01*
X143486167Y-113291976D01*
X143581405Y-113339595D01*
X142152833Y-113053881D02*
X142343310Y-113053881D01*
X142438548Y-113101500D01*
X142486167Y-113149119D01*
X142581405Y-113291976D01*
X142629024Y-113482452D01*
X142629024Y-113863405D01*
X142581405Y-113958643D01*
X142533786Y-114006262D01*
X142438548Y-114053881D01*
X142248071Y-114053881D01*
X142152833Y-114006262D01*
X142105214Y-113958643D01*
X142057595Y-113863405D01*
X142057595Y-113625310D01*
X142105214Y-113530071D01*
X142152833Y-113482452D01*
X142248071Y-113434833D01*
X142438548Y-113434833D01*
X142533786Y-113482452D01*
X142581405Y-113530071D01*
X142629024Y-113625310D01*
X113069643Y-100893643D02*
X113117262Y-100846024D01*
X113164881Y-100703167D01*
X113164881Y-100607929D01*
X113117262Y-100465071D01*
X113022024Y-100369833D01*
X112926786Y-100322214D01*
X112736310Y-100274595D01*
X112593452Y-100274595D01*
X112402976Y-100322214D01*
X112307738Y-100369833D01*
X112212500Y-100465071D01*
X112164881Y-100607929D01*
X112164881Y-100703167D01*
X112212500Y-100846024D01*
X112260119Y-100893643D01*
X113164881Y-101846024D02*
X113164881Y-101274595D01*
X113164881Y-101560309D02*
X112164881Y-101560309D01*
X112307738Y-101465071D01*
X112402976Y-101369833D01*
X112450595Y-101274595D01*
X112164881Y-102179357D02*
X112164881Y-102846024D01*
X113164881Y-102417452D01*
X112879143Y-105021143D02*
X112926762Y-104973524D01*
X112974381Y-104830667D01*
X112974381Y-104735429D01*
X112926762Y-104592571D01*
X112831524Y-104497333D01*
X112736286Y-104449714D01*
X112545810Y-104402095D01*
X112402952Y-104402095D01*
X112212476Y-104449714D01*
X112117238Y-104497333D01*
X112022000Y-104592571D01*
X111974381Y-104735429D01*
X111974381Y-104830667D01*
X112022000Y-104973524D01*
X112069619Y-105021143D01*
X112974381Y-105973524D02*
X112974381Y-105402095D01*
X112974381Y-105687809D02*
X111974381Y-105687809D01*
X112117238Y-105592571D01*
X112212476Y-105497333D01*
X112260095Y-105402095D01*
X112402952Y-106544952D02*
X112355333Y-106449714D01*
X112307714Y-106402095D01*
X112212476Y-106354476D01*
X112164857Y-106354476D01*
X112069619Y-106402095D01*
X112022000Y-106449714D01*
X111974381Y-106544952D01*
X111974381Y-106735429D01*
X112022000Y-106830667D01*
X112069619Y-106878286D01*
X112164857Y-106925905D01*
X112212476Y-106925905D01*
X112307714Y-106878286D01*
X112355333Y-106830667D01*
X112402952Y-106735429D01*
X112402952Y-106544952D01*
X112450571Y-106449714D01*
X112498190Y-106402095D01*
X112593429Y-106354476D01*
X112783905Y-106354476D01*
X112879143Y-106402095D01*
X112926762Y-106449714D01*
X112974381Y-106544952D01*
X112974381Y-106735429D01*
X112926762Y-106830667D01*
X112879143Y-106878286D01*
X112783905Y-106925905D01*
X112593429Y-106925905D01*
X112498190Y-106878286D01*
X112450571Y-106830667D01*
X112402952Y-106735429D01*
X192738333Y-114812381D02*
X192738333Y-115526667D01*
X192785953Y-115669524D01*
X192881191Y-115764762D01*
X193024048Y-115812381D01*
X193119286Y-115812381D01*
X191833571Y-115145714D02*
X191833571Y-115812381D01*
X192071667Y-114764762D02*
X192309762Y-115479048D01*
X191690714Y-115479048D01*
X137136119Y-102314262D02*
X137088500Y-102219024D01*
X136993262Y-102123786D01*
X136850405Y-101980929D01*
X136802786Y-101885690D01*
X136802786Y-101790452D01*
X137040881Y-101838071D02*
X136993262Y-101742833D01*
X136898024Y-101647595D01*
X136707548Y-101599976D01*
X136374214Y-101599976D01*
X136183738Y-101647595D01*
X136088500Y-101742833D01*
X136040881Y-101838071D01*
X136040881Y-102028548D01*
X136088500Y-102123786D01*
X136183738Y-102219024D01*
X136374214Y-102266643D01*
X136707548Y-102266643D01*
X136898024Y-102219024D01*
X136993262Y-102123786D01*
X137040881Y-102028548D01*
X137040881Y-101838071D01*
X137040881Y-103219024D02*
X137040881Y-102647595D01*
X137040881Y-102933309D02*
X136040881Y-102933309D01*
X136183738Y-102838071D01*
X136278976Y-102742833D01*
X136326595Y-102647595D01*
X138937619Y-87899762D02*
X138890000Y-87804524D01*
X138794762Y-87709286D01*
X138651905Y-87566429D01*
X138604286Y-87471190D01*
X138604286Y-87375952D01*
X138842381Y-87423571D02*
X138794762Y-87328333D01*
X138699524Y-87233095D01*
X138509048Y-87185476D01*
X138175714Y-87185476D01*
X137985238Y-87233095D01*
X137890000Y-87328333D01*
X137842381Y-87423571D01*
X137842381Y-87614048D01*
X137890000Y-87709286D01*
X137985238Y-87804524D01*
X138175714Y-87852143D01*
X138509048Y-87852143D01*
X138699524Y-87804524D01*
X138794762Y-87709286D01*
X138842381Y-87614048D01*
X138842381Y-87423571D01*
X137937619Y-88233095D02*
X137890000Y-88280714D01*
X137842381Y-88375952D01*
X137842381Y-88614048D01*
X137890000Y-88709286D01*
X137937619Y-88756905D01*
X138032857Y-88804524D01*
X138128095Y-88804524D01*
X138270952Y-88756905D01*
X138842381Y-88185476D01*
X138842381Y-88804524D01*
X156461381Y-110311334D02*
X155985190Y-109978000D01*
X156461381Y-109739905D02*
X155461381Y-109739905D01*
X155461381Y-110120858D01*
X155509000Y-110216096D01*
X155556619Y-110263715D01*
X155651857Y-110311334D01*
X155794714Y-110311334D01*
X155889952Y-110263715D01*
X155937571Y-110216096D01*
X155985190Y-110120858D01*
X155985190Y-109739905D01*
X156461381Y-111263715D02*
X156461381Y-110692286D01*
X156461381Y-110978000D02*
X155461381Y-110978000D01*
X155604238Y-110882762D01*
X155699476Y-110787524D01*
X155747095Y-110692286D01*
X152947666Y-112847381D02*
X153281000Y-112371190D01*
X153519095Y-112847381D02*
X153519095Y-111847381D01*
X153138142Y-111847381D01*
X153042904Y-111895000D01*
X152995285Y-111942619D01*
X152947666Y-112037857D01*
X152947666Y-112180714D01*
X152995285Y-112275952D01*
X153042904Y-112323571D01*
X153138142Y-112371190D01*
X153519095Y-112371190D01*
X152566714Y-111942619D02*
X152519095Y-111895000D01*
X152423857Y-111847381D01*
X152185761Y-111847381D01*
X152090523Y-111895000D01*
X152042904Y-111942619D01*
X151995285Y-112037857D01*
X151995285Y-112133095D01*
X152042904Y-112275952D01*
X152614333Y-112847381D01*
X151995285Y-112847381D01*
X147371666Y-84092381D02*
X147705000Y-83616190D01*
X147943095Y-84092381D02*
X147943095Y-83092381D01*
X147562142Y-83092381D01*
X147466904Y-83140000D01*
X147419285Y-83187619D01*
X147371666Y-83282857D01*
X147371666Y-83425714D01*
X147419285Y-83520952D01*
X147466904Y-83568571D01*
X147562142Y-83616190D01*
X147943095Y-83616190D01*
X147038333Y-83092381D02*
X146419285Y-83092381D01*
X146752619Y-83473333D01*
X146609761Y-83473333D01*
X146514523Y-83520952D01*
X146466904Y-83568571D01*
X146419285Y-83663810D01*
X146419285Y-83901905D01*
X146466904Y-83997143D01*
X146514523Y-84044762D01*
X146609761Y-84092381D01*
X146895476Y-84092381D01*
X146990714Y-84044762D01*
X147038333Y-83997143D01*
X147371666Y-88897381D02*
X147705000Y-88421190D01*
X147943095Y-88897381D02*
X147943095Y-87897381D01*
X147562142Y-87897381D01*
X147466904Y-87945000D01*
X147419285Y-87992619D01*
X147371666Y-88087857D01*
X147371666Y-88230714D01*
X147419285Y-88325952D01*
X147466904Y-88373571D01*
X147562142Y-88421190D01*
X147943095Y-88421190D01*
X146514523Y-88230714D02*
X146514523Y-88897381D01*
X146752619Y-87849762D02*
X146990714Y-88564048D01*
X146371666Y-88564048D01*
X150248881Y-105751334D02*
X149772690Y-105418000D01*
X150248881Y-105179905D02*
X149248881Y-105179905D01*
X149248881Y-105560858D01*
X149296500Y-105656096D01*
X149344119Y-105703715D01*
X149439357Y-105751334D01*
X149582214Y-105751334D01*
X149677452Y-105703715D01*
X149725071Y-105656096D01*
X149772690Y-105560858D01*
X149772690Y-105179905D01*
X149248881Y-106656096D02*
X149248881Y-106179905D01*
X149725071Y-106132286D01*
X149677452Y-106179905D01*
X149629833Y-106275143D01*
X149629833Y-106513239D01*
X149677452Y-106608477D01*
X149725071Y-106656096D01*
X149820310Y-106703715D01*
X150058405Y-106703715D01*
X150153643Y-106656096D01*
X150201262Y-106608477D01*
X150248881Y-106513239D01*
X150248881Y-106275143D01*
X150201262Y-106179905D01*
X150153643Y-106132286D01*
X155011381Y-107263334D02*
X154535190Y-106930000D01*
X155011381Y-106691905D02*
X154011381Y-106691905D01*
X154011381Y-107072858D01*
X154059000Y-107168096D01*
X154106619Y-107215715D01*
X154201857Y-107263334D01*
X154344714Y-107263334D01*
X154439952Y-107215715D01*
X154487571Y-107168096D01*
X154535190Y-107072858D01*
X154535190Y-106691905D01*
X154011381Y-108120477D02*
X154011381Y-107930000D01*
X154059000Y-107834762D01*
X154106619Y-107787143D01*
X154249476Y-107691905D01*
X154439952Y-107644286D01*
X154820905Y-107644286D01*
X154916143Y-107691905D01*
X154963762Y-107739524D01*
X155011381Y-107834762D01*
X155011381Y-108025239D01*
X154963762Y-108120477D01*
X154916143Y-108168096D01*
X154820905Y-108215715D01*
X154582810Y-108215715D01*
X154487571Y-108168096D01*
X154439952Y-108120477D01*
X154392333Y-108025239D01*
X154392333Y-107834762D01*
X154439952Y-107739524D01*
X154487571Y-107691905D01*
X154582810Y-107644286D01*
X149506666Y-94887381D02*
X149840000Y-94411190D01*
X150078095Y-94887381D02*
X150078095Y-93887381D01*
X149697142Y-93887381D01*
X149601904Y-93935000D01*
X149554285Y-93982619D01*
X149506666Y-94077857D01*
X149506666Y-94220714D01*
X149554285Y-94315952D01*
X149601904Y-94363571D01*
X149697142Y-94411190D01*
X150078095Y-94411190D01*
X149173333Y-93887381D02*
X148506666Y-93887381D01*
X148935238Y-94887381D01*
X143327381Y-108608834D02*
X142851190Y-108275500D01*
X143327381Y-108037405D02*
X142327381Y-108037405D01*
X142327381Y-108418358D01*
X142375000Y-108513596D01*
X142422619Y-108561215D01*
X142517857Y-108608834D01*
X142660714Y-108608834D01*
X142755952Y-108561215D01*
X142803571Y-108513596D01*
X142851190Y-108418358D01*
X142851190Y-108037405D01*
X142755952Y-109180262D02*
X142708333Y-109085024D01*
X142660714Y-109037405D01*
X142565476Y-108989786D01*
X142517857Y-108989786D01*
X142422619Y-109037405D01*
X142375000Y-109085024D01*
X142327381Y-109180262D01*
X142327381Y-109370739D01*
X142375000Y-109465977D01*
X142422619Y-109513596D01*
X142517857Y-109561215D01*
X142565476Y-109561215D01*
X142660714Y-109513596D01*
X142708333Y-109465977D01*
X142755952Y-109370739D01*
X142755952Y-109180262D01*
X142803571Y-109085024D01*
X142851190Y-109037405D01*
X142946429Y-108989786D01*
X143136905Y-108989786D01*
X143232143Y-109037405D01*
X143279762Y-109085024D01*
X143327381Y-109180262D01*
X143327381Y-109370739D01*
X143279762Y-109465977D01*
X143232143Y-109513596D01*
X143136905Y-109561215D01*
X142946429Y-109561215D01*
X142851190Y-109513596D01*
X142803571Y-109465977D01*
X142755952Y-109370739D01*
X145105381Y-108608834D02*
X144629190Y-108275500D01*
X145105381Y-108037405D02*
X144105381Y-108037405D01*
X144105381Y-108418358D01*
X144153000Y-108513596D01*
X144200619Y-108561215D01*
X144295857Y-108608834D01*
X144438714Y-108608834D01*
X144533952Y-108561215D01*
X144581571Y-108513596D01*
X144629190Y-108418358D01*
X144629190Y-108037405D01*
X145105381Y-109085024D02*
X145105381Y-109275500D01*
X145057762Y-109370739D01*
X145010143Y-109418358D01*
X144867286Y-109513596D01*
X144676810Y-109561215D01*
X144295857Y-109561215D01*
X144200619Y-109513596D01*
X144153000Y-109465977D01*
X144105381Y-109370739D01*
X144105381Y-109180262D01*
X144153000Y-109085024D01*
X144200619Y-109037405D01*
X144295857Y-108989786D01*
X144533952Y-108989786D01*
X144629190Y-109037405D01*
X144676810Y-109085024D01*
X144724429Y-109180262D01*
X144724429Y-109370739D01*
X144676810Y-109465977D01*
X144629190Y-109513596D01*
X144533952Y-109561215D01*
X140035881Y-105985643D02*
X139559690Y-105652309D01*
X140035881Y-105414214D02*
X139035881Y-105414214D01*
X139035881Y-105795167D01*
X139083500Y-105890405D01*
X139131119Y-105938024D01*
X139226357Y-105985643D01*
X139369214Y-105985643D01*
X139464452Y-105938024D01*
X139512071Y-105890405D01*
X139559690Y-105795167D01*
X139559690Y-105414214D01*
X140035881Y-106938024D02*
X140035881Y-106366595D01*
X140035881Y-106652309D02*
X139035881Y-106652309D01*
X139178738Y-106557071D01*
X139273976Y-106461833D01*
X139321595Y-106366595D01*
X139035881Y-107557071D02*
X139035881Y-107652310D01*
X139083500Y-107747548D01*
X139131119Y-107795167D01*
X139226357Y-107842786D01*
X139416833Y-107890405D01*
X139654929Y-107890405D01*
X139845405Y-107842786D01*
X139940643Y-107795167D01*
X139988262Y-107747548D01*
X140035881Y-107652310D01*
X140035881Y-107557071D01*
X139988262Y-107461833D01*
X139940643Y-107414214D01*
X139845405Y-107366595D01*
X139654929Y-107318976D01*
X139416833Y-107318976D01*
X139226357Y-107366595D01*
X139131119Y-107414214D01*
X139083500Y-107461833D01*
X139035881Y-107557071D01*
X111577381Y-115054143D02*
X111101190Y-114720809D01*
X111577381Y-114482714D02*
X110577381Y-114482714D01*
X110577381Y-114863667D01*
X110625000Y-114958905D01*
X110672619Y-115006524D01*
X110767857Y-115054143D01*
X110910714Y-115054143D01*
X111005952Y-115006524D01*
X111053571Y-114958905D01*
X111101190Y-114863667D01*
X111101190Y-114482714D01*
X111577381Y-116006524D02*
X111577381Y-115435095D01*
X111577381Y-115720809D02*
X110577381Y-115720809D01*
X110720238Y-115625571D01*
X110815476Y-115530333D01*
X110863095Y-115435095D01*
X110672619Y-116387476D02*
X110625000Y-116435095D01*
X110577381Y-116530333D01*
X110577381Y-116768429D01*
X110625000Y-116863667D01*
X110672619Y-116911286D01*
X110767857Y-116958905D01*
X110863095Y-116958905D01*
X111005952Y-116911286D01*
X111577381Y-116339857D01*
X111577381Y-116958905D01*
X112974381Y-109212143D02*
X112498190Y-108878809D01*
X112974381Y-108640714D02*
X111974381Y-108640714D01*
X111974381Y-109021667D01*
X112022000Y-109116905D01*
X112069619Y-109164524D01*
X112164857Y-109212143D01*
X112307714Y-109212143D01*
X112402952Y-109164524D01*
X112450571Y-109116905D01*
X112498190Y-109021667D01*
X112498190Y-108640714D01*
X112974381Y-110164524D02*
X112974381Y-109593095D01*
X112974381Y-109878809D02*
X111974381Y-109878809D01*
X112117238Y-109783571D01*
X112212476Y-109688333D01*
X112260095Y-109593095D01*
X111974381Y-110497857D02*
X111974381Y-111116905D01*
X112355333Y-110783571D01*
X112355333Y-110926429D01*
X112402952Y-111021667D01*
X112450571Y-111069286D01*
X112545810Y-111116905D01*
X112783905Y-111116905D01*
X112879143Y-111069286D01*
X112926762Y-111021667D01*
X112974381Y-110926429D01*
X112974381Y-110640714D01*
X112926762Y-110545476D01*
X112879143Y-110497857D01*
X148300238Y-120957381D02*
X148633572Y-120481190D01*
X148871667Y-120957381D02*
X148871667Y-119957381D01*
X148490714Y-119957381D01*
X148395476Y-120005000D01*
X148347857Y-120052619D01*
X148300238Y-120147857D01*
X148300238Y-120290714D01*
X148347857Y-120385952D01*
X148395476Y-120433571D01*
X148490714Y-120481190D01*
X148871667Y-120481190D01*
X148014524Y-119957381D02*
X147681191Y-120957381D01*
X147347857Y-119957381D01*
X146490714Y-120957381D02*
X147062143Y-120957381D01*
X146776429Y-120957381D02*
X146776429Y-119957381D01*
X146871667Y-120100238D01*
X146966905Y-120195476D01*
X147062143Y-120243095D01*
X165226905Y-97877381D02*
X165226905Y-98686905D01*
X165179286Y-98782143D01*
X165131667Y-98829762D01*
X165036429Y-98877381D01*
X164845952Y-98877381D01*
X164750714Y-98829762D01*
X164703095Y-98782143D01*
X164655476Y-98686905D01*
X164655476Y-97877381D01*
X163655476Y-98877381D02*
X164226905Y-98877381D01*
X163941191Y-98877381D02*
X163941191Y-97877381D01*
X164036429Y-98020238D01*
X164131667Y-98115476D01*
X164226905Y-98163095D01*
X185546905Y-87392381D02*
X185546905Y-88201905D01*
X185499286Y-88297143D01*
X185451667Y-88344762D01*
X185356429Y-88392381D01*
X185165952Y-88392381D01*
X185070714Y-88344762D01*
X185023095Y-88297143D01*
X184975476Y-88201905D01*
X184975476Y-87392381D01*
X184594524Y-87392381D02*
X183975476Y-87392381D01*
X184308810Y-87773333D01*
X184165952Y-87773333D01*
X184070714Y-87820952D01*
X184023095Y-87868571D01*
X183975476Y-87963810D01*
X183975476Y-88201905D01*
X184023095Y-88297143D01*
X184070714Y-88344762D01*
X184165952Y-88392381D01*
X184451667Y-88392381D01*
X184546905Y-88344762D01*
X184594524Y-88297143D01*
X118236905Y-107077381D02*
X118236905Y-107886905D01*
X118189286Y-107982143D01*
X118141667Y-108029762D01*
X118046429Y-108077381D01*
X117855952Y-108077381D01*
X117760714Y-108029762D01*
X117713095Y-107982143D01*
X117665476Y-107886905D01*
X117665476Y-107077381D01*
X116760714Y-107410714D02*
X116760714Y-108077381D01*
X116998810Y-107029762D02*
X117236905Y-107744048D01*
X116617857Y-107744048D01*
X148105881Y-105600595D02*
X148915405Y-105600595D01*
X149010643Y-105648214D01*
X149058262Y-105695833D01*
X149105881Y-105791071D01*
X149105881Y-105981548D01*
X149058262Y-106076786D01*
X149010643Y-106124405D01*
X148915405Y-106172024D01*
X148105881Y-106172024D01*
X148105881Y-107076786D02*
X148105881Y-106886309D01*
X148153500Y-106791071D01*
X148201119Y-106743452D01*
X148343976Y-106648214D01*
X148534452Y-106600595D01*
X148915405Y-106600595D01*
X149010643Y-106648214D01*
X149058262Y-106695833D01*
X149105881Y-106791071D01*
X149105881Y-106981548D01*
X149058262Y-107076786D01*
X149010643Y-107124405D01*
X148915405Y-107172024D01*
X148677310Y-107172024D01*
X148582071Y-107124405D01*
X148534452Y-107076786D01*
X148486833Y-106981548D01*
X148486833Y-106791071D01*
X148534452Y-106695833D01*
X148582071Y-106648214D01*
X148677310Y-106600595D01*
X150065152Y-102138004D02*
X149728434Y-102474722D01*
X150671243Y-102003317D02*
X150065152Y-102138004D01*
X150199838Y-101531912D01*
X148886640Y-101632927D02*
X149290701Y-102036989D01*
X149088671Y-101834958D02*
X149795778Y-101127851D01*
X149762106Y-101296210D01*
X149762106Y-101430897D01*
X149795778Y-101531912D01*
X112517857Y-94252381D02*
X112851191Y-93776190D01*
X113089286Y-94252381D02*
X113089286Y-93252381D01*
X112708333Y-93252381D01*
X112613095Y-93300000D01*
X112565476Y-93347619D01*
X112517857Y-93442857D01*
X112517857Y-93585714D01*
X112565476Y-93680952D01*
X112613095Y-93728571D01*
X112708333Y-93776190D01*
X113089286Y-93776190D01*
X111565476Y-94252381D02*
X112136905Y-94252381D01*
X111851191Y-94252381D02*
X111851191Y-93252381D01*
X111946429Y-93395238D01*
X112041667Y-93490476D01*
X112136905Y-93538095D01*
X110613095Y-94252381D02*
X111184524Y-94252381D01*
X110898810Y-94252381D02*
X110898810Y-93252381D01*
X110994048Y-93395238D01*
X111089286Y-93490476D01*
X111184524Y-93538095D01*
M02*
