G04 #@! TF.FileFunction,Soldermask,Top*
%FSLAX46Y46*%
G04 Gerber Fmt 4.6, Leading zero omitted, Abs format (unit mm)*
G04 Created by KiCad (PCBNEW 4.0.7) date *
%MOMM*%
%LPD*%
G01*
G04 APERTURE LIST*
%ADD10C,0.100000*%
%ADD11C,1.924000*%
%ADD12R,1.800000X3.600000*%
%ADD13C,2.200000*%
%ADD14R,1.100000X0.650000*%
%ADD15R,0.650000X1.100000*%
%ADD16R,2.125000X2.125000*%
%ADD17R,3.400000X1.400000*%
%ADD18R,1.200000X1.150000*%
%ADD19R,1.150000X1.200000*%
%ADD20R,1.650000X1.400000*%
%ADD21R,2.250000X2.250000*%
%ADD22C,2.250000*%
%ADD23R,2.100000X2.100000*%
%ADD24O,2.100000X2.100000*%
%ADD25R,1.600000X2.100000*%
%ADD26O,1.600000X2.100000*%
%ADD27R,1.200000X1.300000*%
%ADD28R,1.300000X0.900000*%
%ADD29R,0.900000X1.300000*%
%ADD30R,4.470000X2.170000*%
%ADD31R,2.170000X4.470000*%
%ADD32R,1.950000X1.000000*%
%ADD33R,0.900000X0.600000*%
%ADD34R,0.950000X0.600000*%
%ADD35R,0.600000X0.900000*%
%ADD36R,0.600000X0.950000*%
%ADD37R,1.275000X1.200000*%
G04 APERTURE END LIST*
D10*
D11*
X108420000Y-95300000D03*
X108420000Y-97840000D03*
X108420000Y-100380000D03*
X108420000Y-102920000D03*
X108420000Y-105460000D03*
X108420000Y-108000000D03*
X108420000Y-110540000D03*
X108420000Y-113080000D03*
X108420000Y-115620000D03*
D12*
X111170000Y-123260000D03*
X111170000Y-87660000D03*
D13*
X110360000Y-84360000D03*
X110360000Y-126560000D03*
D14*
X147040000Y-98085000D03*
X147040000Y-98585000D03*
X147040000Y-99085000D03*
X147040000Y-99585000D03*
X147040000Y-100085000D03*
X147040000Y-100585000D03*
X147040000Y-101085000D03*
X147040000Y-101585000D03*
D15*
X146390000Y-102235000D03*
X145890000Y-102235000D03*
X145390000Y-102235000D03*
X144890000Y-102235000D03*
X144390000Y-102235000D03*
X143890000Y-102235000D03*
X143390000Y-102235000D03*
X142890000Y-102235000D03*
D14*
X142240000Y-101585000D03*
X142240000Y-101085000D03*
X142240000Y-100585000D03*
X142240000Y-100085000D03*
X142240000Y-99585000D03*
X142240000Y-99085000D03*
X142240000Y-98585000D03*
X142240000Y-98085000D03*
D15*
X142890000Y-97435000D03*
X143390000Y-97435000D03*
X143890000Y-97435000D03*
X144390000Y-97435000D03*
X144890000Y-97435000D03*
X145390000Y-97435000D03*
X145890000Y-97435000D03*
X146390000Y-97435000D03*
D16*
X143777500Y-100697500D03*
X143777500Y-98972500D03*
X145502500Y-100697500D03*
X145502500Y-98972500D03*
D17*
X185330000Y-121090000D03*
X180290000Y-121090000D03*
X185330000Y-118550000D03*
X180290000Y-118550000D03*
X185330000Y-116010000D03*
X180290000Y-116010000D03*
X185330000Y-113470000D03*
X180290000Y-113470000D03*
X185330000Y-110930000D03*
X180290000Y-110930000D03*
X185330000Y-108390000D03*
X180290000Y-108390000D03*
X185330000Y-105850000D03*
X180290000Y-105850000D03*
X185330000Y-103310000D03*
X180290000Y-103310000D03*
X185330000Y-100770000D03*
X180290000Y-100770000D03*
X185330000Y-98230000D03*
X180290000Y-98230000D03*
D18*
X141605000Y-104457500D03*
X143105000Y-104457500D03*
X143280000Y-93599000D03*
X144780000Y-93599000D03*
D19*
X151130000Y-111125000D03*
X151130000Y-109625000D03*
D20*
X173355000Y-86360000D03*
X173355000Y-84360000D03*
D19*
X148590000Y-104255000D03*
X148590000Y-102755000D03*
D18*
X144780000Y-95250000D03*
X143280000Y-95250000D03*
D20*
X155575000Y-85090000D03*
X155575000Y-83090000D03*
D19*
X179705000Y-91440000D03*
X179705000Y-89940000D03*
D18*
X146280000Y-104457500D03*
X144780000Y-104457500D03*
D10*
G36*
X153865850Y-97382018D02*
X153052678Y-98195190D01*
X152204150Y-97346662D01*
X153017322Y-96533490D01*
X153865850Y-97382018D01*
X153865850Y-97382018D01*
G37*
G36*
X154926510Y-98442678D02*
X154113338Y-99255850D01*
X153264810Y-98407322D01*
X154077982Y-97594150D01*
X154926510Y-98442678D01*
X154926510Y-98442678D01*
G37*
G36*
X153262018Y-101829810D02*
X154075190Y-102642982D01*
X153226662Y-103491510D01*
X152413490Y-102678338D01*
X153262018Y-101829810D01*
X153262018Y-101829810D01*
G37*
G36*
X154322678Y-100769150D02*
X155135850Y-101582322D01*
X154287322Y-102430850D01*
X153474150Y-101617678D01*
X154322678Y-100769150D01*
X154322678Y-100769150D01*
G37*
D18*
X115570000Y-106910000D03*
X114070000Y-106910000D03*
D19*
X143891000Y-111799500D03*
X143891000Y-110299500D03*
D18*
X148995000Y-112776000D03*
X150495000Y-112776000D03*
X111125000Y-97790000D03*
X112625000Y-97790000D03*
X145415000Y-112776000D03*
X146915000Y-112776000D03*
D19*
X111125000Y-102235000D03*
X111125000Y-100735000D03*
X111125000Y-107315000D03*
X111125000Y-105815000D03*
D21*
X176530000Y-86995000D03*
D22*
X176530000Y-84495000D03*
D23*
X138430000Y-91440000D03*
D24*
X140970000Y-91440000D03*
X143510000Y-91440000D03*
X146050000Y-91440000D03*
X148590000Y-91440000D03*
X151130000Y-91440000D03*
D25*
X143860000Y-123825000D03*
D26*
X145860000Y-123825000D03*
X147860000Y-123825000D03*
X149860000Y-123825000D03*
D23*
X191135000Y-113030000D03*
D24*
X193675000Y-113030000D03*
X191135000Y-110490000D03*
X193675000Y-110490000D03*
X191135000Y-107950000D03*
X193675000Y-107950000D03*
X191135000Y-105410000D03*
X193675000Y-105410000D03*
X191135000Y-102870000D03*
X193675000Y-102870000D03*
X191135000Y-100330000D03*
X193675000Y-100330000D03*
X191135000Y-97790000D03*
X193675000Y-97790000D03*
D27*
X139951500Y-103409500D03*
X138051500Y-103409500D03*
X139001500Y-101409500D03*
X136840000Y-88995000D03*
X134940000Y-88995000D03*
X135890000Y-86995000D03*
D28*
X154559000Y-111228000D03*
X154559000Y-109728000D03*
X152781000Y-109688500D03*
X152781000Y-111188500D03*
D29*
X147955000Y-85090000D03*
X146455000Y-85090000D03*
X146455000Y-86995000D03*
X147955000Y-86995000D03*
D28*
X151130000Y-108180000D03*
X151130000Y-106680000D03*
X153035000Y-108180000D03*
X153035000Y-106680000D03*
D29*
X150090000Y-95885000D03*
X148590000Y-95885000D03*
D28*
X142875000Y-107366500D03*
X142875000Y-105866500D03*
X144653000Y-107378500D03*
X144653000Y-105878500D03*
X141033500Y-105878500D03*
X141033500Y-107378500D03*
X111125000Y-113895000D03*
X111125000Y-112395000D03*
X111125000Y-109105000D03*
X111125000Y-110605000D03*
D13*
X154940000Y-115570000D03*
X147320000Y-118110000D03*
X142240000Y-115570000D03*
D10*
G36*
X171475000Y-93935000D02*
X171475000Y-95295000D01*
X168075000Y-95295000D01*
X168075000Y-93935000D01*
X171475000Y-93935000D01*
X171475000Y-93935000D01*
G37*
G36*
X167145000Y-93935000D02*
X167145000Y-97335000D01*
X165785000Y-97335000D01*
X165785000Y-93935000D01*
X167145000Y-93935000D01*
X167145000Y-93935000D01*
G37*
G36*
X164855000Y-93935000D02*
X164855000Y-97335000D01*
X163495000Y-97335000D01*
X163495000Y-93935000D01*
X164855000Y-93935000D01*
X164855000Y-93935000D01*
G37*
G36*
X162565000Y-93935000D02*
X162565000Y-97335000D01*
X161205000Y-97335000D01*
X161205000Y-93935000D01*
X162565000Y-93935000D01*
X162565000Y-93935000D01*
G37*
G36*
X160275000Y-93935000D02*
X160275000Y-95295000D01*
X156875000Y-95295000D01*
X156875000Y-93935000D01*
X160275000Y-93935000D01*
X160275000Y-93935000D01*
G37*
G36*
X171475000Y-91645000D02*
X171475000Y-93005000D01*
X168075000Y-93005000D01*
X168075000Y-91645000D01*
X171475000Y-91645000D01*
X171475000Y-91645000D01*
G37*
G36*
X171475000Y-89355000D02*
X171475000Y-90715000D01*
X168075000Y-90715000D01*
X168075000Y-89355000D01*
X171475000Y-89355000D01*
X171475000Y-89355000D01*
G37*
G36*
X160275000Y-91645000D02*
X160275000Y-93005000D01*
X156875000Y-93005000D01*
X156875000Y-91645000D01*
X160275000Y-91645000D01*
X160275000Y-91645000D01*
G37*
G36*
X160275000Y-89355000D02*
X160275000Y-90715000D01*
X156875000Y-90715000D01*
X156875000Y-89355000D01*
X160275000Y-89355000D01*
X160275000Y-89355000D01*
G37*
G36*
X171475000Y-84775000D02*
X171475000Y-86135000D01*
X168075000Y-86135000D01*
X168075000Y-84775000D01*
X171475000Y-84775000D01*
X171475000Y-84775000D01*
G37*
G36*
X160275000Y-84775000D02*
X160275000Y-86135000D01*
X156875000Y-86135000D01*
X156875000Y-84775000D01*
X160275000Y-84775000D01*
X160275000Y-84775000D01*
G37*
G36*
X167145000Y-82735000D02*
X167145000Y-86135000D01*
X165785000Y-86135000D01*
X165785000Y-82735000D01*
X167145000Y-82735000D01*
X167145000Y-82735000D01*
G37*
G36*
X164855000Y-82735000D02*
X164855000Y-86135000D01*
X163495000Y-86135000D01*
X163495000Y-82735000D01*
X164855000Y-82735000D01*
X164855000Y-82735000D01*
G37*
G36*
X162565000Y-82735000D02*
X162565000Y-86135000D01*
X161205000Y-86135000D01*
X161205000Y-82735000D01*
X162565000Y-82735000D01*
X162565000Y-82735000D01*
G37*
D30*
X167865000Y-85090000D03*
X162965000Y-85090000D03*
D31*
X159385000Y-86735000D03*
D32*
X187485000Y-89535000D03*
X187485000Y-90805000D03*
X187485000Y-92075000D03*
X187485000Y-93345000D03*
X182085000Y-93345000D03*
X182085000Y-92075000D03*
X182085000Y-90805000D03*
X182085000Y-89535000D03*
X119540000Y-109220000D03*
X119540000Y-110490000D03*
X119540000Y-111760000D03*
X119540000Y-113030000D03*
X114140000Y-113030000D03*
X114140000Y-111760000D03*
X114140000Y-110490000D03*
X114140000Y-109220000D03*
D33*
X149090000Y-108371000D03*
D34*
X149090000Y-108771000D03*
X149090000Y-109171000D03*
X149090000Y-109571000D03*
X149090000Y-109971000D03*
D33*
X149090000Y-110371000D03*
D35*
X148590000Y-110871000D03*
D36*
X148190000Y-110871000D03*
X147790000Y-110871000D03*
X147390000Y-110871000D03*
X146990000Y-110871000D03*
D35*
X146590000Y-110871000D03*
D33*
X146090000Y-110371000D03*
D34*
X146090000Y-109971000D03*
X146090000Y-109571000D03*
X146090000Y-109171000D03*
X146090000Y-108771000D03*
D33*
X146090000Y-108371000D03*
D35*
X146590000Y-107871000D03*
D36*
X146990000Y-107871000D03*
X147390000Y-107871000D03*
X147790000Y-107871000D03*
X148190000Y-107871000D03*
D35*
X148590000Y-107871000D03*
D37*
X147155000Y-109771000D03*
X147155000Y-108971000D03*
X148025000Y-109771000D03*
X148025000Y-108971000D03*
D10*
G36*
X150135861Y-98424009D02*
X151267232Y-97292638D01*
X152540025Y-98565431D01*
X151408654Y-99696802D01*
X150135861Y-98424009D01*
X150135861Y-98424009D01*
G37*
G36*
X151832918Y-100121066D02*
X152964289Y-98989695D01*
X154237082Y-100262488D01*
X153105711Y-101393859D01*
X151832918Y-100121066D01*
X151832918Y-100121066D01*
G37*
G36*
X150489415Y-101464569D02*
X151620786Y-100333198D01*
X152893579Y-101605991D01*
X151762208Y-102737362D01*
X150489415Y-101464569D01*
X150489415Y-101464569D01*
G37*
G36*
X148792358Y-99767512D02*
X149923729Y-98636141D01*
X151196522Y-99908934D01*
X150065151Y-101040305D01*
X148792358Y-99767512D01*
X148792358Y-99767512D01*
G37*
D29*
X112625000Y-95250000D03*
X111125000Y-95250000D03*
M02*
