G04 #@! TF.FileFunction,Copper,L2,Bot,Signal*
%FSLAX46Y46*%
G04 Gerber Fmt 4.6, Leading zero omitted, Abs format (unit mm)*
G04 Created by KiCad (PCBNEW 4.0.7) date *
%MOMM*%
%LPD*%
G01*
G04 APERTURE LIST*
%ADD10C,0.100000*%
%ADD11R,1.700000X1.200000*%
%ADD12O,1.700000X1.200000*%
%ADD13R,1.200000X1.700000*%
%ADD14O,1.200000X1.700000*%
%ADD15R,0.900000X0.500000*%
%ADD16R,0.800000X0.750000*%
%ADD17R,0.750000X0.800000*%
%ADD18R,0.800000X0.800000*%
%ADD19R,0.900000X0.800000*%
%ADD20R,0.500000X0.900000*%
%ADD21R,1.500000X0.700000*%
%ADD22R,1.500000X1.000000*%
%ADD23R,0.800000X2.000000*%
%ADD24R,0.250000X0.850000*%
%ADD25R,0.300000X0.850000*%
%ADD26R,0.300000X0.800000*%
%ADD27R,0.800000X0.250000*%
%ADD28R,0.850000X0.300000*%
%ADD29R,0.850000X0.250000*%
%ADD30R,0.250000X0.800000*%
%ADD31R,2.350000X2.350000*%
%ADD32R,1.100000X0.900000*%
%ADD33C,1.524000*%
%ADD34R,1.400000X3.200000*%
%ADD35C,1.800000*%
%ADD36R,1.850000X1.850000*%
%ADD37C,1.850000*%
%ADD38R,1.700000X1.700000*%
%ADD39O,1.700000X1.700000*%
%ADD40C,0.600000*%
%ADD41C,0.250000*%
%ADD42C,0.200000*%
%ADD43C,1.500000*%
%ADD44C,2.500000*%
%ADD45C,0.254000*%
%ADD46C,0.350000*%
%ADD47O,0.700000X2.200000*%
G04 APERTURE END LIST*
D10*
D11*
X83540000Y-91000000D03*
D12*
X83540000Y-93000000D03*
X83540000Y-95000000D03*
X83540000Y-97000000D03*
D13*
X94081000Y-88551000D03*
D14*
X92081000Y-88551000D03*
X90081000Y-88551000D03*
X88081000Y-88551000D03*
D15*
X85254500Y-113340000D03*
X85254500Y-114840000D03*
X83095500Y-111895000D03*
X83095500Y-110395000D03*
D16*
X91946000Y-115475000D03*
X93446000Y-115475000D03*
X98931000Y-101124000D03*
X100431000Y-101124000D03*
D17*
X93509500Y-113887500D03*
X93509500Y-112387500D03*
X91160000Y-97655500D03*
X91160000Y-99155500D03*
X88620000Y-97655500D03*
X88620000Y-99155500D03*
D16*
X97549500Y-105950000D03*
X96049500Y-105950000D03*
X97549500Y-107664500D03*
X96049500Y-107664500D03*
D17*
X94335000Y-97655500D03*
X94335000Y-99155500D03*
X91985500Y-113863500D03*
X91985500Y-112363500D03*
D16*
X81635000Y-105315000D03*
X83135000Y-105315000D03*
X96875000Y-102775000D03*
X95375000Y-102775000D03*
X96875000Y-101505000D03*
X95375000Y-101505000D03*
D17*
X83135000Y-108720000D03*
X83135000Y-107220000D03*
X81635000Y-108720000D03*
X81635000Y-107220000D03*
D18*
X102895000Y-106585000D03*
X104495000Y-106585000D03*
X102895000Y-108490000D03*
X104495000Y-108490000D03*
D19*
X106400000Y-102780000D03*
X106400000Y-104680000D03*
X108400000Y-103730000D03*
X106400000Y-106590000D03*
X106400000Y-108490000D03*
X108400000Y-107540000D03*
X102590000Y-102780000D03*
X102590000Y-104680000D03*
X104590000Y-103730000D03*
X102590000Y-98970000D03*
X102590000Y-100870000D03*
X104590000Y-99920000D03*
X102590000Y-95096500D03*
X102590000Y-96996500D03*
X104590000Y-96046500D03*
X106400000Y-98970000D03*
X106400000Y-100870000D03*
X108400000Y-99920000D03*
X106400000Y-95096500D03*
X106400000Y-96996500D03*
X108400000Y-96046500D03*
D11*
X78079000Y-99601500D03*
D12*
X78079000Y-101601500D03*
X78079000Y-103601500D03*
X78079000Y-105601500D03*
X78079000Y-107601500D03*
X78079000Y-109601500D03*
X78079000Y-111601500D03*
D11*
X112750000Y-110204500D03*
D12*
X112750000Y-108204500D03*
X112750000Y-106204500D03*
X112750000Y-104204500D03*
D11*
X112750000Y-99885500D03*
D12*
X112750000Y-97885500D03*
X112750000Y-95885500D03*
X112750000Y-93885500D03*
D11*
X117893500Y-99885000D03*
D12*
X117893500Y-97885000D03*
X117893500Y-95885000D03*
X117893500Y-93885000D03*
D11*
X117893500Y-110204500D03*
D12*
X117893500Y-108204500D03*
X117893500Y-106204500D03*
X117893500Y-104204500D03*
D15*
X101383500Y-115475000D03*
X101383500Y-113975000D03*
D20*
X101320000Y-110395000D03*
X102820000Y-110395000D03*
D15*
X88493000Y-114840000D03*
X88493000Y-113340000D03*
X90144000Y-113340000D03*
X90144000Y-114840000D03*
X86842000Y-97782500D03*
X86842000Y-99282500D03*
D20*
X101320000Y-112300000D03*
X102820000Y-112300000D03*
D15*
X86905500Y-113340000D03*
X86905500Y-114840000D03*
X98399000Y-97060000D03*
X98399000Y-95560000D03*
D20*
X103860000Y-92615000D03*
X105360000Y-92615000D03*
X100685000Y-90710000D03*
X102185000Y-90710000D03*
X104265000Y-112300000D03*
X105765000Y-112300000D03*
X104265000Y-110395000D03*
X105765000Y-110395000D03*
X87350000Y-95790000D03*
X88850000Y-95790000D03*
X90525000Y-94520000D03*
X92025000Y-94520000D03*
X93700000Y-94520000D03*
X95200000Y-94520000D03*
X87350000Y-93885000D03*
X88850000Y-93885000D03*
X87350000Y-91980000D03*
X88850000Y-91980000D03*
X93700000Y-92615000D03*
X95200000Y-92615000D03*
X100685000Y-92615000D03*
X102185000Y-92615000D03*
X97510000Y-92615000D03*
X99010000Y-92615000D03*
X90525000Y-92615000D03*
X92025000Y-92615000D03*
X97510000Y-90710000D03*
X99010000Y-90710000D03*
D10*
G36*
X97055000Y-114975000D02*
X96305000Y-114475000D01*
X96305000Y-113475000D01*
X97055000Y-112975000D01*
X97055000Y-114975000D01*
X97055000Y-114975000D01*
G37*
D21*
X95605000Y-115475000D03*
X95605000Y-112475000D03*
X99305000Y-115475000D03*
D22*
X99305000Y-113975000D03*
D21*
X99305000Y-112475000D03*
D22*
X95605000Y-113975000D03*
D10*
G36*
X97855000Y-112975000D02*
X98605000Y-113475000D01*
X98605000Y-114475000D01*
X97855000Y-114975000D01*
X97855000Y-112975000D01*
X97855000Y-112975000D01*
G37*
D23*
X97455000Y-113975000D03*
D24*
X93000000Y-101655000D03*
D25*
X92500000Y-101655000D03*
X92000000Y-101655000D03*
X91500000Y-101655000D03*
X91000000Y-101655000D03*
X90500000Y-101655000D03*
X90000000Y-101655000D03*
X89500000Y-101655000D03*
X89000000Y-101655000D03*
X88500000Y-101655000D03*
X88000000Y-101655000D03*
X87500000Y-101655000D03*
X87000000Y-101655000D03*
X86500000Y-101655000D03*
X86000000Y-101655000D03*
D26*
X85500000Y-101655000D03*
D27*
X84800000Y-102355000D03*
D28*
X84800000Y-102855000D03*
X84800000Y-103355000D03*
X84800000Y-103855000D03*
X84800000Y-104355000D03*
X84800000Y-104855000D03*
X84800000Y-105355000D03*
X84800000Y-105855000D03*
X84800000Y-106355000D03*
X84800000Y-106855000D03*
X84800000Y-107355000D03*
X84800000Y-107855000D03*
X84800000Y-108355000D03*
X84800000Y-108855000D03*
X84800000Y-109355000D03*
D29*
X84800000Y-109855000D03*
D30*
X85500000Y-110555000D03*
D25*
X86000000Y-110555000D03*
X86500000Y-110555000D03*
X87000000Y-110555000D03*
X87500000Y-110555000D03*
X88000000Y-110555000D03*
X88500000Y-110555000D03*
X89000000Y-110555000D03*
X89500000Y-110555000D03*
X90000000Y-110555000D03*
X90500000Y-110555000D03*
X91000000Y-110555000D03*
X91500000Y-110555000D03*
X92000000Y-110555000D03*
X92500000Y-110555000D03*
D24*
X93000000Y-110555000D03*
D27*
X93700000Y-109855000D03*
D28*
X93700000Y-109355000D03*
X93700000Y-108855000D03*
X93700000Y-108355000D03*
X93700000Y-107855000D03*
X93700000Y-107355000D03*
X93700000Y-106855000D03*
X93700000Y-106355000D03*
X93700000Y-105855000D03*
X93700000Y-105355000D03*
X93700000Y-104855000D03*
X93700000Y-104355000D03*
X93700000Y-103855000D03*
X93700000Y-103355000D03*
X93700000Y-102855000D03*
D27*
X93700000Y-102355000D03*
D31*
X90425000Y-104930000D03*
X90425000Y-107280000D03*
X88075000Y-104930000D03*
X88075000Y-107280000D03*
D32*
X100480000Y-102745000D03*
X98780000Y-102745000D03*
X98780000Y-104045000D03*
X100480000Y-104045000D03*
D33*
X59920000Y-142500000D03*
X59920000Y-145040000D03*
X59920000Y-147580000D03*
X59920000Y-150120000D03*
X59920000Y-152660000D03*
X59920000Y-155200000D03*
X59920000Y-157740000D03*
X59920000Y-160280000D03*
X59920000Y-162820000D03*
D34*
X62670000Y-170460000D03*
X62670000Y-134860000D03*
D35*
X61860000Y-131560000D03*
X61860000Y-173760000D03*
D36*
X128030000Y-134195000D03*
D37*
X128030000Y-131695000D03*
D38*
X89930000Y-138640000D03*
D39*
X92470000Y-138640000D03*
X95010000Y-138640000D03*
X97550000Y-138640000D03*
X100090000Y-138640000D03*
X102630000Y-138640000D03*
D13*
X95360000Y-171025000D03*
D14*
X97360000Y-171025000D03*
X99360000Y-171025000D03*
X101360000Y-171025000D03*
D38*
X142635000Y-160230000D03*
D39*
X145175000Y-160230000D03*
X142635000Y-157690000D03*
X145175000Y-157690000D03*
X142635000Y-155150000D03*
X145175000Y-155150000D03*
X142635000Y-152610000D03*
X145175000Y-152610000D03*
X142635000Y-150070000D03*
X145175000Y-150070000D03*
X142635000Y-147530000D03*
X145175000Y-147530000D03*
X142635000Y-144990000D03*
X145175000Y-144990000D03*
D35*
X106440000Y-162770000D03*
X98820000Y-165310000D03*
X93740000Y-162770000D03*
D40*
X82600000Y-98100000D03*
X84200000Y-98000000D03*
X102717000Y-86328500D03*
X100177000Y-86328500D03*
X97637000Y-86328500D03*
X98907000Y-86963500D03*
X101447000Y-86963500D03*
X103352000Y-86963500D03*
X104241000Y-107537500D03*
X108432000Y-109633000D03*
X107543000Y-110204500D03*
X107797000Y-109061500D03*
X105003000Y-107664500D03*
X104050500Y-114713000D03*
X111607000Y-105188000D03*
X102653500Y-114395500D03*
X102082000Y-113316000D03*
X100685000Y-113252500D03*
X102463000Y-99917500D03*
X99478500Y-95980500D03*
X84238500Y-113316000D03*
X116179000Y-93885000D03*
X115290000Y-93821500D03*
X114591500Y-93885000D03*
X96240000Y-86455500D03*
X96240000Y-87090500D03*
X94773590Y-87027000D03*
X94208000Y-86455500D03*
X104685500Y-102330500D03*
X105384000Y-101949500D03*
X107289000Y-101632000D03*
X107860500Y-100933500D03*
X103542500Y-101505000D03*
X104177500Y-100933500D03*
X105447500Y-98330000D03*
X108305000Y-97885500D03*
X108305000Y-98711000D03*
X80555500Y-104616500D03*
X79920500Y-99601500D03*
X83222500Y-98520500D03*
X82397000Y-98901500D03*
X114845500Y-107918500D03*
X115988500Y-107093000D03*
X114718500Y-106902500D03*
X114718500Y-105378500D03*
X115798000Y-105315000D03*
X115734500Y-103537000D03*
X114464500Y-102775000D03*
X114845500Y-104108500D03*
X90017000Y-115538500D03*
X90969500Y-115538500D03*
X96938500Y-115538500D03*
X98018000Y-115538500D03*
X79539500Y-104870500D03*
X90425000Y-104930000D03*
X88075000Y-104930000D03*
X86334000Y-105696000D03*
X85762500Y-105061000D03*
X86334000Y-104553000D03*
X90588500Y-109379000D03*
X89572500Y-109315500D03*
X88620000Y-109379000D03*
X87667500Y-109379000D03*
X92176000Y-96806000D03*
X92303000Y-97631500D03*
X93319000Y-96933000D03*
X98843500Y-105251500D03*
X95033500Y-104807000D03*
X96303500Y-104743500D03*
X97383000Y-104743500D03*
X104622000Y-105378500D03*
X103923500Y-104743500D03*
X105193500Y-104680000D03*
X108813000Y-105886500D03*
X107606500Y-105886500D03*
X107543000Y-104743500D03*
X108749500Y-104807000D03*
X104177500Y-98774500D03*
X97891000Y-101441500D03*
X97827500Y-100425500D03*
X96875000Y-100425500D03*
X95795500Y-100425500D03*
X82310000Y-163405000D03*
X88025000Y-163405000D03*
X88025000Y-165945000D03*
X82310000Y-165945000D03*
X76595000Y-165945000D03*
X71515000Y-165945000D03*
X65800000Y-165945000D03*
X65800000Y-169120000D03*
X71515000Y-169120000D03*
X76595000Y-169120000D03*
X82310000Y-169120000D03*
X88025000Y-169120000D03*
X88025000Y-173565000D03*
X82310000Y-173565000D03*
X76595000Y-173565000D03*
X71515000Y-173565000D03*
X65800000Y-173565000D03*
X60085000Y-169120000D03*
X60085000Y-165945000D03*
X57989500Y-157130500D03*
X58180000Y-153880000D03*
X58180000Y-149435000D03*
X58180000Y-146260000D03*
X58180000Y-141180000D03*
X70880000Y-153880000D03*
X67705000Y-150705000D03*
X71515000Y-150070000D03*
X75960000Y-145625000D03*
X70880000Y-145625000D03*
X67070000Y-144355000D03*
X70880000Y-141815000D03*
X75960000Y-141815000D03*
X81040000Y-141815000D03*
X84215000Y-138005000D03*
X80405000Y-136735000D03*
X75325000Y-136735000D03*
X70245000Y-136735000D03*
X66435000Y-136735000D03*
X66435000Y-139910000D03*
X61990000Y-139910000D03*
X59450000Y-138005000D03*
X59450000Y-132925000D03*
X64530000Y-131655000D03*
X70245000Y-131655000D03*
X77865000Y-131655000D03*
X59450000Y-129750000D03*
X65800000Y-129750000D03*
X70880000Y-129750000D03*
X77230000Y-129750000D03*
X82310000Y-129750000D03*
X61228000Y-161754000D03*
X75452000Y-152546500D03*
X77928500Y-150070000D03*
X80341500Y-147784000D03*
X82437000Y-145561500D03*
X85993000Y-142513500D03*
X86691500Y-143466000D03*
X85294500Y-143720000D03*
X91073000Y-143720000D03*
X89866500Y-143720000D03*
X89803000Y-142132500D03*
X89803000Y-140862500D03*
X90438000Y-146133000D03*
X89358500Y-146260000D03*
X87199500Y-146260000D03*
X85421500Y-146323500D03*
X83453000Y-148546000D03*
X81421000Y-150832000D03*
X79071500Y-152991000D03*
X76722000Y-155531000D03*
X74372500Y-157817000D03*
X92533500Y-144418500D03*
X66943000Y-159087000D03*
X66943000Y-158261500D03*
X62625000Y-158642500D03*
X61545500Y-159531500D03*
X61355000Y-157055000D03*
X61482000Y-154642000D03*
X63895000Y-154769000D03*
X85612000Y-153943500D03*
X83453000Y-156229500D03*
X85358000Y-156102500D03*
X87072500Y-156356500D03*
X89485500Y-158071000D03*
X87326500Y-158198000D03*
X85167500Y-158071000D03*
X83135500Y-158007500D03*
X81167000Y-157944000D03*
X79452500Y-159468000D03*
X78055500Y-160166500D03*
X76277500Y-160230000D03*
X72848500Y-160039500D03*
X91848887Y-146387000D03*
X93740000Y-135778590D03*
X92152407Y-135778590D03*
X95708500Y-135778590D03*
X93105000Y-165310000D03*
X93105000Y-169120000D03*
X93105000Y-173565000D03*
X101360000Y-129750000D03*
X96915000Y-129750000D03*
X93740000Y-129750000D03*
X89930000Y-129750000D03*
X94375000Y-131655000D03*
X91200000Y-131655000D03*
X88025000Y-131655000D03*
X84850000Y-131655000D03*
X97232500Y-154832500D03*
X104535000Y-169120000D03*
X103709500Y-170453500D03*
X105360500Y-170644000D03*
X107011500Y-169310500D03*
X109107000Y-166834000D03*
X108345000Y-165627500D03*
X107138500Y-167659500D03*
X104979500Y-167723000D03*
X102947500Y-167723000D03*
X101360000Y-168802500D03*
X104598500Y-162325500D03*
X103709500Y-163278000D03*
X103138000Y-164294000D03*
X101614000Y-164230500D03*
X102693500Y-163532000D03*
X93359000Y-142894500D03*
X93359000Y-141561000D03*
X93422500Y-140545000D03*
X95554091Y-148634290D03*
X97737598Y-146831500D03*
X143079500Y-142386500D03*
X142190500Y-142450000D03*
X142635000Y-143339000D03*
X102947500Y-147276000D03*
X106313000Y-143847000D03*
X105678000Y-144101000D03*
X106376500Y-144609000D03*
X106440000Y-146895000D03*
X106122500Y-147847500D03*
X105678000Y-146958500D03*
X104408000Y-145815500D03*
X122569000Y-142958000D03*
X121616500Y-142958000D03*
X120600500Y-142958000D03*
X119457500Y-142958000D03*
X116790500Y-142958000D03*
X114504500Y-142958000D03*
X112155000Y-143085000D03*
X107202000Y-150387500D03*
X107710000Y-149181000D03*
X107710000Y-147530000D03*
X107710000Y-146006000D03*
X104662000Y-130893000D03*
X105424000Y-130067500D03*
X105233500Y-128797500D03*
X107011500Y-128797500D03*
X109170500Y-128924500D03*
X109297500Y-130321500D03*
X111012000Y-130448500D03*
X110821500Y-128797500D03*
X112853500Y-128797500D03*
X115520500Y-128797500D03*
X118251000Y-128797500D03*
X120410000Y-129432500D03*
X122251500Y-129496000D03*
X124347000Y-129305500D03*
X126315500Y-130004000D03*
X126315500Y-131274000D03*
X128030000Y-129750000D03*
X130570000Y-129750000D03*
X130570000Y-131655000D03*
X97590000Y-154070500D03*
X107329000Y-154578500D03*
X107392500Y-153499000D03*
X104916000Y-153177598D03*
X101550500Y-151784500D03*
X124728000Y-142323000D03*
X107900500Y-144355000D03*
X134380000Y-148165000D03*
X139460000Y-141942000D03*
X140476000Y-142767500D03*
X140476000Y-141688000D03*
X126950500Y-139275000D03*
X127776000Y-138386000D03*
X126125000Y-138576500D03*
X124664500Y-139211500D03*
X123966000Y-138513000D03*
X122505500Y-138322500D03*
X120156000Y-138322500D03*
X136221500Y-138322500D03*
X137110500Y-138957500D03*
X136094500Y-139275000D03*
X137174000Y-140227500D03*
X111393000Y-138386000D03*
X108916500Y-138386000D03*
X107456000Y-138386000D03*
X107710000Y-139084500D03*
X106757500Y-139148000D03*
X113044000Y-138767000D03*
X114250500Y-138767000D03*
X115330000Y-138767000D03*
X116600000Y-138767000D03*
X117870000Y-138767000D03*
X119902000Y-134449000D03*
X118378000Y-134258500D03*
X116663500Y-134258500D03*
X115076000Y-134258500D03*
X113615500Y-134258500D03*
X105995500Y-156039000D03*
X107392500Y-156102500D03*
X107329000Y-157626500D03*
X105170000Y-157690000D03*
X103138000Y-159468000D03*
X100979000Y-158769500D03*
X101360000Y-158071000D03*
X94121000Y-158579000D03*
X95835500Y-160166500D03*
X97867500Y-158960000D03*
X99525000Y-156171000D03*
X98655000Y-156971000D03*
X95581500Y-139973500D03*
X94629000Y-143339000D03*
X118949500Y-140481500D03*
X117235000Y-140545000D03*
X115330000Y-140545000D03*
X113742500Y-140545000D03*
X97002500Y-147897500D03*
X95277500Y-146172500D03*
X108813000Y-102140000D03*
X111797500Y-101759000D03*
X106781000Y-92551500D03*
X117512500Y-101822500D03*
X92811000Y-94520000D03*
X103542500Y-95853500D03*
X92840199Y-92644199D03*
X106400000Y-95996502D03*
X104725500Y-159595000D03*
X92620500Y-105540323D03*
X92620500Y-104787910D03*
X92146801Y-107127301D03*
X92176000Y-106267500D03*
X92747500Y-108553500D03*
X92176000Y-107982000D03*
X81317500Y-104089000D03*
X87952150Y-102743694D03*
X81317500Y-103239000D03*
X87093437Y-102646278D03*
X89540448Y-102935701D03*
X88747665Y-102828401D03*
X91096500Y-103219500D03*
X90296489Y-103218505D03*
X92176810Y-103655880D03*
X91898874Y-102956684D03*
X93103011Y-100678253D03*
X92303000Y-100679500D03*
X87731000Y-97695000D03*
X87350000Y-100679500D03*
X100555002Y-112300000D03*
X91541000Y-109506000D03*
X97192500Y-97822000D03*
X94335000Y-101251000D03*
X85540685Y-96905917D03*
X99034000Y-91660002D03*
X103034500Y-92615000D03*
X85572000Y-100679500D03*
X119227000Y-92170500D03*
X108622500Y-90075000D03*
X101447000Y-89948000D03*
X119798500Y-111538000D03*
X109575000Y-113125500D03*
X94843000Y-109633000D03*
X102717000Y-115538500D03*
X83857500Y-102584500D03*
X80365000Y-114268500D03*
X81190500Y-100679500D03*
X103161500Y-113379500D03*
X93954000Y-110839500D03*
X85889500Y-94774000D03*
X85953000Y-108871000D03*
X84937000Y-87471500D03*
X89763000Y-94012000D03*
X76237500Y-110522000D03*
X86651500Y-109569500D03*
X85635500Y-86715410D03*
X75382801Y-112329199D03*
X94449998Y-94520000D03*
X84772936Y-111180499D03*
X86334000Y-91916500D03*
X84175000Y-110649000D03*
X87350000Y-91027500D03*
X81635000Y-91154500D03*
X80746000Y-97822000D03*
X92684000Y-109506000D03*
X81371010Y-93439491D03*
X81444500Y-97314000D03*
X85826000Y-102648000D03*
X94398500Y-91599000D03*
X120243000Y-93313500D03*
X99806101Y-91989533D03*
X109956000Y-91789500D03*
X94779500Y-110458500D03*
X86842000Y-94774000D03*
X84810000Y-100997000D03*
X93509500Y-91599000D03*
X111289500Y-93123000D03*
X116433000Y-98584000D03*
X119544500Y-110776000D03*
X110210000Y-112427000D03*
X94847969Y-108797714D03*
X86461000Y-96234500D03*
X86503695Y-100659711D03*
X86755000Y-145180500D03*
X64022000Y-160230000D03*
X98629500Y-152763483D03*
X99074000Y-154070500D03*
X101677500Y-156801000D03*
X98629500Y-149816000D03*
X100725000Y-132290000D03*
X92025500Y-148482500D03*
X141120835Y-137706252D03*
X93486000Y-155677500D03*
X141043645Y-136957809D03*
X93486000Y-156527500D03*
X93442861Y-149508490D03*
X92787500Y-148863500D03*
X92597975Y-146705763D03*
X92473888Y-145877786D03*
X91263500Y-142323000D03*
X90184000Y-136290500D03*
X89358500Y-147862410D03*
X124220000Y-143720000D03*
X97312493Y-150640078D03*
X101296500Y-154451500D03*
X123603041Y-142380590D03*
X107075000Y-142323000D03*
X102630000Y-152610000D03*
X110515559Y-144096972D03*
X86755000Y-147530000D03*
X96788000Y-158325000D03*
X91200000Y-149659498D03*
X97931000Y-135426179D03*
X96280000Y-139592500D03*
X133427500Y-141751500D03*
X99455000Y-148863500D03*
X97042000Y-143529500D03*
X98185000Y-143656500D03*
X98820000Y-143085000D03*
D41*
X82600000Y-98100000D02*
X82600000Y-98698500D01*
X82600000Y-98698500D02*
X82397000Y-98901500D01*
X85453998Y-97885500D02*
X84314500Y-97885500D01*
X84314500Y-97885500D02*
X84200000Y-98000000D01*
X100177000Y-86328500D02*
X102717000Y-86328500D01*
X98907000Y-86963500D02*
X98272000Y-86963500D01*
X98272000Y-86963500D02*
X97637000Y-86328500D01*
X103352000Y-86963500D02*
X101447000Y-86963500D01*
X104495000Y-108490000D02*
X104495000Y-107791500D01*
X104495000Y-107791500D02*
X104241000Y-107537500D01*
X107797000Y-109061500D02*
X107797000Y-109950500D01*
X107797000Y-109950500D02*
X107543000Y-110204500D01*
X104495000Y-108490000D02*
X104495000Y-108172500D01*
X104495000Y-108172500D02*
X105003000Y-107664500D01*
X105066500Y-109711500D02*
X105066500Y-113697000D01*
X105066500Y-113697000D02*
X104050500Y-114713000D01*
X104495000Y-108490000D02*
X104495000Y-109140000D01*
X104495000Y-109140000D02*
X105066500Y-109711500D01*
X112750000Y-104204500D02*
X112590500Y-104204500D01*
X112590500Y-104204500D02*
X111607000Y-105188000D01*
X114718500Y-105378500D02*
X113924000Y-105378500D01*
X113924000Y-105378500D02*
X113733500Y-105188000D01*
X113733500Y-105188000D02*
X112883500Y-105188000D01*
X112883500Y-105188000D02*
X112750000Y-105054500D01*
X112750000Y-105054500D02*
X112750000Y-104204500D01*
X118338000Y-93885000D02*
X119354000Y-94901000D01*
X119354000Y-94901000D02*
X119544500Y-95091500D01*
X116179000Y-94329500D02*
X116750500Y-94901000D01*
X116750500Y-94901000D02*
X119354000Y-94901000D01*
X116179000Y-93885000D02*
X116179000Y-94329500D01*
X115627736Y-109125000D02*
X119862000Y-109125000D01*
X114845500Y-107918500D02*
X114845500Y-108342764D01*
X114845500Y-108342764D02*
X115627736Y-109125000D01*
X115988500Y-107093000D02*
X119735000Y-107093000D01*
X115798000Y-105315000D02*
X119036500Y-105315000D01*
X102082000Y-113316000D02*
X100748500Y-113316000D01*
X100748500Y-113316000D02*
X100685000Y-113252500D01*
X102082000Y-113316000D02*
X102653500Y-113887500D01*
X102653500Y-113887500D02*
X102653500Y-114395500D01*
X99305000Y-113975000D02*
X99962500Y-113975000D01*
X99962500Y-113975000D02*
X100685000Y-113252500D01*
X96938500Y-115538500D02*
X96938500Y-114491500D01*
X96938500Y-114491500D02*
X97455000Y-113975000D01*
X96938500Y-115538500D02*
X98018000Y-115538500D01*
X102272500Y-99917500D02*
X102463000Y-99917500D01*
X100558000Y-98203000D02*
X102272500Y-99917500D01*
X100558000Y-97123500D02*
X100558000Y-98203000D01*
X99778499Y-96343999D02*
X100558000Y-97123500D01*
X99478500Y-95980500D02*
X99778499Y-96280499D01*
X99778499Y-96280499D02*
X99778499Y-96343999D01*
X98399000Y-95560000D02*
X99058000Y-95560000D01*
X99058000Y-95560000D02*
X99478500Y-95980500D01*
D42*
X83108178Y-113062000D02*
X83984500Y-113062000D01*
X83984500Y-113062000D02*
X84238500Y-113316000D01*
X82895500Y-110395000D02*
X82393099Y-110897401D01*
X82393099Y-110897401D02*
X82393099Y-112346921D01*
X83095500Y-110395000D02*
X82895500Y-110395000D01*
X82393099Y-112346921D02*
X83108178Y-113062000D01*
D41*
X115290000Y-93821500D02*
X116115500Y-93821500D01*
X116115500Y-93821500D02*
X116179000Y-93885000D01*
X112750000Y-93885500D02*
X114591000Y-93885500D01*
X114591000Y-93885500D02*
X114591500Y-93885000D01*
X94773590Y-87027000D02*
X96176500Y-87027000D01*
X96176500Y-87027000D02*
X96240000Y-87090500D01*
X119354000Y-95282000D02*
X119354000Y-96806000D01*
X119354000Y-96806000D02*
X119354000Y-103918000D01*
X116369500Y-96234500D02*
X116941000Y-96806000D01*
X116941000Y-96806000D02*
X119354000Y-96806000D01*
X116369500Y-95159000D02*
X116369500Y-96234500D01*
X117893500Y-93885000D02*
X117643500Y-93885000D01*
X117643500Y-93885000D02*
X116369500Y-95159000D01*
X117893500Y-93885000D02*
X118993500Y-93885000D01*
X118993500Y-93885000D02*
X119692000Y-94583500D01*
X117893500Y-93885000D02*
X118338000Y-93885000D01*
X117893500Y-93885000D02*
X117957000Y-93885000D01*
X117957000Y-93885000D02*
X119354000Y-95282000D01*
X119354000Y-103918000D02*
X118973000Y-104299000D01*
X118973000Y-104299000D02*
X118878500Y-104204500D01*
X118878500Y-104204500D02*
X117893500Y-104204500D01*
X90017000Y-115538500D02*
X90969500Y-115538500D01*
X90144000Y-114840000D02*
X90144000Y-115411500D01*
X90144000Y-115411500D02*
X90017000Y-115538500D01*
X96240000Y-87090500D02*
X96240000Y-86455500D01*
X94208000Y-86455500D02*
X94773590Y-87021090D01*
X94773590Y-87021090D02*
X94773590Y-87027000D01*
X97549500Y-107664500D02*
X97549500Y-105950000D01*
X88048500Y-95392178D02*
X88048500Y-96952000D01*
X88048500Y-96952000D02*
X87995000Y-97005500D01*
X89321921Y-95062599D02*
X88378079Y-95062599D01*
X88378079Y-95062599D02*
X88048500Y-95392178D01*
X89636000Y-95726500D02*
X89377401Y-95467901D01*
X89377401Y-95467901D02*
X89377401Y-95118079D01*
X89377401Y-95118079D02*
X89321921Y-95062599D01*
X97532500Y-95726500D02*
X89636000Y-95726500D01*
X98399000Y-95560000D02*
X97699000Y-95560000D01*
X97699000Y-95560000D02*
X97532500Y-95726500D01*
X88620000Y-97655500D02*
X91160000Y-97655500D01*
X107289000Y-101632000D02*
X107289000Y-101505000D01*
X107289000Y-101505000D02*
X107860500Y-100933500D01*
X103542500Y-101505000D02*
X103606000Y-101505000D01*
X103606000Y-101505000D02*
X104177500Y-100933500D01*
X107289000Y-101632000D02*
X105701500Y-101632000D01*
X105701500Y-101632000D02*
X105384000Y-101949500D01*
X108400000Y-99920000D02*
X108400000Y-100394000D01*
X108400000Y-100394000D02*
X107860500Y-100933500D01*
X104590000Y-99920000D02*
X104590000Y-100521000D01*
X104590000Y-100521000D02*
X104177500Y-100933500D01*
X98931000Y-101124000D02*
X98208500Y-101124000D01*
X98208500Y-101124000D02*
X97891000Y-101441500D01*
X104749000Y-97631500D02*
X105447500Y-98330000D01*
X104749000Y-96855500D02*
X104749000Y-97631500D01*
X104590000Y-96046500D02*
X104590000Y-96696500D01*
X104590000Y-96696500D02*
X104749000Y-96855500D01*
X108400000Y-99920000D02*
X108400000Y-98806000D01*
X108400000Y-98806000D02*
X108305000Y-98711000D01*
X81635000Y-105315000D02*
X81635000Y-105940000D01*
X81635000Y-105940000D02*
X80934999Y-106640001D01*
X80934999Y-106640001D02*
X80934999Y-107994999D01*
X80934999Y-107994999D02*
X81635000Y-108695000D01*
X81635000Y-108695000D02*
X81635000Y-108720000D01*
X85453998Y-97885500D02*
X86333998Y-97005500D01*
X86333998Y-97005500D02*
X87995000Y-97005500D01*
X88620000Y-97630500D02*
X88620000Y-97655500D01*
X87995000Y-97005500D02*
X88620000Y-97630500D01*
X81697000Y-99601500D02*
X82397000Y-98901500D01*
X78079000Y-99601500D02*
X81697000Y-99601500D01*
X114718500Y-106902500D02*
X115798000Y-106902500D01*
X115798000Y-106902500D02*
X115988500Y-107093000D01*
X115798000Y-105315000D02*
X114782000Y-105315000D01*
X114782000Y-105315000D02*
X114718500Y-105378500D01*
X114464500Y-102775000D02*
X114972500Y-102775000D01*
X114972500Y-102775000D02*
X115734500Y-103537000D01*
X112750000Y-104204500D02*
X114749500Y-104204500D01*
X114749500Y-104204500D02*
X114845500Y-104108500D01*
X91946000Y-115475000D02*
X91033000Y-115475000D01*
X91033000Y-115475000D02*
X90969500Y-115538500D01*
X97455000Y-113975000D02*
X97455000Y-114975500D01*
X97455000Y-114975500D02*
X98018000Y-115538500D01*
X81635000Y-105315000D02*
X79984000Y-105315000D01*
X79984000Y-105315000D02*
X79539500Y-104870500D01*
X88075000Y-104930000D02*
X90425000Y-104930000D01*
X85762500Y-105061000D02*
X85762500Y-105124500D01*
X85762500Y-105124500D02*
X86334000Y-105696000D01*
X88075000Y-104930000D02*
X86711000Y-104930000D01*
X86711000Y-104930000D02*
X86334000Y-104553000D01*
X89509000Y-109379000D02*
X89572500Y-109315500D01*
X88620000Y-109379000D02*
X89509000Y-109379000D01*
X88075000Y-107280000D02*
X88075000Y-108971500D01*
X88075000Y-108971500D02*
X87667500Y-109379000D01*
X92303000Y-97631500D02*
X92303000Y-96933000D01*
X92303000Y-96933000D02*
X92176000Y-96806000D01*
X94335000Y-97655500D02*
X94041500Y-97655500D01*
X94041500Y-97655500D02*
X93319000Y-96933000D01*
X97549500Y-105950000D02*
X98145000Y-105950000D01*
X98145000Y-105950000D02*
X98843500Y-105251500D01*
X96303500Y-104743500D02*
X95097000Y-104743500D01*
X95097000Y-104743500D02*
X95033500Y-104807000D01*
X97549500Y-105950000D02*
X97549500Y-104910000D01*
X97549500Y-104910000D02*
X97383000Y-104743500D01*
X103923500Y-104743500D02*
X103987000Y-104743500D01*
X103987000Y-104743500D02*
X104622000Y-105378500D01*
X104590000Y-103730000D02*
X104590000Y-104076500D01*
X104590000Y-104076500D02*
X105193500Y-104680000D01*
X107543000Y-104743500D02*
X107543000Y-105823000D01*
X107543000Y-105823000D02*
X107606500Y-105886500D01*
X108400000Y-103730000D02*
X108400000Y-104457500D01*
X108400000Y-104457500D02*
X108749500Y-104807000D01*
X108400000Y-99920000D02*
X108400000Y-100203500D01*
X104590000Y-99920000D02*
X104590000Y-99187000D01*
X104590000Y-99187000D02*
X104177500Y-98774500D01*
X104590000Y-99920000D02*
X104590000Y-100203500D01*
X96875000Y-100425500D02*
X97827500Y-100425500D01*
X96875000Y-101505000D02*
X95795500Y-100425500D01*
X90425000Y-107280000D02*
X90425000Y-104930000D01*
X88075000Y-107280000D02*
X90425000Y-107280000D01*
X88075000Y-104930000D02*
X88075000Y-107280000D01*
X88025000Y-163405000D02*
X82310000Y-163405000D01*
X82310000Y-165945000D02*
X88025000Y-165945000D01*
X71515000Y-165945000D02*
X76595000Y-165945000D01*
X65800000Y-169120000D02*
X65800000Y-165945000D01*
X76595000Y-169120000D02*
X71515000Y-169120000D01*
X88025000Y-169120000D02*
X82310000Y-169120000D01*
X82310000Y-173565000D02*
X88025000Y-173565000D01*
X71515000Y-173565000D02*
X76595000Y-173565000D01*
X60085000Y-165945000D02*
X60085000Y-169120000D01*
X58180000Y-149435000D02*
X58180000Y-153880000D01*
X58180000Y-141180000D02*
X58180000Y-146260000D01*
X67705000Y-150705000D02*
X70880000Y-153880000D01*
X75960000Y-145625000D02*
X71515000Y-150070000D01*
X67070000Y-144355000D02*
X68340000Y-145625000D01*
X68340000Y-145625000D02*
X70880000Y-145625000D01*
X75960000Y-141815000D02*
X70880000Y-141815000D01*
X84215000Y-138005000D02*
X81040000Y-141180000D01*
X81040000Y-141180000D02*
X81040000Y-141815000D01*
X75325000Y-136735000D02*
X80405000Y-136735000D01*
X66435000Y-136735000D02*
X70245000Y-136735000D01*
X61990000Y-139910000D02*
X66435000Y-139910000D01*
X59450000Y-132925000D02*
X59450000Y-138005000D01*
X70245000Y-131655000D02*
X64530000Y-131655000D01*
X84850000Y-131655000D02*
X77865000Y-131655000D01*
X70880000Y-129750000D02*
X65800000Y-129750000D01*
X82310000Y-129750000D02*
X77230000Y-129750000D01*
X77928500Y-150070000D02*
X75452000Y-152546500D01*
X82437000Y-145561500D02*
X80341500Y-147657000D01*
X80341500Y-147657000D02*
X80341500Y-147784000D01*
X85294500Y-143720000D02*
X86437500Y-143720000D01*
X86437500Y-143720000D02*
X86691500Y-143466000D01*
X89803000Y-142132500D02*
X89803000Y-143656500D01*
X89803000Y-143656500D02*
X89866500Y-143720000D01*
X89930000Y-138640000D02*
X89930000Y-140735500D01*
X89930000Y-140735500D02*
X89803000Y-140862500D01*
X89358500Y-146260000D02*
X90311000Y-146260000D01*
X90311000Y-146260000D02*
X90438000Y-146133000D01*
X85421500Y-146323500D02*
X87136000Y-146323500D01*
X87136000Y-146323500D02*
X87199500Y-146260000D01*
X81421000Y-150832000D02*
X83453000Y-148800000D01*
X83453000Y-148800000D02*
X83453000Y-148546000D01*
X76722000Y-155531000D02*
X79071500Y-153181500D01*
X79071500Y-153181500D02*
X79071500Y-152991000D01*
X63387000Y-161500000D02*
X70689500Y-161500000D01*
X70689500Y-161500000D02*
X74372500Y-157817000D01*
X62625000Y-160738000D02*
X63387000Y-161500000D01*
X62625000Y-158642500D02*
X62625000Y-160738000D01*
D42*
X92533500Y-144418500D02*
X93613000Y-143339000D01*
X91848887Y-145103113D02*
X92533500Y-144418500D01*
D41*
X66943000Y-158261500D02*
X66943000Y-159087000D01*
X61355000Y-157055000D02*
X61355000Y-159341000D01*
X61355000Y-159341000D02*
X61545500Y-159531500D01*
X63895000Y-154769000D02*
X61609000Y-154769000D01*
X61609000Y-154769000D02*
X61482000Y-154642000D01*
X83453000Y-156229500D02*
X85612000Y-154070500D01*
X85612000Y-154070500D02*
X85612000Y-153943500D01*
X87072500Y-156356500D02*
X85612000Y-156356500D01*
X85612000Y-156356500D02*
X85358000Y-156102500D01*
X87326500Y-158198000D02*
X89358500Y-158198000D01*
X89358500Y-158198000D02*
X89485500Y-158071000D01*
X83135500Y-158007500D02*
X85104000Y-158007500D01*
X85104000Y-158007500D02*
X85167500Y-158071000D01*
X79452500Y-159468000D02*
X79643000Y-159468000D01*
X79643000Y-159468000D02*
X81167000Y-157944000D01*
X76277500Y-160230000D02*
X77992000Y-160230000D01*
X77992000Y-160230000D02*
X78055500Y-160166500D01*
X91848887Y-146387000D02*
X91848887Y-145340699D01*
X91848887Y-146908887D02*
X91848887Y-146577500D01*
X91848887Y-146577500D02*
X91848887Y-146387000D01*
D42*
X95708500Y-135778590D02*
X93740000Y-135778590D01*
X93740000Y-139973500D02*
X93740000Y-135778590D01*
X93740000Y-139001554D02*
X93740000Y-135778590D01*
D41*
X93105000Y-165310000D02*
X93105000Y-163405000D01*
X93105000Y-163405000D02*
X93740000Y-162770000D01*
X93105000Y-169120000D02*
X93105000Y-165310000D01*
X93740000Y-129750000D02*
X96915000Y-129750000D01*
X88025000Y-131655000D02*
X89930000Y-129750000D01*
X88025000Y-131655000D02*
X91200000Y-131655000D01*
X105360500Y-170644000D02*
X103900000Y-170644000D01*
X103900000Y-170644000D02*
X103709500Y-170453500D01*
X109107000Y-166834000D02*
X107011500Y-168929500D01*
X107011500Y-168929500D02*
X107011500Y-169310500D01*
X107138500Y-167659500D02*
X108345000Y-166453000D01*
X108345000Y-166453000D02*
X108345000Y-165627500D01*
X102947500Y-167723000D02*
X104979500Y-167723000D01*
X101360000Y-171025000D02*
X101360000Y-168802500D01*
X103709500Y-163278000D02*
X103709500Y-163214500D01*
X103709500Y-163214500D02*
X104598500Y-162325500D01*
X101614000Y-164230500D02*
X103074500Y-164230500D01*
X103074500Y-164230500D02*
X103138000Y-164294000D01*
X107329000Y-159214000D02*
X103011000Y-163532000D01*
X103011000Y-163532000D02*
X102693500Y-163532000D01*
X107329000Y-157626500D02*
X107329000Y-159214000D01*
X93422500Y-140545000D02*
X93422500Y-141497500D01*
X93422500Y-141497500D02*
X93359000Y-141561000D01*
X97002500Y-147897500D02*
X96290881Y-147897500D01*
X96290881Y-147897500D02*
X95554091Y-148634290D01*
X97002500Y-147897500D02*
X97002500Y-147566598D01*
X97002500Y-147566598D02*
X97737598Y-146831500D01*
D43*
X143905000Y-143720000D02*
X145175000Y-144990000D01*
X142635000Y-144990000D02*
X143905000Y-143720000D01*
X143905000Y-146260000D02*
X142635000Y-144990000D01*
X145175000Y-144990000D02*
X143905000Y-146260000D01*
D41*
X142190500Y-142450000D02*
X143016000Y-142450000D01*
X143016000Y-142450000D02*
X143079500Y-142386500D01*
X104408000Y-145815500D02*
X102947500Y-147276000D01*
X106376500Y-144609000D02*
X106186000Y-144609000D01*
X106186000Y-144609000D02*
X105678000Y-144101000D01*
X106122500Y-147847500D02*
X106122500Y-147212500D01*
X106122500Y-147212500D02*
X106440000Y-146895000D01*
X104408000Y-145815500D02*
X104535000Y-145815500D01*
X104535000Y-145815500D02*
X105678000Y-146958500D01*
X113742500Y-140545000D02*
X107900500Y-140545000D01*
X117235000Y-140545000D02*
X115330000Y-140545000D01*
X121616500Y-142958000D02*
X122569000Y-142958000D01*
X122569000Y-142958000D02*
X124093000Y-142958000D01*
X120600500Y-142958000D02*
X121616500Y-142958000D01*
X119457500Y-142958000D02*
X120600500Y-142958000D01*
X116790500Y-142958000D02*
X119330500Y-142958000D01*
X119330500Y-142958000D02*
X119457500Y-142958000D01*
X114504500Y-142958000D02*
X116790500Y-142958000D01*
X112155000Y-142958000D02*
X114504500Y-142958000D01*
X109297500Y-142958000D02*
X112155000Y-142958000D01*
X112155000Y-142958000D02*
X112155000Y-143085000D01*
X107710000Y-147530000D02*
X107710000Y-149181000D01*
X107900500Y-144355000D02*
X107900500Y-145815500D01*
X107900500Y-145815500D02*
X107710000Y-146006000D01*
X107900500Y-144355000D02*
X107900500Y-150193098D01*
X107900500Y-150193098D02*
X104916000Y-153177598D01*
X105424000Y-130067500D02*
X105424000Y-130131000D01*
X105424000Y-130131000D02*
X104662000Y-130893000D01*
X107011500Y-128797500D02*
X105233500Y-128797500D01*
X109297500Y-130321500D02*
X109297500Y-129051500D01*
X109297500Y-129051500D02*
X109170500Y-128924500D01*
X110821500Y-128797500D02*
X110821500Y-130258000D01*
X110821500Y-130258000D02*
X111012000Y-130448500D01*
X115520500Y-128797500D02*
X112853500Y-128797500D01*
X120410000Y-129432500D02*
X118886000Y-129432500D01*
X118886000Y-129432500D02*
X118251000Y-128797500D01*
X124347000Y-129305500D02*
X122442000Y-129305500D01*
X122442000Y-129305500D02*
X122251500Y-129496000D01*
X128030000Y-131695000D02*
X126736500Y-131695000D01*
X126736500Y-131695000D02*
X126315500Y-131274000D01*
X126315500Y-131274000D02*
X126315500Y-130004000D01*
X130570000Y-129750000D02*
X128030000Y-129750000D01*
X128030000Y-131695000D02*
X130530000Y-131695000D01*
X130530000Y-131695000D02*
X130570000Y-131655000D01*
X107329000Y-154578500D02*
X107329000Y-156039000D01*
X107329000Y-156039000D02*
X107392500Y-156102500D01*
X107392500Y-153499000D02*
X107392500Y-154515000D01*
X107392500Y-154515000D02*
X107329000Y-154578500D01*
X101931500Y-153626000D02*
X104467598Y-153626000D01*
X104467598Y-153626000D02*
X104916000Y-153177598D01*
X101550500Y-153245000D02*
X101931500Y-153626000D01*
X101550500Y-151784500D02*
X101550500Y-153245000D01*
X124093000Y-142958000D02*
X124728000Y-142323000D01*
X107900500Y-144355000D02*
X109297500Y-142958000D01*
X134380000Y-148165000D02*
X137412401Y-151197401D01*
X137412401Y-151197401D02*
X143176153Y-151197401D01*
X143176153Y-151197401D02*
X144047599Y-150325955D01*
X144047599Y-150325955D02*
X144047599Y-147785955D01*
X144047599Y-147785955D02*
X144047599Y-146577500D01*
X140476000Y-141688000D02*
X140476000Y-142767500D01*
D43*
X141785001Y-143251001D02*
X141404001Y-143251001D01*
X136920000Y-138767000D02*
X107583000Y-138767000D01*
X142635000Y-144990000D02*
X141785001Y-144140001D01*
X141785001Y-144140001D02*
X141785001Y-143251001D01*
D41*
X126125000Y-138576500D02*
X127585500Y-138576500D01*
X127585500Y-138576500D02*
X127776000Y-138386000D01*
X123966000Y-138513000D02*
X124664500Y-139211500D01*
X120156000Y-138322500D02*
X122505500Y-138322500D01*
X137110500Y-138957500D02*
X136856500Y-138957500D01*
X136856500Y-138957500D02*
X136221500Y-138322500D01*
X137174000Y-140227500D02*
X137047000Y-140227500D01*
X137047000Y-140227500D02*
X136094500Y-139275000D01*
D43*
X113044000Y-138767000D02*
X107583000Y-138767000D01*
X107583000Y-138767000D02*
X107519500Y-138830500D01*
D41*
X107710000Y-139084500D02*
X107710000Y-138640000D01*
X107710000Y-138640000D02*
X107456000Y-138386000D01*
D43*
X115330000Y-138767000D02*
X113044000Y-138767000D01*
X117870000Y-138767000D02*
X115330000Y-138767000D01*
X142635000Y-144990000D02*
X142635000Y-143529500D01*
X145175000Y-144990000D02*
X142635000Y-144990000D01*
D41*
X145175000Y-144990000D02*
X144325001Y-144140001D01*
X144325001Y-144140001D02*
X143484999Y-144140001D01*
X143484999Y-144140001D02*
X142635000Y-144990000D01*
X144047599Y-146577500D02*
X144047599Y-146117401D01*
X143484999Y-146014900D02*
X144047599Y-146577500D01*
X142635000Y-144990000D02*
X143484999Y-145839999D01*
X143484999Y-145839999D02*
X143484999Y-146014900D01*
X118949500Y-140481500D02*
X135586500Y-140481500D01*
X141365000Y-146260000D02*
X141365000Y-148038000D01*
X135586500Y-140481500D02*
X141365000Y-146260000D01*
X144325001Y-145839999D02*
X145175000Y-144990000D01*
X141365000Y-148038000D02*
X141984401Y-148657401D01*
X141984401Y-148657401D02*
X143176153Y-148657401D01*
X143176153Y-148657401D02*
X144047599Y-147785955D01*
X144047599Y-146117401D02*
X144325001Y-145839999D01*
X116663500Y-134258500D02*
X118378000Y-134258500D01*
X113615500Y-134258500D02*
X115076000Y-134258500D01*
D42*
X107392500Y-156102500D02*
X106059000Y-156102500D01*
X106059000Y-156102500D02*
X105995500Y-156039000D01*
X105170000Y-157690000D02*
X107265500Y-157690000D01*
X107265500Y-157690000D02*
X107329000Y-157626500D01*
X101360000Y-158071000D02*
X101360000Y-158388500D01*
X101360000Y-158388500D02*
X100979000Y-158769500D01*
X93740000Y-139973500D02*
X93740000Y-142450000D01*
X95581500Y-139973500D02*
X93740000Y-139973500D01*
X93740000Y-142450000D02*
X94629000Y-143339000D01*
X95581500Y-139973500D02*
X94711946Y-139973500D01*
X93613000Y-143339000D02*
X94629000Y-143339000D01*
X91848887Y-145340699D02*
X91848887Y-145103113D01*
D41*
X95277500Y-146172500D02*
X94165000Y-146172500D01*
X91848887Y-145340699D02*
X91858543Y-145331043D01*
X92343000Y-147403000D02*
X91848887Y-146908887D01*
X92934500Y-147403000D02*
X92343000Y-147403000D01*
X94165000Y-146172500D02*
X92934500Y-147403000D01*
X118886000Y-140545000D02*
X118949500Y-140481500D01*
X117235000Y-140545000D02*
X118886000Y-140545000D01*
X113742500Y-140545000D02*
X115330000Y-140545000D01*
X99709000Y-146450500D02*
X105614500Y-140545000D01*
X105614500Y-140545000D02*
X107900500Y-140545000D01*
X99562000Y-146450500D02*
X99709000Y-146450500D01*
X97002500Y-147897500D02*
X98115000Y-147897500D01*
X98115000Y-147897500D02*
X99562000Y-146450500D01*
D43*
X117893500Y-99885000D02*
X112750500Y-99885000D01*
X112307955Y-99885500D02*
X110273500Y-97851045D01*
X103804999Y-116800001D02*
X109575000Y-111030000D01*
X110273500Y-110331500D02*
X109575000Y-111030000D01*
X109575000Y-111030000D02*
X110210000Y-110395000D01*
X110273500Y-97851045D02*
X110273500Y-110331500D01*
X110210000Y-94202500D02*
X104558500Y-88551000D01*
X104558500Y-88551000D02*
X96181000Y-88551000D01*
X110273500Y-94202500D02*
X110210000Y-94202500D01*
X110273500Y-97851045D02*
X110273500Y-94202500D01*
X112750000Y-99885500D02*
X112307955Y-99885500D01*
X83698000Y-90552000D02*
X83698000Y-90491955D01*
X83698000Y-90491955D02*
X87438965Y-86750990D01*
X87438965Y-86750990D02*
X92723035Y-86750990D01*
X83540000Y-90552000D02*
X83698000Y-90552000D01*
X93879999Y-116800001D02*
X84738001Y-116800001D01*
X84738001Y-116800001D02*
X79583001Y-111645001D01*
X79583001Y-111645001D02*
X78621999Y-111645001D01*
X78621999Y-111645001D02*
X78578518Y-111601520D01*
X78578518Y-111601520D02*
X78079000Y-111601520D01*
X110210000Y-110395000D02*
X110210000Y-110394500D01*
X110210000Y-110394500D02*
X110400000Y-110204500D01*
X110400000Y-110204500D02*
X112750000Y-110204500D01*
X100790001Y-116800001D02*
X103804999Y-116800001D01*
D41*
X101383500Y-115475000D02*
X101383500Y-115975000D01*
X101383500Y-115975000D02*
X100790001Y-116568499D01*
X100790001Y-116568499D02*
X100790001Y-116800001D01*
D43*
X92723035Y-86750990D02*
X94081000Y-88108955D01*
X94081000Y-88108955D02*
X94081000Y-88551000D01*
X96181000Y-88551000D02*
X94081000Y-88551000D01*
X112750500Y-99885000D02*
X112750000Y-99885500D01*
X117893500Y-110204500D02*
X118335545Y-110204500D01*
X112750000Y-110204500D02*
X117893500Y-110204500D01*
X93879999Y-116800001D02*
X100790001Y-116800001D01*
X93446000Y-115475000D02*
X95605000Y-115475000D01*
X95605000Y-115475000D02*
X95205000Y-115475000D01*
X95205000Y-115475000D02*
X93879999Y-116800001D01*
X96049500Y-107664500D02*
X96049500Y-105950000D01*
X99351500Y-99155500D02*
X100431000Y-100235000D01*
X100431000Y-100235000D02*
X100431000Y-101124000D01*
X94335000Y-99155500D02*
X99351500Y-99155500D01*
X100431000Y-101124000D02*
X100431000Y-102696000D01*
D41*
X101320000Y-110395000D02*
X101320000Y-108840000D01*
X101320000Y-108840000D02*
X100480000Y-108000000D01*
X93700000Y-105855000D02*
X95954500Y-105855000D01*
X95954500Y-105855000D02*
X96049500Y-105950000D01*
X93700000Y-108355000D02*
X94375000Y-108355000D01*
X94375000Y-108355000D02*
X95065500Y-107664500D01*
X95065500Y-107664500D02*
X96049500Y-107664500D01*
D43*
X96049500Y-107664500D02*
X96199499Y-107814499D01*
X96199499Y-107814499D02*
X96199499Y-112280501D01*
X96199499Y-112280501D02*
X96005000Y-112475000D01*
D41*
X93700000Y-100885000D02*
X94335000Y-100250000D01*
X94335000Y-100250000D02*
X94335000Y-99155500D01*
X91000000Y-101655000D02*
X91000000Y-99315500D01*
X91000000Y-99315500D02*
X91160000Y-99155500D01*
X88500000Y-101655000D02*
X88500000Y-99275500D01*
X88500000Y-99275500D02*
X88620000Y-99155500D01*
D43*
X86842000Y-99282500D02*
X84429000Y-99282500D01*
X88620000Y-99155500D02*
X86969000Y-99155500D01*
X86969000Y-99155500D02*
X86842000Y-99282500D01*
X91160000Y-99155500D02*
X88620000Y-99155500D01*
X94335000Y-99155500D02*
X91160000Y-99155500D01*
D41*
X93700000Y-102355000D02*
X93700000Y-100885000D01*
D43*
X82587500Y-101124000D02*
X84429000Y-99282500D01*
X82587500Y-103727500D02*
X82587500Y-101124000D01*
X83135000Y-104275000D02*
X82587500Y-103727500D01*
X83135000Y-105315000D02*
X83135000Y-104275000D01*
D41*
X92000000Y-110555000D02*
X92000000Y-112349000D01*
X92000000Y-112349000D02*
X91985500Y-112363500D01*
X91094999Y-113674003D02*
X91094999Y-113279001D01*
X91094999Y-113279001D02*
X91985500Y-112388500D01*
X91985500Y-112388500D02*
X91985500Y-112363500D01*
D43*
X95605000Y-112475000D02*
X96005000Y-112475000D01*
X96005000Y-112475000D02*
X100480000Y-108000000D01*
X100480000Y-108000000D02*
X100480000Y-107600002D01*
X93509500Y-112387500D02*
X92009500Y-112387500D01*
X92009500Y-112387500D02*
X91985500Y-112363500D01*
X93509500Y-112387500D02*
X95517500Y-112387500D01*
X95517500Y-112387500D02*
X95605000Y-112475000D01*
D41*
X86905500Y-114840000D02*
X87105500Y-114840000D01*
X87105500Y-114840000D02*
X87680501Y-115415001D01*
X87680501Y-115415001D02*
X89203001Y-115415001D01*
X89203001Y-115415001D02*
X89368999Y-115249003D01*
X89368999Y-115249003D02*
X89368999Y-114329999D01*
X89368999Y-114329999D02*
X89783997Y-113915001D01*
X89783997Y-113915001D02*
X90854001Y-113915001D01*
X90854001Y-113915001D02*
X91094999Y-113674003D01*
X85254500Y-114840000D02*
X86905500Y-114840000D01*
D43*
X100431000Y-102696000D02*
X100480000Y-102745000D01*
D41*
X84800000Y-105855000D02*
X83675000Y-105855000D01*
X83675000Y-105855000D02*
X83135000Y-105315000D01*
D43*
X100480000Y-104045000D02*
X100480000Y-107600002D01*
X100480000Y-102745000D02*
X100480000Y-104045000D01*
D41*
X95375000Y-102775000D02*
X95375000Y-101505000D01*
X93700000Y-103355000D02*
X94795000Y-103355000D01*
X94795000Y-103355000D02*
X95375000Y-102775000D01*
X83135000Y-107220000D02*
X81635000Y-107220000D01*
X84800000Y-106355000D02*
X84000000Y-106355000D01*
X84000000Y-106355000D02*
X83135000Y-107220000D01*
X102907500Y-106585000D02*
X103620001Y-107297501D01*
X102820000Y-110195000D02*
X102820000Y-110395000D01*
X103620001Y-107297501D02*
X103620001Y-109394999D01*
X103620001Y-109394999D02*
X102820000Y-110195000D01*
X102895000Y-106585000D02*
X102907500Y-106585000D01*
X102895000Y-109140000D02*
X102895000Y-108490000D01*
X101955000Y-110080000D02*
X102895000Y-109140000D01*
X101955000Y-111235000D02*
X101955000Y-110080000D01*
X102820000Y-112100000D02*
X101955000Y-111235000D01*
X102820000Y-112300000D02*
X102820000Y-112100000D01*
X103240002Y-90710000D02*
X102185000Y-90710000D01*
X106400000Y-102780000D02*
X107100000Y-102780000D01*
X104435001Y-91904999D02*
X103240002Y-90710000D01*
X107100000Y-102780000D02*
X109175001Y-100704999D01*
X109175001Y-100704999D02*
X109175001Y-95449999D01*
X107111501Y-93390001D02*
X104849999Y-93390001D01*
X109175001Y-95449999D02*
X107546502Y-93821500D01*
X107546502Y-93821500D02*
X107543000Y-93821500D01*
X107543000Y-93821500D02*
X107111501Y-93390001D01*
X104849999Y-93390001D02*
X104435001Y-92975003D01*
X104435001Y-92975003D02*
X104435001Y-91904999D01*
X108813000Y-102140000D02*
X108388736Y-102140000D01*
X107100000Y-103428736D02*
X107100000Y-104030000D01*
X108388736Y-102140000D02*
X107100000Y-103428736D01*
X107100000Y-104030000D02*
X106450000Y-104680000D01*
X106450000Y-104680000D02*
X106400000Y-104680000D01*
X117512500Y-101822500D02*
X111861000Y-101822500D01*
X111861000Y-101822500D02*
X111797500Y-101759000D01*
X105360000Y-92615000D02*
X106717500Y-92615000D01*
X106717500Y-92615000D02*
X106781000Y-92551500D01*
X106400000Y-104680000D02*
X106350000Y-104680000D01*
X105765000Y-110395000D02*
X105765000Y-109695000D01*
X105765000Y-109695000D02*
X105624999Y-109554999D01*
X105624999Y-109554999D02*
X105624999Y-107315001D01*
X105624999Y-107315001D02*
X106350000Y-106590000D01*
X106350000Y-106590000D02*
X106400000Y-106590000D01*
X105765000Y-112300000D02*
X105765000Y-111600000D01*
X106400000Y-110965000D02*
X106400000Y-109140000D01*
X105765000Y-111600000D02*
X106400000Y-110965000D01*
X106400000Y-109140000D02*
X106400000Y-108490000D01*
X104822498Y-98403498D02*
X103542500Y-97123500D01*
X103542500Y-97123500D02*
X103542500Y-96277764D01*
X104822498Y-98630002D02*
X104822498Y-98403498D01*
X103290000Y-102780000D02*
X105365001Y-100704999D01*
X105365001Y-99172505D02*
X104822498Y-98630002D01*
X102590000Y-102780000D02*
X103290000Y-102780000D01*
X105365001Y-100704999D02*
X105365001Y-99172505D01*
X103542500Y-96277764D02*
X103542500Y-95853500D01*
X92811000Y-94520000D02*
X92025000Y-94520000D01*
X102590000Y-102780000D02*
X102640000Y-102780000D01*
X98759003Y-96135001D02*
X89155501Y-96135001D01*
X99923000Y-98139500D02*
X99923000Y-97298998D01*
X101574000Y-99790500D02*
X99923000Y-98139500D01*
X89155501Y-96135001D02*
X88874000Y-95853500D01*
X99923000Y-97298998D02*
X98759003Y-96135001D01*
X101574000Y-103714000D02*
X101574000Y-99790500D01*
X102540000Y-104680000D02*
X101574000Y-103714000D01*
X102590000Y-104680000D02*
X102540000Y-104680000D01*
X88850000Y-94085000D02*
X88850000Y-93885000D01*
X100960411Y-96607855D02*
X99253556Y-94901000D01*
X96353999Y-95295001D02*
X90123418Y-95295001D01*
X99253556Y-94901000D02*
X96748000Y-94901000D01*
X100960411Y-98036317D02*
X100960411Y-96607855D01*
X101244094Y-98320000D02*
X100960411Y-98036317D01*
X90123418Y-95295001D02*
X89413417Y-94585000D01*
X101890000Y-98320000D02*
X101244094Y-98320000D01*
X102540000Y-98970000D02*
X101890000Y-98320000D01*
X96748000Y-94901000D02*
X96353999Y-95295001D01*
X102590000Y-98970000D02*
X102540000Y-98970000D01*
X89350000Y-94585000D02*
X88850000Y-94085000D01*
X89413417Y-94585000D02*
X89350000Y-94585000D01*
X95827000Y-94393000D02*
X95700000Y-94520000D01*
X95700000Y-94520000D02*
X95200000Y-94520000D01*
X99314651Y-94393000D02*
X95827000Y-94393000D01*
X101447000Y-96525349D02*
X99314651Y-94393000D01*
X101447000Y-97352002D02*
X101447000Y-96525349D01*
X101879999Y-97785001D02*
X101447000Y-97352002D01*
X102840003Y-97785001D02*
X101879999Y-97785001D01*
X103365001Y-98309999D02*
X102840003Y-97785001D01*
X103365001Y-100144999D02*
X103365001Y-98309999D01*
X102640000Y-100870000D02*
X103365001Y-100144999D01*
X102590000Y-100870000D02*
X102640000Y-100870000D01*
X95700000Y-92615000D02*
X95200000Y-92615000D01*
X96475001Y-93390001D02*
X95700000Y-92615000D01*
X99449842Y-93390001D02*
X96475001Y-93390001D01*
X102590000Y-95096500D02*
X101156341Y-95096500D01*
X101156341Y-95096500D02*
X99449842Y-93390001D01*
X88850000Y-92180000D02*
X88850000Y-91980000D01*
X95732000Y-93567500D02*
X90237500Y-93567500D01*
X96049500Y-93885000D02*
X95732000Y-93567500D01*
X101890000Y-96346500D02*
X101837246Y-96346500D01*
X102540000Y-96996500D02*
X101890000Y-96346500D01*
X102590000Y-96996500D02*
X102540000Y-96996500D01*
X90237500Y-93567500D02*
X88850000Y-92180000D01*
X99375746Y-93885000D02*
X96049500Y-93885000D01*
X101837246Y-96346500D02*
X99375746Y-93885000D01*
X103829502Y-94964500D02*
X103236501Y-94371499D01*
X104879502Y-94964500D02*
X103829502Y-94964500D01*
X105447500Y-95532498D02*
X104879502Y-94964500D01*
X106400000Y-98320000D02*
X105447500Y-97367500D01*
X99510000Y-92615000D02*
X99010000Y-92615000D01*
X106400000Y-98970000D02*
X106400000Y-98320000D01*
X103236501Y-94371499D02*
X101041145Y-94371499D01*
X99859500Y-92964500D02*
X99510000Y-92615000D01*
X99859500Y-93189854D02*
X99859500Y-92964500D01*
X101041145Y-94371499D02*
X99859500Y-93189854D01*
X105447500Y-97367500D02*
X105447500Y-95532498D01*
X107352500Y-99967500D02*
X107352500Y-94677498D01*
X106400000Y-100870000D02*
X106450000Y-100870000D01*
X104368000Y-93948500D02*
X103809501Y-93390001D01*
X103809501Y-93390001D02*
X102760001Y-93390001D01*
X106450000Y-100870000D02*
X107352500Y-99967500D01*
X106623502Y-93948500D02*
X104368000Y-93948500D01*
X107352500Y-94677498D02*
X106623502Y-93948500D01*
X102760001Y-93390001D02*
X102185000Y-92815000D01*
X102185000Y-92815000D02*
X102185000Y-92615000D01*
X102263502Y-92693502D02*
X102185000Y-92615000D01*
X100285001Y-91485001D02*
X99510000Y-90710000D01*
X100840003Y-91485001D02*
X100285001Y-91485001D01*
X101447000Y-93162002D02*
X101447000Y-92091998D01*
X103542500Y-93885000D02*
X102169998Y-93885000D01*
X104114000Y-94456500D02*
X103542500Y-93885000D01*
X105060000Y-94456500D02*
X104114000Y-94456500D01*
X105700000Y-95096500D02*
X105060000Y-94456500D01*
X99510000Y-90710000D02*
X99010000Y-90710000D01*
X101447000Y-92091998D02*
X100840003Y-91485001D01*
X102169998Y-93885000D02*
X101447000Y-93162002D01*
X106400000Y-95096500D02*
X105700000Y-95096500D01*
X106400000Y-95160000D02*
X106350000Y-95160000D01*
X92811000Y-92615000D02*
X92840199Y-92644199D01*
X92025000Y-92615000D02*
X92811000Y-92615000D01*
X106400000Y-96996500D02*
X106400000Y-95996502D01*
X79963939Y-110451500D02*
X79179000Y-110451500D01*
X88493000Y-114840000D02*
X88293000Y-114840000D01*
X78329000Y-109601500D02*
X78079000Y-109601500D01*
X79179000Y-110451500D02*
X78329000Y-109601500D01*
X83427440Y-113915001D02*
X79963939Y-110451500D01*
X88293000Y-114840000D02*
X87368001Y-113915001D01*
X87368001Y-113915001D02*
X83427440Y-113915001D01*
X128728500Y-145625000D02*
X140793500Y-157690000D01*
X140793500Y-157690000D02*
X142635000Y-157690000D01*
X112091500Y-145625000D02*
X128728500Y-145625000D01*
X110250000Y-167913500D02*
X110123000Y-168040500D01*
X110123000Y-168040500D02*
X105963490Y-172200010D01*
X110504000Y-167659500D02*
X110123000Y-168040500D01*
X112091500Y-145625000D02*
X110504000Y-147212500D01*
X110504000Y-147212500D02*
X110504000Y-167659500D01*
X96285010Y-172200010D02*
X95360000Y-171275000D01*
X105963490Y-172200010D02*
X96285010Y-172200010D01*
X95360000Y-171275000D02*
X95360000Y-171025000D01*
X95360000Y-170775000D02*
X95360000Y-171025000D01*
X95360000Y-171025000D02*
X95360000Y-166956998D01*
X95360000Y-166956998D02*
X98231999Y-164084999D01*
X98231999Y-164084999D02*
X100235501Y-164084999D01*
X100235501Y-164084999D02*
X104725500Y-159595000D01*
X93700000Y-105355000D02*
X92805823Y-105355000D01*
X92805823Y-105355000D02*
X92620500Y-105540323D01*
X138039553Y-153630001D02*
X128895552Y-144486000D01*
X128895552Y-144486000D02*
X111606948Y-144486000D01*
X142635000Y-152610000D02*
X141614999Y-153630001D01*
X141614999Y-153630001D02*
X138039553Y-153630001D01*
X97360000Y-169925000D02*
X97360000Y-171025000D01*
X97360000Y-169908948D02*
X97360000Y-169925000D01*
X109365000Y-162285448D02*
X105637948Y-166012500D01*
X109365000Y-146727948D02*
X109365000Y-162285448D01*
X111606948Y-144486000D02*
X109365000Y-146727948D01*
X105637948Y-166012500D02*
X101256448Y-166012500D01*
X101256448Y-166012500D02*
X97360000Y-169908948D01*
X92687590Y-104855000D02*
X92620500Y-104787910D01*
X93700000Y-104855000D02*
X92687590Y-104855000D01*
X137832447Y-154129999D02*
X128688448Y-144986000D01*
X128688448Y-144986000D02*
X111814052Y-144986000D01*
X142635000Y-155150000D02*
X141614999Y-154129999D01*
X141614999Y-154129999D02*
X137832447Y-154129999D01*
X99360000Y-170775000D02*
X99360000Y-171025000D01*
X98510000Y-169925000D02*
X99360000Y-170775000D01*
X98510000Y-169466052D02*
X98510000Y-169925000D01*
X101463552Y-166512500D02*
X98510000Y-169466052D01*
X105845052Y-166512500D02*
X101463552Y-166512500D01*
X109865000Y-162492552D02*
X105845052Y-166512500D01*
X109865000Y-146935052D02*
X109865000Y-162492552D01*
X111814052Y-144986000D02*
X109865000Y-146935052D01*
X92419102Y-106855000D02*
X92146801Y-107127301D01*
X93700000Y-106855000D02*
X92419102Y-106855000D01*
X93700000Y-106355000D02*
X92263500Y-106355000D01*
X92263500Y-106355000D02*
X92176000Y-106267500D01*
X92811000Y-108069000D02*
X92811000Y-108490000D01*
X92811000Y-108490000D02*
X92747500Y-108553500D01*
X93700000Y-107855000D02*
X93025000Y-107855000D01*
X93025000Y-107855000D02*
X92811000Y-108069000D01*
X93700000Y-107355000D02*
X92803000Y-107355000D01*
X92803000Y-107355000D02*
X92176000Y-107982000D01*
X78829001Y-102851499D02*
X78079000Y-103601500D01*
X80134447Y-103913999D02*
X79071947Y-102851499D01*
X79071947Y-102851499D02*
X78829001Y-102851499D01*
X81317500Y-104089000D02*
X81142499Y-103913999D01*
X81142499Y-103913999D02*
X80134447Y-103913999D01*
X88000000Y-102695844D02*
X87952150Y-102743694D01*
X88000000Y-101655000D02*
X88000000Y-102695844D01*
X80341553Y-103414001D02*
X79279053Y-102351501D01*
X79279053Y-102351501D02*
X78829001Y-102351501D01*
X78829001Y-102351501D02*
X78079000Y-101601500D01*
X81317500Y-103239000D02*
X81142499Y-103414001D01*
X81142499Y-103414001D02*
X80341553Y-103414001D01*
X87500000Y-102239715D02*
X87393436Y-102346279D01*
X87393436Y-102346279D02*
X87093437Y-102646278D01*
X87500000Y-101655000D02*
X87500000Y-102239715D01*
X89500000Y-102895253D02*
X89540448Y-102935701D01*
X89500000Y-101655000D02*
X89500000Y-102895253D01*
X89000000Y-101655000D02*
X89000000Y-102576066D01*
X89000000Y-102576066D02*
X88747665Y-102828401D01*
X90500000Y-101655000D02*
X90500000Y-102333838D01*
X90500000Y-102333838D02*
X91096500Y-102930338D01*
X91096500Y-102930338D02*
X91096500Y-103219500D01*
X90000000Y-102470249D02*
X90296489Y-102766738D01*
X90000000Y-101655000D02*
X90000000Y-102470249D01*
X90296489Y-102794241D02*
X90296489Y-103218505D01*
X90296489Y-102766738D02*
X90296489Y-102794241D01*
X92075001Y-102405001D02*
X92298509Y-102405001D01*
X92476809Y-103355881D02*
X92176810Y-103655880D01*
X92316840Y-103664000D02*
X92184930Y-103664000D01*
X92000000Y-101655000D02*
X92000000Y-102330000D01*
X92476809Y-102583301D02*
X92476809Y-103355881D01*
X92298509Y-102405001D02*
X92476809Y-102583301D01*
X92000000Y-102330000D02*
X92075001Y-102405001D01*
X92184930Y-103664000D02*
X92176810Y-103655880D01*
X91598875Y-102656685D02*
X91898874Y-102956684D01*
X91500000Y-102557810D02*
X91598875Y-102656685D01*
X91500000Y-101655000D02*
X91500000Y-102557810D01*
X93000000Y-100781264D02*
X93103011Y-100678253D01*
X93000000Y-101655000D02*
X93000000Y-100781264D01*
X92500000Y-101655000D02*
X92500000Y-100876500D01*
X92500000Y-100876500D02*
X92303000Y-100679500D01*
X101383500Y-113975000D02*
X101183500Y-113975000D01*
X101183500Y-113975000D02*
X99683500Y-115475000D01*
X99683500Y-115475000D02*
X99305000Y-115475000D01*
X90144000Y-113340000D02*
X88493000Y-113340000D01*
X90144000Y-112430707D02*
X90144000Y-113340000D01*
X90144000Y-112430707D02*
X91000000Y-111574707D01*
X91000000Y-111574707D02*
X91000000Y-110555000D01*
X88800500Y-111864977D02*
X83825523Y-111864977D01*
X83825523Y-111864977D02*
X83795500Y-111895000D01*
X83795500Y-111895000D02*
X83095500Y-111895000D01*
X89500000Y-111165477D02*
X88800500Y-111864977D01*
X89500000Y-110555000D02*
X89500000Y-111165477D01*
X88986900Y-112314988D02*
X86479512Y-112314988D01*
X86479512Y-112314988D02*
X85454500Y-113340000D01*
X85454500Y-113340000D02*
X85254500Y-113340000D01*
X90000000Y-111301887D02*
X88986900Y-112314988D01*
X90000000Y-110555000D02*
X90000000Y-111301887D01*
X87643500Y-97782500D02*
X87731000Y-97695000D01*
X86842000Y-97782500D02*
X87643500Y-97782500D01*
X87000000Y-101655000D02*
X87024999Y-101630001D01*
X87024999Y-101630001D02*
X87024999Y-101004501D01*
X87024999Y-101004501D02*
X87350000Y-100679500D01*
X101320000Y-112300000D02*
X100555002Y-112300000D01*
X91500000Y-110555000D02*
X91500000Y-109547000D01*
X91500000Y-109547000D02*
X91541000Y-109506000D01*
X89173298Y-112764999D02*
X87680501Y-112764999D01*
X87680501Y-112764999D02*
X87105500Y-113340000D01*
X87105500Y-113340000D02*
X86905500Y-113340000D01*
X90500000Y-111438297D02*
X89173298Y-112764999D01*
X90500000Y-110555000D02*
X90500000Y-111438297D01*
X97192500Y-97822000D02*
X97637000Y-97822000D01*
X97637000Y-97822000D02*
X98399000Y-97060000D01*
X94589000Y-102641000D02*
X94589000Y-101505000D01*
X94589000Y-101505000D02*
X94335000Y-101251000D01*
X93700000Y-102855000D02*
X94375000Y-102855000D01*
X94375000Y-102855000D02*
X94589000Y-102641000D01*
X98609736Y-91660002D02*
X98434999Y-91485265D01*
X98020001Y-89934999D02*
X86601001Y-89934999D01*
X84804489Y-96169721D02*
X85240686Y-96605918D01*
X85240686Y-96605918D02*
X85540685Y-96905917D01*
X98434999Y-91485265D02*
X98434999Y-90349997D01*
X99034000Y-91660002D02*
X98609736Y-91660002D01*
X98434999Y-90349997D02*
X98020001Y-89934999D01*
X86601001Y-89934999D02*
X84804489Y-91731511D01*
X84804489Y-91731511D02*
X84804489Y-96169721D01*
X103860000Y-92615000D02*
X103034500Y-92615000D01*
X85871999Y-100979499D02*
X85572000Y-100679500D01*
X86000000Y-101107500D02*
X85871999Y-100979499D01*
X86000000Y-101655000D02*
X86000000Y-101107500D01*
X119227000Y-92170500D02*
X118465000Y-92170500D01*
X118465000Y-92170500D02*
X118338000Y-92043500D01*
X109176499Y-90057499D02*
X108640001Y-90057499D01*
X108640001Y-90057499D02*
X108622500Y-90075000D01*
X118338000Y-92043500D02*
X111162500Y-92043500D01*
X109176499Y-90057499D02*
X111162500Y-92043500D01*
X101447000Y-89948000D02*
X100685000Y-90710000D01*
X119163500Y-111729520D02*
X119606980Y-111729520D01*
X119606980Y-111729520D02*
X119798500Y-111538000D01*
X111923480Y-111729520D02*
X119163500Y-111729520D01*
X110527500Y-113125500D02*
X111923480Y-111729520D01*
X109999264Y-113125500D02*
X110527500Y-113125500D01*
X109575000Y-113125500D02*
X109999264Y-113125500D01*
X93700000Y-109355000D02*
X94565000Y-109355000D01*
X94565000Y-109355000D02*
X94843000Y-109633000D01*
X103016999Y-115238501D02*
X102717000Y-115538500D01*
X103016999Y-114891945D02*
X103016999Y-115238501D01*
X104265000Y-112300000D02*
X104265000Y-113643944D01*
X104265000Y-113643944D02*
X103016999Y-114891945D01*
X84800000Y-102355000D02*
X84087000Y-102355000D01*
X84087000Y-102355000D02*
X83857500Y-102584500D01*
X80365000Y-114268500D02*
X78904500Y-112808000D01*
X78904500Y-112808000D02*
X77317000Y-112808000D01*
X77317000Y-112808000D02*
X76903990Y-112394990D01*
X80639236Y-100552500D02*
X80766236Y-100679500D01*
X80766236Y-100679500D02*
X81190500Y-100679500D01*
X76903990Y-112394990D02*
X76903990Y-101218349D01*
X77569839Y-100552500D02*
X80639236Y-100552500D01*
X76903990Y-101218349D02*
X77569839Y-100552500D01*
X104265000Y-112300000D02*
X104265000Y-112657000D01*
X103161500Y-113379500D02*
X103461499Y-113079501D01*
X103461499Y-113079501D02*
X103461499Y-111898501D01*
X103461499Y-111898501D02*
X104265000Y-111095000D01*
X104265000Y-111095000D02*
X104265000Y-110395000D01*
X93000000Y-110555000D02*
X93669500Y-110555000D01*
X93669500Y-110555000D02*
X93954000Y-110839500D01*
X85889500Y-94774000D02*
X86905500Y-95790000D01*
X86905500Y-95790000D02*
X87350000Y-95790000D01*
X84800000Y-109355000D02*
X85469000Y-109355000D01*
X85469000Y-109355000D02*
X85953000Y-108871000D01*
X84365500Y-87471500D02*
X84512736Y-87471500D01*
X82016000Y-91917911D02*
X82260002Y-91673909D01*
X82133001Y-97741001D02*
X82133001Y-97077499D01*
X82016000Y-96960498D02*
X82016000Y-91917911D01*
X81197503Y-98676499D02*
X82133001Y-97741001D01*
X76237500Y-110522000D02*
X76237500Y-99407998D01*
X82133001Y-97077499D02*
X82016000Y-96960498D01*
X82260002Y-89576998D02*
X84365500Y-87471500D01*
X82260002Y-91673909D02*
X82260002Y-89576998D01*
X84512736Y-87471500D02*
X84937000Y-87471500D01*
X76968999Y-98676499D02*
X81197503Y-98676499D01*
X76237500Y-99407998D02*
X76968999Y-98676499D01*
X90525000Y-94520000D02*
X90271000Y-94520000D01*
X90271000Y-94520000D02*
X89763000Y-94012000D01*
X86000000Y-110555000D02*
X86000000Y-109880000D01*
X86000000Y-109880000D02*
X86310500Y-109569500D01*
X86310500Y-109569500D02*
X86651500Y-109569500D01*
X85211236Y-86715410D02*
X85635500Y-86715410D01*
X75382801Y-112329199D02*
X75382801Y-99184699D01*
X75382801Y-99184699D02*
X76555000Y-98012500D01*
X79158500Y-98012500D02*
X80174500Y-96996500D01*
X80174500Y-90964000D02*
X84423090Y-86715410D01*
X80174500Y-96996500D02*
X80174500Y-90964000D01*
X84423090Y-86715410D02*
X85211236Y-86715410D01*
X76555000Y-98012500D02*
X79158500Y-98012500D01*
X93700000Y-94520000D02*
X94449998Y-94520000D01*
X84772936Y-110882064D02*
X84772936Y-111180499D01*
X85100000Y-110555000D02*
X84772936Y-110882064D01*
X85500000Y-110555000D02*
X85100000Y-110555000D01*
X87350000Y-93885000D02*
X86334000Y-92869000D01*
X86334000Y-92869000D02*
X86334000Y-91916500D01*
X84800000Y-110024000D02*
X84175000Y-110649000D01*
X84800000Y-109855000D02*
X84800000Y-110024000D01*
X87350000Y-91980000D02*
X87350000Y-91027500D01*
X81571500Y-91726000D02*
X81571500Y-91218000D01*
X81571500Y-91218000D02*
X81635000Y-91154500D01*
X80746000Y-97822000D02*
X80746000Y-92551500D01*
X80746000Y-92551500D02*
X81571500Y-91726000D01*
X92500000Y-110555000D02*
X92500000Y-109690000D01*
X92500000Y-109690000D02*
X92684000Y-109506000D01*
X81444500Y-93512981D02*
X81371010Y-93439491D01*
X81444500Y-97314000D02*
X81444500Y-93512981D01*
X84800000Y-102855000D02*
X85619000Y-102855000D01*
X85619000Y-102855000D02*
X85826000Y-102648000D01*
X93700000Y-92615000D02*
X93700000Y-92297500D01*
X93700000Y-92297500D02*
X94398500Y-91599000D01*
X118528500Y-92678500D02*
X119163500Y-93313500D01*
X119163500Y-93313500D02*
X120243000Y-93313500D01*
X112115000Y-92678500D02*
X118528500Y-92678500D01*
X111930011Y-92493511D02*
X112115000Y-92678500D01*
X110660011Y-92493511D02*
X111930011Y-92493511D01*
X99806101Y-91989533D02*
X100059533Y-91989533D01*
X100059533Y-91989533D02*
X100685000Y-92615000D01*
X110723511Y-92493511D02*
X110660011Y-92493511D01*
X110660011Y-92493511D02*
X109956000Y-91789500D01*
X93700000Y-109855000D02*
X94176000Y-109855000D01*
X94176000Y-109855000D02*
X94779500Y-110458500D01*
X94652500Y-90900500D02*
X88644498Y-90900500D01*
X88644498Y-90900500D02*
X87985000Y-91559998D01*
X87985000Y-91559998D02*
X87985000Y-94535002D01*
X87985000Y-94535002D02*
X87746002Y-94774000D01*
X87746002Y-94774000D02*
X87266264Y-94774000D01*
X87266264Y-94774000D02*
X86842000Y-94774000D01*
X97510000Y-92615000D02*
X96367000Y-92615000D01*
X96367000Y-92615000D02*
X94652500Y-90900500D01*
X85500000Y-101655000D02*
X85468000Y-101655000D01*
X85468000Y-101655000D02*
X84810000Y-100997000D01*
X112116849Y-94810510D02*
X111543500Y-94237161D01*
X111543500Y-94237161D02*
X111543500Y-93377000D01*
X113233171Y-94810510D02*
X112116849Y-94810510D01*
X92079174Y-91573927D02*
X93484427Y-91573927D01*
X93484427Y-91573927D02*
X93509500Y-91599000D01*
X91654910Y-91573927D02*
X92079174Y-91573927D01*
X91366073Y-91573927D02*
X91654910Y-91573927D01*
X90525000Y-92615000D02*
X90525000Y-92415000D01*
X90525000Y-92415000D02*
X91366073Y-91573927D01*
X111543500Y-93377000D02*
X111289500Y-93123000D01*
X116433000Y-98584000D02*
X116433000Y-98010339D01*
X116433000Y-98010339D02*
X113233171Y-94810510D01*
X119095510Y-111279510D02*
X119095510Y-111224990D01*
X119095510Y-111224990D02*
X119544500Y-110776000D01*
X111357490Y-111279510D02*
X119095510Y-111279510D01*
X110210000Y-112427000D02*
X111357490Y-111279510D01*
X93700000Y-108855000D02*
X94790683Y-108855000D01*
X94790683Y-108855000D02*
X94847969Y-108797714D01*
X85889500Y-96234500D02*
X86461000Y-96234500D01*
X85254500Y-95599500D02*
X85889500Y-96234500D01*
X85254500Y-91980000D02*
X85254500Y-95599500D01*
X85254500Y-91980000D02*
X86842000Y-90392500D01*
X86842000Y-90392500D02*
X95033500Y-90392500D01*
X95033500Y-90392500D02*
X95351000Y-90710000D01*
X95351000Y-90710000D02*
X97510000Y-90710000D01*
X86500000Y-100663406D02*
X86503695Y-100659711D01*
X86500000Y-101655000D02*
X86500000Y-100663406D01*
X93700000Y-103855000D02*
X98590000Y-103855000D01*
X98590000Y-103855000D02*
X98780000Y-104045000D01*
X64022000Y-160230000D02*
X69673500Y-160230000D01*
X69673500Y-160230000D02*
X84723000Y-145180500D01*
X86755000Y-145180500D02*
X84723000Y-145180500D01*
X98629500Y-149816000D02*
X98629500Y-152763483D01*
X99074000Y-154070500D02*
X101677500Y-156674000D01*
X101677500Y-156674000D02*
X101677500Y-156801000D01*
D44*
X128030000Y-134195000D02*
X129935000Y-134195000D01*
X148655011Y-157952070D02*
X146377081Y-160230000D01*
X129935000Y-134195000D02*
X130570000Y-134830000D01*
X130570000Y-134830000D02*
X142000000Y-134830000D01*
X142000000Y-134830000D02*
X148655011Y-141485011D01*
X148655011Y-141485011D02*
X148655011Y-157952070D01*
X146377081Y-160230000D02*
X145175000Y-160230000D01*
D41*
X100725000Y-132290000D02*
X108980000Y-132290000D01*
X108980000Y-132290000D02*
X112790000Y-136100000D01*
X112790000Y-136100000D02*
X127300000Y-136100000D01*
X127300000Y-136100000D02*
X128030000Y-135370000D01*
X128030000Y-135370000D02*
X128030000Y-134195000D01*
D44*
X145175000Y-160230000D02*
X142635000Y-160230000D01*
D41*
X91725501Y-148182501D02*
X92025500Y-148482500D01*
X91271485Y-147728485D02*
X91725501Y-148182501D01*
X91271485Y-144728015D02*
X91271485Y-147728485D01*
X92470000Y-143529500D02*
X91271485Y-144728015D01*
X92470000Y-138640000D02*
X92470000Y-143529500D01*
X104889215Y-136934767D02*
X140064275Y-136934767D01*
X140835760Y-137706252D02*
X141120835Y-137706252D01*
X102526448Y-134572000D02*
X104889215Y-136934767D01*
X140064275Y-136934767D02*
X140835760Y-137706252D01*
X90287552Y-134572000D02*
X102526448Y-134572000D01*
X93486000Y-155677500D02*
X88338500Y-150530000D01*
X88338500Y-150530000D02*
X88338500Y-136521052D01*
X88338500Y-136521052D02*
X90287552Y-134572000D01*
X140618192Y-136532356D02*
X140743646Y-136657810D01*
X140743646Y-136657810D02*
X141043645Y-136957809D01*
X105193908Y-136532356D02*
X140618192Y-136532356D01*
X102733552Y-134072000D02*
X105193908Y-136532356D01*
X90080448Y-134072000D02*
X102733552Y-134072000D01*
X87838500Y-136313948D02*
X90080448Y-134072000D01*
X87838500Y-150880000D02*
X87838500Y-136313948D01*
X93486000Y-156527500D02*
X87838500Y-150880000D01*
X93867125Y-149508490D02*
X93442861Y-149508490D01*
X97604920Y-149508490D02*
X93867125Y-149508490D01*
X140899089Y-146363184D02*
X135715905Y-141180000D01*
X135715905Y-141180000D02*
X133781004Y-141180000D01*
X140899089Y-148334089D02*
X140899089Y-146363184D01*
X142635000Y-150070000D02*
X140899089Y-148334089D01*
X101556009Y-145557401D02*
X97604920Y-149508490D01*
X133127498Y-141126498D02*
X133073996Y-141180000D01*
X133073996Y-141180000D02*
X105805000Y-141180000D01*
X133781004Y-141180000D02*
X133727502Y-141126498D01*
X133727502Y-141126498D02*
X133127498Y-141126498D01*
X105805000Y-141180000D02*
X101556009Y-145428991D01*
X101556009Y-145428991D02*
X101556009Y-145557401D01*
X92787500Y-148863500D02*
X93549500Y-148863500D01*
X96444985Y-145968015D02*
X99555075Y-145968015D01*
X135597911Y-139857911D02*
X141785001Y-146045001D01*
X141785001Y-146045001D02*
X141785001Y-146680001D01*
X141785001Y-146680001D02*
X142635000Y-147530000D01*
X99555075Y-145968015D02*
X105665179Y-139857911D01*
X105665179Y-139857911D02*
X135597911Y-139857911D01*
X93549500Y-148863500D02*
X96444985Y-145968015D01*
X99469681Y-145416999D02*
X93886739Y-145416999D01*
X107147091Y-137739589D02*
X99469681Y-145416999D01*
X139663591Y-137739589D02*
X107147091Y-137739589D01*
X146350001Y-146354999D02*
X146350001Y-144425999D01*
X92897974Y-146405764D02*
X92597975Y-146705763D01*
X146350001Y-144425999D02*
X139663591Y-137739589D01*
X93886739Y-145416999D02*
X92897974Y-146405764D01*
X145175000Y-147530000D02*
X146350001Y-146354999D01*
X147080000Y-148165000D02*
X147080000Y-144519587D01*
X99214270Y-144908999D02*
X93442675Y-144908999D01*
X93442675Y-144908999D02*
X92773887Y-145577787D01*
X139897591Y-137337178D02*
X106786091Y-137337178D01*
X145175000Y-150070000D02*
X147080000Y-148165000D01*
X92773887Y-145577787D02*
X92473888Y-145877786D01*
X147080000Y-144519587D02*
X139897591Y-137337178D01*
X106786091Y-137337178D02*
X99214270Y-144908999D01*
X91263500Y-140291000D02*
X91263500Y-142323000D01*
X91263500Y-140291000D02*
X91263500Y-137370000D01*
X91263500Y-137370000D02*
X90184000Y-136290500D01*
X89358500Y-147862410D02*
X90327914Y-147862410D01*
X90327914Y-147862410D02*
X91825001Y-149359497D01*
X91825001Y-149359497D02*
X91825001Y-150250501D01*
X96884486Y-153816500D02*
X97312493Y-153388493D01*
X91825001Y-150250501D02*
X95391000Y-153816500D01*
X95391000Y-153816500D02*
X96884486Y-153816500D01*
X124220000Y-143720000D02*
X111202500Y-143720000D01*
X111202500Y-143720000D02*
X110906411Y-143423911D01*
X109911089Y-143423911D02*
X108345000Y-144990000D01*
X110906411Y-143423911D02*
X109911089Y-143423911D01*
X108345000Y-144990000D02*
X108345000Y-150705000D01*
X108345000Y-150705000D02*
X104598500Y-154451500D01*
X104598500Y-154451500D02*
X101720764Y-154451500D01*
X101720764Y-154451500D02*
X101296500Y-154451500D01*
X97312493Y-153388493D02*
X100233493Y-153388493D01*
X100233493Y-153388493D02*
X101296500Y-154451500D01*
X97312493Y-150640078D02*
X97312493Y-153388493D01*
X108414410Y-142380590D02*
X123178777Y-142380590D01*
X107075000Y-143720000D02*
X108414410Y-142380590D01*
X123178777Y-142380590D02*
X123603041Y-142380590D01*
X107075000Y-142323000D02*
X107075000Y-142747264D01*
X107075000Y-142747264D02*
X107075000Y-143720000D01*
X107075000Y-149435000D02*
X103900000Y-152610000D01*
X103900000Y-152610000D02*
X102630000Y-152610000D01*
X107075000Y-143720000D02*
X107075000Y-149435000D01*
X108812989Y-160397011D02*
X108812989Y-145799542D01*
X106440000Y-162770000D02*
X108812989Y-160397011D01*
X108812989Y-145799542D02*
X110215560Y-144396971D01*
X110215560Y-144396971D02*
X110515559Y-144096972D01*
X106440000Y-162770000D02*
X103900000Y-165310000D01*
X103900000Y-165310000D02*
X98820000Y-165310000D01*
X59920000Y-162820000D02*
X71465000Y-162820000D01*
X71465000Y-162820000D02*
X86755000Y-147530000D01*
X91200000Y-150641500D02*
X96788000Y-156229500D01*
X96788000Y-156229500D02*
X96788000Y-158325000D01*
X91200000Y-149659498D02*
X91200000Y-150641500D01*
X97631001Y-135726178D02*
X97931000Y-135426179D01*
X96280000Y-139592500D02*
X96280000Y-137077179D01*
X96280000Y-137077179D02*
X97631001Y-135726178D01*
X114568000Y-141688000D02*
X133364000Y-141688000D01*
X133364000Y-141688000D02*
X133427500Y-141751500D01*
X106567000Y-141688000D02*
X114568000Y-141688000D01*
X99754999Y-148500001D02*
X106567000Y-141688000D01*
X99455000Y-148863500D02*
X99754999Y-148563501D01*
X99754999Y-148563501D02*
X99754999Y-148500001D01*
X97042000Y-143529500D02*
X97042000Y-139148000D01*
X97042000Y-139148000D02*
X97550000Y-138640000D01*
X98185000Y-143656500D02*
X98185000Y-140545000D01*
X98185000Y-140545000D02*
X100090000Y-138640000D01*
X100090000Y-141180000D02*
X102630000Y-138640000D01*
X98820000Y-142450000D02*
X100090000Y-141180000D01*
X98820000Y-143085000D02*
X98820000Y-142450000D01*
D45*
G36*
X92009500Y-113772500D02*
X94303250Y-113772500D01*
X94378750Y-113848000D01*
X95478000Y-113848000D01*
X95478000Y-113834738D01*
X95605000Y-113860000D01*
X96005000Y-113860000D01*
X96065328Y-113848000D01*
X99252440Y-113848000D01*
X99252440Y-113828000D01*
X99432000Y-113828000D01*
X99432000Y-113848000D01*
X99452000Y-113848000D01*
X99452000Y-114102000D01*
X99432000Y-114102000D01*
X99432000Y-114122000D01*
X99252440Y-114122000D01*
X99252440Y-114102000D01*
X95665328Y-114102000D01*
X95605000Y-114090000D01*
X94436250Y-114090000D01*
X94360750Y-114014500D01*
X93636500Y-114014500D01*
X93636500Y-114034500D01*
X93382500Y-114034500D01*
X93382500Y-114014500D01*
X92860750Y-114014500D01*
X92836750Y-113990500D01*
X92112500Y-113990500D01*
X92112500Y-114584250D01*
X92073000Y-114623750D01*
X92073000Y-115348000D01*
X92086262Y-115348000D01*
X92072935Y-115415001D01*
X91799000Y-115415001D01*
X91799000Y-115348000D01*
X91819000Y-115348000D01*
X91819000Y-114779250D01*
X91858500Y-114739750D01*
X91858500Y-113990500D01*
X91838500Y-113990500D01*
X91838500Y-113756950D01*
X91842033Y-113739189D01*
X92009500Y-113772500D01*
X92009500Y-113772500D01*
G37*
X92009500Y-113772500D02*
X94303250Y-113772500D01*
X94378750Y-113848000D01*
X95478000Y-113848000D01*
X95478000Y-113834738D01*
X95605000Y-113860000D01*
X96005000Y-113860000D01*
X96065328Y-113848000D01*
X99252440Y-113848000D01*
X99252440Y-113828000D01*
X99432000Y-113828000D01*
X99432000Y-113848000D01*
X99452000Y-113848000D01*
X99452000Y-114102000D01*
X99432000Y-114102000D01*
X99432000Y-114122000D01*
X99252440Y-114122000D01*
X99252440Y-114102000D01*
X95665328Y-114102000D01*
X95605000Y-114090000D01*
X94436250Y-114090000D01*
X94360750Y-114014500D01*
X93636500Y-114014500D01*
X93636500Y-114034500D01*
X93382500Y-114034500D01*
X93382500Y-114014500D01*
X92860750Y-114014500D01*
X92836750Y-113990500D01*
X92112500Y-113990500D01*
X92112500Y-114584250D01*
X92073000Y-114623750D01*
X92073000Y-115348000D01*
X92086262Y-115348000D01*
X92072935Y-115415001D01*
X91799000Y-115415001D01*
X91799000Y-115348000D01*
X91819000Y-115348000D01*
X91819000Y-114779250D01*
X91858500Y-114739750D01*
X91858500Y-113990500D01*
X91838500Y-113990500D01*
X91838500Y-113756950D01*
X91842033Y-113739189D01*
X92009500Y-113772500D01*
G36*
X90271000Y-114715000D02*
X90291000Y-114715000D01*
X90291000Y-114965000D01*
X90271000Y-114965000D01*
X90271000Y-114987000D01*
X90128999Y-114987000D01*
X90128999Y-114693000D01*
X90271000Y-114693000D01*
X90271000Y-114715000D01*
X90271000Y-114715000D01*
G37*
X90271000Y-114715000D02*
X90291000Y-114715000D01*
X90291000Y-114965000D01*
X90271000Y-114965000D01*
X90271000Y-114987000D01*
X90128999Y-114987000D01*
X90128999Y-114693000D01*
X90271000Y-114693000D01*
X90271000Y-114715000D01*
G36*
X84353059Y-112625910D02*
X84208069Y-112838110D01*
X84157060Y-113090000D01*
X84157060Y-113155001D01*
X83742242Y-113155001D01*
X83379681Y-112792440D01*
X83545500Y-112792440D01*
X83780817Y-112748162D01*
X83972252Y-112624977D01*
X84354509Y-112624977D01*
X84353059Y-112625910D01*
X84353059Y-112625910D01*
G37*
X84353059Y-112625910D02*
X84208069Y-112838110D01*
X84157060Y-113090000D01*
X84157060Y-113155001D01*
X83742242Y-113155001D01*
X83379681Y-112792440D01*
X83545500Y-112792440D01*
X83780817Y-112748162D01*
X83972252Y-112624977D01*
X84354509Y-112624977D01*
X84353059Y-112625910D01*
G36*
X108527000Y-103603000D02*
X108547000Y-103603000D01*
X108547000Y-103857000D01*
X108527000Y-103857000D01*
X108527000Y-104606250D01*
X108685750Y-104765000D01*
X108888500Y-104765000D01*
X108888500Y-106505000D01*
X108685750Y-106505000D01*
X108527000Y-106663750D01*
X108527000Y-107413000D01*
X108547000Y-107413000D01*
X108547000Y-107667000D01*
X108527000Y-107667000D01*
X108527000Y-108416250D01*
X108685750Y-108575000D01*
X108888500Y-108575000D01*
X108888500Y-109757814D01*
X106662440Y-111983874D01*
X106662440Y-111850000D01*
X106650937Y-111788865D01*
X106937401Y-111502401D01*
X107102148Y-111255839D01*
X107160000Y-110965000D01*
X107160000Y-109445105D01*
X107301441Y-109354090D01*
X107446431Y-109141890D01*
X107497440Y-108890000D01*
X107497440Y-108385466D01*
X107590302Y-108478327D01*
X107823691Y-108575000D01*
X108114250Y-108575000D01*
X108273000Y-108416250D01*
X108273000Y-107667000D01*
X107473750Y-107667000D01*
X107387738Y-107753012D01*
X107314090Y-107638559D01*
X107168917Y-107539367D01*
X107301441Y-107454090D01*
X107388064Y-107327314D01*
X107473750Y-107413000D01*
X108273000Y-107413000D01*
X108273000Y-106663750D01*
X108114250Y-106505000D01*
X107823691Y-106505000D01*
X107590302Y-106601673D01*
X107497440Y-106694534D01*
X107497440Y-106190000D01*
X107453162Y-105954683D01*
X107314090Y-105738559D01*
X107161380Y-105634217D01*
X107301441Y-105544090D01*
X107446431Y-105331890D01*
X107497440Y-105080000D01*
X107497440Y-104707362D01*
X107563388Y-104641414D01*
X107590302Y-104668327D01*
X107823691Y-104765000D01*
X108114250Y-104765000D01*
X108273000Y-104606250D01*
X108273000Y-103857000D01*
X108253000Y-103857000D01*
X108253000Y-103603000D01*
X108273000Y-103603000D01*
X108273000Y-103583000D01*
X108527000Y-103583000D01*
X108527000Y-103603000D01*
X108527000Y-103603000D01*
G37*
X108527000Y-103603000D02*
X108547000Y-103603000D01*
X108547000Y-103857000D01*
X108527000Y-103857000D01*
X108527000Y-104606250D01*
X108685750Y-104765000D01*
X108888500Y-104765000D01*
X108888500Y-106505000D01*
X108685750Y-106505000D01*
X108527000Y-106663750D01*
X108527000Y-107413000D01*
X108547000Y-107413000D01*
X108547000Y-107667000D01*
X108527000Y-107667000D01*
X108527000Y-108416250D01*
X108685750Y-108575000D01*
X108888500Y-108575000D01*
X108888500Y-109757814D01*
X106662440Y-111983874D01*
X106662440Y-111850000D01*
X106650937Y-111788865D01*
X106937401Y-111502401D01*
X107102148Y-111255839D01*
X107160000Y-110965000D01*
X107160000Y-109445105D01*
X107301441Y-109354090D01*
X107446431Y-109141890D01*
X107497440Y-108890000D01*
X107497440Y-108385466D01*
X107590302Y-108478327D01*
X107823691Y-108575000D01*
X108114250Y-108575000D01*
X108273000Y-108416250D01*
X108273000Y-107667000D01*
X107473750Y-107667000D01*
X107387738Y-107753012D01*
X107314090Y-107638559D01*
X107168917Y-107539367D01*
X107301441Y-107454090D01*
X107388064Y-107327314D01*
X107473750Y-107413000D01*
X108273000Y-107413000D01*
X108273000Y-106663750D01*
X108114250Y-106505000D01*
X107823691Y-106505000D01*
X107590302Y-106601673D01*
X107497440Y-106694534D01*
X107497440Y-106190000D01*
X107453162Y-105954683D01*
X107314090Y-105738559D01*
X107161380Y-105634217D01*
X107301441Y-105544090D01*
X107446431Y-105331890D01*
X107497440Y-105080000D01*
X107497440Y-104707362D01*
X107563388Y-104641414D01*
X107590302Y-104668327D01*
X107823691Y-104765000D01*
X108114250Y-104765000D01*
X108273000Y-104606250D01*
X108273000Y-103857000D01*
X108253000Y-103857000D01*
X108253000Y-103603000D01*
X108273000Y-103603000D01*
X108273000Y-103583000D01*
X108527000Y-103583000D01*
X108527000Y-103603000D01*
G36*
X79597046Y-104451400D02*
X79843608Y-104616147D01*
X80134447Y-104673999D01*
X80580341Y-104673999D01*
X80635129Y-104728882D01*
X80600000Y-104813690D01*
X80600000Y-105029250D01*
X80758750Y-105188000D01*
X81508000Y-105188000D01*
X81508000Y-105168000D01*
X81750000Y-105168000D01*
X81750000Y-105315000D01*
X81775262Y-105442000D01*
X81762000Y-105442000D01*
X81762000Y-105462000D01*
X81508000Y-105462000D01*
X81508000Y-105442000D01*
X80758750Y-105442000D01*
X80600000Y-105600750D01*
X80600000Y-105816310D01*
X80696673Y-106049699D01*
X80875302Y-106228327D01*
X80955320Y-106261472D01*
X80808559Y-106355910D01*
X80663569Y-106568110D01*
X80612560Y-106820000D01*
X80612560Y-107620000D01*
X80656838Y-107855317D01*
X80723329Y-107958646D01*
X80721673Y-107960302D01*
X80625000Y-108193691D01*
X80625000Y-108434250D01*
X80783750Y-108593000D01*
X81508000Y-108593000D01*
X81508000Y-108573000D01*
X81762000Y-108573000D01*
X81762000Y-108593000D01*
X83008000Y-108593000D01*
X83008000Y-108573000D01*
X83262000Y-108573000D01*
X83262000Y-108593000D01*
X83282000Y-108593000D01*
X83282000Y-108847000D01*
X83262000Y-108847000D01*
X83262000Y-109596250D01*
X83278500Y-109612750D01*
X83222500Y-109668750D01*
X83222500Y-110270000D01*
X83242500Y-110270000D01*
X83242500Y-110456570D01*
X83240162Y-110462201D01*
X83240112Y-110520000D01*
X83222500Y-110520000D01*
X83222500Y-110542000D01*
X82968500Y-110542000D01*
X82968500Y-110520000D01*
X82169250Y-110520000D01*
X82010500Y-110678750D01*
X82010500Y-110771309D01*
X82107173Y-111004698D01*
X82248410Y-111145936D01*
X82194059Y-111180910D01*
X82049069Y-111393110D01*
X82037497Y-111450256D01*
X80501340Y-109914099D01*
X80254778Y-109749352D01*
X79963939Y-109691500D01*
X79575191Y-109691500D01*
X79593093Y-109601500D01*
X79499084Y-109128886D01*
X79416808Y-109005750D01*
X80625000Y-109005750D01*
X80625000Y-109246309D01*
X80721673Y-109479698D01*
X80900301Y-109658327D01*
X81133690Y-109755000D01*
X81349250Y-109755000D01*
X81508000Y-109596250D01*
X81508000Y-108847000D01*
X81762000Y-108847000D01*
X81762000Y-109596250D01*
X81920750Y-109755000D01*
X82136310Y-109755000D01*
X82138298Y-109754176D01*
X82107173Y-109785302D01*
X82010500Y-110018691D01*
X82010500Y-110111250D01*
X82169250Y-110270000D01*
X82968500Y-110270000D01*
X82968500Y-109668750D01*
X82952000Y-109652250D01*
X83008000Y-109596250D01*
X83008000Y-108847000D01*
X81762000Y-108847000D01*
X81508000Y-108847000D01*
X80783750Y-108847000D01*
X80625000Y-109005750D01*
X79416808Y-109005750D01*
X79231370Y-108728223D01*
X79041715Y-108601500D01*
X79231370Y-108474777D01*
X79499084Y-108074114D01*
X79593093Y-107601500D01*
X79499084Y-107128886D01*
X79231370Y-106728223D01*
X79041715Y-106601500D01*
X79231370Y-106474777D01*
X79499084Y-106074114D01*
X79593093Y-105601500D01*
X79499084Y-105128886D01*
X79231370Y-104728223D01*
X79041715Y-104601500D01*
X79231370Y-104474777D01*
X79387203Y-104241557D01*
X79597046Y-104451400D01*
X79597046Y-104451400D01*
G37*
X79597046Y-104451400D02*
X79843608Y-104616147D01*
X80134447Y-104673999D01*
X80580341Y-104673999D01*
X80635129Y-104728882D01*
X80600000Y-104813690D01*
X80600000Y-105029250D01*
X80758750Y-105188000D01*
X81508000Y-105188000D01*
X81508000Y-105168000D01*
X81750000Y-105168000D01*
X81750000Y-105315000D01*
X81775262Y-105442000D01*
X81762000Y-105442000D01*
X81762000Y-105462000D01*
X81508000Y-105462000D01*
X81508000Y-105442000D01*
X80758750Y-105442000D01*
X80600000Y-105600750D01*
X80600000Y-105816310D01*
X80696673Y-106049699D01*
X80875302Y-106228327D01*
X80955320Y-106261472D01*
X80808559Y-106355910D01*
X80663569Y-106568110D01*
X80612560Y-106820000D01*
X80612560Y-107620000D01*
X80656838Y-107855317D01*
X80723329Y-107958646D01*
X80721673Y-107960302D01*
X80625000Y-108193691D01*
X80625000Y-108434250D01*
X80783750Y-108593000D01*
X81508000Y-108593000D01*
X81508000Y-108573000D01*
X81762000Y-108573000D01*
X81762000Y-108593000D01*
X83008000Y-108593000D01*
X83008000Y-108573000D01*
X83262000Y-108573000D01*
X83262000Y-108593000D01*
X83282000Y-108593000D01*
X83282000Y-108847000D01*
X83262000Y-108847000D01*
X83262000Y-109596250D01*
X83278500Y-109612750D01*
X83222500Y-109668750D01*
X83222500Y-110270000D01*
X83242500Y-110270000D01*
X83242500Y-110456570D01*
X83240162Y-110462201D01*
X83240112Y-110520000D01*
X83222500Y-110520000D01*
X83222500Y-110542000D01*
X82968500Y-110542000D01*
X82968500Y-110520000D01*
X82169250Y-110520000D01*
X82010500Y-110678750D01*
X82010500Y-110771309D01*
X82107173Y-111004698D01*
X82248410Y-111145936D01*
X82194059Y-111180910D01*
X82049069Y-111393110D01*
X82037497Y-111450256D01*
X80501340Y-109914099D01*
X80254778Y-109749352D01*
X79963939Y-109691500D01*
X79575191Y-109691500D01*
X79593093Y-109601500D01*
X79499084Y-109128886D01*
X79416808Y-109005750D01*
X80625000Y-109005750D01*
X80625000Y-109246309D01*
X80721673Y-109479698D01*
X80900301Y-109658327D01*
X81133690Y-109755000D01*
X81349250Y-109755000D01*
X81508000Y-109596250D01*
X81508000Y-108847000D01*
X81762000Y-108847000D01*
X81762000Y-109596250D01*
X81920750Y-109755000D01*
X82136310Y-109755000D01*
X82138298Y-109754176D01*
X82107173Y-109785302D01*
X82010500Y-110018691D01*
X82010500Y-110111250D01*
X82169250Y-110270000D01*
X82968500Y-110270000D01*
X82968500Y-109668750D01*
X82952000Y-109652250D01*
X83008000Y-109596250D01*
X83008000Y-108847000D01*
X81762000Y-108847000D01*
X81508000Y-108847000D01*
X80783750Y-108847000D01*
X80625000Y-109005750D01*
X79416808Y-109005750D01*
X79231370Y-108728223D01*
X79041715Y-108601500D01*
X79231370Y-108474777D01*
X79499084Y-108074114D01*
X79593093Y-107601500D01*
X79499084Y-107128886D01*
X79231370Y-106728223D01*
X79041715Y-106601500D01*
X79231370Y-106474777D01*
X79499084Y-106074114D01*
X79593093Y-105601500D01*
X79499084Y-105128886D01*
X79231370Y-104728223D01*
X79041715Y-104601500D01*
X79231370Y-104474777D01*
X79387203Y-104241557D01*
X79597046Y-104451400D01*
G36*
X119712673Y-94105692D02*
X120056201Y-94248338D01*
X120428167Y-94248662D01*
X120545000Y-94200388D01*
X120545000Y-110962359D01*
X120479396Y-110896640D01*
X120479662Y-110590833D01*
X120337617Y-110247057D01*
X120074827Y-109983808D01*
X119731299Y-109841162D01*
X119648258Y-109841090D01*
X119615118Y-109674483D01*
X119314888Y-109225157D01*
X119208046Y-109153767D01*
X119207590Y-109153059D01*
X119062025Y-109053599D01*
X119313584Y-108677114D01*
X119407593Y-108204500D01*
X119313584Y-107731886D01*
X119045870Y-107331223D01*
X118856215Y-107204500D01*
X119045870Y-107077777D01*
X119313584Y-106677114D01*
X119407593Y-106204500D01*
X119313584Y-105731886D01*
X119045870Y-105331223D01*
X118852609Y-105202090D01*
X119075433Y-105033625D01*
X119321786Y-104613876D01*
X119336962Y-104522109D01*
X119212231Y-104331500D01*
X118020500Y-104331500D01*
X118020500Y-104351500D01*
X117766500Y-104351500D01*
X117766500Y-104331500D01*
X116574769Y-104331500D01*
X116450038Y-104522109D01*
X116465214Y-104613876D01*
X116711567Y-105033625D01*
X116934391Y-105202090D01*
X116741130Y-105331223D01*
X116473416Y-105731886D01*
X116379407Y-106204500D01*
X116473416Y-106677114D01*
X116741130Y-107077777D01*
X116930785Y-107204500D01*
X116741130Y-107331223D01*
X116473416Y-107731886D01*
X116379407Y-108204500D01*
X116473416Y-108677114D01*
X116568555Y-108819500D01*
X114074945Y-108819500D01*
X114170084Y-108677114D01*
X114264093Y-108204500D01*
X114170084Y-107731886D01*
X113902370Y-107331223D01*
X113712715Y-107204500D01*
X113902370Y-107077777D01*
X114170084Y-106677114D01*
X114264093Y-106204500D01*
X114170084Y-105731886D01*
X113902370Y-105331223D01*
X113709109Y-105202090D01*
X113931933Y-105033625D01*
X114178286Y-104613876D01*
X114193462Y-104522109D01*
X114068731Y-104331500D01*
X112877000Y-104331500D01*
X112877000Y-104351500D01*
X112623000Y-104351500D01*
X112623000Y-104331500D01*
X112603000Y-104331500D01*
X112603000Y-104077500D01*
X112623000Y-104077500D01*
X112623000Y-103121953D01*
X112877000Y-103121953D01*
X112877000Y-104077500D01*
X114068731Y-104077500D01*
X114193462Y-103886891D01*
X116450038Y-103886891D01*
X116574769Y-104077500D01*
X117766500Y-104077500D01*
X117766500Y-103121953D01*
X118020500Y-103121953D01*
X118020500Y-104077500D01*
X119212231Y-104077500D01*
X119336962Y-103886891D01*
X119321786Y-103795124D01*
X119075433Y-103375375D01*
X118687201Y-103081853D01*
X118216196Y-102959244D01*
X118020500Y-103121953D01*
X117766500Y-103121953D01*
X117570804Y-102959244D01*
X117099799Y-103081853D01*
X116711567Y-103375375D01*
X116465214Y-103795124D01*
X116450038Y-103886891D01*
X114193462Y-103886891D01*
X114178286Y-103795124D01*
X113931933Y-103375375D01*
X113543701Y-103081853D01*
X113072696Y-102959244D01*
X112877000Y-103121953D01*
X112623000Y-103121953D01*
X112427304Y-102959244D01*
X111956299Y-103081853D01*
X111658500Y-103307003D01*
X111658500Y-102693880D01*
X111982667Y-102694162D01*
X112252910Y-102582500D01*
X116950037Y-102582500D01*
X116982173Y-102614692D01*
X117325701Y-102757338D01*
X117697667Y-102757662D01*
X118041443Y-102615617D01*
X118304692Y-102352827D01*
X118447338Y-102009299D01*
X118447662Y-101637333D01*
X118305617Y-101293557D01*
X118217722Y-101205508D01*
X118423517Y-101164573D01*
X118471607Y-101132440D01*
X118743500Y-101132440D01*
X118978817Y-101088162D01*
X119194941Y-100949090D01*
X119339931Y-100736890D01*
X119390940Y-100485000D01*
X119390940Y-99285000D01*
X119346662Y-99049683D01*
X119207590Y-98833559D01*
X119062025Y-98734099D01*
X119313584Y-98357614D01*
X119407593Y-97885000D01*
X119313584Y-97412386D01*
X119045870Y-97011723D01*
X118856215Y-96885000D01*
X119045870Y-96758277D01*
X119313584Y-96357614D01*
X119407593Y-95885000D01*
X119313584Y-95412386D01*
X119045870Y-95011723D01*
X118852609Y-94882590D01*
X119075433Y-94714125D01*
X119321786Y-94294376D01*
X119336962Y-94202609D01*
X119252475Y-94073500D01*
X119680537Y-94073500D01*
X119712673Y-94105692D01*
X119712673Y-94105692D01*
G37*
X119712673Y-94105692D02*
X120056201Y-94248338D01*
X120428167Y-94248662D01*
X120545000Y-94200388D01*
X120545000Y-110962359D01*
X120479396Y-110896640D01*
X120479662Y-110590833D01*
X120337617Y-110247057D01*
X120074827Y-109983808D01*
X119731299Y-109841162D01*
X119648258Y-109841090D01*
X119615118Y-109674483D01*
X119314888Y-109225157D01*
X119208046Y-109153767D01*
X119207590Y-109153059D01*
X119062025Y-109053599D01*
X119313584Y-108677114D01*
X119407593Y-108204500D01*
X119313584Y-107731886D01*
X119045870Y-107331223D01*
X118856215Y-107204500D01*
X119045870Y-107077777D01*
X119313584Y-106677114D01*
X119407593Y-106204500D01*
X119313584Y-105731886D01*
X119045870Y-105331223D01*
X118852609Y-105202090D01*
X119075433Y-105033625D01*
X119321786Y-104613876D01*
X119336962Y-104522109D01*
X119212231Y-104331500D01*
X118020500Y-104331500D01*
X118020500Y-104351500D01*
X117766500Y-104351500D01*
X117766500Y-104331500D01*
X116574769Y-104331500D01*
X116450038Y-104522109D01*
X116465214Y-104613876D01*
X116711567Y-105033625D01*
X116934391Y-105202090D01*
X116741130Y-105331223D01*
X116473416Y-105731886D01*
X116379407Y-106204500D01*
X116473416Y-106677114D01*
X116741130Y-107077777D01*
X116930785Y-107204500D01*
X116741130Y-107331223D01*
X116473416Y-107731886D01*
X116379407Y-108204500D01*
X116473416Y-108677114D01*
X116568555Y-108819500D01*
X114074945Y-108819500D01*
X114170084Y-108677114D01*
X114264093Y-108204500D01*
X114170084Y-107731886D01*
X113902370Y-107331223D01*
X113712715Y-107204500D01*
X113902370Y-107077777D01*
X114170084Y-106677114D01*
X114264093Y-106204500D01*
X114170084Y-105731886D01*
X113902370Y-105331223D01*
X113709109Y-105202090D01*
X113931933Y-105033625D01*
X114178286Y-104613876D01*
X114193462Y-104522109D01*
X114068731Y-104331500D01*
X112877000Y-104331500D01*
X112877000Y-104351500D01*
X112623000Y-104351500D01*
X112623000Y-104331500D01*
X112603000Y-104331500D01*
X112603000Y-104077500D01*
X112623000Y-104077500D01*
X112623000Y-103121953D01*
X112877000Y-103121953D01*
X112877000Y-104077500D01*
X114068731Y-104077500D01*
X114193462Y-103886891D01*
X116450038Y-103886891D01*
X116574769Y-104077500D01*
X117766500Y-104077500D01*
X117766500Y-103121953D01*
X118020500Y-103121953D01*
X118020500Y-104077500D01*
X119212231Y-104077500D01*
X119336962Y-103886891D01*
X119321786Y-103795124D01*
X119075433Y-103375375D01*
X118687201Y-103081853D01*
X118216196Y-102959244D01*
X118020500Y-103121953D01*
X117766500Y-103121953D01*
X117570804Y-102959244D01*
X117099799Y-103081853D01*
X116711567Y-103375375D01*
X116465214Y-103795124D01*
X116450038Y-103886891D01*
X114193462Y-103886891D01*
X114178286Y-103795124D01*
X113931933Y-103375375D01*
X113543701Y-103081853D01*
X113072696Y-102959244D01*
X112877000Y-103121953D01*
X112623000Y-103121953D01*
X112427304Y-102959244D01*
X111956299Y-103081853D01*
X111658500Y-103307003D01*
X111658500Y-102693880D01*
X111982667Y-102694162D01*
X112252910Y-102582500D01*
X116950037Y-102582500D01*
X116982173Y-102614692D01*
X117325701Y-102757338D01*
X117697667Y-102757662D01*
X118041443Y-102615617D01*
X118304692Y-102352827D01*
X118447338Y-102009299D01*
X118447662Y-101637333D01*
X118305617Y-101293557D01*
X118217722Y-101205508D01*
X118423517Y-101164573D01*
X118471607Y-101132440D01*
X118743500Y-101132440D01*
X118978817Y-101088162D01*
X119194941Y-100949090D01*
X119339931Y-100736890D01*
X119390940Y-100485000D01*
X119390940Y-99285000D01*
X119346662Y-99049683D01*
X119207590Y-98833559D01*
X119062025Y-98734099D01*
X119313584Y-98357614D01*
X119407593Y-97885000D01*
X119313584Y-97412386D01*
X119045870Y-97011723D01*
X118856215Y-96885000D01*
X119045870Y-96758277D01*
X119313584Y-96357614D01*
X119407593Y-95885000D01*
X119313584Y-95412386D01*
X119045870Y-95011723D01*
X118852609Y-94882590D01*
X119075433Y-94714125D01*
X119321786Y-94294376D01*
X119336962Y-94202609D01*
X119252475Y-94073500D01*
X119680537Y-94073500D01*
X119712673Y-94105692D01*
G36*
X86265000Y-103628691D02*
X86265000Y-104644250D01*
X86423750Y-104803000D01*
X87948000Y-104803000D01*
X87948000Y-104783000D01*
X88202000Y-104783000D01*
X88202000Y-104803000D01*
X90298000Y-104803000D01*
X90298000Y-104783000D01*
X90552000Y-104783000D01*
X90552000Y-104803000D01*
X90572000Y-104803000D01*
X90572000Y-105057000D01*
X90552000Y-105057000D01*
X90552000Y-107153000D01*
X90572000Y-107153000D01*
X90572000Y-107407000D01*
X90552000Y-107407000D01*
X90552000Y-108931250D01*
X90704097Y-109083347D01*
X90606162Y-109319201D01*
X90606020Y-109482560D01*
X90350000Y-109482560D01*
X90246329Y-109502067D01*
X90150000Y-109482560D01*
X89850000Y-109482560D01*
X89746329Y-109502067D01*
X89650000Y-109482560D01*
X89350000Y-109482560D01*
X89246329Y-109502067D01*
X89150000Y-109482560D01*
X88850000Y-109482560D01*
X88746329Y-109502067D01*
X88650000Y-109482560D01*
X88350000Y-109482560D01*
X88246329Y-109502067D01*
X88150000Y-109482560D01*
X87850000Y-109482560D01*
X87746329Y-109502067D01*
X87650000Y-109482560D01*
X87586576Y-109482560D01*
X87586662Y-109384333D01*
X87465046Y-109090000D01*
X87789250Y-109090000D01*
X87948000Y-108931250D01*
X87948000Y-107407000D01*
X88202000Y-107407000D01*
X88202000Y-108931250D01*
X88360750Y-109090000D01*
X90139250Y-109090000D01*
X90298000Y-108931250D01*
X90298000Y-107407000D01*
X88202000Y-107407000D01*
X87948000Y-107407000D01*
X86423750Y-107407000D01*
X86265000Y-107565750D01*
X86265000Y-107988150D01*
X86139799Y-107936162D01*
X85872440Y-107935929D01*
X85872440Y-107705000D01*
X85852933Y-107601329D01*
X85872440Y-107505000D01*
X85872440Y-107205000D01*
X85852933Y-107101329D01*
X85872440Y-107005000D01*
X85872440Y-106705000D01*
X85852933Y-106601329D01*
X85872440Y-106505000D01*
X85872440Y-106205000D01*
X85852933Y-106101329D01*
X85872440Y-106005000D01*
X85872440Y-105705000D01*
X85852933Y-105601329D01*
X85872440Y-105505000D01*
X85872440Y-105215750D01*
X86265000Y-105215750D01*
X86265000Y-106994250D01*
X86423750Y-107153000D01*
X87948000Y-107153000D01*
X87948000Y-105057000D01*
X88202000Y-105057000D01*
X88202000Y-107153000D01*
X90298000Y-107153000D01*
X90298000Y-105057000D01*
X88202000Y-105057000D01*
X87948000Y-105057000D01*
X86423750Y-105057000D01*
X86265000Y-105215750D01*
X85872440Y-105215750D01*
X85872440Y-105205000D01*
X85852933Y-105101329D01*
X85872440Y-105005000D01*
X85872440Y-104705000D01*
X85852933Y-104601329D01*
X85872440Y-104505000D01*
X85872440Y-104205000D01*
X85852933Y-104101329D01*
X85872440Y-104005000D01*
X85872440Y-103705000D01*
X85852933Y-103601329D01*
X85856639Y-103583027D01*
X86011167Y-103583162D01*
X86340167Y-103447222D01*
X86265000Y-103628691D01*
X86265000Y-103628691D01*
G37*
X86265000Y-103628691D02*
X86265000Y-104644250D01*
X86423750Y-104803000D01*
X87948000Y-104803000D01*
X87948000Y-104783000D01*
X88202000Y-104783000D01*
X88202000Y-104803000D01*
X90298000Y-104803000D01*
X90298000Y-104783000D01*
X90552000Y-104783000D01*
X90552000Y-104803000D01*
X90572000Y-104803000D01*
X90572000Y-105057000D01*
X90552000Y-105057000D01*
X90552000Y-107153000D01*
X90572000Y-107153000D01*
X90572000Y-107407000D01*
X90552000Y-107407000D01*
X90552000Y-108931250D01*
X90704097Y-109083347D01*
X90606162Y-109319201D01*
X90606020Y-109482560D01*
X90350000Y-109482560D01*
X90246329Y-109502067D01*
X90150000Y-109482560D01*
X89850000Y-109482560D01*
X89746329Y-109502067D01*
X89650000Y-109482560D01*
X89350000Y-109482560D01*
X89246329Y-109502067D01*
X89150000Y-109482560D01*
X88850000Y-109482560D01*
X88746329Y-109502067D01*
X88650000Y-109482560D01*
X88350000Y-109482560D01*
X88246329Y-109502067D01*
X88150000Y-109482560D01*
X87850000Y-109482560D01*
X87746329Y-109502067D01*
X87650000Y-109482560D01*
X87586576Y-109482560D01*
X87586662Y-109384333D01*
X87465046Y-109090000D01*
X87789250Y-109090000D01*
X87948000Y-108931250D01*
X87948000Y-107407000D01*
X88202000Y-107407000D01*
X88202000Y-108931250D01*
X88360750Y-109090000D01*
X90139250Y-109090000D01*
X90298000Y-108931250D01*
X90298000Y-107407000D01*
X88202000Y-107407000D01*
X87948000Y-107407000D01*
X86423750Y-107407000D01*
X86265000Y-107565750D01*
X86265000Y-107988150D01*
X86139799Y-107936162D01*
X85872440Y-107935929D01*
X85872440Y-107705000D01*
X85852933Y-107601329D01*
X85872440Y-107505000D01*
X85872440Y-107205000D01*
X85852933Y-107101329D01*
X85872440Y-107005000D01*
X85872440Y-106705000D01*
X85852933Y-106601329D01*
X85872440Y-106505000D01*
X85872440Y-106205000D01*
X85852933Y-106101329D01*
X85872440Y-106005000D01*
X85872440Y-105705000D01*
X85852933Y-105601329D01*
X85872440Y-105505000D01*
X85872440Y-105215750D01*
X86265000Y-105215750D01*
X86265000Y-106994250D01*
X86423750Y-107153000D01*
X87948000Y-107153000D01*
X87948000Y-105057000D01*
X88202000Y-105057000D01*
X88202000Y-107153000D01*
X90298000Y-107153000D01*
X90298000Y-105057000D01*
X88202000Y-105057000D01*
X87948000Y-105057000D01*
X86423750Y-105057000D01*
X86265000Y-105215750D01*
X85872440Y-105215750D01*
X85872440Y-105205000D01*
X85852933Y-105101329D01*
X85872440Y-105005000D01*
X85872440Y-104705000D01*
X85852933Y-104601329D01*
X85872440Y-104505000D01*
X85872440Y-104205000D01*
X85852933Y-104101329D01*
X85872440Y-104005000D01*
X85872440Y-103705000D01*
X85852933Y-103601329D01*
X85856639Y-103583027D01*
X86011167Y-103583162D01*
X86340167Y-103447222D01*
X86265000Y-103628691D01*
G36*
X105485910Y-101721441D02*
X105638620Y-101825783D01*
X105498559Y-101915910D01*
X105353569Y-102128110D01*
X105302560Y-102380000D01*
X105302560Y-102751437D01*
X105166309Y-102695000D01*
X104875750Y-102695000D01*
X104717000Y-102853750D01*
X104717000Y-103603000D01*
X104737000Y-103603000D01*
X104737000Y-103857000D01*
X104717000Y-103857000D01*
X104717000Y-104606250D01*
X104875750Y-104765000D01*
X105166309Y-104765000D01*
X105302560Y-104708563D01*
X105302560Y-105080000D01*
X105346838Y-105315317D01*
X105485910Y-105531441D01*
X105638620Y-105635783D01*
X105498559Y-105725910D01*
X105431735Y-105823709D01*
X105254698Y-105646673D01*
X105021309Y-105550000D01*
X104780750Y-105550000D01*
X104622000Y-105708750D01*
X104622000Y-106458000D01*
X104642000Y-106458000D01*
X104642000Y-106712000D01*
X104622000Y-106712000D01*
X104622000Y-107461250D01*
X104698250Y-107537500D01*
X104622000Y-107613750D01*
X104622000Y-108363000D01*
X104642000Y-108363000D01*
X104642000Y-108617000D01*
X104622000Y-108617000D01*
X104622000Y-108637000D01*
X104380001Y-108637000D01*
X104380001Y-107297501D01*
X104368000Y-107237168D01*
X104368000Y-106712000D01*
X104348000Y-106712000D01*
X104348000Y-106458000D01*
X104368000Y-106458000D01*
X104368000Y-105708750D01*
X104209250Y-105550000D01*
X103968691Y-105550000D01*
X103735302Y-105646673D01*
X103693340Y-105688634D01*
X103546890Y-105588569D01*
X103452137Y-105569381D01*
X103491441Y-105544090D01*
X103636431Y-105331890D01*
X103687440Y-105080000D01*
X103687440Y-104575466D01*
X103780302Y-104668327D01*
X104013691Y-104765000D01*
X104304250Y-104765000D01*
X104463000Y-104606250D01*
X104463000Y-103857000D01*
X103663750Y-103857000D01*
X103577738Y-103943012D01*
X103504090Y-103828559D01*
X103358917Y-103729367D01*
X103491441Y-103644090D01*
X103578064Y-103517314D01*
X103663750Y-103603000D01*
X104463000Y-103603000D01*
X104463000Y-102853750D01*
X104377026Y-102767776D01*
X105461420Y-101683382D01*
X105485910Y-101721441D01*
X105485910Y-101721441D01*
G37*
X105485910Y-101721441D02*
X105638620Y-101825783D01*
X105498559Y-101915910D01*
X105353569Y-102128110D01*
X105302560Y-102380000D01*
X105302560Y-102751437D01*
X105166309Y-102695000D01*
X104875750Y-102695000D01*
X104717000Y-102853750D01*
X104717000Y-103603000D01*
X104737000Y-103603000D01*
X104737000Y-103857000D01*
X104717000Y-103857000D01*
X104717000Y-104606250D01*
X104875750Y-104765000D01*
X105166309Y-104765000D01*
X105302560Y-104708563D01*
X105302560Y-105080000D01*
X105346838Y-105315317D01*
X105485910Y-105531441D01*
X105638620Y-105635783D01*
X105498559Y-105725910D01*
X105431735Y-105823709D01*
X105254698Y-105646673D01*
X105021309Y-105550000D01*
X104780750Y-105550000D01*
X104622000Y-105708750D01*
X104622000Y-106458000D01*
X104642000Y-106458000D01*
X104642000Y-106712000D01*
X104622000Y-106712000D01*
X104622000Y-107461250D01*
X104698250Y-107537500D01*
X104622000Y-107613750D01*
X104622000Y-108363000D01*
X104642000Y-108363000D01*
X104642000Y-108617000D01*
X104622000Y-108617000D01*
X104622000Y-108637000D01*
X104380001Y-108637000D01*
X104380001Y-107297501D01*
X104368000Y-107237168D01*
X104368000Y-106712000D01*
X104348000Y-106712000D01*
X104348000Y-106458000D01*
X104368000Y-106458000D01*
X104368000Y-105708750D01*
X104209250Y-105550000D01*
X103968691Y-105550000D01*
X103735302Y-105646673D01*
X103693340Y-105688634D01*
X103546890Y-105588569D01*
X103452137Y-105569381D01*
X103491441Y-105544090D01*
X103636431Y-105331890D01*
X103687440Y-105080000D01*
X103687440Y-104575466D01*
X103780302Y-104668327D01*
X104013691Y-104765000D01*
X104304250Y-104765000D01*
X104463000Y-104606250D01*
X104463000Y-103857000D01*
X103663750Y-103857000D01*
X103577738Y-103943012D01*
X103504090Y-103828559D01*
X103358917Y-103729367D01*
X103491441Y-103644090D01*
X103578064Y-103517314D01*
X103663750Y-103603000D01*
X104463000Y-103603000D01*
X104463000Y-102853750D01*
X104377026Y-102767776D01*
X105461420Y-101683382D01*
X105485910Y-101721441D01*
G36*
X97626838Y-104730317D02*
X97765910Y-104946441D01*
X97803277Y-104971973D01*
X97676500Y-105098750D01*
X97676500Y-105823000D01*
X98425750Y-105823000D01*
X98584500Y-105664250D01*
X98584500Y-105448690D01*
X98487827Y-105215301D01*
X98414966Y-105142440D01*
X99095000Y-105142440D01*
X99095000Y-107426314D01*
X98577782Y-107943532D01*
X98425750Y-107791500D01*
X97676500Y-107791500D01*
X97676500Y-107811500D01*
X97583903Y-107811500D01*
X97579199Y-107787852D01*
X97479073Y-107284483D01*
X97434500Y-107217775D01*
X97434500Y-106077000D01*
X97676500Y-106077000D01*
X97676500Y-106801250D01*
X97682500Y-106807250D01*
X97676500Y-106813250D01*
X97676500Y-107537500D01*
X98425750Y-107537500D01*
X98584500Y-107378750D01*
X98584500Y-107163190D01*
X98487827Y-106929801D01*
X98365275Y-106807250D01*
X98487827Y-106684699D01*
X98584500Y-106451310D01*
X98584500Y-106235750D01*
X98425750Y-106077000D01*
X97676500Y-106077000D01*
X97434500Y-106077000D01*
X97434500Y-105950000D01*
X97409238Y-105823000D01*
X97422500Y-105823000D01*
X97422500Y-105098750D01*
X97263750Y-104940000D01*
X97023191Y-104940000D01*
X96998357Y-104950287D01*
X96579517Y-104670427D01*
X96300867Y-104615000D01*
X97605140Y-104615000D01*
X97626838Y-104730317D01*
X97626838Y-104730317D01*
G37*
X97626838Y-104730317D02*
X97765910Y-104946441D01*
X97803277Y-104971973D01*
X97676500Y-105098750D01*
X97676500Y-105823000D01*
X98425750Y-105823000D01*
X98584500Y-105664250D01*
X98584500Y-105448690D01*
X98487827Y-105215301D01*
X98414966Y-105142440D01*
X99095000Y-105142440D01*
X99095000Y-107426314D01*
X98577782Y-107943532D01*
X98425750Y-107791500D01*
X97676500Y-107791500D01*
X97676500Y-107811500D01*
X97583903Y-107811500D01*
X97579199Y-107787852D01*
X97479073Y-107284483D01*
X97434500Y-107217775D01*
X97434500Y-106077000D01*
X97676500Y-106077000D01*
X97676500Y-106801250D01*
X97682500Y-106807250D01*
X97676500Y-106813250D01*
X97676500Y-107537500D01*
X98425750Y-107537500D01*
X98584500Y-107378750D01*
X98584500Y-107163190D01*
X98487827Y-106929801D01*
X98365275Y-106807250D01*
X98487827Y-106684699D01*
X98584500Y-106451310D01*
X98584500Y-106235750D01*
X98425750Y-106077000D01*
X97676500Y-106077000D01*
X97434500Y-106077000D01*
X97434500Y-105950000D01*
X97409238Y-105823000D01*
X97422500Y-105823000D01*
X97422500Y-105098750D01*
X97263750Y-104940000D01*
X97023191Y-104940000D01*
X96998357Y-104950287D01*
X96579517Y-104670427D01*
X96300867Y-104615000D01*
X97605140Y-104615000D01*
X97626838Y-104730317D01*
G36*
X95519483Y-104670427D02*
X95070157Y-104970657D01*
X94987074Y-105095000D01*
X94754215Y-105095000D01*
X94772440Y-105005000D01*
X94772440Y-104705000D01*
X94755505Y-104615000D01*
X95798133Y-104615000D01*
X95519483Y-104670427D01*
X95519483Y-104670427D01*
G37*
X95519483Y-104670427D02*
X95070157Y-104970657D01*
X94987074Y-105095000D01*
X94754215Y-105095000D01*
X94772440Y-105005000D01*
X94772440Y-104705000D01*
X94755505Y-104615000D01*
X95798133Y-104615000D01*
X95519483Y-104670427D01*
G36*
X97002000Y-101378000D02*
X97022000Y-101378000D01*
X97022000Y-101632000D01*
X97002000Y-101632000D01*
X97002000Y-102648000D01*
X97751250Y-102648000D01*
X97781250Y-102618000D01*
X98653000Y-102618000D01*
X98653000Y-102598000D01*
X98907000Y-102598000D01*
X98907000Y-102618000D01*
X98927000Y-102618000D01*
X98927000Y-102872000D01*
X98907000Y-102872000D01*
X98907000Y-102892000D01*
X98653000Y-102892000D01*
X98653000Y-102872000D01*
X97753750Y-102872000D01*
X97723750Y-102902000D01*
X97002000Y-102902000D01*
X97002000Y-102922000D01*
X96748000Y-102922000D01*
X96748000Y-102902000D01*
X96728000Y-102902000D01*
X96728000Y-102648000D01*
X96748000Y-102648000D01*
X96748000Y-101632000D01*
X96728000Y-101632000D01*
X96728000Y-101378000D01*
X96748000Y-101378000D01*
X96748000Y-101358000D01*
X97002000Y-101358000D01*
X97002000Y-101378000D01*
X97002000Y-101378000D01*
G37*
X97002000Y-101378000D02*
X97022000Y-101378000D01*
X97022000Y-101632000D01*
X97002000Y-101632000D01*
X97002000Y-102648000D01*
X97751250Y-102648000D01*
X97781250Y-102618000D01*
X98653000Y-102618000D01*
X98653000Y-102598000D01*
X98907000Y-102598000D01*
X98907000Y-102618000D01*
X98927000Y-102618000D01*
X98927000Y-102872000D01*
X98907000Y-102872000D01*
X98907000Y-102892000D01*
X98653000Y-102892000D01*
X98653000Y-102872000D01*
X97753750Y-102872000D01*
X97723750Y-102902000D01*
X97002000Y-102902000D01*
X97002000Y-102922000D01*
X96748000Y-102922000D01*
X96748000Y-102902000D01*
X96728000Y-102902000D01*
X96728000Y-102648000D01*
X96748000Y-102648000D01*
X96748000Y-101632000D01*
X96728000Y-101632000D01*
X96728000Y-101378000D01*
X96748000Y-101378000D01*
X96748000Y-101358000D01*
X97002000Y-101358000D01*
X97002000Y-101378000D01*
G36*
X99046000Y-101271000D02*
X98804000Y-101271000D01*
X98804000Y-101251000D01*
X98784000Y-101251000D01*
X98784000Y-100997000D01*
X98804000Y-100997000D01*
X98804000Y-100977000D01*
X99046000Y-100977000D01*
X99046000Y-101271000D01*
X99046000Y-101271000D01*
G37*
X99046000Y-101271000D02*
X98804000Y-101271000D01*
X98804000Y-101251000D01*
X98784000Y-101251000D01*
X98784000Y-100997000D01*
X98804000Y-100997000D01*
X98804000Y-100977000D01*
X99046000Y-100977000D01*
X99046000Y-101271000D01*
G36*
X108415001Y-100067000D02*
X108273000Y-100067000D01*
X108273000Y-100047000D01*
X108253000Y-100047000D01*
X108253000Y-99793000D01*
X108273000Y-99793000D01*
X108273000Y-99043750D01*
X108114250Y-98885000D01*
X108112500Y-98885000D01*
X108112500Y-97081500D01*
X108114250Y-97081500D01*
X108273000Y-96922750D01*
X108273000Y-96173500D01*
X108253000Y-96173500D01*
X108253000Y-95919500D01*
X108273000Y-95919500D01*
X108273000Y-95899500D01*
X108415001Y-95899500D01*
X108415001Y-100067000D01*
X108415001Y-100067000D01*
G37*
X108415001Y-100067000D02*
X108273000Y-100067000D01*
X108273000Y-100047000D01*
X108253000Y-100047000D01*
X108253000Y-99793000D01*
X108273000Y-99793000D01*
X108273000Y-99043750D01*
X108114250Y-98885000D01*
X108112500Y-98885000D01*
X108112500Y-97081500D01*
X108114250Y-97081500D01*
X108273000Y-96922750D01*
X108273000Y-96173500D01*
X108253000Y-96173500D01*
X108253000Y-95919500D01*
X108273000Y-95919500D01*
X108273000Y-95899500D01*
X108415001Y-95899500D01*
X108415001Y-100067000D01*
G36*
X104605001Y-100067000D02*
X104463000Y-100067000D01*
X104463000Y-100047000D01*
X104443000Y-100047000D01*
X104443000Y-99793000D01*
X104463000Y-99793000D01*
X104463000Y-99773000D01*
X104605001Y-99773000D01*
X104605001Y-100067000D01*
X104605001Y-100067000D01*
G37*
X104605001Y-100067000D02*
X104463000Y-100067000D01*
X104463000Y-100047000D01*
X104443000Y-100047000D01*
X104443000Y-99793000D01*
X104463000Y-99793000D01*
X104463000Y-99773000D01*
X104605001Y-99773000D01*
X104605001Y-100067000D01*
G36*
X83667000Y-96873000D02*
X83687000Y-96873000D01*
X83687000Y-97127000D01*
X83667000Y-97127000D01*
X83667000Y-98082547D01*
X83717270Y-98124344D01*
X83477744Y-98284390D01*
X83449657Y-98303157D01*
X81793103Y-99959711D01*
X81720827Y-99887308D01*
X81377299Y-99744662D01*
X81005333Y-99744338D01*
X80807681Y-99826006D01*
X80639236Y-99792500D01*
X79469250Y-99792500D01*
X79405250Y-99728500D01*
X78206000Y-99728500D01*
X78206000Y-99748500D01*
X77952000Y-99748500D01*
X77952000Y-99728500D01*
X77932000Y-99728500D01*
X77932000Y-99474500D01*
X77952000Y-99474500D01*
X77952000Y-99454500D01*
X78206000Y-99454500D01*
X78206000Y-99474500D01*
X79405250Y-99474500D01*
X79443251Y-99436499D01*
X81197503Y-99436499D01*
X81488342Y-99378647D01*
X81734904Y-99213900D01*
X82670402Y-98278402D01*
X82770299Y-98128895D01*
X83217304Y-98245256D01*
X83413000Y-98082547D01*
X83413000Y-97127000D01*
X83393000Y-97127000D01*
X83393000Y-96873000D01*
X83413000Y-96873000D01*
X83413000Y-96853000D01*
X83667000Y-96853000D01*
X83667000Y-96873000D01*
X83667000Y-96873000D01*
G37*
X83667000Y-96873000D02*
X83687000Y-96873000D01*
X83687000Y-97127000D01*
X83667000Y-97127000D01*
X83667000Y-98082547D01*
X83717270Y-98124344D01*
X83477744Y-98284390D01*
X83449657Y-98303157D01*
X81793103Y-99959711D01*
X81720827Y-99887308D01*
X81377299Y-99744662D01*
X81005333Y-99744338D01*
X80807681Y-99826006D01*
X80639236Y-99792500D01*
X79469250Y-99792500D01*
X79405250Y-99728500D01*
X78206000Y-99728500D01*
X78206000Y-99748500D01*
X77952000Y-99748500D01*
X77952000Y-99728500D01*
X77932000Y-99728500D01*
X77932000Y-99474500D01*
X77952000Y-99474500D01*
X77952000Y-99454500D01*
X78206000Y-99454500D01*
X78206000Y-99474500D01*
X79405250Y-99474500D01*
X79443251Y-99436499D01*
X81197503Y-99436499D01*
X81488342Y-99378647D01*
X81734904Y-99213900D01*
X82670402Y-98278402D01*
X82770299Y-98128895D01*
X83217304Y-98245256D01*
X83413000Y-98082547D01*
X83413000Y-97127000D01*
X83393000Y-97127000D01*
X83393000Y-96873000D01*
X83413000Y-96873000D01*
X83413000Y-96853000D01*
X83667000Y-96853000D01*
X83667000Y-96873000D01*
G36*
X85010358Y-97698109D02*
X85353886Y-97840755D01*
X85725852Y-97841079D01*
X85744560Y-97833349D01*
X85744560Y-97897500D01*
X84631496Y-97897500D01*
X84721933Y-97829125D01*
X84877146Y-97564665D01*
X85010358Y-97698109D01*
X85010358Y-97698109D01*
G37*
X85010358Y-97698109D02*
X85353886Y-97840755D01*
X85725852Y-97841079D01*
X85744560Y-97833349D01*
X85744560Y-97897500D01*
X84631496Y-97897500D01*
X84721933Y-97829125D01*
X84877146Y-97564665D01*
X85010358Y-97698109D01*
G36*
X90246673Y-96895802D02*
X90150000Y-97129191D01*
X90150000Y-97369750D01*
X90308750Y-97528500D01*
X91033000Y-97528500D01*
X91033000Y-97508500D01*
X91287000Y-97508500D01*
X91287000Y-97528500D01*
X92011250Y-97528500D01*
X92170000Y-97369750D01*
X92170000Y-97129191D01*
X92073327Y-96895802D01*
X92072526Y-96895001D01*
X93422474Y-96895001D01*
X93421673Y-96895802D01*
X93325000Y-97129191D01*
X93325000Y-97369750D01*
X93483750Y-97528500D01*
X94208000Y-97528500D01*
X94208000Y-97508500D01*
X94462000Y-97508500D01*
X94462000Y-97528500D01*
X95186250Y-97528500D01*
X95345000Y-97369750D01*
X95345000Y-97129191D01*
X95248327Y-96895802D01*
X95247526Y-96895001D01*
X96987577Y-96895001D01*
X96663557Y-97028883D01*
X96400308Y-97291673D01*
X96257662Y-97635201D01*
X96257544Y-97770500D01*
X88665935Y-97770500D01*
X88666162Y-97509833D01*
X88665611Y-97508500D01*
X88747000Y-97508500D01*
X88747000Y-97528500D01*
X89471250Y-97528500D01*
X89630000Y-97369750D01*
X89630000Y-97129191D01*
X89533327Y-96895802D01*
X89532526Y-96895001D01*
X90247474Y-96895001D01*
X90246673Y-96895802D01*
X90246673Y-96895802D01*
G37*
X90246673Y-96895802D02*
X90150000Y-97129191D01*
X90150000Y-97369750D01*
X90308750Y-97528500D01*
X91033000Y-97528500D01*
X91033000Y-97508500D01*
X91287000Y-97508500D01*
X91287000Y-97528500D01*
X92011250Y-97528500D01*
X92170000Y-97369750D01*
X92170000Y-97129191D01*
X92073327Y-96895802D01*
X92072526Y-96895001D01*
X93422474Y-96895001D01*
X93421673Y-96895802D01*
X93325000Y-97129191D01*
X93325000Y-97369750D01*
X93483750Y-97528500D01*
X94208000Y-97528500D01*
X94208000Y-97508500D01*
X94462000Y-97508500D01*
X94462000Y-97528500D01*
X95186250Y-97528500D01*
X95345000Y-97369750D01*
X95345000Y-97129191D01*
X95248327Y-96895802D01*
X95247526Y-96895001D01*
X96987577Y-96895001D01*
X96663557Y-97028883D01*
X96400308Y-97291673D01*
X96257662Y-97635201D01*
X96257544Y-97770500D01*
X88665935Y-97770500D01*
X88666162Y-97509833D01*
X88665611Y-97508500D01*
X88747000Y-97508500D01*
X88747000Y-97528500D01*
X89471250Y-97528500D01*
X89630000Y-97369750D01*
X89630000Y-97129191D01*
X89533327Y-96895802D01*
X89532526Y-96895001D01*
X90247474Y-96895001D01*
X90246673Y-96895802D01*
G36*
X104687500Y-97193698D02*
X104439776Y-96945974D01*
X104463000Y-96922750D01*
X104463000Y-96173500D01*
X104443000Y-96173500D01*
X104443000Y-96122994D01*
X104477338Y-96040299D01*
X104477461Y-95899500D01*
X104687500Y-95899500D01*
X104687500Y-97193698D01*
X104687500Y-97193698D01*
G37*
X104687500Y-97193698D02*
X104439776Y-96945974D01*
X104463000Y-96922750D01*
X104463000Y-96173500D01*
X104443000Y-96173500D01*
X104443000Y-96122994D01*
X104477338Y-96040299D01*
X104477461Y-95899500D01*
X104687500Y-95899500D01*
X104687500Y-97193698D01*
G36*
X116465214Y-93475624D02*
X116450038Y-93567391D01*
X116574769Y-93758000D01*
X117766500Y-93758000D01*
X117766500Y-93738000D01*
X118020500Y-93738000D01*
X118020500Y-93758000D01*
X118040500Y-93758000D01*
X118040500Y-94012000D01*
X118020500Y-94012000D01*
X118020500Y-94032000D01*
X117766500Y-94032000D01*
X117766500Y-94012000D01*
X116574769Y-94012000D01*
X116450038Y-94202609D01*
X116465214Y-94294376D01*
X116711567Y-94714125D01*
X116934391Y-94882590D01*
X116741130Y-95011723D01*
X116473416Y-95412386D01*
X116379407Y-95885000D01*
X116473416Y-96357614D01*
X116741130Y-96758277D01*
X116930785Y-96885000D01*
X116741130Y-97011723D01*
X116648226Y-97150763D01*
X114035546Y-94538083D01*
X114178286Y-94294876D01*
X114193462Y-94203109D01*
X114068731Y-94012500D01*
X112877000Y-94012500D01*
X112877000Y-94032500D01*
X112623000Y-94032500D01*
X112623000Y-94012500D01*
X112603000Y-94012500D01*
X112603000Y-93758500D01*
X112623000Y-93758500D01*
X112623000Y-93738500D01*
X112877000Y-93738500D01*
X112877000Y-93758500D01*
X114068731Y-93758500D01*
X114193462Y-93567891D01*
X114178286Y-93476124D01*
X114156204Y-93438500D01*
X116487002Y-93438500D01*
X116465214Y-93475624D01*
X116465214Y-93475624D01*
G37*
X116465214Y-93475624D02*
X116450038Y-93567391D01*
X116574769Y-93758000D01*
X117766500Y-93758000D01*
X117766500Y-93738000D01*
X118020500Y-93738000D01*
X118020500Y-93758000D01*
X118040500Y-93758000D01*
X118040500Y-94012000D01*
X118020500Y-94012000D01*
X118020500Y-94032000D01*
X117766500Y-94032000D01*
X117766500Y-94012000D01*
X116574769Y-94012000D01*
X116450038Y-94202609D01*
X116465214Y-94294376D01*
X116711567Y-94714125D01*
X116934391Y-94882590D01*
X116741130Y-95011723D01*
X116473416Y-95412386D01*
X116379407Y-95885000D01*
X116473416Y-96357614D01*
X116741130Y-96758277D01*
X116930785Y-96885000D01*
X116741130Y-97011723D01*
X116648226Y-97150763D01*
X114035546Y-94538083D01*
X114178286Y-94294876D01*
X114193462Y-94203109D01*
X114068731Y-94012500D01*
X112877000Y-94012500D01*
X112877000Y-94032500D01*
X112623000Y-94032500D01*
X112623000Y-94012500D01*
X112603000Y-94012500D01*
X112603000Y-93758500D01*
X112623000Y-93758500D01*
X112623000Y-93738500D01*
X112877000Y-93738500D01*
X112877000Y-93758500D01*
X114068731Y-93758500D01*
X114193462Y-93567891D01*
X114178286Y-93476124D01*
X114156204Y-93438500D01*
X116487002Y-93438500D01*
X116465214Y-93475624D01*
G36*
X88208000Y-88424000D02*
X88228000Y-88424000D01*
X88228000Y-88678000D01*
X88208000Y-88678000D01*
X88208000Y-88698000D01*
X87954000Y-88698000D01*
X87954000Y-88678000D01*
X87934000Y-88678000D01*
X87934000Y-88424000D01*
X87954000Y-88424000D01*
X87954000Y-88404000D01*
X88208000Y-88404000D01*
X88208000Y-88424000D01*
X88208000Y-88424000D01*
G37*
X88208000Y-88424000D02*
X88228000Y-88424000D01*
X88228000Y-88678000D01*
X88208000Y-88678000D01*
X88208000Y-88698000D01*
X87954000Y-88698000D01*
X87954000Y-88678000D01*
X87934000Y-88678000D01*
X87934000Y-88424000D01*
X87954000Y-88424000D01*
X87954000Y-88404000D01*
X88208000Y-88404000D01*
X88208000Y-88424000D01*
G36*
X105538525Y-85878525D02*
X105173263Y-86425178D01*
X105045000Y-87070000D01*
X105084924Y-87270712D01*
X104558500Y-87166000D01*
X95084657Y-87166000D01*
X95060343Y-87129612D01*
X93702378Y-85771647D01*
X93677464Y-85755000D01*
X105723393Y-85755000D01*
X105538525Y-85878525D01*
X105538525Y-85878525D01*
G37*
X105538525Y-85878525D02*
X105173263Y-86425178D01*
X105045000Y-87070000D01*
X105084924Y-87270712D01*
X104558500Y-87166000D01*
X95084657Y-87166000D01*
X95060343Y-87129612D01*
X93702378Y-85771647D01*
X93677464Y-85755000D01*
X105723393Y-85755000D01*
X105538525Y-85878525D01*
G36*
X131713000Y-130885816D02*
X131560000Y-131655000D01*
X131726323Y-132491163D01*
X132029568Y-132945000D01*
X131350792Y-132945000D01*
X131267896Y-132862104D01*
X130656359Y-132453487D01*
X129935000Y-132310000D01*
X129466009Y-132310000D01*
X129601325Y-131941632D01*
X129576097Y-131321539D01*
X129387332Y-130865821D01*
X129128256Y-130776349D01*
X128209605Y-131695000D01*
X128223748Y-131709143D01*
X128044143Y-131888748D01*
X128030000Y-131874605D01*
X128015858Y-131888748D01*
X127836253Y-131709143D01*
X127850395Y-131695000D01*
X126931744Y-130776349D01*
X126672668Y-130865821D01*
X126458675Y-131448368D01*
X126483903Y-132068461D01*
X126672668Y-132524179D01*
X126931742Y-132613650D01*
X126880610Y-132664782D01*
X126869683Y-132666838D01*
X126653559Y-132805910D01*
X126508569Y-133018110D01*
X126471912Y-133199127D01*
X126288487Y-133473642D01*
X126145000Y-134195000D01*
X126288487Y-134916358D01*
X126470497Y-135188755D01*
X126498956Y-135340000D01*
X113104802Y-135340000D01*
X109517401Y-131752599D01*
X109270839Y-131587852D01*
X108980000Y-131530000D01*
X101287463Y-131530000D01*
X101255327Y-131497808D01*
X100911799Y-131355162D01*
X100539833Y-131354838D01*
X100196057Y-131496883D01*
X99932808Y-131759673D01*
X99790162Y-132103201D01*
X99789838Y-132475167D01*
X99931883Y-132818943D01*
X99979274Y-132866417D01*
X99973006Y-132875590D01*
X99963000Y-132925000D01*
X99963000Y-133312000D01*
X90080448Y-133312000D01*
X89789608Y-133369852D01*
X89543047Y-133534599D01*
X87301099Y-135776547D01*
X87136352Y-136023109D01*
X87078500Y-136313948D01*
X87078500Y-144302425D01*
X86941799Y-144245662D01*
X86569833Y-144245338D01*
X86226057Y-144387383D01*
X86192882Y-144420500D01*
X84723000Y-144420500D01*
X84432161Y-144478352D01*
X84185599Y-144643099D01*
X69358698Y-159470000D01*
X64584463Y-159470000D01*
X64552327Y-159437808D01*
X64208799Y-159295162D01*
X63836833Y-159294838D01*
X63493057Y-159436883D01*
X63229808Y-159699673D01*
X63087162Y-160043201D01*
X63086838Y-160415167D01*
X63228883Y-160758943D01*
X63491673Y-161022192D01*
X63835201Y-161164838D01*
X64207167Y-161165162D01*
X64550943Y-161023117D01*
X64584118Y-160990000D01*
X69673500Y-160990000D01*
X69964339Y-160932148D01*
X70210901Y-160767401D01*
X85037802Y-145940500D01*
X86192537Y-145940500D01*
X86224673Y-145972692D01*
X86568201Y-146115338D01*
X86940167Y-146115662D01*
X87078500Y-146058504D01*
X87078500Y-146651925D01*
X86941799Y-146595162D01*
X86569833Y-146594838D01*
X86226057Y-146736883D01*
X85962808Y-146999673D01*
X85820162Y-147343201D01*
X85820121Y-147390077D01*
X71150198Y-162060000D01*
X61117531Y-162060000D01*
X61105010Y-162029697D01*
X60712370Y-161636371D01*
X60504488Y-161550051D01*
X60710303Y-161465010D01*
X61103629Y-161072370D01*
X61316757Y-160559100D01*
X61317242Y-160003339D01*
X61105010Y-159489697D01*
X60712370Y-159096371D01*
X60504488Y-159010051D01*
X60710303Y-158925010D01*
X61103629Y-158532370D01*
X61316757Y-158019100D01*
X61317242Y-157463339D01*
X61105010Y-156949697D01*
X60712370Y-156556371D01*
X60520273Y-156476605D01*
X60651143Y-156422397D01*
X60720608Y-156180213D01*
X59920000Y-155379605D01*
X59119392Y-156180213D01*
X59188857Y-156422397D01*
X59329318Y-156472509D01*
X59129697Y-156554990D01*
X58736371Y-156947630D01*
X58523243Y-157460900D01*
X58522758Y-158016661D01*
X58734990Y-158530303D01*
X59127630Y-158923629D01*
X59335512Y-159009949D01*
X59129697Y-159094990D01*
X58736371Y-159487630D01*
X58523243Y-160000900D01*
X58522758Y-160556661D01*
X58734990Y-161070303D01*
X59127630Y-161463629D01*
X59335512Y-161549949D01*
X59129697Y-161634990D01*
X58736371Y-162027630D01*
X58523243Y-162540900D01*
X58522758Y-163096661D01*
X58734990Y-163610303D01*
X59127630Y-164003629D01*
X59640900Y-164216757D01*
X60196661Y-164217242D01*
X60710303Y-164005010D01*
X60865424Y-163850159D01*
X92839446Y-163850159D01*
X92925852Y-164106643D01*
X93499336Y-164316458D01*
X94109460Y-164290839D01*
X94554148Y-164106643D01*
X94640554Y-163850159D01*
X93740000Y-162949605D01*
X92839446Y-163850159D01*
X60865424Y-163850159D01*
X61103629Y-163612370D01*
X61117070Y-163580000D01*
X71465000Y-163580000D01*
X71755839Y-163522148D01*
X72002401Y-163357401D01*
X72830466Y-162529336D01*
X92193542Y-162529336D01*
X92219161Y-163139460D01*
X92403357Y-163584148D01*
X92659841Y-163670554D01*
X93560395Y-162770000D01*
X93919605Y-162770000D01*
X94820159Y-163670554D01*
X95076643Y-163584148D01*
X95286458Y-163010664D01*
X95260839Y-162400540D01*
X95076643Y-161955852D01*
X94820159Y-161869446D01*
X93919605Y-162770000D01*
X93560395Y-162770000D01*
X92659841Y-161869446D01*
X92403357Y-161955852D01*
X92193542Y-162529336D01*
X72830466Y-162529336D01*
X73669961Y-161689841D01*
X92839446Y-161689841D01*
X93740000Y-162590395D01*
X94640554Y-161689841D01*
X94554148Y-161433357D01*
X93980664Y-161223542D01*
X93370540Y-161249161D01*
X92925852Y-161433357D01*
X92839446Y-161689841D01*
X73669961Y-161689841D01*
X86894680Y-148465122D01*
X86940167Y-148465162D01*
X87078500Y-148408004D01*
X87078500Y-150880000D01*
X87136352Y-151170839D01*
X87301099Y-151417401D01*
X92550878Y-156667180D01*
X92550838Y-156712667D01*
X92692883Y-157056443D01*
X92955673Y-157319692D01*
X93299201Y-157462338D01*
X93671167Y-157462662D01*
X94014943Y-157320617D01*
X94153802Y-157182000D01*
X96028000Y-157182000D01*
X96028000Y-157762537D01*
X95995808Y-157794673D01*
X95853162Y-158138201D01*
X95852838Y-158510167D01*
X95994883Y-158853943D01*
X96257673Y-159117192D01*
X96601201Y-159259838D01*
X96973167Y-159260162D01*
X97316943Y-159118117D01*
X97580192Y-158855327D01*
X97722838Y-158511799D01*
X97723162Y-158139833D01*
X97581117Y-157796057D01*
X97548000Y-157762882D01*
X97548000Y-156229500D01*
X97496750Y-155971852D01*
X97490148Y-155938660D01*
X97325401Y-155692099D01*
X96209802Y-154576500D01*
X96884486Y-154576500D01*
X97175325Y-154518648D01*
X97421887Y-154353901D01*
X97627295Y-154148493D01*
X98138931Y-154148493D01*
X98138838Y-154255667D01*
X98280883Y-154599443D01*
X98543673Y-154862692D01*
X98887201Y-155005338D01*
X98934077Y-155005379D01*
X100742488Y-156813790D01*
X100742338Y-156986167D01*
X100884383Y-157329943D01*
X101147173Y-157593192D01*
X101490701Y-157735838D01*
X101862667Y-157736162D01*
X102206443Y-157594117D01*
X102469692Y-157331327D01*
X102612338Y-156987799D01*
X102612662Y-156615833D01*
X102470617Y-156272057D01*
X102207827Y-156008808D01*
X102001389Y-155923087D01*
X101464949Y-155386647D01*
X101481667Y-155386662D01*
X101825443Y-155244617D01*
X101858618Y-155211500D01*
X104598500Y-155211500D01*
X104889339Y-155153648D01*
X105135901Y-154988901D01*
X108052989Y-152071813D01*
X108052989Y-160082209D01*
X106854964Y-161280234D01*
X106746670Y-161235267D01*
X106136009Y-161234735D01*
X105571629Y-161467932D01*
X105139449Y-161899357D01*
X104905267Y-162463330D01*
X104904735Y-163073991D01*
X104950485Y-163184713D01*
X103585198Y-164550000D01*
X100845302Y-164550000D01*
X104865180Y-160530122D01*
X104910667Y-160530162D01*
X105254443Y-160388117D01*
X105517692Y-160125327D01*
X105660338Y-159781799D01*
X105660662Y-159409833D01*
X105518617Y-159066057D01*
X105255827Y-158802808D01*
X104912299Y-158660162D01*
X104540333Y-158659838D01*
X104196557Y-158801883D01*
X103933308Y-159064673D01*
X103790662Y-159408201D01*
X103790621Y-159455077D01*
X99920699Y-163324999D01*
X98231999Y-163324999D01*
X97941160Y-163382851D01*
X97694598Y-163547598D01*
X94822599Y-166419597D01*
X94657852Y-166666159D01*
X94600000Y-166956998D01*
X94600000Y-169557666D01*
X94524683Y-169571838D01*
X94308559Y-169710910D01*
X94163569Y-169923110D01*
X94112560Y-170175000D01*
X94112560Y-171875000D01*
X94156838Y-172110317D01*
X94254625Y-172262283D01*
X94248000Y-172295000D01*
X94248000Y-176970000D01*
X54812467Y-176970000D01*
X53481540Y-176705262D01*
X52410429Y-175989568D01*
X51694738Y-174918459D01*
X51443420Y-173655000D01*
X52560000Y-173655000D01*
X52726323Y-174491163D01*
X53199972Y-175200028D01*
X53908837Y-175673677D01*
X54745000Y-175840000D01*
X55581163Y-175673677D01*
X56290028Y-175200028D01*
X56763677Y-174491163D01*
X56848646Y-174063991D01*
X60324735Y-174063991D01*
X60557932Y-174628371D01*
X60989357Y-175060551D01*
X61553330Y-175294733D01*
X62163991Y-175295265D01*
X62728371Y-175062068D01*
X63160551Y-174630643D01*
X63394733Y-174066670D01*
X63395265Y-173456009D01*
X63162068Y-172891629D01*
X62965783Y-172695000D01*
X63496310Y-172695000D01*
X63729699Y-172598327D01*
X63908327Y-172419698D01*
X64005000Y-172186309D01*
X64005000Y-170745750D01*
X63846250Y-170587000D01*
X62797000Y-170587000D01*
X62797000Y-170607000D01*
X62543000Y-170607000D01*
X62543000Y-170587000D01*
X61493750Y-170587000D01*
X61335000Y-170745750D01*
X61335000Y-172186309D01*
X61380888Y-172297093D01*
X60991629Y-172457932D01*
X60559449Y-172889357D01*
X60325267Y-173453330D01*
X60324735Y-174063991D01*
X56848646Y-174063991D01*
X56930000Y-173655000D01*
X56763677Y-172818837D01*
X56290028Y-172109972D01*
X55581163Y-171636323D01*
X54745000Y-171470000D01*
X53908837Y-171636323D01*
X53199972Y-172109972D01*
X52726323Y-172818837D01*
X52560000Y-173655000D01*
X51443420Y-173655000D01*
X51694738Y-172391541D01*
X52410429Y-171320432D01*
X53481540Y-170604738D01*
X54812467Y-170340000D01*
X55745000Y-170340000D01*
X55811170Y-170326838D01*
X55878636Y-170326838D01*
X56261319Y-170250718D01*
X56508248Y-170148437D01*
X56508249Y-170148436D01*
X56832672Y-169931664D01*
X57021664Y-169742672D01*
X57238437Y-169418249D01*
X57280803Y-169315968D01*
X57340718Y-169171319D01*
X57416838Y-168788636D01*
X57416838Y-168733691D01*
X61335000Y-168733691D01*
X61335000Y-170174250D01*
X61493750Y-170333000D01*
X62543000Y-170333000D01*
X62543000Y-168383750D01*
X62797000Y-168383750D01*
X62797000Y-170333000D01*
X63846250Y-170333000D01*
X64005000Y-170174250D01*
X64005000Y-168733691D01*
X63908327Y-168500302D01*
X63729699Y-168321673D01*
X63496310Y-168225000D01*
X62955750Y-168225000D01*
X62797000Y-168383750D01*
X62543000Y-168383750D01*
X62384250Y-168225000D01*
X61843690Y-168225000D01*
X61610301Y-168321673D01*
X61431673Y-168500302D01*
X61335000Y-168733691D01*
X57416838Y-168733691D01*
X57416838Y-168721170D01*
X57430000Y-168655000D01*
X57430000Y-154992302D01*
X58510856Y-154992302D01*
X58538638Y-155547368D01*
X58697603Y-155931143D01*
X58939787Y-156000608D01*
X59740395Y-155200000D01*
X60099605Y-155200000D01*
X60900213Y-156000608D01*
X61142397Y-155931143D01*
X61329144Y-155407698D01*
X61301362Y-154852632D01*
X61142397Y-154468857D01*
X60900213Y-154399392D01*
X60099605Y-155200000D01*
X59740395Y-155200000D01*
X58939787Y-154399392D01*
X58697603Y-154468857D01*
X58510856Y-154992302D01*
X57430000Y-154992302D01*
X57430000Y-142776661D01*
X58522758Y-142776661D01*
X58734990Y-143290303D01*
X59127630Y-143683629D01*
X59335512Y-143769949D01*
X59129697Y-143854990D01*
X58736371Y-144247630D01*
X58523243Y-144760900D01*
X58522758Y-145316661D01*
X58734990Y-145830303D01*
X59127630Y-146223629D01*
X59335512Y-146309949D01*
X59129697Y-146394990D01*
X58736371Y-146787630D01*
X58523243Y-147300900D01*
X58522758Y-147856661D01*
X58734990Y-148370303D01*
X59127630Y-148763629D01*
X59335512Y-148849949D01*
X59129697Y-148934990D01*
X58736371Y-149327630D01*
X58523243Y-149840900D01*
X58522758Y-150396661D01*
X58734990Y-150910303D01*
X59127630Y-151303629D01*
X59335512Y-151389949D01*
X59129697Y-151474990D01*
X58736371Y-151867630D01*
X58523243Y-152380900D01*
X58522758Y-152936661D01*
X58734990Y-153450303D01*
X59127630Y-153843629D01*
X59319727Y-153923395D01*
X59188857Y-153977603D01*
X59119392Y-154219787D01*
X59920000Y-155020395D01*
X60720608Y-154219787D01*
X60651143Y-153977603D01*
X60510682Y-153927491D01*
X60710303Y-153845010D01*
X61103629Y-153452370D01*
X61316757Y-152939100D01*
X61317242Y-152383339D01*
X61105010Y-151869697D01*
X60712370Y-151476371D01*
X60504488Y-151390051D01*
X60710303Y-151305010D01*
X61103629Y-150912370D01*
X61316757Y-150399100D01*
X61317242Y-149843339D01*
X61105010Y-149329697D01*
X60712370Y-148936371D01*
X60504488Y-148850051D01*
X60710303Y-148765010D01*
X61103629Y-148372370D01*
X61316757Y-147859100D01*
X61317242Y-147303339D01*
X61105010Y-146789697D01*
X60712370Y-146396371D01*
X60504488Y-146310051D01*
X60710303Y-146225010D01*
X61103629Y-145832370D01*
X61316757Y-145319100D01*
X61317242Y-144763339D01*
X61105010Y-144249697D01*
X60712370Y-143856371D01*
X60504488Y-143770051D01*
X60710303Y-143685010D01*
X61103629Y-143292370D01*
X61316757Y-142779100D01*
X61317242Y-142223339D01*
X61105010Y-141709697D01*
X60712370Y-141316371D01*
X60199100Y-141103243D01*
X59643339Y-141102758D01*
X59129697Y-141314990D01*
X58736371Y-141707630D01*
X58523243Y-142220900D01*
X58522758Y-142776661D01*
X57430000Y-142776661D01*
X57430000Y-136654999D01*
X57416838Y-136588829D01*
X57416838Y-136521363D01*
X57340718Y-136138680D01*
X57270848Y-135969999D01*
X57238437Y-135891750D01*
X57021664Y-135567327D01*
X56832672Y-135378335D01*
X56508248Y-135161562D01*
X56493041Y-135155263D01*
X56261319Y-135059281D01*
X55878636Y-134983161D01*
X55811170Y-134983161D01*
X55745000Y-134969999D01*
X54812467Y-134969999D01*
X53481541Y-134705261D01*
X52410430Y-133989567D01*
X51694739Y-132918458D01*
X51443421Y-131655000D01*
X52560000Y-131655000D01*
X52726323Y-132491163D01*
X53199972Y-133200028D01*
X53908837Y-133673677D01*
X54745000Y-133840000D01*
X55581163Y-133673677D01*
X56290028Y-133200028D01*
X56763677Y-132491163D01*
X56888429Y-131863991D01*
X60324735Y-131863991D01*
X60557932Y-132428371D01*
X60989357Y-132860551D01*
X61371331Y-133019161D01*
X61322560Y-133260000D01*
X61322560Y-136460000D01*
X61366838Y-136695317D01*
X61505910Y-136911441D01*
X61718110Y-137056431D01*
X61970000Y-137107440D01*
X63370000Y-137107440D01*
X63605317Y-137063162D01*
X63821441Y-136924090D01*
X63966431Y-136711890D01*
X64017440Y-136460000D01*
X64017440Y-133260000D01*
X63973162Y-133024683D01*
X63834090Y-132808559D01*
X63621890Y-132663569D01*
X63370000Y-132612560D01*
X62978316Y-132612560D01*
X63160551Y-132430643D01*
X63394733Y-131866670D01*
X63395265Y-131256009D01*
X63162068Y-130691629D01*
X63067349Y-130596744D01*
X127111349Y-130596744D01*
X128030000Y-131515395D01*
X128948651Y-130596744D01*
X128859179Y-130337668D01*
X128276632Y-130123675D01*
X127656539Y-130148903D01*
X127200821Y-130337668D01*
X127111349Y-130596744D01*
X63067349Y-130596744D01*
X62730643Y-130259449D01*
X62166670Y-130025267D01*
X61556009Y-130024735D01*
X60991629Y-130257932D01*
X60559449Y-130689357D01*
X60325267Y-131253330D01*
X60324735Y-131863991D01*
X56888429Y-131863991D01*
X56930000Y-131655000D01*
X56763677Y-130818837D01*
X56290028Y-130109972D01*
X55581163Y-129636323D01*
X54745000Y-129470000D01*
X53908837Y-129636323D01*
X53199972Y-130109972D01*
X52726323Y-130818837D01*
X52560000Y-131655000D01*
X51443421Y-131655000D01*
X51694739Y-130391542D01*
X52410430Y-129320433D01*
X53481541Y-128604739D01*
X54812467Y-128340001D01*
X131713000Y-128340001D01*
X131713000Y-130885816D01*
X131713000Y-130885816D01*
G37*
X131713000Y-130885816D02*
X131560000Y-131655000D01*
X131726323Y-132491163D01*
X132029568Y-132945000D01*
X131350792Y-132945000D01*
X131267896Y-132862104D01*
X130656359Y-132453487D01*
X129935000Y-132310000D01*
X129466009Y-132310000D01*
X129601325Y-131941632D01*
X129576097Y-131321539D01*
X129387332Y-130865821D01*
X129128256Y-130776349D01*
X128209605Y-131695000D01*
X128223748Y-131709143D01*
X128044143Y-131888748D01*
X128030000Y-131874605D01*
X128015858Y-131888748D01*
X127836253Y-131709143D01*
X127850395Y-131695000D01*
X126931744Y-130776349D01*
X126672668Y-130865821D01*
X126458675Y-131448368D01*
X126483903Y-132068461D01*
X126672668Y-132524179D01*
X126931742Y-132613650D01*
X126880610Y-132664782D01*
X126869683Y-132666838D01*
X126653559Y-132805910D01*
X126508569Y-133018110D01*
X126471912Y-133199127D01*
X126288487Y-133473642D01*
X126145000Y-134195000D01*
X126288487Y-134916358D01*
X126470497Y-135188755D01*
X126498956Y-135340000D01*
X113104802Y-135340000D01*
X109517401Y-131752599D01*
X109270839Y-131587852D01*
X108980000Y-131530000D01*
X101287463Y-131530000D01*
X101255327Y-131497808D01*
X100911799Y-131355162D01*
X100539833Y-131354838D01*
X100196057Y-131496883D01*
X99932808Y-131759673D01*
X99790162Y-132103201D01*
X99789838Y-132475167D01*
X99931883Y-132818943D01*
X99979274Y-132866417D01*
X99973006Y-132875590D01*
X99963000Y-132925000D01*
X99963000Y-133312000D01*
X90080448Y-133312000D01*
X89789608Y-133369852D01*
X89543047Y-133534599D01*
X87301099Y-135776547D01*
X87136352Y-136023109D01*
X87078500Y-136313948D01*
X87078500Y-144302425D01*
X86941799Y-144245662D01*
X86569833Y-144245338D01*
X86226057Y-144387383D01*
X86192882Y-144420500D01*
X84723000Y-144420500D01*
X84432161Y-144478352D01*
X84185599Y-144643099D01*
X69358698Y-159470000D01*
X64584463Y-159470000D01*
X64552327Y-159437808D01*
X64208799Y-159295162D01*
X63836833Y-159294838D01*
X63493057Y-159436883D01*
X63229808Y-159699673D01*
X63087162Y-160043201D01*
X63086838Y-160415167D01*
X63228883Y-160758943D01*
X63491673Y-161022192D01*
X63835201Y-161164838D01*
X64207167Y-161165162D01*
X64550943Y-161023117D01*
X64584118Y-160990000D01*
X69673500Y-160990000D01*
X69964339Y-160932148D01*
X70210901Y-160767401D01*
X85037802Y-145940500D01*
X86192537Y-145940500D01*
X86224673Y-145972692D01*
X86568201Y-146115338D01*
X86940167Y-146115662D01*
X87078500Y-146058504D01*
X87078500Y-146651925D01*
X86941799Y-146595162D01*
X86569833Y-146594838D01*
X86226057Y-146736883D01*
X85962808Y-146999673D01*
X85820162Y-147343201D01*
X85820121Y-147390077D01*
X71150198Y-162060000D01*
X61117531Y-162060000D01*
X61105010Y-162029697D01*
X60712370Y-161636371D01*
X60504488Y-161550051D01*
X60710303Y-161465010D01*
X61103629Y-161072370D01*
X61316757Y-160559100D01*
X61317242Y-160003339D01*
X61105010Y-159489697D01*
X60712370Y-159096371D01*
X60504488Y-159010051D01*
X60710303Y-158925010D01*
X61103629Y-158532370D01*
X61316757Y-158019100D01*
X61317242Y-157463339D01*
X61105010Y-156949697D01*
X60712370Y-156556371D01*
X60520273Y-156476605D01*
X60651143Y-156422397D01*
X60720608Y-156180213D01*
X59920000Y-155379605D01*
X59119392Y-156180213D01*
X59188857Y-156422397D01*
X59329318Y-156472509D01*
X59129697Y-156554990D01*
X58736371Y-156947630D01*
X58523243Y-157460900D01*
X58522758Y-158016661D01*
X58734990Y-158530303D01*
X59127630Y-158923629D01*
X59335512Y-159009949D01*
X59129697Y-159094990D01*
X58736371Y-159487630D01*
X58523243Y-160000900D01*
X58522758Y-160556661D01*
X58734990Y-161070303D01*
X59127630Y-161463629D01*
X59335512Y-161549949D01*
X59129697Y-161634990D01*
X58736371Y-162027630D01*
X58523243Y-162540900D01*
X58522758Y-163096661D01*
X58734990Y-163610303D01*
X59127630Y-164003629D01*
X59640900Y-164216757D01*
X60196661Y-164217242D01*
X60710303Y-164005010D01*
X60865424Y-163850159D01*
X92839446Y-163850159D01*
X92925852Y-164106643D01*
X93499336Y-164316458D01*
X94109460Y-164290839D01*
X94554148Y-164106643D01*
X94640554Y-163850159D01*
X93740000Y-162949605D01*
X92839446Y-163850159D01*
X60865424Y-163850159D01*
X61103629Y-163612370D01*
X61117070Y-163580000D01*
X71465000Y-163580000D01*
X71755839Y-163522148D01*
X72002401Y-163357401D01*
X72830466Y-162529336D01*
X92193542Y-162529336D01*
X92219161Y-163139460D01*
X92403357Y-163584148D01*
X92659841Y-163670554D01*
X93560395Y-162770000D01*
X93919605Y-162770000D01*
X94820159Y-163670554D01*
X95076643Y-163584148D01*
X95286458Y-163010664D01*
X95260839Y-162400540D01*
X95076643Y-161955852D01*
X94820159Y-161869446D01*
X93919605Y-162770000D01*
X93560395Y-162770000D01*
X92659841Y-161869446D01*
X92403357Y-161955852D01*
X92193542Y-162529336D01*
X72830466Y-162529336D01*
X73669961Y-161689841D01*
X92839446Y-161689841D01*
X93740000Y-162590395D01*
X94640554Y-161689841D01*
X94554148Y-161433357D01*
X93980664Y-161223542D01*
X93370540Y-161249161D01*
X92925852Y-161433357D01*
X92839446Y-161689841D01*
X73669961Y-161689841D01*
X86894680Y-148465122D01*
X86940167Y-148465162D01*
X87078500Y-148408004D01*
X87078500Y-150880000D01*
X87136352Y-151170839D01*
X87301099Y-151417401D01*
X92550878Y-156667180D01*
X92550838Y-156712667D01*
X92692883Y-157056443D01*
X92955673Y-157319692D01*
X93299201Y-157462338D01*
X93671167Y-157462662D01*
X94014943Y-157320617D01*
X94153802Y-157182000D01*
X96028000Y-157182000D01*
X96028000Y-157762537D01*
X95995808Y-157794673D01*
X95853162Y-158138201D01*
X95852838Y-158510167D01*
X95994883Y-158853943D01*
X96257673Y-159117192D01*
X96601201Y-159259838D01*
X96973167Y-159260162D01*
X97316943Y-159118117D01*
X97580192Y-158855327D01*
X97722838Y-158511799D01*
X97723162Y-158139833D01*
X97581117Y-157796057D01*
X97548000Y-157762882D01*
X97548000Y-156229500D01*
X97496750Y-155971852D01*
X97490148Y-155938660D01*
X97325401Y-155692099D01*
X96209802Y-154576500D01*
X96884486Y-154576500D01*
X97175325Y-154518648D01*
X97421887Y-154353901D01*
X97627295Y-154148493D01*
X98138931Y-154148493D01*
X98138838Y-154255667D01*
X98280883Y-154599443D01*
X98543673Y-154862692D01*
X98887201Y-155005338D01*
X98934077Y-155005379D01*
X100742488Y-156813790D01*
X100742338Y-156986167D01*
X100884383Y-157329943D01*
X101147173Y-157593192D01*
X101490701Y-157735838D01*
X101862667Y-157736162D01*
X102206443Y-157594117D01*
X102469692Y-157331327D01*
X102612338Y-156987799D01*
X102612662Y-156615833D01*
X102470617Y-156272057D01*
X102207827Y-156008808D01*
X102001389Y-155923087D01*
X101464949Y-155386647D01*
X101481667Y-155386662D01*
X101825443Y-155244617D01*
X101858618Y-155211500D01*
X104598500Y-155211500D01*
X104889339Y-155153648D01*
X105135901Y-154988901D01*
X108052989Y-152071813D01*
X108052989Y-160082209D01*
X106854964Y-161280234D01*
X106746670Y-161235267D01*
X106136009Y-161234735D01*
X105571629Y-161467932D01*
X105139449Y-161899357D01*
X104905267Y-162463330D01*
X104904735Y-163073991D01*
X104950485Y-163184713D01*
X103585198Y-164550000D01*
X100845302Y-164550000D01*
X104865180Y-160530122D01*
X104910667Y-160530162D01*
X105254443Y-160388117D01*
X105517692Y-160125327D01*
X105660338Y-159781799D01*
X105660662Y-159409833D01*
X105518617Y-159066057D01*
X105255827Y-158802808D01*
X104912299Y-158660162D01*
X104540333Y-158659838D01*
X104196557Y-158801883D01*
X103933308Y-159064673D01*
X103790662Y-159408201D01*
X103790621Y-159455077D01*
X99920699Y-163324999D01*
X98231999Y-163324999D01*
X97941160Y-163382851D01*
X97694598Y-163547598D01*
X94822599Y-166419597D01*
X94657852Y-166666159D01*
X94600000Y-166956998D01*
X94600000Y-169557666D01*
X94524683Y-169571838D01*
X94308559Y-169710910D01*
X94163569Y-169923110D01*
X94112560Y-170175000D01*
X94112560Y-171875000D01*
X94156838Y-172110317D01*
X94254625Y-172262283D01*
X94248000Y-172295000D01*
X94248000Y-176970000D01*
X54812467Y-176970000D01*
X53481540Y-176705262D01*
X52410429Y-175989568D01*
X51694738Y-174918459D01*
X51443420Y-173655000D01*
X52560000Y-173655000D01*
X52726323Y-174491163D01*
X53199972Y-175200028D01*
X53908837Y-175673677D01*
X54745000Y-175840000D01*
X55581163Y-175673677D01*
X56290028Y-175200028D01*
X56763677Y-174491163D01*
X56848646Y-174063991D01*
X60324735Y-174063991D01*
X60557932Y-174628371D01*
X60989357Y-175060551D01*
X61553330Y-175294733D01*
X62163991Y-175295265D01*
X62728371Y-175062068D01*
X63160551Y-174630643D01*
X63394733Y-174066670D01*
X63395265Y-173456009D01*
X63162068Y-172891629D01*
X62965783Y-172695000D01*
X63496310Y-172695000D01*
X63729699Y-172598327D01*
X63908327Y-172419698D01*
X64005000Y-172186309D01*
X64005000Y-170745750D01*
X63846250Y-170587000D01*
X62797000Y-170587000D01*
X62797000Y-170607000D01*
X62543000Y-170607000D01*
X62543000Y-170587000D01*
X61493750Y-170587000D01*
X61335000Y-170745750D01*
X61335000Y-172186309D01*
X61380888Y-172297093D01*
X60991629Y-172457932D01*
X60559449Y-172889357D01*
X60325267Y-173453330D01*
X60324735Y-174063991D01*
X56848646Y-174063991D01*
X56930000Y-173655000D01*
X56763677Y-172818837D01*
X56290028Y-172109972D01*
X55581163Y-171636323D01*
X54745000Y-171470000D01*
X53908837Y-171636323D01*
X53199972Y-172109972D01*
X52726323Y-172818837D01*
X52560000Y-173655000D01*
X51443420Y-173655000D01*
X51694738Y-172391541D01*
X52410429Y-171320432D01*
X53481540Y-170604738D01*
X54812467Y-170340000D01*
X55745000Y-170340000D01*
X55811170Y-170326838D01*
X55878636Y-170326838D01*
X56261319Y-170250718D01*
X56508248Y-170148437D01*
X56508249Y-170148436D01*
X56832672Y-169931664D01*
X57021664Y-169742672D01*
X57238437Y-169418249D01*
X57280803Y-169315968D01*
X57340718Y-169171319D01*
X57416838Y-168788636D01*
X57416838Y-168733691D01*
X61335000Y-168733691D01*
X61335000Y-170174250D01*
X61493750Y-170333000D01*
X62543000Y-170333000D01*
X62543000Y-168383750D01*
X62797000Y-168383750D01*
X62797000Y-170333000D01*
X63846250Y-170333000D01*
X64005000Y-170174250D01*
X64005000Y-168733691D01*
X63908327Y-168500302D01*
X63729699Y-168321673D01*
X63496310Y-168225000D01*
X62955750Y-168225000D01*
X62797000Y-168383750D01*
X62543000Y-168383750D01*
X62384250Y-168225000D01*
X61843690Y-168225000D01*
X61610301Y-168321673D01*
X61431673Y-168500302D01*
X61335000Y-168733691D01*
X57416838Y-168733691D01*
X57416838Y-168721170D01*
X57430000Y-168655000D01*
X57430000Y-154992302D01*
X58510856Y-154992302D01*
X58538638Y-155547368D01*
X58697603Y-155931143D01*
X58939787Y-156000608D01*
X59740395Y-155200000D01*
X60099605Y-155200000D01*
X60900213Y-156000608D01*
X61142397Y-155931143D01*
X61329144Y-155407698D01*
X61301362Y-154852632D01*
X61142397Y-154468857D01*
X60900213Y-154399392D01*
X60099605Y-155200000D01*
X59740395Y-155200000D01*
X58939787Y-154399392D01*
X58697603Y-154468857D01*
X58510856Y-154992302D01*
X57430000Y-154992302D01*
X57430000Y-142776661D01*
X58522758Y-142776661D01*
X58734990Y-143290303D01*
X59127630Y-143683629D01*
X59335512Y-143769949D01*
X59129697Y-143854990D01*
X58736371Y-144247630D01*
X58523243Y-144760900D01*
X58522758Y-145316661D01*
X58734990Y-145830303D01*
X59127630Y-146223629D01*
X59335512Y-146309949D01*
X59129697Y-146394990D01*
X58736371Y-146787630D01*
X58523243Y-147300900D01*
X58522758Y-147856661D01*
X58734990Y-148370303D01*
X59127630Y-148763629D01*
X59335512Y-148849949D01*
X59129697Y-148934990D01*
X58736371Y-149327630D01*
X58523243Y-149840900D01*
X58522758Y-150396661D01*
X58734990Y-150910303D01*
X59127630Y-151303629D01*
X59335512Y-151389949D01*
X59129697Y-151474990D01*
X58736371Y-151867630D01*
X58523243Y-152380900D01*
X58522758Y-152936661D01*
X58734990Y-153450303D01*
X59127630Y-153843629D01*
X59319727Y-153923395D01*
X59188857Y-153977603D01*
X59119392Y-154219787D01*
X59920000Y-155020395D01*
X60720608Y-154219787D01*
X60651143Y-153977603D01*
X60510682Y-153927491D01*
X60710303Y-153845010D01*
X61103629Y-153452370D01*
X61316757Y-152939100D01*
X61317242Y-152383339D01*
X61105010Y-151869697D01*
X60712370Y-151476371D01*
X60504488Y-151390051D01*
X60710303Y-151305010D01*
X61103629Y-150912370D01*
X61316757Y-150399100D01*
X61317242Y-149843339D01*
X61105010Y-149329697D01*
X60712370Y-148936371D01*
X60504488Y-148850051D01*
X60710303Y-148765010D01*
X61103629Y-148372370D01*
X61316757Y-147859100D01*
X61317242Y-147303339D01*
X61105010Y-146789697D01*
X60712370Y-146396371D01*
X60504488Y-146310051D01*
X60710303Y-146225010D01*
X61103629Y-145832370D01*
X61316757Y-145319100D01*
X61317242Y-144763339D01*
X61105010Y-144249697D01*
X60712370Y-143856371D01*
X60504488Y-143770051D01*
X60710303Y-143685010D01*
X61103629Y-143292370D01*
X61316757Y-142779100D01*
X61317242Y-142223339D01*
X61105010Y-141709697D01*
X60712370Y-141316371D01*
X60199100Y-141103243D01*
X59643339Y-141102758D01*
X59129697Y-141314990D01*
X58736371Y-141707630D01*
X58523243Y-142220900D01*
X58522758Y-142776661D01*
X57430000Y-142776661D01*
X57430000Y-136654999D01*
X57416838Y-136588829D01*
X57416838Y-136521363D01*
X57340718Y-136138680D01*
X57270848Y-135969999D01*
X57238437Y-135891750D01*
X57021664Y-135567327D01*
X56832672Y-135378335D01*
X56508248Y-135161562D01*
X56493041Y-135155263D01*
X56261319Y-135059281D01*
X55878636Y-134983161D01*
X55811170Y-134983161D01*
X55745000Y-134969999D01*
X54812467Y-134969999D01*
X53481541Y-134705261D01*
X52410430Y-133989567D01*
X51694739Y-132918458D01*
X51443421Y-131655000D01*
X52560000Y-131655000D01*
X52726323Y-132491163D01*
X53199972Y-133200028D01*
X53908837Y-133673677D01*
X54745000Y-133840000D01*
X55581163Y-133673677D01*
X56290028Y-133200028D01*
X56763677Y-132491163D01*
X56888429Y-131863991D01*
X60324735Y-131863991D01*
X60557932Y-132428371D01*
X60989357Y-132860551D01*
X61371331Y-133019161D01*
X61322560Y-133260000D01*
X61322560Y-136460000D01*
X61366838Y-136695317D01*
X61505910Y-136911441D01*
X61718110Y-137056431D01*
X61970000Y-137107440D01*
X63370000Y-137107440D01*
X63605317Y-137063162D01*
X63821441Y-136924090D01*
X63966431Y-136711890D01*
X64017440Y-136460000D01*
X64017440Y-133260000D01*
X63973162Y-133024683D01*
X63834090Y-132808559D01*
X63621890Y-132663569D01*
X63370000Y-132612560D01*
X62978316Y-132612560D01*
X63160551Y-132430643D01*
X63394733Y-131866670D01*
X63395265Y-131256009D01*
X63162068Y-130691629D01*
X63067349Y-130596744D01*
X127111349Y-130596744D01*
X128030000Y-131515395D01*
X128948651Y-130596744D01*
X128859179Y-130337668D01*
X128276632Y-130123675D01*
X127656539Y-130148903D01*
X127200821Y-130337668D01*
X127111349Y-130596744D01*
X63067349Y-130596744D01*
X62730643Y-130259449D01*
X62166670Y-130025267D01*
X61556009Y-130024735D01*
X60991629Y-130257932D01*
X60559449Y-130689357D01*
X60325267Y-131253330D01*
X60324735Y-131863991D01*
X56888429Y-131863991D01*
X56930000Y-131655000D01*
X56763677Y-130818837D01*
X56290028Y-130109972D01*
X55581163Y-129636323D01*
X54745000Y-129470000D01*
X53908837Y-129636323D01*
X53199972Y-130109972D01*
X52726323Y-130818837D01*
X52560000Y-131655000D01*
X51443421Y-131655000D01*
X51694739Y-130391542D01*
X52410430Y-129320433D01*
X53481541Y-128604739D01*
X54812467Y-128340001D01*
X131713000Y-128340001D01*
X131713000Y-130885816D01*
G36*
X109744000Y-167344698D02*
X105648688Y-171440010D01*
X102581225Y-171440010D01*
X102605256Y-171347696D01*
X102442547Y-171152000D01*
X101487000Y-171152000D01*
X101487000Y-171172000D01*
X101233000Y-171172000D01*
X101233000Y-171152000D01*
X101213000Y-171152000D01*
X101213000Y-170898000D01*
X101233000Y-170898000D01*
X101233000Y-169706269D01*
X101487000Y-169706269D01*
X101487000Y-170898000D01*
X102442547Y-170898000D01*
X102605256Y-170702304D01*
X102482647Y-170231299D01*
X102189125Y-169843067D01*
X101769376Y-169596714D01*
X101677609Y-169581538D01*
X101487000Y-169706269D01*
X101233000Y-169706269D01*
X101042391Y-169581538D01*
X100950624Y-169596714D01*
X100530875Y-169843067D01*
X100362410Y-170065891D01*
X100233277Y-169872630D01*
X99832614Y-169604916D01*
X99510092Y-169540762D01*
X101778354Y-167272500D01*
X105845052Y-167272500D01*
X106135891Y-167214648D01*
X106382453Y-167049901D01*
X109744000Y-163688354D01*
X109744000Y-167344698D01*
X109744000Y-167344698D01*
G37*
X109744000Y-167344698D02*
X105648688Y-171440010D01*
X102581225Y-171440010D01*
X102605256Y-171347696D01*
X102442547Y-171152000D01*
X101487000Y-171152000D01*
X101487000Y-171172000D01*
X101233000Y-171172000D01*
X101233000Y-171152000D01*
X101213000Y-171152000D01*
X101213000Y-170898000D01*
X101233000Y-170898000D01*
X101233000Y-169706269D01*
X101487000Y-169706269D01*
X101487000Y-170898000D01*
X102442547Y-170898000D01*
X102605256Y-170702304D01*
X102482647Y-170231299D01*
X102189125Y-169843067D01*
X101769376Y-169596714D01*
X101677609Y-169581538D01*
X101487000Y-169706269D01*
X101233000Y-169706269D01*
X101042391Y-169581538D01*
X100950624Y-169596714D01*
X100530875Y-169843067D01*
X100362410Y-170065891D01*
X100233277Y-169872630D01*
X99832614Y-169604916D01*
X99510092Y-169540762D01*
X101778354Y-167272500D01*
X105845052Y-167272500D01*
X106135891Y-167214648D01*
X106382453Y-167049901D01*
X109744000Y-163688354D01*
X109744000Y-167344698D01*
G36*
X106315000Y-149120198D02*
X103585198Y-151850000D01*
X103192463Y-151850000D01*
X103160327Y-151817808D01*
X102816799Y-151675162D01*
X102444833Y-151674838D01*
X102101057Y-151816883D01*
X101837808Y-152079673D01*
X101695162Y-152423201D01*
X101694838Y-152795167D01*
X101836883Y-153138943D01*
X102099673Y-153402192D01*
X102443201Y-153544838D01*
X102815167Y-153545162D01*
X103158943Y-153403117D01*
X103192118Y-153370000D01*
X103900000Y-153370000D01*
X104190839Y-153312148D01*
X104437401Y-153147401D01*
X107585000Y-149999802D01*
X107585000Y-150390198D01*
X104283698Y-153691500D01*
X101858963Y-153691500D01*
X101826827Y-153659308D01*
X101483299Y-153516662D01*
X101436423Y-153516621D01*
X100770894Y-152851092D01*
X100524332Y-152686345D01*
X100233493Y-152628493D01*
X99564618Y-152628493D01*
X99564662Y-152578316D01*
X99422617Y-152234540D01*
X99389500Y-152201365D01*
X99389500Y-150378463D01*
X99421692Y-150346327D01*
X99564338Y-150002799D01*
X99564516Y-149798596D01*
X99640167Y-149798662D01*
X99983943Y-149656617D01*
X100247192Y-149393827D01*
X100389838Y-149050299D01*
X100389921Y-148954951D01*
X100420267Y-148909535D01*
X106315000Y-143014802D01*
X106315000Y-149120198D01*
X106315000Y-149120198D01*
G37*
X106315000Y-149120198D02*
X103585198Y-151850000D01*
X103192463Y-151850000D01*
X103160327Y-151817808D01*
X102816799Y-151675162D01*
X102444833Y-151674838D01*
X102101057Y-151816883D01*
X101837808Y-152079673D01*
X101695162Y-152423201D01*
X101694838Y-152795167D01*
X101836883Y-153138943D01*
X102099673Y-153402192D01*
X102443201Y-153544838D01*
X102815167Y-153545162D01*
X103158943Y-153403117D01*
X103192118Y-153370000D01*
X103900000Y-153370000D01*
X104190839Y-153312148D01*
X104437401Y-153147401D01*
X107585000Y-149999802D01*
X107585000Y-150390198D01*
X104283698Y-153691500D01*
X101858963Y-153691500D01*
X101826827Y-153659308D01*
X101483299Y-153516662D01*
X101436423Y-153516621D01*
X100770894Y-152851092D01*
X100524332Y-152686345D01*
X100233493Y-152628493D01*
X99564618Y-152628493D01*
X99564662Y-152578316D01*
X99422617Y-152234540D01*
X99389500Y-152201365D01*
X99389500Y-150378463D01*
X99421692Y-150346327D01*
X99564338Y-150002799D01*
X99564516Y-149798596D01*
X99640167Y-149798662D01*
X99983943Y-149656617D01*
X100247192Y-149393827D01*
X100389838Y-149050299D01*
X100389921Y-148954951D01*
X100420267Y-148909535D01*
X106315000Y-143014802D01*
X106315000Y-149120198D01*
G36*
X97290118Y-148748490D02*
X94739312Y-148748490D01*
X96759787Y-146728015D01*
X99310593Y-146728015D01*
X97290118Y-148748490D01*
X97290118Y-148748490D01*
G37*
X97290118Y-148748490D02*
X94739312Y-148748490D01*
X96759787Y-146728015D01*
X99310593Y-146728015D01*
X97290118Y-148748490D01*
G36*
X90057000Y-138513000D02*
X90077000Y-138513000D01*
X90077000Y-138767000D01*
X90057000Y-138767000D01*
X90057000Y-139966250D01*
X90215750Y-140125000D01*
X90503500Y-140125000D01*
X90503500Y-141760537D01*
X90471308Y-141792673D01*
X90328662Y-142136201D01*
X90328338Y-142508167D01*
X90470383Y-142851943D01*
X90733173Y-143115192D01*
X91076701Y-143257838D01*
X91448667Y-143258162D01*
X91710000Y-143150182D01*
X91710000Y-143214698D01*
X90734084Y-144190614D01*
X90569337Y-144437176D01*
X90511485Y-144728015D01*
X90511485Y-147138925D01*
X90327914Y-147102410D01*
X89920963Y-147102410D01*
X89888827Y-147070218D01*
X89545299Y-146927572D01*
X89173333Y-146927248D01*
X89098500Y-146958168D01*
X89098500Y-140125000D01*
X89644250Y-140125000D01*
X89803000Y-139966250D01*
X89803000Y-138767000D01*
X89783000Y-138767000D01*
X89783000Y-138513000D01*
X89803000Y-138513000D01*
X89803000Y-138493000D01*
X90057000Y-138493000D01*
X90057000Y-138513000D01*
X90057000Y-138513000D01*
G37*
X90057000Y-138513000D02*
X90077000Y-138513000D01*
X90077000Y-138767000D01*
X90057000Y-138767000D01*
X90057000Y-139966250D01*
X90215750Y-140125000D01*
X90503500Y-140125000D01*
X90503500Y-141760537D01*
X90471308Y-141792673D01*
X90328662Y-142136201D01*
X90328338Y-142508167D01*
X90470383Y-142851943D01*
X90733173Y-143115192D01*
X91076701Y-143257838D01*
X91448667Y-143258162D01*
X91710000Y-143150182D01*
X91710000Y-143214698D01*
X90734084Y-144190614D01*
X90569337Y-144437176D01*
X90511485Y-144728015D01*
X90511485Y-147138925D01*
X90327914Y-147102410D01*
X89920963Y-147102410D01*
X89888827Y-147070218D01*
X89545299Y-146927572D01*
X89173333Y-146927248D01*
X89098500Y-146958168D01*
X89098500Y-140125000D01*
X89644250Y-140125000D01*
X89803000Y-139966250D01*
X89803000Y-138767000D01*
X89783000Y-138767000D01*
X89783000Y-138513000D01*
X89803000Y-138513000D01*
X89803000Y-138493000D01*
X90057000Y-138493000D01*
X90057000Y-138513000D01*
G36*
X144293642Y-146185183D02*
X144436553Y-146252298D01*
X144095853Y-146479946D01*
X143905000Y-146765578D01*
X143714147Y-146479946D01*
X143373447Y-146252298D01*
X143516358Y-146185183D01*
X143905000Y-145758729D01*
X144293642Y-146185183D01*
X144293642Y-146185183D01*
G37*
X144293642Y-146185183D02*
X144436553Y-146252298D01*
X144095853Y-146479946D01*
X143905000Y-146765578D01*
X143714147Y-146479946D01*
X143373447Y-146252298D01*
X143516358Y-146185183D01*
X143905000Y-145758729D01*
X144293642Y-146185183D01*
G36*
X144532053Y-143682853D02*
X144293642Y-143794817D01*
X143905000Y-144221271D01*
X143516358Y-143794817D01*
X142991892Y-143548514D01*
X142762000Y-143669181D01*
X142762000Y-144863000D01*
X145048000Y-144863000D01*
X145048000Y-144843000D01*
X145302000Y-144843000D01*
X145302000Y-144863000D01*
X145322000Y-144863000D01*
X145322000Y-145117000D01*
X145302000Y-145117000D01*
X145302000Y-145137000D01*
X145048000Y-145137000D01*
X145048000Y-145117000D01*
X142762000Y-145117000D01*
X142762000Y-145137000D01*
X142508000Y-145137000D01*
X142508000Y-145117000D01*
X142488000Y-145117000D01*
X142488000Y-144863000D01*
X142508000Y-144863000D01*
X142508000Y-143669181D01*
X142278108Y-143548514D01*
X141753642Y-143794817D01*
X141363355Y-144223076D01*
X141268029Y-144453227D01*
X136135312Y-139320510D01*
X135888750Y-139155763D01*
X135597911Y-139097911D01*
X106863571Y-139097911D01*
X107461893Y-138499589D01*
X139348789Y-138499589D01*
X144532053Y-143682853D01*
X144532053Y-143682853D01*
G37*
X144532053Y-143682853D02*
X144293642Y-143794817D01*
X143905000Y-144221271D01*
X143516358Y-143794817D01*
X142991892Y-143548514D01*
X142762000Y-143669181D01*
X142762000Y-144863000D01*
X145048000Y-144863000D01*
X145048000Y-144843000D01*
X145302000Y-144843000D01*
X145302000Y-144863000D01*
X145322000Y-144863000D01*
X145322000Y-145117000D01*
X145302000Y-145117000D01*
X145302000Y-145137000D01*
X145048000Y-145137000D01*
X145048000Y-145117000D01*
X142762000Y-145117000D01*
X142762000Y-145137000D01*
X142508000Y-145137000D01*
X142508000Y-145117000D01*
X142488000Y-145117000D01*
X142488000Y-144863000D01*
X142508000Y-144863000D01*
X142508000Y-143669181D01*
X142278108Y-143548514D01*
X141753642Y-143794817D01*
X141363355Y-144223076D01*
X141268029Y-144453227D01*
X136135312Y-139320510D01*
X135888750Y-139155763D01*
X135597911Y-139097911D01*
X106863571Y-139097911D01*
X107461893Y-138499589D01*
X139348789Y-138499589D01*
X144532053Y-143682853D01*
G36*
X93959946Y-139719147D02*
X94441715Y-140041054D01*
X95010000Y-140154093D01*
X95463131Y-140063960D01*
X95486883Y-140121443D01*
X95749673Y-140384692D01*
X96093201Y-140527338D01*
X96282000Y-140527502D01*
X96282000Y-142967037D01*
X96249808Y-142999173D01*
X96107162Y-143342701D01*
X96106838Y-143714667D01*
X96248883Y-144058443D01*
X96339281Y-144148999D01*
X93442675Y-144148999D01*
X93151836Y-144206851D01*
X92905274Y-144371598D01*
X92334208Y-144942664D01*
X92288721Y-144942624D01*
X92031485Y-145048911D01*
X92031485Y-145042817D01*
X93007401Y-144066901D01*
X93172148Y-143820340D01*
X93230000Y-143529500D01*
X93230000Y-139912954D01*
X93520054Y-139719147D01*
X93740000Y-139389974D01*
X93959946Y-139719147D01*
X93959946Y-139719147D01*
G37*
X93959946Y-139719147D02*
X94441715Y-140041054D01*
X95010000Y-140154093D01*
X95463131Y-140063960D01*
X95486883Y-140121443D01*
X95749673Y-140384692D01*
X96093201Y-140527338D01*
X96282000Y-140527502D01*
X96282000Y-142967037D01*
X96249808Y-142999173D01*
X96107162Y-143342701D01*
X96106838Y-143714667D01*
X96248883Y-144058443D01*
X96339281Y-144148999D01*
X93442675Y-144148999D01*
X93151836Y-144206851D01*
X92905274Y-144371598D01*
X92334208Y-144942664D01*
X92288721Y-144942624D01*
X92031485Y-145048911D01*
X92031485Y-145042817D01*
X93007401Y-144066901D01*
X93172148Y-143820340D01*
X93230000Y-143529500D01*
X93230000Y-139912954D01*
X93520054Y-139719147D01*
X93740000Y-139389974D01*
X93959946Y-139719147D01*
G36*
X107835000Y-144425198D02*
X107835000Y-144034802D01*
X108729212Y-143140590D01*
X109119608Y-143140590D01*
X107835000Y-144425198D01*
X107835000Y-144425198D01*
G37*
X107835000Y-144425198D02*
X107835000Y-144034802D01*
X108729212Y-143140590D01*
X109119608Y-143140590D01*
X107835000Y-144425198D01*
G36*
X95742599Y-136539778D02*
X95577852Y-136786340D01*
X95520000Y-137077179D01*
X95520000Y-137227352D01*
X95010000Y-137125907D01*
X94441715Y-137238946D01*
X93959946Y-137560853D01*
X93740000Y-137890026D01*
X93520054Y-137560853D01*
X93038285Y-137238946D01*
X92470000Y-137125907D01*
X91993788Y-137220631D01*
X91965648Y-137079161D01*
X91800901Y-136832599D01*
X91119122Y-136150820D01*
X91119162Y-136105333D01*
X90977117Y-135761557D01*
X90714327Y-135498308D01*
X90517695Y-135416659D01*
X90602354Y-135332000D01*
X96950377Y-135332000D01*
X95742599Y-136539778D01*
X95742599Y-136539778D01*
G37*
X95742599Y-136539778D02*
X95577852Y-136786340D01*
X95520000Y-137077179D01*
X95520000Y-137227352D01*
X95010000Y-137125907D01*
X94441715Y-137238946D01*
X93959946Y-137560853D01*
X93740000Y-137890026D01*
X93520054Y-137560853D01*
X93038285Y-137238946D01*
X92470000Y-137125907D01*
X91993788Y-137220631D01*
X91965648Y-137079161D01*
X91800901Y-136832599D01*
X91119122Y-136150820D01*
X91119162Y-136105333D01*
X90977117Y-135761557D01*
X90714327Y-135498308D01*
X90517695Y-135416659D01*
X90602354Y-135332000D01*
X96950377Y-135332000D01*
X95742599Y-136539778D01*
D46*
X82600000Y-98100000D03*
X84200000Y-98000000D03*
X102717000Y-86328500D03*
X100177000Y-86328500D03*
X97637000Y-86328500D03*
X98907000Y-86963500D03*
X101447000Y-86963500D03*
X103352000Y-86963500D03*
X104241000Y-107537500D03*
X108432000Y-109633000D03*
X107543000Y-110204500D03*
X107797000Y-109061500D03*
X105003000Y-107664500D03*
X104050500Y-114713000D03*
X111607000Y-105188000D03*
X102653500Y-114395500D03*
X102082000Y-113316000D03*
X100685000Y-113252500D03*
X102463000Y-99917500D03*
X99478500Y-95980500D03*
X84238500Y-113316000D03*
X116179000Y-93885000D03*
X115290000Y-93821500D03*
X114591500Y-93885000D03*
X96240000Y-86455500D03*
X96240000Y-87090500D03*
X94773590Y-87027000D03*
X94208000Y-86455500D03*
X104685500Y-102330500D03*
X105384000Y-101949500D03*
X107289000Y-101632000D03*
X107860500Y-100933500D03*
X103542500Y-101505000D03*
X104177500Y-100933500D03*
X105447500Y-98330000D03*
X108305000Y-97885500D03*
X108305000Y-98711000D03*
X80555500Y-104616500D03*
X79920500Y-99601500D03*
X83222500Y-98520500D03*
X82397000Y-98901500D03*
X114845500Y-107918500D03*
X115988500Y-107093000D03*
X114718500Y-106902500D03*
X114718500Y-105378500D03*
X115798000Y-105315000D03*
X115734500Y-103537000D03*
X114464500Y-102775000D03*
X114845500Y-104108500D03*
X90017000Y-115538500D03*
X90969500Y-115538500D03*
X96938500Y-115538500D03*
X98018000Y-115538500D03*
X79539500Y-104870500D03*
X90425000Y-104930000D03*
X88075000Y-104930000D03*
X86334000Y-105696000D03*
X85762500Y-105061000D03*
X86334000Y-104553000D03*
X90588500Y-109379000D03*
X89572500Y-109315500D03*
X88620000Y-109379000D03*
X87667500Y-109379000D03*
X92176000Y-96806000D03*
X92303000Y-97631500D03*
X93319000Y-96933000D03*
X98843500Y-105251500D03*
X95033500Y-104807000D03*
X96303500Y-104743500D03*
X97383000Y-104743500D03*
X104622000Y-105378500D03*
X103923500Y-104743500D03*
X105193500Y-104680000D03*
X108813000Y-105886500D03*
X107606500Y-105886500D03*
X107543000Y-104743500D03*
X108749500Y-104807000D03*
X104177500Y-98774500D03*
X97891000Y-101441500D03*
X97827500Y-100425500D03*
X96875000Y-100425500D03*
X95795500Y-100425500D03*
X82310000Y-163405000D03*
X88025000Y-163405000D03*
X88025000Y-165945000D03*
X82310000Y-165945000D03*
X76595000Y-165945000D03*
X71515000Y-165945000D03*
X65800000Y-165945000D03*
X65800000Y-169120000D03*
X71515000Y-169120000D03*
X76595000Y-169120000D03*
X82310000Y-169120000D03*
X88025000Y-169120000D03*
X88025000Y-173565000D03*
X82310000Y-173565000D03*
X76595000Y-173565000D03*
X71515000Y-173565000D03*
X65800000Y-173565000D03*
X60085000Y-169120000D03*
X60085000Y-165945000D03*
X57989500Y-157130500D03*
X58180000Y-153880000D03*
X58180000Y-149435000D03*
X58180000Y-146260000D03*
X58180000Y-141180000D03*
X70880000Y-153880000D03*
X67705000Y-150705000D03*
X71515000Y-150070000D03*
X75960000Y-145625000D03*
X70880000Y-145625000D03*
X67070000Y-144355000D03*
X70880000Y-141815000D03*
X75960000Y-141815000D03*
X81040000Y-141815000D03*
X84215000Y-138005000D03*
X80405000Y-136735000D03*
X75325000Y-136735000D03*
X70245000Y-136735000D03*
X66435000Y-136735000D03*
X66435000Y-139910000D03*
X61990000Y-139910000D03*
X59450000Y-138005000D03*
X59450000Y-132925000D03*
X64530000Y-131655000D03*
X70245000Y-131655000D03*
X77865000Y-131655000D03*
X59450000Y-129750000D03*
X65800000Y-129750000D03*
X70880000Y-129750000D03*
X77230000Y-129750000D03*
X82310000Y-129750000D03*
X61228000Y-161754000D03*
X75452000Y-152546500D03*
X77928500Y-150070000D03*
X80341500Y-147784000D03*
X82437000Y-145561500D03*
X85993000Y-142513500D03*
X86691500Y-143466000D03*
X85294500Y-143720000D03*
X91073000Y-143720000D03*
X89866500Y-143720000D03*
X89803000Y-142132500D03*
X89803000Y-140862500D03*
X90438000Y-146133000D03*
X89358500Y-146260000D03*
X87199500Y-146260000D03*
X85421500Y-146323500D03*
X83453000Y-148546000D03*
X81421000Y-150832000D03*
X79071500Y-152991000D03*
X76722000Y-155531000D03*
X74372500Y-157817000D03*
X92533500Y-144418500D03*
X66943000Y-159087000D03*
X66943000Y-158261500D03*
X62625000Y-158642500D03*
X61545500Y-159531500D03*
X61355000Y-157055000D03*
X61482000Y-154642000D03*
X63895000Y-154769000D03*
X85612000Y-153943500D03*
X83453000Y-156229500D03*
X85358000Y-156102500D03*
X87072500Y-156356500D03*
X89485500Y-158071000D03*
X87326500Y-158198000D03*
X85167500Y-158071000D03*
X83135500Y-158007500D03*
X81167000Y-157944000D03*
X79452500Y-159468000D03*
X78055500Y-160166500D03*
X76277500Y-160230000D03*
X72848500Y-160039500D03*
X91848887Y-146387000D03*
X93740000Y-135778590D03*
X92152407Y-135778590D03*
X95708500Y-135778590D03*
X93105000Y-165310000D03*
X93105000Y-169120000D03*
X93105000Y-173565000D03*
X101360000Y-129750000D03*
X96915000Y-129750000D03*
X93740000Y-129750000D03*
X89930000Y-129750000D03*
X94375000Y-131655000D03*
X91200000Y-131655000D03*
X88025000Y-131655000D03*
X84850000Y-131655000D03*
X97232500Y-154832500D03*
X104535000Y-169120000D03*
X103709500Y-170453500D03*
X105360500Y-170644000D03*
X107011500Y-169310500D03*
X109107000Y-166834000D03*
X108345000Y-165627500D03*
X107138500Y-167659500D03*
X104979500Y-167723000D03*
X102947500Y-167723000D03*
X101360000Y-168802500D03*
X104598500Y-162325500D03*
X103709500Y-163278000D03*
X103138000Y-164294000D03*
X101614000Y-164230500D03*
X102693500Y-163532000D03*
X93359000Y-142894500D03*
X93359000Y-141561000D03*
X93422500Y-140545000D03*
X95554091Y-148634290D03*
X97737598Y-146831500D03*
X143079500Y-142386500D03*
X142190500Y-142450000D03*
X142635000Y-143339000D03*
X102947500Y-147276000D03*
X106313000Y-143847000D03*
X105678000Y-144101000D03*
X106376500Y-144609000D03*
X106440000Y-146895000D03*
X106122500Y-147847500D03*
X105678000Y-146958500D03*
X104408000Y-145815500D03*
X122569000Y-142958000D03*
X121616500Y-142958000D03*
X120600500Y-142958000D03*
X119457500Y-142958000D03*
X116790500Y-142958000D03*
X114504500Y-142958000D03*
X112155000Y-143085000D03*
X107202000Y-150387500D03*
X107710000Y-149181000D03*
X107710000Y-147530000D03*
X107710000Y-146006000D03*
X104662000Y-130893000D03*
X105424000Y-130067500D03*
X105233500Y-128797500D03*
X107011500Y-128797500D03*
X109170500Y-128924500D03*
X109297500Y-130321500D03*
X111012000Y-130448500D03*
X110821500Y-128797500D03*
X112853500Y-128797500D03*
X115520500Y-128797500D03*
X118251000Y-128797500D03*
X120410000Y-129432500D03*
X122251500Y-129496000D03*
X124347000Y-129305500D03*
X126315500Y-130004000D03*
X126315500Y-131274000D03*
X128030000Y-129750000D03*
X130570000Y-129750000D03*
X130570000Y-131655000D03*
X97590000Y-154070500D03*
X107329000Y-154578500D03*
X107392500Y-153499000D03*
X104916000Y-153177598D03*
X101550500Y-151784500D03*
X124728000Y-142323000D03*
X107900500Y-144355000D03*
X134380000Y-148165000D03*
X139460000Y-141942000D03*
X140476000Y-142767500D03*
X140476000Y-141688000D03*
X126950500Y-139275000D03*
X127776000Y-138386000D03*
X126125000Y-138576500D03*
X124664500Y-139211500D03*
X123966000Y-138513000D03*
X122505500Y-138322500D03*
X120156000Y-138322500D03*
X136221500Y-138322500D03*
X137110500Y-138957500D03*
X136094500Y-139275000D03*
X137174000Y-140227500D03*
X111393000Y-138386000D03*
X108916500Y-138386000D03*
X107456000Y-138386000D03*
X107710000Y-139084500D03*
X106757500Y-139148000D03*
X113044000Y-138767000D03*
X114250500Y-138767000D03*
X115330000Y-138767000D03*
X116600000Y-138767000D03*
X117870000Y-138767000D03*
X119902000Y-134449000D03*
X118378000Y-134258500D03*
X116663500Y-134258500D03*
X115076000Y-134258500D03*
X113615500Y-134258500D03*
X105995500Y-156039000D03*
X107392500Y-156102500D03*
X107329000Y-157626500D03*
X105170000Y-157690000D03*
X103138000Y-159468000D03*
X100979000Y-158769500D03*
X101360000Y-158071000D03*
X94121000Y-158579000D03*
X95835500Y-160166500D03*
X97867500Y-158960000D03*
X99525000Y-156171000D03*
X98655000Y-156971000D03*
X95581500Y-139973500D03*
X94629000Y-143339000D03*
X118949500Y-140481500D03*
X117235000Y-140545000D03*
X115330000Y-140545000D03*
X113742500Y-140545000D03*
X97002500Y-147897500D03*
X95277500Y-146172500D03*
X108813000Y-102140000D03*
X111797500Y-101759000D03*
X106781000Y-92551500D03*
X117512500Y-101822500D03*
X92811000Y-94520000D03*
X103542500Y-95853500D03*
X92840199Y-92644199D03*
X106400000Y-95996502D03*
X104725500Y-159595000D03*
X92620500Y-105540323D03*
X92620500Y-104787910D03*
X92146801Y-107127301D03*
X92176000Y-106267500D03*
X92747500Y-108553500D03*
X92176000Y-107982000D03*
X81317500Y-104089000D03*
X87952150Y-102743694D03*
X81317500Y-103239000D03*
X87093437Y-102646278D03*
X89540448Y-102935701D03*
X88747665Y-102828401D03*
X91096500Y-103219500D03*
X90296489Y-103218505D03*
X92176810Y-103655880D03*
X91898874Y-102956684D03*
X93103011Y-100678253D03*
X92303000Y-100679500D03*
X87731000Y-97695000D03*
X87350000Y-100679500D03*
X100555002Y-112300000D03*
X91541000Y-109506000D03*
X97192500Y-97822000D03*
X94335000Y-101251000D03*
X85540685Y-96905917D03*
X99034000Y-91660002D03*
X103034500Y-92615000D03*
X85572000Y-100679500D03*
X119227000Y-92170500D03*
X108622500Y-90075000D03*
X101447000Y-89948000D03*
X119798500Y-111538000D03*
X109575000Y-113125500D03*
X94843000Y-109633000D03*
X102717000Y-115538500D03*
X83857500Y-102584500D03*
X80365000Y-114268500D03*
X81190500Y-100679500D03*
X103161500Y-113379500D03*
X93954000Y-110839500D03*
X85889500Y-94774000D03*
X85953000Y-108871000D03*
X84937000Y-87471500D03*
X89763000Y-94012000D03*
X76237500Y-110522000D03*
X86651500Y-109569500D03*
X85635500Y-86715410D03*
X75382801Y-112329199D03*
X94449998Y-94520000D03*
X84772936Y-111180499D03*
X86334000Y-91916500D03*
X84175000Y-110649000D03*
X87350000Y-91027500D03*
X81635000Y-91154500D03*
X80746000Y-97822000D03*
X92684000Y-109506000D03*
X81371010Y-93439491D03*
X81444500Y-97314000D03*
X85826000Y-102648000D03*
X94398500Y-91599000D03*
X120243000Y-93313500D03*
X99806101Y-91989533D03*
X109956000Y-91789500D03*
X94779500Y-110458500D03*
X86842000Y-94774000D03*
X84810000Y-100997000D03*
X93509500Y-91599000D03*
X111289500Y-93123000D03*
X116433000Y-98584000D03*
X119544500Y-110776000D03*
X110210000Y-112427000D03*
X94847969Y-108797714D03*
X86461000Y-96234500D03*
X86503695Y-100659711D03*
X86755000Y-145180500D03*
X64022000Y-160230000D03*
X98629500Y-152763483D03*
X99074000Y-154070500D03*
X101677500Y-156801000D03*
X98629500Y-149816000D03*
X100725000Y-132290000D03*
X92025500Y-148482500D03*
X141120835Y-137706252D03*
X93486000Y-155677500D03*
X141043645Y-136957809D03*
X93486000Y-156527500D03*
X93442861Y-149508490D03*
X92787500Y-148863500D03*
X92597975Y-146705763D03*
X92473888Y-145877786D03*
X91263500Y-142323000D03*
X90184000Y-136290500D03*
X89358500Y-147862410D03*
X124220000Y-143720000D03*
X97312493Y-150640078D03*
X101296500Y-154451500D03*
X123603041Y-142380590D03*
X107075000Y-142323000D03*
X102630000Y-152610000D03*
X110515559Y-144096972D03*
X86755000Y-147530000D03*
X96788000Y-158325000D03*
X91200000Y-149659498D03*
X97931000Y-135426179D03*
X96280000Y-139592500D03*
X133427500Y-141751500D03*
X99455000Y-148863500D03*
X97042000Y-143529500D03*
X98185000Y-143656500D03*
X98820000Y-143085000D03*
X83540000Y-91000000D03*
X83540000Y-93000000D03*
X83540000Y-95000000D03*
X83540000Y-97000000D03*
X94081000Y-88551000D03*
X92081000Y-88551000D03*
X90081000Y-88551000D03*
X88081000Y-88551000D03*
X78079000Y-99601500D03*
X78079000Y-101601500D03*
X78079000Y-103601500D03*
X78079000Y-105601500D03*
X78079000Y-107601500D03*
X78079000Y-109601500D03*
X78079000Y-111601500D03*
X112750000Y-110204500D03*
X112750000Y-108204500D03*
X112750000Y-106204500D03*
X112750000Y-104204500D03*
X112750000Y-99885500D03*
X112750000Y-97885500D03*
X112750000Y-95885500D03*
X112750000Y-93885500D03*
X117893500Y-99885000D03*
X117893500Y-97885000D03*
X117893500Y-95885000D03*
X117893500Y-93885000D03*
X117893500Y-110204500D03*
X117893500Y-108204500D03*
X117893500Y-106204500D03*
X117893500Y-104204500D03*
X59920000Y-142500000D03*
X59920000Y-145040000D03*
X59920000Y-147580000D03*
X59920000Y-150120000D03*
X59920000Y-152660000D03*
X59920000Y-155200000D03*
X59920000Y-157740000D03*
X59920000Y-160280000D03*
X59920000Y-162820000D03*
D47*
X62670000Y-170460000D03*
X62670000Y-134860000D03*
D46*
X61860000Y-131560000D03*
X61860000Y-173760000D03*
X128030000Y-134195000D03*
X128030000Y-131695000D03*
X89930000Y-138640000D03*
X92470000Y-138640000D03*
X95010000Y-138640000D03*
X97550000Y-138640000D03*
X100090000Y-138640000D03*
X102630000Y-138640000D03*
X95360000Y-171025000D03*
X97360000Y-171025000D03*
X99360000Y-171025000D03*
X101360000Y-171025000D03*
X142635000Y-160230000D03*
X145175000Y-160230000D03*
X142635000Y-157690000D03*
X145175000Y-157690000D03*
X142635000Y-155150000D03*
X145175000Y-155150000D03*
X142635000Y-152610000D03*
X145175000Y-152610000D03*
X142635000Y-150070000D03*
X145175000Y-150070000D03*
X142635000Y-147530000D03*
X145175000Y-147530000D03*
X142635000Y-144990000D03*
X145175000Y-144990000D03*
X106440000Y-162770000D03*
X98820000Y-165310000D03*
X93740000Y-162770000D03*
M02*
