M48
;DRILL file {KiCad 4.0.7} date 
;FORMAT={3:3/ absolute / metric / suppress trailing zeros}
FMAT,2
METRIC,LZ
T1C0.400
T2C0.700
T3C0.750
T4C0.762
T5C0.900
T6C1.000
%
G90
G05
M71
T1
X05799Y-157131
X05818Y-14118
X05818Y-14626
X05818Y-149435
X05818Y-15388
X05945Y-12975
X05945Y-132925
X05945Y-138005
X060085Y-165945
X060085Y-16912
X061228Y-161754
X061355Y-157055
X061482Y-154642
X061545Y-159532
X06199Y-13991
X062625Y-158642
X063895Y-154769
X064022Y-16023
X06453Y-131655
X0658Y-12975
X0658Y-165945
X0658Y-16912
X0658Y-173565
X066435Y-136735
X066435Y-13991
X066943Y-158261
X066943Y-159087
X06707Y-144355
X067705Y-150705
X070245Y-131655
X070245Y-136735
X07088Y-12975
X07088Y-141815
X07088Y-145625
X07088Y-15388
X071515Y-15007
X071515Y-165945
X071515Y-16912
X071515Y-173565
X072849Y-16004
X074373Y-157817
X075325Y-136735
X075383Y-112329
X075452Y-152546
X07596Y-141815
X07596Y-145625
X076238Y-110522
X076278Y-16023
X076595Y-165945
X076595Y-16912
X076595Y-173565
X076722Y-155531
X07723Y-12975
X077865Y-131655
X077929Y-15007
X078056Y-160167
X079072Y-152991
X079453Y-159468
X079539Y-104871
X079921Y-099602
X080342Y-147784
X080365Y-114268
X080405Y-136735
X080556Y-104617
X080746Y-097822
X08104Y-141815
X081167Y-157944
X081191Y-100679
X081318Y-103239
X081318Y-104089
X081371Y-093439
X081421Y-150832
X081444Y-097314
X081635Y-091154
X08231Y-12975
X08231Y-163405
X08231Y-165945
X08231Y-16912
X08231Y-173565
X082397Y-098902
X082437Y-145562
X0826Y-0981
X083136Y-158007
X083223Y-098521
X083453Y-148546
X083453Y-15623
X083858Y-102584
X084175Y-110649
X0842Y-098
X084215Y-138005
X084239Y-113316
X084773Y-11118
X08481Y-100997
X08485Y-131655
X084937Y-087472
X085168Y-158071
X085294Y-14372
X085358Y-156102
X085422Y-146324
X085541Y-096906
X085572Y-100679
X085612Y-153944
X085636Y-086715
X085763Y-105061
X085826Y-102648
X08589Y-094774
X085953Y-108871
X085993Y-142514
X086334Y-091917
X086334Y-104553
X086334Y-105696
X086461Y-096235
X086504Y-10066
X086652Y-109569
X086692Y-143466
X086755Y-145181
X086755Y-14753
X086842Y-094774
X087073Y-156356
X087093Y-102646
X0872Y-14626
X087327Y-158198
X08735Y-091027
X08735Y-100679
X087668Y-109379
X087731Y-097695
X087952Y-102744
X088025Y-131655
X088025Y-163405
X088025Y-165945
X088025Y-16912
X088025Y-173565
X088075Y-10493
X08862Y-109379
X088748Y-102828
X089358Y-14626
X089358Y-147862
X089486Y-158071
X08954Y-102936
X089573Y-109316
X089763Y-094012
X089803Y-140862
X089803Y-142132
X089867Y-14372
X08993Y-12975
X090017Y-115539
X090184Y-13629
X090296Y-103219
X090425Y-10493
X090438Y-146133
X090589Y-109379
X090969Y-115539
X091073Y-14372
X091097Y-103219
X0912Y-131655
X0912Y-149659
X091264Y-142323
X091541Y-109506
X091849Y-146387
X091899Y-102957
X092026Y-148482
X092147Y-107127
X092152Y-135779
X092176Y-096806
X092176Y-106268
X092176Y-107982
X092177Y-103656
X092303Y-097632
X092303Y-100679
X092474Y-145878
X092533Y-144419
X092598Y-146706
X092621Y-104788
X092621Y-10554
X092684Y-109506
X092748Y-108554
X092788Y-148864
X092811Y-09452
X09284Y-092644
X093103Y-100678
X093105Y-16531
X093105Y-16912
X093105Y-173565
X093319Y-096933
X093359Y-141561
X093359Y-142895
X093423Y-140545
X093443Y-149508
X093486Y-155677
X093486Y-156528
X09351Y-091599
X09374Y-12975
X09374Y-135779
X093954Y-11084
X094121Y-158579
X094208Y-086456
X094335Y-101251
X094375Y-131655
X094399Y-091599
X09445Y-09452
X094629Y-143339
X094774Y-087027
X094779Y-110459
X094843Y-109633
X094848Y-108798
X095033Y-104807
X095277Y-146173
X095554Y-148634
X095582Y-139974
X095709Y-135779
X095796Y-100426
X095836Y-160167
X09624Y-086456
X09624Y-087091
X09628Y-139593
X096304Y-104743
X096788Y-158325
X096875Y-100426
X096915Y-12975
X096938Y-115539
X097003Y-147898
X097042Y-14353
X097193Y-097822
X097233Y-154832
X097312Y-15064
X097383Y-104743
X09759Y-154071
X097637Y-086328
X097738Y-146832
X097828Y-100426
X097868Y-15896
X097891Y-101442
X097931Y-135426
X098018Y-115539
X098185Y-143657
X098629Y-149816
X098629Y-152763
X098655Y-156971
X09882Y-143085
X098843Y-105251
X098907Y-086964
X099034Y-09166
X099074Y-154071
X099455Y-148864
X099479Y-095981
X099525Y-156171
X099806Y-09199
X100177Y-086328
X100555Y-1123
X100685Y-113253
X100725Y-13229
X100979Y-15877
X101297Y-154451
X10136Y-12975
X10136Y-158071
X10136Y-168803
X101447Y-086964
X101447Y-089948
X101551Y-151784
X101614Y-164231
X101678Y-156801
X102082Y-113316
X102463Y-099918
X10263Y-15261
X102653Y-114396
X102693Y-163532
X102717Y-086328
X102717Y-115539
X102948Y-147276
X102948Y-167723
X103035Y-092615
X103138Y-159468
X103138Y-164294
X103161Y-113379
X103352Y-086964
X103543Y-095854
X103543Y-101505
X103709Y-163278
X103709Y-170454
X103923Y-104743
X104051Y-114713
X104177Y-098774
X104177Y-100933
X104241Y-107538
X104408Y-145815
X104535Y-16912
X104599Y-162326
X104622Y-105378
X104662Y-130893
X104686Y-102331
X104726Y-159595
X104916Y-153178
X10498Y-167723
X105003Y-107665
X10517Y-15769
X105193Y-10468
X105234Y-128798
X105361Y-170644
X105384Y-10195
X105424Y-130068
X105448Y-09833
X105678Y-144101
X105678Y-146959
X105996Y-156039
X106123Y-147848
X106313Y-143847
X106376Y-144609
X1064Y-095997
X10644Y-146895
X106757Y-139148
X106781Y-092551
X107012Y-128798
X107012Y-169311
X107075Y-142323
X107139Y-167659
X107202Y-150388
X107289Y-101632
X107329Y-154579
X107329Y-157626
X107393Y-153499
X107393Y-156102
X107456Y-138386
X107543Y-104743
X107543Y-110205
X107607Y-105887
X10771Y-139084
X10771Y-146006
X10771Y-14753
X10771Y-149181
X107797Y-109062
X107861Y-100933
X107901Y-144355
X108305Y-097886
X108305Y-098711
X108345Y-165628
X108432Y-109633
X108623Y-090075
X108749Y-104807
X108813Y-10214
X108813Y-105887
X108917Y-138386
X109107Y-166834
X109171Y-128924
X109298Y-130322
X109575Y-113126
X109956Y-091789
X11021Y-112427
X110516Y-144097
X110822Y-128798
X111012Y-130448
X11129Y-093123
X111393Y-138386
X111607Y-105188
X111798Y-101759
X112155Y-143085
X112853Y-128798
X113044Y-138767
X113616Y-134259
X113743Y-140545
X114251Y-138767
X114465Y-102775
X114504Y-142958
X114592Y-093885
X114718Y-105378
X114718Y-106902
X114846Y-104109
X114846Y-107918
X115076Y-134259
X11529Y-093822
X11533Y-138767
X11533Y-140545
X115521Y-128798
X115735Y-103537
X115798Y-105315
X115988Y-107093
X116179Y-093885
X116433Y-098584
X1166Y-138767
X116664Y-134259
X116791Y-142958
X117235Y-140545
X117513Y-101823
X11787Y-138767
X118251Y-128798
X118378Y-134259
X118949Y-140481
X119227Y-092171
X119458Y-142958
X119544Y-110776
X119798Y-111538
X119902Y-134449
X120156Y-138323
X120243Y-093313
X12041Y-129433
X120601Y-142958
X121617Y-142958
X122251Y-129496
X122506Y-138323
X122569Y-142958
X123603Y-142381
X123966Y-138513
X12422Y-14372
X124347Y-129306
X124665Y-139212
X124728Y-142323
X126125Y-138576
X126316Y-130004
X126316Y-131274
X126951Y-139275
X127776Y-138386
X12803Y-12975
X13057Y-12975
X13057Y-131655
X133427Y-141751
X13438Y-148165
X136094Y-139275
X136222Y-138323
X137111Y-138957
X137174Y-140227
X13946Y-141942
X140476Y-141688
X140476Y-142767
X141044Y-136958
X141121Y-137706
X14219Y-14245
X142635Y-143339
X14308Y-142386
T3
X078079Y-099602
X078079Y-101602
X078079Y-103602
X078079Y-105602
X078079Y-107602
X078079Y-109602
X078079Y-111602
X08354Y-091
X08354Y-093
X08354Y-095
X08354Y-097
X088081Y-088551
X090081Y-088551
X092081Y-088551
X094081Y-088551
X09536Y-171025
X09736Y-171025
X09936Y-171025
X10136Y-171025
X11275Y-093886
X11275Y-095886
X11275Y-097886
X11275Y-099886
X11275Y-104205
X11275Y-106205
X11275Y-108205
X11275Y-110205
X117893Y-093885
X117893Y-095885
X117893Y-097885
X117893Y-099885
X117893Y-104205
X117893Y-106205
X117893Y-108205
X117893Y-110205
T4
X05992Y-1425
X05992Y-14504
X05992Y-14758
X05992Y-15012
X05992Y-15266
X05992Y-1552
X05992Y-15774
X05992Y-16028
X05992Y-16282
T5
X12803Y-131695
X12803Y-134195
T6
X08993Y-13864
X09247Y-13864
X09374Y-16277
X09501Y-13864
X09755Y-13864
X09882Y-16531
X10009Y-13864
X10263Y-13864
X10644Y-16277
X142635Y-14499
X142635Y-14753
X142635Y-15007
X142635Y-15261
X142635Y-15515
X142635Y-15769
X142635Y-16023
X145175Y-14499
X145175Y-14753
X145175Y-15007
X145175Y-15261
X145175Y-15515
X145175Y-15769
X145175Y-16023
T2
X06267Y-13411G85X06267Y-13561
G05
X06267Y-16971G85X06267Y-17121
G05
T0
M30
