G04 #@! TF.FileFunction,Other,User*
%FSLAX46Y46*%
G04 Gerber Fmt 4.6, Leading zero omitted, Abs format (unit mm)*
G04 Created by KiCad (PCBNEW 4.0.7) date *
%MOMM*%
%LPD*%
G01*
G04 APERTURE LIST*
%ADD10C,0.100000*%
G04 APERTURE END LIST*
D10*
X75230000Y-114070000D02*
X78730000Y-114070000D01*
X78730000Y-97170000D02*
X75230000Y-97170000D01*
X74730000Y-113570000D02*
X75230000Y-114070000D01*
X82730000Y-87070000D02*
G75*
G03X82730000Y-87070000I-1000000J0D01*
G01*
X121230000Y-112070000D02*
X121230000Y-92070000D01*
X107730000Y-87070000D02*
G75*
G03X107730000Y-87070000I-1000000J0D01*
G01*
X78730000Y-114070000D02*
G75*
G02X79730000Y-115070000I0J-1000000D01*
G01*
X79730000Y-96170000D02*
G75*
G02X78730000Y-97170000I-1000000J0D01*
G01*
X108730000Y-88155786D02*
X108730000Y-87070000D01*
X107730000Y-117070000D02*
G75*
G03X107730000Y-117070000I-1000000J0D01*
G01*
X108730000Y-117070000D02*
G75*
G02X106730000Y-119070000I-2000000J0D01*
G01*
X108730000Y-117070000D02*
X108730000Y-115984214D01*
X81730000Y-119070000D02*
X106730000Y-119070000D01*
X74730000Y-97670000D02*
X75230000Y-97170000D01*
X109022893Y-115277107D02*
X111437107Y-112862893D01*
X111437107Y-112862893D02*
G75*
G02X112144214Y-112570000I707107J-707107D01*
G01*
X120730000Y-112570000D02*
X121230000Y-112070000D01*
X112144214Y-112570000D02*
X120730000Y-112570000D01*
X109022893Y-88862893D02*
G75*
G02X108730000Y-88155786I707107J707107D01*
G01*
X81730000Y-119070000D02*
G75*
G02X79730000Y-117070000I0J2000000D01*
G01*
X108730000Y-115984214D02*
G75*
G02X109022893Y-115277107I1000000J0D01*
G01*
X111437107Y-91277107D02*
X109022893Y-88862893D01*
X74730000Y-97670000D02*
X74730000Y-113570000D01*
X82730000Y-117070000D02*
G75*
G03X82730000Y-117070000I-1000000J0D01*
G01*
X106730000Y-85070000D02*
X81730000Y-85070000D01*
X79730000Y-87070000D02*
X79730000Y-96170000D01*
X79730000Y-87070000D02*
G75*
G02X81730000Y-85070000I2000000J0D01*
G01*
X121230000Y-92070000D02*
X120730000Y-91570000D01*
X120730000Y-91570000D02*
X112144214Y-91570000D01*
X112144214Y-91570000D02*
G75*
G02X111437107Y-91277107I0J1000000D01*
G01*
X79730000Y-115070000D02*
X79730000Y-117070000D01*
X106730000Y-85070000D02*
G75*
G02X108730000Y-87070000I0J-2000000D01*
G01*
X55745000Y-135654999D02*
G75*
G02X56745000Y-136654999I0J-1000000D01*
G01*
X56745000Y-136654999D02*
X56745000Y-168655000D01*
X129208167Y-177655000D02*
X133745000Y-177655000D01*
X150245000Y-165455000D02*
G75*
G02X149431405Y-167065107I-2000000J0D01*
G01*
X149431405Y-138244894D02*
X136117810Y-128434788D01*
X54745000Y-135654999D02*
G75*
G02X54745000Y-127655001I0J3999999D01*
G01*
X111338167Y-177155000D02*
X111338167Y-147297804D01*
X128208167Y-146797804D02*
G75*
G02X128708167Y-147297804I0J-500000D01*
G01*
X56245000Y-131655000D02*
G75*
G03X56245000Y-131655000I-1500000J0D01*
G01*
X128708167Y-177155000D02*
X129208167Y-177655000D01*
X136117810Y-176875213D02*
G75*
G02X133745000Y-177655000I-2372810J3220213D01*
G01*
X136117811Y-176875213D02*
X149431405Y-167065107D01*
X150245000Y-165455000D02*
X150245000Y-139855000D01*
X149431405Y-138244893D02*
G75*
G02X150245000Y-139855000I-1186405J-1610107D01*
G01*
X133745001Y-127655001D02*
G75*
G02X136117810Y-128434788I-1J-3999999D01*
G01*
X133745000Y-127655001D02*
X54745000Y-127655001D01*
X54745000Y-135654999D02*
X55745000Y-135654999D01*
X56745000Y-168655000D02*
G75*
G02X55745000Y-169655000I-1000000J0D01*
G01*
X55745000Y-169655000D02*
X54745000Y-169655000D01*
X54745000Y-177655000D02*
G75*
G02X54745000Y-169655000I0J4000000D01*
G01*
X54745000Y-177655000D02*
X110838167Y-177655000D01*
X110838167Y-177655000D02*
X111338167Y-177155000D01*
X111338167Y-147297804D02*
G75*
G02X111838167Y-146797804I500000J0D01*
G01*
X111838167Y-146797804D02*
X128208167Y-146797804D01*
X128708167Y-147297804D02*
X128708167Y-177155000D01*
X56245000Y-173655000D02*
G75*
G03X56245000Y-173655000I-1500000J0D01*
G01*
X135245000Y-173655000D02*
G75*
G03X135245000Y-173655000I-1500000J0D01*
G01*
X135245000Y-131655000D02*
G75*
G03X135245000Y-131655000I-1500000J0D01*
G01*
M02*
