G04 #@! TF.FileFunction,Profile,NP*
%FSLAX46Y46*%
G04 Gerber Fmt 4.6, Leading zero omitted, Abs format (unit mm)*
G04 Created by KiCad (PCBNEW 4.0.7) date *
%MOMM*%
%LPD*%
G01*
G04 APERTURE LIST*
%ADD10C,0.100000*%
%ADD11C,0.300000*%
%ADD12C,0.150000*%
%ADD13C,0.120000*%
G04 APERTURE END LIST*
D10*
D11*
X88175357Y-95929000D02*
X88318214Y-95857571D01*
X88532500Y-95857571D01*
X88746785Y-95929000D01*
X88889643Y-96071857D01*
X88961071Y-96214714D01*
X89032500Y-96500429D01*
X89032500Y-96714714D01*
X88961071Y-97000429D01*
X88889643Y-97143286D01*
X88746785Y-97286143D01*
X88532500Y-97357571D01*
X88389643Y-97357571D01*
X88175357Y-97286143D01*
X88103928Y-97214714D01*
X88103928Y-96714714D01*
X88389643Y-96714714D01*
X87461071Y-97357571D02*
X87461071Y-95857571D01*
X86603928Y-97357571D01*
X86603928Y-95857571D01*
X85889642Y-97357571D02*
X85889642Y-95857571D01*
X85532499Y-95857571D01*
X85318214Y-95929000D01*
X85175356Y-96071857D01*
X85103928Y-96214714D01*
X85032499Y-96500429D01*
X85032499Y-96714714D01*
X85103928Y-97000429D01*
X85175356Y-97143286D01*
X85318214Y-97286143D01*
X85532499Y-97357571D01*
X85889642Y-97357571D01*
X94251643Y-90114929D02*
X94251643Y-91257786D01*
X94823071Y-90686357D02*
X93680214Y-90686357D01*
X93323071Y-92686358D02*
X93323071Y-91972072D01*
X94037357Y-91900643D01*
X93965929Y-91972072D01*
X93894500Y-92114929D01*
X93894500Y-92472072D01*
X93965929Y-92614929D01*
X94037357Y-92686358D01*
X94180214Y-92757786D01*
X94537357Y-92757786D01*
X94680214Y-92686358D01*
X94751643Y-92614929D01*
X94823071Y-92472072D01*
X94823071Y-92114929D01*
X94751643Y-91972072D01*
X94680214Y-91900643D01*
X93323071Y-93186357D02*
X94823071Y-93686357D01*
X93323071Y-94186357D01*
X111376571Y-110438643D02*
X110233714Y-110438643D01*
X110805143Y-111010071D02*
X110805143Y-109867214D01*
X108805142Y-109510071D02*
X109519428Y-109510071D01*
X109590857Y-110224357D01*
X109519428Y-110152929D01*
X109376571Y-110081500D01*
X109019428Y-110081500D01*
X108876571Y-110152929D01*
X108805142Y-110224357D01*
X108733714Y-110367214D01*
X108733714Y-110724357D01*
X108805142Y-110867214D01*
X108876571Y-110938643D01*
X109019428Y-111010071D01*
X109376571Y-111010071D01*
X109519428Y-110938643D01*
X109590857Y-110867214D01*
X108305143Y-109510071D02*
X107805143Y-111010071D01*
X107305143Y-109510071D01*
X111150428Y-108978071D02*
X111150428Y-107478071D01*
X110793285Y-107478071D01*
X110579000Y-107549500D01*
X110436142Y-107692357D01*
X110364714Y-107835214D01*
X110293285Y-108120929D01*
X110293285Y-108335214D01*
X110364714Y-108620929D01*
X110436142Y-108763786D01*
X110579000Y-108906643D01*
X110793285Y-108978071D01*
X111150428Y-108978071D01*
X109650428Y-108406643D02*
X108507571Y-108406643D01*
X111213928Y-106946071D02*
X111213928Y-105446071D01*
X110856785Y-105446071D01*
X110642500Y-105517500D01*
X110499642Y-105660357D01*
X110428214Y-105803214D01*
X110356785Y-106088929D01*
X110356785Y-106303214D01*
X110428214Y-106588929D01*
X110499642Y-106731786D01*
X110642500Y-106874643D01*
X110856785Y-106946071D01*
X111213928Y-106946071D01*
X109713928Y-106374643D02*
X108571071Y-106374643D01*
X109142500Y-106946071D02*
X109142500Y-105803214D01*
X110527357Y-103549000D02*
X110670214Y-103477571D01*
X110884500Y-103477571D01*
X111098785Y-103549000D01*
X111241643Y-103691857D01*
X111313071Y-103834714D01*
X111384500Y-104120429D01*
X111384500Y-104334714D01*
X111313071Y-104620429D01*
X111241643Y-104763286D01*
X111098785Y-104906143D01*
X110884500Y-104977571D01*
X110741643Y-104977571D01*
X110527357Y-104906143D01*
X110455928Y-104834714D01*
X110455928Y-104334714D01*
X110741643Y-104334714D01*
X109813071Y-104977571D02*
X109813071Y-103477571D01*
X108955928Y-104977571D01*
X108955928Y-103477571D01*
X108241642Y-104977571D02*
X108241642Y-103477571D01*
X107884499Y-103477571D01*
X107670214Y-103549000D01*
X107527356Y-103691857D01*
X107455928Y-103834714D01*
X107384499Y-104120429D01*
X107384499Y-104334714D01*
X107455928Y-104620429D01*
X107527356Y-104763286D01*
X107670214Y-104906143D01*
X107884499Y-104977571D01*
X108241642Y-104977571D01*
X83563571Y-111835643D02*
X82420714Y-111835643D01*
X82992143Y-112407071D02*
X82992143Y-111264214D01*
X80992142Y-110907071D02*
X81706428Y-110907071D01*
X81777857Y-111621357D01*
X81706428Y-111549929D01*
X81563571Y-111478500D01*
X81206428Y-111478500D01*
X81063571Y-111549929D01*
X80992142Y-111621357D01*
X80920714Y-111764214D01*
X80920714Y-112121357D01*
X80992142Y-112264214D01*
X81063571Y-112335643D01*
X81206428Y-112407071D01*
X81563571Y-112407071D01*
X81706428Y-112335643D01*
X81777857Y-112264214D01*
X80492143Y-110907071D02*
X79992143Y-112407071D01*
X79492143Y-110907071D01*
X84424714Y-108684571D02*
X83924714Y-110184571D01*
X83424714Y-108684571D01*
X82424714Y-109398857D02*
X82210428Y-109470286D01*
X82139000Y-109541714D01*
X82067571Y-109684571D01*
X82067571Y-109898857D01*
X82139000Y-110041714D01*
X82210428Y-110113143D01*
X82353286Y-110184571D01*
X82924714Y-110184571D01*
X82924714Y-108684571D01*
X82424714Y-108684571D01*
X82281857Y-108756000D01*
X82210428Y-108827429D01*
X82139000Y-108970286D01*
X82139000Y-109113143D01*
X82210428Y-109256000D01*
X82281857Y-109327429D01*
X82424714Y-109398857D01*
X82924714Y-109398857D01*
X80781857Y-109184571D02*
X80781857Y-110184571D01*
X81424714Y-109184571D02*
X81424714Y-109970286D01*
X81353286Y-110113143D01*
X81210428Y-110184571D01*
X80996143Y-110184571D01*
X80853286Y-110113143D01*
X80781857Y-110041714D01*
X80139000Y-110113143D02*
X79996143Y-110184571D01*
X79710428Y-110184571D01*
X79567571Y-110113143D01*
X79496143Y-109970286D01*
X79496143Y-109898857D01*
X79567571Y-109756000D01*
X79710428Y-109684571D01*
X79924714Y-109684571D01*
X80067571Y-109613143D01*
X80139000Y-109470286D01*
X80139000Y-109398857D01*
X80067571Y-109256000D01*
X79924714Y-109184571D01*
X79710428Y-109184571D01*
X79567571Y-109256000D01*
X86916929Y-108216071D02*
X86916929Y-106716071D01*
X86916929Y-107430357D02*
X86059786Y-107430357D01*
X86059786Y-108216071D02*
X86059786Y-106716071D01*
X85131214Y-108216071D02*
X85274072Y-108144643D01*
X85345500Y-108073214D01*
X85416929Y-107930357D01*
X85416929Y-107501786D01*
X85345500Y-107358929D01*
X85274072Y-107287500D01*
X85131214Y-107216071D01*
X84916929Y-107216071D01*
X84774072Y-107287500D01*
X84702643Y-107358929D01*
X84631214Y-107501786D01*
X84631214Y-107930357D01*
X84702643Y-108073214D01*
X84774072Y-108144643D01*
X84916929Y-108216071D01*
X85131214Y-108216071D01*
X84059786Y-108144643D02*
X83916929Y-108216071D01*
X83631214Y-108216071D01*
X83488357Y-108144643D01*
X83416929Y-108001786D01*
X83416929Y-107930357D01*
X83488357Y-107787500D01*
X83631214Y-107716071D01*
X83845500Y-107716071D01*
X83988357Y-107644643D01*
X84059786Y-107501786D01*
X84059786Y-107430357D01*
X83988357Y-107287500D01*
X83845500Y-107216071D01*
X83631214Y-107216071D01*
X83488357Y-107287500D01*
X82988357Y-107216071D02*
X82416928Y-107216071D01*
X82774071Y-106716071D02*
X82774071Y-108001786D01*
X82702643Y-108144643D01*
X82559785Y-108216071D01*
X82416928Y-108216071D01*
X81916928Y-108216071D02*
X81916928Y-106716071D01*
X81559785Y-106716071D01*
X81345500Y-106787500D01*
X81202642Y-106930357D01*
X81131214Y-107073214D01*
X81059785Y-107358929D01*
X81059785Y-107573214D01*
X81131214Y-107858929D01*
X81202642Y-108001786D01*
X81345500Y-108144643D01*
X81559785Y-108216071D01*
X81916928Y-108216071D01*
X80416928Y-107644643D02*
X79274071Y-107644643D01*
X86980429Y-106311071D02*
X86980429Y-104811071D01*
X86980429Y-105525357D02*
X86123286Y-105525357D01*
X86123286Y-106311071D02*
X86123286Y-104811071D01*
X85194714Y-106311071D02*
X85337572Y-106239643D01*
X85409000Y-106168214D01*
X85480429Y-106025357D01*
X85480429Y-105596786D01*
X85409000Y-105453929D01*
X85337572Y-105382500D01*
X85194714Y-105311071D01*
X84980429Y-105311071D01*
X84837572Y-105382500D01*
X84766143Y-105453929D01*
X84694714Y-105596786D01*
X84694714Y-106025357D01*
X84766143Y-106168214D01*
X84837572Y-106239643D01*
X84980429Y-106311071D01*
X85194714Y-106311071D01*
X84123286Y-106239643D02*
X83980429Y-106311071D01*
X83694714Y-106311071D01*
X83551857Y-106239643D01*
X83480429Y-106096786D01*
X83480429Y-106025357D01*
X83551857Y-105882500D01*
X83694714Y-105811071D01*
X83909000Y-105811071D01*
X84051857Y-105739643D01*
X84123286Y-105596786D01*
X84123286Y-105525357D01*
X84051857Y-105382500D01*
X83909000Y-105311071D01*
X83694714Y-105311071D01*
X83551857Y-105382500D01*
X83051857Y-105311071D02*
X82480428Y-105311071D01*
X82837571Y-104811071D02*
X82837571Y-106096786D01*
X82766143Y-106239643D01*
X82623285Y-106311071D01*
X82480428Y-106311071D01*
X81980428Y-106311071D02*
X81980428Y-104811071D01*
X81623285Y-104811071D01*
X81409000Y-104882500D01*
X81266142Y-105025357D01*
X81194714Y-105168214D01*
X81123285Y-105453929D01*
X81123285Y-105668214D01*
X81194714Y-105953929D01*
X81266142Y-106096786D01*
X81409000Y-106239643D01*
X81623285Y-106311071D01*
X81980428Y-106311071D01*
X80480428Y-105739643D02*
X79337571Y-105739643D01*
X79909000Y-106311071D02*
X79909000Y-105168214D01*
X86035929Y-104279071D02*
X86035929Y-102779071D01*
X85321643Y-104279071D02*
X85321643Y-102779071D01*
X84821643Y-103850500D01*
X84321643Y-102779071D01*
X84321643Y-104279071D01*
X83607357Y-102779071D02*
X83607357Y-103993357D01*
X83535929Y-104136214D01*
X83464500Y-104207643D01*
X83321643Y-104279071D01*
X83035929Y-104279071D01*
X82893071Y-104207643D01*
X82821643Y-104136214D01*
X82750214Y-103993357D01*
X82750214Y-102779071D01*
X82035928Y-104279071D02*
X82035928Y-102779071D01*
X81678785Y-102779071D01*
X81464500Y-102850500D01*
X81321642Y-102993357D01*
X81250214Y-103136214D01*
X81178785Y-103421929D01*
X81178785Y-103636214D01*
X81250214Y-103921929D01*
X81321642Y-104064786D01*
X81464500Y-104207643D01*
X81678785Y-104279071D01*
X82035928Y-104279071D01*
X80535928Y-103707643D02*
X79393071Y-103707643D01*
X86035929Y-102247071D02*
X86035929Y-100747071D01*
X85321643Y-102247071D02*
X85321643Y-100747071D01*
X84821643Y-101818500D01*
X84321643Y-100747071D01*
X84321643Y-102247071D01*
X83607357Y-100747071D02*
X83607357Y-101961357D01*
X83535929Y-102104214D01*
X83464500Y-102175643D01*
X83321643Y-102247071D01*
X83035929Y-102247071D01*
X82893071Y-102175643D01*
X82821643Y-102104214D01*
X82750214Y-101961357D01*
X82750214Y-100747071D01*
X82035928Y-102247071D02*
X82035928Y-100747071D01*
X81678785Y-100747071D01*
X81464500Y-100818500D01*
X81321642Y-100961357D01*
X81250214Y-101104214D01*
X81178785Y-101389929D01*
X81178785Y-101604214D01*
X81250214Y-101889929D01*
X81321642Y-102032786D01*
X81464500Y-102175643D01*
X81678785Y-102247071D01*
X82035928Y-102247071D01*
X80535928Y-101675643D02*
X79393071Y-101675643D01*
X79964500Y-102247071D02*
X79964500Y-101104214D01*
X82587357Y-98913500D02*
X82730214Y-98842071D01*
X82944500Y-98842071D01*
X83158785Y-98913500D01*
X83301643Y-99056357D01*
X83373071Y-99199214D01*
X83444500Y-99484929D01*
X83444500Y-99699214D01*
X83373071Y-99984929D01*
X83301643Y-100127786D01*
X83158785Y-100270643D01*
X82944500Y-100342071D01*
X82801643Y-100342071D01*
X82587357Y-100270643D01*
X82515928Y-100199214D01*
X82515928Y-99699214D01*
X82801643Y-99699214D01*
X81873071Y-100342071D02*
X81873071Y-98842071D01*
X81015928Y-100342071D01*
X81015928Y-98842071D01*
X80301642Y-100342071D02*
X80301642Y-98842071D01*
X79944499Y-98842071D01*
X79730214Y-98913500D01*
X79587356Y-99056357D01*
X79515928Y-99199214D01*
X79444499Y-99484929D01*
X79444499Y-99699214D01*
X79515928Y-99984929D01*
X79587356Y-100127786D01*
X79730214Y-100270643D01*
X79944499Y-100342071D01*
X80301642Y-100342071D01*
X129998572Y-134302143D02*
X131141429Y-134302143D01*
X130570000Y-134873571D02*
X130570000Y-133730714D01*
X129998572Y-130492143D02*
X131141429Y-130492143D01*
D10*
X131776000Y-156865003D02*
X136855999Y-156865003D01*
X134316000Y-169565004D02*
X134316000Y-144165003D01*
D12*
X93515000Y-144410000D02*
X93515000Y-144935000D01*
X98765000Y-149660000D02*
X98765000Y-149135000D01*
X93515000Y-149660000D02*
X93515000Y-149135000D01*
X98765000Y-144410000D02*
X98240000Y-144410000D01*
X98765000Y-149660000D02*
X98240000Y-149660000D01*
X93515000Y-149660000D02*
X94040000Y-149660000D01*
X93515000Y-144410000D02*
X94040000Y-144410000D01*
D13*
X131710000Y-169090000D02*
X131710000Y-169620000D01*
X131710000Y-169620000D02*
X136910000Y-169620000D01*
X136910000Y-169620000D02*
X136910000Y-169090000D01*
X131710000Y-144630000D02*
X131710000Y-144100000D01*
X131710000Y-144100000D02*
X136910000Y-144100000D01*
X136910000Y-144100000D02*
X136910000Y-144630000D01*
X138330000Y-169090000D02*
X136910000Y-169090000D01*
X93505000Y-152257500D02*
X94205000Y-152257500D01*
X94205000Y-151057500D02*
X93505000Y-151057500D01*
X95180000Y-141399000D02*
X95880000Y-141399000D01*
X95880000Y-140199000D02*
X95180000Y-140199000D01*
X103230000Y-157925000D02*
X103230000Y-157225000D01*
X102030000Y-157225000D02*
X102030000Y-157925000D01*
X125705000Y-132060000D02*
X125705000Y-133060000D01*
X124005000Y-133060000D02*
X124005000Y-132060000D01*
X100690000Y-151055000D02*
X100690000Y-150355000D01*
X99490000Y-150355000D02*
X99490000Y-151055000D01*
X95880000Y-141850000D02*
X95180000Y-141850000D01*
X95180000Y-143050000D02*
X95880000Y-143050000D01*
X107925000Y-130790000D02*
X107925000Y-131790000D01*
X106225000Y-131790000D02*
X106225000Y-130790000D01*
X131805000Y-138240000D02*
X131805000Y-137540000D01*
X130605000Y-137540000D02*
X130605000Y-138240000D01*
X97380000Y-151057500D02*
X96680000Y-151057500D01*
X96680000Y-152257500D02*
X97380000Y-152257500D01*
X104393579Y-145271447D02*
X104888553Y-145766421D01*
X105737081Y-144917893D02*
X105242107Y-144422919D01*
X105451447Y-150002081D02*
X105946421Y-149507107D01*
X105097893Y-148658579D02*
X104602919Y-149153553D01*
X66670000Y-153510000D02*
X65970000Y-153510000D01*
X65970000Y-154710000D02*
X66670000Y-154710000D01*
X95991000Y-158599500D02*
X95991000Y-157899500D01*
X94791000Y-157899500D02*
X94791000Y-158599500D01*
X100895000Y-160576000D02*
X101595000Y-160576000D01*
X101595000Y-159376000D02*
X100895000Y-159376000D01*
X63025000Y-145590000D02*
X63725000Y-145590000D01*
X63725000Y-144390000D02*
X63025000Y-144390000D01*
X97315000Y-160576000D02*
X98015000Y-160576000D01*
X98015000Y-159376000D02*
X97315000Y-159376000D01*
X63225000Y-149035000D02*
X63225000Y-148335000D01*
X62025000Y-148335000D02*
X62025000Y-149035000D01*
X63225000Y-154115000D02*
X63225000Y-153415000D01*
X62025000Y-153415000D02*
X62025000Y-154115000D01*
X141305000Y-143660000D02*
X146505000Y-143660000D01*
X141305000Y-158960000D02*
X141305000Y-143660000D01*
X146505000Y-161560000D02*
X146505000Y-143660000D01*
X141305000Y-158960000D02*
X143905000Y-158960000D01*
X143905000Y-158960000D02*
X143905000Y-161560000D01*
X143905000Y-161560000D02*
X146505000Y-161560000D01*
X141305000Y-160230000D02*
X141305000Y-161560000D01*
X141305000Y-161560000D02*
X142635000Y-161560000D01*
X88921500Y-148849500D02*
X89851500Y-148849500D01*
X92081500Y-148849500D02*
X91151500Y-148849500D01*
X92081500Y-148849500D02*
X92081500Y-151009500D01*
X88921500Y-148849500D02*
X88921500Y-150309500D01*
X85810000Y-134435000D02*
X86740000Y-134435000D01*
X88970000Y-134435000D02*
X88040000Y-134435000D01*
X88970000Y-134435000D02*
X88970000Y-136595000D01*
X85810000Y-134435000D02*
X85810000Y-135895000D01*
X105379000Y-157178000D02*
X105379000Y-158178000D01*
X106739000Y-158178000D02*
X106739000Y-157178000D01*
X104961000Y-158138500D02*
X104961000Y-157138500D01*
X103601000Y-157138500D02*
X103601000Y-158138500D01*
X98205000Y-132970000D02*
X99205000Y-132970000D01*
X99205000Y-131610000D02*
X98205000Y-131610000D01*
X99205000Y-133515000D02*
X98205000Y-133515000D01*
X98205000Y-134875000D02*
X99205000Y-134875000D01*
X101950000Y-154130000D02*
X101950000Y-155130000D01*
X103310000Y-155130000D02*
X103310000Y-154130000D01*
X103855000Y-154130000D02*
X103855000Y-155130000D01*
X105215000Y-155130000D02*
X105215000Y-154130000D01*
X100340000Y-143765000D02*
X101340000Y-143765000D01*
X101340000Y-142405000D02*
X100340000Y-142405000D01*
X93695000Y-153316500D02*
X93695000Y-154316500D01*
X95055000Y-154316500D02*
X95055000Y-153316500D01*
X95473000Y-153328500D02*
X95473000Y-154328500D01*
X96833000Y-154328500D02*
X96833000Y-153328500D01*
X93213500Y-154328500D02*
X93213500Y-153328500D01*
X91853500Y-153328500D02*
X91853500Y-154328500D01*
X61945000Y-159845000D02*
X61945000Y-160845000D01*
X63305000Y-160845000D02*
X63305000Y-159845000D01*
X63305000Y-157555000D02*
X63305000Y-156555000D01*
X61945000Y-156555000D02*
X61945000Y-157555000D01*
X90380000Y-166515000D02*
X109551000Y-166515000D01*
X90380000Y-161564000D02*
X109551000Y-161564000D01*
X90380000Y-166515000D02*
X90380000Y-161564000D01*
X109551000Y-166515000D02*
X109551000Y-161564000D01*
X88860000Y-165280000D02*
X90379000Y-165280000D01*
X88860000Y-162800000D02*
X90379000Y-162800000D01*
X88860000Y-165280000D02*
X88860000Y-162800000D01*
X90379000Y-165280000D02*
X90379000Y-162800000D01*
X88860000Y-164040000D02*
X89620000Y-164040000D01*
D12*
X118804806Y-136735000D02*
G75*
G03X118804806Y-136735000I-2839806J0D01*
G01*
X121045000Y-131655000D02*
X110250000Y-131655000D01*
X110250000Y-142450000D02*
X121045000Y-142450000D01*
X110250000Y-142450000D02*
X110250000Y-131655000D01*
X121045000Y-142450000D02*
X110250000Y-142450000D01*
X121045000Y-131655000D02*
X121045000Y-142450000D01*
X138360000Y-136065000D02*
X138360000Y-136115000D01*
X134210000Y-136065000D02*
X134210000Y-136210000D01*
X134210000Y-141215000D02*
X134210000Y-141070000D01*
X138360000Y-141215000D02*
X138360000Y-141070000D01*
X138360000Y-136065000D02*
X134210000Y-136065000D01*
X138360000Y-141215000D02*
X134210000Y-141215000D01*
X138360000Y-136115000D02*
X139760000Y-136115000D01*
X70415000Y-155750000D02*
X70415000Y-155800000D01*
X66265000Y-155750000D02*
X66265000Y-155895000D01*
X66265000Y-160900000D02*
X66265000Y-160755000D01*
X70415000Y-160900000D02*
X70415000Y-160755000D01*
X70415000Y-155750000D02*
X66265000Y-155750000D01*
X70415000Y-160900000D02*
X66265000Y-160900000D01*
X70415000Y-155800000D02*
X71815000Y-155800000D01*
X100690000Y-158171000D02*
X100690000Y-157771000D01*
X100690000Y-158171000D02*
X100290000Y-158171000D01*
X97490000Y-158171000D02*
X97490000Y-157771000D01*
X97490000Y-158171000D02*
X97890000Y-158171000D01*
X97490000Y-154971000D02*
X97490000Y-155371000D01*
X97490000Y-154971000D02*
X97890000Y-154971000D01*
X100690000Y-154971000D02*
X100290000Y-154971000D01*
D13*
X100292359Y-146967513D02*
X102767233Y-144492639D01*
X102767233Y-144492639D02*
X105737081Y-147462487D01*
X62875000Y-143130000D02*
X63875000Y-143130000D01*
X63875000Y-141770000D02*
X62875000Y-141770000D01*
D12*
X92850905Y-143934381D02*
X92850905Y-144743905D01*
X92803286Y-144839143D01*
X92755667Y-144886762D01*
X92660429Y-144934381D01*
X92469952Y-144934381D01*
X92374714Y-144886762D01*
X92327095Y-144839143D01*
X92279476Y-144743905D01*
X92279476Y-143934381D01*
X91850905Y-144029619D02*
X91803286Y-143982000D01*
X91708048Y-143934381D01*
X91469952Y-143934381D01*
X91374714Y-143982000D01*
X91327095Y-144029619D01*
X91279476Y-144124857D01*
X91279476Y-144220095D01*
X91327095Y-144362952D01*
X91898524Y-144934381D01*
X91279476Y-144934381D01*
X134643333Y-170072381D02*
X134643333Y-170786667D01*
X134690953Y-170929524D01*
X134786191Y-171024762D01*
X134929048Y-171072381D01*
X135024286Y-171072381D01*
X133690952Y-170072381D02*
X134167143Y-170072381D01*
X134214762Y-170548571D01*
X134167143Y-170500952D01*
X134071905Y-170453333D01*
X133833809Y-170453333D01*
X133738571Y-170500952D01*
X133690952Y-170548571D01*
X133643333Y-170643810D01*
X133643333Y-170881905D01*
X133690952Y-170977143D01*
X133738571Y-171024762D01*
X133833809Y-171072381D01*
X134071905Y-171072381D01*
X134167143Y-171024762D01*
X134214762Y-170977143D01*
X94700357Y-150935143D02*
X94747976Y-150982762D01*
X94890833Y-151030381D01*
X94986071Y-151030381D01*
X95128929Y-150982762D01*
X95224167Y-150887524D01*
X95271786Y-150792286D01*
X95319405Y-150601810D01*
X95319405Y-150458952D01*
X95271786Y-150268476D01*
X95224167Y-150173238D01*
X95128929Y-150078000D01*
X94986071Y-150030381D01*
X94890833Y-150030381D01*
X94747976Y-150078000D01*
X94700357Y-150125619D01*
X93747976Y-151030381D02*
X94319405Y-151030381D01*
X94033691Y-151030381D02*
X94033691Y-150030381D01*
X94128929Y-150173238D01*
X94224167Y-150268476D01*
X94319405Y-150316095D01*
X92795595Y-151030381D02*
X93367024Y-151030381D01*
X93081310Y-151030381D02*
X93081310Y-150030381D01*
X93176548Y-150173238D01*
X93271786Y-150268476D01*
X93367024Y-150316095D01*
X93271666Y-141092643D02*
X93319285Y-141140262D01*
X93462142Y-141187881D01*
X93557380Y-141187881D01*
X93700238Y-141140262D01*
X93795476Y-141045024D01*
X93843095Y-140949786D01*
X93890714Y-140759310D01*
X93890714Y-140616452D01*
X93843095Y-140425976D01*
X93795476Y-140330738D01*
X93700238Y-140235500D01*
X93557380Y-140187881D01*
X93462142Y-140187881D01*
X93319285Y-140235500D01*
X93271666Y-140283119D01*
X92319285Y-141187881D02*
X92890714Y-141187881D01*
X92605000Y-141187881D02*
X92605000Y-140187881D01*
X92700238Y-140330738D01*
X92795476Y-140425976D01*
X92890714Y-140473595D01*
X101844143Y-157332834D02*
X101891762Y-157285215D01*
X101939381Y-157142358D01*
X101939381Y-157047120D01*
X101891762Y-156904262D01*
X101796524Y-156809024D01*
X101701286Y-156761405D01*
X101510810Y-156713786D01*
X101367952Y-156713786D01*
X101177476Y-156761405D01*
X101082238Y-156809024D01*
X100987000Y-156904262D01*
X100939381Y-157047120D01*
X100939381Y-157142358D01*
X100987000Y-157285215D01*
X101034619Y-157332834D01*
X101034619Y-157713786D02*
X100987000Y-157761405D01*
X100939381Y-157856643D01*
X100939381Y-158094739D01*
X100987000Y-158189977D01*
X101034619Y-158237596D01*
X101129857Y-158285215D01*
X101225095Y-158285215D01*
X101367952Y-158237596D01*
X101939381Y-157666167D01*
X101939381Y-158285215D01*
X126712143Y-132393334D02*
X126759762Y-132345715D01*
X126807381Y-132202858D01*
X126807381Y-132107620D01*
X126759762Y-131964762D01*
X126664524Y-131869524D01*
X126569286Y-131821905D01*
X126378810Y-131774286D01*
X126235952Y-131774286D01*
X126045476Y-131821905D01*
X125950238Y-131869524D01*
X125855000Y-131964762D01*
X125807381Y-132107620D01*
X125807381Y-132202858D01*
X125855000Y-132345715D01*
X125902619Y-132393334D01*
X125807381Y-132726667D02*
X125807381Y-133345715D01*
X126188333Y-133012381D01*
X126188333Y-133155239D01*
X126235952Y-133250477D01*
X126283571Y-133298096D01*
X126378810Y-133345715D01*
X126616905Y-133345715D01*
X126712143Y-133298096D01*
X126759762Y-133250477D01*
X126807381Y-133155239D01*
X126807381Y-132869524D01*
X126759762Y-132774286D01*
X126712143Y-132726667D01*
X98947143Y-150538334D02*
X98994762Y-150490715D01*
X99042381Y-150347858D01*
X99042381Y-150252620D01*
X98994762Y-150109762D01*
X98899524Y-150014524D01*
X98804286Y-149966905D01*
X98613810Y-149919286D01*
X98470952Y-149919286D01*
X98280476Y-149966905D01*
X98185238Y-150014524D01*
X98090000Y-150109762D01*
X98042381Y-150252620D01*
X98042381Y-150347858D01*
X98090000Y-150490715D01*
X98137619Y-150538334D01*
X98375714Y-151395477D02*
X99042381Y-151395477D01*
X97994762Y-151157381D02*
X98709048Y-150919286D01*
X98709048Y-151538334D01*
X93398666Y-142870643D02*
X93446285Y-142918262D01*
X93589142Y-142965881D01*
X93684380Y-142965881D01*
X93827238Y-142918262D01*
X93922476Y-142823024D01*
X93970095Y-142727786D01*
X94017714Y-142537310D01*
X94017714Y-142394452D01*
X93970095Y-142203976D01*
X93922476Y-142108738D01*
X93827238Y-142013500D01*
X93684380Y-141965881D01*
X93589142Y-141965881D01*
X93446285Y-142013500D01*
X93398666Y-142061119D01*
X92493904Y-141965881D02*
X92970095Y-141965881D01*
X93017714Y-142442071D01*
X92970095Y-142394452D01*
X92874857Y-142346833D01*
X92636761Y-142346833D01*
X92541523Y-142394452D01*
X92493904Y-142442071D01*
X92446285Y-142537310D01*
X92446285Y-142775405D01*
X92493904Y-142870643D01*
X92541523Y-142918262D01*
X92636761Y-142965881D01*
X92874857Y-142965881D01*
X92970095Y-142918262D01*
X93017714Y-142870643D01*
X108932143Y-131123334D02*
X108979762Y-131075715D01*
X109027381Y-130932858D01*
X109027381Y-130837620D01*
X108979762Y-130694762D01*
X108884524Y-130599524D01*
X108789286Y-130551905D01*
X108598810Y-130504286D01*
X108455952Y-130504286D01*
X108265476Y-130551905D01*
X108170238Y-130599524D01*
X108075000Y-130694762D01*
X108027381Y-130837620D01*
X108027381Y-130932858D01*
X108075000Y-131075715D01*
X108122619Y-131123334D01*
X108027381Y-131980477D02*
X108027381Y-131790000D01*
X108075000Y-131694762D01*
X108122619Y-131647143D01*
X108265476Y-131551905D01*
X108455952Y-131504286D01*
X108836905Y-131504286D01*
X108932143Y-131551905D01*
X108979762Y-131599524D01*
X109027381Y-131694762D01*
X109027381Y-131885239D01*
X108979762Y-131980477D01*
X108932143Y-132028096D01*
X108836905Y-132075715D01*
X108598810Y-132075715D01*
X108503571Y-132028096D01*
X108455952Y-131980477D01*
X108408333Y-131885239D01*
X108408333Y-131694762D01*
X108455952Y-131599524D01*
X108503571Y-131551905D01*
X108598810Y-131504286D01*
X130062143Y-137723334D02*
X130109762Y-137675715D01*
X130157381Y-137532858D01*
X130157381Y-137437620D01*
X130109762Y-137294762D01*
X130014524Y-137199524D01*
X129919286Y-137151905D01*
X129728810Y-137104286D01*
X129585952Y-137104286D01*
X129395476Y-137151905D01*
X129300238Y-137199524D01*
X129205000Y-137294762D01*
X129157381Y-137437620D01*
X129157381Y-137532858D01*
X129205000Y-137675715D01*
X129252619Y-137723334D01*
X129157381Y-138056667D02*
X129157381Y-138723334D01*
X130157381Y-138294762D01*
X98605666Y-153221143D02*
X98653285Y-153268762D01*
X98796142Y-153316381D01*
X98891380Y-153316381D01*
X99034238Y-153268762D01*
X99129476Y-153173524D01*
X99177095Y-153078286D01*
X99224714Y-152887810D01*
X99224714Y-152744952D01*
X99177095Y-152554476D01*
X99129476Y-152459238D01*
X99034238Y-152364000D01*
X98891380Y-152316381D01*
X98796142Y-152316381D01*
X98653285Y-152364000D01*
X98605666Y-152411619D01*
X98034238Y-152744952D02*
X98129476Y-152697333D01*
X98177095Y-152649714D01*
X98224714Y-152554476D01*
X98224714Y-152506857D01*
X98177095Y-152411619D01*
X98129476Y-152364000D01*
X98034238Y-152316381D01*
X97843761Y-152316381D01*
X97748523Y-152364000D01*
X97700904Y-152411619D01*
X97653285Y-152506857D01*
X97653285Y-152554476D01*
X97700904Y-152649714D01*
X97748523Y-152697333D01*
X97843761Y-152744952D01*
X98034238Y-152744952D01*
X98129476Y-152792571D01*
X98177095Y-152840190D01*
X98224714Y-152935429D01*
X98224714Y-153125905D01*
X98177095Y-153221143D01*
X98129476Y-153268762D01*
X98034238Y-153316381D01*
X97843761Y-153316381D01*
X97748523Y-153268762D01*
X97700904Y-153221143D01*
X97653285Y-153125905D01*
X97653285Y-152935429D01*
X97700904Y-152840190D01*
X97748523Y-152792571D01*
X97843761Y-152744952D01*
X103193812Y-143772889D02*
X103193812Y-143840232D01*
X103261156Y-143974919D01*
X103328499Y-144042263D01*
X103463187Y-144109607D01*
X103597874Y-144109607D01*
X103698889Y-144075935D01*
X103867247Y-143974920D01*
X103968263Y-143873904D01*
X104069278Y-143705545D01*
X104102950Y-143604530D01*
X104102950Y-143469843D01*
X104035606Y-143335156D01*
X103968263Y-143267812D01*
X103833576Y-143200469D01*
X103766232Y-143200469D01*
X102789752Y-143503515D02*
X102655065Y-143368828D01*
X102621393Y-143267812D01*
X102621393Y-143200469D01*
X102655064Y-143032110D01*
X102756079Y-142863752D01*
X103025454Y-142594377D01*
X103126469Y-142560706D01*
X103193812Y-142560706D01*
X103294828Y-142594377D01*
X103429515Y-142729065D01*
X103463187Y-142830080D01*
X103463187Y-142897424D01*
X103429515Y-142998439D01*
X103261157Y-143166797D01*
X103160141Y-143200469D01*
X103092797Y-143200470D01*
X102991782Y-143166798D01*
X102857095Y-143032110D01*
X102823423Y-142931095D01*
X102823424Y-142863751D01*
X102857095Y-142762736D01*
X106385107Y-150693470D02*
X106452450Y-150693470D01*
X106587137Y-150626126D01*
X106654481Y-150558783D01*
X106721825Y-150424095D01*
X106721825Y-150289408D01*
X106688153Y-150188393D01*
X106587138Y-150020035D01*
X106486122Y-149919019D01*
X106317763Y-149818004D01*
X106216748Y-149784332D01*
X106082061Y-149784332D01*
X105947374Y-149851676D01*
X105880030Y-149919019D01*
X105812687Y-150053706D01*
X105812687Y-150121050D01*
X105779015Y-151434248D02*
X106183076Y-151030187D01*
X105981046Y-151232217D02*
X105273939Y-150525110D01*
X105442298Y-150558782D01*
X105576985Y-150558782D01*
X105678000Y-150525110D01*
X104634176Y-151164874D02*
X104566832Y-151232218D01*
X104533160Y-151333233D01*
X104533160Y-151400576D01*
X104566832Y-151501592D01*
X104667847Y-151669950D01*
X104836206Y-151838310D01*
X105004565Y-151939325D01*
X105105580Y-151972996D01*
X105172924Y-151972996D01*
X105273939Y-151939325D01*
X105341283Y-151871981D01*
X105374955Y-151770965D01*
X105374955Y-151703622D01*
X105341283Y-151602607D01*
X105240268Y-151434248D01*
X105071908Y-151265889D01*
X104903550Y-151164874D01*
X104802535Y-151131202D01*
X104735191Y-151131202D01*
X104634176Y-151164874D01*
X67077857Y-152967143D02*
X67125476Y-153014762D01*
X67268333Y-153062381D01*
X67363571Y-153062381D01*
X67506429Y-153014762D01*
X67601667Y-152919524D01*
X67649286Y-152824286D01*
X67696905Y-152633810D01*
X67696905Y-152490952D01*
X67649286Y-152300476D01*
X67601667Y-152205238D01*
X67506429Y-152110000D01*
X67363571Y-152062381D01*
X67268333Y-152062381D01*
X67125476Y-152110000D01*
X67077857Y-152157619D01*
X66125476Y-153062381D02*
X66696905Y-153062381D01*
X66411191Y-153062381D02*
X66411191Y-152062381D01*
X66506429Y-152205238D01*
X66601667Y-152300476D01*
X66696905Y-152348095D01*
X65744524Y-152157619D02*
X65696905Y-152110000D01*
X65601667Y-152062381D01*
X65363571Y-152062381D01*
X65268333Y-152110000D01*
X65220714Y-152157619D01*
X65173095Y-152252857D01*
X65173095Y-152348095D01*
X65220714Y-152490952D01*
X65792143Y-153062381D01*
X65173095Y-153062381D01*
X94248143Y-157606643D02*
X94295762Y-157559024D01*
X94343381Y-157416167D01*
X94343381Y-157320929D01*
X94295762Y-157178071D01*
X94200524Y-157082833D01*
X94105286Y-157035214D01*
X93914810Y-156987595D01*
X93771952Y-156987595D01*
X93581476Y-157035214D01*
X93486238Y-157082833D01*
X93391000Y-157178071D01*
X93343381Y-157320929D01*
X93343381Y-157416167D01*
X93391000Y-157559024D01*
X93438619Y-157606643D01*
X94343381Y-158559024D02*
X94343381Y-157987595D01*
X94343381Y-158273309D02*
X93343381Y-158273309D01*
X93486238Y-158178071D01*
X93581476Y-158082833D01*
X93629095Y-157987595D01*
X93343381Y-158892357D02*
X93343381Y-159511405D01*
X93724333Y-159178071D01*
X93724333Y-159320929D01*
X93771952Y-159416167D01*
X93819571Y-159463786D01*
X93914810Y-159511405D01*
X94152905Y-159511405D01*
X94248143Y-159463786D01*
X94295762Y-159416167D01*
X94343381Y-159320929D01*
X94343381Y-159035214D01*
X94295762Y-158939976D01*
X94248143Y-158892357D01*
X104606357Y-161222143D02*
X104653976Y-161269762D01*
X104796833Y-161317381D01*
X104892071Y-161317381D01*
X105034929Y-161269762D01*
X105130167Y-161174524D01*
X105177786Y-161079286D01*
X105225405Y-160888810D01*
X105225405Y-160745952D01*
X105177786Y-160555476D01*
X105130167Y-160460238D01*
X105034929Y-160365000D01*
X104892071Y-160317381D01*
X104796833Y-160317381D01*
X104653976Y-160365000D01*
X104606357Y-160412619D01*
X103653976Y-161317381D02*
X104225405Y-161317381D01*
X103939691Y-161317381D02*
X103939691Y-160317381D01*
X104034929Y-160460238D01*
X104130167Y-160555476D01*
X104225405Y-160603095D01*
X102796833Y-160650714D02*
X102796833Y-161317381D01*
X103034929Y-160269762D02*
X103273024Y-160984048D01*
X102653976Y-160984048D01*
X67077857Y-145982143D02*
X67125476Y-146029762D01*
X67268333Y-146077381D01*
X67363571Y-146077381D01*
X67506429Y-146029762D01*
X67601667Y-145934524D01*
X67649286Y-145839286D01*
X67696905Y-145648810D01*
X67696905Y-145505952D01*
X67649286Y-145315476D01*
X67601667Y-145220238D01*
X67506429Y-145125000D01*
X67363571Y-145077381D01*
X67268333Y-145077381D01*
X67125476Y-145125000D01*
X67077857Y-145172619D01*
X66125476Y-146077381D02*
X66696905Y-146077381D01*
X66411191Y-146077381D02*
X66411191Y-145077381D01*
X66506429Y-145220238D01*
X66601667Y-145315476D01*
X66696905Y-145363095D01*
X65220714Y-145077381D02*
X65696905Y-145077381D01*
X65744524Y-145553571D01*
X65696905Y-145505952D01*
X65601667Y-145458333D01*
X65363571Y-145458333D01*
X65268333Y-145505952D01*
X65220714Y-145553571D01*
X65173095Y-145648810D01*
X65173095Y-145886905D01*
X65220714Y-145982143D01*
X65268333Y-146029762D01*
X65363571Y-146077381D01*
X65601667Y-146077381D01*
X65696905Y-146029762D01*
X65744524Y-145982143D01*
X95462357Y-161158643D02*
X95509976Y-161206262D01*
X95652833Y-161253881D01*
X95748071Y-161253881D01*
X95890929Y-161206262D01*
X95986167Y-161111024D01*
X96033786Y-161015786D01*
X96081405Y-160825310D01*
X96081405Y-160682452D01*
X96033786Y-160491976D01*
X95986167Y-160396738D01*
X95890929Y-160301500D01*
X95748071Y-160253881D01*
X95652833Y-160253881D01*
X95509976Y-160301500D01*
X95462357Y-160349119D01*
X94509976Y-161253881D02*
X95081405Y-161253881D01*
X94795691Y-161253881D02*
X94795691Y-160253881D01*
X94890929Y-160396738D01*
X94986167Y-160491976D01*
X95081405Y-160539595D01*
X93652833Y-160253881D02*
X93843310Y-160253881D01*
X93938548Y-160301500D01*
X93986167Y-160349119D01*
X94081405Y-160491976D01*
X94129024Y-160682452D01*
X94129024Y-161063405D01*
X94081405Y-161158643D01*
X94033786Y-161206262D01*
X93938548Y-161253881D01*
X93748071Y-161253881D01*
X93652833Y-161206262D01*
X93605214Y-161158643D01*
X93557595Y-161063405D01*
X93557595Y-160825310D01*
X93605214Y-160730071D01*
X93652833Y-160682452D01*
X93748071Y-160634833D01*
X93938548Y-160634833D01*
X94033786Y-160682452D01*
X94081405Y-160730071D01*
X94129024Y-160825310D01*
X64569643Y-148093643D02*
X64617262Y-148046024D01*
X64664881Y-147903167D01*
X64664881Y-147807929D01*
X64617262Y-147665071D01*
X64522024Y-147569833D01*
X64426786Y-147522214D01*
X64236310Y-147474595D01*
X64093452Y-147474595D01*
X63902976Y-147522214D01*
X63807738Y-147569833D01*
X63712500Y-147665071D01*
X63664881Y-147807929D01*
X63664881Y-147903167D01*
X63712500Y-148046024D01*
X63760119Y-148093643D01*
X64664881Y-149046024D02*
X64664881Y-148474595D01*
X64664881Y-148760309D02*
X63664881Y-148760309D01*
X63807738Y-148665071D01*
X63902976Y-148569833D01*
X63950595Y-148474595D01*
X63664881Y-149379357D02*
X63664881Y-150046024D01*
X64664881Y-149617452D01*
X64379143Y-152221143D02*
X64426762Y-152173524D01*
X64474381Y-152030667D01*
X64474381Y-151935429D01*
X64426762Y-151792571D01*
X64331524Y-151697333D01*
X64236286Y-151649714D01*
X64045810Y-151602095D01*
X63902952Y-151602095D01*
X63712476Y-151649714D01*
X63617238Y-151697333D01*
X63522000Y-151792571D01*
X63474381Y-151935429D01*
X63474381Y-152030667D01*
X63522000Y-152173524D01*
X63569619Y-152221143D01*
X64474381Y-153173524D02*
X64474381Y-152602095D01*
X64474381Y-152887809D02*
X63474381Y-152887809D01*
X63617238Y-152792571D01*
X63712476Y-152697333D01*
X63760095Y-152602095D01*
X63902952Y-153744952D02*
X63855333Y-153649714D01*
X63807714Y-153602095D01*
X63712476Y-153554476D01*
X63664857Y-153554476D01*
X63569619Y-153602095D01*
X63522000Y-153649714D01*
X63474381Y-153744952D01*
X63474381Y-153935429D01*
X63522000Y-154030667D01*
X63569619Y-154078286D01*
X63664857Y-154125905D01*
X63712476Y-154125905D01*
X63807714Y-154078286D01*
X63855333Y-154030667D01*
X63902952Y-153935429D01*
X63902952Y-153744952D01*
X63950571Y-153649714D01*
X63998190Y-153602095D01*
X64093429Y-153554476D01*
X64283905Y-153554476D01*
X64379143Y-153602095D01*
X64426762Y-153649714D01*
X64474381Y-153744952D01*
X64474381Y-153935429D01*
X64426762Y-154030667D01*
X64379143Y-154078286D01*
X64283905Y-154125905D01*
X64093429Y-154125905D01*
X63998190Y-154078286D01*
X63950571Y-154030667D01*
X63902952Y-153935429D01*
X144238333Y-162012381D02*
X144238333Y-162726667D01*
X144285953Y-162869524D01*
X144381191Y-162964762D01*
X144524048Y-163012381D01*
X144619286Y-163012381D01*
X143333571Y-162345714D02*
X143333571Y-163012381D01*
X143571667Y-161964762D02*
X143809762Y-162679048D01*
X143190714Y-162679048D01*
X88636119Y-149514262D02*
X88588500Y-149419024D01*
X88493262Y-149323786D01*
X88350405Y-149180929D01*
X88302786Y-149085690D01*
X88302786Y-148990452D01*
X88540881Y-149038071D02*
X88493262Y-148942833D01*
X88398024Y-148847595D01*
X88207548Y-148799976D01*
X87874214Y-148799976D01*
X87683738Y-148847595D01*
X87588500Y-148942833D01*
X87540881Y-149038071D01*
X87540881Y-149228548D01*
X87588500Y-149323786D01*
X87683738Y-149419024D01*
X87874214Y-149466643D01*
X88207548Y-149466643D01*
X88398024Y-149419024D01*
X88493262Y-149323786D01*
X88540881Y-149228548D01*
X88540881Y-149038071D01*
X88540881Y-150419024D02*
X88540881Y-149847595D01*
X88540881Y-150133309D02*
X87540881Y-150133309D01*
X87683738Y-150038071D01*
X87778976Y-149942833D01*
X87826595Y-149847595D01*
X90437619Y-135099762D02*
X90390000Y-135004524D01*
X90294762Y-134909286D01*
X90151905Y-134766429D01*
X90104286Y-134671190D01*
X90104286Y-134575952D01*
X90342381Y-134623571D02*
X90294762Y-134528333D01*
X90199524Y-134433095D01*
X90009048Y-134385476D01*
X89675714Y-134385476D01*
X89485238Y-134433095D01*
X89390000Y-134528333D01*
X89342381Y-134623571D01*
X89342381Y-134814048D01*
X89390000Y-134909286D01*
X89485238Y-135004524D01*
X89675714Y-135052143D01*
X90009048Y-135052143D01*
X90199524Y-135004524D01*
X90294762Y-134909286D01*
X90342381Y-134814048D01*
X90342381Y-134623571D01*
X89437619Y-135433095D02*
X89390000Y-135480714D01*
X89342381Y-135575952D01*
X89342381Y-135814048D01*
X89390000Y-135909286D01*
X89437619Y-135956905D01*
X89532857Y-136004524D01*
X89628095Y-136004524D01*
X89770952Y-135956905D01*
X90342381Y-135385476D01*
X90342381Y-136004524D01*
X107961381Y-157511334D02*
X107485190Y-157178000D01*
X107961381Y-156939905D02*
X106961381Y-156939905D01*
X106961381Y-157320858D01*
X107009000Y-157416096D01*
X107056619Y-157463715D01*
X107151857Y-157511334D01*
X107294714Y-157511334D01*
X107389952Y-157463715D01*
X107437571Y-157416096D01*
X107485190Y-157320858D01*
X107485190Y-156939905D01*
X107961381Y-158463715D02*
X107961381Y-157892286D01*
X107961381Y-158178000D02*
X106961381Y-158178000D01*
X107104238Y-158082762D01*
X107199476Y-157987524D01*
X107247095Y-157892286D01*
X104447666Y-160047381D02*
X104781000Y-159571190D01*
X105019095Y-160047381D02*
X105019095Y-159047381D01*
X104638142Y-159047381D01*
X104542904Y-159095000D01*
X104495285Y-159142619D01*
X104447666Y-159237857D01*
X104447666Y-159380714D01*
X104495285Y-159475952D01*
X104542904Y-159523571D01*
X104638142Y-159571190D01*
X105019095Y-159571190D01*
X104066714Y-159142619D02*
X104019095Y-159095000D01*
X103923857Y-159047381D01*
X103685761Y-159047381D01*
X103590523Y-159095000D01*
X103542904Y-159142619D01*
X103495285Y-159237857D01*
X103495285Y-159333095D01*
X103542904Y-159475952D01*
X104114333Y-160047381D01*
X103495285Y-160047381D01*
X98871666Y-131292381D02*
X99205000Y-130816190D01*
X99443095Y-131292381D02*
X99443095Y-130292381D01*
X99062142Y-130292381D01*
X98966904Y-130340000D01*
X98919285Y-130387619D01*
X98871666Y-130482857D01*
X98871666Y-130625714D01*
X98919285Y-130720952D01*
X98966904Y-130768571D01*
X99062142Y-130816190D01*
X99443095Y-130816190D01*
X98538333Y-130292381D02*
X97919285Y-130292381D01*
X98252619Y-130673333D01*
X98109761Y-130673333D01*
X98014523Y-130720952D01*
X97966904Y-130768571D01*
X97919285Y-130863810D01*
X97919285Y-131101905D01*
X97966904Y-131197143D01*
X98014523Y-131244762D01*
X98109761Y-131292381D01*
X98395476Y-131292381D01*
X98490714Y-131244762D01*
X98538333Y-131197143D01*
X98871666Y-136097381D02*
X99205000Y-135621190D01*
X99443095Y-136097381D02*
X99443095Y-135097381D01*
X99062142Y-135097381D01*
X98966904Y-135145000D01*
X98919285Y-135192619D01*
X98871666Y-135287857D01*
X98871666Y-135430714D01*
X98919285Y-135525952D01*
X98966904Y-135573571D01*
X99062142Y-135621190D01*
X99443095Y-135621190D01*
X98014523Y-135430714D02*
X98014523Y-136097381D01*
X98252619Y-135049762D02*
X98490714Y-135764048D01*
X97871666Y-135764048D01*
X101748881Y-152951334D02*
X101272690Y-152618000D01*
X101748881Y-152379905D02*
X100748881Y-152379905D01*
X100748881Y-152760858D01*
X100796500Y-152856096D01*
X100844119Y-152903715D01*
X100939357Y-152951334D01*
X101082214Y-152951334D01*
X101177452Y-152903715D01*
X101225071Y-152856096D01*
X101272690Y-152760858D01*
X101272690Y-152379905D01*
X100748881Y-153856096D02*
X100748881Y-153379905D01*
X101225071Y-153332286D01*
X101177452Y-153379905D01*
X101129833Y-153475143D01*
X101129833Y-153713239D01*
X101177452Y-153808477D01*
X101225071Y-153856096D01*
X101320310Y-153903715D01*
X101558405Y-153903715D01*
X101653643Y-153856096D01*
X101701262Y-153808477D01*
X101748881Y-153713239D01*
X101748881Y-153475143D01*
X101701262Y-153379905D01*
X101653643Y-153332286D01*
X106511381Y-154463334D02*
X106035190Y-154130000D01*
X106511381Y-153891905D02*
X105511381Y-153891905D01*
X105511381Y-154272858D01*
X105559000Y-154368096D01*
X105606619Y-154415715D01*
X105701857Y-154463334D01*
X105844714Y-154463334D01*
X105939952Y-154415715D01*
X105987571Y-154368096D01*
X106035190Y-154272858D01*
X106035190Y-153891905D01*
X105511381Y-155320477D02*
X105511381Y-155130000D01*
X105559000Y-155034762D01*
X105606619Y-154987143D01*
X105749476Y-154891905D01*
X105939952Y-154844286D01*
X106320905Y-154844286D01*
X106416143Y-154891905D01*
X106463762Y-154939524D01*
X106511381Y-155034762D01*
X106511381Y-155225239D01*
X106463762Y-155320477D01*
X106416143Y-155368096D01*
X106320905Y-155415715D01*
X106082810Y-155415715D01*
X105987571Y-155368096D01*
X105939952Y-155320477D01*
X105892333Y-155225239D01*
X105892333Y-155034762D01*
X105939952Y-154939524D01*
X105987571Y-154891905D01*
X106082810Y-154844286D01*
X101006666Y-142087381D02*
X101340000Y-141611190D01*
X101578095Y-142087381D02*
X101578095Y-141087381D01*
X101197142Y-141087381D01*
X101101904Y-141135000D01*
X101054285Y-141182619D01*
X101006666Y-141277857D01*
X101006666Y-141420714D01*
X101054285Y-141515952D01*
X101101904Y-141563571D01*
X101197142Y-141611190D01*
X101578095Y-141611190D01*
X100673333Y-141087381D02*
X100006666Y-141087381D01*
X100435238Y-142087381D01*
X94827381Y-155808834D02*
X94351190Y-155475500D01*
X94827381Y-155237405D02*
X93827381Y-155237405D01*
X93827381Y-155618358D01*
X93875000Y-155713596D01*
X93922619Y-155761215D01*
X94017857Y-155808834D01*
X94160714Y-155808834D01*
X94255952Y-155761215D01*
X94303571Y-155713596D01*
X94351190Y-155618358D01*
X94351190Y-155237405D01*
X94255952Y-156380262D02*
X94208333Y-156285024D01*
X94160714Y-156237405D01*
X94065476Y-156189786D01*
X94017857Y-156189786D01*
X93922619Y-156237405D01*
X93875000Y-156285024D01*
X93827381Y-156380262D01*
X93827381Y-156570739D01*
X93875000Y-156665977D01*
X93922619Y-156713596D01*
X94017857Y-156761215D01*
X94065476Y-156761215D01*
X94160714Y-156713596D01*
X94208333Y-156665977D01*
X94255952Y-156570739D01*
X94255952Y-156380262D01*
X94303571Y-156285024D01*
X94351190Y-156237405D01*
X94446429Y-156189786D01*
X94636905Y-156189786D01*
X94732143Y-156237405D01*
X94779762Y-156285024D01*
X94827381Y-156380262D01*
X94827381Y-156570739D01*
X94779762Y-156665977D01*
X94732143Y-156713596D01*
X94636905Y-156761215D01*
X94446429Y-156761215D01*
X94351190Y-156713596D01*
X94303571Y-156665977D01*
X94255952Y-156570739D01*
X96605381Y-155808834D02*
X96129190Y-155475500D01*
X96605381Y-155237405D02*
X95605381Y-155237405D01*
X95605381Y-155618358D01*
X95653000Y-155713596D01*
X95700619Y-155761215D01*
X95795857Y-155808834D01*
X95938714Y-155808834D01*
X96033952Y-155761215D01*
X96081571Y-155713596D01*
X96129190Y-155618358D01*
X96129190Y-155237405D01*
X96605381Y-156285024D02*
X96605381Y-156475500D01*
X96557762Y-156570739D01*
X96510143Y-156618358D01*
X96367286Y-156713596D01*
X96176810Y-156761215D01*
X95795857Y-156761215D01*
X95700619Y-156713596D01*
X95653000Y-156665977D01*
X95605381Y-156570739D01*
X95605381Y-156380262D01*
X95653000Y-156285024D01*
X95700619Y-156237405D01*
X95795857Y-156189786D01*
X96033952Y-156189786D01*
X96129190Y-156237405D01*
X96176810Y-156285024D01*
X96224429Y-156380262D01*
X96224429Y-156570739D01*
X96176810Y-156665977D01*
X96129190Y-156713596D01*
X96033952Y-156761215D01*
X91535881Y-153185643D02*
X91059690Y-152852309D01*
X91535881Y-152614214D02*
X90535881Y-152614214D01*
X90535881Y-152995167D01*
X90583500Y-153090405D01*
X90631119Y-153138024D01*
X90726357Y-153185643D01*
X90869214Y-153185643D01*
X90964452Y-153138024D01*
X91012071Y-153090405D01*
X91059690Y-152995167D01*
X91059690Y-152614214D01*
X91535881Y-154138024D02*
X91535881Y-153566595D01*
X91535881Y-153852309D02*
X90535881Y-153852309D01*
X90678738Y-153757071D01*
X90773976Y-153661833D01*
X90821595Y-153566595D01*
X90535881Y-154757071D02*
X90535881Y-154852310D01*
X90583500Y-154947548D01*
X90631119Y-154995167D01*
X90726357Y-155042786D01*
X90916833Y-155090405D01*
X91154929Y-155090405D01*
X91345405Y-155042786D01*
X91440643Y-154995167D01*
X91488262Y-154947548D01*
X91535881Y-154852310D01*
X91535881Y-154757071D01*
X91488262Y-154661833D01*
X91440643Y-154614214D01*
X91345405Y-154566595D01*
X91154929Y-154518976D01*
X90916833Y-154518976D01*
X90726357Y-154566595D01*
X90631119Y-154614214D01*
X90583500Y-154661833D01*
X90535881Y-154757071D01*
X63077381Y-162254143D02*
X62601190Y-161920809D01*
X63077381Y-161682714D02*
X62077381Y-161682714D01*
X62077381Y-162063667D01*
X62125000Y-162158905D01*
X62172619Y-162206524D01*
X62267857Y-162254143D01*
X62410714Y-162254143D01*
X62505952Y-162206524D01*
X62553571Y-162158905D01*
X62601190Y-162063667D01*
X62601190Y-161682714D01*
X63077381Y-163206524D02*
X63077381Y-162635095D01*
X63077381Y-162920809D02*
X62077381Y-162920809D01*
X62220238Y-162825571D01*
X62315476Y-162730333D01*
X62363095Y-162635095D01*
X62172619Y-163587476D02*
X62125000Y-163635095D01*
X62077381Y-163730333D01*
X62077381Y-163968429D01*
X62125000Y-164063667D01*
X62172619Y-164111286D01*
X62267857Y-164158905D01*
X62363095Y-164158905D01*
X62505952Y-164111286D01*
X63077381Y-163539857D01*
X63077381Y-164158905D01*
X64474381Y-156412143D02*
X63998190Y-156078809D01*
X64474381Y-155840714D02*
X63474381Y-155840714D01*
X63474381Y-156221667D01*
X63522000Y-156316905D01*
X63569619Y-156364524D01*
X63664857Y-156412143D01*
X63807714Y-156412143D01*
X63902952Y-156364524D01*
X63950571Y-156316905D01*
X63998190Y-156221667D01*
X63998190Y-155840714D01*
X64474381Y-157364524D02*
X64474381Y-156793095D01*
X64474381Y-157078809D02*
X63474381Y-157078809D01*
X63617238Y-156983571D01*
X63712476Y-156888333D01*
X63760095Y-156793095D01*
X63474381Y-157697857D02*
X63474381Y-158316905D01*
X63855333Y-157983571D01*
X63855333Y-158126429D01*
X63902952Y-158221667D01*
X63950571Y-158269286D01*
X64045810Y-158316905D01*
X64283905Y-158316905D01*
X64379143Y-158269286D01*
X64426762Y-158221667D01*
X64474381Y-158126429D01*
X64474381Y-157840714D01*
X64426762Y-157745476D01*
X64379143Y-157697857D01*
X99800238Y-168157381D02*
X100133572Y-167681190D01*
X100371667Y-168157381D02*
X100371667Y-167157381D01*
X99990714Y-167157381D01*
X99895476Y-167205000D01*
X99847857Y-167252619D01*
X99800238Y-167347857D01*
X99800238Y-167490714D01*
X99847857Y-167585952D01*
X99895476Y-167633571D01*
X99990714Y-167681190D01*
X100371667Y-167681190D01*
X99514524Y-167157381D02*
X99181191Y-168157381D01*
X98847857Y-167157381D01*
X97990714Y-168157381D02*
X98562143Y-168157381D01*
X98276429Y-168157381D02*
X98276429Y-167157381D01*
X98371667Y-167300238D01*
X98466905Y-167395476D01*
X98562143Y-167443095D01*
X116726905Y-145077381D02*
X116726905Y-145886905D01*
X116679286Y-145982143D01*
X116631667Y-146029762D01*
X116536429Y-146077381D01*
X116345952Y-146077381D01*
X116250714Y-146029762D01*
X116203095Y-145982143D01*
X116155476Y-145886905D01*
X116155476Y-145077381D01*
X115155476Y-146077381D02*
X115726905Y-146077381D01*
X115441191Y-146077381D02*
X115441191Y-145077381D01*
X115536429Y-145220238D01*
X115631667Y-145315476D01*
X115726905Y-145363095D01*
X137046905Y-134592381D02*
X137046905Y-135401905D01*
X136999286Y-135497143D01*
X136951667Y-135544762D01*
X136856429Y-135592381D01*
X136665952Y-135592381D01*
X136570714Y-135544762D01*
X136523095Y-135497143D01*
X136475476Y-135401905D01*
X136475476Y-134592381D01*
X136094524Y-134592381D02*
X135475476Y-134592381D01*
X135808810Y-134973333D01*
X135665952Y-134973333D01*
X135570714Y-135020952D01*
X135523095Y-135068571D01*
X135475476Y-135163810D01*
X135475476Y-135401905D01*
X135523095Y-135497143D01*
X135570714Y-135544762D01*
X135665952Y-135592381D01*
X135951667Y-135592381D01*
X136046905Y-135544762D01*
X136094524Y-135497143D01*
X69736905Y-154277381D02*
X69736905Y-155086905D01*
X69689286Y-155182143D01*
X69641667Y-155229762D01*
X69546429Y-155277381D01*
X69355952Y-155277381D01*
X69260714Y-155229762D01*
X69213095Y-155182143D01*
X69165476Y-155086905D01*
X69165476Y-154277381D01*
X68260714Y-154610714D02*
X68260714Y-155277381D01*
X68498810Y-154229762D02*
X68736905Y-154944048D01*
X68117857Y-154944048D01*
X99605881Y-152800595D02*
X100415405Y-152800595D01*
X100510643Y-152848214D01*
X100558262Y-152895833D01*
X100605881Y-152991071D01*
X100605881Y-153181548D01*
X100558262Y-153276786D01*
X100510643Y-153324405D01*
X100415405Y-153372024D01*
X99605881Y-153372024D01*
X99605881Y-154276786D02*
X99605881Y-154086309D01*
X99653500Y-153991071D01*
X99701119Y-153943452D01*
X99843976Y-153848214D01*
X100034452Y-153800595D01*
X100415405Y-153800595D01*
X100510643Y-153848214D01*
X100558262Y-153895833D01*
X100605881Y-153991071D01*
X100605881Y-154181548D01*
X100558262Y-154276786D01*
X100510643Y-154324405D01*
X100415405Y-154372024D01*
X100177310Y-154372024D01*
X100082071Y-154324405D01*
X100034452Y-154276786D01*
X99986833Y-154181548D01*
X99986833Y-153991071D01*
X100034452Y-153895833D01*
X100082071Y-153848214D01*
X100177310Y-153800595D01*
X101565152Y-149338004D02*
X101228434Y-149674722D01*
X102171243Y-149203317D02*
X101565152Y-149338004D01*
X101699838Y-148731912D01*
X100386640Y-148832927D02*
X100790701Y-149236989D01*
X100588671Y-149034958D02*
X101295778Y-148327851D01*
X101262106Y-148496210D01*
X101262106Y-148630897D01*
X101295778Y-148731912D01*
X64017857Y-141452381D02*
X64351191Y-140976190D01*
X64589286Y-141452381D02*
X64589286Y-140452381D01*
X64208333Y-140452381D01*
X64113095Y-140500000D01*
X64065476Y-140547619D01*
X64017857Y-140642857D01*
X64017857Y-140785714D01*
X64065476Y-140880952D01*
X64113095Y-140928571D01*
X64208333Y-140976190D01*
X64589286Y-140976190D01*
X63065476Y-141452381D02*
X63636905Y-141452381D01*
X63351191Y-141452381D02*
X63351191Y-140452381D01*
X63446429Y-140595238D01*
X63541667Y-140690476D01*
X63636905Y-140738095D01*
X62113095Y-141452381D02*
X62684524Y-141452381D01*
X62398810Y-141452381D02*
X62398810Y-140452381D01*
X62494048Y-140595238D01*
X62589286Y-140690476D01*
X62684524Y-140738095D01*
M02*
