G04 #@! TF.FileFunction,Legend,Bot*
%FSLAX46Y46*%
G04 Gerber Fmt 4.6, Leading zero omitted, Abs format (unit mm)*
G04 Created by KiCad (PCBNEW 4.0.7) date *
%MOMM*%
%LPD*%
G01*
G04 APERTURE LIST*
%ADD10C,0.100000*%
%ADD11R,1.700000X1.200000*%
%ADD12O,1.700000X1.200000*%
%ADD13R,1.200000X1.700000*%
%ADD14O,1.200000X1.700000*%
%ADD15C,1.524000*%
%ADD16R,1.400000X3.200000*%
%ADD17C,1.800000*%
%ADD18R,0.700000X0.250000*%
%ADD19R,0.250000X0.700000*%
%ADD20R,1.725000X1.725000*%
%ADD21R,3.000000X1.000000*%
%ADD22R,0.800000X0.750000*%
%ADD23R,0.750000X0.800000*%
%ADD24R,1.250000X1.000000*%
%ADD25R,1.850000X1.850000*%
%ADD26C,1.850000*%
%ADD27R,1.700000X1.700000*%
%ADD28O,1.700000X1.700000*%
%ADD29R,0.800000X0.900000*%
%ADD30R,0.900000X0.500000*%
%ADD31R,0.500000X0.900000*%
%ADD32R,4.070000X1.770000*%
%ADD33R,1.770000X4.070000*%
%ADD34R,1.550000X0.600000*%
%ADD35R,0.500000X0.200000*%
%ADD36R,0.550000X0.200000*%
%ADD37R,0.200000X0.500000*%
%ADD38R,0.200000X0.550000*%
%ADD39R,0.875000X0.800000*%
%ADD40C,0.600000*%
%ADD41C,0.250000*%
%ADD42C,0.200000*%
%ADD43C,0.500000*%
%ADD44C,1.500000*%
%ADD45C,1.000000*%
%ADD46C,2.500000*%
%ADD47C,0.254000*%
%ADD48C,0.350000*%
%ADD49O,0.700000X2.200000*%
G04 APERTURE END LIST*
D10*
D11*
X83540000Y-91000000D03*
D12*
X83540000Y-93000000D03*
X83540000Y-95000000D03*
X83540000Y-97000000D03*
D13*
X94081000Y-88551000D03*
D14*
X92081000Y-88551000D03*
X90081000Y-88551000D03*
X88081000Y-88551000D03*
D11*
X78079000Y-99601500D03*
D12*
X78079000Y-101601500D03*
X78079000Y-103601500D03*
X78079000Y-105601500D03*
X78079000Y-107601500D03*
X78079000Y-109601500D03*
X78079000Y-111601500D03*
D11*
X112750000Y-110204500D03*
D12*
X112750000Y-108204500D03*
X112750000Y-106204500D03*
X112750000Y-104204500D03*
D11*
X112750000Y-99885500D03*
D12*
X112750000Y-97885500D03*
X112750000Y-95885500D03*
X112750000Y-93885500D03*
D11*
X117893500Y-99885000D03*
D12*
X117893500Y-97885000D03*
X117893500Y-95885000D03*
X117893500Y-93885000D03*
D11*
X117893500Y-110204500D03*
D12*
X117893500Y-108204500D03*
X117893500Y-106204500D03*
X117893500Y-104204500D03*
D15*
X59920000Y-142500000D03*
X59920000Y-145040000D03*
X59920000Y-147580000D03*
X59920000Y-150120000D03*
X59920000Y-152660000D03*
X59920000Y-155200000D03*
X59920000Y-157740000D03*
X59920000Y-160280000D03*
X59920000Y-162820000D03*
D16*
X62670000Y-170460000D03*
X62670000Y-134860000D03*
D17*
X61860000Y-131560000D03*
X61860000Y-173760000D03*
D18*
X98540000Y-145285000D03*
X98540000Y-145785000D03*
X98540000Y-146285000D03*
X98540000Y-146785000D03*
X98540000Y-147285000D03*
X98540000Y-147785000D03*
X98540000Y-148285000D03*
X98540000Y-148785000D03*
D19*
X97890000Y-149435000D03*
X97390000Y-149435000D03*
X96890000Y-149435000D03*
X96390000Y-149435000D03*
X95890000Y-149435000D03*
X95390000Y-149435000D03*
X94890000Y-149435000D03*
X94390000Y-149435000D03*
D18*
X93740000Y-148785000D03*
X93740000Y-148285000D03*
X93740000Y-147785000D03*
X93740000Y-147285000D03*
X93740000Y-146785000D03*
X93740000Y-146285000D03*
X93740000Y-145785000D03*
X93740000Y-145285000D03*
D19*
X94390000Y-144635000D03*
X94890000Y-144635000D03*
X95390000Y-144635000D03*
X95890000Y-144635000D03*
X96390000Y-144635000D03*
X96890000Y-144635000D03*
X97390000Y-144635000D03*
X97890000Y-144635000D03*
D20*
X95277500Y-147897500D03*
X95277500Y-146172500D03*
X97002500Y-147897500D03*
X97002500Y-146172500D03*
D21*
X136830000Y-168290000D03*
X131790000Y-168290000D03*
X136830000Y-165750000D03*
X131790000Y-165750000D03*
X136830000Y-163210000D03*
X131790000Y-163210000D03*
X136830000Y-160670000D03*
X131790000Y-160670000D03*
X136830000Y-158130000D03*
X131790000Y-158130000D03*
X136830000Y-155590000D03*
X131790000Y-155590000D03*
X136830000Y-153050000D03*
X131790000Y-153050000D03*
X136830000Y-150510000D03*
X131790000Y-150510000D03*
X136830000Y-147970000D03*
X131790000Y-147970000D03*
X136830000Y-145430000D03*
X131790000Y-145430000D03*
D22*
X93105000Y-151657500D03*
X94605000Y-151657500D03*
X94780000Y-140799000D03*
X96280000Y-140799000D03*
D23*
X102630000Y-158325000D03*
X102630000Y-156825000D03*
D24*
X124855000Y-133560000D03*
X124855000Y-131560000D03*
D23*
X100090000Y-151455000D03*
X100090000Y-149955000D03*
D22*
X96280000Y-142450000D03*
X94780000Y-142450000D03*
D24*
X107075000Y-132290000D03*
X107075000Y-130290000D03*
D23*
X131205000Y-138640000D03*
X131205000Y-137140000D03*
D22*
X97780000Y-151657500D03*
X96280000Y-151657500D03*
D10*
G36*
X105083008Y-144582018D02*
X104552678Y-145112348D01*
X103986992Y-144546662D01*
X104517322Y-144016332D01*
X105083008Y-144582018D01*
X105083008Y-144582018D01*
G37*
G36*
X106143668Y-145642678D02*
X105613338Y-146173008D01*
X105047652Y-145607322D01*
X105577982Y-145076992D01*
X106143668Y-145642678D01*
X106143668Y-145642678D01*
G37*
G36*
X104762018Y-149312652D02*
X105292348Y-149842982D01*
X104726662Y-150408668D01*
X104196332Y-149878338D01*
X104762018Y-149312652D01*
X104762018Y-149312652D01*
G37*
G36*
X105822678Y-148251992D02*
X106353008Y-148782322D01*
X105787322Y-149348008D01*
X105256992Y-148817678D01*
X105822678Y-148251992D01*
X105822678Y-148251992D01*
G37*
D22*
X67070000Y-154110000D03*
X65570000Y-154110000D03*
D23*
X95391000Y-158999500D03*
X95391000Y-157499500D03*
D22*
X100495000Y-159976000D03*
X101995000Y-159976000D03*
X62625000Y-144990000D03*
X64125000Y-144990000D03*
X96915000Y-159976000D03*
X98415000Y-159976000D03*
D23*
X62625000Y-149435000D03*
X62625000Y-147935000D03*
X62625000Y-154515000D03*
X62625000Y-153015000D03*
D25*
X128030000Y-134195000D03*
D26*
X128030000Y-131695000D03*
D27*
X89930000Y-138640000D03*
D28*
X92470000Y-138640000D03*
X95010000Y-138640000D03*
X97550000Y-138640000D03*
X100090000Y-138640000D03*
X102630000Y-138640000D03*
D13*
X95360000Y-171025000D03*
D14*
X97360000Y-171025000D03*
X99360000Y-171025000D03*
X101360000Y-171025000D03*
D27*
X142635000Y-160230000D03*
D28*
X145175000Y-160230000D03*
X142635000Y-157690000D03*
X145175000Y-157690000D03*
X142635000Y-155150000D03*
X145175000Y-155150000D03*
X142635000Y-152610000D03*
X145175000Y-152610000D03*
X142635000Y-150070000D03*
X145175000Y-150070000D03*
X142635000Y-147530000D03*
X145175000Y-147530000D03*
X142635000Y-144990000D03*
X145175000Y-144990000D03*
D29*
X91451500Y-150609500D03*
X89551500Y-150609500D03*
X90501500Y-148609500D03*
X88340000Y-136195000D03*
X86440000Y-136195000D03*
X87390000Y-134195000D03*
D30*
X106059000Y-158428000D03*
X106059000Y-156928000D03*
X104281000Y-156888500D03*
X104281000Y-158388500D03*
D31*
X99455000Y-132290000D03*
X97955000Y-132290000D03*
X97955000Y-134195000D03*
X99455000Y-134195000D03*
D30*
X102630000Y-155380000D03*
X102630000Y-153880000D03*
X104535000Y-155380000D03*
X104535000Y-153880000D03*
D31*
X101590000Y-143085000D03*
X100090000Y-143085000D03*
D30*
X94375000Y-154566500D03*
X94375000Y-153066500D03*
X96153000Y-154578500D03*
X96153000Y-153078500D03*
X92533500Y-153078500D03*
X92533500Y-154578500D03*
X62625000Y-161095000D03*
X62625000Y-159595000D03*
X62625000Y-156305000D03*
X62625000Y-157805000D03*
D17*
X106440000Y-162770000D03*
X98820000Y-165310000D03*
X93740000Y-162770000D03*
D10*
G36*
X122775000Y-141335000D02*
X122775000Y-142295000D01*
X119775000Y-142295000D01*
X119775000Y-141335000D01*
X122775000Y-141335000D01*
X122775000Y-141335000D01*
G37*
G36*
X118445000Y-141335000D02*
X118445000Y-144335000D01*
X117485000Y-144335000D01*
X117485000Y-141335000D01*
X118445000Y-141335000D01*
X118445000Y-141335000D01*
G37*
G36*
X116155000Y-141335000D02*
X116155000Y-144335000D01*
X115195000Y-144335000D01*
X115195000Y-141335000D01*
X116155000Y-141335000D01*
X116155000Y-141335000D01*
G37*
G36*
X113865000Y-141335000D02*
X113865000Y-144335000D01*
X112905000Y-144335000D01*
X112905000Y-141335000D01*
X113865000Y-141335000D01*
X113865000Y-141335000D01*
G37*
G36*
X111575000Y-141335000D02*
X111575000Y-142295000D01*
X108575000Y-142295000D01*
X108575000Y-141335000D01*
X111575000Y-141335000D01*
X111575000Y-141335000D01*
G37*
G36*
X122775000Y-139045000D02*
X122775000Y-140005000D01*
X119775000Y-140005000D01*
X119775000Y-139045000D01*
X122775000Y-139045000D01*
X122775000Y-139045000D01*
G37*
G36*
X122775000Y-136755000D02*
X122775000Y-137715000D01*
X119775000Y-137715000D01*
X119775000Y-136755000D01*
X122775000Y-136755000D01*
X122775000Y-136755000D01*
G37*
G36*
X111575000Y-139045000D02*
X111575000Y-140005000D01*
X108575000Y-140005000D01*
X108575000Y-139045000D01*
X111575000Y-139045000D01*
X111575000Y-139045000D01*
G37*
G36*
X111575000Y-136755000D02*
X111575000Y-137715000D01*
X108575000Y-137715000D01*
X108575000Y-136755000D01*
X111575000Y-136755000D01*
X111575000Y-136755000D01*
G37*
G36*
X122775000Y-132175000D02*
X122775000Y-133135000D01*
X119775000Y-133135000D01*
X119775000Y-132175000D01*
X122775000Y-132175000D01*
X122775000Y-132175000D01*
G37*
G36*
X111575000Y-132175000D02*
X111575000Y-133135000D01*
X108575000Y-133135000D01*
X108575000Y-132175000D01*
X111575000Y-132175000D01*
X111575000Y-132175000D01*
G37*
G36*
X118445000Y-130135000D02*
X118445000Y-133135000D01*
X117485000Y-133135000D01*
X117485000Y-130135000D01*
X118445000Y-130135000D01*
X118445000Y-130135000D01*
G37*
G36*
X116155000Y-130135000D02*
X116155000Y-133135000D01*
X115195000Y-133135000D01*
X115195000Y-130135000D01*
X116155000Y-130135000D01*
X116155000Y-130135000D01*
G37*
G36*
X113865000Y-130135000D02*
X113865000Y-133135000D01*
X112905000Y-133135000D01*
X112905000Y-130135000D01*
X113865000Y-130135000D01*
X113865000Y-130135000D01*
G37*
D32*
X119365000Y-132290000D03*
X114465000Y-132290000D03*
D33*
X110885000Y-133935000D03*
D34*
X138985000Y-136735000D03*
X138985000Y-138005000D03*
X138985000Y-139275000D03*
X138985000Y-140545000D03*
X133585000Y-140545000D03*
X133585000Y-139275000D03*
X133585000Y-138005000D03*
X133585000Y-136735000D03*
X71040000Y-156420000D03*
X71040000Y-157690000D03*
X71040000Y-158960000D03*
X71040000Y-160230000D03*
X65640000Y-160230000D03*
X65640000Y-158960000D03*
X65640000Y-157690000D03*
X65640000Y-156420000D03*
D35*
X100590000Y-155571000D03*
D36*
X100590000Y-155971000D03*
X100590000Y-156371000D03*
X100590000Y-156771000D03*
X100590000Y-157171000D03*
D35*
X100590000Y-157571000D03*
D37*
X100090000Y-158071000D03*
D38*
X99690000Y-158071000D03*
X99290000Y-158071000D03*
X98890000Y-158071000D03*
X98490000Y-158071000D03*
D37*
X98090000Y-158071000D03*
D35*
X97590000Y-157571000D03*
D36*
X97590000Y-157171000D03*
X97590000Y-156771000D03*
X97590000Y-156371000D03*
X97590000Y-155971000D03*
D35*
X97590000Y-155571000D03*
D37*
X98090000Y-155071000D03*
D38*
X98490000Y-155071000D03*
X98890000Y-155071000D03*
X99290000Y-155071000D03*
X99690000Y-155071000D03*
D37*
X100090000Y-155071000D03*
D39*
X98655000Y-156971000D03*
X98655000Y-156171000D03*
X99525000Y-156971000D03*
X99525000Y-156171000D03*
D10*
G36*
X101918704Y-145624009D02*
X102767232Y-144775481D01*
X103757182Y-145765431D01*
X102908654Y-146613959D01*
X101918704Y-145624009D01*
X101918704Y-145624009D01*
G37*
G36*
X103615761Y-147321066D02*
X104464289Y-146472538D01*
X105454239Y-147462488D01*
X104605711Y-148311016D01*
X103615761Y-147321066D01*
X103615761Y-147321066D01*
G37*
G36*
X102272258Y-148664569D02*
X103120786Y-147816041D01*
X104110736Y-148805991D01*
X103262208Y-149654519D01*
X102272258Y-148664569D01*
X102272258Y-148664569D01*
G37*
G36*
X100575201Y-146967512D02*
X101423729Y-146118984D01*
X102413679Y-147108934D01*
X101565151Y-147957462D01*
X100575201Y-146967512D01*
X100575201Y-146967512D01*
G37*
D31*
X64125000Y-142450000D03*
X62625000Y-142450000D03*
D40*
X82600000Y-98100000D03*
X84200000Y-98000000D03*
X102717000Y-86328500D03*
X100177000Y-86328500D03*
X97637000Y-86328500D03*
X98907000Y-86963500D03*
X101447000Y-86963500D03*
X103352000Y-86963500D03*
X104241000Y-107537500D03*
X108432000Y-109633000D03*
X107543000Y-110204500D03*
X107797000Y-109061500D03*
X105003000Y-107664500D03*
X104050500Y-114713000D03*
X111607000Y-105188000D03*
X102653500Y-114395500D03*
X102082000Y-113316000D03*
X100685000Y-113252500D03*
X102463000Y-99917500D03*
X99478500Y-95980500D03*
X84238500Y-113316000D03*
X116179000Y-93885000D03*
X115290000Y-93821500D03*
X114591500Y-93885000D03*
X96240000Y-86455500D03*
X96240000Y-87090500D03*
X94773590Y-87027000D03*
X94208000Y-86455500D03*
X104685500Y-102330500D03*
X105384000Y-101949500D03*
X107289000Y-101632000D03*
X107860500Y-100933500D03*
X103542500Y-101505000D03*
X104177500Y-100933500D03*
X105447500Y-98330000D03*
X108305000Y-97885500D03*
X108305000Y-98711000D03*
X80555500Y-104616500D03*
X79920500Y-99601500D03*
X83222500Y-98520500D03*
X82397000Y-98901500D03*
X114845500Y-107918500D03*
X115988500Y-107093000D03*
X114718500Y-106902500D03*
X114718500Y-105378500D03*
X115798000Y-105315000D03*
X115734500Y-103537000D03*
X114464500Y-102775000D03*
X114845500Y-104108500D03*
X90017000Y-115538500D03*
X90969500Y-115538500D03*
X96938500Y-115538500D03*
X98018000Y-115538500D03*
X79539500Y-104870500D03*
X90425000Y-104930000D03*
X88075000Y-104930000D03*
X86334000Y-105696000D03*
X85762500Y-105061000D03*
X86334000Y-104553000D03*
X90588500Y-109379000D03*
X89572500Y-109315500D03*
X88620000Y-109379000D03*
X87667500Y-109379000D03*
X92176000Y-96806000D03*
X92303000Y-97631500D03*
X93319000Y-96933000D03*
X98843500Y-105251500D03*
X95033500Y-104807000D03*
X96303500Y-104743500D03*
X97383000Y-104743500D03*
X104622000Y-105378500D03*
X103923500Y-104743500D03*
X105193500Y-104680000D03*
X108813000Y-105886500D03*
X107606500Y-105886500D03*
X107543000Y-104743500D03*
X108749500Y-104807000D03*
X104177500Y-98774500D03*
X97891000Y-101441500D03*
X97827500Y-100425500D03*
X96875000Y-100425500D03*
X95795500Y-100425500D03*
X82310000Y-163405000D03*
X88025000Y-163405000D03*
X88025000Y-165945000D03*
X82310000Y-165945000D03*
X76595000Y-165945000D03*
X71515000Y-165945000D03*
X65800000Y-165945000D03*
X65800000Y-169120000D03*
X71515000Y-169120000D03*
X76595000Y-169120000D03*
X82310000Y-169120000D03*
X88025000Y-169120000D03*
X88025000Y-173565000D03*
X82310000Y-173565000D03*
X76595000Y-173565000D03*
X71515000Y-173565000D03*
X65800000Y-173565000D03*
X60085000Y-169120000D03*
X60085000Y-165945000D03*
X57989500Y-157130500D03*
X58180000Y-153880000D03*
X58180000Y-149435000D03*
X58180000Y-146260000D03*
X58180000Y-141180000D03*
X70880000Y-153880000D03*
X67705000Y-150705000D03*
X71515000Y-150070000D03*
X75960000Y-145625000D03*
X70880000Y-145625000D03*
X67070000Y-144355000D03*
X70880000Y-141815000D03*
X75960000Y-141815000D03*
X81040000Y-141815000D03*
X84215000Y-138005000D03*
X80405000Y-136735000D03*
X75325000Y-136735000D03*
X70245000Y-136735000D03*
X66435000Y-136735000D03*
X66435000Y-139910000D03*
X61990000Y-139910000D03*
X59450000Y-138005000D03*
X59450000Y-132925000D03*
X64530000Y-131655000D03*
X70245000Y-131655000D03*
X77865000Y-131655000D03*
X59450000Y-129750000D03*
X65800000Y-129750000D03*
X70880000Y-129750000D03*
X77230000Y-129750000D03*
X82310000Y-129750000D03*
X61228000Y-161754000D03*
X75452000Y-152546500D03*
X77928500Y-150070000D03*
X80341500Y-147784000D03*
X82437000Y-145561500D03*
X85993000Y-142513500D03*
X86691500Y-143466000D03*
X85294500Y-143720000D03*
X91073000Y-143720000D03*
X89866500Y-143720000D03*
X89803000Y-142132500D03*
X89803000Y-140862500D03*
X90438000Y-146133000D03*
X89358500Y-146260000D03*
X87199500Y-146260000D03*
X85421500Y-146323500D03*
X83453000Y-148546000D03*
X81421000Y-150832000D03*
X79071500Y-152991000D03*
X76722000Y-155531000D03*
X74372500Y-157817000D03*
X92533500Y-144418500D03*
X66943000Y-159087000D03*
X66943000Y-158261500D03*
X62625000Y-158642500D03*
X61545500Y-159531500D03*
X61355000Y-157055000D03*
X61482000Y-154642000D03*
X63895000Y-154769000D03*
X85612000Y-153943500D03*
X83453000Y-156229500D03*
X85358000Y-156102500D03*
X87072500Y-156356500D03*
X89485500Y-158071000D03*
X87326500Y-158198000D03*
X85167500Y-158071000D03*
X83135500Y-158007500D03*
X81167000Y-157944000D03*
X79452500Y-159468000D03*
X78055500Y-160166500D03*
X76277500Y-160230000D03*
X72848500Y-160039500D03*
X91848887Y-146387000D03*
X93740000Y-135778590D03*
X92152407Y-135778590D03*
X95708500Y-135778590D03*
X93105000Y-165310000D03*
X93105000Y-169120000D03*
X93105000Y-173565000D03*
X101360000Y-129750000D03*
X96915000Y-129750000D03*
X93740000Y-129750000D03*
X89930000Y-129750000D03*
X94375000Y-131655000D03*
X91200000Y-131655000D03*
X88025000Y-131655000D03*
X84850000Y-131655000D03*
X97232500Y-154832500D03*
X104535000Y-169120000D03*
X103709500Y-170453500D03*
X105360500Y-170644000D03*
X107011500Y-169310500D03*
X109107000Y-166834000D03*
X108345000Y-165627500D03*
X107138500Y-167659500D03*
X104979500Y-167723000D03*
X102947500Y-167723000D03*
X101360000Y-168802500D03*
X104598500Y-162325500D03*
X103709500Y-163278000D03*
X103138000Y-164294000D03*
X101614000Y-164230500D03*
X102693500Y-163532000D03*
X93359000Y-142894500D03*
X93359000Y-141561000D03*
X93422500Y-140545000D03*
X95554091Y-148634290D03*
X97737598Y-146831500D03*
X143079500Y-142386500D03*
X142190500Y-142450000D03*
X142635000Y-143339000D03*
X102947500Y-147276000D03*
X106313000Y-143847000D03*
X105678000Y-144101000D03*
X106376500Y-144609000D03*
X106440000Y-146895000D03*
X106122500Y-147847500D03*
X105678000Y-146958500D03*
X104408000Y-145815500D03*
X122569000Y-142958000D03*
X121616500Y-142958000D03*
X120600500Y-142958000D03*
X119457500Y-142958000D03*
X116790500Y-142958000D03*
X114504500Y-142958000D03*
X112155000Y-143085000D03*
X107202000Y-150387500D03*
X107710000Y-149181000D03*
X107710000Y-147530000D03*
X107710000Y-146006000D03*
X104662000Y-130893000D03*
X105424000Y-130067500D03*
X105233500Y-128797500D03*
X107011500Y-128797500D03*
X109170500Y-128924500D03*
X109297500Y-130321500D03*
X111012000Y-130448500D03*
X110821500Y-128797500D03*
X112853500Y-128797500D03*
X115520500Y-128797500D03*
X118251000Y-128797500D03*
X120410000Y-129432500D03*
X122251500Y-129496000D03*
X124347000Y-129305500D03*
X126315500Y-130004000D03*
X126315500Y-131274000D03*
X128030000Y-129750000D03*
X130570000Y-129750000D03*
X130570000Y-131655000D03*
X97590000Y-154070500D03*
X107329000Y-154578500D03*
X107392500Y-153499000D03*
X104916000Y-153177598D03*
X101550500Y-151784500D03*
X124728000Y-142323000D03*
X107900500Y-144355000D03*
X134380000Y-148165000D03*
X139460000Y-141942000D03*
X140476000Y-142767500D03*
X140476000Y-141688000D03*
X126950500Y-139275000D03*
X127776000Y-138386000D03*
X126125000Y-138576500D03*
X124664500Y-139211500D03*
X123966000Y-138513000D03*
X122505500Y-138322500D03*
X120156000Y-138322500D03*
X136221500Y-138322500D03*
X137110500Y-138957500D03*
X136094500Y-139275000D03*
X137174000Y-140227500D03*
X111393000Y-138386000D03*
X108916500Y-138386000D03*
X107456000Y-138386000D03*
X107710000Y-139084500D03*
X106757500Y-139148000D03*
X113044000Y-138767000D03*
X114250500Y-138767000D03*
X115330000Y-138767000D03*
X116600000Y-138767000D03*
X117870000Y-138767000D03*
X119902000Y-134449000D03*
X118378000Y-134258500D03*
X116663500Y-134258500D03*
X115076000Y-134258500D03*
X113615500Y-134258500D03*
X105995500Y-156039000D03*
X107392500Y-156102500D03*
X107329000Y-157626500D03*
X105170000Y-157690000D03*
X103138000Y-159468000D03*
X100979000Y-158769500D03*
X101360000Y-158071000D03*
X94121000Y-158579000D03*
X95835500Y-160166500D03*
X97867500Y-158960000D03*
X99525000Y-156171000D03*
X98655000Y-156971000D03*
X95581500Y-139973500D03*
X94629000Y-143339000D03*
X118949500Y-140481500D03*
X117235000Y-140545000D03*
X115330000Y-140545000D03*
X113742500Y-140545000D03*
X97002500Y-147897500D03*
X95277500Y-146172500D03*
X108813000Y-102140000D03*
X111797500Y-101759000D03*
X106781000Y-92551500D03*
X117512500Y-101822500D03*
X92811000Y-94520000D03*
X103542500Y-95853500D03*
X92840199Y-92644199D03*
X106400000Y-95996502D03*
X104725500Y-159595000D03*
X92620500Y-105540323D03*
X92620500Y-104787910D03*
X92146801Y-107127301D03*
X92176000Y-106267500D03*
X92747500Y-108553500D03*
X92176000Y-107982000D03*
X81317500Y-104089000D03*
X87952150Y-102743694D03*
X81317500Y-103239000D03*
X87093437Y-102646278D03*
X89540448Y-102935701D03*
X88747665Y-102828401D03*
X91096500Y-103219500D03*
X90296489Y-103218505D03*
X92176810Y-103655880D03*
X91898874Y-102956684D03*
X93103011Y-100678253D03*
X92303000Y-100679500D03*
X87731000Y-97695000D03*
X87350000Y-100679500D03*
X100555002Y-112300000D03*
X91541000Y-109506000D03*
X97192500Y-97822000D03*
X94335000Y-101251000D03*
X85540685Y-96905917D03*
X99034000Y-91660002D03*
X103034500Y-92615000D03*
X85572000Y-100679500D03*
X119227000Y-92170500D03*
X108622500Y-90075000D03*
X101447000Y-89948000D03*
X119798500Y-111538000D03*
X109575000Y-113125500D03*
X94843000Y-109633000D03*
X102717000Y-115538500D03*
X83857500Y-102584500D03*
X80365000Y-114268500D03*
X81190500Y-100679500D03*
X103161500Y-113379500D03*
X93954000Y-110839500D03*
X85889500Y-94774000D03*
X85953000Y-108871000D03*
X84937000Y-87471500D03*
X89763000Y-94012000D03*
X76237500Y-110522000D03*
X86651500Y-109569500D03*
X85635500Y-86715410D03*
X75382801Y-112329199D03*
X94449998Y-94520000D03*
X84772936Y-111180499D03*
X86334000Y-91916500D03*
X84175000Y-110649000D03*
X87350000Y-91027500D03*
X81635000Y-91154500D03*
X80746000Y-97822000D03*
X92684000Y-109506000D03*
X81371010Y-93439491D03*
X81444500Y-97314000D03*
X85826000Y-102648000D03*
X94398500Y-91599000D03*
X120243000Y-93313500D03*
X99806101Y-91989533D03*
X109956000Y-91789500D03*
X94779500Y-110458500D03*
X86842000Y-94774000D03*
X84810000Y-100997000D03*
X93509500Y-91599000D03*
X111289500Y-93123000D03*
X116433000Y-98584000D03*
X119544500Y-110776000D03*
X110210000Y-112427000D03*
X94847969Y-108797714D03*
X86461000Y-96234500D03*
X86503695Y-100659711D03*
X86755000Y-145180500D03*
X64022000Y-160230000D03*
X98629500Y-152763483D03*
X99074000Y-154070500D03*
X101677500Y-156801000D03*
X98629500Y-149816000D03*
X100725000Y-132290000D03*
X92025500Y-148482500D03*
X141120835Y-137706252D03*
X93486000Y-155677500D03*
X141043645Y-136957809D03*
X93486000Y-156527500D03*
X93442861Y-149508490D03*
X92787500Y-148863500D03*
X92597975Y-146705763D03*
X92473888Y-145877786D03*
X91263500Y-142323000D03*
X90184000Y-136290500D03*
X89358500Y-147862410D03*
X124220000Y-143720000D03*
X97312493Y-150640078D03*
X101296500Y-154451500D03*
X123603041Y-142380590D03*
X107075000Y-142323000D03*
X102630000Y-152610000D03*
X110515559Y-144096972D03*
X86755000Y-147530000D03*
X96788000Y-158325000D03*
X91200000Y-149659498D03*
X97931000Y-135426179D03*
X96280000Y-139592500D03*
X133427500Y-141751500D03*
X99455000Y-148863500D03*
X97042000Y-143529500D03*
X98185000Y-143656500D03*
X98820000Y-143085000D03*
D41*
X83540000Y-97000000D02*
X83540000Y-97160000D01*
X83540000Y-97160000D02*
X82600000Y-98100000D01*
X83743000Y-98000000D02*
X83690000Y-98000000D01*
X83690000Y-98000000D02*
X83540000Y-97850000D01*
X83540000Y-97850000D02*
X83540000Y-97000000D01*
X84200000Y-98000000D02*
X83743000Y-98000000D01*
X83743000Y-98000000D02*
X83706000Y-98037000D01*
X96240000Y-86455500D02*
X97510000Y-86455500D01*
X97510000Y-86455500D02*
X97637000Y-86328500D01*
X97637000Y-86328500D02*
X100177000Y-86328500D01*
X101447000Y-86963500D02*
X98907000Y-86963500D01*
X108900500Y-89186000D02*
X105574500Y-89186000D01*
X105574500Y-89186000D02*
X103352000Y-86963500D01*
X109300764Y-109188500D02*
X113575500Y-109188500D01*
X113575500Y-109188500D02*
X114845500Y-107918500D01*
X108432000Y-109633000D02*
X108856264Y-109633000D01*
X108856264Y-109633000D02*
X109300764Y-109188500D01*
X107543000Y-110204500D02*
X107860500Y-110204500D01*
X107860500Y-110204500D02*
X108432000Y-109633000D01*
X105003000Y-107664500D02*
X106400000Y-109061500D01*
X106400000Y-109061500D02*
X107797000Y-109061500D01*
X104050500Y-114713000D02*
X102971000Y-114713000D01*
X102971000Y-114713000D02*
X102653500Y-114395500D01*
X111289500Y-105188000D02*
X111607000Y-105188000D01*
X111607000Y-105188000D02*
X113385000Y-105188000D01*
X100685000Y-113252500D02*
X102018500Y-113252500D01*
X102018500Y-113252500D02*
X102082000Y-113316000D01*
X102463000Y-99917500D02*
X103034500Y-99917500D01*
X103034500Y-99917500D02*
X104177500Y-98774500D01*
X99478500Y-95980500D02*
X99178501Y-95680501D01*
X99178501Y-95680501D02*
X94571499Y-95680501D01*
X93618999Y-96633001D02*
X93319000Y-96933000D01*
X94571499Y-95680501D02*
X93618999Y-96633001D01*
D42*
X94037736Y-104235500D02*
X91119500Y-104235500D01*
X91119500Y-104235500D02*
X90425000Y-104930000D01*
X95033500Y-104807000D02*
X94609236Y-104807000D01*
X94609236Y-104807000D02*
X94037736Y-104235500D01*
D41*
X114591500Y-93885000D02*
X115226500Y-93885000D01*
X115226500Y-93885000D02*
X115290000Y-93821500D01*
X80555500Y-104616500D02*
X80555500Y-104192236D01*
X80555500Y-104192236D02*
X80174500Y-103811236D01*
X80174500Y-103811236D02*
X80174500Y-101949500D01*
X112750000Y-93885500D02*
X112750000Y-93035500D01*
X112750000Y-93035500D02*
X108900500Y-89186000D01*
X92747500Y-85947500D02*
X93700000Y-85947500D01*
X93700000Y-85947500D02*
X94208000Y-86455500D01*
X85445000Y-85947500D02*
X92747500Y-85947500D01*
X84238500Y-87154000D02*
X85445000Y-85947500D01*
X84238500Y-88233500D02*
X84238500Y-87154000D01*
X84556000Y-88551000D02*
X84238500Y-88233500D01*
X88081000Y-88551000D02*
X84556000Y-88551000D01*
X112750000Y-104204500D02*
X112750000Y-103354500D01*
X113329500Y-102775000D02*
X114464500Y-102775000D01*
X112750000Y-103354500D02*
X113329500Y-102775000D01*
X113385000Y-105188000D02*
X114083500Y-105188000D01*
X112750000Y-104204500D02*
X112750000Y-105054500D01*
X112750000Y-105054500D02*
X112883500Y-105188000D01*
X112883500Y-105188000D02*
X113385000Y-105188000D01*
X108813000Y-105886500D02*
X110591000Y-105886500D01*
X110591000Y-105886500D02*
X111289500Y-105188000D01*
X114083500Y-105188000D02*
X114274000Y-105378500D01*
X114274000Y-105378500D02*
X114718500Y-105378500D01*
X110781500Y-104807000D02*
X111384000Y-104204500D01*
X111384000Y-104204500D02*
X112750000Y-104204500D01*
X108749500Y-104807000D02*
X110781500Y-104807000D01*
X108749500Y-104807000D02*
X112147500Y-104807000D01*
X112147500Y-104807000D02*
X112750000Y-104204500D01*
X105384000Y-101949500D02*
X105066500Y-101949500D01*
X105066500Y-101949500D02*
X104685500Y-102330500D01*
X107860500Y-100933500D02*
X107860500Y-101060500D01*
X107860500Y-101060500D02*
X107289000Y-101632000D01*
X104177500Y-100933500D02*
X104114000Y-100933500D01*
X104114000Y-100933500D02*
X103542500Y-101505000D01*
X108305000Y-98711000D02*
X108305000Y-97885500D01*
X79539500Y-104870500D02*
X80301500Y-104870500D01*
X80301500Y-104870500D02*
X80555500Y-104616500D01*
X79920500Y-99601500D02*
X79920500Y-101695500D01*
X79920500Y-101695500D02*
X80174500Y-101949500D01*
X78079000Y-99601500D02*
X79920500Y-99601500D01*
X83706000Y-98037000D02*
X83222500Y-98520500D01*
X82397000Y-98901500D02*
X82841500Y-98901500D01*
X82841500Y-98901500D02*
X83222500Y-98520500D01*
X115988500Y-107093000D02*
X115671000Y-107093000D01*
X115671000Y-107093000D02*
X114845500Y-107918500D01*
X114718500Y-105378500D02*
X114718500Y-106902500D01*
X115734500Y-103537000D02*
X115734500Y-105251500D01*
X115734500Y-105251500D02*
X115798000Y-105315000D01*
X114845500Y-104108500D02*
X114845500Y-103156000D01*
X114845500Y-103156000D02*
X114464500Y-102775000D01*
X90969500Y-115538500D02*
X90017000Y-115538500D01*
X98018000Y-115538500D02*
X96938500Y-115538500D01*
X86334000Y-104553000D02*
X86270500Y-104553000D01*
X86270500Y-104553000D02*
X85762500Y-105061000D01*
X89572500Y-109315500D02*
X90525000Y-109315500D01*
X90525000Y-109315500D02*
X90588500Y-109379000D01*
X87667500Y-109379000D02*
X88620000Y-109379000D01*
X92303000Y-102013000D02*
X97319500Y-102013000D01*
X97319500Y-102013000D02*
X97891000Y-101441500D01*
X91541000Y-101251000D02*
X92303000Y-102013000D01*
X91541000Y-99409500D02*
X91541000Y-101251000D01*
X92303000Y-98647500D02*
X91541000Y-99409500D01*
X92303000Y-97631500D02*
X92303000Y-98647500D01*
X93319000Y-96933000D02*
X93001500Y-96933000D01*
X93001500Y-96933000D02*
X92303000Y-97631500D01*
X97383000Y-104743500D02*
X96303500Y-104743500D01*
X105193500Y-104680000D02*
X103987000Y-104680000D01*
X103987000Y-104680000D02*
X103923500Y-104743500D01*
X107606500Y-105886500D02*
X108813000Y-105886500D01*
X108749500Y-104807000D02*
X107606500Y-104807000D01*
X107606500Y-104807000D02*
X107543000Y-104743500D01*
X97827500Y-100425500D02*
X97827500Y-101378000D01*
X97827500Y-101378000D02*
X97891000Y-101441500D01*
X95795500Y-100425500D02*
X96875000Y-100425500D01*
X64530000Y-131655000D02*
X64530000Y-131020000D01*
X64530000Y-131020000D02*
X65800000Y-129750000D01*
X59450000Y-132925000D02*
X59450000Y-129750000D01*
X60085000Y-169755000D02*
X60085000Y-174835000D01*
X64530000Y-175470000D02*
X65800000Y-174200000D01*
X60085000Y-174835000D02*
X60720000Y-175470000D01*
X60720000Y-175470000D02*
X64530000Y-175470000D01*
X65800000Y-174200000D02*
X65800000Y-173565000D01*
X60085000Y-169120000D02*
X60085000Y-169755000D01*
X59845500Y-169960000D02*
X59880000Y-169960000D01*
X59880000Y-169960000D02*
X60085000Y-169755000D01*
X88025000Y-165945000D02*
X88025000Y-163405000D01*
X76595000Y-165945000D02*
X82310000Y-165945000D01*
X65800000Y-165945000D02*
X71515000Y-165945000D01*
X71515000Y-169120000D02*
X65800000Y-169120000D01*
X82310000Y-169120000D02*
X76595000Y-169120000D01*
X88025000Y-173565000D02*
X88025000Y-169120000D01*
X76595000Y-173565000D02*
X82310000Y-173565000D01*
X65800000Y-173565000D02*
X71515000Y-173565000D01*
X62520000Y-165945000D02*
X62520000Y-163046000D01*
X62520000Y-166580000D02*
X62520000Y-165945000D01*
X62520000Y-165945000D02*
X60085000Y-165945000D01*
X58180000Y-153880000D02*
X58180000Y-156940000D01*
X58180000Y-156940000D02*
X57989500Y-157130500D01*
X58180000Y-146260000D02*
X58180000Y-149435000D01*
X59450000Y-138005000D02*
X59450000Y-139910000D01*
X59450000Y-139910000D02*
X58180000Y-141180000D01*
X71515000Y-150070000D02*
X70880000Y-150705000D01*
X70880000Y-150705000D02*
X67705000Y-150705000D01*
X70880000Y-145625000D02*
X75960000Y-145625000D01*
X70880000Y-141815000D02*
X69610000Y-141815000D01*
X69610000Y-141815000D02*
X67070000Y-144355000D01*
X81040000Y-141815000D02*
X75960000Y-141815000D01*
X80405000Y-136735000D02*
X82945000Y-136735000D01*
X82945000Y-136735000D02*
X84215000Y-138005000D01*
X70245000Y-136735000D02*
X75325000Y-136735000D01*
X66435000Y-139910000D02*
X66435000Y-136735000D01*
X59450000Y-138005000D02*
X60085000Y-138005000D01*
X60085000Y-138005000D02*
X61990000Y-139910000D01*
X77865000Y-131655000D02*
X70245000Y-131655000D01*
X65800000Y-129750000D02*
X59450000Y-129750000D01*
X77230000Y-129750000D02*
X70880000Y-129750000D01*
X89930000Y-129750000D02*
X82310000Y-129750000D01*
X62520000Y-163046000D02*
X61228000Y-161754000D01*
X80341500Y-147784000D02*
X78055500Y-150070000D01*
X78055500Y-150070000D02*
X77928500Y-150070000D01*
X85294500Y-143720000D02*
X84278500Y-143720000D01*
X84278500Y-143720000D02*
X82437000Y-145561500D01*
X86691500Y-143466000D02*
X86691500Y-143212000D01*
X86691500Y-143212000D02*
X85993000Y-142513500D01*
X85421500Y-146323500D02*
X85421500Y-143847000D01*
X85421500Y-143847000D02*
X85294500Y-143720000D01*
X91771500Y-144418500D02*
X91073000Y-143720000D01*
X91073000Y-143720000D02*
X90755500Y-143402500D01*
X89866500Y-143720000D02*
X91073000Y-143720000D01*
X89803000Y-140862500D02*
X89803000Y-142132500D01*
X87199500Y-146260000D02*
X89358500Y-146260000D01*
X83453000Y-148546000D02*
X85421500Y-146577500D01*
X85421500Y-146577500D02*
X85421500Y-146323500D01*
X79071500Y-152991000D02*
X81230500Y-150832000D01*
X81230500Y-150832000D02*
X81421000Y-150832000D01*
X74372500Y-157817000D02*
X76658500Y-155531000D01*
X76658500Y-155531000D02*
X76722000Y-155531000D01*
X88215500Y-139254500D02*
X88215500Y-139973500D01*
X89930000Y-138640000D02*
X88830000Y-138640000D01*
X88830000Y-138640000D02*
X88215500Y-139254500D01*
X90755500Y-143402500D02*
X89930000Y-143402500D01*
X92533500Y-144418500D02*
X91771500Y-144418500D01*
X62625000Y-158642500D02*
X62924999Y-158342501D01*
X62924999Y-158342501D02*
X66861999Y-158342501D01*
X66861999Y-158342501D02*
X66943000Y-158261500D01*
X61545500Y-159531500D02*
X62434500Y-158642500D01*
X62434500Y-158642500D02*
X62625000Y-158642500D01*
X61482000Y-154642000D02*
X61482000Y-156928000D01*
X61482000Y-156928000D02*
X61355000Y-157055000D01*
X62625000Y-154515000D02*
X63641000Y-154515000D01*
X63641000Y-154515000D02*
X63895000Y-154769000D01*
X69546500Y-156229500D02*
X68657500Y-155340500D01*
X69546500Y-158833000D02*
X69546500Y-156229500D01*
X74436000Y-158325000D02*
X75134500Y-157626500D01*
X70054500Y-158325000D02*
X74436000Y-158325000D01*
X69546500Y-158833000D02*
X70054500Y-158325000D01*
X69546500Y-159211500D02*
X69546500Y-158833000D01*
X71040000Y-160230000D02*
X70565000Y-160230000D01*
X70565000Y-160230000D02*
X69546500Y-159211500D01*
X85358000Y-156102500D02*
X83580000Y-156102500D01*
X83580000Y-156102500D02*
X83453000Y-156229500D01*
X89485500Y-158071000D02*
X87771000Y-156356500D01*
X87771000Y-156356500D02*
X87072500Y-156356500D01*
X85167500Y-158071000D02*
X87199500Y-158071000D01*
X87199500Y-158071000D02*
X87326500Y-158198000D01*
X81167000Y-157944000D02*
X83072000Y-157944000D01*
X83072000Y-157944000D02*
X83135500Y-158007500D01*
X78055500Y-160166500D02*
X78754000Y-160166500D01*
X78754000Y-160166500D02*
X79452500Y-159468000D01*
X72848500Y-160039500D02*
X76087000Y-160039500D01*
X76087000Y-160039500D02*
X76277500Y-160230000D01*
X71040000Y-160230000D02*
X72658000Y-160230000D01*
X72658000Y-160230000D02*
X72848500Y-160039500D01*
X93105000Y-151657500D02*
X93105000Y-152282500D01*
X93740000Y-153816500D02*
X93785999Y-153770501D01*
X93105000Y-152282500D02*
X93422500Y-152600000D01*
X93422500Y-152600000D02*
X93422500Y-153499000D01*
X93422500Y-153499000D02*
X93740000Y-153816500D01*
X93785999Y-153770501D02*
X97290001Y-153770501D01*
X97290001Y-153770501D02*
X97590000Y-154070500D01*
X59920000Y-155200000D02*
X57989500Y-157130500D01*
X57989500Y-157130500D02*
X57545000Y-157575000D01*
X57418000Y-160166500D02*
X57418000Y-157702000D01*
X57418000Y-157702000D02*
X57989500Y-157130500D01*
X57545000Y-160293500D02*
X57418000Y-160166500D01*
X57545000Y-160611000D02*
X57545000Y-167659500D01*
X57545000Y-157575000D02*
X57545000Y-160611000D01*
X57545000Y-160611000D02*
X57545000Y-160293500D01*
X57545000Y-167659500D02*
X59845500Y-169960000D01*
D42*
X96332763Y-135978589D02*
X96132764Y-135778590D01*
X99455000Y-134845000D02*
X98321411Y-135978589D01*
X98321411Y-135978589D02*
X96332763Y-135978589D01*
X99455000Y-134195000D02*
X99455000Y-134845000D01*
X93740000Y-135778590D02*
X92152407Y-135778590D01*
X96132764Y-135778590D02*
X95708500Y-135778590D01*
D41*
X107075000Y-130290000D02*
X101360000Y-130290000D01*
X101360000Y-129750000D02*
X101360000Y-130290000D01*
X93105000Y-173565000D02*
X93105000Y-169120000D01*
X96915000Y-129750000D02*
X101360000Y-129750000D01*
X89930000Y-129750000D02*
X93740000Y-129750000D01*
X91200000Y-131655000D02*
X94375000Y-131655000D01*
X84850000Y-131655000D02*
X88025000Y-131655000D01*
X97590000Y-154070500D02*
X97590000Y-154475000D01*
X97590000Y-154475000D02*
X97232500Y-154832500D01*
X103709500Y-170453500D02*
X103709500Y-169945500D01*
X103709500Y-169945500D02*
X104535000Y-169120000D01*
X107011500Y-169310500D02*
X106694000Y-169310500D01*
X106694000Y-169310500D02*
X105360500Y-170644000D01*
X108345000Y-165627500D02*
X108345000Y-166072000D01*
X108345000Y-166072000D02*
X109107000Y-166834000D01*
X104979500Y-167723000D02*
X107075000Y-167723000D01*
X107075000Y-167723000D02*
X107138500Y-167659500D01*
X101360000Y-168802500D02*
X101868000Y-168802500D01*
X101868000Y-168802500D02*
X102947500Y-167723000D01*
X103138000Y-164294000D02*
X103138000Y-163849500D01*
X103138000Y-163849500D02*
X103709500Y-163278000D01*
X102693500Y-163532000D02*
X102312500Y-163532000D01*
X102312500Y-163532000D02*
X101614000Y-164230500D01*
X93359000Y-141561000D02*
X93359000Y-142894500D01*
X90417500Y-140227500D02*
X93105000Y-140227500D01*
X93105000Y-140227500D02*
X93422500Y-140545000D01*
X89930000Y-138640000D02*
X89930000Y-139740000D01*
X89930000Y-139740000D02*
X90417500Y-140227500D01*
X95554091Y-148634290D02*
X95554091Y-148174091D01*
X95554091Y-148174091D02*
X95277500Y-147897500D01*
X97737598Y-146831500D02*
X97661500Y-146831500D01*
X97661500Y-146831500D02*
X97002500Y-146172500D01*
X142635000Y-143339000D02*
X142635000Y-142894500D01*
X142635000Y-142894500D02*
X142190500Y-142450000D01*
X142635000Y-144990000D02*
X142635000Y-143339000D01*
X142635000Y-143339000D02*
X142635000Y-141307000D01*
X105678000Y-144101000D02*
X106059000Y-144101000D01*
X106059000Y-144101000D02*
X106313000Y-143847000D01*
X106440000Y-146895000D02*
X106440000Y-144672500D01*
X106440000Y-144672500D02*
X106376500Y-144609000D01*
X105678000Y-146958500D02*
X105678000Y-147403000D01*
X105678000Y-147403000D02*
X106122500Y-147847500D01*
X104535000Y-147391777D02*
X104535000Y-145942500D01*
X104535000Y-145942500D02*
X104408000Y-145815500D01*
X107710000Y-149181000D02*
X107710000Y-149879500D01*
X107710000Y-149879500D02*
X107202000Y-150387500D01*
X107710000Y-146006000D02*
X107710000Y-147530000D01*
X105233500Y-128797500D02*
X105233500Y-129877000D01*
X105233500Y-129877000D02*
X105424000Y-130067500D01*
X109170500Y-128924500D02*
X107138500Y-128924500D01*
X107138500Y-128924500D02*
X107011500Y-128797500D01*
X107981500Y-130321500D02*
X109297500Y-130321500D01*
X109297500Y-130321500D02*
X112071500Y-130321500D01*
X111012000Y-130448500D02*
X109424500Y-130448500D01*
X109424500Y-130448500D02*
X109297500Y-130321500D01*
X112853500Y-128797500D02*
X110821500Y-128797500D01*
X118251000Y-128797500D02*
X115520500Y-128797500D01*
X122251500Y-129496000D02*
X120473500Y-129496000D01*
X120473500Y-129496000D02*
X120410000Y-129432500D01*
X124855000Y-131560000D02*
X124855000Y-129813500D01*
X124855000Y-129813500D02*
X124347000Y-129305500D01*
X127117500Y-131695000D02*
X126696500Y-131274000D01*
X126696500Y-131274000D02*
X126315500Y-131274000D01*
X128030000Y-131695000D02*
X127117500Y-131695000D01*
X128030000Y-129750000D02*
X128030000Y-131695000D01*
X130570000Y-131655000D02*
X130570000Y-129750000D01*
X98655000Y-156971000D02*
X99525000Y-156971000D01*
X99525000Y-156971000D02*
X99525000Y-156171000D01*
X98655000Y-156171000D02*
X98725000Y-156171000D01*
X98725000Y-156171000D02*
X99525000Y-156971000D01*
X97590000Y-155571000D02*
X97590000Y-154070500D01*
X97590000Y-154070500D02*
X97590000Y-153943500D01*
X97780000Y-151657500D02*
X97780000Y-153880500D01*
X97780000Y-153880500D02*
X97590000Y-154070500D01*
X104916000Y-153177598D02*
X107071098Y-153177598D01*
X107071098Y-153177598D02*
X107392500Y-153499000D01*
X100090000Y-151455000D02*
X101221000Y-151455000D01*
X101221000Y-151455000D02*
X101550500Y-151784500D01*
X125871000Y-141180000D02*
X124728000Y-142323000D01*
X124728000Y-142323000D02*
X123712000Y-143339000D01*
X106802160Y-144418500D02*
X107837000Y-144418500D01*
X107837000Y-144418500D02*
X107900500Y-144355000D01*
X105595660Y-145625000D02*
X106802160Y-144418500D01*
X101494440Y-147038223D02*
X104181446Y-147038223D01*
X104181446Y-147038223D02*
X104535000Y-147391777D01*
X131790000Y-147970000D02*
X134185000Y-147970000D01*
X134185000Y-147970000D02*
X134380000Y-148165000D01*
D43*
X131790000Y-147970000D02*
X131790000Y-150510000D01*
X131790000Y-145430000D02*
X131790000Y-147970000D01*
X131790000Y-145430000D02*
X136830000Y-145430000D01*
D41*
X140476000Y-142767500D02*
X140285500Y-142767500D01*
X140285500Y-142767500D02*
X139460000Y-141942000D01*
X140285500Y-140545000D02*
X140476000Y-140735500D01*
X140476000Y-140735500D02*
X140476000Y-141688000D01*
X138985000Y-140545000D02*
X140285500Y-140545000D01*
X127776000Y-138386000D02*
X127776000Y-138449500D01*
X127776000Y-138449500D02*
X126950500Y-139275000D01*
X124664500Y-139211500D02*
X125490000Y-139211500D01*
X125490000Y-139211500D02*
X126125000Y-138576500D01*
X122505500Y-138322500D02*
X123775500Y-138322500D01*
X123775500Y-138322500D02*
X123966000Y-138513000D01*
X120011499Y-138467001D02*
X120156000Y-138322500D01*
X117870000Y-138767000D02*
X118169999Y-138467001D01*
X118169999Y-138467001D02*
X120011499Y-138467001D01*
X136094500Y-139275000D02*
X136793000Y-139275000D01*
X136793000Y-139275000D02*
X137110500Y-138957500D01*
X138985000Y-140545000D02*
X137491500Y-140545000D01*
X137491500Y-140545000D02*
X137174000Y-140227500D01*
X139968000Y-137370000D02*
X137237500Y-137370000D01*
X145175000Y-142577000D02*
X139968000Y-137370000D01*
X145175000Y-144990000D02*
X145175000Y-142577000D01*
X137982178Y-138576500D02*
X136983500Y-138576500D01*
X139910401Y-138582401D02*
X137988079Y-138582401D01*
X137988079Y-138582401D02*
X137982178Y-138576500D01*
X142635000Y-141307000D02*
X139910401Y-138582401D01*
X117870000Y-138767000D02*
X118632000Y-138767000D01*
X112218500Y-138386000D02*
X111393000Y-138386000D01*
X111393000Y-138386000D02*
X108916500Y-138386000D01*
X108916500Y-138386000D02*
X107964000Y-138386000D01*
X107456000Y-138386000D02*
X108916500Y-138386000D01*
X107900500Y-139275000D02*
X107710000Y-139084500D01*
X107583000Y-138767000D02*
X107138500Y-138767000D01*
X107138500Y-138767000D02*
X106757500Y-139148000D01*
X107964000Y-138386000D02*
X107583000Y-138767000D01*
X112599500Y-138767000D02*
X112218500Y-138386000D01*
X113044000Y-138767000D02*
X112599500Y-138767000D01*
X113044000Y-138767000D02*
X112536000Y-138767000D01*
X113044000Y-138767000D02*
X113044000Y-138386000D01*
X113044000Y-138386000D02*
X113869500Y-137560500D01*
X114250500Y-138767000D02*
X113044000Y-138767000D01*
X115330000Y-138767000D02*
X114250500Y-138767000D01*
X116600000Y-138767000D02*
X115330000Y-138767000D01*
X117870000Y-138767000D02*
X116600000Y-138767000D01*
X121275000Y-137235000D02*
X119402000Y-137235000D01*
X119402000Y-137235000D02*
X117870000Y-138767000D01*
X119521000Y-143339000D02*
X118949500Y-142767500D01*
X118949500Y-142767500D02*
X118949500Y-140481500D01*
X123712000Y-143339000D02*
X119521000Y-143339000D01*
X129315000Y-141180000D02*
X125871000Y-141180000D01*
X131205000Y-138640000D02*
X131205000Y-139290000D01*
X131205000Y-139290000D02*
X129315000Y-141180000D01*
X115139500Y-129242000D02*
X115675000Y-129777500D01*
X115675000Y-129777500D02*
X115675000Y-131635000D01*
X114465000Y-129916500D02*
X115139500Y-129242000D01*
X114465000Y-132290000D02*
X114465000Y-129916500D01*
X115838000Y-133369500D02*
X114758500Y-132290000D01*
X114758500Y-132290000D02*
X114465000Y-132290000D01*
X115838000Y-133496500D02*
X115838000Y-133369500D01*
X115076000Y-134258500D02*
X115838000Y-133496500D01*
X113615500Y-134258500D02*
X113615500Y-133306000D01*
X113615500Y-133306000D02*
X114465000Y-132456500D01*
X114465000Y-132456500D02*
X114465000Y-132290000D01*
X118378000Y-134258500D02*
X119711500Y-134258500D01*
X119711500Y-134258500D02*
X119902000Y-134449000D01*
X115076000Y-134258500D02*
X116663500Y-134258500D01*
X114465000Y-132290000D02*
X114465000Y-133409000D01*
X114465000Y-133409000D02*
X113615500Y-134258500D01*
X112071500Y-130321500D02*
X113385000Y-131635000D01*
X107075000Y-130290000D02*
X107950000Y-130290000D01*
X107950000Y-130290000D02*
X107981500Y-130321500D01*
D42*
X107329000Y-157626500D02*
X107329000Y-156166000D01*
X107329000Y-156166000D02*
X107392500Y-156102500D01*
X104281000Y-158388500D02*
X104471500Y-158388500D01*
X104471500Y-158388500D02*
X105170000Y-157690000D01*
X103138000Y-159468000D02*
X103138000Y-158833000D01*
X103138000Y-158833000D02*
X102630000Y-158325000D01*
X101995000Y-159976000D02*
X102630000Y-159976000D01*
X102630000Y-159976000D02*
X103138000Y-159468000D01*
X102630000Y-158325000D02*
X101614000Y-158325000D01*
X101614000Y-158325000D02*
X101360000Y-158071000D01*
X95391000Y-158999500D02*
X94541500Y-158999500D01*
X94541500Y-158999500D02*
X94121000Y-158579000D01*
X95391000Y-158999500D02*
X95391000Y-159722000D01*
X95391000Y-159722000D02*
X95835500Y-160166500D01*
X96915000Y-159976000D02*
X96915000Y-159912500D01*
X96915000Y-159912500D02*
X97867500Y-158960000D01*
X97590000Y-155571000D02*
X97592401Y-155573401D01*
X97592401Y-155573401D02*
X98057401Y-155573401D01*
X98057401Y-155573401D02*
X98655000Y-156171000D01*
D41*
X98490000Y-155071000D02*
X98490000Y-156006000D01*
X98490000Y-156006000D02*
X98655000Y-156171000D01*
X97590000Y-153943500D02*
X97590000Y-152840822D01*
X98490000Y-154546000D02*
X97887500Y-153943500D01*
X98490000Y-155071000D02*
X98490000Y-154546000D01*
X97887500Y-153943500D02*
X97590000Y-153943500D01*
X97590000Y-152840822D02*
X97780000Y-152650822D01*
X97780000Y-152650822D02*
X97780000Y-152282500D01*
X97780000Y-152282500D02*
X97780000Y-151657500D01*
D42*
X94780000Y-140799000D02*
X94780000Y-140775000D01*
X94780000Y-140775000D02*
X95581500Y-139973500D01*
X94780000Y-142450000D02*
X94780000Y-140799000D01*
X94629000Y-143339000D02*
X94629000Y-142601000D01*
X94629000Y-142601000D02*
X94780000Y-142450000D01*
D41*
X115675000Y-142835000D02*
X115675000Y-140890000D01*
X115675000Y-140890000D02*
X115330000Y-140545000D01*
X115330000Y-140545000D02*
X117235000Y-140545000D01*
X95277500Y-146172500D02*
X97002500Y-147897500D01*
D44*
X110885000Y-133935000D02*
X112710011Y-135760011D01*
X112710011Y-135760011D02*
X125468726Y-135760011D01*
X125468726Y-135760011D02*
X126103725Y-136395010D01*
X126103725Y-136395010D02*
X129389992Y-136395010D01*
X142635000Y-134830000D02*
X149015011Y-141210011D01*
X129389992Y-136395010D02*
X130955002Y-134830000D01*
X130955002Y-134830000D02*
X142635000Y-134830000D01*
X149015011Y-141210011D02*
X149015011Y-155052070D01*
X149015011Y-155052070D02*
X146377081Y-157690000D01*
X146377081Y-157690000D02*
X145175000Y-157690000D01*
X110885000Y-133935000D02*
X110885000Y-136425000D01*
X110885000Y-136425000D02*
X110075000Y-137235000D01*
X107075000Y-132290000D02*
X109710000Y-132290000D01*
X109710000Y-132290000D02*
X110075000Y-132655000D01*
X92668002Y-157833004D02*
X88430000Y-153595002D01*
X88430000Y-153595002D02*
X88430000Y-151379500D01*
X88430000Y-151379500D02*
X89200000Y-150609500D01*
X89200000Y-150609500D02*
X89551500Y-150609500D01*
X65640000Y-156420000D02*
X62740000Y-156420000D01*
X62740000Y-156420000D02*
X62625000Y-156305000D01*
X64125000Y-144990000D02*
X64125000Y-142450000D01*
X65640000Y-156420000D02*
X65640000Y-154926500D01*
X68340000Y-157626500D02*
X65640000Y-154926500D01*
X65640000Y-154926500D02*
X65640000Y-154180000D01*
X68340000Y-160865000D02*
X68340000Y-157626500D01*
X64125000Y-144990000D02*
X64125000Y-146865000D01*
X64125000Y-146865000D02*
X64935000Y-147675000D01*
X64935000Y-147675000D02*
X64935000Y-153015000D01*
X62625000Y-153015000D02*
X60275000Y-153015000D01*
X60275000Y-153015000D02*
X59920000Y-152660000D01*
X65640000Y-153720000D02*
X64935000Y-153015000D01*
X64935000Y-153015000D02*
X62625000Y-153015000D01*
X65640000Y-154180000D02*
X65640000Y-153720000D01*
X65640000Y-154180000D02*
X65570000Y-154110000D01*
X63865000Y-162135000D02*
X69610000Y-162135000D01*
X62625000Y-161095000D02*
X62825000Y-161095000D01*
X62825000Y-161095000D02*
X63865000Y-162135000D01*
X92668002Y-160031998D02*
X81238002Y-160031998D01*
X81238002Y-160031998D02*
X79135000Y-162135000D01*
X79135000Y-162135000D02*
X69610000Y-162135000D01*
X69610000Y-162135000D02*
X68340000Y-160865000D01*
D43*
X91581000Y-136481000D02*
X90345000Y-135245000D01*
X90345000Y-135245000D02*
X87340000Y-135245000D01*
X86440000Y-136145000D02*
X86440000Y-136195000D01*
X87340000Y-135245000D02*
X86440000Y-136145000D01*
X103074500Y-136481000D02*
X91581000Y-136481000D01*
X108172590Y-141579090D02*
X103074500Y-136481000D01*
X108345000Y-143085000D02*
X108172590Y-142912590D01*
X108172590Y-142912590D02*
X108172590Y-141579090D01*
D41*
X100495000Y-159976000D02*
X100495000Y-161270000D01*
D44*
X138825000Y-143720000D02*
X135015000Y-143720000D01*
D42*
X97590000Y-157571000D02*
X95462500Y-157571000D01*
D41*
X100090000Y-148573496D02*
X100090000Y-149305000D01*
X99301504Y-147785000D02*
X100090000Y-148573496D01*
X98540000Y-147785000D02*
X99301504Y-147785000D01*
X100090000Y-149305000D02*
X100090000Y-149955000D01*
D44*
X109615000Y-155150000D02*
X109615000Y-157282002D01*
X109615000Y-157282002D02*
X105977003Y-160919999D01*
X105977003Y-160919999D02*
X103536003Y-160919999D01*
X103536003Y-160919999D02*
X102956002Y-161500000D01*
X102956002Y-161500000D02*
X100725000Y-161500000D01*
X135015000Y-143720000D02*
X126760000Y-143720000D01*
D43*
X133585000Y-136735000D02*
X134060000Y-136735000D01*
X134060000Y-136735000D02*
X135015000Y-137690000D01*
X135015000Y-137690000D02*
X135015000Y-143720000D01*
X133585000Y-136735000D02*
X131610000Y-136735000D01*
X131610000Y-136735000D02*
X131205000Y-137140000D01*
X95391000Y-157499500D02*
X93001506Y-157499500D01*
X93001506Y-157499500D02*
X92668002Y-157833004D01*
D44*
X92668002Y-157833004D02*
X92668002Y-160031998D01*
D42*
X95462500Y-157571000D02*
X95391000Y-157499500D01*
D44*
X109615000Y-151975000D02*
X109615000Y-155150000D01*
D41*
X104535000Y-155380000D02*
X109385000Y-155380000D01*
X109385000Y-155380000D02*
X109615000Y-155150000D01*
X102630000Y-155380000D02*
X104535000Y-155380000D01*
D43*
X97815000Y-141815000D02*
X100520000Y-141815000D01*
X100520000Y-141815000D02*
X101590000Y-142885000D01*
X101590000Y-142885000D02*
X101590000Y-143085000D01*
X96280000Y-142450000D02*
X97180000Y-142450000D01*
X97180000Y-142450000D02*
X97815000Y-141815000D01*
X101590000Y-143085000D02*
X108345000Y-143085000D01*
X108345000Y-143085000D02*
X110885000Y-145625000D01*
D44*
X110885000Y-145625000D02*
X109615000Y-146895000D01*
X109615000Y-146895000D02*
X109615000Y-151975000D01*
X124855000Y-145625000D02*
X110885000Y-145625000D01*
X100090000Y-149955000D02*
X101965000Y-149955000D01*
X101965000Y-149955000D02*
X103985000Y-151975000D01*
X103985000Y-151975000D02*
X109615000Y-151975000D01*
X92668002Y-160031998D02*
X93740000Y-160031998D01*
X100725000Y-161500000D02*
X95208002Y-161500000D01*
D45*
X100495000Y-161270000D02*
X100725000Y-161500000D01*
D44*
X95208002Y-161500000D02*
X93740000Y-160031998D01*
X136830000Y-168290000D02*
X138385000Y-168290000D01*
X138385000Y-168290000D02*
X140095000Y-166580000D01*
X140095000Y-166580000D02*
X140095000Y-144990000D01*
X140095000Y-144990000D02*
X138825000Y-143720000D01*
X126760000Y-143720000D02*
X124855000Y-145625000D01*
D41*
X96390000Y-144635000D02*
X96390000Y-142560000D01*
X96390000Y-142560000D02*
X96280000Y-142450000D01*
D42*
X95665000Y-157571000D02*
X95645000Y-157551000D01*
X99690000Y-158071000D02*
X99690000Y-159196000D01*
X99690000Y-159196000D02*
X100470000Y-159976000D01*
X100470000Y-159976000D02*
X100495000Y-159976000D01*
D41*
X111797500Y-101759000D02*
X109194000Y-101759000D01*
X109194000Y-101759000D02*
X108813000Y-102140000D01*
X119100000Y-100713502D02*
X119100000Y-95533339D01*
X119100000Y-95533339D02*
X118377171Y-94810510D01*
X118377171Y-94810510D02*
X109040010Y-94810510D01*
X109040010Y-94810510D02*
X107080999Y-92851499D01*
X107080999Y-92851499D02*
X106781000Y-92551500D01*
X117512500Y-101822500D02*
X117812499Y-101522501D01*
X118291001Y-101522501D02*
X119100000Y-100713502D01*
X117812499Y-101522501D02*
X118291001Y-101522501D01*
X92811000Y-94520000D02*
X93446000Y-95155000D01*
X93446000Y-95155000D02*
X102844000Y-95155000D01*
X102844000Y-95155000D02*
X103542500Y-95853500D01*
X92840199Y-92644199D02*
X93140198Y-92944198D01*
X93140198Y-92944198D02*
X99172698Y-92944198D01*
X103716998Y-93313500D02*
X105558498Y-95155000D01*
X99172698Y-92944198D02*
X99542000Y-93313500D01*
X99542000Y-93313500D02*
X103716998Y-93313500D01*
X105558498Y-95155000D02*
X106400000Y-95996502D01*
X104725500Y-159595000D02*
X104892000Y-159595000D01*
X104892000Y-159595000D02*
X106059000Y-158428000D01*
X80279000Y-106851500D02*
X90421552Y-106851500D01*
X78079000Y-107601500D02*
X79529000Y-107601500D01*
X91732729Y-105540323D02*
X92196236Y-105540323D01*
X90421552Y-106851500D02*
X91732729Y-105540323D01*
X79529000Y-107601500D02*
X80279000Y-106851500D01*
X92196236Y-105540323D02*
X92620500Y-105540323D01*
X92196236Y-104787910D02*
X92620500Y-104787910D01*
X91778038Y-104787910D02*
X92196236Y-104787910D01*
X79529000Y-105601500D02*
X80279000Y-106351500D01*
X78079000Y-105601500D02*
X79529000Y-105601500D01*
X90214448Y-106351500D02*
X91778038Y-104787910D01*
X80279000Y-106351500D02*
X90214448Y-106351500D01*
X110550000Y-107454500D02*
X111300000Y-108204500D01*
X92146801Y-107127301D02*
X92341302Y-106932800D01*
X111300000Y-108204500D02*
X112750000Y-108204500D01*
X92341302Y-106932800D02*
X105124248Y-106932800D01*
X105645948Y-107454500D02*
X110550000Y-107454500D01*
X105124248Y-106932800D02*
X105645948Y-107454500D01*
X92176000Y-106267500D02*
X92341302Y-106432802D01*
X111300000Y-106204500D02*
X112750000Y-106204500D01*
X92341302Y-106432802D02*
X105331354Y-106432802D01*
X110550000Y-106954500D02*
X111300000Y-106204500D01*
X105331354Y-106432802D02*
X105853052Y-106954500D01*
X105853052Y-106954500D02*
X110550000Y-106954500D01*
X114314052Y-111661000D02*
X105216948Y-111661000D01*
X105216948Y-111661000D02*
X101597448Y-108041500D01*
X115159000Y-110816052D02*
X114314052Y-111661000D01*
X93041553Y-108041500D02*
X101597448Y-108041500D01*
X92747500Y-108553500D02*
X92747500Y-108335553D01*
X92747500Y-108335553D02*
X93041553Y-108041500D01*
X115159000Y-109646106D02*
X115159000Y-110816052D01*
X117893500Y-108204500D02*
X116600606Y-108204500D01*
X116600606Y-108204500D02*
X115159000Y-109646106D01*
X114106948Y-111161000D02*
X105424052Y-111161000D01*
X105424052Y-111161000D02*
X101804552Y-107541500D01*
X114659000Y-110608948D02*
X114106948Y-111161000D01*
X92834447Y-107541500D02*
X101804552Y-107541500D01*
X92176000Y-107982000D02*
X92393947Y-107982000D01*
X92393947Y-107982000D02*
X92834447Y-107541500D01*
X114659000Y-109439000D02*
X114659000Y-110608948D01*
X117893500Y-106204500D02*
X114659000Y-109439000D01*
X87952150Y-102743694D02*
X86781844Y-103914000D01*
X86781844Y-103914000D02*
X81492501Y-103913999D01*
X81492501Y-103913999D02*
X81317500Y-104089000D01*
X86325715Y-103414000D02*
X81492501Y-103414001D01*
X87093437Y-102646278D02*
X86325715Y-103414000D01*
X81492501Y-103414001D02*
X81317500Y-103239000D01*
X78079000Y-101601500D02*
X78329000Y-101601500D01*
X89540448Y-94832896D02*
X87707552Y-93000000D01*
X89540448Y-102935701D02*
X89540448Y-94832896D01*
X87707552Y-93000000D02*
X85040000Y-93000000D01*
X85040000Y-93000000D02*
X83540000Y-93000000D01*
X88747665Y-94747217D02*
X87500447Y-93499999D01*
X87500447Y-93499999D02*
X85040001Y-93499999D01*
X85040001Y-93499999D02*
X83540000Y-95000000D01*
X88747665Y-102828401D02*
X88747665Y-94747217D01*
X91331000Y-93115052D02*
X91331000Y-90751000D01*
X91331000Y-90751000D02*
X92081000Y-90001000D01*
X90945996Y-93500056D02*
X91331000Y-93115052D01*
X92081000Y-90001000D02*
X92081000Y-88551000D01*
X91096500Y-103219500D02*
X90945996Y-103068996D01*
X90945996Y-103068996D02*
X90945996Y-93500056D01*
X90445998Y-93292950D02*
X90831000Y-92907948D01*
X90831000Y-92907948D02*
X90831000Y-90751000D01*
X90831000Y-90751000D02*
X90081000Y-90001000D01*
X90081000Y-90001000D02*
X90081000Y-88551000D01*
X90296489Y-103218505D02*
X90445998Y-103068996D01*
X90445998Y-103068996D02*
X90445998Y-93292950D01*
X116838552Y-97135000D02*
X114424992Y-99548560D01*
X116893500Y-97135000D02*
X116838552Y-97135000D01*
X117643500Y-97885000D02*
X116893500Y-97135000D01*
X117893500Y-97885000D02*
X117643500Y-97885000D01*
X114424992Y-100952604D02*
X111721716Y-103655880D01*
X92601074Y-103655880D02*
X92176810Y-103655880D01*
X111721716Y-103655880D02*
X92601074Y-103655880D01*
X114424992Y-99548560D02*
X114424992Y-100952604D01*
X117893500Y-95885000D02*
X116793500Y-95885000D01*
X92323138Y-102956684D02*
X91898874Y-102956684D01*
X116631448Y-96047052D02*
X116631448Y-96635000D01*
X116793500Y-95885000D02*
X116631448Y-96047052D01*
X113925001Y-99341447D02*
X113925001Y-100745501D01*
X116631448Y-96635000D02*
X113925001Y-99341447D01*
X111713818Y-102956684D02*
X92323138Y-102956684D01*
X113925001Y-100745501D02*
X111713818Y-102956684D01*
X110550000Y-97135500D02*
X111300000Y-97885500D01*
X92953628Y-99683924D02*
X95502052Y-97135500D01*
X95502052Y-97135500D02*
X110550000Y-97135500D01*
X111300000Y-97885500D02*
X112750000Y-97885500D01*
X93103011Y-100678253D02*
X92953628Y-100528870D01*
X92953628Y-100528870D02*
X92953628Y-99683924D01*
X92453630Y-99476818D02*
X95294948Y-96635500D01*
X95294948Y-96635500D02*
X110550000Y-96635500D01*
X111300000Y-95885500D02*
X112750000Y-95885500D01*
X110550000Y-96635500D02*
X111300000Y-95885500D01*
X92303000Y-100679500D02*
X92453630Y-100528870D01*
X92453630Y-100528870D02*
X92453630Y-99476818D01*
X87731000Y-97695000D02*
X87350000Y-98076000D01*
X87350000Y-98076000D02*
X87350000Y-100679500D01*
X100555002Y-112300000D02*
X92874500Y-112300000D01*
X91541000Y-110966500D02*
X91541000Y-109506000D01*
X92874500Y-112300000D02*
X91541000Y-110966500D01*
X94335000Y-100679500D02*
X97192500Y-97822000D01*
X94335000Y-101251000D02*
X94335000Y-100679500D01*
X85572000Y-96937232D02*
X85540685Y-96905917D01*
X85572000Y-100679500D02*
X85572000Y-96937232D01*
X99478500Y-92615000D02*
X99034000Y-92170500D01*
X99034000Y-92170500D02*
X99034000Y-91660002D01*
X103034500Y-92615000D02*
X99478500Y-92615000D01*
X119608000Y-93313500D02*
X119608000Y-92551500D01*
X119608000Y-92551500D02*
X119227000Y-92170500D01*
X108622500Y-90075000D02*
X101574000Y-90075000D01*
X101574000Y-90075000D02*
X101447000Y-89948000D01*
X119608000Y-94012000D02*
X119608000Y-93313500D01*
X120098499Y-111238001D02*
X119798500Y-111538000D01*
X120116000Y-110331500D02*
X120173989Y-110389489D01*
X120173989Y-111162511D02*
X120098499Y-111238001D01*
X120116000Y-104108500D02*
X120116000Y-110331500D01*
X119608000Y-103600500D02*
X120116000Y-104108500D01*
X119608000Y-94012000D02*
X119608000Y-103600500D01*
X120173989Y-110389489D02*
X120173989Y-111162511D01*
X105034750Y-112903250D02*
X105257000Y-113125500D01*
X105257000Y-113125500D02*
X109575000Y-113125500D01*
X104939500Y-112808000D02*
X105034750Y-112903250D01*
X101764500Y-109633000D02*
X104939500Y-112808000D01*
X94843000Y-109633000D02*
X101764500Y-109633000D01*
X80365000Y-114268500D02*
X80664999Y-114568499D01*
X80664999Y-114568499D02*
X81426999Y-114568499D01*
X81426999Y-114568499D02*
X83667000Y-116808500D01*
X83667000Y-116808500D02*
X101447000Y-116808500D01*
X101447000Y-116808500D02*
X102717000Y-115538500D01*
X83857500Y-102584500D02*
X83095500Y-102584500D01*
X83095500Y-102584500D02*
X81190500Y-100679500D01*
X81193510Y-100676490D02*
X81190500Y-100679500D01*
X94398500Y-111284000D02*
X101066000Y-111284000D01*
X101066000Y-111284000D02*
X103161500Y-113379500D01*
X93954000Y-110839500D02*
X94398500Y-111284000D01*
X85953000Y-108871000D02*
X83032000Y-108871000D01*
X83032000Y-108871000D02*
X81226510Y-110676490D01*
X79693996Y-97921504D02*
X81615500Y-96000000D01*
X81226510Y-110676490D02*
X77217490Y-110676490D01*
X77217490Y-110676490D02*
X76809000Y-110268000D01*
X76809000Y-110268000D02*
X76809000Y-109950500D01*
X76999500Y-97949000D02*
X79693996Y-97949000D01*
X76809000Y-109950500D02*
X76110500Y-109252000D01*
X76110500Y-109252000D02*
X76110500Y-98838000D01*
X76110500Y-98838000D02*
X76999500Y-97949000D01*
X79693996Y-97949000D02*
X79693996Y-97921504D01*
X81615500Y-96000000D02*
X84663500Y-96000000D01*
X84663500Y-96000000D02*
X85889500Y-94774000D01*
X86651500Y-109569500D02*
X83794000Y-109569500D01*
X80746000Y-112617500D02*
X77444000Y-112617500D01*
X83794000Y-109569500D02*
X80746000Y-112617500D01*
X77444000Y-112617500D02*
X76237500Y-111411000D01*
X76237500Y-111411000D02*
X76237500Y-110522000D01*
X88432661Y-87344500D02*
X85064000Y-87344500D01*
X85064000Y-87344500D02*
X84937000Y-87471500D01*
X88432661Y-87344500D02*
X89155990Y-88067829D01*
X89155990Y-88067829D02*
X89155990Y-91309490D01*
X89155990Y-91309490D02*
X89763000Y-91916500D01*
X89763000Y-91916500D02*
X89763000Y-94012000D01*
X76242010Y-110526510D02*
X76237500Y-110522000D01*
X94449998Y-94520000D02*
X93763500Y-94520000D01*
X93763500Y-94520000D02*
X92112500Y-92869000D01*
X91864410Y-86715410D02*
X86059764Y-86715410D01*
X93065000Y-90329000D02*
X93065000Y-87916000D01*
X86059764Y-86715410D02*
X85635500Y-86715410D01*
X93065000Y-87916000D02*
X91864410Y-86715410D01*
X92112500Y-92869000D02*
X92112500Y-91281500D01*
X92112500Y-91281500D02*
X93065000Y-90329000D01*
X82319935Y-113633500D02*
X76687102Y-113633500D01*
X84772936Y-111180499D02*
X82319935Y-113633500D01*
X75682800Y-112629198D02*
X75382801Y-112329199D01*
X76687102Y-113633500D02*
X75682800Y-112629198D01*
X86334000Y-91916500D02*
X82617339Y-91916500D01*
X82617339Y-91916500D02*
X82079500Y-92454339D01*
X79354510Y-97498990D02*
X76813100Y-97498990D01*
X75602500Y-111665000D02*
X77063000Y-113125500D01*
X82079500Y-92454339D02*
X82079500Y-94774000D01*
X82079500Y-94774000D02*
X79354510Y-97498990D01*
X76813100Y-97498990D02*
X76807590Y-97504500D01*
X76807590Y-97504500D02*
X76491500Y-97504500D01*
X76491500Y-97504500D02*
X75602500Y-98393500D01*
X83750736Y-110649000D02*
X84175000Y-110649000D01*
X75602500Y-98393500D02*
X75602500Y-111665000D01*
X77063000Y-113125500D02*
X81274236Y-113125500D01*
X81274236Y-113125500D02*
X83750736Y-110649000D01*
X92684000Y-109506000D02*
X90969500Y-107791500D01*
X90969500Y-107791500D02*
X80301500Y-107791500D01*
X80301500Y-107791500D02*
X79566490Y-108526510D01*
X80111000Y-98457000D02*
X80746000Y-97822000D01*
X79566490Y-108526510D02*
X77353510Y-108526510D01*
X77353510Y-108526510D02*
X76903990Y-108076990D01*
X76903990Y-108076990D02*
X76903990Y-98806510D01*
X76903990Y-98806510D02*
X77253500Y-98457000D01*
X77253500Y-98457000D02*
X80111000Y-98457000D01*
X81635000Y-91154500D02*
X81635000Y-90421998D01*
X81635000Y-90421998D02*
X82489998Y-89567000D01*
X82489998Y-89567000D02*
X85889500Y-89567000D01*
X85889500Y-89567000D02*
X87350000Y-91027500D01*
X94631089Y-85545089D02*
X95351000Y-86265000D01*
X95351000Y-86265000D02*
X95351000Y-90646500D01*
X81371010Y-93439491D02*
X80946499Y-93014980D01*
X80946499Y-93014980D02*
X80946499Y-89876906D01*
X85278316Y-85545089D02*
X94631089Y-85545089D01*
X80946499Y-89876906D02*
X85278316Y-85545089D01*
X95351000Y-90646500D02*
X94398500Y-91599000D01*
X81381000Y-97377500D02*
X81444500Y-97314000D01*
X81381000Y-98965000D02*
X81381000Y-97377500D01*
X81508000Y-99092000D02*
X81381000Y-98965000D01*
X81635000Y-99219000D02*
X81508000Y-99092000D01*
X85826000Y-102648000D02*
X85000500Y-101822500D01*
X85000500Y-101822500D02*
X84238500Y-101822500D01*
X84238500Y-101822500D02*
X81635000Y-99219000D01*
X94779500Y-110458500D02*
X101891500Y-110458500D01*
X111416500Y-112173000D02*
X120243000Y-112173000D01*
X120624000Y-93694500D02*
X120243000Y-93313500D01*
X101891500Y-110458500D02*
X105257000Y-113824000D01*
X105257000Y-113824000D02*
X109765500Y-113824000D01*
X109765500Y-113824000D02*
X111416500Y-112173000D01*
X120243000Y-112173000D02*
X120624000Y-111792000D01*
X120624000Y-111792000D02*
X120624000Y-93694500D01*
X102018500Y-91789500D02*
X101818467Y-91989533D01*
X101818467Y-91989533D02*
X99806101Y-91989533D01*
X109956000Y-91789500D02*
X102018500Y-91789500D01*
X85335085Y-96280915D02*
X86542001Y-95073999D01*
X85240683Y-96280915D02*
X85335085Y-96280915D01*
X84810000Y-100997000D02*
X84810000Y-96711598D01*
X86542001Y-95073999D02*
X86842000Y-94774000D01*
X84810000Y-96711598D02*
X85240683Y-96280915D01*
X93509500Y-91599000D02*
X93509500Y-92023264D01*
X93509500Y-92023264D02*
X93890500Y-92404264D01*
X93890500Y-92404264D02*
X93890500Y-92424500D01*
X96621000Y-92424500D02*
X98081500Y-90964000D01*
X98081500Y-90964000D02*
X110083000Y-90964000D01*
X93890500Y-92424500D02*
X96621000Y-92424500D01*
X111289500Y-93123000D02*
X111289500Y-92170500D01*
X111289500Y-92170500D02*
X110083000Y-90964000D01*
X117068000Y-102965500D02*
X116433000Y-102330500D01*
X116433000Y-102330500D02*
X116433000Y-98584000D01*
X118212661Y-102965500D02*
X117068000Y-102965500D01*
X119544500Y-110776000D02*
X119544500Y-104297339D01*
X119544500Y-104297339D02*
X118212661Y-102965500D01*
X105257000Y-112427000D02*
X110210000Y-112427000D01*
X105130000Y-112300000D02*
X105257000Y-112427000D01*
X101627714Y-108797714D02*
X105130000Y-112300000D01*
X94847969Y-108797714D02*
X101627714Y-108797714D01*
X86503695Y-97229695D02*
X86503695Y-96277195D01*
X86503695Y-96277195D02*
X86461000Y-96234500D01*
X86503695Y-100659711D02*
X86503695Y-97229695D01*
X93041500Y-145498000D02*
X92724000Y-145180500D01*
X92724000Y-145180500D02*
X86755000Y-145180500D01*
X93041500Y-145686500D02*
X93041500Y-145498000D01*
X93740000Y-145785000D02*
X93140000Y-145785000D01*
X93140000Y-145785000D02*
X93041500Y-145686500D01*
X65640000Y-160230000D02*
X64022000Y-160230000D01*
X93740000Y-145785000D02*
X93690001Y-145735001D01*
X99074000Y-154070500D02*
X98629500Y-153626000D01*
X98629500Y-153187747D02*
X98629500Y-152763483D01*
X98629500Y-153626000D02*
X98629500Y-153187747D01*
X101677500Y-156801000D02*
X102606000Y-156801000D01*
X102606000Y-156801000D02*
X102630000Y-156825000D01*
X97890000Y-149435000D02*
X98248500Y-149435000D01*
X98248500Y-149435000D02*
X98629500Y-149816000D01*
X104281000Y-156888500D02*
X102693500Y-156888500D01*
X102693500Y-156888500D02*
X102630000Y-156825000D01*
X106059000Y-156928000D02*
X104320500Y-156928000D01*
X104320500Y-156928000D02*
X104281000Y-156888500D01*
X99455000Y-132290000D02*
X100725000Y-132290000D01*
D46*
X128030000Y-134195000D02*
X127014998Y-134195000D01*
X127014998Y-134195000D02*
X126379998Y-133560000D01*
X126379998Y-133560000D02*
X124855000Y-133560000D01*
X119365000Y-132290000D02*
X118620000Y-132290000D01*
X118620000Y-132290000D02*
X117965000Y-131635000D01*
X121275000Y-132655000D02*
X119730000Y-132655000D01*
X119730000Y-132655000D02*
X119365000Y-132290000D01*
X122180000Y-133560000D02*
X121275000Y-132655000D01*
X124855000Y-133560000D02*
X122180000Y-133560000D01*
D41*
X96153000Y-153078500D02*
X96153000Y-151784500D01*
X96153000Y-151784500D02*
X96280000Y-151657500D01*
X96280000Y-151657500D02*
X95890000Y-151267500D01*
X95890000Y-151267500D02*
X95890000Y-149435000D01*
X96280000Y-151975000D02*
X96255000Y-151975000D01*
X102837943Y-145694720D02*
X103404620Y-145694720D01*
X103404620Y-145694720D02*
X104535000Y-144564340D01*
X100655280Y-145694720D02*
X99565000Y-146785000D01*
X99565000Y-146785000D02*
X98540000Y-146785000D01*
X102837943Y-145694720D02*
X100655280Y-145694720D01*
X102242969Y-148735280D02*
X103191497Y-148735280D01*
X99845000Y-147285000D02*
X101295280Y-148735280D01*
X98540000Y-147285000D02*
X99845000Y-147285000D01*
X101295280Y-148735280D02*
X102242969Y-148735280D01*
X104744340Y-149860660D02*
X104316877Y-149860660D01*
X104316877Y-149860660D02*
X103191497Y-148735280D01*
X94605000Y-151657500D02*
X94605000Y-152836500D01*
X94605000Y-152836500D02*
X94375000Y-153066500D01*
X95390000Y-149435000D02*
X95390000Y-150897500D01*
X94630000Y-151657500D02*
X94605000Y-151657500D01*
X95390000Y-150897500D02*
X94630000Y-151657500D01*
X94605000Y-151975000D02*
X94692500Y-151975000D01*
D42*
X94630000Y-151975000D02*
X94605000Y-151975000D01*
D44*
X59920000Y-145040000D02*
X62472590Y-145040000D01*
X62472590Y-145040000D02*
X62472590Y-144990000D01*
D42*
X98890000Y-158071000D02*
X98890000Y-159501000D01*
X98890000Y-159501000D02*
X98415000Y-159976000D01*
D44*
X61940000Y-150120000D02*
X62625000Y-149435000D01*
X59920000Y-150120000D02*
X61940000Y-150120000D01*
X59920000Y-147580000D02*
X62270000Y-147580000D01*
X62270000Y-147580000D02*
X62472591Y-147782591D01*
X62472591Y-147782591D02*
X62625000Y-147782591D01*
D41*
X94390000Y-144410000D02*
X94390000Y-144635000D01*
X94015000Y-139635000D02*
X94015000Y-144035000D01*
X95010000Y-138640000D02*
X94015000Y-139635000D01*
X94015000Y-144035000D02*
X94390000Y-144410000D01*
X93740000Y-147785000D02*
X92723000Y-147785000D01*
X92723000Y-147785000D02*
X92025500Y-148482500D01*
X141420834Y-138006251D02*
X141120835Y-137706252D01*
X147401500Y-150383500D02*
X147401500Y-143986917D01*
X145175000Y-152610000D02*
X147401500Y-150383500D01*
X147401500Y-143986917D02*
X141420834Y-138006251D01*
X94375000Y-154566500D02*
X94375000Y-155649394D01*
X94375000Y-155649394D02*
X94171893Y-155852501D01*
X94171893Y-155852501D02*
X93661001Y-155852501D01*
X93661001Y-155852501D02*
X93486000Y-155677500D01*
X92533500Y-154578500D02*
X94363000Y-154578500D01*
X94363000Y-154578500D02*
X94375000Y-154566500D01*
X141467909Y-136957809D02*
X141043645Y-136957809D01*
X147901500Y-152423500D02*
X147901500Y-143391400D01*
X145175000Y-155150000D02*
X147901500Y-152423500D01*
X147901500Y-143391400D02*
X141467909Y-136957809D01*
X96153000Y-154578500D02*
X94379001Y-156352499D01*
X94379001Y-156352499D02*
X93661001Y-156352499D01*
X93661001Y-156352499D02*
X93486000Y-156527500D01*
X93740000Y-149211351D02*
X93442861Y-149508490D01*
X93740000Y-148785000D02*
X93740000Y-149211351D01*
X93740000Y-148285000D02*
X93140000Y-148285000D01*
X93140000Y-148285000D02*
X92787500Y-148637500D01*
X92787500Y-148637500D02*
X92787500Y-148863500D01*
X92677212Y-146785000D02*
X92597975Y-146705763D01*
X93740000Y-146785000D02*
X92677212Y-146785000D01*
X93740000Y-146285000D02*
X93140000Y-146285000D01*
X92943599Y-146185012D02*
X92636373Y-145877786D01*
X92636373Y-145877786D02*
X92473888Y-145877786D01*
X93140000Y-146285000D02*
X93040012Y-146185012D01*
X93040012Y-146185012D02*
X92943599Y-146185012D01*
X143999999Y-141994999D02*
X143999999Y-162198500D01*
X139968000Y-170898000D02*
X143999999Y-166866001D01*
X143999999Y-162198500D02*
X143999999Y-162420499D01*
X143999999Y-166866001D02*
X143999999Y-162198500D01*
X130760500Y-170898000D02*
X139968000Y-170898000D01*
X129109500Y-169247000D02*
X130760500Y-170898000D01*
X129109500Y-155023000D02*
X129109500Y-169247000D01*
X130062000Y-154070500D02*
X129109500Y-155023000D01*
X136060500Y-154070500D02*
X130062000Y-154070500D01*
X136830000Y-155590000D02*
X136830000Y-154840000D01*
X136830000Y-154840000D02*
X136060500Y-154070500D01*
X138985000Y-138005000D02*
X140010000Y-138005000D01*
X140010000Y-138005000D02*
X143999999Y-141994999D01*
X138952000Y-169755000D02*
X135709998Y-169755000D01*
X133615001Y-167660003D02*
X133615001Y-156415001D01*
X135709998Y-169755000D02*
X133615001Y-167660003D01*
X133615001Y-156415001D02*
X132790000Y-155590000D01*
X132790000Y-155590000D02*
X131790000Y-155590000D01*
X141459999Y-167247001D02*
X138952000Y-169755000D01*
X141459999Y-162770000D02*
X141459999Y-162928499D01*
X141459999Y-140724999D02*
X141459999Y-162770000D01*
X141459999Y-162770000D02*
X141459999Y-167247001D01*
X138985000Y-139275000D02*
X140010000Y-139275000D01*
X140010000Y-139275000D02*
X141459999Y-140724999D01*
X91451500Y-150609500D02*
X94315500Y-150609500D01*
X94315500Y-150609500D02*
X94890000Y-150035000D01*
X94890000Y-150035000D02*
X94890000Y-149435000D01*
X90578911Y-151323911D02*
X92333500Y-153078500D01*
X90501500Y-149309500D02*
X90578911Y-149386911D01*
X90501500Y-148609500D02*
X90501500Y-149309500D01*
X92333500Y-153078500D02*
X92533500Y-153078500D01*
X90578911Y-149386911D02*
X90578911Y-151323911D01*
X90184000Y-136290500D02*
X88435500Y-136290500D01*
X93740000Y-145285000D02*
X93740000Y-144799500D01*
X93740000Y-144799500D02*
X91263500Y-142323000D01*
X88435500Y-136290500D02*
X88340000Y-136195000D01*
D43*
X87390000Y-134195000D02*
X64530000Y-134195000D01*
X63870000Y-134860000D02*
X62670000Y-134860000D01*
X64530000Y-134195000D02*
X64530000Y-134200000D01*
X64530000Y-134200000D02*
X63870000Y-134860000D01*
D41*
X89058501Y-148162409D02*
X89358500Y-147862410D01*
X71040000Y-158960000D02*
X78260910Y-158960000D01*
X78260910Y-158960000D02*
X89058501Y-148162409D01*
X126125000Y-141815000D02*
X124220000Y-143720000D01*
X130570000Y-141815000D02*
X126125000Y-141815000D01*
X131205000Y-141180000D02*
X130570000Y-141815000D01*
X97312493Y-150473551D02*
X97312493Y-150640078D01*
X96890000Y-150051058D02*
X97312493Y-150473551D01*
X96890000Y-149435000D02*
X96890000Y-150051058D01*
D42*
X102630000Y-153880000D02*
X101868000Y-153880000D01*
X101868000Y-153880000D02*
X101296500Y-154451500D01*
X100090000Y-155071000D02*
X100677000Y-155071000D01*
X100677000Y-155071000D02*
X101296500Y-154451500D01*
D41*
X131205000Y-141180000D02*
X133110000Y-139275000D01*
X133110000Y-139275000D02*
X133585000Y-139275000D01*
D42*
X96915000Y-149460000D02*
X96890000Y-149435000D01*
D41*
X74055000Y-156420000D02*
X72785000Y-157690000D01*
X72785000Y-157690000D02*
X71040000Y-157690000D01*
X74055000Y-152315678D02*
X74055000Y-156420000D01*
X89000678Y-137370000D02*
X74055000Y-152315678D01*
X103099002Y-137370000D02*
X89000678Y-137370000D01*
X132469999Y-137914999D02*
X130660001Y-137914999D01*
X128030000Y-140545000D02*
X125438631Y-140545000D01*
X125438631Y-140545000D02*
X123903040Y-142080591D01*
X130660001Y-137914999D02*
X128030000Y-140545000D01*
X133585000Y-138005000D02*
X132560000Y-138005000D01*
X132560000Y-138005000D02*
X132469999Y-137914999D01*
X123903040Y-142080591D02*
X123603041Y-142380590D01*
X103099002Y-137370000D02*
X107075000Y-141345998D01*
X107075000Y-141345998D02*
X107075000Y-142323000D01*
D42*
X97390000Y-149435000D02*
X97390000Y-149847496D01*
X97390000Y-149847496D02*
X98947000Y-151404496D01*
X98947000Y-151404496D02*
X98947000Y-152229000D01*
X98947000Y-152229000D02*
X99690000Y-152972000D01*
X99690000Y-152972000D02*
X99690000Y-154578500D01*
X99690000Y-154578500D02*
X99690000Y-154690000D01*
X99690000Y-155071000D02*
X99690000Y-154578500D01*
D41*
X103900000Y-153880000D02*
X104535000Y-153880000D01*
X102630000Y-152610000D02*
X103900000Y-153880000D01*
X102630000Y-152610000D02*
X100052000Y-152610000D01*
X100052000Y-152610000D02*
X99690000Y-152972000D01*
X133585000Y-138005000D02*
X133110000Y-138005000D01*
D44*
X59920000Y-142500000D02*
X62472590Y-142500000D01*
X62472590Y-142500000D02*
X62472590Y-142450000D01*
D41*
X60520000Y-161500000D02*
X62425000Y-159595000D01*
X59450000Y-161500000D02*
X60520000Y-161500000D01*
X62425000Y-159595000D02*
X62625000Y-159595000D01*
X58180000Y-160230000D02*
X59450000Y-161500000D01*
X58180000Y-159480000D02*
X58180000Y-160230000D01*
X59920000Y-157740000D02*
X58180000Y-159480000D01*
X63260000Y-158960000D02*
X62625000Y-159595000D01*
X65640000Y-158960000D02*
X63260000Y-158960000D01*
X62625000Y-157805000D02*
X65525000Y-157805000D01*
X65525000Y-157805000D02*
X65640000Y-157690000D01*
X59920000Y-160280000D02*
X62395000Y-157805000D01*
X62395000Y-157805000D02*
X62625000Y-157805000D01*
X110215560Y-143796973D02*
X110515559Y-144096972D01*
X110075000Y-141815000D02*
X110075000Y-143656413D01*
X110075000Y-143656413D02*
X110215560Y-143796973D01*
X93740000Y-147285000D02*
X87000000Y-147285000D01*
X87000000Y-147285000D02*
X86755000Y-147530000D01*
X93916500Y-150133500D02*
X92410502Y-150133500D01*
X92410502Y-150133500D02*
X91936500Y-149659498D01*
X91936500Y-149659498D02*
X91624264Y-149659498D01*
X91624264Y-149659498D02*
X91200000Y-149659498D01*
X94390000Y-149660000D02*
X93916500Y-150133500D01*
X94390000Y-149435000D02*
X94390000Y-149660000D01*
X96788000Y-158325000D02*
X97836000Y-158325000D01*
X97836000Y-158325000D02*
X98064999Y-158096001D01*
X91226501Y-149632997D02*
X91200000Y-149659498D01*
X97955000Y-134195000D02*
X97955000Y-135402179D01*
X97955000Y-135402179D02*
X97931000Y-135426179D01*
X96280000Y-140799000D02*
X96280000Y-139592500D01*
X94890000Y-144635000D02*
X94890000Y-144035000D01*
X94890000Y-144035000D02*
X95554999Y-143370001D01*
X95554999Y-141499001D02*
X96255000Y-140799000D01*
X95554999Y-143370001D02*
X95554999Y-141499001D01*
X96255000Y-140799000D02*
X96280000Y-140799000D01*
X97955000Y-134195000D02*
X97955000Y-132290000D01*
X133427500Y-141751500D02*
X133427500Y-140702500D01*
X133427500Y-140702500D02*
X133585000Y-140545000D01*
X98540000Y-148785000D02*
X99376500Y-148785000D01*
X99376500Y-148785000D02*
X99455000Y-148863500D01*
X97042000Y-139148000D02*
X97550000Y-138640000D01*
X97390000Y-144635000D02*
X97390000Y-143877500D01*
X97390000Y-143877500D02*
X97042000Y-143529500D01*
X100090000Y-139402000D02*
X100090000Y-138640000D01*
X97890000Y-144635000D02*
X97890000Y-143951500D01*
X97890000Y-143951500D02*
X98185000Y-143656500D01*
X100090000Y-143085000D02*
X98820000Y-143085000D01*
X98540000Y-145785000D02*
X99140000Y-145785000D01*
X99140000Y-145785000D02*
X100090000Y-144835000D01*
X100090000Y-144835000D02*
X100090000Y-143785000D01*
X100090000Y-143785000D02*
X100090000Y-143085000D01*
D47*
G36*
X90913983Y-108810785D02*
X90748808Y-108975673D01*
X90606162Y-109319201D01*
X90605838Y-109691167D01*
X90747883Y-110034943D01*
X90781000Y-110068118D01*
X90781000Y-110966500D01*
X90838852Y-111257339D01*
X91003599Y-111503901D01*
X92337099Y-112837401D01*
X92583661Y-113002148D01*
X92874500Y-113060000D01*
X99992539Y-113060000D01*
X100024675Y-113092192D01*
X100368203Y-113234838D01*
X100740169Y-113235162D01*
X101083945Y-113093117D01*
X101347194Y-112830327D01*
X101403038Y-112695840D01*
X102226378Y-113519180D01*
X102226338Y-113564667D01*
X102368383Y-113908443D01*
X102631173Y-114171692D01*
X102974701Y-114314338D01*
X103346667Y-114314662D01*
X103690443Y-114172617D01*
X103953692Y-113909827D01*
X104045919Y-113687721D01*
X104534795Y-114176597D01*
X104533447Y-114177465D01*
X104505006Y-114219090D01*
X104495000Y-114268500D01*
X104495000Y-115411500D01*
X103652111Y-115411500D01*
X103652162Y-115353333D01*
X103510117Y-115009557D01*
X103247327Y-114746308D01*
X102903799Y-114603662D01*
X102531833Y-114603338D01*
X102188057Y-114745383D01*
X101924808Y-115008173D01*
X101782162Y-115351701D01*
X101782121Y-115398577D01*
X101132198Y-116048500D01*
X83981802Y-116048500D01*
X82325663Y-114392361D01*
X82610774Y-114335648D01*
X82857336Y-114170901D01*
X84912616Y-112115621D01*
X84958103Y-112115661D01*
X85301879Y-111973616D01*
X85565128Y-111710826D01*
X85707774Y-111367298D01*
X85708098Y-110995332D01*
X85566053Y-110651556D01*
X85303263Y-110388307D01*
X85161641Y-110329500D01*
X86089037Y-110329500D01*
X86121173Y-110361692D01*
X86464701Y-110504338D01*
X86836667Y-110504662D01*
X87180443Y-110362617D01*
X87443692Y-110099827D01*
X87586338Y-109756299D01*
X87586662Y-109384333D01*
X87444617Y-109040557D01*
X87181827Y-108777308D01*
X86872967Y-108649057D01*
X86832657Y-108551500D01*
X90654698Y-108551500D01*
X90913983Y-108810785D01*
X90913983Y-108810785D01*
G37*
X90913983Y-108810785D02*
X90748808Y-108975673D01*
X90606162Y-109319201D01*
X90605838Y-109691167D01*
X90747883Y-110034943D01*
X90781000Y-110068118D01*
X90781000Y-110966500D01*
X90838852Y-111257339D01*
X91003599Y-111503901D01*
X92337099Y-112837401D01*
X92583661Y-113002148D01*
X92874500Y-113060000D01*
X99992539Y-113060000D01*
X100024675Y-113092192D01*
X100368203Y-113234838D01*
X100740169Y-113235162D01*
X101083945Y-113093117D01*
X101347194Y-112830327D01*
X101403038Y-112695840D01*
X102226378Y-113519180D01*
X102226338Y-113564667D01*
X102368383Y-113908443D01*
X102631173Y-114171692D01*
X102974701Y-114314338D01*
X103346667Y-114314662D01*
X103690443Y-114172617D01*
X103953692Y-113909827D01*
X104045919Y-113687721D01*
X104534795Y-114176597D01*
X104533447Y-114177465D01*
X104505006Y-114219090D01*
X104495000Y-114268500D01*
X104495000Y-115411500D01*
X103652111Y-115411500D01*
X103652162Y-115353333D01*
X103510117Y-115009557D01*
X103247327Y-114746308D01*
X102903799Y-114603662D01*
X102531833Y-114603338D01*
X102188057Y-114745383D01*
X101924808Y-115008173D01*
X101782162Y-115351701D01*
X101782121Y-115398577D01*
X101132198Y-116048500D01*
X83981802Y-116048500D01*
X82325663Y-114392361D01*
X82610774Y-114335648D01*
X82857336Y-114170901D01*
X84912616Y-112115621D01*
X84958103Y-112115661D01*
X85301879Y-111973616D01*
X85565128Y-111710826D01*
X85707774Y-111367298D01*
X85708098Y-110995332D01*
X85566053Y-110651556D01*
X85303263Y-110388307D01*
X85161641Y-110329500D01*
X86089037Y-110329500D01*
X86121173Y-110361692D01*
X86464701Y-110504338D01*
X86836667Y-110504662D01*
X87180443Y-110362617D01*
X87443692Y-110099827D01*
X87586338Y-109756299D01*
X87586662Y-109384333D01*
X87444617Y-109040557D01*
X87181827Y-108777308D01*
X86872967Y-108649057D01*
X86832657Y-108551500D01*
X90654698Y-108551500D01*
X90913983Y-108810785D01*
G36*
X105108547Y-107991901D02*
X105355108Y-108156648D01*
X105645948Y-108214500D01*
X110235198Y-108214500D01*
X110762599Y-108741901D01*
X111009160Y-108906648D01*
X111300000Y-108964500D01*
X111521941Y-108964500D01*
X111582074Y-109054496D01*
X111448559Y-109140410D01*
X111303569Y-109352610D01*
X111252560Y-109604500D01*
X111252560Y-110401000D01*
X105738854Y-110401000D01*
X103030654Y-107692800D01*
X104809446Y-107692800D01*
X105108547Y-107991901D01*
X105108547Y-107991901D01*
G37*
X105108547Y-107991901D02*
X105355108Y-108156648D01*
X105645948Y-108214500D01*
X110235198Y-108214500D01*
X110762599Y-108741901D01*
X111009160Y-108906648D01*
X111300000Y-108964500D01*
X111521941Y-108964500D01*
X111582074Y-109054496D01*
X111448559Y-109140410D01*
X111303569Y-109352610D01*
X111252560Y-109604500D01*
X111252560Y-110401000D01*
X105738854Y-110401000D01*
X103030654Y-107692800D01*
X104809446Y-107692800D01*
X105108547Y-107991901D01*
G36*
X115673000Y-102330500D02*
X115730852Y-102621339D01*
X115895599Y-102867901D01*
X116530599Y-103502901D01*
X116606828Y-103553835D01*
X116465214Y-103795124D01*
X116450038Y-103886891D01*
X116574769Y-104077500D01*
X117766500Y-104077500D01*
X117766500Y-104057500D01*
X118020500Y-104057500D01*
X118020500Y-104077500D01*
X118040500Y-104077500D01*
X118040500Y-104331500D01*
X118020500Y-104331500D01*
X118020500Y-104351500D01*
X117766500Y-104351500D01*
X117766500Y-104331500D01*
X116574769Y-104331500D01*
X116450038Y-104522109D01*
X116465214Y-104613876D01*
X116711567Y-105033625D01*
X116934391Y-105202090D01*
X116741130Y-105331223D01*
X116473416Y-105731886D01*
X116379407Y-106204500D01*
X116452290Y-106570908D01*
X114121599Y-108901599D01*
X113988218Y-109101218D01*
X113918525Y-109053599D01*
X114170084Y-108677114D01*
X114264093Y-108204500D01*
X114170084Y-107731886D01*
X113902370Y-107331223D01*
X113712715Y-107204500D01*
X113902370Y-107077777D01*
X114170084Y-106677114D01*
X114264093Y-106204500D01*
X114170084Y-105731886D01*
X113902370Y-105331223D01*
X113709109Y-105202090D01*
X113931933Y-105033625D01*
X114178286Y-104613876D01*
X114193462Y-104522109D01*
X114068731Y-104331500D01*
X112877000Y-104331500D01*
X112877000Y-104351500D01*
X112623000Y-104351500D01*
X112623000Y-104331500D01*
X112603000Y-104331500D01*
X112603000Y-104077500D01*
X112623000Y-104077500D01*
X112623000Y-104057500D01*
X112877000Y-104057500D01*
X112877000Y-104077500D01*
X114068731Y-104077500D01*
X114193462Y-103886891D01*
X114178286Y-103795124D01*
X113931933Y-103375375D01*
X113543701Y-103081853D01*
X113406310Y-103046088D01*
X114820398Y-101632000D01*
X115673000Y-101632000D01*
X115673000Y-102330500D01*
X115673000Y-102330500D01*
G37*
X115673000Y-102330500D02*
X115730852Y-102621339D01*
X115895599Y-102867901D01*
X116530599Y-103502901D01*
X116606828Y-103553835D01*
X116465214Y-103795124D01*
X116450038Y-103886891D01*
X116574769Y-104077500D01*
X117766500Y-104077500D01*
X117766500Y-104057500D01*
X118020500Y-104057500D01*
X118020500Y-104077500D01*
X118040500Y-104077500D01*
X118040500Y-104331500D01*
X118020500Y-104331500D01*
X118020500Y-104351500D01*
X117766500Y-104351500D01*
X117766500Y-104331500D01*
X116574769Y-104331500D01*
X116450038Y-104522109D01*
X116465214Y-104613876D01*
X116711567Y-105033625D01*
X116934391Y-105202090D01*
X116741130Y-105331223D01*
X116473416Y-105731886D01*
X116379407Y-106204500D01*
X116452290Y-106570908D01*
X114121599Y-108901599D01*
X113988218Y-109101218D01*
X113918525Y-109053599D01*
X114170084Y-108677114D01*
X114264093Y-108204500D01*
X114170084Y-107731886D01*
X113902370Y-107331223D01*
X113712715Y-107204500D01*
X113902370Y-107077777D01*
X114170084Y-106677114D01*
X114264093Y-106204500D01*
X114170084Y-105731886D01*
X113902370Y-105331223D01*
X113709109Y-105202090D01*
X113931933Y-105033625D01*
X114178286Y-104613876D01*
X114193462Y-104522109D01*
X114068731Y-104331500D01*
X112877000Y-104331500D01*
X112877000Y-104351500D01*
X112623000Y-104351500D01*
X112623000Y-104331500D01*
X112603000Y-104331500D01*
X112603000Y-104077500D01*
X112623000Y-104077500D01*
X112623000Y-104057500D01*
X112877000Y-104057500D01*
X112877000Y-104077500D01*
X114068731Y-104077500D01*
X114193462Y-103886891D01*
X114178286Y-103795124D01*
X113931933Y-103375375D01*
X113543701Y-103081853D01*
X113406310Y-103046088D01*
X114820398Y-101632000D01*
X115673000Y-101632000D01*
X115673000Y-102330500D01*
G36*
X111306538Y-104522109D02*
X111321714Y-104613876D01*
X111568067Y-105033625D01*
X111790891Y-105202090D01*
X111597630Y-105331223D01*
X111521941Y-105444500D01*
X111300000Y-105444500D01*
X111009160Y-105502352D01*
X110762599Y-105667099D01*
X110235198Y-106194500D01*
X106167854Y-106194500D01*
X105868755Y-105895401D01*
X105622193Y-105730654D01*
X105331354Y-105672802D01*
X93555385Y-105672802D01*
X93555662Y-105355156D01*
X93476708Y-105164071D01*
X93555338Y-104974709D01*
X93555662Y-104602743D01*
X93478452Y-104415880D01*
X111376052Y-104415880D01*
X111306538Y-104522109D01*
X111306538Y-104522109D01*
G37*
X111306538Y-104522109D02*
X111321714Y-104613876D01*
X111568067Y-105033625D01*
X111790891Y-105202090D01*
X111597630Y-105331223D01*
X111521941Y-105444500D01*
X111300000Y-105444500D01*
X111009160Y-105502352D01*
X110762599Y-105667099D01*
X110235198Y-106194500D01*
X106167854Y-106194500D01*
X105868755Y-105895401D01*
X105622193Y-105730654D01*
X105331354Y-105672802D01*
X93555385Y-105672802D01*
X93555662Y-105355156D01*
X93476708Y-105164071D01*
X93555338Y-104974709D01*
X93555662Y-104602743D01*
X93478452Y-104415880D01*
X111376052Y-104415880D01*
X111306538Y-104522109D01*
G36*
X80678852Y-99255839D02*
X80843599Y-99502401D01*
X81085606Y-99744408D01*
X81005333Y-99744338D01*
X80661557Y-99886383D01*
X80398308Y-100149173D01*
X80255662Y-100492701D01*
X80255338Y-100864667D01*
X80397383Y-101208443D01*
X80660173Y-101471692D01*
X81000000Y-101612801D01*
X81000000Y-102358517D01*
X80788557Y-102445883D01*
X80525308Y-102708673D01*
X80382662Y-103052201D01*
X80382338Y-103424167D01*
X80481503Y-103664166D01*
X80382662Y-103902201D01*
X80382338Y-104274167D01*
X80524383Y-104617943D01*
X80787173Y-104881192D01*
X81130701Y-105023838D01*
X81502667Y-105024162D01*
X81846443Y-104882117D01*
X82054924Y-104673999D01*
X86781844Y-104674000D01*
X87072683Y-104616148D01*
X87319245Y-104451401D01*
X88091830Y-103678816D01*
X88137317Y-103678856D01*
X88247756Y-103633224D01*
X88560866Y-103763239D01*
X88932832Y-103763563D01*
X89014629Y-103729765D01*
X89353649Y-103870539D01*
X89626486Y-103870777D01*
X89766162Y-104010697D01*
X90109690Y-104153343D01*
X90481656Y-104153667D01*
X90695398Y-104065351D01*
X90909701Y-104154338D01*
X91281667Y-104154662D01*
X91358170Y-104123052D01*
X91374011Y-104161391D01*
X91240637Y-104250509D01*
X89899646Y-105591500D01*
X80593802Y-105591500D01*
X80066401Y-105064099D01*
X79819839Y-104899352D01*
X79529000Y-104841500D01*
X79307059Y-104841500D01*
X79231370Y-104728223D01*
X79041715Y-104601500D01*
X79231370Y-104474777D01*
X79499084Y-104074114D01*
X79593093Y-103601500D01*
X79499084Y-103128886D01*
X79231370Y-102728223D01*
X79041715Y-102601500D01*
X79231370Y-102474777D01*
X79499084Y-102074114D01*
X79593093Y-101601500D01*
X79499084Y-101128886D01*
X79249870Y-100755910D01*
X79288699Y-100739827D01*
X79467327Y-100561198D01*
X79564000Y-100327809D01*
X79564000Y-99887250D01*
X79405250Y-99728500D01*
X78206000Y-99728500D01*
X78206000Y-99748500D01*
X77952000Y-99748500D01*
X77952000Y-99728500D01*
X77932000Y-99728500D01*
X77932000Y-99474500D01*
X77952000Y-99474500D01*
X77952000Y-99454500D01*
X78206000Y-99454500D01*
X78206000Y-99474500D01*
X79405250Y-99474500D01*
X79564000Y-99315750D01*
X79564000Y-99217000D01*
X80111000Y-99217000D01*
X80401839Y-99159148D01*
X80629377Y-99007113D01*
X80678852Y-99255839D01*
X80678852Y-99255839D01*
G37*
X80678852Y-99255839D02*
X80843599Y-99502401D01*
X81085606Y-99744408D01*
X81005333Y-99744338D01*
X80661557Y-99886383D01*
X80398308Y-100149173D01*
X80255662Y-100492701D01*
X80255338Y-100864667D01*
X80397383Y-101208443D01*
X80660173Y-101471692D01*
X81000000Y-101612801D01*
X81000000Y-102358517D01*
X80788557Y-102445883D01*
X80525308Y-102708673D01*
X80382662Y-103052201D01*
X80382338Y-103424167D01*
X80481503Y-103664166D01*
X80382662Y-103902201D01*
X80382338Y-104274167D01*
X80524383Y-104617943D01*
X80787173Y-104881192D01*
X81130701Y-105023838D01*
X81502667Y-105024162D01*
X81846443Y-104882117D01*
X82054924Y-104673999D01*
X86781844Y-104674000D01*
X87072683Y-104616148D01*
X87319245Y-104451401D01*
X88091830Y-103678816D01*
X88137317Y-103678856D01*
X88247756Y-103633224D01*
X88560866Y-103763239D01*
X88932832Y-103763563D01*
X89014629Y-103729765D01*
X89353649Y-103870539D01*
X89626486Y-103870777D01*
X89766162Y-104010697D01*
X90109690Y-104153343D01*
X90481656Y-104153667D01*
X90695398Y-104065351D01*
X90909701Y-104154338D01*
X91281667Y-104154662D01*
X91358170Y-104123052D01*
X91374011Y-104161391D01*
X91240637Y-104250509D01*
X89899646Y-105591500D01*
X80593802Y-105591500D01*
X80066401Y-105064099D01*
X79819839Y-104899352D01*
X79529000Y-104841500D01*
X79307059Y-104841500D01*
X79231370Y-104728223D01*
X79041715Y-104601500D01*
X79231370Y-104474777D01*
X79499084Y-104074114D01*
X79593093Y-103601500D01*
X79499084Y-103128886D01*
X79231370Y-102728223D01*
X79041715Y-102601500D01*
X79231370Y-102474777D01*
X79499084Y-102074114D01*
X79593093Y-101601500D01*
X79499084Y-101128886D01*
X79249870Y-100755910D01*
X79288699Y-100739827D01*
X79467327Y-100561198D01*
X79564000Y-100327809D01*
X79564000Y-99887250D01*
X79405250Y-99728500D01*
X78206000Y-99728500D01*
X78206000Y-99748500D01*
X77952000Y-99748500D01*
X77952000Y-99728500D01*
X77932000Y-99728500D01*
X77932000Y-99474500D01*
X77952000Y-99474500D01*
X77952000Y-99454500D01*
X78206000Y-99454500D01*
X78206000Y-99474500D01*
X79405250Y-99474500D01*
X79564000Y-99315750D01*
X79564000Y-99217000D01*
X80111000Y-99217000D01*
X80401839Y-99159148D01*
X80629377Y-99007113D01*
X80678852Y-99255839D01*
G36*
X110762599Y-98422901D02*
X111009160Y-98587648D01*
X111300000Y-98645500D01*
X111521941Y-98645500D01*
X111582074Y-98735496D01*
X111448559Y-98821410D01*
X111303569Y-99033610D01*
X111252560Y-99285500D01*
X111252560Y-100485500D01*
X111296838Y-100720817D01*
X111415472Y-100905179D01*
X111268557Y-100965883D01*
X111235382Y-100999000D01*
X109194000Y-100999000D01*
X108903160Y-101056852D01*
X108681613Y-101204885D01*
X108627833Y-101204838D01*
X108284057Y-101346883D01*
X108020808Y-101609673D01*
X107878162Y-101953201D01*
X107877950Y-102196684D01*
X92461337Y-102196684D01*
X92429201Y-102164492D01*
X92085673Y-102021846D01*
X91713707Y-102021522D01*
X91705996Y-102024708D01*
X91705996Y-101404899D01*
X91772673Y-101471692D01*
X92116201Y-101614338D01*
X92488167Y-101614662D01*
X92704615Y-101525228D01*
X92916212Y-101613091D01*
X93288178Y-101613415D01*
X93446112Y-101548158D01*
X93541883Y-101779943D01*
X93804673Y-102043192D01*
X94148201Y-102185838D01*
X94520167Y-102186162D01*
X94863943Y-102044117D01*
X95127192Y-101781327D01*
X95269838Y-101437799D01*
X95270162Y-101065833D01*
X95198034Y-100891268D01*
X97332180Y-98757122D01*
X97377667Y-98757162D01*
X97721443Y-98615117D01*
X97984692Y-98352327D01*
X98127338Y-98008799D01*
X98127437Y-97895500D01*
X110235198Y-97895500D01*
X110762599Y-98422901D01*
X110762599Y-98422901D01*
G37*
X110762599Y-98422901D02*
X111009160Y-98587648D01*
X111300000Y-98645500D01*
X111521941Y-98645500D01*
X111582074Y-98735496D01*
X111448559Y-98821410D01*
X111303569Y-99033610D01*
X111252560Y-99285500D01*
X111252560Y-100485500D01*
X111296838Y-100720817D01*
X111415472Y-100905179D01*
X111268557Y-100965883D01*
X111235382Y-100999000D01*
X109194000Y-100999000D01*
X108903160Y-101056852D01*
X108681613Y-101204885D01*
X108627833Y-101204838D01*
X108284057Y-101346883D01*
X108020808Y-101609673D01*
X107878162Y-101953201D01*
X107877950Y-102196684D01*
X92461337Y-102196684D01*
X92429201Y-102164492D01*
X92085673Y-102021846D01*
X91713707Y-102021522D01*
X91705996Y-102024708D01*
X91705996Y-101404899D01*
X91772673Y-101471692D01*
X92116201Y-101614338D01*
X92488167Y-101614662D01*
X92704615Y-101525228D01*
X92916212Y-101613091D01*
X93288178Y-101613415D01*
X93446112Y-101548158D01*
X93541883Y-101779943D01*
X93804673Y-102043192D01*
X94148201Y-102185838D01*
X94520167Y-102186162D01*
X94863943Y-102044117D01*
X95127192Y-101781327D01*
X95269838Y-101437799D01*
X95270162Y-101065833D01*
X95198034Y-100891268D01*
X97332180Y-98757122D01*
X97377667Y-98757162D01*
X97721443Y-98615117D01*
X97984692Y-98352327D01*
X98127338Y-98008799D01*
X98127437Y-97895500D01*
X110235198Y-97895500D01*
X110762599Y-98422901D01*
G36*
X83667000Y-96873000D02*
X83687000Y-96873000D01*
X83687000Y-97127000D01*
X83667000Y-97127000D01*
X83667000Y-98082547D01*
X83862696Y-98245256D01*
X84050000Y-98196498D01*
X84050000Y-98901500D01*
X83667000Y-98901500D01*
X83619211Y-98910834D01*
X83577197Y-98938697D01*
X83003348Y-99512546D01*
X82141000Y-98650198D01*
X82141000Y-97939852D01*
X82236692Y-97844327D01*
X82290681Y-97714309D01*
X82358067Y-97829125D01*
X82746299Y-98122647D01*
X83217304Y-98245256D01*
X83413000Y-98082547D01*
X83413000Y-97127000D01*
X83393000Y-97127000D01*
X83393000Y-96873000D01*
X83413000Y-96873000D01*
X83413000Y-96853000D01*
X83667000Y-96853000D01*
X83667000Y-96873000D01*
X83667000Y-96873000D01*
G37*
X83667000Y-96873000D02*
X83687000Y-96873000D01*
X83687000Y-97127000D01*
X83667000Y-97127000D01*
X83667000Y-98082547D01*
X83862696Y-98245256D01*
X84050000Y-98196498D01*
X84050000Y-98901500D01*
X83667000Y-98901500D01*
X83619211Y-98910834D01*
X83577197Y-98938697D01*
X83003348Y-99512546D01*
X82141000Y-98650198D01*
X82141000Y-97939852D01*
X82236692Y-97844327D01*
X82290681Y-97714309D01*
X82358067Y-97829125D01*
X82746299Y-98122647D01*
X83217304Y-98245256D01*
X83413000Y-98082547D01*
X83413000Y-97127000D01*
X83393000Y-97127000D01*
X83393000Y-96873000D01*
X83413000Y-96873000D01*
X83413000Y-96853000D01*
X83667000Y-96853000D01*
X83667000Y-96873000D01*
G36*
X92624201Y-95454838D02*
X92671077Y-95454879D01*
X92908599Y-95692401D01*
X93155161Y-95857148D01*
X93446000Y-95915000D01*
X95096370Y-95915000D01*
X95052362Y-95923754D01*
X95004108Y-95933352D01*
X94757547Y-96098099D01*
X91916229Y-98939417D01*
X91751482Y-99185979D01*
X91705996Y-99414650D01*
X91705996Y-95345500D01*
X92360887Y-95345500D01*
X92624201Y-95454838D01*
X92624201Y-95454838D01*
G37*
X92624201Y-95454838D02*
X92671077Y-95454879D01*
X92908599Y-95692401D01*
X93155161Y-95857148D01*
X93446000Y-95915000D01*
X95096370Y-95915000D01*
X95052362Y-95923754D01*
X95004108Y-95933352D01*
X94757547Y-96098099D01*
X91916229Y-98939417D01*
X91751482Y-99185979D01*
X91705996Y-99414650D01*
X91705996Y-95345500D01*
X92360887Y-95345500D01*
X92624201Y-95454838D01*
G36*
X112144214Y-92255000D02*
X118291926Y-92255000D01*
X118291838Y-92355667D01*
X118432479Y-92696045D01*
X118216196Y-92639744D01*
X118020500Y-92802453D01*
X118020500Y-93758000D01*
X118040500Y-93758000D01*
X118040500Y-94012000D01*
X118020500Y-94012000D01*
X118020500Y-94032000D01*
X117766500Y-94032000D01*
X117766500Y-94012000D01*
X116574769Y-94012000D01*
X116549569Y-94050510D01*
X114093604Y-94050510D01*
X114068731Y-94012500D01*
X112877000Y-94012500D01*
X112877000Y-94032500D01*
X112623000Y-94032500D01*
X112623000Y-94012500D01*
X112603000Y-94012500D01*
X112603000Y-93758500D01*
X112623000Y-93758500D01*
X112623000Y-92802953D01*
X112877000Y-92802953D01*
X112877000Y-93758500D01*
X114068731Y-93758500D01*
X114193462Y-93567891D01*
X114193380Y-93567391D01*
X116450038Y-93567391D01*
X116574769Y-93758000D01*
X117766500Y-93758000D01*
X117766500Y-92802453D01*
X117570804Y-92639744D01*
X117099799Y-92762353D01*
X116711567Y-93055875D01*
X116465214Y-93475624D01*
X116450038Y-93567391D01*
X114193380Y-93567391D01*
X114178286Y-93476124D01*
X113931933Y-93056375D01*
X113543701Y-92762853D01*
X113072696Y-92640244D01*
X112877000Y-92802953D01*
X112623000Y-92802953D01*
X112427304Y-92640244D01*
X112133322Y-92716772D01*
X112082617Y-92594057D01*
X112049500Y-92560882D01*
X112049500Y-92241838D01*
X112078044Y-92241838D01*
X112144214Y-92255000D01*
X112144214Y-92255000D01*
G37*
X112144214Y-92255000D02*
X118291926Y-92255000D01*
X118291838Y-92355667D01*
X118432479Y-92696045D01*
X118216196Y-92639744D01*
X118020500Y-92802453D01*
X118020500Y-93758000D01*
X118040500Y-93758000D01*
X118040500Y-94012000D01*
X118020500Y-94012000D01*
X118020500Y-94032000D01*
X117766500Y-94032000D01*
X117766500Y-94012000D01*
X116574769Y-94012000D01*
X116549569Y-94050510D01*
X114093604Y-94050510D01*
X114068731Y-94012500D01*
X112877000Y-94012500D01*
X112877000Y-94032500D01*
X112623000Y-94032500D01*
X112623000Y-94012500D01*
X112603000Y-94012500D01*
X112603000Y-93758500D01*
X112623000Y-93758500D01*
X112623000Y-92802953D01*
X112877000Y-92802953D01*
X112877000Y-93758500D01*
X114068731Y-93758500D01*
X114193462Y-93567891D01*
X114193380Y-93567391D01*
X116450038Y-93567391D01*
X116574769Y-93758000D01*
X117766500Y-93758000D01*
X117766500Y-92802453D01*
X117570804Y-92639744D01*
X117099799Y-92762353D01*
X116711567Y-93055875D01*
X116465214Y-93475624D01*
X116450038Y-93567391D01*
X114193380Y-93567391D01*
X114178286Y-93476124D01*
X113931933Y-93056375D01*
X113543701Y-92762853D01*
X113072696Y-92640244D01*
X112877000Y-92802953D01*
X112623000Y-92802953D01*
X112427304Y-92640244D01*
X112133322Y-92716772D01*
X112082617Y-92594057D01*
X112049500Y-92560882D01*
X112049500Y-92241838D01*
X112078044Y-92241838D01*
X112144214Y-92255000D01*
G36*
X84143883Y-88000443D02*
X84406673Y-88263692D01*
X84750201Y-88406338D01*
X85122167Y-88406662D01*
X85465943Y-88264617D01*
X85626340Y-88104500D01*
X86867972Y-88104500D01*
X86835744Y-88228304D01*
X86998453Y-88424000D01*
X87954000Y-88424000D01*
X87954000Y-88404000D01*
X88208000Y-88404000D01*
X88208000Y-88424000D01*
X88228000Y-88424000D01*
X88228000Y-88678000D01*
X88208000Y-88678000D01*
X88208000Y-88698000D01*
X87954000Y-88698000D01*
X87954000Y-88678000D01*
X86998453Y-88678000D01*
X86835744Y-88873696D01*
X86958353Y-89344701D01*
X86982395Y-89376500D01*
X86842000Y-89376500D01*
X86795841Y-89385185D01*
X86787716Y-89390414D01*
X86426901Y-89029599D01*
X86180339Y-88864852D01*
X85889500Y-88807000D01*
X83091207Y-88807000D01*
X84071922Y-87826285D01*
X84143883Y-88000443D01*
X84143883Y-88000443D01*
G37*
X84143883Y-88000443D02*
X84406673Y-88263692D01*
X84750201Y-88406338D01*
X85122167Y-88406662D01*
X85465943Y-88264617D01*
X85626340Y-88104500D01*
X86867972Y-88104500D01*
X86835744Y-88228304D01*
X86998453Y-88424000D01*
X87954000Y-88424000D01*
X87954000Y-88404000D01*
X88208000Y-88404000D01*
X88208000Y-88424000D01*
X88228000Y-88424000D01*
X88228000Y-88678000D01*
X88208000Y-88678000D01*
X88208000Y-88698000D01*
X87954000Y-88698000D01*
X87954000Y-88678000D01*
X86998453Y-88678000D01*
X86835744Y-88873696D01*
X86958353Y-89344701D01*
X86982395Y-89376500D01*
X86842000Y-89376500D01*
X86795841Y-89385185D01*
X86787716Y-89390414D01*
X86426901Y-89029599D01*
X86180339Y-88864852D01*
X85889500Y-88807000D01*
X83091207Y-88807000D01*
X84071922Y-87826285D01*
X84143883Y-88000443D01*
G36*
X105538525Y-85878525D02*
X105173263Y-86425178D01*
X105045000Y-87070000D01*
X105173263Y-87714822D01*
X105538525Y-88261475D01*
X106085178Y-88626737D01*
X106730000Y-88755000D01*
X107374822Y-88626737D01*
X107921475Y-88261475D01*
X108045000Y-88076607D01*
X108045000Y-88155786D01*
X108058162Y-88221956D01*
X108058162Y-88289422D01*
X108134282Y-88672106D01*
X108236563Y-88919034D01*
X108236564Y-88919036D01*
X108395616Y-89157075D01*
X108093557Y-89281883D01*
X108060382Y-89315000D01*
X102844000Y-89315000D01*
X102844000Y-87598500D01*
X102835315Y-87552341D01*
X102808035Y-87509947D01*
X102766410Y-87481506D01*
X102717000Y-87471500D01*
X96111000Y-87471500D01*
X96111000Y-86265000D01*
X96053148Y-85974161D01*
X95906710Y-85755000D01*
X105723393Y-85755000D01*
X105538525Y-85878525D01*
X105538525Y-85878525D01*
G37*
X105538525Y-85878525D02*
X105173263Y-86425178D01*
X105045000Y-87070000D01*
X105173263Y-87714822D01*
X105538525Y-88261475D01*
X106085178Y-88626737D01*
X106730000Y-88755000D01*
X107374822Y-88626737D01*
X107921475Y-88261475D01*
X108045000Y-88076607D01*
X108045000Y-88155786D01*
X108058162Y-88221956D01*
X108058162Y-88289422D01*
X108134282Y-88672106D01*
X108236563Y-88919034D01*
X108236564Y-88919036D01*
X108395616Y-89157075D01*
X108093557Y-89281883D01*
X108060382Y-89315000D01*
X102844000Y-89315000D01*
X102844000Y-87598500D01*
X102835315Y-87552341D01*
X102808035Y-87509947D01*
X102766410Y-87481506D01*
X102717000Y-87471500D01*
X96111000Y-87471500D01*
X96111000Y-86265000D01*
X96053148Y-85974161D01*
X95906710Y-85755000D01*
X105723393Y-85755000D01*
X105538525Y-85878525D01*
G36*
X94591000Y-86579802D02*
X94591000Y-87053560D01*
X93481000Y-87053560D01*
X93309611Y-87085809D01*
X92528891Y-86305089D01*
X94316287Y-86305089D01*
X94591000Y-86579802D01*
X94591000Y-86579802D01*
G37*
X94591000Y-86579802D02*
X94591000Y-87053560D01*
X93481000Y-87053560D01*
X93309611Y-87085809D01*
X92528891Y-86305089D01*
X94316287Y-86305089D01*
X94591000Y-86579802D01*
G36*
X57477852Y-160520839D02*
X57642599Y-160767401D01*
X58819672Y-161944474D01*
X58736371Y-162027630D01*
X58523243Y-162540900D01*
X58522758Y-163096661D01*
X58734990Y-163610303D01*
X59127630Y-164003629D01*
X59640900Y-164216757D01*
X60196661Y-164217242D01*
X60710303Y-164005010D01*
X60865424Y-163850159D01*
X92839446Y-163850159D01*
X92925852Y-164106643D01*
X93499336Y-164316458D01*
X94109460Y-164290839D01*
X94554148Y-164106643D01*
X94640554Y-163850159D01*
X93740000Y-162949605D01*
X92839446Y-163850159D01*
X60865424Y-163850159D01*
X61103629Y-163612370D01*
X61316757Y-163099100D01*
X61317242Y-162543339D01*
X61105010Y-162029697D01*
X61085075Y-162009727D01*
X61395238Y-161699564D01*
X61645657Y-162074343D01*
X62094983Y-162374573D01*
X62158527Y-162387213D01*
X62885657Y-163114343D01*
X63334983Y-163414573D01*
X63865000Y-163520000D01*
X79135000Y-163520000D01*
X79665017Y-163414573D01*
X80114343Y-163114343D01*
X80699350Y-162529336D01*
X92193542Y-162529336D01*
X92219161Y-163139460D01*
X92403357Y-163584148D01*
X92659841Y-163670554D01*
X93560395Y-162770000D01*
X92659841Y-161869446D01*
X92403357Y-161955852D01*
X92193542Y-162529336D01*
X80699350Y-162529336D01*
X81811688Y-161416998D01*
X92965346Y-161416998D01*
X92925852Y-161433357D01*
X92839446Y-161689841D01*
X93740000Y-162590395D01*
X93754143Y-162576253D01*
X93933748Y-162755858D01*
X93919605Y-162770000D01*
X94820159Y-163670554D01*
X95076643Y-163584148D01*
X95286458Y-163010664D01*
X95281181Y-162885000D01*
X102956002Y-162885000D01*
X103486019Y-162779573D01*
X103935345Y-162479343D01*
X104109689Y-162304999D01*
X104971012Y-162304999D01*
X104905267Y-162463330D01*
X104904735Y-163073991D01*
X105137932Y-163638371D01*
X105569357Y-164070551D01*
X106133330Y-164304733D01*
X106743991Y-164305265D01*
X107308371Y-164072068D01*
X107740551Y-163640643D01*
X107974733Y-163076670D01*
X107975265Y-162466009D01*
X107890970Y-162262000D01*
X110653167Y-162262000D01*
X110653167Y-176871264D01*
X110554431Y-176970000D01*
X54812467Y-176970000D01*
X53481540Y-176705262D01*
X52410429Y-175989568D01*
X51694738Y-174918459D01*
X51443420Y-173655000D01*
X52560000Y-173655000D01*
X52726323Y-174491163D01*
X53199972Y-175200028D01*
X53908837Y-175673677D01*
X54745000Y-175840000D01*
X55581163Y-175673677D01*
X56290028Y-175200028D01*
X56763677Y-174491163D01*
X56848646Y-174063991D01*
X60324735Y-174063991D01*
X60557932Y-174628371D01*
X60989357Y-175060551D01*
X61553330Y-175294733D01*
X62163991Y-175295265D01*
X62728371Y-175062068D01*
X63160551Y-174630643D01*
X63394733Y-174066670D01*
X63395265Y-173456009D01*
X63162068Y-172891629D01*
X62965783Y-172695000D01*
X63496310Y-172695000D01*
X63729699Y-172598327D01*
X63908327Y-172419698D01*
X64005000Y-172186309D01*
X64005000Y-170745750D01*
X63846250Y-170587000D01*
X62797000Y-170587000D01*
X62797000Y-170607000D01*
X62543000Y-170607000D01*
X62543000Y-170587000D01*
X61493750Y-170587000D01*
X61335000Y-170745750D01*
X61335000Y-172186309D01*
X61380888Y-172297093D01*
X60991629Y-172457932D01*
X60559449Y-172889357D01*
X60325267Y-173453330D01*
X60324735Y-174063991D01*
X56848646Y-174063991D01*
X56930000Y-173655000D01*
X56763677Y-172818837D01*
X56290028Y-172109972D01*
X55581163Y-171636323D01*
X54745000Y-171470000D01*
X53908837Y-171636323D01*
X53199972Y-172109972D01*
X52726323Y-172818837D01*
X52560000Y-173655000D01*
X51443420Y-173655000D01*
X51694738Y-172391541D01*
X52410429Y-171320432D01*
X53481540Y-170604738D01*
X54812467Y-170340000D01*
X55745000Y-170340000D01*
X55811170Y-170326838D01*
X55878636Y-170326838D01*
X56261319Y-170250718D01*
X56508248Y-170148437D01*
X56508249Y-170148436D01*
X56832672Y-169931664D01*
X57021664Y-169742672D01*
X57238437Y-169418249D01*
X57280803Y-169315968D01*
X57340718Y-169171319D01*
X57416838Y-168788636D01*
X57416838Y-168733691D01*
X61335000Y-168733691D01*
X61335000Y-170174250D01*
X61493750Y-170333000D01*
X62543000Y-170333000D01*
X62543000Y-168383750D01*
X62797000Y-168383750D01*
X62797000Y-170333000D01*
X63846250Y-170333000D01*
X64004250Y-170175000D01*
X94112560Y-170175000D01*
X94112560Y-171875000D01*
X94156838Y-172110317D01*
X94295910Y-172326441D01*
X94508110Y-172471431D01*
X94760000Y-172522440D01*
X95960000Y-172522440D01*
X96195317Y-172478162D01*
X96411441Y-172339090D01*
X96510901Y-172193525D01*
X96887386Y-172445084D01*
X97360000Y-172539093D01*
X97832614Y-172445084D01*
X98233277Y-172177370D01*
X98360000Y-171987715D01*
X98486723Y-172177370D01*
X98887386Y-172445084D01*
X99360000Y-172539093D01*
X99832614Y-172445084D01*
X100233277Y-172177370D01*
X100362410Y-171984109D01*
X100530875Y-172206933D01*
X100950624Y-172453286D01*
X101042391Y-172468462D01*
X101233000Y-172343731D01*
X101233000Y-171152000D01*
X101487000Y-171152000D01*
X101487000Y-172343731D01*
X101677609Y-172468462D01*
X101769376Y-172453286D01*
X102189125Y-172206933D01*
X102482647Y-171818701D01*
X102605256Y-171347696D01*
X102442547Y-171152000D01*
X101487000Y-171152000D01*
X101233000Y-171152000D01*
X101213000Y-171152000D01*
X101213000Y-170898000D01*
X101233000Y-170898000D01*
X101233000Y-169706269D01*
X101487000Y-169706269D01*
X101487000Y-170898000D01*
X102442547Y-170898000D01*
X102605256Y-170702304D01*
X102482647Y-170231299D01*
X102189125Y-169843067D01*
X101769376Y-169596714D01*
X101677609Y-169581538D01*
X101487000Y-169706269D01*
X101233000Y-169706269D01*
X101042391Y-169581538D01*
X100950624Y-169596714D01*
X100530875Y-169843067D01*
X100362410Y-170065891D01*
X100233277Y-169872630D01*
X99832614Y-169604916D01*
X99360000Y-169510907D01*
X98887386Y-169604916D01*
X98486723Y-169872630D01*
X98360000Y-170062285D01*
X98233277Y-169872630D01*
X97832614Y-169604916D01*
X97360000Y-169510907D01*
X96887386Y-169604916D01*
X96510004Y-169857074D01*
X96424090Y-169723559D01*
X96211890Y-169578569D01*
X95960000Y-169527560D01*
X94760000Y-169527560D01*
X94524683Y-169571838D01*
X94308559Y-169710910D01*
X94163569Y-169923110D01*
X94112560Y-170175000D01*
X64004250Y-170175000D01*
X64005000Y-170174250D01*
X64005000Y-168733691D01*
X63908327Y-168500302D01*
X63729699Y-168321673D01*
X63496310Y-168225000D01*
X62955750Y-168225000D01*
X62797000Y-168383750D01*
X62543000Y-168383750D01*
X62384250Y-168225000D01*
X61843690Y-168225000D01*
X61610301Y-168321673D01*
X61431673Y-168500302D01*
X61335000Y-168733691D01*
X57416838Y-168733691D01*
X57416838Y-168721170D01*
X57430000Y-168655000D01*
X57430000Y-165613991D01*
X97284735Y-165613991D01*
X97517932Y-166178371D01*
X97949357Y-166610551D01*
X98513330Y-166844733D01*
X99123991Y-166845265D01*
X99688371Y-166612068D01*
X100120551Y-166180643D01*
X100354733Y-165616670D01*
X100355265Y-165006009D01*
X100122068Y-164441629D01*
X99690643Y-164009449D01*
X99126670Y-163775267D01*
X98516009Y-163774735D01*
X97951629Y-164007932D01*
X97519449Y-164439357D01*
X97285267Y-165003330D01*
X97284735Y-165613991D01*
X57430000Y-165613991D01*
X57430000Y-160280273D01*
X57477852Y-160520839D01*
X57477852Y-160520839D01*
G37*
X57477852Y-160520839D02*
X57642599Y-160767401D01*
X58819672Y-161944474D01*
X58736371Y-162027630D01*
X58523243Y-162540900D01*
X58522758Y-163096661D01*
X58734990Y-163610303D01*
X59127630Y-164003629D01*
X59640900Y-164216757D01*
X60196661Y-164217242D01*
X60710303Y-164005010D01*
X60865424Y-163850159D01*
X92839446Y-163850159D01*
X92925852Y-164106643D01*
X93499336Y-164316458D01*
X94109460Y-164290839D01*
X94554148Y-164106643D01*
X94640554Y-163850159D01*
X93740000Y-162949605D01*
X92839446Y-163850159D01*
X60865424Y-163850159D01*
X61103629Y-163612370D01*
X61316757Y-163099100D01*
X61317242Y-162543339D01*
X61105010Y-162029697D01*
X61085075Y-162009727D01*
X61395238Y-161699564D01*
X61645657Y-162074343D01*
X62094983Y-162374573D01*
X62158527Y-162387213D01*
X62885657Y-163114343D01*
X63334983Y-163414573D01*
X63865000Y-163520000D01*
X79135000Y-163520000D01*
X79665017Y-163414573D01*
X80114343Y-163114343D01*
X80699350Y-162529336D01*
X92193542Y-162529336D01*
X92219161Y-163139460D01*
X92403357Y-163584148D01*
X92659841Y-163670554D01*
X93560395Y-162770000D01*
X92659841Y-161869446D01*
X92403357Y-161955852D01*
X92193542Y-162529336D01*
X80699350Y-162529336D01*
X81811688Y-161416998D01*
X92965346Y-161416998D01*
X92925852Y-161433357D01*
X92839446Y-161689841D01*
X93740000Y-162590395D01*
X93754143Y-162576253D01*
X93933748Y-162755858D01*
X93919605Y-162770000D01*
X94820159Y-163670554D01*
X95076643Y-163584148D01*
X95286458Y-163010664D01*
X95281181Y-162885000D01*
X102956002Y-162885000D01*
X103486019Y-162779573D01*
X103935345Y-162479343D01*
X104109689Y-162304999D01*
X104971012Y-162304999D01*
X104905267Y-162463330D01*
X104904735Y-163073991D01*
X105137932Y-163638371D01*
X105569357Y-164070551D01*
X106133330Y-164304733D01*
X106743991Y-164305265D01*
X107308371Y-164072068D01*
X107740551Y-163640643D01*
X107974733Y-163076670D01*
X107975265Y-162466009D01*
X107890970Y-162262000D01*
X110653167Y-162262000D01*
X110653167Y-176871264D01*
X110554431Y-176970000D01*
X54812467Y-176970000D01*
X53481540Y-176705262D01*
X52410429Y-175989568D01*
X51694738Y-174918459D01*
X51443420Y-173655000D01*
X52560000Y-173655000D01*
X52726323Y-174491163D01*
X53199972Y-175200028D01*
X53908837Y-175673677D01*
X54745000Y-175840000D01*
X55581163Y-175673677D01*
X56290028Y-175200028D01*
X56763677Y-174491163D01*
X56848646Y-174063991D01*
X60324735Y-174063991D01*
X60557932Y-174628371D01*
X60989357Y-175060551D01*
X61553330Y-175294733D01*
X62163991Y-175295265D01*
X62728371Y-175062068D01*
X63160551Y-174630643D01*
X63394733Y-174066670D01*
X63395265Y-173456009D01*
X63162068Y-172891629D01*
X62965783Y-172695000D01*
X63496310Y-172695000D01*
X63729699Y-172598327D01*
X63908327Y-172419698D01*
X64005000Y-172186309D01*
X64005000Y-170745750D01*
X63846250Y-170587000D01*
X62797000Y-170587000D01*
X62797000Y-170607000D01*
X62543000Y-170607000D01*
X62543000Y-170587000D01*
X61493750Y-170587000D01*
X61335000Y-170745750D01*
X61335000Y-172186309D01*
X61380888Y-172297093D01*
X60991629Y-172457932D01*
X60559449Y-172889357D01*
X60325267Y-173453330D01*
X60324735Y-174063991D01*
X56848646Y-174063991D01*
X56930000Y-173655000D01*
X56763677Y-172818837D01*
X56290028Y-172109972D01*
X55581163Y-171636323D01*
X54745000Y-171470000D01*
X53908837Y-171636323D01*
X53199972Y-172109972D01*
X52726323Y-172818837D01*
X52560000Y-173655000D01*
X51443420Y-173655000D01*
X51694738Y-172391541D01*
X52410429Y-171320432D01*
X53481540Y-170604738D01*
X54812467Y-170340000D01*
X55745000Y-170340000D01*
X55811170Y-170326838D01*
X55878636Y-170326838D01*
X56261319Y-170250718D01*
X56508248Y-170148437D01*
X56508249Y-170148436D01*
X56832672Y-169931664D01*
X57021664Y-169742672D01*
X57238437Y-169418249D01*
X57280803Y-169315968D01*
X57340718Y-169171319D01*
X57416838Y-168788636D01*
X57416838Y-168733691D01*
X61335000Y-168733691D01*
X61335000Y-170174250D01*
X61493750Y-170333000D01*
X62543000Y-170333000D01*
X62543000Y-168383750D01*
X62797000Y-168383750D01*
X62797000Y-170333000D01*
X63846250Y-170333000D01*
X64004250Y-170175000D01*
X94112560Y-170175000D01*
X94112560Y-171875000D01*
X94156838Y-172110317D01*
X94295910Y-172326441D01*
X94508110Y-172471431D01*
X94760000Y-172522440D01*
X95960000Y-172522440D01*
X96195317Y-172478162D01*
X96411441Y-172339090D01*
X96510901Y-172193525D01*
X96887386Y-172445084D01*
X97360000Y-172539093D01*
X97832614Y-172445084D01*
X98233277Y-172177370D01*
X98360000Y-171987715D01*
X98486723Y-172177370D01*
X98887386Y-172445084D01*
X99360000Y-172539093D01*
X99832614Y-172445084D01*
X100233277Y-172177370D01*
X100362410Y-171984109D01*
X100530875Y-172206933D01*
X100950624Y-172453286D01*
X101042391Y-172468462D01*
X101233000Y-172343731D01*
X101233000Y-171152000D01*
X101487000Y-171152000D01*
X101487000Y-172343731D01*
X101677609Y-172468462D01*
X101769376Y-172453286D01*
X102189125Y-172206933D01*
X102482647Y-171818701D01*
X102605256Y-171347696D01*
X102442547Y-171152000D01*
X101487000Y-171152000D01*
X101233000Y-171152000D01*
X101213000Y-171152000D01*
X101213000Y-170898000D01*
X101233000Y-170898000D01*
X101233000Y-169706269D01*
X101487000Y-169706269D01*
X101487000Y-170898000D01*
X102442547Y-170898000D01*
X102605256Y-170702304D01*
X102482647Y-170231299D01*
X102189125Y-169843067D01*
X101769376Y-169596714D01*
X101677609Y-169581538D01*
X101487000Y-169706269D01*
X101233000Y-169706269D01*
X101042391Y-169581538D01*
X100950624Y-169596714D01*
X100530875Y-169843067D01*
X100362410Y-170065891D01*
X100233277Y-169872630D01*
X99832614Y-169604916D01*
X99360000Y-169510907D01*
X98887386Y-169604916D01*
X98486723Y-169872630D01*
X98360000Y-170062285D01*
X98233277Y-169872630D01*
X97832614Y-169604916D01*
X97360000Y-169510907D01*
X96887386Y-169604916D01*
X96510004Y-169857074D01*
X96424090Y-169723559D01*
X96211890Y-169578569D01*
X95960000Y-169527560D01*
X94760000Y-169527560D01*
X94524683Y-169571838D01*
X94308559Y-169710910D01*
X94163569Y-169923110D01*
X94112560Y-170175000D01*
X64004250Y-170175000D01*
X64005000Y-170174250D01*
X64005000Y-168733691D01*
X63908327Y-168500302D01*
X63729699Y-168321673D01*
X63496310Y-168225000D01*
X62955750Y-168225000D01*
X62797000Y-168383750D01*
X62543000Y-168383750D01*
X62384250Y-168225000D01*
X61843690Y-168225000D01*
X61610301Y-168321673D01*
X61431673Y-168500302D01*
X61335000Y-168733691D01*
X57416838Y-168733691D01*
X57416838Y-168721170D01*
X57430000Y-168655000D01*
X57430000Y-165613991D01*
X97284735Y-165613991D01*
X97517932Y-166178371D01*
X97949357Y-166610551D01*
X98513330Y-166844733D01*
X99123991Y-166845265D01*
X99688371Y-166612068D01*
X100120551Y-166180643D01*
X100354733Y-165616670D01*
X100355265Y-165006009D01*
X100122068Y-164441629D01*
X99690643Y-164009449D01*
X99126670Y-163775267D01*
X98516009Y-163774735D01*
X97951629Y-164007932D01*
X97519449Y-164439357D01*
X97285267Y-165003330D01*
X97284735Y-165613991D01*
X57430000Y-165613991D01*
X57430000Y-160280273D01*
X57477852Y-160520839D01*
G36*
X86628000Y-151975000D02*
X86636685Y-152021159D01*
X86663965Y-152063553D01*
X86705590Y-152091994D01*
X86755000Y-152102000D01*
X87045000Y-152102000D01*
X87045000Y-153595002D01*
X87150427Y-154125019D01*
X87358420Y-154436302D01*
X87450657Y-154574345D01*
X91283002Y-158406690D01*
X91283002Y-158646998D01*
X81238002Y-158646998D01*
X80707985Y-158752425D01*
X80340160Y-158998198D01*
X80258659Y-159052655D01*
X78561314Y-160750000D01*
X72411192Y-160750000D01*
X72450000Y-160656310D01*
X72450000Y-160515750D01*
X72291250Y-160357000D01*
X71167000Y-160357000D01*
X71167000Y-160377000D01*
X70913000Y-160377000D01*
X70913000Y-160357000D01*
X70893000Y-160357000D01*
X70893000Y-160103000D01*
X70913000Y-160103000D01*
X70913000Y-160083000D01*
X71167000Y-160083000D01*
X71167000Y-160103000D01*
X72291250Y-160103000D01*
X72450000Y-159944250D01*
X72450000Y-159803690D01*
X72415334Y-159720000D01*
X78260910Y-159720000D01*
X78551749Y-159662148D01*
X78798311Y-159497401D01*
X86628000Y-151667712D01*
X86628000Y-151975000D01*
X86628000Y-151975000D01*
G37*
X86628000Y-151975000D02*
X86636685Y-152021159D01*
X86663965Y-152063553D01*
X86705590Y-152091994D01*
X86755000Y-152102000D01*
X87045000Y-152102000D01*
X87045000Y-153595002D01*
X87150427Y-154125019D01*
X87358420Y-154436302D01*
X87450657Y-154574345D01*
X91283002Y-158406690D01*
X91283002Y-158646998D01*
X81238002Y-158646998D01*
X80707985Y-158752425D01*
X80340160Y-158998198D01*
X80258659Y-159052655D01*
X78561314Y-160750000D01*
X72411192Y-160750000D01*
X72450000Y-160656310D01*
X72450000Y-160515750D01*
X72291250Y-160357000D01*
X71167000Y-160357000D01*
X71167000Y-160377000D01*
X70913000Y-160377000D01*
X70913000Y-160357000D01*
X70893000Y-160357000D01*
X70893000Y-160103000D01*
X70913000Y-160103000D01*
X70913000Y-160083000D01*
X71167000Y-160083000D01*
X71167000Y-160103000D01*
X72291250Y-160103000D01*
X72450000Y-159944250D01*
X72450000Y-159803690D01*
X72415334Y-159720000D01*
X78260910Y-159720000D01*
X78551749Y-159662148D01*
X78798311Y-159497401D01*
X86628000Y-151667712D01*
X86628000Y-151975000D01*
G36*
X102122000Y-159849000D02*
X102142000Y-159849000D01*
X102142000Y-160103000D01*
X102122000Y-160103000D01*
X102122000Y-160115000D01*
X101868000Y-160115000D01*
X101868000Y-160103000D01*
X101848000Y-160103000D01*
X101848000Y-159849000D01*
X101868000Y-159849000D01*
X101868000Y-159829000D01*
X102122000Y-159829000D01*
X102122000Y-159849000D01*
X102122000Y-159849000D01*
G37*
X102122000Y-159849000D02*
X102142000Y-159849000D01*
X102142000Y-160103000D01*
X102122000Y-160103000D01*
X102122000Y-160115000D01*
X101868000Y-160115000D01*
X101868000Y-160103000D01*
X101848000Y-160103000D01*
X101848000Y-159849000D01*
X101868000Y-159849000D01*
X101868000Y-159829000D01*
X102122000Y-159829000D01*
X102122000Y-159849000D01*
G36*
X97042000Y-159849000D02*
X97062000Y-159849000D01*
X97062000Y-160103000D01*
X97042000Y-160103000D01*
X97042000Y-160115000D01*
X96788000Y-160115000D01*
X96788000Y-160103000D01*
X96768000Y-160103000D01*
X96768000Y-159849000D01*
X96788000Y-159849000D01*
X96788000Y-159829000D01*
X97042000Y-159829000D01*
X97042000Y-159849000D01*
X97042000Y-159849000D01*
G37*
X97042000Y-159849000D02*
X97062000Y-159849000D01*
X97062000Y-160103000D01*
X97042000Y-160103000D01*
X97042000Y-160115000D01*
X96788000Y-160115000D01*
X96788000Y-160103000D01*
X96768000Y-160103000D01*
X96768000Y-159849000D01*
X96788000Y-159849000D01*
X96788000Y-159829000D01*
X97042000Y-159829000D01*
X97042000Y-159849000D01*
G36*
X103471301Y-159176827D02*
X103704690Y-159273500D01*
X103846595Y-159273500D01*
X103790662Y-159408201D01*
X103790552Y-159534999D01*
X103536003Y-159534999D01*
X103030000Y-159635649D01*
X103030000Y-159474690D01*
X102982494Y-159360000D01*
X103131310Y-159360000D01*
X103364699Y-159263327D01*
X103461250Y-159166776D01*
X103471301Y-159176827D01*
X103471301Y-159176827D01*
G37*
X103471301Y-159176827D02*
X103704690Y-159273500D01*
X103846595Y-159273500D01*
X103790662Y-159408201D01*
X103790552Y-159534999D01*
X103536003Y-159534999D01*
X103030000Y-159635649D01*
X103030000Y-159474690D01*
X102982494Y-159360000D01*
X103131310Y-159360000D01*
X103364699Y-159263327D01*
X103461250Y-159166776D01*
X103471301Y-159176827D01*
G36*
X131713000Y-130885816D02*
X131560000Y-131655000D01*
X131726323Y-132491163D01*
X132199972Y-133200028D01*
X132566598Y-133445000D01*
X130955002Y-133445000D01*
X130424985Y-133550427D01*
X130017889Y-133822440D01*
X129975659Y-133850657D01*
X129867934Y-133958382D01*
X129771513Y-133473642D01*
X129589503Y-133201245D01*
X129558162Y-133034683D01*
X129419090Y-132818559D01*
X129206890Y-132673569D01*
X129183425Y-132668817D01*
X129128258Y-132613650D01*
X129387332Y-132524179D01*
X129601325Y-131941632D01*
X129576097Y-131321539D01*
X129387332Y-130865821D01*
X129128256Y-130776349D01*
X128209605Y-131695000D01*
X128223748Y-131709143D01*
X128044143Y-131888748D01*
X128030000Y-131874605D01*
X128015858Y-131888748D01*
X127836253Y-131709143D01*
X127850395Y-131695000D01*
X126931744Y-130776349D01*
X126672668Y-130865821D01*
X126458675Y-131448368D01*
X126468612Y-131692626D01*
X126379998Y-131675000D01*
X123168022Y-131675000D01*
X123026890Y-131578569D01*
X122823091Y-131537299D01*
X122607896Y-131322104D01*
X122026597Y-130933691D01*
X123595000Y-130933691D01*
X123595000Y-131274250D01*
X123753750Y-131433000D01*
X124728000Y-131433000D01*
X124728000Y-130583750D01*
X124982000Y-130583750D01*
X124982000Y-131433000D01*
X125956250Y-131433000D01*
X126115000Y-131274250D01*
X126115000Y-130933691D01*
X126018327Y-130700302D01*
X125914770Y-130596744D01*
X127111349Y-130596744D01*
X128030000Y-131515395D01*
X128948651Y-130596744D01*
X128859179Y-130337668D01*
X128276632Y-130123675D01*
X127656539Y-130148903D01*
X127200821Y-130337668D01*
X127111349Y-130596744D01*
X125914770Y-130596744D01*
X125839699Y-130521673D01*
X125606310Y-130425000D01*
X125140750Y-130425000D01*
X124982000Y-130583750D01*
X124728000Y-130583750D01*
X124569250Y-130425000D01*
X124103690Y-130425000D01*
X123870301Y-130521673D01*
X123691673Y-130700302D01*
X123595000Y-130933691D01*
X122026597Y-130933691D01*
X121996359Y-130913487D01*
X121727039Y-130859916D01*
X121651890Y-130808569D01*
X121400000Y-130757560D01*
X120399258Y-130757560D01*
X120086359Y-130548487D01*
X119409679Y-130413887D01*
X119297896Y-130302104D01*
X119092440Y-130164822D01*
X119092440Y-130135000D01*
X119048162Y-129899683D01*
X118909090Y-129683559D01*
X118696890Y-129538569D01*
X118445000Y-129487560D01*
X117485000Y-129487560D01*
X117249683Y-129531838D01*
X117033559Y-129670910D01*
X116888569Y-129883110D01*
X116837560Y-130135000D01*
X116837560Y-130164822D01*
X116802440Y-130188289D01*
X116802440Y-130135000D01*
X116758162Y-129899683D01*
X116619090Y-129683559D01*
X116406890Y-129538569D01*
X116155000Y-129487560D01*
X115802000Y-129487560D01*
X115802000Y-130770000D01*
X115548000Y-130770000D01*
X115548000Y-129487560D01*
X115195000Y-129487560D01*
X114959683Y-129531838D01*
X114743559Y-129670910D01*
X114598569Y-129883110D01*
X114547560Y-130135000D01*
X114547560Y-130770000D01*
X114512440Y-130770000D01*
X114512440Y-130135000D01*
X114468162Y-129899683D01*
X114329090Y-129683559D01*
X114116890Y-129538569D01*
X113865000Y-129487560D01*
X113512000Y-129487560D01*
X113512000Y-130770000D01*
X113258000Y-130770000D01*
X113258000Y-129487560D01*
X112905000Y-129487560D01*
X112669683Y-129531838D01*
X112453559Y-129670910D01*
X112308569Y-129883110D01*
X112257560Y-130135000D01*
X112257560Y-130789108D01*
X112070302Y-130866673D01*
X111891673Y-131045301D01*
X111803051Y-131259253D01*
X111770000Y-131252560D01*
X110602395Y-131252560D01*
X110240017Y-131010427D01*
X109710000Y-130905000D01*
X108335000Y-130905000D01*
X108335000Y-130575750D01*
X108176250Y-130417000D01*
X107202000Y-130417000D01*
X107202000Y-130437000D01*
X106948000Y-130437000D01*
X106948000Y-130417000D01*
X105973750Y-130417000D01*
X105815000Y-130575750D01*
X105815000Y-130916309D01*
X105911673Y-131149698D01*
X106052910Y-131290936D01*
X105998559Y-131325910D01*
X105853569Y-131538110D01*
X105814384Y-131731612D01*
X105795427Y-131759983D01*
X105690000Y-132290000D01*
X105795427Y-132820017D01*
X105813218Y-132846643D01*
X105846838Y-133025317D01*
X105985910Y-133241441D01*
X106198110Y-133386431D01*
X106302542Y-133407579D01*
X106544983Y-133569573D01*
X107075000Y-133675000D01*
X108240520Y-133675000D01*
X108323110Y-133731431D01*
X108575000Y-133782440D01*
X109317300Y-133782440D01*
X109352560Y-133806000D01*
X109352560Y-135970000D01*
X109357114Y-135994200D01*
X109243754Y-136107560D01*
X108575000Y-136107560D01*
X108339683Y-136151838D01*
X108123559Y-136290910D01*
X107978569Y-136503110D01*
X107927560Y-136755000D01*
X107927560Y-137715000D01*
X107971838Y-137950317D01*
X108110910Y-138166441D01*
X108323110Y-138311431D01*
X108575000Y-138362440D01*
X109317300Y-138362440D01*
X109369861Y-138397560D01*
X108575000Y-138397560D01*
X108339683Y-138441838D01*
X108123559Y-138580910D01*
X107978569Y-138793110D01*
X107927560Y-139045000D01*
X107927560Y-140005000D01*
X107945518Y-140100439D01*
X103700290Y-135855210D01*
X103631645Y-135809343D01*
X103413175Y-135663367D01*
X103356984Y-135652190D01*
X103074500Y-135595999D01*
X103074495Y-135596000D01*
X98865853Y-135596000D01*
X98866162Y-135241012D01*
X98840232Y-135178257D01*
X98845302Y-135183327D01*
X99078691Y-135280000D01*
X99171250Y-135280000D01*
X99330000Y-135121250D01*
X99330000Y-134322000D01*
X99580000Y-134322000D01*
X99580000Y-135121250D01*
X99738750Y-135280000D01*
X99831309Y-135280000D01*
X100064698Y-135183327D01*
X100243327Y-135004699D01*
X100340000Y-134771310D01*
X100340000Y-134480750D01*
X100181250Y-134322000D01*
X99580000Y-134322000D01*
X99330000Y-134322000D01*
X99308000Y-134322000D01*
X99308000Y-134068000D01*
X99330000Y-134068000D01*
X99330000Y-134048000D01*
X99580000Y-134048000D01*
X99580000Y-134068000D01*
X100181250Y-134068000D01*
X100340000Y-133909250D01*
X100340000Y-133618690D01*
X100243327Y-133385301D01*
X100099047Y-133241022D01*
X100156441Y-133204090D01*
X100229772Y-133096766D01*
X100538201Y-133224838D01*
X100910167Y-133225162D01*
X101253943Y-133083117D01*
X101517192Y-132820327D01*
X101659838Y-132476799D01*
X101660162Y-132104833D01*
X101518117Y-131761057D01*
X101255327Y-131497808D01*
X100911799Y-131355162D01*
X100539833Y-131354838D01*
X100229818Y-131482933D01*
X100169090Y-131388559D01*
X99956890Y-131243569D01*
X99705000Y-131192560D01*
X99205000Y-131192560D01*
X98969683Y-131236838D01*
X98753559Y-131375910D01*
X98705866Y-131445711D01*
X98669090Y-131388559D01*
X98456890Y-131243569D01*
X98205000Y-131192560D01*
X97705000Y-131192560D01*
X97469683Y-131236838D01*
X97253559Y-131375910D01*
X97108569Y-131588110D01*
X97057560Y-131840000D01*
X97057560Y-132740000D01*
X97101838Y-132975317D01*
X97195000Y-133120095D01*
X97195000Y-133366614D01*
X97108569Y-133493110D01*
X97057560Y-133745000D01*
X97057560Y-134645000D01*
X97101838Y-134880317D01*
X97128229Y-134921329D01*
X96996162Y-135239380D01*
X96995851Y-135596000D01*
X91947579Y-135596000D01*
X90970790Y-134619210D01*
X90850260Y-134538675D01*
X90683675Y-134427367D01*
X90627484Y-134416190D01*
X90345000Y-134359999D01*
X90344995Y-134360000D01*
X88437440Y-134360000D01*
X88437440Y-133745000D01*
X88393162Y-133509683D01*
X88254090Y-133293559D01*
X88041890Y-133148569D01*
X87790000Y-133097560D01*
X86990000Y-133097560D01*
X86754683Y-133141838D01*
X86538559Y-133280910D01*
X86518683Y-133310000D01*
X64530000Y-133310000D01*
X64191325Y-133377367D01*
X64017440Y-133493553D01*
X64017440Y-133260000D01*
X63973162Y-133024683D01*
X63834090Y-132808559D01*
X63621890Y-132663569D01*
X63370000Y-132612560D01*
X62978316Y-132612560D01*
X63160551Y-132430643D01*
X63394733Y-131866670D01*
X63395265Y-131256009D01*
X63162068Y-130691629D01*
X62730643Y-130259449D01*
X62166670Y-130025267D01*
X61556009Y-130024735D01*
X60991629Y-130257932D01*
X60559449Y-130689357D01*
X60325267Y-131253330D01*
X60324735Y-131863991D01*
X60557932Y-132428371D01*
X60989357Y-132860551D01*
X61371331Y-133019161D01*
X61322560Y-133260000D01*
X61322560Y-136460000D01*
X61366838Y-136695317D01*
X61505910Y-136911441D01*
X61718110Y-137056431D01*
X61970000Y-137107440D01*
X63370000Y-137107440D01*
X63605317Y-137063162D01*
X63821441Y-136924090D01*
X63966431Y-136711890D01*
X64017440Y-136460000D01*
X64017440Y-135715673D01*
X64152484Y-135688810D01*
X64208675Y-135677633D01*
X64495790Y-135485790D01*
X64901579Y-135080000D01*
X86253420Y-135080000D01*
X86235860Y-135097560D01*
X86040000Y-135097560D01*
X85804683Y-135141838D01*
X85588559Y-135280910D01*
X85443569Y-135493110D01*
X85392560Y-135745000D01*
X85392560Y-136645000D01*
X85436838Y-136880317D01*
X85575910Y-137096441D01*
X85788110Y-137241431D01*
X86040000Y-137292440D01*
X86840000Y-137292440D01*
X87075317Y-137248162D01*
X87291441Y-137109090D01*
X87390633Y-136963917D01*
X87475910Y-137096441D01*
X87688110Y-137241431D01*
X87940000Y-137292440D01*
X88003436Y-137292440D01*
X73517599Y-151778277D01*
X73352852Y-152024839D01*
X73295000Y-152315678D01*
X73295000Y-156105198D01*
X72470198Y-156930000D01*
X72419914Y-156930000D01*
X72462440Y-156720000D01*
X72462440Y-156120000D01*
X72418162Y-155884683D01*
X72279090Y-155668559D01*
X72066890Y-155523569D01*
X71815000Y-155472560D01*
X70265000Y-155472560D01*
X70029683Y-155516838D01*
X69813559Y-155655910D01*
X69668569Y-155868110D01*
X69617560Y-156120000D01*
X69617560Y-156720000D01*
X69661838Y-156955317D01*
X69725678Y-157054528D01*
X69668569Y-157138110D01*
X69648029Y-157239539D01*
X69619574Y-157096484D01*
X69319343Y-156647157D01*
X67734815Y-155062629D01*
X67829698Y-155023327D01*
X68008327Y-154844699D01*
X68105000Y-154611310D01*
X68105000Y-154395750D01*
X67946250Y-154237000D01*
X67197000Y-154237000D01*
X67197000Y-154257000D01*
X67025000Y-154257000D01*
X67025000Y-153720000D01*
X67017254Y-153681060D01*
X66943000Y-153307755D01*
X66943000Y-153258750D01*
X67197000Y-153258750D01*
X67197000Y-153983000D01*
X67946250Y-153983000D01*
X68105000Y-153824250D01*
X68105000Y-153608690D01*
X68008327Y-153375301D01*
X67829698Y-153196673D01*
X67596309Y-153100000D01*
X67355750Y-153100000D01*
X67197000Y-153258750D01*
X66943000Y-153258750D01*
X66930832Y-153246582D01*
X66919574Y-153189984D01*
X66619343Y-152740657D01*
X66320000Y-152441314D01*
X66320000Y-147675000D01*
X66214573Y-147144983D01*
X65914343Y-146695657D01*
X65510000Y-146291314D01*
X65510000Y-142450000D01*
X65404573Y-141919983D01*
X65104343Y-141470657D01*
X64655017Y-141170427D01*
X64125000Y-141065000D01*
X63594983Y-141170427D01*
X63298795Y-141368333D01*
X63002607Y-141170427D01*
X62472590Y-141065000D01*
X62221223Y-141115000D01*
X60227414Y-141115000D01*
X60199100Y-141103243D01*
X59643339Y-141102758D01*
X59129697Y-141314990D01*
X58736371Y-141707630D01*
X58523243Y-142220900D01*
X58522758Y-142776661D01*
X58734990Y-143290303D01*
X59127630Y-143683629D01*
X59335512Y-143769949D01*
X59129697Y-143854990D01*
X58736371Y-144247630D01*
X58523243Y-144760900D01*
X58522758Y-145316661D01*
X58734990Y-145830303D01*
X59127630Y-146223629D01*
X59335512Y-146309949D01*
X59129697Y-146394990D01*
X58736371Y-146787630D01*
X58523243Y-147300900D01*
X58522758Y-147856661D01*
X58734990Y-148370303D01*
X59127630Y-148763629D01*
X59335512Y-148849949D01*
X59129697Y-148934990D01*
X58736371Y-149327630D01*
X58523243Y-149840900D01*
X58522758Y-150396661D01*
X58734990Y-150910303D01*
X59127630Y-151303629D01*
X59335512Y-151389949D01*
X59129697Y-151474990D01*
X58736371Y-151867630D01*
X58523243Y-152380900D01*
X58522758Y-152936661D01*
X58734990Y-153450303D01*
X59127630Y-153843629D01*
X59157237Y-153855923D01*
X59252539Y-153951225D01*
X59188857Y-153977603D01*
X59119392Y-154219787D01*
X59920000Y-155020395D01*
X59934143Y-155006253D01*
X60113748Y-155185858D01*
X60099605Y-155200000D01*
X60900213Y-156000608D01*
X61142397Y-155931143D01*
X61329144Y-155407698D01*
X61301362Y-154852632D01*
X61142397Y-154468857D01*
X60902333Y-154400000D01*
X64242685Y-154400000D01*
X64255000Y-154461913D01*
X64255000Y-155035000D01*
X63635000Y-155035000D01*
X63635000Y-154800750D01*
X63476250Y-154642000D01*
X62752000Y-154642000D01*
X62752000Y-154662000D01*
X62498000Y-154662000D01*
X62498000Y-154642000D01*
X61773750Y-154642000D01*
X61615000Y-154800750D01*
X61615000Y-155041309D01*
X61711673Y-155274698D01*
X61715778Y-155278803D01*
X61645657Y-155325657D01*
X61345427Y-155774984D01*
X61240000Y-156305000D01*
X61345427Y-156835016D01*
X61618827Y-157244190D01*
X61578569Y-157303110D01*
X61527560Y-157555000D01*
X61527560Y-157597638D01*
X61316941Y-157808257D01*
X61317242Y-157463339D01*
X61105010Y-156949697D01*
X60712370Y-156556371D01*
X60520273Y-156476605D01*
X60651143Y-156422397D01*
X60720608Y-156180213D01*
X59920000Y-155379605D01*
X59119392Y-156180213D01*
X59188857Y-156422397D01*
X59329318Y-156472509D01*
X59129697Y-156554990D01*
X58736371Y-156947630D01*
X58523243Y-157460900D01*
X58522758Y-158016661D01*
X58536143Y-158049055D01*
X57642599Y-158942599D01*
X57477852Y-159189161D01*
X57430000Y-159429727D01*
X57430000Y-154992302D01*
X58510856Y-154992302D01*
X58538638Y-155547368D01*
X58697603Y-155931143D01*
X58939787Y-156000608D01*
X59740395Y-155200000D01*
X58939787Y-154399392D01*
X58697603Y-154468857D01*
X58510856Y-154992302D01*
X57430000Y-154992302D01*
X57430000Y-136654999D01*
X57416838Y-136588829D01*
X57416838Y-136521363D01*
X57340718Y-136138680D01*
X57270848Y-135969999D01*
X57238437Y-135891750D01*
X57021664Y-135567327D01*
X56832672Y-135378335D01*
X56508248Y-135161562D01*
X56476880Y-135148569D01*
X56261319Y-135059281D01*
X55878636Y-134983161D01*
X55811170Y-134983161D01*
X55745000Y-134969999D01*
X54812467Y-134969999D01*
X53481541Y-134705261D01*
X52410430Y-133989567D01*
X51694739Y-132918458D01*
X51443421Y-131655000D01*
X52560000Y-131655000D01*
X52726323Y-132491163D01*
X53199972Y-133200028D01*
X53908837Y-133673677D01*
X54745000Y-133840000D01*
X55581163Y-133673677D01*
X56290028Y-133200028D01*
X56763677Y-132491163D01*
X56930000Y-131655000D01*
X56763677Y-130818837D01*
X56290028Y-130109972D01*
X55622123Y-129663691D01*
X105815000Y-129663691D01*
X105815000Y-130004250D01*
X105973750Y-130163000D01*
X106948000Y-130163000D01*
X106948000Y-129313750D01*
X107202000Y-129313750D01*
X107202000Y-130163000D01*
X108176250Y-130163000D01*
X108335000Y-130004250D01*
X108335000Y-129663691D01*
X108238327Y-129430302D01*
X108059699Y-129251673D01*
X107826310Y-129155000D01*
X107360750Y-129155000D01*
X107202000Y-129313750D01*
X106948000Y-129313750D01*
X106789250Y-129155000D01*
X106323690Y-129155000D01*
X106090301Y-129251673D01*
X105911673Y-129430302D01*
X105815000Y-129663691D01*
X55622123Y-129663691D01*
X55581163Y-129636323D01*
X54745000Y-129470000D01*
X53908837Y-129636323D01*
X53199972Y-130109972D01*
X52726323Y-130818837D01*
X52560000Y-131655000D01*
X51443421Y-131655000D01*
X51694739Y-130391542D01*
X52410430Y-129320433D01*
X53481541Y-128604739D01*
X54812467Y-128340001D01*
X131713000Y-128340001D01*
X131713000Y-130885816D01*
X131713000Y-130885816D01*
G37*
X131713000Y-130885816D02*
X131560000Y-131655000D01*
X131726323Y-132491163D01*
X132199972Y-133200028D01*
X132566598Y-133445000D01*
X130955002Y-133445000D01*
X130424985Y-133550427D01*
X130017889Y-133822440D01*
X129975659Y-133850657D01*
X129867934Y-133958382D01*
X129771513Y-133473642D01*
X129589503Y-133201245D01*
X129558162Y-133034683D01*
X129419090Y-132818559D01*
X129206890Y-132673569D01*
X129183425Y-132668817D01*
X129128258Y-132613650D01*
X129387332Y-132524179D01*
X129601325Y-131941632D01*
X129576097Y-131321539D01*
X129387332Y-130865821D01*
X129128256Y-130776349D01*
X128209605Y-131695000D01*
X128223748Y-131709143D01*
X128044143Y-131888748D01*
X128030000Y-131874605D01*
X128015858Y-131888748D01*
X127836253Y-131709143D01*
X127850395Y-131695000D01*
X126931744Y-130776349D01*
X126672668Y-130865821D01*
X126458675Y-131448368D01*
X126468612Y-131692626D01*
X126379998Y-131675000D01*
X123168022Y-131675000D01*
X123026890Y-131578569D01*
X122823091Y-131537299D01*
X122607896Y-131322104D01*
X122026597Y-130933691D01*
X123595000Y-130933691D01*
X123595000Y-131274250D01*
X123753750Y-131433000D01*
X124728000Y-131433000D01*
X124728000Y-130583750D01*
X124982000Y-130583750D01*
X124982000Y-131433000D01*
X125956250Y-131433000D01*
X126115000Y-131274250D01*
X126115000Y-130933691D01*
X126018327Y-130700302D01*
X125914770Y-130596744D01*
X127111349Y-130596744D01*
X128030000Y-131515395D01*
X128948651Y-130596744D01*
X128859179Y-130337668D01*
X128276632Y-130123675D01*
X127656539Y-130148903D01*
X127200821Y-130337668D01*
X127111349Y-130596744D01*
X125914770Y-130596744D01*
X125839699Y-130521673D01*
X125606310Y-130425000D01*
X125140750Y-130425000D01*
X124982000Y-130583750D01*
X124728000Y-130583750D01*
X124569250Y-130425000D01*
X124103690Y-130425000D01*
X123870301Y-130521673D01*
X123691673Y-130700302D01*
X123595000Y-130933691D01*
X122026597Y-130933691D01*
X121996359Y-130913487D01*
X121727039Y-130859916D01*
X121651890Y-130808569D01*
X121400000Y-130757560D01*
X120399258Y-130757560D01*
X120086359Y-130548487D01*
X119409679Y-130413887D01*
X119297896Y-130302104D01*
X119092440Y-130164822D01*
X119092440Y-130135000D01*
X119048162Y-129899683D01*
X118909090Y-129683559D01*
X118696890Y-129538569D01*
X118445000Y-129487560D01*
X117485000Y-129487560D01*
X117249683Y-129531838D01*
X117033559Y-129670910D01*
X116888569Y-129883110D01*
X116837560Y-130135000D01*
X116837560Y-130164822D01*
X116802440Y-130188289D01*
X116802440Y-130135000D01*
X116758162Y-129899683D01*
X116619090Y-129683559D01*
X116406890Y-129538569D01*
X116155000Y-129487560D01*
X115802000Y-129487560D01*
X115802000Y-130770000D01*
X115548000Y-130770000D01*
X115548000Y-129487560D01*
X115195000Y-129487560D01*
X114959683Y-129531838D01*
X114743559Y-129670910D01*
X114598569Y-129883110D01*
X114547560Y-130135000D01*
X114547560Y-130770000D01*
X114512440Y-130770000D01*
X114512440Y-130135000D01*
X114468162Y-129899683D01*
X114329090Y-129683559D01*
X114116890Y-129538569D01*
X113865000Y-129487560D01*
X113512000Y-129487560D01*
X113512000Y-130770000D01*
X113258000Y-130770000D01*
X113258000Y-129487560D01*
X112905000Y-129487560D01*
X112669683Y-129531838D01*
X112453559Y-129670910D01*
X112308569Y-129883110D01*
X112257560Y-130135000D01*
X112257560Y-130789108D01*
X112070302Y-130866673D01*
X111891673Y-131045301D01*
X111803051Y-131259253D01*
X111770000Y-131252560D01*
X110602395Y-131252560D01*
X110240017Y-131010427D01*
X109710000Y-130905000D01*
X108335000Y-130905000D01*
X108335000Y-130575750D01*
X108176250Y-130417000D01*
X107202000Y-130417000D01*
X107202000Y-130437000D01*
X106948000Y-130437000D01*
X106948000Y-130417000D01*
X105973750Y-130417000D01*
X105815000Y-130575750D01*
X105815000Y-130916309D01*
X105911673Y-131149698D01*
X106052910Y-131290936D01*
X105998559Y-131325910D01*
X105853569Y-131538110D01*
X105814384Y-131731612D01*
X105795427Y-131759983D01*
X105690000Y-132290000D01*
X105795427Y-132820017D01*
X105813218Y-132846643D01*
X105846838Y-133025317D01*
X105985910Y-133241441D01*
X106198110Y-133386431D01*
X106302542Y-133407579D01*
X106544983Y-133569573D01*
X107075000Y-133675000D01*
X108240520Y-133675000D01*
X108323110Y-133731431D01*
X108575000Y-133782440D01*
X109317300Y-133782440D01*
X109352560Y-133806000D01*
X109352560Y-135970000D01*
X109357114Y-135994200D01*
X109243754Y-136107560D01*
X108575000Y-136107560D01*
X108339683Y-136151838D01*
X108123559Y-136290910D01*
X107978569Y-136503110D01*
X107927560Y-136755000D01*
X107927560Y-137715000D01*
X107971838Y-137950317D01*
X108110910Y-138166441D01*
X108323110Y-138311431D01*
X108575000Y-138362440D01*
X109317300Y-138362440D01*
X109369861Y-138397560D01*
X108575000Y-138397560D01*
X108339683Y-138441838D01*
X108123559Y-138580910D01*
X107978569Y-138793110D01*
X107927560Y-139045000D01*
X107927560Y-140005000D01*
X107945518Y-140100439D01*
X103700290Y-135855210D01*
X103631645Y-135809343D01*
X103413175Y-135663367D01*
X103356984Y-135652190D01*
X103074500Y-135595999D01*
X103074495Y-135596000D01*
X98865853Y-135596000D01*
X98866162Y-135241012D01*
X98840232Y-135178257D01*
X98845302Y-135183327D01*
X99078691Y-135280000D01*
X99171250Y-135280000D01*
X99330000Y-135121250D01*
X99330000Y-134322000D01*
X99580000Y-134322000D01*
X99580000Y-135121250D01*
X99738750Y-135280000D01*
X99831309Y-135280000D01*
X100064698Y-135183327D01*
X100243327Y-135004699D01*
X100340000Y-134771310D01*
X100340000Y-134480750D01*
X100181250Y-134322000D01*
X99580000Y-134322000D01*
X99330000Y-134322000D01*
X99308000Y-134322000D01*
X99308000Y-134068000D01*
X99330000Y-134068000D01*
X99330000Y-134048000D01*
X99580000Y-134048000D01*
X99580000Y-134068000D01*
X100181250Y-134068000D01*
X100340000Y-133909250D01*
X100340000Y-133618690D01*
X100243327Y-133385301D01*
X100099047Y-133241022D01*
X100156441Y-133204090D01*
X100229772Y-133096766D01*
X100538201Y-133224838D01*
X100910167Y-133225162D01*
X101253943Y-133083117D01*
X101517192Y-132820327D01*
X101659838Y-132476799D01*
X101660162Y-132104833D01*
X101518117Y-131761057D01*
X101255327Y-131497808D01*
X100911799Y-131355162D01*
X100539833Y-131354838D01*
X100229818Y-131482933D01*
X100169090Y-131388559D01*
X99956890Y-131243569D01*
X99705000Y-131192560D01*
X99205000Y-131192560D01*
X98969683Y-131236838D01*
X98753559Y-131375910D01*
X98705866Y-131445711D01*
X98669090Y-131388559D01*
X98456890Y-131243569D01*
X98205000Y-131192560D01*
X97705000Y-131192560D01*
X97469683Y-131236838D01*
X97253559Y-131375910D01*
X97108569Y-131588110D01*
X97057560Y-131840000D01*
X97057560Y-132740000D01*
X97101838Y-132975317D01*
X97195000Y-133120095D01*
X97195000Y-133366614D01*
X97108569Y-133493110D01*
X97057560Y-133745000D01*
X97057560Y-134645000D01*
X97101838Y-134880317D01*
X97128229Y-134921329D01*
X96996162Y-135239380D01*
X96995851Y-135596000D01*
X91947579Y-135596000D01*
X90970790Y-134619210D01*
X90850260Y-134538675D01*
X90683675Y-134427367D01*
X90627484Y-134416190D01*
X90345000Y-134359999D01*
X90344995Y-134360000D01*
X88437440Y-134360000D01*
X88437440Y-133745000D01*
X88393162Y-133509683D01*
X88254090Y-133293559D01*
X88041890Y-133148569D01*
X87790000Y-133097560D01*
X86990000Y-133097560D01*
X86754683Y-133141838D01*
X86538559Y-133280910D01*
X86518683Y-133310000D01*
X64530000Y-133310000D01*
X64191325Y-133377367D01*
X64017440Y-133493553D01*
X64017440Y-133260000D01*
X63973162Y-133024683D01*
X63834090Y-132808559D01*
X63621890Y-132663569D01*
X63370000Y-132612560D01*
X62978316Y-132612560D01*
X63160551Y-132430643D01*
X63394733Y-131866670D01*
X63395265Y-131256009D01*
X63162068Y-130691629D01*
X62730643Y-130259449D01*
X62166670Y-130025267D01*
X61556009Y-130024735D01*
X60991629Y-130257932D01*
X60559449Y-130689357D01*
X60325267Y-131253330D01*
X60324735Y-131863991D01*
X60557932Y-132428371D01*
X60989357Y-132860551D01*
X61371331Y-133019161D01*
X61322560Y-133260000D01*
X61322560Y-136460000D01*
X61366838Y-136695317D01*
X61505910Y-136911441D01*
X61718110Y-137056431D01*
X61970000Y-137107440D01*
X63370000Y-137107440D01*
X63605317Y-137063162D01*
X63821441Y-136924090D01*
X63966431Y-136711890D01*
X64017440Y-136460000D01*
X64017440Y-135715673D01*
X64152484Y-135688810D01*
X64208675Y-135677633D01*
X64495790Y-135485790D01*
X64901579Y-135080000D01*
X86253420Y-135080000D01*
X86235860Y-135097560D01*
X86040000Y-135097560D01*
X85804683Y-135141838D01*
X85588559Y-135280910D01*
X85443569Y-135493110D01*
X85392560Y-135745000D01*
X85392560Y-136645000D01*
X85436838Y-136880317D01*
X85575910Y-137096441D01*
X85788110Y-137241431D01*
X86040000Y-137292440D01*
X86840000Y-137292440D01*
X87075317Y-137248162D01*
X87291441Y-137109090D01*
X87390633Y-136963917D01*
X87475910Y-137096441D01*
X87688110Y-137241431D01*
X87940000Y-137292440D01*
X88003436Y-137292440D01*
X73517599Y-151778277D01*
X73352852Y-152024839D01*
X73295000Y-152315678D01*
X73295000Y-156105198D01*
X72470198Y-156930000D01*
X72419914Y-156930000D01*
X72462440Y-156720000D01*
X72462440Y-156120000D01*
X72418162Y-155884683D01*
X72279090Y-155668559D01*
X72066890Y-155523569D01*
X71815000Y-155472560D01*
X70265000Y-155472560D01*
X70029683Y-155516838D01*
X69813559Y-155655910D01*
X69668569Y-155868110D01*
X69617560Y-156120000D01*
X69617560Y-156720000D01*
X69661838Y-156955317D01*
X69725678Y-157054528D01*
X69668569Y-157138110D01*
X69648029Y-157239539D01*
X69619574Y-157096484D01*
X69319343Y-156647157D01*
X67734815Y-155062629D01*
X67829698Y-155023327D01*
X68008327Y-154844699D01*
X68105000Y-154611310D01*
X68105000Y-154395750D01*
X67946250Y-154237000D01*
X67197000Y-154237000D01*
X67197000Y-154257000D01*
X67025000Y-154257000D01*
X67025000Y-153720000D01*
X67017254Y-153681060D01*
X66943000Y-153307755D01*
X66943000Y-153258750D01*
X67197000Y-153258750D01*
X67197000Y-153983000D01*
X67946250Y-153983000D01*
X68105000Y-153824250D01*
X68105000Y-153608690D01*
X68008327Y-153375301D01*
X67829698Y-153196673D01*
X67596309Y-153100000D01*
X67355750Y-153100000D01*
X67197000Y-153258750D01*
X66943000Y-153258750D01*
X66930832Y-153246582D01*
X66919574Y-153189984D01*
X66619343Y-152740657D01*
X66320000Y-152441314D01*
X66320000Y-147675000D01*
X66214573Y-147144983D01*
X65914343Y-146695657D01*
X65510000Y-146291314D01*
X65510000Y-142450000D01*
X65404573Y-141919983D01*
X65104343Y-141470657D01*
X64655017Y-141170427D01*
X64125000Y-141065000D01*
X63594983Y-141170427D01*
X63298795Y-141368333D01*
X63002607Y-141170427D01*
X62472590Y-141065000D01*
X62221223Y-141115000D01*
X60227414Y-141115000D01*
X60199100Y-141103243D01*
X59643339Y-141102758D01*
X59129697Y-141314990D01*
X58736371Y-141707630D01*
X58523243Y-142220900D01*
X58522758Y-142776661D01*
X58734990Y-143290303D01*
X59127630Y-143683629D01*
X59335512Y-143769949D01*
X59129697Y-143854990D01*
X58736371Y-144247630D01*
X58523243Y-144760900D01*
X58522758Y-145316661D01*
X58734990Y-145830303D01*
X59127630Y-146223629D01*
X59335512Y-146309949D01*
X59129697Y-146394990D01*
X58736371Y-146787630D01*
X58523243Y-147300900D01*
X58522758Y-147856661D01*
X58734990Y-148370303D01*
X59127630Y-148763629D01*
X59335512Y-148849949D01*
X59129697Y-148934990D01*
X58736371Y-149327630D01*
X58523243Y-149840900D01*
X58522758Y-150396661D01*
X58734990Y-150910303D01*
X59127630Y-151303629D01*
X59335512Y-151389949D01*
X59129697Y-151474990D01*
X58736371Y-151867630D01*
X58523243Y-152380900D01*
X58522758Y-152936661D01*
X58734990Y-153450303D01*
X59127630Y-153843629D01*
X59157237Y-153855923D01*
X59252539Y-153951225D01*
X59188857Y-153977603D01*
X59119392Y-154219787D01*
X59920000Y-155020395D01*
X59934143Y-155006253D01*
X60113748Y-155185858D01*
X60099605Y-155200000D01*
X60900213Y-156000608D01*
X61142397Y-155931143D01*
X61329144Y-155407698D01*
X61301362Y-154852632D01*
X61142397Y-154468857D01*
X60902333Y-154400000D01*
X64242685Y-154400000D01*
X64255000Y-154461913D01*
X64255000Y-155035000D01*
X63635000Y-155035000D01*
X63635000Y-154800750D01*
X63476250Y-154642000D01*
X62752000Y-154642000D01*
X62752000Y-154662000D01*
X62498000Y-154662000D01*
X62498000Y-154642000D01*
X61773750Y-154642000D01*
X61615000Y-154800750D01*
X61615000Y-155041309D01*
X61711673Y-155274698D01*
X61715778Y-155278803D01*
X61645657Y-155325657D01*
X61345427Y-155774984D01*
X61240000Y-156305000D01*
X61345427Y-156835016D01*
X61618827Y-157244190D01*
X61578569Y-157303110D01*
X61527560Y-157555000D01*
X61527560Y-157597638D01*
X61316941Y-157808257D01*
X61317242Y-157463339D01*
X61105010Y-156949697D01*
X60712370Y-156556371D01*
X60520273Y-156476605D01*
X60651143Y-156422397D01*
X60720608Y-156180213D01*
X59920000Y-155379605D01*
X59119392Y-156180213D01*
X59188857Y-156422397D01*
X59329318Y-156472509D01*
X59129697Y-156554990D01*
X58736371Y-156947630D01*
X58523243Y-157460900D01*
X58522758Y-158016661D01*
X58536143Y-158049055D01*
X57642599Y-158942599D01*
X57477852Y-159189161D01*
X57430000Y-159429727D01*
X57430000Y-154992302D01*
X58510856Y-154992302D01*
X58538638Y-155547368D01*
X58697603Y-155931143D01*
X58939787Y-156000608D01*
X59740395Y-155200000D01*
X58939787Y-154399392D01*
X58697603Y-154468857D01*
X58510856Y-154992302D01*
X57430000Y-154992302D01*
X57430000Y-136654999D01*
X57416838Y-136588829D01*
X57416838Y-136521363D01*
X57340718Y-136138680D01*
X57270848Y-135969999D01*
X57238437Y-135891750D01*
X57021664Y-135567327D01*
X56832672Y-135378335D01*
X56508248Y-135161562D01*
X56476880Y-135148569D01*
X56261319Y-135059281D01*
X55878636Y-134983161D01*
X55811170Y-134983161D01*
X55745000Y-134969999D01*
X54812467Y-134969999D01*
X53481541Y-134705261D01*
X52410430Y-133989567D01*
X51694739Y-132918458D01*
X51443421Y-131655000D01*
X52560000Y-131655000D01*
X52726323Y-132491163D01*
X53199972Y-133200028D01*
X53908837Y-133673677D01*
X54745000Y-133840000D01*
X55581163Y-133673677D01*
X56290028Y-133200028D01*
X56763677Y-132491163D01*
X56930000Y-131655000D01*
X56763677Y-130818837D01*
X56290028Y-130109972D01*
X55622123Y-129663691D01*
X105815000Y-129663691D01*
X105815000Y-130004250D01*
X105973750Y-130163000D01*
X106948000Y-130163000D01*
X106948000Y-129313750D01*
X107202000Y-129313750D01*
X107202000Y-130163000D01*
X108176250Y-130163000D01*
X108335000Y-130004250D01*
X108335000Y-129663691D01*
X108238327Y-129430302D01*
X108059699Y-129251673D01*
X107826310Y-129155000D01*
X107360750Y-129155000D01*
X107202000Y-129313750D01*
X106948000Y-129313750D01*
X106789250Y-129155000D01*
X106323690Y-129155000D01*
X106090301Y-129251673D01*
X105911673Y-129430302D01*
X105815000Y-129663691D01*
X55622123Y-129663691D01*
X55581163Y-129636323D01*
X54745000Y-129470000D01*
X53908837Y-129636323D01*
X53199972Y-130109972D01*
X52726323Y-130818837D01*
X52560000Y-131655000D01*
X51443421Y-131655000D01*
X51694739Y-130391542D01*
X52410430Y-129320433D01*
X53481541Y-128604739D01*
X54812467Y-128340001D01*
X131713000Y-128340001D01*
X131713000Y-130885816D01*
G36*
X95518000Y-158872500D02*
X95538000Y-158872500D01*
X95538000Y-159126500D01*
X95518000Y-159126500D01*
X95518000Y-159146500D01*
X95264000Y-159146500D01*
X95264000Y-159126500D01*
X95244000Y-159126500D01*
X95244000Y-158872500D01*
X95264000Y-158872500D01*
X95264000Y-158852500D01*
X95518000Y-158852500D01*
X95518000Y-158872500D01*
X95518000Y-158872500D01*
G37*
X95518000Y-158872500D02*
X95538000Y-158872500D01*
X95538000Y-159126500D01*
X95518000Y-159126500D01*
X95518000Y-159146500D01*
X95264000Y-159146500D01*
X95264000Y-159126500D01*
X95244000Y-159126500D01*
X95244000Y-158872500D01*
X95264000Y-158872500D01*
X95264000Y-158852500D01*
X95518000Y-158852500D01*
X95518000Y-158872500D01*
G36*
X101490701Y-157735838D02*
X101645979Y-157735973D01*
X101620000Y-157798691D01*
X101620000Y-158039250D01*
X101778750Y-158198000D01*
X102503000Y-158198000D01*
X102503000Y-158178000D01*
X102757000Y-158178000D01*
X102757000Y-158198000D01*
X103289250Y-158198000D01*
X103354750Y-158263500D01*
X104154000Y-158263500D01*
X104154000Y-158241500D01*
X104408000Y-158241500D01*
X104408000Y-158263500D01*
X104428000Y-158263500D01*
X104428000Y-158513500D01*
X104408000Y-158513500D01*
X104408000Y-158535500D01*
X104154000Y-158535500D01*
X104154000Y-158513500D01*
X103542750Y-158513500D01*
X103481250Y-158452000D01*
X102757000Y-158452000D01*
X102757000Y-158472000D01*
X102503000Y-158472000D01*
X102503000Y-158452000D01*
X101778750Y-158452000D01*
X101620000Y-158610750D01*
X101620000Y-158851309D01*
X101667507Y-158966000D01*
X101468691Y-158966000D01*
X101235302Y-159062673D01*
X101233932Y-159064043D01*
X101146890Y-159004569D01*
X100895000Y-158953560D01*
X100487006Y-158953560D01*
X100444965Y-158911519D01*
X100641441Y-158785090D01*
X100786431Y-158572890D01*
X100837440Y-158321000D01*
X100837440Y-158318440D01*
X100840000Y-158318440D01*
X101075317Y-158274162D01*
X101291441Y-158135090D01*
X101436431Y-157922890D01*
X101475581Y-157729560D01*
X101490701Y-157735838D01*
X101490701Y-157735838D01*
G37*
X101490701Y-157735838D02*
X101645979Y-157735973D01*
X101620000Y-157798691D01*
X101620000Y-158039250D01*
X101778750Y-158198000D01*
X102503000Y-158198000D01*
X102503000Y-158178000D01*
X102757000Y-158178000D01*
X102757000Y-158198000D01*
X103289250Y-158198000D01*
X103354750Y-158263500D01*
X104154000Y-158263500D01*
X104154000Y-158241500D01*
X104408000Y-158241500D01*
X104408000Y-158263500D01*
X104428000Y-158263500D01*
X104428000Y-158513500D01*
X104408000Y-158513500D01*
X104408000Y-158535500D01*
X104154000Y-158535500D01*
X104154000Y-158513500D01*
X103542750Y-158513500D01*
X103481250Y-158452000D01*
X102757000Y-158452000D01*
X102757000Y-158472000D01*
X102503000Y-158472000D01*
X102503000Y-158452000D01*
X101778750Y-158452000D01*
X101620000Y-158610750D01*
X101620000Y-158851309D01*
X101667507Y-158966000D01*
X101468691Y-158966000D01*
X101235302Y-159062673D01*
X101233932Y-159064043D01*
X101146890Y-159004569D01*
X100895000Y-158953560D01*
X100487006Y-158953560D01*
X100444965Y-158911519D01*
X100641441Y-158785090D01*
X100786431Y-158572890D01*
X100837440Y-158321000D01*
X100837440Y-158318440D01*
X100840000Y-158318440D01*
X101075317Y-158274162D01*
X101291441Y-158135090D01*
X101436431Y-157922890D01*
X101475581Y-157729560D01*
X101490701Y-157735838D01*
G36*
X94381000Y-158473191D02*
X94381000Y-158713750D01*
X94539748Y-158872498D01*
X94449719Y-158872498D01*
X94270017Y-158752425D01*
X94053002Y-158709258D01*
X94053002Y-158384500D01*
X94417737Y-158384500D01*
X94381000Y-158473191D01*
X94381000Y-158473191D01*
G37*
X94381000Y-158473191D02*
X94381000Y-158713750D01*
X94539748Y-158872498D01*
X94449719Y-158872498D01*
X94270017Y-158752425D01*
X94053002Y-158709258D01*
X94053002Y-158384500D01*
X94417737Y-158384500D01*
X94381000Y-158473191D01*
G36*
X90057000Y-138513000D02*
X90077000Y-138513000D01*
X90077000Y-138767000D01*
X90057000Y-138767000D01*
X90057000Y-139966250D01*
X90215750Y-140125000D01*
X90906310Y-140125000D01*
X91139699Y-140028327D01*
X91318327Y-139849698D01*
X91390597Y-139675223D01*
X91419946Y-139719147D01*
X91901715Y-140041054D01*
X92470000Y-140154093D01*
X93038285Y-140041054D01*
X93255000Y-139896250D01*
X93255000Y-143239698D01*
X92198622Y-142183320D01*
X92198662Y-142137833D01*
X92056617Y-141794057D01*
X91793827Y-141530808D01*
X91450299Y-141388162D01*
X91078333Y-141387838D01*
X90734557Y-141529883D01*
X90471308Y-141792673D01*
X90328662Y-142136201D01*
X90328338Y-142508167D01*
X90470383Y-142851943D01*
X90733173Y-143115192D01*
X91076701Y-143257838D01*
X91123577Y-143257879D01*
X92286198Y-144420500D01*
X87317463Y-144420500D01*
X87285327Y-144388308D01*
X86941799Y-144245662D01*
X86569833Y-144245338D01*
X86226057Y-144387383D01*
X85962808Y-144650173D01*
X85820162Y-144993701D01*
X85819838Y-145365667D01*
X85961883Y-145709443D01*
X86224673Y-145972692D01*
X86568201Y-146115338D01*
X86940167Y-146115662D01*
X87283943Y-145973617D01*
X87317118Y-145940500D01*
X91538833Y-145940500D01*
X91538726Y-146062953D01*
X91680771Y-146406729D01*
X91701231Y-146427224D01*
X91663137Y-146518964D01*
X91663132Y-146525000D01*
X87000000Y-146525000D01*
X86709160Y-146582852D01*
X86691064Y-146594944D01*
X86569833Y-146594838D01*
X86226057Y-146736883D01*
X85962808Y-146999673D01*
X85820162Y-147343201D01*
X85819838Y-147715167D01*
X85961883Y-148058943D01*
X86224673Y-148322192D01*
X86568201Y-148464838D01*
X86940167Y-148465162D01*
X87283943Y-148323117D01*
X87547192Y-148060327D01*
X87553556Y-148045000D01*
X88101108Y-148045000D01*
X77946108Y-158200000D01*
X73349802Y-158200000D01*
X74592401Y-156957401D01*
X74757148Y-156710840D01*
X74815000Y-156420000D01*
X74815000Y-152630480D01*
X88445000Y-139000480D01*
X88445000Y-139616309D01*
X88541673Y-139849698D01*
X88720301Y-140028327D01*
X88953690Y-140125000D01*
X89644250Y-140125000D01*
X89803000Y-139966250D01*
X89803000Y-138767000D01*
X89783000Y-138767000D01*
X89783000Y-138513000D01*
X89803000Y-138513000D01*
X89803000Y-138493000D01*
X90057000Y-138493000D01*
X90057000Y-138513000D01*
X90057000Y-138513000D01*
G37*
X90057000Y-138513000D02*
X90077000Y-138513000D01*
X90077000Y-138767000D01*
X90057000Y-138767000D01*
X90057000Y-139966250D01*
X90215750Y-140125000D01*
X90906310Y-140125000D01*
X91139699Y-140028327D01*
X91318327Y-139849698D01*
X91390597Y-139675223D01*
X91419946Y-139719147D01*
X91901715Y-140041054D01*
X92470000Y-140154093D01*
X93038285Y-140041054D01*
X93255000Y-139896250D01*
X93255000Y-143239698D01*
X92198622Y-142183320D01*
X92198662Y-142137833D01*
X92056617Y-141794057D01*
X91793827Y-141530808D01*
X91450299Y-141388162D01*
X91078333Y-141387838D01*
X90734557Y-141529883D01*
X90471308Y-141792673D01*
X90328662Y-142136201D01*
X90328338Y-142508167D01*
X90470383Y-142851943D01*
X90733173Y-143115192D01*
X91076701Y-143257838D01*
X91123577Y-143257879D01*
X92286198Y-144420500D01*
X87317463Y-144420500D01*
X87285327Y-144388308D01*
X86941799Y-144245662D01*
X86569833Y-144245338D01*
X86226057Y-144387383D01*
X85962808Y-144650173D01*
X85820162Y-144993701D01*
X85819838Y-145365667D01*
X85961883Y-145709443D01*
X86224673Y-145972692D01*
X86568201Y-146115338D01*
X86940167Y-146115662D01*
X87283943Y-145973617D01*
X87317118Y-145940500D01*
X91538833Y-145940500D01*
X91538726Y-146062953D01*
X91680771Y-146406729D01*
X91701231Y-146427224D01*
X91663137Y-146518964D01*
X91663132Y-146525000D01*
X87000000Y-146525000D01*
X86709160Y-146582852D01*
X86691064Y-146594944D01*
X86569833Y-146594838D01*
X86226057Y-146736883D01*
X85962808Y-146999673D01*
X85820162Y-147343201D01*
X85819838Y-147715167D01*
X85961883Y-148058943D01*
X86224673Y-148322192D01*
X86568201Y-148464838D01*
X86940167Y-148465162D01*
X87283943Y-148323117D01*
X87547192Y-148060327D01*
X87553556Y-148045000D01*
X88101108Y-148045000D01*
X77946108Y-158200000D01*
X73349802Y-158200000D01*
X74592401Y-156957401D01*
X74757148Y-156710840D01*
X74815000Y-156420000D01*
X74815000Y-152630480D01*
X88445000Y-139000480D01*
X88445000Y-139616309D01*
X88541673Y-139849698D01*
X88720301Y-140028327D01*
X88953690Y-140125000D01*
X89644250Y-140125000D01*
X89803000Y-139966250D01*
X89803000Y-138767000D01*
X89783000Y-138767000D01*
X89783000Y-138513000D01*
X89803000Y-138513000D01*
X89803000Y-138493000D01*
X90057000Y-138493000D01*
X90057000Y-138513000D01*
G36*
X108230000Y-156708316D02*
X107066537Y-157871779D01*
X106973090Y-157726559D01*
X106903289Y-157678866D01*
X106960441Y-157642090D01*
X107105431Y-157429890D01*
X107156440Y-157178000D01*
X107156440Y-156678000D01*
X107112162Y-156442683D01*
X106973090Y-156226559D01*
X106846407Y-156140000D01*
X108230000Y-156140000D01*
X108230000Y-156708316D01*
X108230000Y-156708316D01*
G37*
X108230000Y-156708316D02*
X107066537Y-157871779D01*
X106973090Y-157726559D01*
X106903289Y-157678866D01*
X106960441Y-157642090D01*
X107105431Y-157429890D01*
X107156440Y-157178000D01*
X107156440Y-156678000D01*
X107112162Y-156442683D01*
X106973090Y-156226559D01*
X106846407Y-156140000D01*
X108230000Y-156140000D01*
X108230000Y-156708316D01*
G36*
X97652998Y-152667500D02*
X97694583Y-152667500D01*
X97694338Y-152948650D01*
X97836383Y-153292426D01*
X97869500Y-153325601D01*
X97869500Y-153626000D01*
X97927352Y-153916839D01*
X98092099Y-154163401D01*
X98102258Y-154173560D01*
X97990000Y-154173560D01*
X97754683Y-154217838D01*
X97538559Y-154356910D01*
X97393569Y-154569110D01*
X97342560Y-154821000D01*
X97342560Y-154872310D01*
X97306250Y-154836000D01*
X97248921Y-154836000D01*
X97250440Y-154828500D01*
X97250440Y-154328500D01*
X97206162Y-154093183D01*
X97067090Y-153877059D01*
X96997289Y-153829366D01*
X97054441Y-153792590D01*
X97199431Y-153580390D01*
X97250440Y-153328500D01*
X97250440Y-152828500D01*
X97217310Y-152652431D01*
X97253691Y-152667500D01*
X97494250Y-152667500D01*
X97652998Y-152508752D01*
X97652998Y-152667500D01*
X97652998Y-152667500D01*
G37*
X97652998Y-152667500D02*
X97694583Y-152667500D01*
X97694338Y-152948650D01*
X97836383Y-153292426D01*
X97869500Y-153325601D01*
X97869500Y-153626000D01*
X97927352Y-153916839D01*
X98092099Y-154163401D01*
X98102258Y-154173560D01*
X97990000Y-154173560D01*
X97754683Y-154217838D01*
X97538559Y-154356910D01*
X97393569Y-154569110D01*
X97342560Y-154821000D01*
X97342560Y-154872310D01*
X97306250Y-154836000D01*
X97248921Y-154836000D01*
X97250440Y-154828500D01*
X97250440Y-154328500D01*
X97206162Y-154093183D01*
X97067090Y-153877059D01*
X96997289Y-153829366D01*
X97054441Y-153792590D01*
X97199431Y-153580390D01*
X97250440Y-153328500D01*
X97250440Y-152828500D01*
X97217310Y-152652431D01*
X97253691Y-152667500D01*
X97494250Y-152667500D01*
X97652998Y-152508752D01*
X97652998Y-152667500D01*
G36*
X108230000Y-154620000D02*
X105396176Y-154620000D01*
X105436441Y-154594090D01*
X105581431Y-154381890D01*
X105632440Y-154130000D01*
X105632440Y-153630000D01*
X105588162Y-153394683D01*
X105565844Y-153360000D01*
X108230000Y-153360000D01*
X108230000Y-154620000D01*
X108230000Y-154620000D01*
G37*
X108230000Y-154620000D02*
X105396176Y-154620000D01*
X105436441Y-154594090D01*
X105581431Y-154381890D01*
X105632440Y-154130000D01*
X105632440Y-153630000D01*
X105588162Y-153394683D01*
X105565844Y-153360000D01*
X108230000Y-153360000D01*
X108230000Y-154620000D01*
G36*
X100090000Y-151340000D02*
X101391314Y-151340000D01*
X101901314Y-151850000D01*
X101100000Y-151850000D01*
X101100000Y-151740750D01*
X100941250Y-151582000D01*
X100217000Y-151582000D01*
X100217000Y-151602000D01*
X99963000Y-151602000D01*
X99963000Y-151582000D01*
X99943000Y-151582000D01*
X99943000Y-151328000D01*
X99963000Y-151328000D01*
X99963000Y-151314738D01*
X100090000Y-151340000D01*
X100090000Y-151340000D01*
G37*
X100090000Y-151340000D02*
X101391314Y-151340000D01*
X101901314Y-151850000D01*
X101100000Y-151850000D01*
X101100000Y-151740750D01*
X100941250Y-151582000D01*
X100217000Y-151582000D01*
X100217000Y-151602000D01*
X99963000Y-151602000D01*
X99963000Y-151582000D01*
X99943000Y-151582000D01*
X99943000Y-151328000D01*
X99963000Y-151328000D01*
X99963000Y-151314738D01*
X100090000Y-151340000D01*
G36*
X97907000Y-151530500D02*
X97927000Y-151530500D01*
X97927000Y-151784500D01*
X97907000Y-151784500D01*
X97907000Y-151804500D01*
X97653000Y-151804500D01*
X97653000Y-151784500D01*
X97633000Y-151784500D01*
X97633000Y-151530500D01*
X97653000Y-151530500D01*
X97653000Y-151511055D01*
X97654343Y-151510500D01*
X97907000Y-151510500D01*
X97907000Y-151530500D01*
X97907000Y-151530500D01*
G37*
X97907000Y-151530500D02*
X97927000Y-151530500D01*
X97927000Y-151784500D01*
X97907000Y-151784500D01*
X97907000Y-151804500D01*
X97653000Y-151804500D01*
X97653000Y-151784500D01*
X97633000Y-151784500D01*
X97633000Y-151530500D01*
X97653000Y-151530500D01*
X97653000Y-151511055D01*
X97654343Y-151510500D01*
X97907000Y-151510500D01*
X97907000Y-151530500D01*
G36*
X93232000Y-151530500D02*
X93252000Y-151530500D01*
X93252000Y-151784500D01*
X93232000Y-151784500D01*
X93232000Y-151804500D01*
X92978000Y-151804500D01*
X92978000Y-151784500D01*
X92958000Y-151784500D01*
X92958000Y-151530500D01*
X92978000Y-151530500D01*
X92978000Y-151510500D01*
X93232000Y-151510500D01*
X93232000Y-151530500D01*
X93232000Y-151530500D01*
G37*
X93232000Y-151530500D02*
X93252000Y-151530500D01*
X93252000Y-151784500D01*
X93232000Y-151784500D01*
X93232000Y-151804500D01*
X92978000Y-151804500D01*
X92978000Y-151784500D01*
X92958000Y-151784500D01*
X92958000Y-151530500D01*
X92978000Y-151530500D01*
X92978000Y-151510500D01*
X93232000Y-151510500D01*
X93232000Y-151530500D01*
G36*
X109279867Y-145271447D02*
X108635657Y-145915657D01*
X108335427Y-146364983D01*
X108230000Y-146895000D01*
X108230000Y-150590000D01*
X105460948Y-150590000D01*
X105750157Y-150300791D01*
X105885242Y-150103088D01*
X105911291Y-149983007D01*
X105913632Y-149983007D01*
X106147021Y-149886335D01*
X106317122Y-149716234D01*
X106317122Y-149491727D01*
X105805000Y-148979605D01*
X105790858Y-148993748D01*
X105611253Y-148814143D01*
X105625395Y-148800000D01*
X105984605Y-148800000D01*
X106496727Y-149312122D01*
X106721234Y-149312122D01*
X106891335Y-149142021D01*
X106988007Y-148908632D01*
X106988008Y-148656013D01*
X106891335Y-148422624D01*
X106738911Y-148270200D01*
X106514405Y-148270200D01*
X105984605Y-148800000D01*
X105625395Y-148800000D01*
X105276932Y-148451537D01*
X105276932Y-148313314D01*
X104535000Y-147571382D01*
X104520858Y-147585525D01*
X104341253Y-147405920D01*
X104355395Y-147391777D01*
X104341253Y-147377635D01*
X104520858Y-147198030D01*
X104535000Y-147212172D01*
X104549143Y-147198030D01*
X104728748Y-147377635D01*
X104714605Y-147391777D01*
X105292878Y-147970050D01*
X105292878Y-148108273D01*
X105805000Y-148620395D01*
X106334800Y-148090595D01*
X106334800Y-147866089D01*
X106182376Y-147713665D01*
X106058731Y-147662450D01*
X106089239Y-147588797D01*
X106089238Y-147336178D01*
X105992566Y-147102789D01*
X105697785Y-146808008D01*
X105739647Y-146808008D01*
X105973036Y-146711335D01*
X106125460Y-146558911D01*
X106125460Y-146334405D01*
X105595660Y-145804605D01*
X105581518Y-145818748D01*
X105401913Y-145639143D01*
X105416055Y-145625000D01*
X105775265Y-145625000D01*
X106305065Y-146154800D01*
X106529571Y-146154800D01*
X106681995Y-146002376D01*
X106778668Y-145768987D01*
X106778667Y-145516368D01*
X106681995Y-145282979D01*
X106511894Y-145112878D01*
X106287387Y-145112878D01*
X105775265Y-145625000D01*
X105416055Y-145625000D01*
X105401913Y-145610858D01*
X105581518Y-145431253D01*
X105595660Y-145445395D01*
X106107782Y-144933273D01*
X106107782Y-144708766D01*
X105937681Y-144538665D01*
X105704292Y-144441993D01*
X105702356Y-144441993D01*
X105682862Y-144338391D01*
X105540817Y-144124209D01*
X105386608Y-143970000D01*
X107978420Y-143970000D01*
X109279867Y-145271447D01*
X109279867Y-145271447D01*
G37*
X109279867Y-145271447D02*
X108635657Y-145915657D01*
X108335427Y-146364983D01*
X108230000Y-146895000D01*
X108230000Y-150590000D01*
X105460948Y-150590000D01*
X105750157Y-150300791D01*
X105885242Y-150103088D01*
X105911291Y-149983007D01*
X105913632Y-149983007D01*
X106147021Y-149886335D01*
X106317122Y-149716234D01*
X106317122Y-149491727D01*
X105805000Y-148979605D01*
X105790858Y-148993748D01*
X105611253Y-148814143D01*
X105625395Y-148800000D01*
X105984605Y-148800000D01*
X106496727Y-149312122D01*
X106721234Y-149312122D01*
X106891335Y-149142021D01*
X106988007Y-148908632D01*
X106988008Y-148656013D01*
X106891335Y-148422624D01*
X106738911Y-148270200D01*
X106514405Y-148270200D01*
X105984605Y-148800000D01*
X105625395Y-148800000D01*
X105276932Y-148451537D01*
X105276932Y-148313314D01*
X104535000Y-147571382D01*
X104520858Y-147585525D01*
X104341253Y-147405920D01*
X104355395Y-147391777D01*
X104341253Y-147377635D01*
X104520858Y-147198030D01*
X104535000Y-147212172D01*
X104549143Y-147198030D01*
X104728748Y-147377635D01*
X104714605Y-147391777D01*
X105292878Y-147970050D01*
X105292878Y-148108273D01*
X105805000Y-148620395D01*
X106334800Y-148090595D01*
X106334800Y-147866089D01*
X106182376Y-147713665D01*
X106058731Y-147662450D01*
X106089239Y-147588797D01*
X106089238Y-147336178D01*
X105992566Y-147102789D01*
X105697785Y-146808008D01*
X105739647Y-146808008D01*
X105973036Y-146711335D01*
X106125460Y-146558911D01*
X106125460Y-146334405D01*
X105595660Y-145804605D01*
X105581518Y-145818748D01*
X105401913Y-145639143D01*
X105416055Y-145625000D01*
X105775265Y-145625000D01*
X106305065Y-146154800D01*
X106529571Y-146154800D01*
X106681995Y-146002376D01*
X106778668Y-145768987D01*
X106778667Y-145516368D01*
X106681995Y-145282979D01*
X106511894Y-145112878D01*
X106287387Y-145112878D01*
X105775265Y-145625000D01*
X105416055Y-145625000D01*
X105401913Y-145610858D01*
X105581518Y-145431253D01*
X105595660Y-145445395D01*
X106107782Y-144933273D01*
X106107782Y-144708766D01*
X105937681Y-144538665D01*
X105704292Y-144441993D01*
X105702356Y-144441993D01*
X105682862Y-144338391D01*
X105540817Y-144124209D01*
X105386608Y-143970000D01*
X107978420Y-143970000D01*
X109279867Y-145271447D01*
G36*
X95404500Y-146045500D02*
X96875500Y-146045500D01*
X96875500Y-146025500D01*
X97129500Y-146025500D01*
X97129500Y-146045500D01*
X97149500Y-146045500D01*
X97149500Y-146299500D01*
X97129500Y-146299500D01*
X97129500Y-147770500D01*
X97149500Y-147770500D01*
X97149500Y-148024500D01*
X97129500Y-148024500D01*
X97129500Y-148044500D01*
X96875500Y-148044500D01*
X96875500Y-148024500D01*
X95404500Y-148024500D01*
X95404500Y-148044500D01*
X95150500Y-148044500D01*
X95150500Y-148024500D01*
X95130500Y-148024500D01*
X95130500Y-147770500D01*
X95150500Y-147770500D01*
X95150500Y-146299500D01*
X95404500Y-146299500D01*
X95404500Y-147770500D01*
X96875500Y-147770500D01*
X96875500Y-146299500D01*
X95404500Y-146299500D01*
X95150500Y-146299500D01*
X95130500Y-146299500D01*
X95130500Y-146045500D01*
X95150500Y-146045500D01*
X95150500Y-146025500D01*
X95404500Y-146025500D01*
X95404500Y-146045500D01*
X95404500Y-146045500D01*
G37*
X95404500Y-146045500D02*
X96875500Y-146045500D01*
X96875500Y-146025500D01*
X97129500Y-146025500D01*
X97129500Y-146045500D01*
X97149500Y-146045500D01*
X97149500Y-146299500D01*
X97129500Y-146299500D01*
X97129500Y-147770500D01*
X97149500Y-147770500D01*
X97149500Y-148024500D01*
X97129500Y-148024500D01*
X97129500Y-148044500D01*
X96875500Y-148044500D01*
X96875500Y-148024500D01*
X95404500Y-148024500D01*
X95404500Y-148044500D01*
X95150500Y-148044500D01*
X95150500Y-148024500D01*
X95130500Y-148024500D01*
X95130500Y-147770500D01*
X95150500Y-147770500D01*
X95150500Y-146299500D01*
X95404500Y-146299500D01*
X95404500Y-147770500D01*
X96875500Y-147770500D01*
X96875500Y-146299500D01*
X95404500Y-146299500D01*
X95150500Y-146299500D01*
X95130500Y-146299500D01*
X95130500Y-146045500D01*
X95150500Y-146045500D01*
X95150500Y-146025500D01*
X95404500Y-146025500D01*
X95404500Y-146045500D01*
G36*
X101688188Y-147024081D02*
X101674045Y-147038223D01*
X101688188Y-147052366D01*
X101508583Y-147231971D01*
X101494440Y-147217828D01*
X101480298Y-147231971D01*
X101300693Y-147052366D01*
X101314835Y-147038223D01*
X101300693Y-147024081D01*
X101480298Y-146844476D01*
X101494440Y-146858618D01*
X101508583Y-146844476D01*
X101688188Y-147024081D01*
X101688188Y-147024081D01*
G37*
X101688188Y-147024081D02*
X101674045Y-147038223D01*
X101688188Y-147052366D01*
X101508583Y-147231971D01*
X101494440Y-147217828D01*
X101480298Y-147231971D01*
X101300693Y-147052366D01*
X101314835Y-147038223D01*
X101300693Y-147024081D01*
X101480298Y-146844476D01*
X101494440Y-146858618D01*
X101508583Y-146844476D01*
X101688188Y-147024081D01*
G36*
X104455692Y-145837538D02*
X104390858Y-145837538D01*
X104404560Y-145774375D01*
X104403801Y-145770341D01*
X104420812Y-145753330D01*
X104455692Y-145837538D01*
X104455692Y-145837538D01*
G37*
X104455692Y-145837538D02*
X104390858Y-145837538D01*
X104404560Y-145774375D01*
X104403801Y-145770341D01*
X104420812Y-145753330D01*
X104455692Y-145837538D01*
G36*
X145302000Y-144863000D02*
X145322000Y-144863000D01*
X145322000Y-145117000D01*
X145302000Y-145117000D01*
X145302000Y-145137000D01*
X145048000Y-145137000D01*
X145048000Y-145117000D01*
X145028000Y-145117000D01*
X145028000Y-144863000D01*
X145048000Y-144863000D01*
X145048000Y-144843000D01*
X145302000Y-144843000D01*
X145302000Y-144863000D01*
X145302000Y-144863000D01*
G37*
X145302000Y-144863000D02*
X145322000Y-144863000D01*
X145322000Y-145117000D01*
X145302000Y-145117000D01*
X145302000Y-145137000D01*
X145048000Y-145137000D01*
X145048000Y-145117000D01*
X145028000Y-145117000D01*
X145028000Y-144863000D01*
X145048000Y-144863000D01*
X145048000Y-144843000D01*
X145302000Y-144843000D01*
X145302000Y-144863000D01*
G36*
X143239999Y-142309801D02*
X143239999Y-143665032D01*
X142991892Y-143548514D01*
X142762000Y-143669181D01*
X142762000Y-144863000D01*
X142782000Y-144863000D01*
X142782000Y-145117000D01*
X142762000Y-145117000D01*
X142762000Y-145137000D01*
X142508000Y-145137000D01*
X142508000Y-145117000D01*
X142488000Y-145117000D01*
X142488000Y-144863000D01*
X142508000Y-144863000D01*
X142508000Y-143669181D01*
X142278108Y-143548514D01*
X142219999Y-143575804D01*
X142219999Y-141289801D01*
X143239999Y-142309801D01*
X143239999Y-142309801D01*
G37*
X143239999Y-142309801D02*
X143239999Y-143665032D01*
X142991892Y-143548514D01*
X142762000Y-143669181D01*
X142762000Y-144863000D01*
X142782000Y-144863000D01*
X142782000Y-145117000D01*
X142762000Y-145117000D01*
X142762000Y-145137000D01*
X142508000Y-145137000D01*
X142508000Y-145117000D01*
X142488000Y-145117000D01*
X142488000Y-144863000D01*
X142508000Y-144863000D01*
X142508000Y-143669181D01*
X142278108Y-143548514D01*
X142219999Y-143575804D01*
X142219999Y-141289801D01*
X143239999Y-142309801D01*
G36*
X112710011Y-137145011D02*
X124895040Y-137145011D01*
X125124382Y-137374353D01*
X125573708Y-137674583D01*
X126103725Y-137780010D01*
X129389992Y-137780010D01*
X129802177Y-137698021D01*
X127715198Y-139785000D01*
X125438631Y-139785000D01*
X125147792Y-139842852D01*
X124901230Y-140007599D01*
X123463361Y-141445468D01*
X123422440Y-141445432D01*
X123422440Y-141335000D01*
X123378162Y-141099683D01*
X123239090Y-140883559D01*
X123026890Y-140738569D01*
X122775000Y-140687560D01*
X119775000Y-140687560D01*
X119539683Y-140731838D01*
X119323559Y-140870910D01*
X119178569Y-141083110D01*
X119127560Y-141335000D01*
X119127560Y-142295000D01*
X119171838Y-142530317D01*
X119310910Y-142746441D01*
X119523110Y-142891431D01*
X119775000Y-142942440D01*
X122775000Y-142942440D01*
X122832056Y-142931704D01*
X123072714Y-143172782D01*
X123381568Y-143301030D01*
X123285162Y-143533201D01*
X123284838Y-143905167D01*
X123423188Y-144240000D01*
X119092440Y-144240000D01*
X119092440Y-141335000D01*
X119048162Y-141099683D01*
X118909090Y-140883559D01*
X118696890Y-140738569D01*
X118445000Y-140687560D01*
X117485000Y-140687560D01*
X117249683Y-140731838D01*
X117033559Y-140870910D01*
X116888569Y-141083110D01*
X116837560Y-141335000D01*
X116837560Y-144240000D01*
X116802440Y-144240000D01*
X116802440Y-142962000D01*
X115802000Y-142962000D01*
X115802000Y-142982000D01*
X115548000Y-142982000D01*
X115548000Y-142962000D01*
X114547560Y-142962000D01*
X114547560Y-144240000D01*
X114512440Y-144240000D01*
X114512440Y-141335000D01*
X114547560Y-141335000D01*
X114547560Y-142708000D01*
X115548000Y-142708000D01*
X115548000Y-140687560D01*
X115802000Y-140687560D01*
X115802000Y-142708000D01*
X116802440Y-142708000D01*
X116802440Y-141335000D01*
X116758162Y-141099683D01*
X116619090Y-140883559D01*
X116406890Y-140738569D01*
X116155000Y-140687560D01*
X115802000Y-140687560D01*
X115548000Y-140687560D01*
X115195000Y-140687560D01*
X114959683Y-140731838D01*
X114743559Y-140870910D01*
X114598569Y-141083110D01*
X114547560Y-141335000D01*
X114512440Y-141335000D01*
X114468162Y-141099683D01*
X114329090Y-140883559D01*
X114116890Y-140738569D01*
X113865000Y-140687560D01*
X112905000Y-140687560D01*
X112669683Y-140731838D01*
X112453559Y-140870910D01*
X112308569Y-141083110D01*
X112257560Y-141335000D01*
X112257560Y-144240000D01*
X111450435Y-144240000D01*
X111450721Y-143911805D01*
X111308676Y-143568029D01*
X111045886Y-143304780D01*
X110835000Y-143217212D01*
X110835000Y-142942440D01*
X111575000Y-142942440D01*
X111810317Y-142898162D01*
X112026441Y-142759090D01*
X112171431Y-142546890D01*
X112222440Y-142295000D01*
X112222440Y-141335000D01*
X112178162Y-141099683D01*
X112039090Y-140883559D01*
X111826890Y-140738569D01*
X111575000Y-140687560D01*
X108575000Y-140687560D01*
X108539348Y-140694268D01*
X108477845Y-140632766D01*
X108575000Y-140652440D01*
X111575000Y-140652440D01*
X111810317Y-140608162D01*
X112026441Y-140469090D01*
X112171431Y-140256890D01*
X112222440Y-140005000D01*
X112222440Y-139045000D01*
X119127560Y-139045000D01*
X119127560Y-140005000D01*
X119171838Y-140240317D01*
X119310910Y-140456441D01*
X119523110Y-140601431D01*
X119775000Y-140652440D01*
X122775000Y-140652440D01*
X123010317Y-140608162D01*
X123226441Y-140469090D01*
X123371431Y-140256890D01*
X123422440Y-140005000D01*
X123422440Y-139045000D01*
X123378162Y-138809683D01*
X123239090Y-138593559D01*
X123026890Y-138448569D01*
X122775000Y-138397560D01*
X119775000Y-138397560D01*
X119539683Y-138441838D01*
X119323559Y-138580910D01*
X119178569Y-138793110D01*
X119127560Y-139045000D01*
X112222440Y-139045000D01*
X112178162Y-138809683D01*
X112039090Y-138593559D01*
X111826890Y-138448569D01*
X111575000Y-138397560D01*
X110780139Y-138397560D01*
X110832700Y-138362440D01*
X111575000Y-138362440D01*
X111810317Y-138318162D01*
X112026441Y-138179090D01*
X112171431Y-137966890D01*
X112222440Y-137715000D01*
X112222440Y-137362000D01*
X119127560Y-137362000D01*
X119127560Y-137715000D01*
X119171838Y-137950317D01*
X119310910Y-138166441D01*
X119523110Y-138311431D01*
X119775000Y-138362440D01*
X121148000Y-138362440D01*
X121148000Y-137362000D01*
X121402000Y-137362000D01*
X121402000Y-138362440D01*
X122775000Y-138362440D01*
X123010317Y-138318162D01*
X123226441Y-138179090D01*
X123371431Y-137966890D01*
X123422440Y-137715000D01*
X123422440Y-137362000D01*
X121402000Y-137362000D01*
X121148000Y-137362000D01*
X119127560Y-137362000D01*
X112222440Y-137362000D01*
X112222440Y-137048027D01*
X112710011Y-137145011D01*
X112710011Y-137145011D01*
G37*
X112710011Y-137145011D02*
X124895040Y-137145011D01*
X125124382Y-137374353D01*
X125573708Y-137674583D01*
X126103725Y-137780010D01*
X129389992Y-137780010D01*
X129802177Y-137698021D01*
X127715198Y-139785000D01*
X125438631Y-139785000D01*
X125147792Y-139842852D01*
X124901230Y-140007599D01*
X123463361Y-141445468D01*
X123422440Y-141445432D01*
X123422440Y-141335000D01*
X123378162Y-141099683D01*
X123239090Y-140883559D01*
X123026890Y-140738569D01*
X122775000Y-140687560D01*
X119775000Y-140687560D01*
X119539683Y-140731838D01*
X119323559Y-140870910D01*
X119178569Y-141083110D01*
X119127560Y-141335000D01*
X119127560Y-142295000D01*
X119171838Y-142530317D01*
X119310910Y-142746441D01*
X119523110Y-142891431D01*
X119775000Y-142942440D01*
X122775000Y-142942440D01*
X122832056Y-142931704D01*
X123072714Y-143172782D01*
X123381568Y-143301030D01*
X123285162Y-143533201D01*
X123284838Y-143905167D01*
X123423188Y-144240000D01*
X119092440Y-144240000D01*
X119092440Y-141335000D01*
X119048162Y-141099683D01*
X118909090Y-140883559D01*
X118696890Y-140738569D01*
X118445000Y-140687560D01*
X117485000Y-140687560D01*
X117249683Y-140731838D01*
X117033559Y-140870910D01*
X116888569Y-141083110D01*
X116837560Y-141335000D01*
X116837560Y-144240000D01*
X116802440Y-144240000D01*
X116802440Y-142962000D01*
X115802000Y-142962000D01*
X115802000Y-142982000D01*
X115548000Y-142982000D01*
X115548000Y-142962000D01*
X114547560Y-142962000D01*
X114547560Y-144240000D01*
X114512440Y-144240000D01*
X114512440Y-141335000D01*
X114547560Y-141335000D01*
X114547560Y-142708000D01*
X115548000Y-142708000D01*
X115548000Y-140687560D01*
X115802000Y-140687560D01*
X115802000Y-142708000D01*
X116802440Y-142708000D01*
X116802440Y-141335000D01*
X116758162Y-141099683D01*
X116619090Y-140883559D01*
X116406890Y-140738569D01*
X116155000Y-140687560D01*
X115802000Y-140687560D01*
X115548000Y-140687560D01*
X115195000Y-140687560D01*
X114959683Y-140731838D01*
X114743559Y-140870910D01*
X114598569Y-141083110D01*
X114547560Y-141335000D01*
X114512440Y-141335000D01*
X114468162Y-141099683D01*
X114329090Y-140883559D01*
X114116890Y-140738569D01*
X113865000Y-140687560D01*
X112905000Y-140687560D01*
X112669683Y-140731838D01*
X112453559Y-140870910D01*
X112308569Y-141083110D01*
X112257560Y-141335000D01*
X112257560Y-144240000D01*
X111450435Y-144240000D01*
X111450721Y-143911805D01*
X111308676Y-143568029D01*
X111045886Y-143304780D01*
X110835000Y-143217212D01*
X110835000Y-142942440D01*
X111575000Y-142942440D01*
X111810317Y-142898162D01*
X112026441Y-142759090D01*
X112171431Y-142546890D01*
X112222440Y-142295000D01*
X112222440Y-141335000D01*
X112178162Y-141099683D01*
X112039090Y-140883559D01*
X111826890Y-140738569D01*
X111575000Y-140687560D01*
X108575000Y-140687560D01*
X108539348Y-140694268D01*
X108477845Y-140632766D01*
X108575000Y-140652440D01*
X111575000Y-140652440D01*
X111810317Y-140608162D01*
X112026441Y-140469090D01*
X112171431Y-140256890D01*
X112222440Y-140005000D01*
X112222440Y-139045000D01*
X119127560Y-139045000D01*
X119127560Y-140005000D01*
X119171838Y-140240317D01*
X119310910Y-140456441D01*
X119523110Y-140601431D01*
X119775000Y-140652440D01*
X122775000Y-140652440D01*
X123010317Y-140608162D01*
X123226441Y-140469090D01*
X123371431Y-140256890D01*
X123422440Y-140005000D01*
X123422440Y-139045000D01*
X123378162Y-138809683D01*
X123239090Y-138593559D01*
X123026890Y-138448569D01*
X122775000Y-138397560D01*
X119775000Y-138397560D01*
X119539683Y-138441838D01*
X119323559Y-138580910D01*
X119178569Y-138793110D01*
X119127560Y-139045000D01*
X112222440Y-139045000D01*
X112178162Y-138809683D01*
X112039090Y-138593559D01*
X111826890Y-138448569D01*
X111575000Y-138397560D01*
X110780139Y-138397560D01*
X110832700Y-138362440D01*
X111575000Y-138362440D01*
X111810317Y-138318162D01*
X112026441Y-138179090D01*
X112171431Y-137966890D01*
X112222440Y-137715000D01*
X112222440Y-137362000D01*
X119127560Y-137362000D01*
X119127560Y-137715000D01*
X119171838Y-137950317D01*
X119310910Y-138166441D01*
X119523110Y-138311431D01*
X119775000Y-138362440D01*
X121148000Y-138362440D01*
X121148000Y-137362000D01*
X121402000Y-137362000D01*
X121402000Y-138362440D01*
X122775000Y-138362440D01*
X123010317Y-138318162D01*
X123226441Y-138179090D01*
X123371431Y-137966890D01*
X123422440Y-137715000D01*
X123422440Y-137362000D01*
X121402000Y-137362000D01*
X121148000Y-137362000D01*
X119127560Y-137362000D01*
X112222440Y-137362000D01*
X112222440Y-137048027D01*
X112710011Y-137145011D01*
G36*
X137670678Y-137369528D02*
X137613569Y-137453110D01*
X137562560Y-137705000D01*
X137562560Y-138305000D01*
X137606838Y-138540317D01*
X137670678Y-138639528D01*
X137613569Y-138723110D01*
X137562560Y-138975000D01*
X137562560Y-139575000D01*
X137606838Y-139810317D01*
X137665178Y-139900980D01*
X137575000Y-140118690D01*
X137575000Y-140259250D01*
X137733750Y-140418000D01*
X138858000Y-140418000D01*
X138858000Y-140398000D01*
X139112000Y-140398000D01*
X139112000Y-140418000D01*
X139132000Y-140418000D01*
X139132000Y-140672000D01*
X139112000Y-140672000D01*
X139112000Y-141321250D01*
X139270750Y-141480000D01*
X139886309Y-141480000D01*
X140119698Y-141383327D01*
X140298327Y-141204699D01*
X140395000Y-140971310D01*
X140395000Y-140830750D01*
X140236252Y-140672002D01*
X140332200Y-140672002D01*
X140699999Y-141039801D01*
X140699999Y-143636313D01*
X139804343Y-142740657D01*
X139799331Y-142737308D01*
X139355017Y-142440427D01*
X138825000Y-142335000D01*
X135900000Y-142335000D01*
X135900000Y-140830750D01*
X137575000Y-140830750D01*
X137575000Y-140971310D01*
X137671673Y-141204699D01*
X137850302Y-141383327D01*
X138083691Y-141480000D01*
X138699250Y-141480000D01*
X138858000Y-141321250D01*
X138858000Y-140672000D01*
X137733750Y-140672000D01*
X137575000Y-140830750D01*
X135900000Y-140830750D01*
X135900000Y-137690005D01*
X135900001Y-137690000D01*
X135837859Y-137377598D01*
X135832633Y-137351325D01*
X135802682Y-137306500D01*
X137630121Y-137306500D01*
X137670678Y-137369528D01*
X137670678Y-137369528D01*
G37*
X137670678Y-137369528D02*
X137613569Y-137453110D01*
X137562560Y-137705000D01*
X137562560Y-138305000D01*
X137606838Y-138540317D01*
X137670678Y-138639528D01*
X137613569Y-138723110D01*
X137562560Y-138975000D01*
X137562560Y-139575000D01*
X137606838Y-139810317D01*
X137665178Y-139900980D01*
X137575000Y-140118690D01*
X137575000Y-140259250D01*
X137733750Y-140418000D01*
X138858000Y-140418000D01*
X138858000Y-140398000D01*
X139112000Y-140398000D01*
X139112000Y-140418000D01*
X139132000Y-140418000D01*
X139132000Y-140672000D01*
X139112000Y-140672000D01*
X139112000Y-141321250D01*
X139270750Y-141480000D01*
X139886309Y-141480000D01*
X140119698Y-141383327D01*
X140298327Y-141204699D01*
X140395000Y-140971310D01*
X140395000Y-140830750D01*
X140236252Y-140672002D01*
X140332200Y-140672002D01*
X140699999Y-141039801D01*
X140699999Y-143636313D01*
X139804343Y-142740657D01*
X139799331Y-142737308D01*
X139355017Y-142440427D01*
X138825000Y-142335000D01*
X135900000Y-142335000D01*
X135900000Y-140830750D01*
X137575000Y-140830750D01*
X137575000Y-140971310D01*
X137671673Y-141204699D01*
X137850302Y-141383327D01*
X138083691Y-141480000D01*
X138699250Y-141480000D01*
X138858000Y-141321250D01*
X138858000Y-140672000D01*
X137733750Y-140672000D01*
X137575000Y-140830750D01*
X135900000Y-140830750D01*
X135900000Y-137690005D01*
X135900001Y-137690000D01*
X135837859Y-137377598D01*
X135832633Y-137351325D01*
X135802682Y-137306500D01*
X137630121Y-137306500D01*
X137670678Y-137369528D01*
G36*
X94907000Y-140672000D02*
X94927000Y-140672000D01*
X94927000Y-140926000D01*
X94907000Y-140926000D01*
X94907000Y-141127122D01*
X94852851Y-141208162D01*
X94794999Y-141499001D01*
X94794999Y-142597000D01*
X94775000Y-142597000D01*
X94775000Y-140652000D01*
X94907000Y-140652000D01*
X94907000Y-140672000D01*
X94907000Y-140672000D01*
G37*
X94907000Y-140672000D02*
X94927000Y-140672000D01*
X94927000Y-140926000D01*
X94907000Y-140926000D01*
X94907000Y-141127122D01*
X94852851Y-141208162D01*
X94794999Y-141499001D01*
X94794999Y-142597000D01*
X94775000Y-142597000D01*
X94775000Y-140652000D01*
X94907000Y-140652000D01*
X94907000Y-140672000D01*
G36*
X131352000Y-138767000D02*
X131332000Y-138767000D01*
X131332000Y-139516250D01*
X131490750Y-139675000D01*
X131635198Y-139675000D01*
X130255198Y-141055000D01*
X128594802Y-141055000D01*
X130279498Y-139370304D01*
X130291673Y-139399698D01*
X130470301Y-139578327D01*
X130703690Y-139675000D01*
X130919250Y-139675000D01*
X131078000Y-139516250D01*
X131078000Y-138767000D01*
X131058000Y-138767000D01*
X131058000Y-138674999D01*
X131352000Y-138674999D01*
X131352000Y-138767000D01*
X131352000Y-138767000D01*
G37*
X131352000Y-138767000D02*
X131332000Y-138767000D01*
X131332000Y-139516250D01*
X131490750Y-139675000D01*
X131635198Y-139675000D01*
X130255198Y-141055000D01*
X128594802Y-141055000D01*
X130279498Y-139370304D01*
X130291673Y-139399698D01*
X130470301Y-139578327D01*
X130703690Y-139675000D01*
X130919250Y-139675000D01*
X131078000Y-139516250D01*
X131078000Y-138767000D01*
X131058000Y-138767000D01*
X131058000Y-138674999D01*
X131352000Y-138674999D01*
X131352000Y-138767000D01*
G36*
X114547560Y-133135000D02*
X114591838Y-133370317D01*
X114592000Y-133370569D01*
X114592000Y-133651250D01*
X114750750Y-133810000D01*
X116626309Y-133810000D01*
X116859698Y-133713327D01*
X116913837Y-133659188D01*
X117078110Y-133771431D01*
X117330000Y-133822440D01*
X117585742Y-133822440D01*
X117898642Y-134031513D01*
X118620000Y-134175000D01*
X118677125Y-134175000D01*
X118976462Y-134375011D01*
X113283697Y-134375011D01*
X112718686Y-133810000D01*
X114179250Y-133810000D01*
X114338000Y-133651250D01*
X114338000Y-133567537D01*
X114461431Y-133386890D01*
X114512440Y-133135000D01*
X114512440Y-132143000D01*
X114547560Y-132143000D01*
X114547560Y-133135000D01*
X114547560Y-133135000D01*
G37*
X114547560Y-133135000D02*
X114591838Y-133370317D01*
X114592000Y-133370569D01*
X114592000Y-133651250D01*
X114750750Y-133810000D01*
X116626309Y-133810000D01*
X116859698Y-133713327D01*
X116913837Y-133659188D01*
X117078110Y-133771431D01*
X117330000Y-133822440D01*
X117585742Y-133822440D01*
X117898642Y-134031513D01*
X118620000Y-134175000D01*
X118677125Y-134175000D01*
X118976462Y-134375011D01*
X113283697Y-134375011D01*
X112718686Y-133810000D01*
X114179250Y-133810000D01*
X114338000Y-133651250D01*
X114338000Y-133567537D01*
X114461431Y-133386890D01*
X114512440Y-133135000D01*
X114512440Y-132143000D01*
X114547560Y-132143000D01*
X114547560Y-133135000D01*
D48*
X82600000Y-98100000D03*
X84200000Y-98000000D03*
X102717000Y-86328500D03*
X100177000Y-86328500D03*
X97637000Y-86328500D03*
X98907000Y-86963500D03*
X101447000Y-86963500D03*
X103352000Y-86963500D03*
X104241000Y-107537500D03*
X108432000Y-109633000D03*
X107543000Y-110204500D03*
X107797000Y-109061500D03*
X105003000Y-107664500D03*
X104050500Y-114713000D03*
X111607000Y-105188000D03*
X102653500Y-114395500D03*
X102082000Y-113316000D03*
X100685000Y-113252500D03*
X102463000Y-99917500D03*
X99478500Y-95980500D03*
X84238500Y-113316000D03*
X116179000Y-93885000D03*
X115290000Y-93821500D03*
X114591500Y-93885000D03*
X96240000Y-86455500D03*
X96240000Y-87090500D03*
X94773590Y-87027000D03*
X94208000Y-86455500D03*
X104685500Y-102330500D03*
X105384000Y-101949500D03*
X107289000Y-101632000D03*
X107860500Y-100933500D03*
X103542500Y-101505000D03*
X104177500Y-100933500D03*
X105447500Y-98330000D03*
X108305000Y-97885500D03*
X108305000Y-98711000D03*
X80555500Y-104616500D03*
X79920500Y-99601500D03*
X83222500Y-98520500D03*
X82397000Y-98901500D03*
X114845500Y-107918500D03*
X115988500Y-107093000D03*
X114718500Y-106902500D03*
X114718500Y-105378500D03*
X115798000Y-105315000D03*
X115734500Y-103537000D03*
X114464500Y-102775000D03*
X114845500Y-104108500D03*
X90017000Y-115538500D03*
X90969500Y-115538500D03*
X96938500Y-115538500D03*
X98018000Y-115538500D03*
X79539500Y-104870500D03*
X90425000Y-104930000D03*
X88075000Y-104930000D03*
X86334000Y-105696000D03*
X85762500Y-105061000D03*
X86334000Y-104553000D03*
X90588500Y-109379000D03*
X89572500Y-109315500D03*
X88620000Y-109379000D03*
X87667500Y-109379000D03*
X92176000Y-96806000D03*
X92303000Y-97631500D03*
X93319000Y-96933000D03*
X98843500Y-105251500D03*
X95033500Y-104807000D03*
X96303500Y-104743500D03*
X97383000Y-104743500D03*
X104622000Y-105378500D03*
X103923500Y-104743500D03*
X105193500Y-104680000D03*
X108813000Y-105886500D03*
X107606500Y-105886500D03*
X107543000Y-104743500D03*
X108749500Y-104807000D03*
X104177500Y-98774500D03*
X97891000Y-101441500D03*
X97827500Y-100425500D03*
X96875000Y-100425500D03*
X95795500Y-100425500D03*
X82310000Y-163405000D03*
X88025000Y-163405000D03*
X88025000Y-165945000D03*
X82310000Y-165945000D03*
X76595000Y-165945000D03*
X71515000Y-165945000D03*
X65800000Y-165945000D03*
X65800000Y-169120000D03*
X71515000Y-169120000D03*
X76595000Y-169120000D03*
X82310000Y-169120000D03*
X88025000Y-169120000D03*
X88025000Y-173565000D03*
X82310000Y-173565000D03*
X76595000Y-173565000D03*
X71515000Y-173565000D03*
X65800000Y-173565000D03*
X60085000Y-169120000D03*
X60085000Y-165945000D03*
X57989500Y-157130500D03*
X58180000Y-153880000D03*
X58180000Y-149435000D03*
X58180000Y-146260000D03*
X58180000Y-141180000D03*
X70880000Y-153880000D03*
X67705000Y-150705000D03*
X71515000Y-150070000D03*
X75960000Y-145625000D03*
X70880000Y-145625000D03*
X67070000Y-144355000D03*
X70880000Y-141815000D03*
X75960000Y-141815000D03*
X81040000Y-141815000D03*
X84215000Y-138005000D03*
X80405000Y-136735000D03*
X75325000Y-136735000D03*
X70245000Y-136735000D03*
X66435000Y-136735000D03*
X66435000Y-139910000D03*
X61990000Y-139910000D03*
X59450000Y-138005000D03*
X59450000Y-132925000D03*
X64530000Y-131655000D03*
X70245000Y-131655000D03*
X77865000Y-131655000D03*
X59450000Y-129750000D03*
X65800000Y-129750000D03*
X70880000Y-129750000D03*
X77230000Y-129750000D03*
X82310000Y-129750000D03*
X61228000Y-161754000D03*
X75452000Y-152546500D03*
X77928500Y-150070000D03*
X80341500Y-147784000D03*
X82437000Y-145561500D03*
X85993000Y-142513500D03*
X86691500Y-143466000D03*
X85294500Y-143720000D03*
X91073000Y-143720000D03*
X89866500Y-143720000D03*
X89803000Y-142132500D03*
X89803000Y-140862500D03*
X90438000Y-146133000D03*
X89358500Y-146260000D03*
X87199500Y-146260000D03*
X85421500Y-146323500D03*
X83453000Y-148546000D03*
X81421000Y-150832000D03*
X79071500Y-152991000D03*
X76722000Y-155531000D03*
X74372500Y-157817000D03*
X92533500Y-144418500D03*
X66943000Y-159087000D03*
X66943000Y-158261500D03*
X62625000Y-158642500D03*
X61545500Y-159531500D03*
X61355000Y-157055000D03*
X61482000Y-154642000D03*
X63895000Y-154769000D03*
X85612000Y-153943500D03*
X83453000Y-156229500D03*
X85358000Y-156102500D03*
X87072500Y-156356500D03*
X89485500Y-158071000D03*
X87326500Y-158198000D03*
X85167500Y-158071000D03*
X83135500Y-158007500D03*
X81167000Y-157944000D03*
X79452500Y-159468000D03*
X78055500Y-160166500D03*
X76277500Y-160230000D03*
X72848500Y-160039500D03*
X91848887Y-146387000D03*
X93740000Y-135778590D03*
X92152407Y-135778590D03*
X95708500Y-135778590D03*
X93105000Y-165310000D03*
X93105000Y-169120000D03*
X93105000Y-173565000D03*
X101360000Y-129750000D03*
X96915000Y-129750000D03*
X93740000Y-129750000D03*
X89930000Y-129750000D03*
X94375000Y-131655000D03*
X91200000Y-131655000D03*
X88025000Y-131655000D03*
X84850000Y-131655000D03*
X97232500Y-154832500D03*
X104535000Y-169120000D03*
X103709500Y-170453500D03*
X105360500Y-170644000D03*
X107011500Y-169310500D03*
X109107000Y-166834000D03*
X108345000Y-165627500D03*
X107138500Y-167659500D03*
X104979500Y-167723000D03*
X102947500Y-167723000D03*
X101360000Y-168802500D03*
X104598500Y-162325500D03*
X103709500Y-163278000D03*
X103138000Y-164294000D03*
X101614000Y-164230500D03*
X102693500Y-163532000D03*
X93359000Y-142894500D03*
X93359000Y-141561000D03*
X93422500Y-140545000D03*
X95554091Y-148634290D03*
X97737598Y-146831500D03*
X143079500Y-142386500D03*
X142190500Y-142450000D03*
X142635000Y-143339000D03*
X102947500Y-147276000D03*
X106313000Y-143847000D03*
X105678000Y-144101000D03*
X106376500Y-144609000D03*
X106440000Y-146895000D03*
X106122500Y-147847500D03*
X105678000Y-146958500D03*
X104408000Y-145815500D03*
X122569000Y-142958000D03*
X121616500Y-142958000D03*
X120600500Y-142958000D03*
X119457500Y-142958000D03*
X116790500Y-142958000D03*
X114504500Y-142958000D03*
X112155000Y-143085000D03*
X107202000Y-150387500D03*
X107710000Y-149181000D03*
X107710000Y-147530000D03*
X107710000Y-146006000D03*
X104662000Y-130893000D03*
X105424000Y-130067500D03*
X105233500Y-128797500D03*
X107011500Y-128797500D03*
X109170500Y-128924500D03*
X109297500Y-130321500D03*
X111012000Y-130448500D03*
X110821500Y-128797500D03*
X112853500Y-128797500D03*
X115520500Y-128797500D03*
X118251000Y-128797500D03*
X120410000Y-129432500D03*
X122251500Y-129496000D03*
X124347000Y-129305500D03*
X126315500Y-130004000D03*
X126315500Y-131274000D03*
X128030000Y-129750000D03*
X130570000Y-129750000D03*
X130570000Y-131655000D03*
X97590000Y-154070500D03*
X107329000Y-154578500D03*
X107392500Y-153499000D03*
X104916000Y-153177598D03*
X101550500Y-151784500D03*
X124728000Y-142323000D03*
X107900500Y-144355000D03*
X134380000Y-148165000D03*
X139460000Y-141942000D03*
X140476000Y-142767500D03*
X140476000Y-141688000D03*
X126950500Y-139275000D03*
X127776000Y-138386000D03*
X126125000Y-138576500D03*
X124664500Y-139211500D03*
X123966000Y-138513000D03*
X122505500Y-138322500D03*
X120156000Y-138322500D03*
X136221500Y-138322500D03*
X137110500Y-138957500D03*
X136094500Y-139275000D03*
X137174000Y-140227500D03*
X111393000Y-138386000D03*
X108916500Y-138386000D03*
X107456000Y-138386000D03*
X107710000Y-139084500D03*
X106757500Y-139148000D03*
X113044000Y-138767000D03*
X114250500Y-138767000D03*
X115330000Y-138767000D03*
X116600000Y-138767000D03*
X117870000Y-138767000D03*
X119902000Y-134449000D03*
X118378000Y-134258500D03*
X116663500Y-134258500D03*
X115076000Y-134258500D03*
X113615500Y-134258500D03*
X105995500Y-156039000D03*
X107392500Y-156102500D03*
X107329000Y-157626500D03*
X105170000Y-157690000D03*
X103138000Y-159468000D03*
X100979000Y-158769500D03*
X101360000Y-158071000D03*
X94121000Y-158579000D03*
X95835500Y-160166500D03*
X97867500Y-158960000D03*
X99525000Y-156171000D03*
X98655000Y-156971000D03*
X95581500Y-139973500D03*
X94629000Y-143339000D03*
X118949500Y-140481500D03*
X117235000Y-140545000D03*
X115330000Y-140545000D03*
X113742500Y-140545000D03*
X97002500Y-147897500D03*
X95277500Y-146172500D03*
X108813000Y-102140000D03*
X111797500Y-101759000D03*
X106781000Y-92551500D03*
X117512500Y-101822500D03*
X92811000Y-94520000D03*
X103542500Y-95853500D03*
X92840199Y-92644199D03*
X106400000Y-95996502D03*
X104725500Y-159595000D03*
X92620500Y-105540323D03*
X92620500Y-104787910D03*
X92146801Y-107127301D03*
X92176000Y-106267500D03*
X92747500Y-108553500D03*
X92176000Y-107982000D03*
X81317500Y-104089000D03*
X87952150Y-102743694D03*
X81317500Y-103239000D03*
X87093437Y-102646278D03*
X89540448Y-102935701D03*
X88747665Y-102828401D03*
X91096500Y-103219500D03*
X90296489Y-103218505D03*
X92176810Y-103655880D03*
X91898874Y-102956684D03*
X93103011Y-100678253D03*
X92303000Y-100679500D03*
X87731000Y-97695000D03*
X87350000Y-100679500D03*
X100555002Y-112300000D03*
X91541000Y-109506000D03*
X97192500Y-97822000D03*
X94335000Y-101251000D03*
X85540685Y-96905917D03*
X99034000Y-91660002D03*
X103034500Y-92615000D03*
X85572000Y-100679500D03*
X119227000Y-92170500D03*
X108622500Y-90075000D03*
X101447000Y-89948000D03*
X119798500Y-111538000D03*
X109575000Y-113125500D03*
X94843000Y-109633000D03*
X102717000Y-115538500D03*
X83857500Y-102584500D03*
X80365000Y-114268500D03*
X81190500Y-100679500D03*
X103161500Y-113379500D03*
X93954000Y-110839500D03*
X85889500Y-94774000D03*
X85953000Y-108871000D03*
X84937000Y-87471500D03*
X89763000Y-94012000D03*
X76237500Y-110522000D03*
X86651500Y-109569500D03*
X85635500Y-86715410D03*
X75382801Y-112329199D03*
X94449998Y-94520000D03*
X84772936Y-111180499D03*
X86334000Y-91916500D03*
X84175000Y-110649000D03*
X87350000Y-91027500D03*
X81635000Y-91154500D03*
X80746000Y-97822000D03*
X92684000Y-109506000D03*
X81371010Y-93439491D03*
X81444500Y-97314000D03*
X85826000Y-102648000D03*
X94398500Y-91599000D03*
X120243000Y-93313500D03*
X99806101Y-91989533D03*
X109956000Y-91789500D03*
X94779500Y-110458500D03*
X86842000Y-94774000D03*
X84810000Y-100997000D03*
X93509500Y-91599000D03*
X111289500Y-93123000D03*
X116433000Y-98584000D03*
X119544500Y-110776000D03*
X110210000Y-112427000D03*
X94847969Y-108797714D03*
X86461000Y-96234500D03*
X86503695Y-100659711D03*
X86755000Y-145180500D03*
X64022000Y-160230000D03*
X98629500Y-152763483D03*
X99074000Y-154070500D03*
X101677500Y-156801000D03*
X98629500Y-149816000D03*
X100725000Y-132290000D03*
X92025500Y-148482500D03*
X141120835Y-137706252D03*
X93486000Y-155677500D03*
X141043645Y-136957809D03*
X93486000Y-156527500D03*
X93442861Y-149508490D03*
X92787500Y-148863500D03*
X92597975Y-146705763D03*
X92473888Y-145877786D03*
X91263500Y-142323000D03*
X90184000Y-136290500D03*
X89358500Y-147862410D03*
X124220000Y-143720000D03*
X97312493Y-150640078D03*
X101296500Y-154451500D03*
X123603041Y-142380590D03*
X107075000Y-142323000D03*
X102630000Y-152610000D03*
X110515559Y-144096972D03*
X86755000Y-147530000D03*
X96788000Y-158325000D03*
X91200000Y-149659498D03*
X97931000Y-135426179D03*
X96280000Y-139592500D03*
X133427500Y-141751500D03*
X99455000Y-148863500D03*
X97042000Y-143529500D03*
X98185000Y-143656500D03*
X98820000Y-143085000D03*
X83540000Y-91000000D03*
X83540000Y-93000000D03*
X83540000Y-95000000D03*
X83540000Y-97000000D03*
X94081000Y-88551000D03*
X92081000Y-88551000D03*
X90081000Y-88551000D03*
X88081000Y-88551000D03*
X78079000Y-99601500D03*
X78079000Y-101601500D03*
X78079000Y-103601500D03*
X78079000Y-105601500D03*
X78079000Y-107601500D03*
X78079000Y-109601500D03*
X78079000Y-111601500D03*
X112750000Y-110204500D03*
X112750000Y-108204500D03*
X112750000Y-106204500D03*
X112750000Y-104204500D03*
X112750000Y-99885500D03*
X112750000Y-97885500D03*
X112750000Y-95885500D03*
X112750000Y-93885500D03*
X117893500Y-99885000D03*
X117893500Y-97885000D03*
X117893500Y-95885000D03*
X117893500Y-93885000D03*
X117893500Y-110204500D03*
X117893500Y-108204500D03*
X117893500Y-106204500D03*
X117893500Y-104204500D03*
X59920000Y-142500000D03*
X59920000Y-145040000D03*
X59920000Y-147580000D03*
X59920000Y-150120000D03*
X59920000Y-152660000D03*
X59920000Y-155200000D03*
X59920000Y-157740000D03*
X59920000Y-160280000D03*
X59920000Y-162820000D03*
D49*
X62670000Y-170460000D03*
X62670000Y-134860000D03*
D48*
X61860000Y-131560000D03*
X61860000Y-173760000D03*
X128030000Y-134195000D03*
X128030000Y-131695000D03*
X89930000Y-138640000D03*
X92470000Y-138640000D03*
X95010000Y-138640000D03*
X97550000Y-138640000D03*
X100090000Y-138640000D03*
X102630000Y-138640000D03*
X95360000Y-171025000D03*
X97360000Y-171025000D03*
X99360000Y-171025000D03*
X101360000Y-171025000D03*
X142635000Y-160230000D03*
X145175000Y-160230000D03*
X142635000Y-157690000D03*
X145175000Y-157690000D03*
X142635000Y-155150000D03*
X145175000Y-155150000D03*
X142635000Y-152610000D03*
X145175000Y-152610000D03*
X142635000Y-150070000D03*
X145175000Y-150070000D03*
X142635000Y-147530000D03*
X145175000Y-147530000D03*
X142635000Y-144990000D03*
X145175000Y-144990000D03*
X106440000Y-162770000D03*
X98820000Y-165310000D03*
X93740000Y-162770000D03*
M02*
