G04 #@! TF.FileFunction,Copper,L1,Top,Signal*
%FSLAX46Y46*%
G04 Gerber Fmt 4.6, Leading zero omitted, Abs format (unit mm)*
G04 Created by KiCad (PCBNEW 4.0.7) date *
%MOMM*%
%LPD*%
G01*
G04 APERTURE LIST*
%ADD10C,0.100000*%
%ADD11C,0.300000*%
%ADD12C,0.120000*%
%ADD13C,0.150000*%
G04 APERTURE END LIST*
D10*
X56740082Y-152657074D02*
X58740082Y-152657074D01*
D11*
X103245071Y-144815142D02*
X102530786Y-145315142D01*
X103245071Y-145672285D02*
X101745071Y-145672285D01*
X101745071Y-145100857D01*
X101816500Y-144957999D01*
X101887929Y-144886571D01*
X102030786Y-144815142D01*
X102245071Y-144815142D01*
X102387929Y-144886571D01*
X102459357Y-144957999D01*
X102530786Y-145100857D01*
X102530786Y-145672285D01*
X103173643Y-143600857D02*
X103245071Y-143743714D01*
X103245071Y-144029428D01*
X103173643Y-144172285D01*
X103030786Y-144243714D01*
X102459357Y-144243714D01*
X102316500Y-144172285D01*
X102245071Y-144029428D01*
X102245071Y-143743714D01*
X102316500Y-143600857D01*
X102459357Y-143529428D01*
X102602214Y-143529428D01*
X102745071Y-144243714D01*
X103173643Y-142958000D02*
X103245071Y-142815143D01*
X103245071Y-142529428D01*
X103173643Y-142386571D01*
X103030786Y-142315143D01*
X102959357Y-142315143D01*
X102816500Y-142386571D01*
X102745071Y-142529428D01*
X102745071Y-142743714D01*
X102673643Y-142886571D01*
X102530786Y-142958000D01*
X102459357Y-142958000D01*
X102316500Y-142886571D01*
X102245071Y-142743714D01*
X102245071Y-142529428D01*
X102316500Y-142386571D01*
X103173643Y-141100857D02*
X103245071Y-141243714D01*
X103245071Y-141529428D01*
X103173643Y-141672285D01*
X103030786Y-141743714D01*
X102459357Y-141743714D01*
X102316500Y-141672285D01*
X102245071Y-141529428D01*
X102245071Y-141243714D01*
X102316500Y-141100857D01*
X102459357Y-141029428D01*
X102602214Y-141029428D01*
X102745071Y-141743714D01*
X102245071Y-140600857D02*
X102245071Y-140029428D01*
X101745071Y-140386571D02*
X103030786Y-140386571D01*
X103173643Y-140315143D01*
X103245071Y-140172285D01*
X103245071Y-140029428D01*
X99268571Y-142322857D02*
X99268571Y-141465714D01*
X100768571Y-141894285D02*
X99268571Y-141894285D01*
X99268571Y-141108571D02*
X100768571Y-140108571D01*
X99268571Y-140108571D02*
X100768571Y-141108571D01*
X98292071Y-141556999D02*
X97577786Y-142056999D01*
X98292071Y-142414142D02*
X96792071Y-142414142D01*
X96792071Y-141842714D01*
X96863500Y-141699856D01*
X96934929Y-141628428D01*
X97077786Y-141556999D01*
X97292071Y-141556999D01*
X97434929Y-141628428D01*
X97506357Y-141699856D01*
X97577786Y-141842714D01*
X97577786Y-142414142D01*
X96792071Y-141056999D02*
X98292071Y-140056999D01*
X96792071Y-140056999D02*
X98292071Y-141056999D01*
X95688571Y-143223714D02*
X94188571Y-143223714D01*
X94188571Y-142866571D01*
X94260000Y-142652286D01*
X94402857Y-142509428D01*
X94545714Y-142438000D01*
X94831429Y-142366571D01*
X95045714Y-142366571D01*
X95331429Y-142438000D01*
X95474286Y-142509428D01*
X95617143Y-142652286D01*
X95688571Y-142866571D01*
X95688571Y-143223714D01*
X95688571Y-141723714D02*
X94188571Y-141723714D01*
X94188571Y-140723714D02*
X94188571Y-140438000D01*
X94260000Y-140295142D01*
X94402857Y-140152285D01*
X94688571Y-140080857D01*
X95188571Y-140080857D01*
X95474286Y-140152285D01*
X95617143Y-140295142D01*
X95688571Y-140438000D01*
X95688571Y-140723714D01*
X95617143Y-140866571D01*
X95474286Y-141009428D01*
X95188571Y-141080857D01*
X94688571Y-141080857D01*
X94402857Y-141009428D01*
X94260000Y-140866571D01*
X94188571Y-140723714D01*
X93005714Y-142644357D02*
X93077143Y-142715786D01*
X93148571Y-142930072D01*
X93148571Y-143072929D01*
X93077143Y-143287214D01*
X92934286Y-143430072D01*
X92791429Y-143501500D01*
X92505714Y-143572929D01*
X92291429Y-143572929D01*
X92005714Y-143501500D01*
X91862857Y-143430072D01*
X91720000Y-143287214D01*
X91648571Y-143072929D01*
X91648571Y-142930072D01*
X91720000Y-142715786D01*
X91791429Y-142644357D01*
X93148571Y-141287214D02*
X93148571Y-142001500D01*
X91648571Y-142001500D01*
X93148571Y-140787214D02*
X91648571Y-140787214D01*
X93148571Y-139930071D02*
X92291429Y-140572928D01*
X91648571Y-139930071D02*
X92505714Y-140787214D01*
X142635143Y-142081000D02*
X142492286Y-142009571D01*
X142278000Y-142009571D01*
X142063715Y-142081000D01*
X141920857Y-142223857D01*
X141849429Y-142366714D01*
X141778000Y-142652429D01*
X141778000Y-142866714D01*
X141849429Y-143152429D01*
X141920857Y-143295286D01*
X142063715Y-143438143D01*
X142278000Y-143509571D01*
X142420857Y-143509571D01*
X142635143Y-143438143D01*
X142706572Y-143366714D01*
X142706572Y-142866714D01*
X142420857Y-142866714D01*
X143349429Y-143509571D02*
X143349429Y-142009571D01*
X144206572Y-143509571D01*
X144206572Y-142009571D01*
X144920858Y-143509571D02*
X144920858Y-142009571D01*
X145278001Y-142009571D01*
X145492286Y-142081000D01*
X145635144Y-142223857D01*
X145706572Y-142366714D01*
X145778001Y-142652429D01*
X145778001Y-142866714D01*
X145706572Y-143152429D01*
X145635144Y-143295286D01*
X145492286Y-143438143D01*
X145278001Y-143509571D01*
X144920858Y-143509571D01*
X146596000Y-148399071D02*
X146596000Y-146899071D01*
X146953143Y-146899071D01*
X147167428Y-146970500D01*
X147310286Y-147113357D01*
X147381714Y-147256214D01*
X147453143Y-147541929D01*
X147453143Y-147756214D01*
X147381714Y-148041929D01*
X147310286Y-148184786D01*
X147167428Y-148327643D01*
X146953143Y-148399071D01*
X146596000Y-148399071D01*
X148096000Y-148399071D02*
X148096000Y-146899071D01*
X149667429Y-148399071D02*
X149167429Y-147684786D01*
X148810286Y-148399071D02*
X148810286Y-146899071D01*
X149381714Y-146899071D01*
X149524572Y-146970500D01*
X149596000Y-147041929D01*
X149667429Y-147184786D01*
X149667429Y-147399071D01*
X149596000Y-147541929D01*
X149524572Y-147613357D01*
X149381714Y-147684786D01*
X148810286Y-147684786D01*
X146659500Y-150812071D02*
X146659500Y-149312071D01*
X147016643Y-149312071D01*
X147230928Y-149383500D01*
X147373786Y-149526357D01*
X147445214Y-149669214D01*
X147516643Y-149954929D01*
X147516643Y-150169214D01*
X147445214Y-150454929D01*
X147373786Y-150597786D01*
X147230928Y-150740643D01*
X147016643Y-150812071D01*
X146659500Y-150812071D01*
X148159500Y-150812071D02*
X148159500Y-149312071D01*
X149730929Y-150812071D02*
X149230929Y-150097786D01*
X148873786Y-150812071D02*
X148873786Y-149312071D01*
X149445214Y-149312071D01*
X149588072Y-149383500D01*
X149659500Y-149454929D01*
X149730929Y-149597786D01*
X149730929Y-149812071D01*
X149659500Y-149954929D01*
X149588072Y-150026357D01*
X149445214Y-150097786D01*
X148873786Y-150097786D01*
X133749429Y-148272071D02*
X133749429Y-146772071D01*
X134249429Y-147843500D01*
X134749429Y-146772071D01*
X134749429Y-148272071D01*
X135392286Y-146914929D02*
X135463715Y-146843500D01*
X135606572Y-146772071D01*
X135963715Y-146772071D01*
X136106572Y-146843500D01*
X136178001Y-146914929D01*
X136249429Y-147057786D01*
X136249429Y-147200643D01*
X136178001Y-147414929D01*
X135320858Y-148272071D01*
X136249429Y-148272071D01*
X136892286Y-148272071D02*
X136892286Y-146772071D01*
X137463714Y-146772071D01*
X137606572Y-146843500D01*
X137678000Y-146914929D01*
X137749429Y-147057786D01*
X137749429Y-147272071D01*
X137678000Y-147414929D01*
X137606572Y-147486357D01*
X137463714Y-147557786D01*
X136892286Y-147557786D01*
X138249429Y-146772071D02*
X138606572Y-148272071D01*
X138892286Y-147200643D01*
X139178000Y-148272071D01*
X139535143Y-146772071D01*
X140106572Y-148272071D02*
X140106572Y-146772071D01*
X140606572Y-147843500D01*
X141106572Y-146772071D01*
X141106572Y-148272071D01*
X133749429Y-150812071D02*
X133749429Y-149312071D01*
X134249429Y-150383500D01*
X134749429Y-149312071D01*
X134749429Y-150812071D01*
X136249429Y-150812071D02*
X135392286Y-150812071D01*
X135820858Y-150812071D02*
X135820858Y-149312071D01*
X135678001Y-149526357D01*
X135535143Y-149669214D01*
X135392286Y-149740643D01*
X136892286Y-150812071D02*
X136892286Y-149312071D01*
X137463714Y-149312071D01*
X137606572Y-149383500D01*
X137678000Y-149454929D01*
X137749429Y-149597786D01*
X137749429Y-149812071D01*
X137678000Y-149954929D01*
X137606572Y-150026357D01*
X137463714Y-150097786D01*
X136892286Y-150097786D01*
X138249429Y-149312071D02*
X138606572Y-150812071D01*
X138892286Y-149740643D01*
X139178000Y-150812071D01*
X139535143Y-149312071D01*
X140106572Y-150812071D02*
X140106572Y-149312071D01*
X140606572Y-150383500D01*
X141106572Y-149312071D01*
X141106572Y-150812071D01*
X133479571Y-155765071D02*
X133479571Y-154265071D01*
X133479571Y-154979357D02*
X134336714Y-154979357D01*
X134336714Y-155765071D02*
X134336714Y-154265071D01*
X135265286Y-155765071D02*
X135122428Y-155693643D01*
X135051000Y-155622214D01*
X134979571Y-155479357D01*
X134979571Y-155050786D01*
X135051000Y-154907929D01*
X135122428Y-154836500D01*
X135265286Y-154765071D01*
X135479571Y-154765071D01*
X135622428Y-154836500D01*
X135693857Y-154907929D01*
X135765286Y-155050786D01*
X135765286Y-155479357D01*
X135693857Y-155622214D01*
X135622428Y-155693643D01*
X135479571Y-155765071D01*
X135265286Y-155765071D01*
X136336714Y-155693643D02*
X136479571Y-155765071D01*
X136765286Y-155765071D01*
X136908143Y-155693643D01*
X136979571Y-155550786D01*
X136979571Y-155479357D01*
X136908143Y-155336500D01*
X136765286Y-155265071D01*
X136551000Y-155265071D01*
X136408143Y-155193643D01*
X136336714Y-155050786D01*
X136336714Y-154979357D01*
X136408143Y-154836500D01*
X136551000Y-154765071D01*
X136765286Y-154765071D01*
X136908143Y-154836500D01*
X137408143Y-154765071D02*
X137979572Y-154765071D01*
X137622429Y-154265071D02*
X137622429Y-155550786D01*
X137693857Y-155693643D01*
X137836715Y-155765071D01*
X137979572Y-155765071D01*
X138479572Y-155765071D02*
X138479572Y-154265071D01*
X138836715Y-154265071D01*
X139051000Y-154336500D01*
X139193858Y-154479357D01*
X139265286Y-154622214D01*
X139336715Y-154907929D01*
X139336715Y-155122214D01*
X139265286Y-155407929D01*
X139193858Y-155550786D01*
X139051000Y-155693643D01*
X138836715Y-155765071D01*
X138479572Y-155765071D01*
X139979572Y-155193643D02*
X141122429Y-155193643D01*
X140551000Y-155765071D02*
X140551000Y-154622214D01*
X133606571Y-153225071D02*
X133606571Y-151725071D01*
X133606571Y-152439357D02*
X134463714Y-152439357D01*
X134463714Y-153225071D02*
X134463714Y-151725071D01*
X135392286Y-153225071D02*
X135249428Y-153153643D01*
X135178000Y-153082214D01*
X135106571Y-152939357D01*
X135106571Y-152510786D01*
X135178000Y-152367929D01*
X135249428Y-152296500D01*
X135392286Y-152225071D01*
X135606571Y-152225071D01*
X135749428Y-152296500D01*
X135820857Y-152367929D01*
X135892286Y-152510786D01*
X135892286Y-152939357D01*
X135820857Y-153082214D01*
X135749428Y-153153643D01*
X135606571Y-153225071D01*
X135392286Y-153225071D01*
X136463714Y-153153643D02*
X136606571Y-153225071D01*
X136892286Y-153225071D01*
X137035143Y-153153643D01*
X137106571Y-153010786D01*
X137106571Y-152939357D01*
X137035143Y-152796500D01*
X136892286Y-152725071D01*
X136678000Y-152725071D01*
X136535143Y-152653643D01*
X136463714Y-152510786D01*
X136463714Y-152439357D01*
X136535143Y-152296500D01*
X136678000Y-152225071D01*
X136892286Y-152225071D01*
X137035143Y-152296500D01*
X137535143Y-152225071D02*
X138106572Y-152225071D01*
X137749429Y-151725071D02*
X137749429Y-153010786D01*
X137820857Y-153153643D01*
X137963715Y-153225071D01*
X138106572Y-153225071D01*
X138606572Y-153225071D02*
X138606572Y-151725071D01*
X138963715Y-151725071D01*
X139178000Y-151796500D01*
X139320858Y-151939357D01*
X139392286Y-152082214D01*
X139463715Y-152367929D01*
X139463715Y-152582214D01*
X139392286Y-152867929D01*
X139320858Y-153010786D01*
X139178000Y-153153643D01*
X138963715Y-153225071D01*
X138606572Y-153225071D01*
X140106572Y-152653643D02*
X141249429Y-152653643D01*
X146647572Y-153352071D02*
X146647572Y-151852071D01*
X147004715Y-151852071D01*
X147219000Y-151923500D01*
X147361858Y-152066357D01*
X147433286Y-152209214D01*
X147504715Y-152494929D01*
X147504715Y-152709214D01*
X147433286Y-152994929D01*
X147361858Y-153137786D01*
X147219000Y-153280643D01*
X147004715Y-153352071D01*
X146647572Y-153352071D01*
X148147572Y-152780643D02*
X149290429Y-152780643D01*
X148719000Y-153352071D02*
X148719000Y-152209214D01*
X146647572Y-155955571D02*
X146647572Y-154455571D01*
X147004715Y-154455571D01*
X147219000Y-154527000D01*
X147361858Y-154669857D01*
X147433286Y-154812714D01*
X147504715Y-155098429D01*
X147504715Y-155312714D01*
X147433286Y-155598429D01*
X147361858Y-155741286D01*
X147219000Y-155884143D01*
X147004715Y-155955571D01*
X146647572Y-155955571D01*
X148147572Y-155384143D02*
X149290429Y-155384143D01*
X135821000Y-156932071D02*
X136321000Y-158432071D01*
X136821000Y-156932071D01*
X137821000Y-157646357D02*
X138035286Y-157717786D01*
X138106714Y-157789214D01*
X138178143Y-157932071D01*
X138178143Y-158146357D01*
X138106714Y-158289214D01*
X138035286Y-158360643D01*
X137892428Y-158432071D01*
X137321000Y-158432071D01*
X137321000Y-156932071D01*
X137821000Y-156932071D01*
X137963857Y-157003500D01*
X138035286Y-157074929D01*
X138106714Y-157217786D01*
X138106714Y-157360643D01*
X138035286Y-157503500D01*
X137963857Y-157574929D01*
X137821000Y-157646357D01*
X137321000Y-157646357D01*
X138821000Y-156932071D02*
X138821000Y-158146357D01*
X138892428Y-158289214D01*
X138963857Y-158360643D01*
X139106714Y-158432071D01*
X139392428Y-158432071D01*
X139535286Y-158360643D01*
X139606714Y-158289214D01*
X139678143Y-158146357D01*
X139678143Y-156932071D01*
X140321000Y-158360643D02*
X140535286Y-158432071D01*
X140892429Y-158432071D01*
X141035286Y-158360643D01*
X141106715Y-158289214D01*
X141178143Y-158146357D01*
X141178143Y-158003500D01*
X141106715Y-157860643D01*
X141035286Y-157789214D01*
X140892429Y-157717786D01*
X140606715Y-157646357D01*
X140463857Y-157574929D01*
X140392429Y-157503500D01*
X140321000Y-157360643D01*
X140321000Y-157217786D01*
X140392429Y-157074929D01*
X140463857Y-157003500D01*
X140606715Y-156932071D01*
X140963857Y-156932071D01*
X141178143Y-157003500D01*
X147556287Y-156932071D02*
X146842001Y-156932071D01*
X146770572Y-157646357D01*
X146842001Y-157574929D01*
X146984858Y-157503500D01*
X147342001Y-157503500D01*
X147484858Y-157574929D01*
X147556287Y-157646357D01*
X147627715Y-157789214D01*
X147627715Y-158146357D01*
X147556287Y-158289214D01*
X147484858Y-158360643D01*
X147342001Y-158432071D01*
X146984858Y-158432071D01*
X146842001Y-158360643D01*
X146770572Y-158289214D01*
X148056286Y-156932071D02*
X148556286Y-158432071D01*
X149056286Y-156932071D01*
X140353358Y-162813643D02*
X141496215Y-162813643D01*
X140924786Y-163385071D02*
X140924786Y-162242214D01*
X142710501Y-162599357D02*
X142924787Y-162670786D01*
X142996215Y-162742214D01*
X143067644Y-162885071D01*
X143067644Y-163099357D01*
X142996215Y-163242214D01*
X142924787Y-163313643D01*
X142781929Y-163385071D01*
X142210501Y-163385071D01*
X142210501Y-161885071D01*
X142710501Y-161885071D01*
X142853358Y-161956500D01*
X142924787Y-162027929D01*
X142996215Y-162170786D01*
X142996215Y-162313643D01*
X142924787Y-162456500D01*
X142853358Y-162527929D01*
X142710501Y-162599357D01*
X142210501Y-162599357D01*
X143639072Y-162956500D02*
X144353358Y-162956500D01*
X143496215Y-163385071D02*
X143996215Y-161885071D01*
X144496215Y-163385071D01*
X144781929Y-161885071D02*
X145639072Y-161885071D01*
X145210501Y-163385071D02*
X145210501Y-161885071D01*
X145924786Y-161885071D02*
X146781929Y-161885071D01*
X146353358Y-163385071D02*
X146353358Y-161885071D01*
X100800500Y-168738857D02*
X100729071Y-168881714D01*
X100729071Y-169096000D01*
X100800500Y-169310285D01*
X100943357Y-169453143D01*
X101086214Y-169524571D01*
X101371929Y-169596000D01*
X101586214Y-169596000D01*
X101871929Y-169524571D01*
X102014786Y-169453143D01*
X102157643Y-169310285D01*
X102229071Y-169096000D01*
X102229071Y-168953143D01*
X102157643Y-168738857D01*
X102086214Y-168667428D01*
X101586214Y-168667428D01*
X101586214Y-168953143D01*
X102229071Y-168024571D02*
X100729071Y-168024571D01*
X102229071Y-167167428D01*
X100729071Y-167167428D01*
X102229071Y-166453142D02*
X100729071Y-166453142D01*
X100729071Y-166095999D01*
X100800500Y-165881714D01*
X100943357Y-165738856D01*
X101086214Y-165667428D01*
X101371929Y-165595999D01*
X101586214Y-165595999D01*
X101871929Y-165667428D01*
X102014786Y-165738856D01*
X102157643Y-165881714D01*
X102229071Y-166095999D01*
X102229071Y-166453142D01*
X97974571Y-169552428D02*
X96474571Y-169552428D01*
X96474571Y-169195285D01*
X96546000Y-168981000D01*
X96688857Y-168838142D01*
X96831714Y-168766714D01*
X97117429Y-168695285D01*
X97331714Y-168695285D01*
X97617429Y-168766714D01*
X97760286Y-168838142D01*
X97903143Y-168981000D01*
X97974571Y-169195285D01*
X97974571Y-169552428D01*
X97403143Y-168052428D02*
X97403143Y-166909571D01*
X100070071Y-169615928D02*
X98570071Y-169615928D01*
X98570071Y-169258785D01*
X98641500Y-169044500D01*
X98784357Y-168901642D01*
X98927214Y-168830214D01*
X99212929Y-168758785D01*
X99427214Y-168758785D01*
X99712929Y-168830214D01*
X99855786Y-168901642D01*
X99998643Y-169044500D01*
X100070071Y-169258785D01*
X100070071Y-169615928D01*
X99498643Y-168115928D02*
X99498643Y-166973071D01*
X100070071Y-167544500D02*
X98927214Y-167544500D01*
X94633071Y-169266500D02*
X96133071Y-168766500D01*
X94633071Y-168266500D01*
X95347357Y-167266500D02*
X95418786Y-167052214D01*
X95490214Y-166980786D01*
X95633071Y-166909357D01*
X95847357Y-166909357D01*
X95990214Y-166980786D01*
X96061643Y-167052214D01*
X96133071Y-167195072D01*
X96133071Y-167766500D01*
X94633071Y-167766500D01*
X94633071Y-167266500D01*
X94704500Y-167123643D01*
X94775929Y-167052214D01*
X94918786Y-166980786D01*
X95061643Y-166980786D01*
X95204500Y-167052214D01*
X95275929Y-167123643D01*
X95347357Y-167266500D01*
X95347357Y-167766500D01*
X94633071Y-166266500D02*
X95847357Y-166266500D01*
X95990214Y-166195072D01*
X96061643Y-166123643D01*
X96133071Y-165980786D01*
X96133071Y-165695072D01*
X96061643Y-165552214D01*
X95990214Y-165480786D01*
X95847357Y-165409357D01*
X94633071Y-165409357D01*
X96061643Y-164766500D02*
X96133071Y-164552214D01*
X96133071Y-164195071D01*
X96061643Y-164052214D01*
X95990214Y-163980785D01*
X95847357Y-163909357D01*
X95704500Y-163909357D01*
X95561643Y-163980785D01*
X95490214Y-164052214D01*
X95418786Y-164195071D01*
X95347357Y-164480785D01*
X95275929Y-164623643D01*
X95204500Y-164695071D01*
X95061643Y-164766500D01*
X94918786Y-164766500D01*
X94775929Y-164695071D01*
X94704500Y-164623643D01*
X94633071Y-164480785D01*
X94633071Y-164123643D01*
X94704500Y-163909357D01*
X87783000Y-132035857D02*
X87711571Y-132178714D01*
X87711571Y-132393000D01*
X87783000Y-132607285D01*
X87925857Y-132750143D01*
X88068714Y-132821571D01*
X88354429Y-132893000D01*
X88568714Y-132893000D01*
X88854429Y-132821571D01*
X88997286Y-132750143D01*
X89140143Y-132607285D01*
X89211571Y-132393000D01*
X89211571Y-132250143D01*
X89140143Y-132035857D01*
X89068714Y-131964428D01*
X88568714Y-131964428D01*
X88568714Y-132250143D01*
X89211571Y-131321571D02*
X87711571Y-131321571D01*
X89211571Y-130464428D01*
X87711571Y-130464428D01*
X89211571Y-129750142D02*
X87711571Y-129750142D01*
X87711571Y-129392999D01*
X87783000Y-129178714D01*
X87925857Y-129035856D01*
X88068714Y-128964428D01*
X88354429Y-128892999D01*
X88568714Y-128892999D01*
X88854429Y-128964428D01*
X88997286Y-129035856D01*
X89140143Y-129178714D01*
X89211571Y-129392999D01*
X89211571Y-129750142D01*
X118568572Y-131762143D02*
X119711429Y-131762143D01*
X130633572Y-131127143D02*
X131776429Y-131127143D01*
X130633572Y-134937143D02*
X131776429Y-134937143D01*
X131205000Y-135508571D02*
X131205000Y-134365714D01*
X118568572Y-134302143D02*
X119711429Y-134302143D01*
X119140000Y-134873571D02*
X119140000Y-133730714D01*
D12*
X85340000Y-88950000D02*
X80640000Y-88950000D01*
X80640000Y-88950000D02*
X80640000Y-99050000D01*
X80640000Y-99050000D02*
X85340000Y-99050000D01*
X85340000Y-99050000D02*
X85340000Y-88950000D01*
X85340000Y-91500000D02*
X84740000Y-91500000D01*
X84740000Y-91500000D02*
X84740000Y-89550000D01*
X84740000Y-89550000D02*
X81240000Y-89550000D01*
X81240000Y-89550000D02*
X81240000Y-98450000D01*
X81240000Y-98450000D02*
X84740000Y-98450000D01*
X84740000Y-98450000D02*
X84740000Y-96500000D01*
X84740000Y-96500000D02*
X85340000Y-96500000D01*
X84040000Y-88950000D02*
X84040000Y-89550000D01*
X82740000Y-88950000D02*
X82740000Y-89550000D01*
X84040000Y-99050000D02*
X84040000Y-98450000D01*
X82740000Y-99050000D02*
X82740000Y-98450000D01*
X85340000Y-90700000D02*
X85540000Y-90700000D01*
X85540000Y-90700000D02*
X85540000Y-90400000D01*
X85540000Y-90400000D02*
X85340000Y-90400000D01*
X85440000Y-90700000D02*
X85440000Y-90400000D01*
X81240000Y-91900000D02*
X81740000Y-91900000D01*
X81740000Y-91900000D02*
X81740000Y-92100000D01*
X81740000Y-92100000D02*
X81240000Y-92100000D01*
X81240000Y-92000000D02*
X81740000Y-92000000D01*
X81240000Y-93900000D02*
X81740000Y-93900000D01*
X81740000Y-93900000D02*
X81740000Y-94100000D01*
X81740000Y-94100000D02*
X81240000Y-94100000D01*
X81240000Y-94000000D02*
X81740000Y-94000000D01*
X81240000Y-95900000D02*
X81740000Y-95900000D01*
X81740000Y-95900000D02*
X81740000Y-96100000D01*
X81740000Y-96100000D02*
X81240000Y-96100000D01*
X81240000Y-96000000D02*
X81740000Y-96000000D01*
X85640000Y-89900000D02*
X85640000Y-88650000D01*
X85640000Y-88650000D02*
X84390000Y-88650000D01*
X96131000Y-90351000D02*
X96131000Y-85651000D01*
X96131000Y-85651000D02*
X86031000Y-85651000D01*
X86031000Y-85651000D02*
X86031000Y-90351000D01*
X86031000Y-90351000D02*
X96131000Y-90351000D01*
X93581000Y-90351000D02*
X93581000Y-89751000D01*
X93581000Y-89751000D02*
X95531000Y-89751000D01*
X95531000Y-89751000D02*
X95531000Y-86251000D01*
X95531000Y-86251000D02*
X86631000Y-86251000D01*
X86631000Y-86251000D02*
X86631000Y-89751000D01*
X86631000Y-89751000D02*
X88581000Y-89751000D01*
X88581000Y-89751000D02*
X88581000Y-90351000D01*
X96131000Y-89051000D02*
X95531000Y-89051000D01*
X96131000Y-87751000D02*
X95531000Y-87751000D01*
X86031000Y-89051000D02*
X86631000Y-89051000D01*
X86031000Y-87751000D02*
X86631000Y-87751000D01*
X94381000Y-90351000D02*
X94381000Y-90551000D01*
X94381000Y-90551000D02*
X94681000Y-90551000D01*
X94681000Y-90551000D02*
X94681000Y-90351000D01*
X94381000Y-90451000D02*
X94681000Y-90451000D01*
X93181000Y-86251000D02*
X93181000Y-86751000D01*
X93181000Y-86751000D02*
X92981000Y-86751000D01*
X92981000Y-86751000D02*
X92981000Y-86251000D01*
X93081000Y-86251000D02*
X93081000Y-86751000D01*
X91181000Y-86251000D02*
X91181000Y-86751000D01*
X91181000Y-86751000D02*
X90981000Y-86751000D01*
X90981000Y-86751000D02*
X90981000Y-86251000D01*
X91081000Y-86251000D02*
X91081000Y-86751000D01*
X89181000Y-86251000D02*
X89181000Y-86751000D01*
X89181000Y-86751000D02*
X88981000Y-86751000D01*
X88981000Y-86751000D02*
X88981000Y-86251000D01*
X89081000Y-86251000D02*
X89081000Y-86751000D01*
X95181000Y-90651000D02*
X96431000Y-90651000D01*
X96431000Y-90651000D02*
X96431000Y-89401000D01*
X84574500Y-114590000D02*
X84574500Y-113590000D01*
X85934500Y-113590000D02*
X85934500Y-114590000D01*
X83775500Y-110645000D02*
X83775500Y-111645000D01*
X82415500Y-111645000D02*
X82415500Y-110645000D01*
X92346000Y-114875000D02*
X93046000Y-114875000D01*
X93046000Y-116075000D02*
X92346000Y-116075000D01*
X99331000Y-100524000D02*
X100031000Y-100524000D01*
X100031000Y-101724000D02*
X99331000Y-101724000D01*
X92909500Y-113487500D02*
X92909500Y-112787500D01*
X94109500Y-112787500D02*
X94109500Y-113487500D01*
X91760000Y-98055500D02*
X91760000Y-98755500D01*
X90560000Y-98755500D02*
X90560000Y-98055500D01*
X89220000Y-98055500D02*
X89220000Y-98755500D01*
X88020000Y-98755500D02*
X88020000Y-98055500D01*
X97149500Y-106550000D02*
X96449500Y-106550000D01*
X96449500Y-105350000D02*
X97149500Y-105350000D01*
X97149500Y-108264500D02*
X96449500Y-108264500D01*
X96449500Y-107064500D02*
X97149500Y-107064500D01*
X94935000Y-98055500D02*
X94935000Y-98755500D01*
X93735000Y-98755500D02*
X93735000Y-98055500D01*
X91385500Y-113463500D02*
X91385500Y-112763500D01*
X92585500Y-112763500D02*
X92585500Y-113463500D01*
X82035000Y-104715000D02*
X82735000Y-104715000D01*
X82735000Y-105915000D02*
X82035000Y-105915000D01*
X96475000Y-103375000D02*
X95775000Y-103375000D01*
X95775000Y-102175000D02*
X96475000Y-102175000D01*
X96475000Y-102105000D02*
X95775000Y-102105000D01*
X95775000Y-100905000D02*
X96475000Y-100905000D01*
X82535000Y-108320000D02*
X82535000Y-107620000D01*
X83735000Y-107620000D02*
X83735000Y-108320000D01*
X81035000Y-108320000D02*
X81035000Y-107620000D01*
X82235000Y-107620000D02*
X82235000Y-108320000D01*
X104995000Y-107085000D02*
X104995000Y-106085000D01*
X104995000Y-106085000D02*
X102895000Y-106085000D01*
X104995000Y-107085000D02*
X102895000Y-107085000D01*
X104995000Y-108990000D02*
X104995000Y-107990000D01*
X104995000Y-107990000D02*
X102895000Y-107990000D01*
X104995000Y-108990000D02*
X102895000Y-108990000D01*
X108160000Y-105310000D02*
X108160000Y-104380000D01*
X108160000Y-102150000D02*
X108160000Y-103080000D01*
X108160000Y-102150000D02*
X106000000Y-102150000D01*
X108160000Y-105310000D02*
X106700000Y-105310000D01*
X108160000Y-109120000D02*
X108160000Y-108190000D01*
X108160000Y-105960000D02*
X108160000Y-106890000D01*
X108160000Y-105960000D02*
X106000000Y-105960000D01*
X108160000Y-109120000D02*
X106700000Y-109120000D01*
X104350000Y-105310000D02*
X104350000Y-104380000D01*
X104350000Y-102150000D02*
X104350000Y-103080000D01*
X104350000Y-102150000D02*
X102190000Y-102150000D01*
X104350000Y-105310000D02*
X102890000Y-105310000D01*
X104350000Y-101500000D02*
X104350000Y-100570000D01*
X104350000Y-98340000D02*
X104350000Y-99270000D01*
X104350000Y-98340000D02*
X102190000Y-98340000D01*
X104350000Y-101500000D02*
X102890000Y-101500000D01*
X104350000Y-97626500D02*
X104350000Y-96696500D01*
X104350000Y-94466500D02*
X104350000Y-95396500D01*
X104350000Y-94466500D02*
X102190000Y-94466500D01*
X104350000Y-97626500D02*
X102890000Y-97626500D01*
X108160000Y-101500000D02*
X108160000Y-100570000D01*
X108160000Y-98340000D02*
X108160000Y-99270000D01*
X108160000Y-98340000D02*
X106000000Y-98340000D01*
X108160000Y-101500000D02*
X106700000Y-101500000D01*
X108160000Y-97626500D02*
X108160000Y-96696500D01*
X108160000Y-94466500D02*
X108160000Y-95396500D01*
X108160000Y-94466500D02*
X106000000Y-94466500D01*
X108160000Y-97626500D02*
X106700000Y-97626500D01*
X79879000Y-97551500D02*
X75179000Y-97551500D01*
X75179000Y-97551500D02*
X75179000Y-113651500D01*
X75179000Y-113651500D02*
X79879000Y-113651500D01*
X79879000Y-113651500D02*
X79879000Y-97551500D01*
X79879000Y-100101500D02*
X79279000Y-100101500D01*
X79279000Y-100101500D02*
X79279000Y-98151500D01*
X79279000Y-98151500D02*
X75779000Y-98151500D01*
X75779000Y-98151500D02*
X75779000Y-113051500D01*
X75779000Y-113051500D02*
X79279000Y-113051500D01*
X79279000Y-113051500D02*
X79279000Y-111101500D01*
X79279000Y-111101500D02*
X79879000Y-111101500D01*
X78579000Y-97551500D02*
X78579000Y-98151500D01*
X77279000Y-97551500D02*
X77279000Y-98151500D01*
X78579000Y-113651500D02*
X78579000Y-113051500D01*
X77279000Y-113651500D02*
X77279000Y-113051500D01*
X79879000Y-99301500D02*
X80079000Y-99301500D01*
X80079000Y-99301500D02*
X80079000Y-99001500D01*
X80079000Y-99001500D02*
X79879000Y-99001500D01*
X79979000Y-99301500D02*
X79979000Y-99001500D01*
X75779000Y-100501500D02*
X76279000Y-100501500D01*
X76279000Y-100501500D02*
X76279000Y-100701500D01*
X76279000Y-100701500D02*
X75779000Y-100701500D01*
X75779000Y-100601500D02*
X76279000Y-100601500D01*
X75779000Y-102501500D02*
X76279000Y-102501500D01*
X76279000Y-102501500D02*
X76279000Y-102701500D01*
X76279000Y-102701500D02*
X75779000Y-102701500D01*
X75779000Y-102601500D02*
X76279000Y-102601500D01*
X75779000Y-104501500D02*
X76279000Y-104501500D01*
X76279000Y-104501500D02*
X76279000Y-104701500D01*
X76279000Y-104701500D02*
X75779000Y-104701500D01*
X75779000Y-104601500D02*
X76279000Y-104601500D01*
X75779000Y-106501500D02*
X76279000Y-106501500D01*
X76279000Y-106501500D02*
X76279000Y-106701500D01*
X76279000Y-106701500D02*
X75779000Y-106701500D01*
X75779000Y-106601500D02*
X76279000Y-106601500D01*
X75779000Y-108501500D02*
X76279000Y-108501500D01*
X76279000Y-108501500D02*
X76279000Y-108701500D01*
X76279000Y-108701500D02*
X75779000Y-108701500D01*
X75779000Y-108601500D02*
X76279000Y-108601500D01*
X75779000Y-110501500D02*
X76279000Y-110501500D01*
X76279000Y-110501500D02*
X76279000Y-110701500D01*
X76279000Y-110701500D02*
X75779000Y-110701500D01*
X75779000Y-110601500D02*
X76279000Y-110601500D01*
X80179000Y-98501500D02*
X80179000Y-97251500D01*
X80179000Y-97251500D02*
X78929000Y-97251500D01*
X110950000Y-112254500D02*
X115650000Y-112254500D01*
X115650000Y-112254500D02*
X115650000Y-102154500D01*
X115650000Y-102154500D02*
X110950000Y-102154500D01*
X110950000Y-102154500D02*
X110950000Y-112254500D01*
X110950000Y-109704500D02*
X111550000Y-109704500D01*
X111550000Y-109704500D02*
X111550000Y-111654500D01*
X111550000Y-111654500D02*
X115050000Y-111654500D01*
X115050000Y-111654500D02*
X115050000Y-102754500D01*
X115050000Y-102754500D02*
X111550000Y-102754500D01*
X111550000Y-102754500D02*
X111550000Y-104704500D01*
X111550000Y-104704500D02*
X110950000Y-104704500D01*
X112250000Y-112254500D02*
X112250000Y-111654500D01*
X113550000Y-112254500D02*
X113550000Y-111654500D01*
X112250000Y-102154500D02*
X112250000Y-102754500D01*
X113550000Y-102154500D02*
X113550000Y-102754500D01*
X110950000Y-110504500D02*
X110750000Y-110504500D01*
X110750000Y-110504500D02*
X110750000Y-110804500D01*
X110750000Y-110804500D02*
X110950000Y-110804500D01*
X110850000Y-110504500D02*
X110850000Y-110804500D01*
X115050000Y-109304500D02*
X114550000Y-109304500D01*
X114550000Y-109304500D02*
X114550000Y-109104500D01*
X114550000Y-109104500D02*
X115050000Y-109104500D01*
X115050000Y-109204500D02*
X114550000Y-109204500D01*
X115050000Y-107304500D02*
X114550000Y-107304500D01*
X114550000Y-107304500D02*
X114550000Y-107104500D01*
X114550000Y-107104500D02*
X115050000Y-107104500D01*
X115050000Y-107204500D02*
X114550000Y-107204500D01*
X115050000Y-105304500D02*
X114550000Y-105304500D01*
X114550000Y-105304500D02*
X114550000Y-105104500D01*
X114550000Y-105104500D02*
X115050000Y-105104500D01*
X115050000Y-105204500D02*
X114550000Y-105204500D01*
X110650000Y-111304500D02*
X110650000Y-112554500D01*
X110650000Y-112554500D02*
X111900000Y-112554500D01*
X110950000Y-101935500D02*
X115650000Y-101935500D01*
X115650000Y-101935500D02*
X115650000Y-91835500D01*
X115650000Y-91835500D02*
X110950000Y-91835500D01*
X110950000Y-91835500D02*
X110950000Y-101935500D01*
X110950000Y-99385500D02*
X111550000Y-99385500D01*
X111550000Y-99385500D02*
X111550000Y-101335500D01*
X111550000Y-101335500D02*
X115050000Y-101335500D01*
X115050000Y-101335500D02*
X115050000Y-92435500D01*
X115050000Y-92435500D02*
X111550000Y-92435500D01*
X111550000Y-92435500D02*
X111550000Y-94385500D01*
X111550000Y-94385500D02*
X110950000Y-94385500D01*
X112250000Y-101935500D02*
X112250000Y-101335500D01*
X113550000Y-101935500D02*
X113550000Y-101335500D01*
X112250000Y-91835500D02*
X112250000Y-92435500D01*
X113550000Y-91835500D02*
X113550000Y-92435500D01*
X110950000Y-100185500D02*
X110750000Y-100185500D01*
X110750000Y-100185500D02*
X110750000Y-100485500D01*
X110750000Y-100485500D02*
X110950000Y-100485500D01*
X110850000Y-100185500D02*
X110850000Y-100485500D01*
X115050000Y-98985500D02*
X114550000Y-98985500D01*
X114550000Y-98985500D02*
X114550000Y-98785500D01*
X114550000Y-98785500D02*
X115050000Y-98785500D01*
X115050000Y-98885500D02*
X114550000Y-98885500D01*
X115050000Y-96985500D02*
X114550000Y-96985500D01*
X114550000Y-96985500D02*
X114550000Y-96785500D01*
X114550000Y-96785500D02*
X115050000Y-96785500D01*
X115050000Y-96885500D02*
X114550000Y-96885500D01*
X115050000Y-94985500D02*
X114550000Y-94985500D01*
X114550000Y-94985500D02*
X114550000Y-94785500D01*
X114550000Y-94785500D02*
X115050000Y-94785500D01*
X115050000Y-94885500D02*
X114550000Y-94885500D01*
X110650000Y-100985500D02*
X110650000Y-102235500D01*
X110650000Y-102235500D02*
X111900000Y-102235500D01*
X116093500Y-101935000D02*
X120793500Y-101935000D01*
X120793500Y-101935000D02*
X120793500Y-91835000D01*
X120793500Y-91835000D02*
X116093500Y-91835000D01*
X116093500Y-91835000D02*
X116093500Y-101935000D01*
X116093500Y-99385000D02*
X116693500Y-99385000D01*
X116693500Y-99385000D02*
X116693500Y-101335000D01*
X116693500Y-101335000D02*
X120193500Y-101335000D01*
X120193500Y-101335000D02*
X120193500Y-92435000D01*
X120193500Y-92435000D02*
X116693500Y-92435000D01*
X116693500Y-92435000D02*
X116693500Y-94385000D01*
X116693500Y-94385000D02*
X116093500Y-94385000D01*
X117393500Y-101935000D02*
X117393500Y-101335000D01*
X118693500Y-101935000D02*
X118693500Y-101335000D01*
X117393500Y-91835000D02*
X117393500Y-92435000D01*
X118693500Y-91835000D02*
X118693500Y-92435000D01*
X116093500Y-100185000D02*
X115893500Y-100185000D01*
X115893500Y-100185000D02*
X115893500Y-100485000D01*
X115893500Y-100485000D02*
X116093500Y-100485000D01*
X115993500Y-100185000D02*
X115993500Y-100485000D01*
X120193500Y-98985000D02*
X119693500Y-98985000D01*
X119693500Y-98985000D02*
X119693500Y-98785000D01*
X119693500Y-98785000D02*
X120193500Y-98785000D01*
X120193500Y-98885000D02*
X119693500Y-98885000D01*
X120193500Y-96985000D02*
X119693500Y-96985000D01*
X119693500Y-96985000D02*
X119693500Y-96785000D01*
X119693500Y-96785000D02*
X120193500Y-96785000D01*
X120193500Y-96885000D02*
X119693500Y-96885000D01*
X120193500Y-94985000D02*
X119693500Y-94985000D01*
X119693500Y-94985000D02*
X119693500Y-94785000D01*
X119693500Y-94785000D02*
X120193500Y-94785000D01*
X120193500Y-94885000D02*
X119693500Y-94885000D01*
X115793500Y-100985000D02*
X115793500Y-102235000D01*
X115793500Y-102235000D02*
X117043500Y-102235000D01*
X116093500Y-112254500D02*
X120793500Y-112254500D01*
X120793500Y-112254500D02*
X120793500Y-102154500D01*
X120793500Y-102154500D02*
X116093500Y-102154500D01*
X116093500Y-102154500D02*
X116093500Y-112254500D01*
X116093500Y-109704500D02*
X116693500Y-109704500D01*
X116693500Y-109704500D02*
X116693500Y-111654500D01*
X116693500Y-111654500D02*
X120193500Y-111654500D01*
X120193500Y-111654500D02*
X120193500Y-102754500D01*
X120193500Y-102754500D02*
X116693500Y-102754500D01*
X116693500Y-102754500D02*
X116693500Y-104704500D01*
X116693500Y-104704500D02*
X116093500Y-104704500D01*
X117393500Y-112254500D02*
X117393500Y-111654500D01*
X118693500Y-112254500D02*
X118693500Y-111654500D01*
X117393500Y-102154500D02*
X117393500Y-102754500D01*
X118693500Y-102154500D02*
X118693500Y-102754500D01*
X116093500Y-110504500D02*
X115893500Y-110504500D01*
X115893500Y-110504500D02*
X115893500Y-110804500D01*
X115893500Y-110804500D02*
X116093500Y-110804500D01*
X115993500Y-110504500D02*
X115993500Y-110804500D01*
X120193500Y-109304500D02*
X119693500Y-109304500D01*
X119693500Y-109304500D02*
X119693500Y-109104500D01*
X119693500Y-109104500D02*
X120193500Y-109104500D01*
X120193500Y-109204500D02*
X119693500Y-109204500D01*
X120193500Y-107304500D02*
X119693500Y-107304500D01*
X119693500Y-107304500D02*
X119693500Y-107104500D01*
X119693500Y-107104500D02*
X120193500Y-107104500D01*
X120193500Y-107204500D02*
X119693500Y-107204500D01*
X120193500Y-105304500D02*
X119693500Y-105304500D01*
X119693500Y-105304500D02*
X119693500Y-105104500D01*
X119693500Y-105104500D02*
X120193500Y-105104500D01*
X120193500Y-105204500D02*
X119693500Y-105204500D01*
X115793500Y-111304500D02*
X115793500Y-112554500D01*
X115793500Y-112554500D02*
X117043500Y-112554500D01*
X102063500Y-114225000D02*
X102063500Y-115225000D01*
X100703500Y-115225000D02*
X100703500Y-114225000D01*
X102570000Y-111075000D02*
X101570000Y-111075000D01*
X101570000Y-109715000D02*
X102570000Y-109715000D01*
X89173000Y-113590000D02*
X89173000Y-114590000D01*
X87813000Y-114590000D02*
X87813000Y-113590000D01*
X89464000Y-114590000D02*
X89464000Y-113590000D01*
X90824000Y-113590000D02*
X90824000Y-114590000D01*
X86162000Y-99032500D02*
X86162000Y-98032500D01*
X87522000Y-98032500D02*
X87522000Y-99032500D01*
X102570000Y-112980000D02*
X101570000Y-112980000D01*
X101570000Y-111620000D02*
X102570000Y-111620000D01*
X86225500Y-114590000D02*
X86225500Y-113590000D01*
X87585500Y-113590000D02*
X87585500Y-114590000D01*
X99079000Y-95810000D02*
X99079000Y-96810000D01*
X97719000Y-96810000D02*
X97719000Y-95810000D01*
X105110000Y-93295000D02*
X104110000Y-93295000D01*
X104110000Y-91935000D02*
X105110000Y-91935000D01*
X101935000Y-91390000D02*
X100935000Y-91390000D01*
X100935000Y-90030000D02*
X101935000Y-90030000D01*
X105515000Y-112980000D02*
X104515000Y-112980000D01*
X104515000Y-111620000D02*
X105515000Y-111620000D01*
X105515000Y-111075000D02*
X104515000Y-111075000D01*
X104515000Y-109715000D02*
X105515000Y-109715000D01*
X88600000Y-96470000D02*
X87600000Y-96470000D01*
X87600000Y-95110000D02*
X88600000Y-95110000D01*
X91775000Y-95200000D02*
X90775000Y-95200000D01*
X90775000Y-93840000D02*
X91775000Y-93840000D01*
X94950000Y-95200000D02*
X93950000Y-95200000D01*
X93950000Y-93840000D02*
X94950000Y-93840000D01*
X88600000Y-94565000D02*
X87600000Y-94565000D01*
X87600000Y-93205000D02*
X88600000Y-93205000D01*
X88600000Y-92660000D02*
X87600000Y-92660000D01*
X87600000Y-91300000D02*
X88600000Y-91300000D01*
X94950000Y-93295000D02*
X93950000Y-93295000D01*
X93950000Y-91935000D02*
X94950000Y-91935000D01*
X101935000Y-93295000D02*
X100935000Y-93295000D01*
X100935000Y-91935000D02*
X101935000Y-91935000D01*
X98760000Y-93295000D02*
X97760000Y-93295000D01*
X97760000Y-91935000D02*
X98760000Y-91935000D01*
X91775000Y-93295000D02*
X90775000Y-93295000D01*
X90775000Y-91935000D02*
X91775000Y-91935000D01*
X98760000Y-91390000D02*
X97760000Y-91390000D01*
X97760000Y-90030000D02*
X98760000Y-90030000D01*
X96155000Y-111575000D02*
X98755000Y-111575000D01*
X100055000Y-116375000D02*
X96155000Y-116375000D01*
D13*
X93950000Y-110805000D02*
X93375000Y-110805000D01*
X84550000Y-101405000D02*
X85125000Y-101405000D01*
X84550000Y-110805000D02*
X85125000Y-110805000D01*
X93950000Y-101405000D02*
X93950000Y-101980000D01*
X84550000Y-101405000D02*
X84550000Y-101980000D01*
X84550000Y-110805000D02*
X84550000Y-110230000D01*
X93950000Y-110805000D02*
X93950000Y-110230000D01*
D12*
X101230000Y-104695000D02*
X101230000Y-102095000D01*
X101230000Y-102095000D02*
X98030000Y-102095000D01*
D10*
X68820000Y-134560000D02*
G75*
G02X69820000Y-133560000I1000000J0D01*
G01*
X80640000Y-133560000D02*
G75*
G02X81640000Y-134560000I0J-1000000D01*
G01*
X68820000Y-134560000D02*
X68820000Y-170760000D01*
X69818255Y-171759998D02*
G75*
G02X68820000Y-170760000I1745J999998D01*
G01*
X58870000Y-131360000D02*
X59370000Y-130860000D01*
X58870000Y-173960000D02*
X58870000Y-131360000D01*
X81640000Y-170760000D02*
G75*
G02X80640000Y-171760000I-1000000J0D01*
G01*
X83840000Y-130860000D02*
X59370000Y-130860000D01*
X84340000Y-131360000D02*
X84340000Y-173960000D01*
X83840000Y-174460000D02*
X59370000Y-174460000D01*
X80640000Y-133560000D02*
X69820000Y-133560000D01*
X84340000Y-173960000D02*
X83840000Y-174460000D01*
X83840000Y-130860000D02*
X84340000Y-131360000D01*
X59370000Y-174460000D02*
X58870000Y-173960000D01*
X81640000Y-134560000D02*
X81640000Y-170760000D01*
X80640000Y-171760000D02*
X69820000Y-171760000D01*
D12*
X127480000Y-135345000D02*
X129680000Y-135345000D01*
X129680000Y-135345000D02*
X129680000Y-136845000D01*
X129680000Y-136845000D02*
X121180000Y-136845000D01*
X121180000Y-136845000D02*
X121180000Y-129045000D01*
X121180000Y-129045000D02*
X129680000Y-129045000D01*
X129680000Y-129045000D02*
X129680000Y-130545000D01*
X129680000Y-130545000D02*
X127480000Y-130545000D01*
X122680000Y-136845000D02*
X122680000Y-135345000D01*
X122680000Y-135345000D02*
X127480000Y-135345000D01*
X127480000Y-135345000D02*
X127480000Y-136845000D01*
X122680000Y-129045000D02*
X122680000Y-130545000D01*
X122680000Y-130545000D02*
X127480000Y-130545000D01*
X127480000Y-130545000D02*
X127480000Y-129045000D01*
X125530000Y-135345000D02*
X125530000Y-130545000D01*
X126530000Y-135345000D02*
X126530000Y-130545000D01*
X125530000Y-134195000D02*
X125530000Y-134515000D01*
X125530000Y-134515000D02*
X122110000Y-134515000D01*
X122110000Y-134515000D02*
X122030000Y-134195000D01*
X122030000Y-134195000D02*
X122110000Y-133875000D01*
X122110000Y-133875000D02*
X125530000Y-133875000D01*
X125530000Y-133875000D02*
X125530000Y-134195000D01*
X125530000Y-131695000D02*
X125530000Y-132015000D01*
X125530000Y-132015000D02*
X122110000Y-132015000D01*
X122110000Y-132015000D02*
X122030000Y-131695000D01*
X122030000Y-131695000D02*
X122110000Y-131375000D01*
X122110000Y-131375000D02*
X125530000Y-131375000D01*
X125530000Y-131375000D02*
X125530000Y-131695000D01*
X129530000Y-134195000D02*
X130130000Y-134495000D01*
X130130000Y-134495000D02*
X130130000Y-133895000D01*
X130130000Y-133895000D02*
X129530000Y-134195000D01*
X88600000Y-137200000D02*
X103960000Y-137200000D01*
X103960000Y-137200000D02*
X103960000Y-134540000D01*
X103960000Y-134540000D02*
X88600000Y-134540000D01*
X88600000Y-134540000D02*
X88600000Y-137200000D01*
X89550000Y-134540000D02*
X89550000Y-128540000D01*
X89550000Y-128540000D02*
X90310000Y-128540000D01*
X90310000Y-128540000D02*
X90310000Y-134540000D01*
X89610000Y-134540000D02*
X89610000Y-128540000D01*
X89730000Y-134540000D02*
X89730000Y-128540000D01*
X89850000Y-134540000D02*
X89850000Y-128540000D01*
X89970000Y-134540000D02*
X89970000Y-128540000D01*
X90090000Y-134540000D02*
X90090000Y-128540000D01*
X90210000Y-134540000D02*
X90210000Y-128540000D01*
X89550000Y-137530000D02*
X89550000Y-137200000D01*
X90310000Y-137530000D02*
X90310000Y-137200000D01*
X91200000Y-137200000D02*
X91200000Y-134540000D01*
X92090000Y-134540000D02*
X92090000Y-128540000D01*
X92090000Y-128540000D02*
X92850000Y-128540000D01*
X92850000Y-128540000D02*
X92850000Y-134540000D01*
X92090000Y-137597071D02*
X92090000Y-137200000D01*
X92850000Y-137597071D02*
X92850000Y-137200000D01*
X93740000Y-137200000D02*
X93740000Y-134540000D01*
X94630000Y-134540000D02*
X94630000Y-128540000D01*
X94630000Y-128540000D02*
X95390000Y-128540000D01*
X95390000Y-128540000D02*
X95390000Y-134540000D01*
X94630000Y-137597071D02*
X94630000Y-137200000D01*
X95390000Y-137597071D02*
X95390000Y-137200000D01*
X96280000Y-137200000D02*
X96280000Y-134540000D01*
X97170000Y-134540000D02*
X97170000Y-128540000D01*
X97170000Y-128540000D02*
X97930000Y-128540000D01*
X97930000Y-128540000D02*
X97930000Y-134540000D01*
X97170000Y-137597071D02*
X97170000Y-137200000D01*
X97930000Y-137597071D02*
X97930000Y-137200000D01*
X98820000Y-137200000D02*
X98820000Y-134540000D01*
X99710000Y-134540000D02*
X99710000Y-128540000D01*
X99710000Y-128540000D02*
X100470000Y-128540000D01*
X100470000Y-128540000D02*
X100470000Y-134540000D01*
X99710000Y-137597071D02*
X99710000Y-137200000D01*
X100470000Y-137597071D02*
X100470000Y-137200000D01*
X101360000Y-137200000D02*
X101360000Y-134540000D01*
X102250000Y-134540000D02*
X102250000Y-128540000D01*
X102250000Y-128540000D02*
X103010000Y-128540000D01*
X103010000Y-128540000D02*
X103010000Y-134540000D01*
X102250000Y-137597071D02*
X102250000Y-137200000D01*
X103010000Y-137597071D02*
X103010000Y-137200000D01*
X89930000Y-139910000D02*
X88660000Y-139910000D01*
X88660000Y-139910000D02*
X88660000Y-138640000D01*
X95860000Y-177375000D02*
X95860000Y-173025000D01*
X95860000Y-173025000D02*
X100860000Y-173025000D01*
X100860000Y-173025000D02*
X100860000Y-177375000D01*
X94560000Y-171175000D02*
X94210000Y-171175000D01*
X94210000Y-171175000D02*
X94210000Y-169575000D01*
X94210000Y-169575000D02*
X93310000Y-169575000D01*
X93310000Y-169575000D02*
X93310000Y-177375000D01*
X93310000Y-177375000D02*
X103410000Y-177375000D01*
X103410000Y-177375000D02*
X103410000Y-169575000D01*
X103410000Y-169575000D02*
X102510000Y-169575000D01*
X102510000Y-169575000D02*
X102510000Y-171175000D01*
X102510000Y-171175000D02*
X102160000Y-171175000D01*
X93310000Y-171175000D02*
X94210000Y-171175000D01*
X103410000Y-171175000D02*
X102510000Y-171175000D01*
X94060000Y-173525000D02*
X94060000Y-175125000D01*
X94060000Y-175125000D02*
X95060000Y-175125000D01*
X95060000Y-175125000D02*
X95060000Y-173525000D01*
X95060000Y-173525000D02*
X94060000Y-173525000D01*
X102660000Y-173525000D02*
X102660000Y-175125000D01*
X102660000Y-175125000D02*
X101660000Y-175125000D01*
X101660000Y-175125000D02*
X101660000Y-173525000D01*
X101660000Y-173525000D02*
X102660000Y-173525000D01*
X95060000Y-175125000D02*
X95060000Y-177375000D01*
X94560000Y-175125000D02*
X94560000Y-177375000D01*
X94560000Y-171175000D02*
X94560000Y-169975000D01*
D13*
X85792381Y-92833333D02*
X86506667Y-92833333D01*
X86649524Y-92880953D01*
X86744762Y-92976191D01*
X86792381Y-93119048D01*
X86792381Y-93214286D01*
X85792381Y-92452381D02*
X85792381Y-91785714D01*
X86792381Y-92214286D01*
X96795667Y-87495381D02*
X96795667Y-88209667D01*
X96748047Y-88352524D01*
X96652809Y-88447762D01*
X96509952Y-88495381D01*
X96414714Y-88495381D01*
X97176619Y-87495381D02*
X97795667Y-87495381D01*
X97462333Y-87876333D01*
X97605191Y-87876333D01*
X97700429Y-87923952D01*
X97748048Y-87971571D01*
X97795667Y-88066810D01*
X97795667Y-88304905D01*
X97748048Y-88400143D01*
X97700429Y-88447762D01*
X97605191Y-88495381D01*
X97319476Y-88495381D01*
X97224238Y-88447762D01*
X97176619Y-88400143D01*
X85643381Y-116594166D02*
X85167190Y-116927500D01*
X85643381Y-117165595D02*
X84643381Y-117165595D01*
X84643381Y-116784642D01*
X84691000Y-116689404D01*
X84738619Y-116641785D01*
X84833857Y-116594166D01*
X84976714Y-116594166D01*
X85071952Y-116641785D01*
X85119571Y-116689404D01*
X85167190Y-116784642D01*
X85167190Y-117165595D01*
X84643381Y-115737023D02*
X84643381Y-115927500D01*
X84691000Y-116022738D01*
X84738619Y-116070357D01*
X84881476Y-116165595D01*
X85071952Y-116213214D01*
X85452905Y-116213214D01*
X85548143Y-116165595D01*
X85595762Y-116117976D01*
X85643381Y-116022738D01*
X85643381Y-115832261D01*
X85595762Y-115737023D01*
X85548143Y-115689404D01*
X85452905Y-115641785D01*
X85214810Y-115641785D01*
X85119571Y-115689404D01*
X85071952Y-115737023D01*
X85024333Y-115832261D01*
X85024333Y-116022738D01*
X85071952Y-116117976D01*
X85119571Y-116165595D01*
X85214810Y-116213214D01*
X82097881Y-111311666D02*
X81621690Y-111645000D01*
X82097881Y-111883095D02*
X81097881Y-111883095D01*
X81097881Y-111502142D01*
X81145500Y-111406904D01*
X81193119Y-111359285D01*
X81288357Y-111311666D01*
X81431214Y-111311666D01*
X81526452Y-111359285D01*
X81574071Y-111406904D01*
X81621690Y-111502142D01*
X81621690Y-111883095D01*
X81097881Y-110406904D02*
X81097881Y-110883095D01*
X81574071Y-110930714D01*
X81526452Y-110883095D01*
X81478833Y-110787857D01*
X81478833Y-110549761D01*
X81526452Y-110454523D01*
X81574071Y-110406904D01*
X81669310Y-110359285D01*
X81907405Y-110359285D01*
X82002643Y-110406904D01*
X82050262Y-110454523D01*
X82097881Y-110549761D01*
X82097881Y-110787857D01*
X82050262Y-110883095D01*
X82002643Y-110930714D01*
X92529334Y-117332143D02*
X92481715Y-117379762D01*
X92338858Y-117427381D01*
X92243620Y-117427381D01*
X92100762Y-117379762D01*
X92005524Y-117284524D01*
X91957905Y-117189286D01*
X91910286Y-116998810D01*
X91910286Y-116855952D01*
X91957905Y-116665476D01*
X92005524Y-116570238D01*
X92100762Y-116475000D01*
X92243620Y-116427381D01*
X92338858Y-116427381D01*
X92481715Y-116475000D01*
X92529334Y-116522619D01*
X93481715Y-117427381D02*
X92910286Y-117427381D01*
X93196000Y-117427381D02*
X93196000Y-116427381D01*
X93100762Y-116570238D01*
X93005524Y-116665476D01*
X92910286Y-116713095D01*
X98359334Y-100147643D02*
X98311715Y-100195262D01*
X98168858Y-100242881D01*
X98073620Y-100242881D01*
X97930762Y-100195262D01*
X97835524Y-100100024D01*
X97787905Y-100004786D01*
X97740286Y-99814310D01*
X97740286Y-99671452D01*
X97787905Y-99480976D01*
X97835524Y-99385738D01*
X97930762Y-99290500D01*
X98073620Y-99242881D01*
X98168858Y-99242881D01*
X98311715Y-99290500D01*
X98359334Y-99338119D01*
X98740286Y-99338119D02*
X98787905Y-99290500D01*
X98883143Y-99242881D01*
X99121239Y-99242881D01*
X99216477Y-99290500D01*
X99264096Y-99338119D01*
X99311715Y-99433357D01*
X99311715Y-99528595D01*
X99264096Y-99671452D01*
X98692667Y-100242881D01*
X99311715Y-100242881D01*
X94168334Y-111323643D02*
X94120715Y-111371262D01*
X93977858Y-111418881D01*
X93882620Y-111418881D01*
X93739762Y-111371262D01*
X93644524Y-111276024D01*
X93596905Y-111180786D01*
X93549286Y-110990310D01*
X93549286Y-110847452D01*
X93596905Y-110656976D01*
X93644524Y-110561738D01*
X93739762Y-110466500D01*
X93882620Y-110418881D01*
X93977858Y-110418881D01*
X94120715Y-110466500D01*
X94168334Y-110514119D01*
X94501667Y-110418881D02*
X95120715Y-110418881D01*
X94787381Y-110799833D01*
X94930239Y-110799833D01*
X95025477Y-110847452D01*
X95073096Y-110895071D01*
X95120715Y-110990310D01*
X95120715Y-111228405D01*
X95073096Y-111323643D01*
X95025477Y-111371262D01*
X94930239Y-111418881D01*
X94644524Y-111418881D01*
X94549286Y-111371262D01*
X94501667Y-111323643D01*
X90310643Y-98572166D02*
X90358262Y-98619785D01*
X90405881Y-98762642D01*
X90405881Y-98857880D01*
X90358262Y-99000738D01*
X90263024Y-99095976D01*
X90167786Y-99143595D01*
X89977310Y-99191214D01*
X89834452Y-99191214D01*
X89643976Y-99143595D01*
X89548738Y-99095976D01*
X89453500Y-99000738D01*
X89405881Y-98857880D01*
X89405881Y-98762642D01*
X89453500Y-98619785D01*
X89501119Y-98572166D01*
X89739214Y-97715023D02*
X90405881Y-97715023D01*
X89358262Y-97953119D02*
X90072548Y-98191214D01*
X90072548Y-97572166D01*
X85802143Y-99830166D02*
X85849762Y-99877785D01*
X85897381Y-100020642D01*
X85897381Y-100115880D01*
X85849762Y-100258738D01*
X85754524Y-100353976D01*
X85659286Y-100401595D01*
X85468810Y-100449214D01*
X85325952Y-100449214D01*
X85135476Y-100401595D01*
X85040238Y-100353976D01*
X84945000Y-100258738D01*
X84897381Y-100115880D01*
X84897381Y-100020642D01*
X84945000Y-99877785D01*
X84992619Y-99830166D01*
X84897381Y-98925404D02*
X84897381Y-99401595D01*
X85373571Y-99449214D01*
X85325952Y-99401595D01*
X85278333Y-99306357D01*
X85278333Y-99068261D01*
X85325952Y-98973023D01*
X85373571Y-98925404D01*
X85468810Y-98877785D01*
X85706905Y-98877785D01*
X85802143Y-98925404D01*
X85849762Y-98973023D01*
X85897381Y-99068261D01*
X85897381Y-99306357D01*
X85849762Y-99401595D01*
X85802143Y-99449214D01*
X98994334Y-106497643D02*
X98946715Y-106545262D01*
X98803858Y-106592881D01*
X98708620Y-106592881D01*
X98565762Y-106545262D01*
X98470524Y-106450024D01*
X98422905Y-106354786D01*
X98375286Y-106164310D01*
X98375286Y-106021452D01*
X98422905Y-105830976D01*
X98470524Y-105735738D01*
X98565762Y-105640500D01*
X98708620Y-105592881D01*
X98803858Y-105592881D01*
X98946715Y-105640500D01*
X98994334Y-105688119D01*
X99851477Y-105592881D02*
X99661000Y-105592881D01*
X99565762Y-105640500D01*
X99518143Y-105688119D01*
X99422905Y-105830976D01*
X99375286Y-106021452D01*
X99375286Y-106402405D01*
X99422905Y-106497643D01*
X99470524Y-106545262D01*
X99565762Y-106592881D01*
X99756239Y-106592881D01*
X99851477Y-106545262D01*
X99899096Y-106497643D01*
X99946715Y-106402405D01*
X99946715Y-106164310D01*
X99899096Y-106069071D01*
X99851477Y-106021452D01*
X99756239Y-105973833D01*
X99565762Y-105973833D01*
X99470524Y-106021452D01*
X99422905Y-106069071D01*
X99375286Y-106164310D01*
X98994334Y-108085143D02*
X98946715Y-108132762D01*
X98803858Y-108180381D01*
X98708620Y-108180381D01*
X98565762Y-108132762D01*
X98470524Y-108037524D01*
X98422905Y-107942286D01*
X98375286Y-107751810D01*
X98375286Y-107608952D01*
X98422905Y-107418476D01*
X98470524Y-107323238D01*
X98565762Y-107228000D01*
X98708620Y-107180381D01*
X98803858Y-107180381D01*
X98946715Y-107228000D01*
X98994334Y-107275619D01*
X99327667Y-107180381D02*
X99994334Y-107180381D01*
X99565762Y-108180381D01*
X93192143Y-98572166D02*
X93239762Y-98619785D01*
X93287381Y-98762642D01*
X93287381Y-98857880D01*
X93239762Y-99000738D01*
X93144524Y-99095976D01*
X93049286Y-99143595D01*
X92858810Y-99191214D01*
X92715952Y-99191214D01*
X92525476Y-99143595D01*
X92430238Y-99095976D01*
X92335000Y-99000738D01*
X92287381Y-98857880D01*
X92287381Y-98762642D01*
X92335000Y-98619785D01*
X92382619Y-98572166D01*
X92715952Y-98000738D02*
X92668333Y-98095976D01*
X92620714Y-98143595D01*
X92525476Y-98191214D01*
X92477857Y-98191214D01*
X92382619Y-98143595D01*
X92335000Y-98095976D01*
X92287381Y-98000738D01*
X92287381Y-97810261D01*
X92335000Y-97715023D01*
X92382619Y-97667404D01*
X92477857Y-97619785D01*
X92525476Y-97619785D01*
X92620714Y-97667404D01*
X92668333Y-97715023D01*
X92715952Y-97810261D01*
X92715952Y-98000738D01*
X92763571Y-98095976D01*
X92811190Y-98143595D01*
X92906429Y-98191214D01*
X93096905Y-98191214D01*
X93192143Y-98143595D01*
X93239762Y-98095976D01*
X93287381Y-98000738D01*
X93287381Y-97810261D01*
X93239762Y-97715023D01*
X93192143Y-97667404D01*
X93096905Y-97619785D01*
X92906429Y-97619785D01*
X92811190Y-97667404D01*
X92763571Y-97715023D01*
X92715952Y-97810261D01*
X90167834Y-112276143D02*
X90120215Y-112323762D01*
X89977358Y-112371381D01*
X89882120Y-112371381D01*
X89739262Y-112323762D01*
X89644024Y-112228524D01*
X89596405Y-112133286D01*
X89548786Y-111942810D01*
X89548786Y-111799952D01*
X89596405Y-111609476D01*
X89644024Y-111514238D01*
X89739262Y-111419000D01*
X89882120Y-111371381D01*
X89977358Y-111371381D01*
X90120215Y-111419000D01*
X90167834Y-111466619D01*
X90644024Y-112371381D02*
X90834500Y-112371381D01*
X90929739Y-112323762D01*
X90977358Y-112276143D01*
X91072596Y-112133286D01*
X91120215Y-111942810D01*
X91120215Y-111561857D01*
X91072596Y-111466619D01*
X91024977Y-111419000D01*
X90929739Y-111371381D01*
X90739262Y-111371381D01*
X90644024Y-111419000D01*
X90596405Y-111466619D01*
X90548786Y-111561857D01*
X90548786Y-111799952D01*
X90596405Y-111895190D01*
X90644024Y-111942810D01*
X90739262Y-111990429D01*
X90929739Y-111990429D01*
X91024977Y-111942810D01*
X91072596Y-111895190D01*
X91120215Y-111799952D01*
X81436643Y-104465643D02*
X81389024Y-104513262D01*
X81246167Y-104560881D01*
X81150929Y-104560881D01*
X81008071Y-104513262D01*
X80912833Y-104418024D01*
X80865214Y-104322786D01*
X80817595Y-104132310D01*
X80817595Y-103989452D01*
X80865214Y-103798976D01*
X80912833Y-103703738D01*
X81008071Y-103608500D01*
X81150929Y-103560881D01*
X81246167Y-103560881D01*
X81389024Y-103608500D01*
X81436643Y-103656119D01*
X82389024Y-104560881D02*
X81817595Y-104560881D01*
X82103309Y-104560881D02*
X82103309Y-103560881D01*
X82008071Y-103703738D01*
X81912833Y-103798976D01*
X81817595Y-103846595D01*
X83008071Y-103560881D02*
X83103310Y-103560881D01*
X83198548Y-103608500D01*
X83246167Y-103656119D01*
X83293786Y-103751357D01*
X83341405Y-103941833D01*
X83341405Y-104179929D01*
X83293786Y-104370405D01*
X83246167Y-104465643D01*
X83198548Y-104513262D01*
X83103310Y-104560881D01*
X83008071Y-104560881D01*
X82912833Y-104513262D01*
X82865214Y-104465643D01*
X82817595Y-104370405D01*
X82769976Y-104179929D01*
X82769976Y-103941833D01*
X82817595Y-103751357D01*
X82865214Y-103656119D01*
X82912833Y-103608500D01*
X83008071Y-103560881D01*
X95533643Y-104338643D02*
X95486024Y-104386262D01*
X95343167Y-104433881D01*
X95247929Y-104433881D01*
X95105071Y-104386262D01*
X95009833Y-104291024D01*
X94962214Y-104195786D01*
X94914595Y-104005310D01*
X94914595Y-103862452D01*
X94962214Y-103671976D01*
X95009833Y-103576738D01*
X95105071Y-103481500D01*
X95247929Y-103433881D01*
X95343167Y-103433881D01*
X95486024Y-103481500D01*
X95533643Y-103529119D01*
X96486024Y-104433881D02*
X95914595Y-104433881D01*
X96200309Y-104433881D02*
X96200309Y-103433881D01*
X96105071Y-103576738D01*
X96009833Y-103671976D01*
X95914595Y-103719595D01*
X97438405Y-104433881D02*
X96866976Y-104433881D01*
X97152690Y-104433881D02*
X97152690Y-103433881D01*
X97057452Y-103576738D01*
X96962214Y-103671976D01*
X96866976Y-103719595D01*
X95482143Y-100362143D02*
X95434524Y-100409762D01*
X95291667Y-100457381D01*
X95196429Y-100457381D01*
X95053571Y-100409762D01*
X94958333Y-100314524D01*
X94910714Y-100219286D01*
X94863095Y-100028810D01*
X94863095Y-99885952D01*
X94910714Y-99695476D01*
X94958333Y-99600238D01*
X95053571Y-99505000D01*
X95196429Y-99457381D01*
X95291667Y-99457381D01*
X95434524Y-99505000D01*
X95482143Y-99552619D01*
X96434524Y-100457381D02*
X95863095Y-100457381D01*
X96148809Y-100457381D02*
X96148809Y-99457381D01*
X96053571Y-99600238D01*
X95958333Y-99695476D01*
X95863095Y-99743095D01*
X96815476Y-99552619D02*
X96863095Y-99505000D01*
X96958333Y-99457381D01*
X97196429Y-99457381D01*
X97291667Y-99505000D01*
X97339286Y-99552619D01*
X97386905Y-99647857D01*
X97386905Y-99743095D01*
X97339286Y-99885952D01*
X96767857Y-100457381D01*
X97386905Y-100457381D01*
X81754143Y-106624643D02*
X81706524Y-106672262D01*
X81563667Y-106719881D01*
X81468429Y-106719881D01*
X81325571Y-106672262D01*
X81230333Y-106577024D01*
X81182714Y-106481786D01*
X81135095Y-106291310D01*
X81135095Y-106148452D01*
X81182714Y-105957976D01*
X81230333Y-105862738D01*
X81325571Y-105767500D01*
X81468429Y-105719881D01*
X81563667Y-105719881D01*
X81706524Y-105767500D01*
X81754143Y-105815119D01*
X82706524Y-106719881D02*
X82135095Y-106719881D01*
X82420809Y-106719881D02*
X82420809Y-105719881D01*
X82325571Y-105862738D01*
X82230333Y-105957976D01*
X82135095Y-106005595D01*
X83039857Y-105719881D02*
X83658905Y-105719881D01*
X83325571Y-106100833D01*
X83468429Y-106100833D01*
X83563667Y-106148452D01*
X83611286Y-106196071D01*
X83658905Y-106291310D01*
X83658905Y-106529405D01*
X83611286Y-106624643D01*
X83563667Y-106672262D01*
X83468429Y-106719881D01*
X83182714Y-106719881D01*
X83087476Y-106672262D01*
X83039857Y-106624643D01*
X80785643Y-108624857D02*
X80833262Y-108672476D01*
X80880881Y-108815333D01*
X80880881Y-108910571D01*
X80833262Y-109053429D01*
X80738024Y-109148667D01*
X80642786Y-109196286D01*
X80452310Y-109243905D01*
X80309452Y-109243905D01*
X80118976Y-109196286D01*
X80023738Y-109148667D01*
X79928500Y-109053429D01*
X79880881Y-108910571D01*
X79880881Y-108815333D01*
X79928500Y-108672476D01*
X79976119Y-108624857D01*
X80880881Y-107672476D02*
X80880881Y-108243905D01*
X80880881Y-107958191D02*
X79880881Y-107958191D01*
X80023738Y-108053429D01*
X80118976Y-108148667D01*
X80166595Y-108243905D01*
X80214214Y-106815333D02*
X80880881Y-106815333D01*
X79833262Y-107053429D02*
X80547548Y-107291524D01*
X80547548Y-106672476D01*
X100772405Y-107545381D02*
X100772405Y-106545381D01*
X101010500Y-106545381D01*
X101153358Y-106593000D01*
X101248596Y-106688238D01*
X101296215Y-106783476D01*
X101343834Y-106973952D01*
X101343834Y-107116810D01*
X101296215Y-107307286D01*
X101248596Y-107402524D01*
X101153358Y-107497762D01*
X101010500Y-107545381D01*
X100772405Y-107545381D01*
X102296215Y-107545381D02*
X101724786Y-107545381D01*
X102010500Y-107545381D02*
X102010500Y-106545381D01*
X101915262Y-106688238D01*
X101820024Y-106783476D01*
X101724786Y-106831095D01*
X102956905Y-110192381D02*
X102956905Y-109192381D01*
X103195000Y-109192381D01*
X103337858Y-109240000D01*
X103433096Y-109335238D01*
X103480715Y-109430476D01*
X103528334Y-109620952D01*
X103528334Y-109763810D01*
X103480715Y-109954286D01*
X103433096Y-110049524D01*
X103337858Y-110144762D01*
X103195000Y-110192381D01*
X102956905Y-110192381D01*
X103909286Y-109287619D02*
X103956905Y-109240000D01*
X104052143Y-109192381D01*
X104290239Y-109192381D01*
X104385477Y-109240000D01*
X104433096Y-109287619D01*
X104480715Y-109382857D01*
X104480715Y-109478095D01*
X104433096Y-109620952D01*
X103861667Y-110192381D01*
X104480715Y-110192381D01*
X109281405Y-104116381D02*
X109281405Y-103116381D01*
X109519500Y-103116381D01*
X109662358Y-103164000D01*
X109757596Y-103259238D01*
X109805215Y-103354476D01*
X109852834Y-103544952D01*
X109852834Y-103687810D01*
X109805215Y-103878286D01*
X109757596Y-103973524D01*
X109662358Y-104068762D01*
X109519500Y-104116381D01*
X109281405Y-104116381D01*
X110186167Y-103116381D02*
X110805215Y-103116381D01*
X110471881Y-103497333D01*
X110614739Y-103497333D01*
X110709977Y-103544952D01*
X110757596Y-103592571D01*
X110805215Y-103687810D01*
X110805215Y-103925905D01*
X110757596Y-104021143D01*
X110709977Y-104068762D01*
X110614739Y-104116381D01*
X110329024Y-104116381D01*
X110233786Y-104068762D01*
X110186167Y-104021143D01*
X107693905Y-105767381D02*
X107693905Y-104767381D01*
X107932000Y-104767381D01*
X108074858Y-104815000D01*
X108170096Y-104910238D01*
X108217715Y-105005476D01*
X108265334Y-105195952D01*
X108265334Y-105338810D01*
X108217715Y-105529286D01*
X108170096Y-105624524D01*
X108074858Y-105719762D01*
X107932000Y-105767381D01*
X107693905Y-105767381D01*
X109122477Y-105100714D02*
X109122477Y-105767381D01*
X108884381Y-104719762D02*
X108646286Y-105434048D01*
X109265334Y-105434048D01*
X103439405Y-105767381D02*
X103439405Y-104767381D01*
X103677500Y-104767381D01*
X103820358Y-104815000D01*
X103915596Y-104910238D01*
X103963215Y-105005476D01*
X104010834Y-105195952D01*
X104010834Y-105338810D01*
X103963215Y-105529286D01*
X103915596Y-105624524D01*
X103820358Y-105719762D01*
X103677500Y-105767381D01*
X103439405Y-105767381D01*
X104915596Y-104767381D02*
X104439405Y-104767381D01*
X104391786Y-105243571D01*
X104439405Y-105195952D01*
X104534643Y-105148333D01*
X104772739Y-105148333D01*
X104867977Y-105195952D01*
X104915596Y-105243571D01*
X104963215Y-105338810D01*
X104963215Y-105576905D01*
X104915596Y-105672143D01*
X104867977Y-105719762D01*
X104772739Y-105767381D01*
X104534643Y-105767381D01*
X104439405Y-105719762D01*
X104391786Y-105672143D01*
X100137405Y-100115881D02*
X100137405Y-99115881D01*
X100375500Y-99115881D01*
X100518358Y-99163500D01*
X100613596Y-99258738D01*
X100661215Y-99353976D01*
X100708834Y-99544452D01*
X100708834Y-99687310D01*
X100661215Y-99877786D01*
X100613596Y-99973024D01*
X100518358Y-100068262D01*
X100375500Y-100115881D01*
X100137405Y-100115881D01*
X101565977Y-99115881D02*
X101375500Y-99115881D01*
X101280262Y-99163500D01*
X101232643Y-99211119D01*
X101137405Y-99353976D01*
X101089786Y-99544452D01*
X101089786Y-99925405D01*
X101137405Y-100020643D01*
X101185024Y-100068262D01*
X101280262Y-100115881D01*
X101470739Y-100115881D01*
X101565977Y-100068262D01*
X101613596Y-100020643D01*
X101661215Y-99925405D01*
X101661215Y-99687310D01*
X101613596Y-99592071D01*
X101565977Y-99544452D01*
X101470739Y-99496833D01*
X101280262Y-99496833D01*
X101185024Y-99544452D01*
X101137405Y-99592071D01*
X101089786Y-99687310D01*
X100200905Y-96559881D02*
X100200905Y-95559881D01*
X100439000Y-95559881D01*
X100581858Y-95607500D01*
X100677096Y-95702738D01*
X100724715Y-95797976D01*
X100772334Y-95988452D01*
X100772334Y-96131310D01*
X100724715Y-96321786D01*
X100677096Y-96417024D01*
X100581858Y-96512262D01*
X100439000Y-96559881D01*
X100200905Y-96559881D01*
X101105667Y-95559881D02*
X101772334Y-95559881D01*
X101343762Y-96559881D01*
X109154405Y-101703381D02*
X109154405Y-100703381D01*
X109392500Y-100703381D01*
X109535358Y-100751000D01*
X109630596Y-100846238D01*
X109678215Y-100941476D01*
X109725834Y-101131952D01*
X109725834Y-101274810D01*
X109678215Y-101465286D01*
X109630596Y-101560524D01*
X109535358Y-101655762D01*
X109392500Y-101703381D01*
X109154405Y-101703381D01*
X110297262Y-101131952D02*
X110202024Y-101084333D01*
X110154405Y-101036714D01*
X110106786Y-100941476D01*
X110106786Y-100893857D01*
X110154405Y-100798619D01*
X110202024Y-100751000D01*
X110297262Y-100703381D01*
X110487739Y-100703381D01*
X110582977Y-100751000D01*
X110630596Y-100798619D01*
X110678215Y-100893857D01*
X110678215Y-100941476D01*
X110630596Y-101036714D01*
X110582977Y-101084333D01*
X110487739Y-101131952D01*
X110297262Y-101131952D01*
X110202024Y-101179571D01*
X110154405Y-101227190D01*
X110106786Y-101322429D01*
X110106786Y-101512905D01*
X110154405Y-101608143D01*
X110202024Y-101655762D01*
X110297262Y-101703381D01*
X110487739Y-101703381D01*
X110582977Y-101655762D01*
X110630596Y-101608143D01*
X110678215Y-101512905D01*
X110678215Y-101322429D01*
X110630596Y-101227190D01*
X110582977Y-101179571D01*
X110487739Y-101131952D01*
X109344905Y-96496381D02*
X109344905Y-95496381D01*
X109583000Y-95496381D01*
X109725858Y-95544000D01*
X109821096Y-95639238D01*
X109868715Y-95734476D01*
X109916334Y-95924952D01*
X109916334Y-96067810D01*
X109868715Y-96258286D01*
X109821096Y-96353524D01*
X109725858Y-96448762D01*
X109583000Y-96496381D01*
X109344905Y-96496381D01*
X110392524Y-96496381D02*
X110583000Y-96496381D01*
X110678239Y-96448762D01*
X110725858Y-96401143D01*
X110821096Y-96258286D01*
X110868715Y-96067810D01*
X110868715Y-95686857D01*
X110821096Y-95591619D01*
X110773477Y-95544000D01*
X110678239Y-95496381D01*
X110487762Y-95496381D01*
X110392524Y-95544000D01*
X110344905Y-95591619D01*
X110297286Y-95686857D01*
X110297286Y-95924952D01*
X110344905Y-96020190D01*
X110392524Y-96067810D01*
X110487762Y-96115429D01*
X110678239Y-96115429D01*
X110773477Y-96067810D01*
X110821096Y-96020190D01*
X110868715Y-95924952D01*
X80331381Y-101434833D02*
X81045667Y-101434833D01*
X81188524Y-101482453D01*
X81283762Y-101577691D01*
X81331381Y-101720548D01*
X81331381Y-101815786D01*
X81331381Y-100434833D02*
X81331381Y-101006262D01*
X81331381Y-100720548D02*
X80331381Y-100720548D01*
X80474238Y-100815786D01*
X80569476Y-100911024D01*
X80617095Y-101006262D01*
X109402381Y-109037833D02*
X110116667Y-109037833D01*
X110259524Y-109085453D01*
X110354762Y-109180691D01*
X110402381Y-109323548D01*
X110402381Y-109418786D01*
X109497619Y-108609262D02*
X109450000Y-108561643D01*
X109402381Y-108466405D01*
X109402381Y-108228309D01*
X109450000Y-108133071D01*
X109497619Y-108085452D01*
X109592857Y-108037833D01*
X109688095Y-108037833D01*
X109830952Y-108085452D01*
X110402381Y-108656881D01*
X110402381Y-108037833D01*
X109402381Y-98718833D02*
X110116667Y-98718833D01*
X110259524Y-98766453D01*
X110354762Y-98861691D01*
X110402381Y-99004548D01*
X110402381Y-99099786D01*
X109735714Y-97814071D02*
X110402381Y-97814071D01*
X109354762Y-98052167D02*
X110069048Y-98290262D01*
X110069048Y-97671214D01*
X118869881Y-94281833D02*
X119584167Y-94281833D01*
X119727024Y-94329453D01*
X119822262Y-94424691D01*
X119869881Y-94567548D01*
X119869881Y-94662786D01*
X118869881Y-93329452D02*
X118869881Y-93805643D01*
X119346071Y-93853262D01*
X119298452Y-93805643D01*
X119250833Y-93710405D01*
X119250833Y-93472309D01*
X119298452Y-93377071D01*
X119346071Y-93329452D01*
X119441310Y-93281833D01*
X119679405Y-93281833D01*
X119774643Y-93329452D01*
X119822262Y-93377071D01*
X119869881Y-93472309D01*
X119869881Y-93710405D01*
X119822262Y-93805643D01*
X119774643Y-93853262D01*
X119187381Y-104314833D02*
X119901667Y-104314833D01*
X120044524Y-104362453D01*
X120139762Y-104457691D01*
X120187381Y-104600548D01*
X120187381Y-104695786D01*
X119187381Y-103410071D02*
X119187381Y-103600548D01*
X119235000Y-103695786D01*
X119282619Y-103743405D01*
X119425476Y-103838643D01*
X119615952Y-103886262D01*
X119996905Y-103886262D01*
X120092143Y-103838643D01*
X120139762Y-103791024D01*
X120187381Y-103695786D01*
X120187381Y-103505309D01*
X120139762Y-103410071D01*
X120092143Y-103362452D01*
X119996905Y-103314833D01*
X119758810Y-103314833D01*
X119663571Y-103362452D01*
X119615952Y-103410071D01*
X119568333Y-103505309D01*
X119568333Y-103695786D01*
X119615952Y-103791024D01*
X119663571Y-103838643D01*
X119758810Y-103886262D01*
X101835881Y-117038666D02*
X101359690Y-117372000D01*
X101835881Y-117610095D02*
X100835881Y-117610095D01*
X100835881Y-117229142D01*
X100883500Y-117133904D01*
X100931119Y-117086285D01*
X101026357Y-117038666D01*
X101169214Y-117038666D01*
X101264452Y-117086285D01*
X101312071Y-117133904D01*
X101359690Y-117229142D01*
X101359690Y-117610095D01*
X101835881Y-116086285D02*
X101835881Y-116657714D01*
X101835881Y-116372000D02*
X100835881Y-116372000D01*
X100978738Y-116467238D01*
X101073976Y-116562476D01*
X101121595Y-116657714D01*
X99629334Y-110847381D02*
X99296000Y-110371190D01*
X99057905Y-110847381D02*
X99057905Y-109847381D01*
X99438858Y-109847381D01*
X99534096Y-109895000D01*
X99581715Y-109942619D01*
X99629334Y-110037857D01*
X99629334Y-110180714D01*
X99581715Y-110275952D01*
X99534096Y-110323571D01*
X99438858Y-110371190D01*
X99057905Y-110371190D01*
X100010286Y-109942619D02*
X100057905Y-109895000D01*
X100153143Y-109847381D01*
X100391239Y-109847381D01*
X100486477Y-109895000D01*
X100534096Y-109942619D01*
X100581715Y-110037857D01*
X100581715Y-110133095D01*
X100534096Y-110275952D01*
X99962667Y-110847381D01*
X100581715Y-110847381D01*
X88945381Y-116721166D02*
X88469190Y-117054500D01*
X88945381Y-117292595D02*
X87945381Y-117292595D01*
X87945381Y-116911642D01*
X87993000Y-116816404D01*
X88040619Y-116768785D01*
X88135857Y-116721166D01*
X88278714Y-116721166D01*
X88373952Y-116768785D01*
X88421571Y-116816404D01*
X88469190Y-116911642D01*
X88469190Y-117292595D01*
X87945381Y-116387833D02*
X87945381Y-115768785D01*
X88326333Y-116102119D01*
X88326333Y-115959261D01*
X88373952Y-115864023D01*
X88421571Y-115816404D01*
X88516810Y-115768785D01*
X88754905Y-115768785D01*
X88850143Y-115816404D01*
X88897762Y-115864023D01*
X88945381Y-115959261D01*
X88945381Y-116244976D01*
X88897762Y-116340214D01*
X88850143Y-116387833D01*
X90532881Y-116467166D02*
X90056690Y-116800500D01*
X90532881Y-117038595D02*
X89532881Y-117038595D01*
X89532881Y-116657642D01*
X89580500Y-116562404D01*
X89628119Y-116514785D01*
X89723357Y-116467166D01*
X89866214Y-116467166D01*
X89961452Y-116514785D01*
X90009071Y-116562404D01*
X90056690Y-116657642D01*
X90056690Y-117038595D01*
X89866214Y-115610023D02*
X90532881Y-115610023D01*
X89485262Y-115848119D02*
X90199548Y-116086214D01*
X90199548Y-115467166D01*
X88453334Y-101004881D02*
X88120000Y-100528690D01*
X87881905Y-101004881D02*
X87881905Y-100004881D01*
X88262858Y-100004881D01*
X88358096Y-100052500D01*
X88405715Y-100100119D01*
X88453334Y-100195357D01*
X88453334Y-100338214D01*
X88405715Y-100433452D01*
X88358096Y-100481071D01*
X88262858Y-100528690D01*
X87881905Y-100528690D01*
X88786667Y-100004881D02*
X89453334Y-100004881D01*
X89024762Y-101004881D01*
X103121834Y-114149381D02*
X102788500Y-113673190D01*
X102550405Y-114149381D02*
X102550405Y-113149381D01*
X102931358Y-113149381D01*
X103026596Y-113197000D01*
X103074215Y-113244619D01*
X103121834Y-113339857D01*
X103121834Y-113482714D01*
X103074215Y-113577952D01*
X103026596Y-113625571D01*
X102931358Y-113673190D01*
X102550405Y-113673190D01*
X103693262Y-113577952D02*
X103598024Y-113530333D01*
X103550405Y-113482714D01*
X103502786Y-113387476D01*
X103502786Y-113339857D01*
X103550405Y-113244619D01*
X103598024Y-113197000D01*
X103693262Y-113149381D01*
X103883739Y-113149381D01*
X103978977Y-113197000D01*
X104026596Y-113244619D01*
X104074215Y-113339857D01*
X104074215Y-113387476D01*
X104026596Y-113482714D01*
X103978977Y-113530333D01*
X103883739Y-113577952D01*
X103693262Y-113577952D01*
X103598024Y-113625571D01*
X103550405Y-113673190D01*
X103502786Y-113768429D01*
X103502786Y-113958905D01*
X103550405Y-114054143D01*
X103598024Y-114101762D01*
X103693262Y-114149381D01*
X103883739Y-114149381D01*
X103978977Y-114101762D01*
X104026596Y-114054143D01*
X104074215Y-113958905D01*
X104074215Y-113768429D01*
X104026596Y-113673190D01*
X103978977Y-113625571D01*
X103883739Y-113577952D01*
X87484881Y-116594166D02*
X87008690Y-116927500D01*
X87484881Y-117165595D02*
X86484881Y-117165595D01*
X86484881Y-116784642D01*
X86532500Y-116689404D01*
X86580119Y-116641785D01*
X86675357Y-116594166D01*
X86818214Y-116594166D01*
X86913452Y-116641785D01*
X86961071Y-116689404D01*
X87008690Y-116784642D01*
X87008690Y-117165595D01*
X87484881Y-116117976D02*
X87484881Y-115927500D01*
X87437262Y-115832261D01*
X87389643Y-115784642D01*
X87246786Y-115689404D01*
X87056310Y-115641785D01*
X86675357Y-115641785D01*
X86580119Y-115689404D01*
X86532500Y-115737023D01*
X86484881Y-115832261D01*
X86484881Y-116022738D01*
X86532500Y-116117976D01*
X86580119Y-116165595D01*
X86675357Y-116213214D01*
X86913452Y-116213214D01*
X87008690Y-116165595D01*
X87056310Y-116117976D01*
X87103929Y-116022738D01*
X87103929Y-115832261D01*
X87056310Y-115737023D01*
X87008690Y-115689404D01*
X86913452Y-115641785D01*
X97401381Y-96952857D02*
X96925190Y-97286191D01*
X97401381Y-97524286D02*
X96401381Y-97524286D01*
X96401381Y-97143333D01*
X96449000Y-97048095D01*
X96496619Y-97000476D01*
X96591857Y-96952857D01*
X96734714Y-96952857D01*
X96829952Y-97000476D01*
X96877571Y-97048095D01*
X96925190Y-97143333D01*
X96925190Y-97524286D01*
X97401381Y-96000476D02*
X97401381Y-96571905D01*
X97401381Y-96286191D02*
X96401381Y-96286191D01*
X96544238Y-96381429D01*
X96639476Y-96476667D01*
X96687095Y-96571905D01*
X96401381Y-95381429D02*
X96401381Y-95286190D01*
X96449000Y-95190952D01*
X96496619Y-95143333D01*
X96591857Y-95095714D01*
X96782333Y-95048095D01*
X97020429Y-95048095D01*
X97210905Y-95095714D01*
X97306143Y-95143333D01*
X97353762Y-95190952D01*
X97401381Y-95286190D01*
X97401381Y-95381429D01*
X97353762Y-95476667D01*
X97306143Y-95524286D01*
X97210905Y-95571905D01*
X97020429Y-95619524D01*
X96782333Y-95619524D01*
X96591857Y-95571905D01*
X96496619Y-95524286D01*
X96449000Y-95476667D01*
X96401381Y-95381429D01*
X103967143Y-91617381D02*
X103633809Y-91141190D01*
X103395714Y-91617381D02*
X103395714Y-90617381D01*
X103776667Y-90617381D01*
X103871905Y-90665000D01*
X103919524Y-90712619D01*
X103967143Y-90807857D01*
X103967143Y-90950714D01*
X103919524Y-91045952D01*
X103871905Y-91093571D01*
X103776667Y-91141190D01*
X103395714Y-91141190D01*
X104919524Y-91617381D02*
X104348095Y-91617381D01*
X104633809Y-91617381D02*
X104633809Y-90617381D01*
X104538571Y-90760238D01*
X104443333Y-90855476D01*
X104348095Y-90903095D01*
X105871905Y-91617381D02*
X105300476Y-91617381D01*
X105586190Y-91617381D02*
X105586190Y-90617381D01*
X105490952Y-90760238D01*
X105395714Y-90855476D01*
X105300476Y-90903095D01*
X100792143Y-89712381D02*
X100458809Y-89236190D01*
X100220714Y-89712381D02*
X100220714Y-88712381D01*
X100601667Y-88712381D01*
X100696905Y-88760000D01*
X100744524Y-88807619D01*
X100792143Y-88902857D01*
X100792143Y-89045714D01*
X100744524Y-89140952D01*
X100696905Y-89188571D01*
X100601667Y-89236190D01*
X100220714Y-89236190D01*
X101744524Y-89712381D02*
X101173095Y-89712381D01*
X101458809Y-89712381D02*
X101458809Y-88712381D01*
X101363571Y-88855238D01*
X101268333Y-88950476D01*
X101173095Y-88998095D01*
X102125476Y-88807619D02*
X102173095Y-88760000D01*
X102268333Y-88712381D01*
X102506429Y-88712381D01*
X102601667Y-88760000D01*
X102649286Y-88807619D01*
X102696905Y-88902857D01*
X102696905Y-88998095D01*
X102649286Y-89140952D01*
X102077857Y-89712381D01*
X102696905Y-89712381D01*
X107217643Y-112752381D02*
X106884309Y-112276190D01*
X106646214Y-112752381D02*
X106646214Y-111752381D01*
X107027167Y-111752381D01*
X107122405Y-111800000D01*
X107170024Y-111847619D01*
X107217643Y-111942857D01*
X107217643Y-112085714D01*
X107170024Y-112180952D01*
X107122405Y-112228571D01*
X107027167Y-112276190D01*
X106646214Y-112276190D01*
X108170024Y-112752381D02*
X107598595Y-112752381D01*
X107884309Y-112752381D02*
X107884309Y-111752381D01*
X107789071Y-111895238D01*
X107693833Y-111990476D01*
X107598595Y-112038095D01*
X108503357Y-111752381D02*
X109122405Y-111752381D01*
X108789071Y-112133333D01*
X108931929Y-112133333D01*
X109027167Y-112180952D01*
X109074786Y-112228571D01*
X109122405Y-112323810D01*
X109122405Y-112561905D01*
X109074786Y-112657143D01*
X109027167Y-112704762D01*
X108931929Y-112752381D01*
X108646214Y-112752381D01*
X108550976Y-112704762D01*
X108503357Y-112657143D01*
X107217643Y-110847381D02*
X106884309Y-110371190D01*
X106646214Y-110847381D02*
X106646214Y-109847381D01*
X107027167Y-109847381D01*
X107122405Y-109895000D01*
X107170024Y-109942619D01*
X107217643Y-110037857D01*
X107217643Y-110180714D01*
X107170024Y-110275952D01*
X107122405Y-110323571D01*
X107027167Y-110371190D01*
X106646214Y-110371190D01*
X108170024Y-110847381D02*
X107598595Y-110847381D01*
X107884309Y-110847381D02*
X107884309Y-109847381D01*
X107789071Y-109990238D01*
X107693833Y-110085476D01*
X107598595Y-110133095D01*
X109027167Y-110180714D02*
X109027167Y-110847381D01*
X108789071Y-109799762D02*
X108550976Y-110514048D01*
X109170024Y-110514048D01*
X86532381Y-96305857D02*
X86056190Y-96639191D01*
X86532381Y-96877286D02*
X85532381Y-96877286D01*
X85532381Y-96496333D01*
X85580000Y-96401095D01*
X85627619Y-96353476D01*
X85722857Y-96305857D01*
X85865714Y-96305857D01*
X85960952Y-96353476D01*
X86008571Y-96401095D01*
X86056190Y-96496333D01*
X86056190Y-96877286D01*
X86532381Y-95353476D02*
X86532381Y-95924905D01*
X86532381Y-95639191D02*
X85532381Y-95639191D01*
X85675238Y-95734429D01*
X85770476Y-95829667D01*
X85818095Y-95924905D01*
X85532381Y-94448714D02*
X85532381Y-94924905D01*
X86008571Y-94972524D01*
X85960952Y-94924905D01*
X85913333Y-94829667D01*
X85913333Y-94591571D01*
X85960952Y-94496333D01*
X86008571Y-94448714D01*
X86103810Y-94401095D01*
X86341905Y-94401095D01*
X86437143Y-94448714D01*
X86484762Y-94496333D01*
X86532381Y-94591571D01*
X86532381Y-94829667D01*
X86484762Y-94924905D01*
X86437143Y-94972524D01*
X90580643Y-96432881D02*
X90247309Y-95956690D01*
X90009214Y-96432881D02*
X90009214Y-95432881D01*
X90390167Y-95432881D01*
X90485405Y-95480500D01*
X90533024Y-95528119D01*
X90580643Y-95623357D01*
X90580643Y-95766214D01*
X90533024Y-95861452D01*
X90485405Y-95909071D01*
X90390167Y-95956690D01*
X90009214Y-95956690D01*
X91533024Y-96432881D02*
X90961595Y-96432881D01*
X91247309Y-96432881D02*
X91247309Y-95432881D01*
X91152071Y-95575738D01*
X91056833Y-95670976D01*
X90961595Y-95718595D01*
X92390167Y-95432881D02*
X92199690Y-95432881D01*
X92104452Y-95480500D01*
X92056833Y-95528119D01*
X91961595Y-95670976D01*
X91913976Y-95861452D01*
X91913976Y-96242405D01*
X91961595Y-96337643D01*
X92009214Y-96385262D01*
X92104452Y-96432881D01*
X92294929Y-96432881D01*
X92390167Y-96385262D01*
X92437786Y-96337643D01*
X92485405Y-96242405D01*
X92485405Y-96004310D01*
X92437786Y-95909071D01*
X92390167Y-95861452D01*
X92294929Y-95813833D01*
X92104452Y-95813833D01*
X92009214Y-95861452D01*
X91961595Y-95909071D01*
X91913976Y-96004310D01*
X93819143Y-96369381D02*
X93485809Y-95893190D01*
X93247714Y-96369381D02*
X93247714Y-95369381D01*
X93628667Y-95369381D01*
X93723905Y-95417000D01*
X93771524Y-95464619D01*
X93819143Y-95559857D01*
X93819143Y-95702714D01*
X93771524Y-95797952D01*
X93723905Y-95845571D01*
X93628667Y-95893190D01*
X93247714Y-95893190D01*
X94771524Y-96369381D02*
X94200095Y-96369381D01*
X94485809Y-96369381D02*
X94485809Y-95369381D01*
X94390571Y-95512238D01*
X94295333Y-95607476D01*
X94200095Y-95655095D01*
X95104857Y-95369381D02*
X95771524Y-95369381D01*
X95342952Y-96369381D01*
X86468881Y-93575357D02*
X85992690Y-93908691D01*
X86468881Y-94146786D02*
X85468881Y-94146786D01*
X85468881Y-93765833D01*
X85516500Y-93670595D01*
X85564119Y-93622976D01*
X85659357Y-93575357D01*
X85802214Y-93575357D01*
X85897452Y-93622976D01*
X85945071Y-93670595D01*
X85992690Y-93765833D01*
X85992690Y-94146786D01*
X86468881Y-92622976D02*
X86468881Y-93194405D01*
X86468881Y-92908691D02*
X85468881Y-92908691D01*
X85611738Y-93003929D01*
X85706976Y-93099167D01*
X85754595Y-93194405D01*
X85897452Y-92051548D02*
X85849833Y-92146786D01*
X85802214Y-92194405D01*
X85706976Y-92242024D01*
X85659357Y-92242024D01*
X85564119Y-92194405D01*
X85516500Y-92146786D01*
X85468881Y-92051548D01*
X85468881Y-91861071D01*
X85516500Y-91765833D01*
X85564119Y-91718214D01*
X85659357Y-91670595D01*
X85706976Y-91670595D01*
X85802214Y-91718214D01*
X85849833Y-91765833D01*
X85897452Y-91861071D01*
X85897452Y-92051548D01*
X85945071Y-92146786D01*
X85992690Y-92194405D01*
X86087929Y-92242024D01*
X86278405Y-92242024D01*
X86373643Y-92194405D01*
X86421262Y-92146786D01*
X86468881Y-92051548D01*
X86468881Y-91861071D01*
X86421262Y-91765833D01*
X86373643Y-91718214D01*
X86278405Y-91670595D01*
X86087929Y-91670595D01*
X85992690Y-91718214D01*
X85945071Y-91765833D01*
X85897452Y-91861071D01*
X87342143Y-91225881D02*
X87008809Y-90749690D01*
X86770714Y-91225881D02*
X86770714Y-90225881D01*
X87151667Y-90225881D01*
X87246905Y-90273500D01*
X87294524Y-90321119D01*
X87342143Y-90416357D01*
X87342143Y-90559214D01*
X87294524Y-90654452D01*
X87246905Y-90702071D01*
X87151667Y-90749690D01*
X86770714Y-90749690D01*
X88294524Y-91225881D02*
X87723095Y-91225881D01*
X88008809Y-91225881D02*
X88008809Y-90225881D01*
X87913571Y-90368738D01*
X87818333Y-90463976D01*
X87723095Y-90511595D01*
X88770714Y-91225881D02*
X88961190Y-91225881D01*
X89056429Y-91178262D01*
X89104048Y-91130643D01*
X89199286Y-90987786D01*
X89246905Y-90797310D01*
X89246905Y-90416357D01*
X89199286Y-90321119D01*
X89151667Y-90273500D01*
X89056429Y-90225881D01*
X88865952Y-90225881D01*
X88770714Y-90273500D01*
X88723095Y-90321119D01*
X88675476Y-90416357D01*
X88675476Y-90654452D01*
X88723095Y-90749690D01*
X88770714Y-90797310D01*
X88865952Y-90844929D01*
X89056429Y-90844929D01*
X89151667Y-90797310D01*
X89199286Y-90749690D01*
X89246905Y-90654452D01*
X93807143Y-91617381D02*
X93473809Y-91141190D01*
X93235714Y-91617381D02*
X93235714Y-90617381D01*
X93616667Y-90617381D01*
X93711905Y-90665000D01*
X93759524Y-90712619D01*
X93807143Y-90807857D01*
X93807143Y-90950714D01*
X93759524Y-91045952D01*
X93711905Y-91093571D01*
X93616667Y-91141190D01*
X93235714Y-91141190D01*
X94188095Y-90712619D02*
X94235714Y-90665000D01*
X94330952Y-90617381D01*
X94569048Y-90617381D01*
X94664286Y-90665000D01*
X94711905Y-90712619D01*
X94759524Y-90807857D01*
X94759524Y-90903095D01*
X94711905Y-91045952D01*
X94140476Y-91617381D01*
X94759524Y-91617381D01*
X95378571Y-90617381D02*
X95473810Y-90617381D01*
X95569048Y-90665000D01*
X95616667Y-90712619D01*
X95664286Y-90807857D01*
X95711905Y-90998333D01*
X95711905Y-91236429D01*
X95664286Y-91426905D01*
X95616667Y-91522143D01*
X95569048Y-91569762D01*
X95473810Y-91617381D01*
X95378571Y-91617381D01*
X95283333Y-91569762D01*
X95235714Y-91522143D01*
X95188095Y-91426905D01*
X95140476Y-91236429D01*
X95140476Y-90998333D01*
X95188095Y-90807857D01*
X95235714Y-90712619D01*
X95283333Y-90665000D01*
X95378571Y-90617381D01*
X100740643Y-94400881D02*
X100407309Y-93924690D01*
X100169214Y-94400881D02*
X100169214Y-93400881D01*
X100550167Y-93400881D01*
X100645405Y-93448500D01*
X100693024Y-93496119D01*
X100740643Y-93591357D01*
X100740643Y-93734214D01*
X100693024Y-93829452D01*
X100645405Y-93877071D01*
X100550167Y-93924690D01*
X100169214Y-93924690D01*
X101121595Y-93496119D02*
X101169214Y-93448500D01*
X101264452Y-93400881D01*
X101502548Y-93400881D01*
X101597786Y-93448500D01*
X101645405Y-93496119D01*
X101693024Y-93591357D01*
X101693024Y-93686595D01*
X101645405Y-93829452D01*
X101073976Y-94400881D01*
X101693024Y-94400881D01*
X102645405Y-94400881D02*
X102073976Y-94400881D01*
X102359690Y-94400881D02*
X102359690Y-93400881D01*
X102264452Y-93543738D01*
X102169214Y-93638976D01*
X102073976Y-93686595D01*
X97502143Y-94527881D02*
X97168809Y-94051690D01*
X96930714Y-94527881D02*
X96930714Y-93527881D01*
X97311667Y-93527881D01*
X97406905Y-93575500D01*
X97454524Y-93623119D01*
X97502143Y-93718357D01*
X97502143Y-93861214D01*
X97454524Y-93956452D01*
X97406905Y-94004071D01*
X97311667Y-94051690D01*
X96930714Y-94051690D01*
X97883095Y-93623119D02*
X97930714Y-93575500D01*
X98025952Y-93527881D01*
X98264048Y-93527881D01*
X98359286Y-93575500D01*
X98406905Y-93623119D01*
X98454524Y-93718357D01*
X98454524Y-93813595D01*
X98406905Y-93956452D01*
X97835476Y-94527881D01*
X98454524Y-94527881D01*
X98835476Y-93623119D02*
X98883095Y-93575500D01*
X98978333Y-93527881D01*
X99216429Y-93527881D01*
X99311667Y-93575500D01*
X99359286Y-93623119D01*
X99406905Y-93718357D01*
X99406905Y-93813595D01*
X99359286Y-93956452D01*
X98787857Y-94527881D01*
X99406905Y-94527881D01*
X90580643Y-91670381D02*
X90247309Y-91194190D01*
X90009214Y-91670381D02*
X90009214Y-90670381D01*
X90390167Y-90670381D01*
X90485405Y-90718000D01*
X90533024Y-90765619D01*
X90580643Y-90860857D01*
X90580643Y-91003714D01*
X90533024Y-91098952D01*
X90485405Y-91146571D01*
X90390167Y-91194190D01*
X90009214Y-91194190D01*
X90961595Y-90765619D02*
X91009214Y-90718000D01*
X91104452Y-90670381D01*
X91342548Y-90670381D01*
X91437786Y-90718000D01*
X91485405Y-90765619D01*
X91533024Y-90860857D01*
X91533024Y-90956095D01*
X91485405Y-91098952D01*
X90913976Y-91670381D01*
X91533024Y-91670381D01*
X91866357Y-90670381D02*
X92485405Y-90670381D01*
X92152071Y-91051333D01*
X92294929Y-91051333D01*
X92390167Y-91098952D01*
X92437786Y-91146571D01*
X92485405Y-91241810D01*
X92485405Y-91479905D01*
X92437786Y-91575143D01*
X92390167Y-91622762D01*
X92294929Y-91670381D01*
X92009214Y-91670381D01*
X91913976Y-91622762D01*
X91866357Y-91575143D01*
X97617143Y-89712381D02*
X97283809Y-89236190D01*
X97045714Y-89712381D02*
X97045714Y-88712381D01*
X97426667Y-88712381D01*
X97521905Y-88760000D01*
X97569524Y-88807619D01*
X97617143Y-88902857D01*
X97617143Y-89045714D01*
X97569524Y-89140952D01*
X97521905Y-89188571D01*
X97426667Y-89236190D01*
X97045714Y-89236190D01*
X97998095Y-88807619D02*
X98045714Y-88760000D01*
X98140952Y-88712381D01*
X98379048Y-88712381D01*
X98474286Y-88760000D01*
X98521905Y-88807619D01*
X98569524Y-88902857D01*
X98569524Y-88998095D01*
X98521905Y-89140952D01*
X97950476Y-89712381D01*
X98569524Y-89712381D01*
X99426667Y-89045714D02*
X99426667Y-89712381D01*
X99188571Y-88664762D02*
X98950476Y-89379048D01*
X99569524Y-89379048D01*
X96968095Y-116952381D02*
X96968095Y-117761905D01*
X97015714Y-117857143D01*
X97063333Y-117904762D01*
X97158571Y-117952381D01*
X97349048Y-117952381D01*
X97444286Y-117904762D01*
X97491905Y-117857143D01*
X97539524Y-117761905D01*
X97539524Y-116952381D01*
X98539524Y-117952381D02*
X97968095Y-117952381D01*
X98253809Y-117952381D02*
X98253809Y-116952381D01*
X98158571Y-117095238D01*
X98063333Y-117190476D01*
X97968095Y-117238095D01*
X94577381Y-106866905D02*
X95386905Y-106866905D01*
X95482143Y-106819286D01*
X95529762Y-106771667D01*
X95577381Y-106676429D01*
X95577381Y-106485952D01*
X95529762Y-106390714D01*
X95482143Y-106343095D01*
X95386905Y-106295476D01*
X94577381Y-106295476D01*
X94672619Y-105866905D02*
X94625000Y-105819286D01*
X94577381Y-105724048D01*
X94577381Y-105485952D01*
X94625000Y-105390714D01*
X94672619Y-105343095D01*
X94767857Y-105295476D01*
X94863095Y-105295476D01*
X95005952Y-105343095D01*
X95577381Y-105914524D01*
X95577381Y-105295476D01*
X100129476Y-105148381D02*
X100796143Y-106148381D01*
X100796143Y-105148381D02*
X100129476Y-106148381D01*
X101700905Y-106148381D02*
X101129476Y-106148381D01*
X101415190Y-106148381D02*
X101415190Y-105148381D01*
X101319952Y-105291238D01*
X101224714Y-105386476D01*
X101129476Y-105434095D01*
X56832381Y-153421905D02*
X57641905Y-153421905D01*
X57737143Y-153374286D01*
X57784762Y-153326667D01*
X57832381Y-153231429D01*
X57832381Y-153040952D01*
X57784762Y-152945714D01*
X57737143Y-152898095D01*
X57641905Y-152850476D01*
X56832381Y-152850476D01*
X56832381Y-151898095D02*
X56832381Y-152374286D01*
X57308571Y-152421905D01*
X57260952Y-152374286D01*
X57213333Y-152279048D01*
X57213333Y-152040952D01*
X57260952Y-151945714D01*
X57308571Y-151898095D01*
X57403810Y-151850476D01*
X57641905Y-151850476D01*
X57737143Y-151898095D01*
X57784762Y-151945714D01*
X57832381Y-152040952D01*
X57832381Y-152279048D01*
X57784762Y-152374286D01*
X57737143Y-152421905D01*
X130482381Y-133278333D02*
X131196667Y-133278333D01*
X131339524Y-133325953D01*
X131434762Y-133421191D01*
X131482381Y-133564048D01*
X131482381Y-133659286D01*
X131482381Y-132278333D02*
X131482381Y-132849762D01*
X131482381Y-132564048D02*
X130482381Y-132564048D01*
X130625238Y-132659286D01*
X130720476Y-132754524D01*
X130768095Y-132849762D01*
X88112381Y-141195833D02*
X88826667Y-141195833D01*
X88969524Y-141243453D01*
X89064762Y-141338691D01*
X89112381Y-141481548D01*
X89112381Y-141576786D01*
X88207619Y-140767262D02*
X88160000Y-140719643D01*
X88112381Y-140624405D01*
X88112381Y-140386309D01*
X88160000Y-140291071D01*
X88207619Y-140243452D01*
X88302857Y-140195833D01*
X88398095Y-140195833D01*
X88540952Y-140243452D01*
X89112381Y-140814881D01*
X89112381Y-140195833D01*
X104201667Y-173588881D02*
X104201667Y-174303167D01*
X104154047Y-174446024D01*
X104058809Y-174541262D01*
X103915952Y-174588881D01*
X103820714Y-174588881D01*
X104582619Y-173588881D02*
X105201667Y-173588881D01*
X104868333Y-173969833D01*
X105011191Y-173969833D01*
X105106429Y-174017452D01*
X105154048Y-174065071D01*
X105201667Y-174160310D01*
X105201667Y-174398405D01*
X105154048Y-174493643D01*
X105106429Y-174541262D01*
X105011191Y-174588881D01*
X104725476Y-174588881D01*
X104630238Y-174541262D01*
X104582619Y-174493643D01*
M02*
