G04 #@! TF.FileFunction,Soldermask,Top*
%FSLAX46Y46*%
G04 Gerber Fmt 4.6, Leading zero omitted, Abs format (unit mm)*
G04 Created by KiCad (PCBNEW 4.0.7) date *
%MOMM*%
%LPD*%
G01*
G04 APERTURE LIST*
%ADD10C,0.100000*%
%ADD11R,2.100000X1.600000*%
%ADD12O,2.100000X1.600000*%
%ADD13R,1.600000X2.100000*%
%ADD14O,1.600000X2.100000*%
%ADD15C,1.924000*%
%ADD16R,1.800000X3.600000*%
%ADD17C,2.200000*%
%ADD18R,1.100000X0.650000*%
%ADD19R,0.650000X1.100000*%
%ADD20R,2.125000X2.125000*%
%ADD21R,3.400000X1.400000*%
%ADD22R,1.200000X1.150000*%
%ADD23R,1.150000X1.200000*%
%ADD24R,1.650000X1.400000*%
%ADD25R,2.250000X2.250000*%
%ADD26C,2.250000*%
%ADD27R,2.100000X2.100000*%
%ADD28O,2.100000X2.100000*%
%ADD29R,1.200000X1.300000*%
%ADD30R,1.300000X0.900000*%
%ADD31R,0.900000X1.300000*%
%ADD32R,4.470000X2.170000*%
%ADD33R,2.170000X4.470000*%
%ADD34R,1.950000X1.000000*%
%ADD35R,0.900000X0.600000*%
%ADD36R,0.950000X0.600000*%
%ADD37R,0.600000X0.900000*%
%ADD38R,0.600000X0.950000*%
%ADD39R,1.275000X1.200000*%
G04 APERTURE END LIST*
D10*
D11*
X83540000Y-91000000D03*
D12*
X83540000Y-93000000D03*
X83540000Y-95000000D03*
X83540000Y-97000000D03*
D13*
X94081000Y-88551000D03*
D14*
X92081000Y-88551000D03*
X90081000Y-88551000D03*
X88081000Y-88551000D03*
D11*
X78079000Y-99601500D03*
D12*
X78079000Y-101601500D03*
X78079000Y-103601500D03*
X78079000Y-105601500D03*
X78079000Y-107601500D03*
X78079000Y-109601500D03*
X78079000Y-111601500D03*
D11*
X112750000Y-110204500D03*
D12*
X112750000Y-108204500D03*
X112750000Y-106204500D03*
X112750000Y-104204500D03*
D11*
X112750000Y-99885500D03*
D12*
X112750000Y-97885500D03*
X112750000Y-95885500D03*
X112750000Y-93885500D03*
D11*
X117893500Y-99885000D03*
D12*
X117893500Y-97885000D03*
X117893500Y-95885000D03*
X117893500Y-93885000D03*
D11*
X117893500Y-110204500D03*
D12*
X117893500Y-108204500D03*
X117893500Y-106204500D03*
X117893500Y-104204500D03*
D15*
X59920000Y-142500000D03*
X59920000Y-145040000D03*
X59920000Y-147580000D03*
X59920000Y-150120000D03*
X59920000Y-152660000D03*
X59920000Y-155200000D03*
X59920000Y-157740000D03*
X59920000Y-160280000D03*
X59920000Y-162820000D03*
D16*
X62670000Y-170460000D03*
X62670000Y-134860000D03*
D17*
X61860000Y-131560000D03*
X61860000Y-173760000D03*
D18*
X98540000Y-145285000D03*
X98540000Y-145785000D03*
X98540000Y-146285000D03*
X98540000Y-146785000D03*
X98540000Y-147285000D03*
X98540000Y-147785000D03*
X98540000Y-148285000D03*
X98540000Y-148785000D03*
D19*
X97890000Y-149435000D03*
X97390000Y-149435000D03*
X96890000Y-149435000D03*
X96390000Y-149435000D03*
X95890000Y-149435000D03*
X95390000Y-149435000D03*
X94890000Y-149435000D03*
X94390000Y-149435000D03*
D18*
X93740000Y-148785000D03*
X93740000Y-148285000D03*
X93740000Y-147785000D03*
X93740000Y-147285000D03*
X93740000Y-146785000D03*
X93740000Y-146285000D03*
X93740000Y-145785000D03*
X93740000Y-145285000D03*
D19*
X94390000Y-144635000D03*
X94890000Y-144635000D03*
X95390000Y-144635000D03*
X95890000Y-144635000D03*
X96390000Y-144635000D03*
X96890000Y-144635000D03*
X97390000Y-144635000D03*
X97890000Y-144635000D03*
D20*
X95277500Y-147897500D03*
X95277500Y-146172500D03*
X97002500Y-147897500D03*
X97002500Y-146172500D03*
D21*
X136830000Y-168290000D03*
X131790000Y-168290000D03*
X136830000Y-165750000D03*
X131790000Y-165750000D03*
X136830000Y-163210000D03*
X131790000Y-163210000D03*
X136830000Y-160670000D03*
X131790000Y-160670000D03*
X136830000Y-158130000D03*
X131790000Y-158130000D03*
X136830000Y-155590000D03*
X131790000Y-155590000D03*
X136830000Y-153050000D03*
X131790000Y-153050000D03*
X136830000Y-150510000D03*
X131790000Y-150510000D03*
X136830000Y-147970000D03*
X131790000Y-147970000D03*
X136830000Y-145430000D03*
X131790000Y-145430000D03*
D22*
X93105000Y-151657500D03*
X94605000Y-151657500D03*
X94780000Y-140799000D03*
X96280000Y-140799000D03*
D23*
X102630000Y-158325000D03*
X102630000Y-156825000D03*
D24*
X124855000Y-133560000D03*
X124855000Y-131560000D03*
D23*
X100090000Y-151455000D03*
X100090000Y-149955000D03*
D22*
X96280000Y-142450000D03*
X94780000Y-142450000D03*
D24*
X107075000Y-132290000D03*
X107075000Y-130290000D03*
D23*
X131205000Y-138640000D03*
X131205000Y-137140000D03*
D22*
X97780000Y-151657500D03*
X96280000Y-151657500D03*
D10*
G36*
X105365850Y-144582018D02*
X104552678Y-145395190D01*
X103704150Y-144546662D01*
X104517322Y-143733490D01*
X105365850Y-144582018D01*
X105365850Y-144582018D01*
G37*
G36*
X106426510Y-145642678D02*
X105613338Y-146455850D01*
X104764810Y-145607322D01*
X105577982Y-144794150D01*
X106426510Y-145642678D01*
X106426510Y-145642678D01*
G37*
G36*
X104762018Y-149029810D02*
X105575190Y-149842982D01*
X104726662Y-150691510D01*
X103913490Y-149878338D01*
X104762018Y-149029810D01*
X104762018Y-149029810D01*
G37*
G36*
X105822678Y-147969150D02*
X106635850Y-148782322D01*
X105787322Y-149630850D01*
X104974150Y-148817678D01*
X105822678Y-147969150D01*
X105822678Y-147969150D01*
G37*
D22*
X67070000Y-154110000D03*
X65570000Y-154110000D03*
D23*
X95391000Y-158999500D03*
X95391000Y-157499500D03*
D22*
X100495000Y-159976000D03*
X101995000Y-159976000D03*
X62625000Y-144990000D03*
X64125000Y-144990000D03*
X96915000Y-159976000D03*
X98415000Y-159976000D03*
D23*
X62625000Y-149435000D03*
X62625000Y-147935000D03*
X62625000Y-154515000D03*
X62625000Y-153015000D03*
D25*
X128030000Y-134195000D03*
D26*
X128030000Y-131695000D03*
D27*
X89930000Y-138640000D03*
D28*
X92470000Y-138640000D03*
X95010000Y-138640000D03*
X97550000Y-138640000D03*
X100090000Y-138640000D03*
X102630000Y-138640000D03*
D13*
X95360000Y-171025000D03*
D14*
X97360000Y-171025000D03*
X99360000Y-171025000D03*
X101360000Y-171025000D03*
D27*
X142635000Y-160230000D03*
D28*
X145175000Y-160230000D03*
X142635000Y-157690000D03*
X145175000Y-157690000D03*
X142635000Y-155150000D03*
X145175000Y-155150000D03*
X142635000Y-152610000D03*
X145175000Y-152610000D03*
X142635000Y-150070000D03*
X145175000Y-150070000D03*
X142635000Y-147530000D03*
X145175000Y-147530000D03*
X142635000Y-144990000D03*
X145175000Y-144990000D03*
D29*
X91451500Y-150609500D03*
X89551500Y-150609500D03*
X90501500Y-148609500D03*
X88340000Y-136195000D03*
X86440000Y-136195000D03*
X87390000Y-134195000D03*
D30*
X106059000Y-158428000D03*
X106059000Y-156928000D03*
X104281000Y-156888500D03*
X104281000Y-158388500D03*
D31*
X99455000Y-132290000D03*
X97955000Y-132290000D03*
X97955000Y-134195000D03*
X99455000Y-134195000D03*
D30*
X102630000Y-155380000D03*
X102630000Y-153880000D03*
X104535000Y-155380000D03*
X104535000Y-153880000D03*
D31*
X101590000Y-143085000D03*
X100090000Y-143085000D03*
D30*
X94375000Y-154566500D03*
X94375000Y-153066500D03*
X96153000Y-154578500D03*
X96153000Y-153078500D03*
X92533500Y-153078500D03*
X92533500Y-154578500D03*
X62625000Y-161095000D03*
X62625000Y-159595000D03*
X62625000Y-156305000D03*
X62625000Y-157805000D03*
D17*
X106440000Y-162770000D03*
X98820000Y-165310000D03*
X93740000Y-162770000D03*
D10*
G36*
X122975000Y-141135000D02*
X122975000Y-142495000D01*
X119575000Y-142495000D01*
X119575000Y-141135000D01*
X122975000Y-141135000D01*
X122975000Y-141135000D01*
G37*
G36*
X118645000Y-141135000D02*
X118645000Y-144535000D01*
X117285000Y-144535000D01*
X117285000Y-141135000D01*
X118645000Y-141135000D01*
X118645000Y-141135000D01*
G37*
G36*
X116355000Y-141135000D02*
X116355000Y-144535000D01*
X114995000Y-144535000D01*
X114995000Y-141135000D01*
X116355000Y-141135000D01*
X116355000Y-141135000D01*
G37*
G36*
X114065000Y-141135000D02*
X114065000Y-144535000D01*
X112705000Y-144535000D01*
X112705000Y-141135000D01*
X114065000Y-141135000D01*
X114065000Y-141135000D01*
G37*
G36*
X111775000Y-141135000D02*
X111775000Y-142495000D01*
X108375000Y-142495000D01*
X108375000Y-141135000D01*
X111775000Y-141135000D01*
X111775000Y-141135000D01*
G37*
G36*
X122975000Y-138845000D02*
X122975000Y-140205000D01*
X119575000Y-140205000D01*
X119575000Y-138845000D01*
X122975000Y-138845000D01*
X122975000Y-138845000D01*
G37*
G36*
X122975000Y-136555000D02*
X122975000Y-137915000D01*
X119575000Y-137915000D01*
X119575000Y-136555000D01*
X122975000Y-136555000D01*
X122975000Y-136555000D01*
G37*
G36*
X111775000Y-138845000D02*
X111775000Y-140205000D01*
X108375000Y-140205000D01*
X108375000Y-138845000D01*
X111775000Y-138845000D01*
X111775000Y-138845000D01*
G37*
G36*
X111775000Y-136555000D02*
X111775000Y-137915000D01*
X108375000Y-137915000D01*
X108375000Y-136555000D01*
X111775000Y-136555000D01*
X111775000Y-136555000D01*
G37*
G36*
X122975000Y-131975000D02*
X122975000Y-133335000D01*
X119575000Y-133335000D01*
X119575000Y-131975000D01*
X122975000Y-131975000D01*
X122975000Y-131975000D01*
G37*
G36*
X111775000Y-131975000D02*
X111775000Y-133335000D01*
X108375000Y-133335000D01*
X108375000Y-131975000D01*
X111775000Y-131975000D01*
X111775000Y-131975000D01*
G37*
G36*
X118645000Y-129935000D02*
X118645000Y-133335000D01*
X117285000Y-133335000D01*
X117285000Y-129935000D01*
X118645000Y-129935000D01*
X118645000Y-129935000D01*
G37*
G36*
X116355000Y-129935000D02*
X116355000Y-133335000D01*
X114995000Y-133335000D01*
X114995000Y-129935000D01*
X116355000Y-129935000D01*
X116355000Y-129935000D01*
G37*
G36*
X114065000Y-129935000D02*
X114065000Y-133335000D01*
X112705000Y-133335000D01*
X112705000Y-129935000D01*
X114065000Y-129935000D01*
X114065000Y-129935000D01*
G37*
D32*
X119365000Y-132290000D03*
X114465000Y-132290000D03*
D33*
X110885000Y-133935000D03*
D34*
X138985000Y-136735000D03*
X138985000Y-138005000D03*
X138985000Y-139275000D03*
X138985000Y-140545000D03*
X133585000Y-140545000D03*
X133585000Y-139275000D03*
X133585000Y-138005000D03*
X133585000Y-136735000D03*
X71040000Y-156420000D03*
X71040000Y-157690000D03*
X71040000Y-158960000D03*
X71040000Y-160230000D03*
X65640000Y-160230000D03*
X65640000Y-158960000D03*
X65640000Y-157690000D03*
X65640000Y-156420000D03*
D35*
X100590000Y-155571000D03*
D36*
X100590000Y-155971000D03*
X100590000Y-156371000D03*
X100590000Y-156771000D03*
X100590000Y-157171000D03*
D35*
X100590000Y-157571000D03*
D37*
X100090000Y-158071000D03*
D38*
X99690000Y-158071000D03*
X99290000Y-158071000D03*
X98890000Y-158071000D03*
X98490000Y-158071000D03*
D37*
X98090000Y-158071000D03*
D35*
X97590000Y-157571000D03*
D36*
X97590000Y-157171000D03*
X97590000Y-156771000D03*
X97590000Y-156371000D03*
X97590000Y-155971000D03*
D35*
X97590000Y-155571000D03*
D37*
X98090000Y-155071000D03*
D38*
X98490000Y-155071000D03*
X98890000Y-155071000D03*
X99290000Y-155071000D03*
X99690000Y-155071000D03*
D37*
X100090000Y-155071000D03*
D39*
X98655000Y-156971000D03*
X98655000Y-156171000D03*
X99525000Y-156971000D03*
X99525000Y-156171000D03*
D10*
G36*
X101635861Y-145624009D02*
X102767232Y-144492638D01*
X104040025Y-145765431D01*
X102908654Y-146896802D01*
X101635861Y-145624009D01*
X101635861Y-145624009D01*
G37*
G36*
X103332918Y-147321066D02*
X104464289Y-146189695D01*
X105737082Y-147462488D01*
X104605711Y-148593859D01*
X103332918Y-147321066D01*
X103332918Y-147321066D01*
G37*
G36*
X101989415Y-148664569D02*
X103120786Y-147533198D01*
X104393579Y-148805991D01*
X103262208Y-149937362D01*
X101989415Y-148664569D01*
X101989415Y-148664569D01*
G37*
G36*
X100292358Y-146967512D02*
X101423729Y-145836141D01*
X102696522Y-147108934D01*
X101565151Y-148240305D01*
X100292358Y-146967512D01*
X100292358Y-146967512D01*
G37*
D31*
X64125000Y-142450000D03*
X62625000Y-142450000D03*
M02*
