<?xml version="1.0" encoding="UTF-8" standalone="no"?><svg xmlns="http://www.w3.org/2000/svg" xmlns:xlink="http://www.w3.org/1999/xlink" contentScriptType="application/ecmascript" contentStyleType="text/css" height="605px" preserveAspectRatio="none" style="width:1450px;height:605px;" version="1.1" viewBox="0 0 1450 605" width="1450px" zoomAndPan="magnify"><defs><filter height="300%" id="f8psok3umh2hk" width="300%" x="-1" y="-1"><feGaussianBlur result="blurOut" stdDeviation="2.0"/><feColorMatrix in="blurOut" result="blurOut2" type="matrix" values="0 0 0 0 0 0 0 0 0 0 0 0 0 0 0 0 0 0 .4 0"/><feOffset dx="4.0" dy="4.0" in="blurOut2" result="blurOut3"/><feBlend in="SourceGraphic" in2="blurOut3" mode="normal"/></filter></defs><g><text fill="#000000" font-family="SF Mono" font-size="18" lengthAdjust="spacingAndGlyphs" textLength="462" x="493" y="27.1387">AppDelegate::application_didReceiveCommand</text><ellipse cx="711" cy="41.4805" fill="#000000" filter="url(#f8psok3umh2hk)" rx="10" ry="10" style="stroke: none; stroke-width: 1.0;"/><rect fill="#FEFECE" filter="url(#f8psok3umh2hk)" height="34.3203" rx="12.5" ry="12.5" style="stroke: #A80036; stroke-width: 1.5;" width="272" x="575" y="115.4805"/><text fill="#000000" font-family="SF Mono" font-size="12" lengthAdjust="spacingAndGlyphs" textLength="252" x="585" y="136.9063">switch (RDTPPacket_getReceiveData())</text><polygon fill="#FEFECE" filter="url(#f8psok3umh2hk)" points="55,169.8008,118,169.8008,130,181.8008,118,193.8008,55,193.8008,43,181.8008,55,169.8008" style="stroke: #A80036; stroke-width: 1.5;"/><text fill="#000000" font-family="SF Mono" font-size="11" lengthAdjust="spacingAndGlyphs" textLength="21" x="90.5" y="204.2744">yes</text><text fill="#000000" font-family="SF Mono" font-size="11" lengthAdjust="spacingAndGlyphs" textLength="63" x="55" y="185.7109">LeftMotor</text><rect fill="#FEFECE" filter="url(#f8psok3umh2hk)" height="34.3203" rx="12.5" ry="12.5" style="stroke: #A80036; stroke-width: 1.5;" width="153" x="10" y="225.7744"/><text fill="#000000" font-family="SF Mono" font-size="12" lengthAdjust="spacingAndGlyphs" textLength="133" x="20" y="247.2002">leftMotor.forward()</text><polygon fill="#FEFECE" filter="url(#f8psok3umh2hk)" points="228,169.8008,298,169.8008,310,181.8008,298,193.8008,228,193.8008,216,181.8008,228,169.8008" style="stroke: #A80036; stroke-width: 1.5;"/><text fill="#000000" font-family="SF Mono" font-size="11" lengthAdjust="spacingAndGlyphs" textLength="21" x="267" y="204.2744">yes</text><text fill="#000000" font-family="SF Mono" font-size="11" lengthAdjust="spacingAndGlyphs" textLength="70" x="228" y="185.7109">RightMotor</text><rect fill="#FEFECE" filter="url(#f8psok3umh2hk)" height="34.3203" rx="12.5" ry="12.5" style="stroke: #A80036; stroke-width: 1.5;" width="160" x="183" y="225.7744"/><text fill="#000000" font-family="SF Mono" font-size="12" lengthAdjust="spacingAndGlyphs" textLength="140" x="193" y="247.2002">rightMotor.forward()</text><polygon fill="#FEFECE" filter="url(#f8psok3umh2hk)" points="376,169.8008,481,169.8008,493,181.8008,481,193.8008,376,193.8008,364,181.8008,376,169.8008" style="stroke: #A80036; stroke-width: 1.5;"/><text fill="#000000" font-family="SF Mono" font-size="11" lengthAdjust="spacingAndGlyphs" textLength="21" x="432.5" y="204.2744">yes</text><text fill="#000000" font-family="SF Mono" font-size="11" lengthAdjust="spacingAndGlyphs" textLength="105" x="376" y="185.7109">Servo0 ~ Servo9</text><rect fill="#FEFECE" filter="url(#f8psok3umh2hk)" height="34.3203" rx="12.5" ry="12.5" style="stroke: #A80036; stroke-width: 1.5;" width="111" x="373" y="274.3379"/><text fill="#000000" font-family="SF Mono" font-size="12" lengthAdjust="spacingAndGlyphs" textLength="91" x="383" y="295.7637">servo = angle</text><polygon fill="#FEFECE" filter="url(#f8psok3umh2hk)" points="390,225.7744,467,225.7744,479,237.7744,467,249.7744,390,249.7744,378,237.7744,390,225.7744" style="stroke: #A80036; stroke-width: 1.5;"/><text fill="#000000" font-family="SF Mono" font-size="11" lengthAdjust="spacingAndGlyphs" textLength="28" x="432.5" y="260.248">true</text><text fill="#000000" font-family="SF Mono" font-size="11" lengthAdjust="spacingAndGlyphs" textLength="77" x="390" y="241.6846">servoStatus</text><polygon fill="#FEFECE" filter="url(#f8psok3umh2hk)" points="428.5,333.2217,440.5,345.2217,428.5,357.2217,416.5,345.2217,428.5,333.2217" style="stroke: #A80036; stroke-width: 1.5;"/><polygon fill="#FEFECE" filter="url(#f8psok3umh2hk)" points="560.5,169.8008,637.5,169.8008,649.5,181.8008,637.5,193.8008,560.5,193.8008,548.5,181.8008,560.5,169.8008" style="stroke: #A80036; stroke-width: 1.5;"/><text fill="#000000" font-family="SF Mono" font-size="11" lengthAdjust="spacingAndGlyphs" textLength="21" x="603" y="204.2744">yes</text><text fill="#000000" font-family="SF Mono" font-size="11" lengthAdjust="spacingAndGlyphs" textLength="77" x="560.5" y="185.7109">EnableServo</text><rect fill="#FEFECE" filter="url(#f8psok3umh2hk)" height="34.3203" rx="12.5" ry="12.5" style="stroke: #A80036; stroke-width: 1.5;" width="146" x="526" y="225.7744"/><text fill="#000000" font-family="SF Mono" font-size="12" lengthAdjust="spacingAndGlyphs" textLength="126" x="536" y="247.2002">servoStatus = true</text><polygon fill="#FEFECE" filter="url(#f8psok3umh2hk)" points="726.5,169.8008,810.5,169.8008,822.5,181.8008,810.5,193.8008,726.5,193.8008,714.5,181.8008,726.5,169.8008" style="stroke: #A80036; stroke-width: 1.5;"/><text fill="#000000" font-family="SF Mono" font-size="11" lengthAdjust="spacingAndGlyphs" textLength="21" x="772.5" y="204.2744">yes</text><text fill="#000000" font-family="SF Mono" font-size="11" lengthAdjust="spacingAndGlyphs" textLength="84" x="726.5" y="185.7109">DisableServo</text><rect fill="#FEFECE" filter="url(#f8psok3umh2hk)" height="34.3203" rx="12.5" ry="12.5" style="stroke: #A80036; stroke-width: 1.5;" width="153" x="692" y="225.7744"/><text fill="#000000" font-family="SF Mono" font-size="12" lengthAdjust="spacingAndGlyphs" textLength="133" x="702" y="247.2002">servoStatus = false</text><rect fill="#FEFECE" filter="url(#f8psok3umh2hk)" height="34.3203" rx="12.5" ry="12.5" style="stroke: #A80036; stroke-width: 1.5;" width="111" x="713" y="295.0947"/><text fill="#000000" font-family="SF Mono" font-size="12" lengthAdjust="spacingAndGlyphs" textLength="91" x="723" y="316.5205">servo.relux()</text><polygon fill="#FEFECE" filter="url(#f8psok3umh2hk)" points="997,169.8008,1109,169.8008,1121,181.8008,1109,193.8008,997,193.8008,985,181.8008,997,169.8008" style="stroke: #A80036; stroke-width: 1.5;"/><text fill="#000000" font-family="SF Mono" font-size="11" lengthAdjust="spacingAndGlyphs" textLength="21" x="1057" y="204.2744">yes</text><text fill="#000000" font-family="SF Mono" font-size="11" lengthAdjust="spacingAndGlyphs" textLength="112" x="997" y="185.7109">CommandAvailable</text><rect fill="#FEFECE" filter="url(#f8psok3umh2hk)" height="34.3203" rx="12.5" ry="12.5" style="stroke: #A80036; stroke-width: 1.5;" width="293" x="906.5" y="225.7744"/><text fill="#000000" font-family="SF Mono" font-size="12" lengthAdjust="spacingAndGlyphs" textLength="273" x="916.5" y="247.2002">switch (RDTPPacket_getReceiveCommand())</text><polygon fill="#FEFECE" filter="url(#f8psok3umh2hk)" points="927.5,320.0947,997.5,320.0947,1009.5,332.0947,997.5,344.0947,927.5,344.0947,915.5,332.0947,927.5,320.0947" style="stroke: #A80036; stroke-width: 1.5;"/><text fill="#000000" font-family="SF Mono" font-size="11" lengthAdjust="spacingAndGlyphs" textLength="21" x="966.5" y="354.5684">yes</text><text fill="#000000" font-family="SF Mono" font-size="11" lengthAdjust="spacingAndGlyphs" textLength="70" x="927.5" y="336.0049">StartVideo</text><rect fill="#FEFECE" filter="url(#f8psok3umh2hk)" height="34.3203" rx="12.5" ry="12.5" style="stroke: #A80036; stroke-width: 1.5;" width="195" x="865" y="377.2217"/><text fill="#000000" font-family="SF Mono" font-size="12" lengthAdjust="spacingAndGlyphs" textLength="175" x="875" y="398.6475">videoDestination = source</text><rect fill="#FEFECE" filter="url(#f8psok3umh2hk)" height="34.3203" rx="12.5" ry="12.5" style="stroke: #A80036; stroke-width: 1.5;" width="118" x="903.5" y="431.542"/><text fill="#000000" font-family="SF Mono" font-size="12" lengthAdjust="spacingAndGlyphs" textLength="98" x="913.5" y="452.9678">video-&gt;start()</text><polygon fill="#FEFECE" filter="url(#f8psok3umh2hk)" points="1104,320.0947,1167,320.0947,1179,332.0947,1167,344.0947,1104,344.0947,1092,332.0947,1104,320.0947" style="stroke: #A80036; stroke-width: 1.5;"/><text fill="#000000" font-family="SF Mono" font-size="11" lengthAdjust="spacingAndGlyphs" textLength="21" x="1139.5" y="354.5684">yes</text><text fill="#000000" font-family="SF Mono" font-size="11" lengthAdjust="spacingAndGlyphs" textLength="63" x="1104" y="336.0049">StopVideo</text><rect fill="#FEFECE" filter="url(#f8psok3umh2hk)" height="34.3203" rx="12.5" ry="12.5" style="stroke: #A80036; stroke-width: 1.5;" width="111" x="1080" y="377.2217"/><text fill="#000000" font-family="SF Mono" font-size="12" lengthAdjust="spacingAndGlyphs" textLength="91" x="1090" y="398.6475">video-&gt;stop()</text><ellipse cx="1053" cy="515.8623" fill="none" filter="url(#f8psok3umh2hk)" rx="10" ry="10" style="stroke: #000000; stroke-width: 1.0;"/><ellipse cx="1053.5" cy="516.3623" fill="#000000" filter="url(#f8psok3umh2hk)" rx="6" ry="6" style="stroke: none; stroke-width: 1.0;"/><polygon fill="#FEFECE" filter="url(#f8psok3umh2hk)" points="1273,169.8008,1350,169.8008,1362,181.8008,1350,193.8008,1273,193.8008,1261,181.8008,1273,169.8008" style="stroke: #A80036; stroke-width: 1.5;"/><text fill="#000000" font-family="SF Mono" font-size="11" lengthAdjust="spacingAndGlyphs" textLength="21" x="1315.5" y="204.2744">yes</text><text fill="#000000" font-family="SF Mono" font-size="11" lengthAdjust="spacingAndGlyphs" textLength="77" x="1273" y="185.7109">EndOfPacket</text><ellipse cx="1311.5" cy="235.7744" fill="none" filter="url(#f8psok3umh2hk)" rx="10" ry="10" style="stroke: #000000; stroke-width: 1.0;"/><ellipse cx="1312" cy="236.2744" fill="#000000" filter="url(#f8psok3umh2hk)" rx="6" ry="6" style="stroke: none; stroke-width: 1.0;"/><polygon fill="#FEFECE" filter="url(#f8psok3umh2hk)" points="711,71.4805,723,83.4805,711,95.4805,699,83.4805,711,71.4805" style="stroke: #A80036; stroke-width: 1.5;"/><line style="stroke: #A80036; stroke-width: 1.5;" x1="428.5" x2="428.5" y1="249.7744" y2="274.3379"/><polygon fill="#A80036" points="424.5,264.3379,428.5,274.3379,432.5,264.3379,428.5,268.3379" style="stroke: #A80036; stroke-width: 1.0;"/><line style="stroke: #A80036; stroke-width: 1.5;" x1="479" x2="494" y1="237.7744" y2="237.7744"/><polygon fill="#A80036" points="490,281.498,494,291.498,498,281.498,494,285.498" style="stroke: #A80036; stroke-width: 1.5;"/><line style="stroke: #A80036; stroke-width: 1.5;" x1="494" x2="494" y1="237.7744" y2="345.2217"/><line style="stroke: #A80036; stroke-width: 1.5;" x1="494" x2="440.5" y1="345.2217" y2="345.2217"/><polygon fill="#A80036" points="450.5,341.2217,440.5,345.2217,450.5,349.2217,446.5,345.2217" style="stroke: #A80036; stroke-width: 1.0;"/><line style="stroke: #A80036; stroke-width: 1.5;" x1="428.5" x2="428.5" y1="308.6582" y2="333.2217"/><polygon fill="#A80036" points="424.5,323.2217,428.5,333.2217,432.5,323.2217,428.5,327.2217" style="stroke: #A80036; stroke-width: 1.0;"/><line style="stroke: #A80036; stroke-width: 1.5;" x1="768.5" x2="768.5" y1="260.0947" y2="295.0947"/><polygon fill="#A80036" points="764.5,285.0947,768.5,295.0947,772.5,285.0947,768.5,289.0947" style="stroke: #A80036; stroke-width: 1.0;"/><line style="stroke: #A80036; stroke-width: 1.5;" x1="962.5" x2="962.5" y1="411.542" y2="431.542"/><polygon fill="#A80036" points="958.5,421.542,962.5,431.542,966.5,421.542,962.5,425.542" style="stroke: #A80036; stroke-width: 1.0;"/><line style="stroke: #A80036; stroke-width: 1.5;" x1="962.5" x2="962.5" y1="344.0947" y2="377.2217"/><polygon fill="#A80036" points="958.5,367.2217,962.5,377.2217,966.5,367.2217,962.5,371.2217" style="stroke: #A80036; stroke-width: 1.0;"/><line style="stroke: #A80036; stroke-width: 1.5;" x1="962.5" x2="962.5" y1="465.8623" y2="485.8623"/><polygon fill="#A80036" points="958.5,475.8623,962.5,485.8623,966.5,475.8623,962.5,479.8623" style="stroke: #A80036; stroke-width: 1.0;"/><line style="stroke: #A80036; stroke-width: 1.5;" x1="1135.5" x2="1135.5" y1="344.0947" y2="377.2217"/><polygon fill="#A80036" points="1131.5,367.2217,1135.5,377.2217,1139.5,367.2217,1135.5,371.2217" style="stroke: #A80036; stroke-width: 1.0;"/><line style="stroke: #A80036; stroke-width: 1.5;" x1="1135.5" x2="1135.5" y1="411.542" y2="485.8623"/><polygon fill="#A80036" points="1131.5,475.8623,1135.5,485.8623,1139.5,475.8623,1135.5,479.8623" style="stroke: #A80036; stroke-width: 1.0;"/><line style="stroke: #A80036; stroke-width: 1.5;" x1="1009.5" x2="1092" y1="332.0947" y2="332.0947"/><polygon fill="#A80036" points="1082,328.0947,1092,332.0947,1082,336.0947,1086,332.0947" style="stroke: #A80036; stroke-width: 1.0;"/><line style="stroke: #A80036; stroke-width: 1.5;" x1="1053" x2="1053" y1="260.0947" y2="295.0947"/><line style="stroke: #A80036; stroke-width: 1.5;" x1="1053" x2="962.5" y1="295.0947" y2="295.0947"/><line style="stroke: #A80036; stroke-width: 1.5;" x1="962.5" x2="962.5" y1="295.0947" y2="320.0947"/><polygon fill="#A80036" points="958.5,310.0947,962.5,320.0947,966.5,310.0947,962.5,314.0947" style="stroke: #A80036; stroke-width: 1.0;"/><line style="stroke: #A80036; stroke-width: 1.5;" x1="1179" x2="1226" y1="332.0947" y2="332.0947"/><line style="stroke: #A80036; stroke-width: 1.5;" x1="1226" x2="1226" y1="332.0947" y2="485.8623"/><polygon fill="#A80036" points="1222,475.8623,1226,485.8623,1230,475.8623,1226,479.8623" style="stroke: #A80036; stroke-width: 1.0;"/><line style="stroke: #A80036; stroke-width: 1.5;" x1="962.5" x2="1226" y1="485.8623" y2="485.8623"/><line style="stroke: #A80036; stroke-width: 1.5;" x1="1053" x2="1053" y1="485.8623" y2="505.8623"/><polygon fill="#A80036" points="1049,495.8623,1053,505.8623,1057,495.8623,1053,499.8623" style="stroke: #A80036; stroke-width: 1.0;"/><line style="stroke: #A80036; stroke-width: 1.5;" x1="86.5" x2="86.5" y1="193.8008" y2="225.7744"/><polygon fill="#A80036" points="82.5,215.7744,86.5,225.7744,90.5,215.7744,86.5,219.7744" style="stroke: #A80036; stroke-width: 1.0;"/><line style="stroke: #A80036; stroke-width: 1.5;" x1="86.5" x2="86.5" y1="260.0947" y2="545.8623"/><polygon fill="#A80036" points="82.5,535.8623,86.5,545.8623,90.5,535.8623,86.5,539.8623" style="stroke: #A80036; stroke-width: 1.0;"/><line style="stroke: #A80036; stroke-width: 1.5;" x1="263" x2="263" y1="193.8008" y2="225.7744"/><polygon fill="#A80036" points="259,215.7744,263,225.7744,267,215.7744,263,219.7744" style="stroke: #A80036; stroke-width: 1.0;"/><line style="stroke: #A80036; stroke-width: 1.5;" x1="263" x2="263" y1="260.0947" y2="545.8623"/><polygon fill="#A80036" points="259,535.8623,263,545.8623,267,535.8623,263,539.8623" style="stroke: #A80036; stroke-width: 1.0;"/><line style="stroke: #A80036; stroke-width: 1.5;" x1="428.5" x2="428.5" y1="193.8008" y2="225.7744"/><polygon fill="#A80036" points="424.5,215.7744,428.5,225.7744,432.5,215.7744,428.5,219.7744" style="stroke: #A80036; stroke-width: 1.0;"/><line style="stroke: #A80036; stroke-width: 1.5;" x1="428.5" x2="428.5" y1="357.2217" y2="545.8623"/><polygon fill="#A80036" points="424.5,535.8623,428.5,545.8623,432.5,535.8623,428.5,539.8623" style="stroke: #A80036; stroke-width: 1.0;"/><line style="stroke: #A80036; stroke-width: 1.5;" x1="599" x2="599" y1="193.8008" y2="225.7744"/><polygon fill="#A80036" points="595,215.7744,599,225.7744,603,215.7744,599,219.7744" style="stroke: #A80036; stroke-width: 1.0;"/><line style="stroke: #A80036; stroke-width: 1.5;" x1="599" x2="599" y1="260.0947" y2="545.8623"/><polygon fill="#A80036" points="595,535.8623,599,545.8623,603,535.8623,599,539.8623" style="stroke: #A80036; stroke-width: 1.0;"/><line style="stroke: #A80036; stroke-width: 1.5;" x1="768.5" x2="768.5" y1="193.8008" y2="225.7744"/><polygon fill="#A80036" points="764.5,215.7744,768.5,225.7744,772.5,215.7744,768.5,219.7744" style="stroke: #A80036; stroke-width: 1.0;"/><line style="stroke: #A80036; stroke-width: 1.5;" x1="768.5" x2="768.5" y1="329.415" y2="545.8623"/><polygon fill="#A80036" points="764.5,535.8623,768.5,545.8623,772.5,535.8623,768.5,539.8623" style="stroke: #A80036; stroke-width: 1.0;"/><line style="stroke: #A80036; stroke-width: 1.5;" x1="1053" x2="1053" y1="193.8008" y2="225.7744"/><polygon fill="#A80036" points="1049,215.7744,1053,225.7744,1057,215.7744,1053,219.7744" style="stroke: #A80036; stroke-width: 1.0;"/><line style="stroke: #A80036; stroke-width: 1.5;" x1="1311.5" x2="1311.5" y1="193.8008" y2="225.7744"/><polygon fill="#A80036" points="1307.5,215.7744,1311.5,225.7744,1315.5,215.7744,1311.5,219.7744" style="stroke: #A80036; stroke-width: 1.0;"/><line style="stroke: #A80036; stroke-width: 1.5;" x1="130" x2="216" y1="181.8008" y2="181.8008"/><polygon fill="#A80036" points="206,177.8008,216,181.8008,206,185.8008,210,181.8008" style="stroke: #A80036; stroke-width: 1.0;"/><line style="stroke: #A80036; stroke-width: 1.5;" x1="310" x2="364" y1="181.8008" y2="181.8008"/><polygon fill="#A80036" points="354,177.8008,364,181.8008,354,185.8008,358,181.8008" style="stroke: #A80036; stroke-width: 1.0;"/><line style="stroke: #A80036; stroke-width: 1.5;" x1="493" x2="548.5" y1="181.8008" y2="181.8008"/><polygon fill="#A80036" points="538.5,177.8008,548.5,181.8008,538.5,185.8008,542.5,181.8008" style="stroke: #A80036; stroke-width: 1.0;"/><line style="stroke: #A80036; stroke-width: 1.5;" x1="649.5" x2="714.5" y1="181.8008" y2="181.8008"/><polygon fill="#A80036" points="704.5,177.8008,714.5,181.8008,704.5,185.8008,708.5,181.8008" style="stroke: #A80036; stroke-width: 1.0;"/><line style="stroke: #A80036; stroke-width: 1.5;" x1="822.5" x2="985" y1="181.8008" y2="181.8008"/><polygon fill="#A80036" points="975,177.8008,985,181.8008,975,185.8008,979,181.8008" style="stroke: #A80036; stroke-width: 1.0;"/><line style="stroke: #A80036; stroke-width: 1.5;" x1="1121" x2="1261" y1="181.8008" y2="181.8008"/><polygon fill="#A80036" points="1251,177.8008,1261,181.8008,1251,185.8008,1255,181.8008" style="stroke: #A80036; stroke-width: 1.0;"/><line style="stroke: #A80036; stroke-width: 1.5;" x1="711" x2="711" y1="149.8008" y2="154.8008"/><line style="stroke: #A80036; stroke-width: 1.5;" x1="711" x2="86.5" y1="154.8008" y2="154.8008"/><line style="stroke: #A80036; stroke-width: 1.5;" x1="86.5" x2="86.5" y1="154.8008" y2="169.8008"/><polygon fill="#A80036" points="82.5,159.8008,86.5,169.8008,90.5,159.8008,86.5,163.8008" style="stroke: #A80036; stroke-width: 1.0;"/><line style="stroke: #A80036; stroke-width: 1.5;" x1="1362" x2="1397" y1="181.8008" y2="181.8008"/><line style="stroke: #A80036; stroke-width: 1.5;" x1="1397" x2="1397" y1="181.8008" y2="545.8623"/><polygon fill="#A80036" points="1393,535.8623,1397,545.8623,1401,535.8623,1397,539.8623" style="stroke: #A80036; stroke-width: 1.0;"/><line style="stroke: #A80036; stroke-width: 1.5;" x1="86.5" x2="1397" y1="545.8623" y2="545.8623"/><line style="stroke: #A80036; stroke-width: 1.5;" x1="711" x2="711" y1="95.4805" y2="115.4805"/><polygon fill="#A80036" points="707,105.4805,711,115.4805,715,105.4805,711,109.4805" style="stroke: #A80036; stroke-width: 1.0;"/><line style="stroke: #A80036; stroke-width: 1.5;" x1="711" x2="711" y1="545.8623" y2="593.8623"/><line style="stroke: #A80036; stroke-width: 1.5;" x1="711" x2="1424" y1="593.8623" y2="593.8623"/><polygon fill="#A80036" points="1420,384.0947,1424,374.0947,1428,384.0947,1424,380.0947" style="stroke: #A80036; stroke-width: 1.5;"/><line style="stroke: #A80036; stroke-width: 1.5;" x1="1424" x2="1424" y1="83.4805" y2="593.8623"/><line style="stroke: #A80036; stroke-width: 1.5;" x1="1424" x2="723" y1="83.4805" y2="83.4805"/><polygon fill="#A80036" points="733,79.4805,723,83.4805,733,87.4805,729,83.4805" style="stroke: #A80036; stroke-width: 1.0;"/><line style="stroke: #A80036; stroke-width: 1.5;" x1="711" x2="711" y1="51.4805" y2="71.4805"/><polygon fill="#A80036" points="707,61.4805,711,71.4805,715,61.4805,711,65.4805" style="stroke: #A80036; stroke-width: 1.0;"/><!--
@startuml
skinparam defaultFontName SF Mono

title AppDelegate::application_didReceiveCommand
start
repeat
    :switch (RDTPPacket_getReceiveData());
    if (LeftMotor) then (yes)
        :leftMotor.forward();
    elseif (RightMotor) then (yes)
        :rightMotor.forward();
    elseif (Servo0 ~ Servo9) then (yes)
        if (servoStatus) then (true)
            :servo = angle;
        endif
    elseif (EnableServo) then (yes)
        :servoStatus = true;
    elseif (DisableServo) then (yes)
        :servoStatus = false;
        :servo.relux();
    elseif (CommandAvailable) then (yes)
        :switch (RDTPPacket_getReceiveCommand());
        if (StartVideo) then (yes)
            :videoDestination = source;
            :video->start();
        elseif (StopVideo) then (yes)
            :video->stop();
        endif
        stop
    elseif (EndOfPacket) then (yes)
        stop
    endif

@enduml

PlantUML version 1.2017.18(Sat Oct 07 01:56:32 JST 2017)
(GPL source distribution)
Java Runtime: Java(TM) SE Runtime Environment
JVM: Java HotSpot(TM) 64-Bit Server VM
Java Version: 1.8.0_66-b17
Operating System: Mac OS X
OS Version: 10.13
Default Encoding: UTF-8
Language: ja
Country: JP
--></g></svg>