<?xml version="1.0" encoding="UTF-8" standalone="no"?><svg xmlns="http://www.w3.org/2000/svg" xmlns:xlink="http://www.w3.org/1999/xlink" contentScriptType="application/ecmascript" contentStyleType="text/css" height="965px" preserveAspectRatio="none" style="width:1082px;height:965px;" version="1.1" viewBox="0 0 1082 965" width="1082px" zoomAndPan="magnify"><defs><filter height="300%" id="fvulawuowyhyy" width="300%" x="-1" y="-1"><feGaussianBlur result="blurOut" stdDeviation="2.0"/><feColorMatrix in="blurOut" result="blurOut2" type="matrix" values="0 0 0 0 0 0 0 0 0 0 0 0 0 0 0 0 0 0 .4 0"/><feOffset dx="4.0" dy="4.0" in="blurOut2" result="blurOut3"/><feBlend in="SourceGraphic" in2="blurOut3" mode="normal"/></filter></defs><g><!--class GamepadController--><rect fill="#FEFECE" filter="url(#fvulawuowyhyy)" height="100.5078" id="GamepadController" style="stroke: #A80036; stroke-width: 1.5;" width="362" x="611" y="359"/><ellipse cx="728.25" cy="375" fill="#ADD1B2" rx="11" ry="11" style="stroke: #A80036; stroke-width: 1.0;"/><path d="M731.2231,380.6431 Q730.6421,380.9419 730.0029,381.0913 Q729.3638,381.2407 728.6582,381.2407 Q726.1514,381.2407 724.8315,379.5889 Q723.5117,377.937 723.5117,374.8159 Q723.5117,371.6865 724.8315,370.0347 Q726.1514,368.3828 728.6582,368.3828 Q729.3638,368.3828 730.0112,368.5322 Q730.6587,368.6816 731.2231,368.9805 L731.2231,371.7031 Q730.5923,371.1221 729.9988,370.8523 Q729.4053,370.5825 728.7744,370.5825 Q727.4297,370.5825 726.7449,371.6492 Q726.0601,372.7158 726.0601,374.8159 Q726.0601,376.9077 726.7449,377.9744 Q727.4297,379.041 728.7744,379.041 Q729.4053,379.041 729.9988,378.7712 Q730.5923,378.5015 731.2231,377.9204 Z "/><text fill="#000000" font-family="SF Mono" font-size="12" lengthAdjust="spacingAndGlyphs" textLength="119" x="748.75" y="379.2656">GamepadController</text><line style="stroke: #A80036; stroke-width: 1.5;" x1="612" x2="972" y1="391" y2="391"/><ellipse cx="622" cy="403.0635" fill="none" rx="3" ry="3" style="stroke: #038048; stroke-width: 1.0;"/><text fill="#000000" font-family="SF Mono" font-size="11" lengthAdjust="spacingAndGlyphs" textLength="133" x="631" y="405.4736">application: RDTP *</text><ellipse cx="622" cy="416.1904" fill="none" rx="3" ry="3" style="stroke: #038048; stroke-width: 1.0;"/><text fill="#000000" font-family="SF Mono" font-size="11" lengthAdjust="spacingAndGlyphs" textLength="203" x="631" y="418.6006">delegate: id&lt;GamepadDelegate&gt;</text><ellipse cx="622" cy="429.3174" fill="none" rx="3" ry="3" style="stroke: #038048; stroke-width: 1.0;"/><text fill="#000000" font-family="SF Mono" font-size="11" lengthAdjust="spacingAndGlyphs" text-decoration="underline" textLength="168" x="631" y="431.7275">controller: instancetype</text><line style="stroke: #000000; stroke-width: 1.0;" x1="631" x2="799" y1="433.7275" y2="433.7275"/><line style="stroke: #A80036; stroke-width: 1.5;" x1="612" x2="972" y1="438.3809" y2="438.3809"/><ellipse cx="622" cy="450.4443" fill="#84BE84" rx="3" ry="3" style="stroke: #038048; stroke-width: 1.0;"/><text fill="#000000" font-family="SF Mono" font-size="11" lengthAdjust="spacingAndGlyphs" textLength="336" x="631" y="452.8545">initWithJoyStick:(DDHIDJoystick *): instancetype</text><ellipse cx="796" cy="121.5" fill="#FEFECE" filter="url(#fvulawuowyhyy)" rx="5" ry="5" style="stroke: #A80036; stroke-width: 1.5;"/><text fill="#000000" font-family="SF Mono" font-size="12" lengthAdjust="spacingAndGlyphs" textLength="147" x="722.5" y="137.9258">DDHidJoystickDelegate</text><!--class GamepadDelegate--><rect fill="#FEFECE" filter="url(#fvulawuowyhyy)" height="61.127" id="GamepadDelegate" style="stroke: #A80036; stroke-width: 1.5;" width="565" x="506.5" y="526.5"/><ellipse cx="732.25" cy="542.5" fill="#B4A7E5" rx="11" ry="11" style="stroke: #A80036; stroke-width: 1.0;"/><path d="M728.1777,538.2651 L728.1777,536.1069 L735.5571,536.1069 L735.5571,538.2651 L733.0918,538.2651 L733.0918,546.3418 L735.5571,546.3418 L735.5571,548.5 L728.1777,548.5 L728.1777,546.3418 L730.6431,546.3418 L730.6431,538.2651 Z "/><text fill="#000000" font-family="SF Mono" font-size="12" font-style="italic" lengthAdjust="spacingAndGlyphs" textLength="105" x="752.75" y="546.7656">GamepadDelegate</text><line style="stroke: #A80036; stroke-width: 1.5;" x1="507.5" x2="1070.5" y1="558.5" y2="558.5"/><line style="stroke: #A80036; stroke-width: 1.5;" x1="507.5" x2="1070.5" y1="566.5" y2="566.5"/><ellipse cx="517.5" cy="578.5635" fill="#84BE84" rx="3" ry="3" style="stroke: #038048; stroke-width: 1.0;"/><text fill="#000000" font-family="SF Mono" font-size="11" lengthAdjust="spacingAndGlyphs" textLength="539" x="526.5" y="580.9736">gamepad:(GamepadController *)updateValue:(int)forStickAxis:(GamepadStickAxis)</text><!--class WirelessXBoxController--><rect fill="#FEFECE" filter="url(#fvulawuowyhyy)" height="48" id="WirelessXBoxController" style="stroke: #A80036; stroke-width: 1.5;" width="186" x="557" y="238"/><ellipse cx="572" cy="254" fill="#ADD1B2" rx="11" ry="11" style="stroke: #A80036; stroke-width: 1.0;"/><path d="M574.9731,259.6431 Q574.3921,259.9419 573.7529,260.0913 Q573.1138,260.2407 572.4082,260.2407 Q569.9014,260.2407 568.5815,258.5889 Q567.2617,256.937 567.2617,253.8159 Q567.2617,250.6865 568.5815,249.0347 Q569.9014,247.3828 572.4082,247.3828 Q573.1138,247.3828 573.7612,247.5322 Q574.4087,247.6816 574.9731,247.9805 L574.9731,250.7031 Q574.3423,250.1221 573.7488,249.8523 Q573.1553,249.5825 572.5244,249.5825 Q571.1797,249.5825 570.4949,250.6492 Q569.8101,251.7158 569.8101,253.8159 Q569.8101,255.9077 570.4949,256.9744 Q571.1797,258.041 572.5244,258.041 Q573.1553,258.041 573.7488,257.7712 Q574.3423,257.5015 574.9731,256.9204 Z "/><text fill="#000000" font-family="SF Mono" font-size="12" lengthAdjust="spacingAndGlyphs" textLength="154" x="586" y="258.2656">WirelessXBoxController</text><line style="stroke: #A80036; stroke-width: 1.5;" x1="558" x2="742" y1="270" y2="270"/><line style="stroke: #A80036; stroke-width: 1.5;" x1="558" x2="742" y1="278" y2="278"/><!--class WiredXBoxController--><rect fill="#FEFECE" filter="url(#fvulawuowyhyy)" height="74.2539" id="WiredXBoxController" style="stroke: #A80036; stroke-width: 1.5;" width="187" x="849.5" y="225"/><ellipse cx="874.4" cy="241" fill="#ADD1B2" rx="11" ry="11" style="stroke: #A80036; stroke-width: 1.0;"/><path d="M877.3731,246.6431 Q876.7921,246.9419 876.1529,247.0913 Q875.5138,247.2407 874.8082,247.2407 Q872.3014,247.2407 870.9815,245.5889 Q869.6617,243.937 869.6617,240.8159 Q869.6617,237.6865 870.9815,236.0347 Q872.3014,234.3828 874.8082,234.3828 Q875.5138,234.3828 876.1612,234.5322 Q876.8087,234.6816 877.3731,234.9805 L877.3731,237.7031 Q876.7423,237.1221 876.1488,236.8523 Q875.5553,236.5825 874.9244,236.5825 Q873.5797,236.5825 872.8949,237.6492 Q872.2101,238.7158 872.2101,240.8159 Q872.2101,242.9077 872.8949,243.9744 Q873.5797,245.041 874.9244,245.041 Q875.5553,245.041 876.1488,244.7712 Q876.7423,244.5015 877.3731,243.9204 Z "/><text fill="#000000" font-family="SF Mono" font-size="12" lengthAdjust="spacingAndGlyphs" textLength="133" x="890.6" y="245.2656">WiredXBoxController</text><line style="stroke: #A80036; stroke-width: 1.5;" x1="850.5" x2="1035.5" y1="257" y2="257"/><ellipse cx="860.5" cy="269.0635" fill="none" rx="3" ry="3" style="stroke: #038048; stroke-width: 1.0;"/><text fill="#000000" font-family="SF Mono" font-size="11" lengthAdjust="spacingAndGlyphs" textLength="161" x="869.5" y="271.4736">smallMotorPower: double</text><ellipse cx="860.5" cy="282.1904" fill="none" rx="3" ry="3" style="stroke: #038048; stroke-width: 1.0;"/><text fill="#000000" font-family="SF Mono" font-size="11" lengthAdjust="spacingAndGlyphs" textLength="161" x="869.5" y="284.6006">largeMotorPower: double</text><line style="stroke: #A80036; stroke-width: 1.5;" x1="850.5" x2="1035.5" y1="291.2539" y2="291.2539"/><!--class Transport--><rect fill="#FEFECE" filter="url(#fvulawuowyhyy)" height="87.3809" id="Transport" style="stroke: #A80036; stroke-width: 1.5;" width="299" x="114.5" y="78"/><ellipse cx="228.25" cy="94" fill="#ADD1B2" rx="11" ry="11" style="stroke: #A80036; stroke-width: 1.0;"/><path d="M231.2231,99.6431 Q230.6421,99.9419 230.0029,100.0913 Q229.3638,100.2407 228.6582,100.2407 Q226.1514,100.2407 224.8315,98.5889 Q223.5117,96.937 223.5117,93.8159 Q223.5117,90.6865 224.8315,89.0347 Q226.1514,87.3828 228.6582,87.3828 Q229.3638,87.3828 230.0112,87.5322 Q230.6587,87.6816 231.2231,87.9805 L231.2231,90.7031 Q230.5923,90.1221 229.9988,89.8523 Q229.4053,89.5825 228.7744,89.5825 Q227.4297,89.5825 226.7449,90.6492 Q226.0601,91.7158 226.0601,93.8159 Q226.0601,95.9077 226.7449,96.9744 Q227.4297,98.041 228.7744,98.041 Q229.4053,98.041 229.9988,97.7712 Q230.5923,97.5015 231.2231,96.9204 Z "/><text fill="#000000" font-family="SF Mono" font-size="12" lengthAdjust="spacingAndGlyphs" textLength="63" x="248.75" y="98.2656">Transport</text><line style="stroke: #A80036; stroke-width: 1.5;" x1="115.5" x2="412.5" y1="110" y2="110"/><ellipse cx="125.5" cy="122.0635" fill="none" rx="3" ry="3" style="stroke: #038048; stroke-width: 1.0;"/><text fill="#000000" font-family="SF Mono" font-size="11" lengthAdjust="spacingAndGlyphs" textLength="217" x="134.5" y="124.4736">delegate: id&lt;TransportDelegate&gt;</text><line style="stroke: #A80036; stroke-width: 1.5;" x1="115.5" x2="412.5" y1="131.127" y2="131.127"/><ellipse cx="125.5" cy="143.1904" fill="#84BE84" rx="3" ry="3" style="stroke: #038048; stroke-width: 1.0;"/><text fill="#000000" font-family="SF Mono" font-size="11" lengthAdjust="spacingAndGlyphs" textLength="161" x="134.5" y="145.6006">openWithPort:(uint16_t)</text><ellipse cx="125.5" cy="156.3174" fill="#84BE84" rx="3" ry="3" style="stroke: #038048; stroke-width: 1.0;"/><text fill="#000000" font-family="SF Mono" font-size="11" lengthAdjust="spacingAndGlyphs" textLength="273" x="134.5" y="158.7275">sendData:(NSData *)toAddress:(NSData *)</text><ellipse cx="264" cy="13" fill="#FEFECE" filter="url(#fvulawuowyhyy)" rx="5" ry="5" style="stroke: #A80036; stroke-width: 1.5;"/><text fill="#000000" font-family="SF Mono" font-size="12" lengthAdjust="spacingAndGlyphs" textLength="175" x="176.5" y="29.4258">GCDAsyncUdpSocketDelegate</text><!--class TransportDelegate--><rect fill="#FEFECE" filter="url(#fvulawuowyhyy)" height="61.127" id="TransportDelegate" style="stroke: #A80036; stroke-width: 1.5;" width="516" x="6" y="231.5"/><ellipse cx="200.25" cy="247.5" fill="#B4A7E5" rx="11" ry="11" style="stroke: #A80036; stroke-width: 1.0;"/><path d="M196.1777,243.2651 L196.1777,241.1069 L203.5571,241.1069 L203.5571,243.2651 L201.0918,243.2651 L201.0918,251.3418 L203.5571,251.3418 L203.5571,253.5 L196.1777,253.5 L196.1777,251.3418 L198.6431,251.3418 L198.6431,243.2651 Z "/><text fill="#000000" font-family="SF Mono" font-size="12" font-style="italic" lengthAdjust="spacingAndGlyphs" textLength="119" x="220.75" y="251.7656">TransportDelegate</text><line style="stroke: #A80036; stroke-width: 1.5;" x1="7" x2="521" y1="263.5" y2="263.5"/><line style="stroke: #A80036; stroke-width: 1.5;" x1="7" x2="521" y1="271.5" y2="271.5"/><ellipse cx="17" cy="283.5635" fill="#84BE84" rx="3" ry="3" style="stroke: #038048; stroke-width: 1.0;"/><text fill="#000000" font-family="SF Mono" font-size="11" lengthAdjust="spacingAndGlyphs" textLength="490" x="26" y="285.9736">transport:(Transport *)didReceiveData:(NSData *)fromAddress:(NSData *)</text><!--class RDTP--><rect fill="#FEFECE" filter="url(#fvulawuowyhyy)" height="74.2539" id="RDTP" style="stroke: #A80036; stroke-width: 1.5;" width="341" x="118.5" y="372.5"/><ellipse cx="270.75" cy="388.5" fill="#ADD1B2" rx="11" ry="11" style="stroke: #A80036; stroke-width: 1.0;"/><path d="M273.7231,394.1431 Q273.1421,394.4419 272.5029,394.5913 Q271.8638,394.7407 271.1582,394.7407 Q268.6514,394.7407 267.3315,393.0889 Q266.0117,391.437 266.0117,388.3159 Q266.0117,385.1865 267.3315,383.5347 Q268.6514,381.8828 271.1582,381.8828 Q271.8638,381.8828 272.5112,382.0322 Q273.1587,382.1816 273.7231,382.4805 L273.7231,385.2031 Q273.0923,384.6221 272.4988,384.3523 Q271.9053,384.0825 271.2744,384.0825 Q269.9297,384.0825 269.2449,385.1492 Q268.5601,386.2158 268.5601,388.3159 Q268.5601,390.4077 269.2449,391.4744 Q269.9297,392.541 271.2744,392.541 Q271.9053,392.541 272.4988,392.2712 Q273.0923,392.0015 273.7231,391.4204 Z "/><text fill="#000000" font-family="SF Mono" font-size="12" lengthAdjust="spacingAndGlyphs" textLength="28" x="291.25" y="392.7656">RDTP</text><line style="stroke: #A80036; stroke-width: 1.5;" x1="119.5" x2="458.5" y1="404.5" y2="404.5"/><rect fill="none" height="6" style="stroke: #C82930; stroke-width: 1.0;" width="6" x="126.5" y="413.5635"/><text fill="#000000" font-family="SF Mono" font-size="11" lengthAdjust="spacingAndGlyphs" textLength="182" x="138.5" y="418.9736">delegate: id&lt;RDTPDelegate&gt;</text><line style="stroke: #A80036; stroke-width: 1.5;" x1="119.5" x2="458.5" y1="425.627" y2="425.627"/><ellipse cx="129.5" cy="437.6904" fill="#84BE84" rx="3" ry="3" style="stroke: #038048; stroke-width: 1.0;"/><text fill="#000000" font-family="SF Mono" font-size="11" lengthAdjust="spacingAndGlyphs" textLength="315" x="138.5" y="440.1006">initWithTransport:(Transport *): instancetype</text><!--class RDTPDelegate--><rect fill="#FEFECE" filter="url(#fvulawuowyhyy)" height="74.2539" id="RDTPDelegate" style="stroke: #A80036; stroke-width: 1.5;" width="327" x="138.5" y="520"/><ellipse cx="255.75" cy="536" fill="#B4A7E5" rx="11" ry="11" style="stroke: #A80036; stroke-width: 1.0;"/><path d="M251.6777,531.7651 L251.6777,529.6069 L259.0571,529.6069 L259.0571,531.7651 L256.5918,531.7651 L256.5918,539.8418 L259.0571,539.8418 L259.0571,542 L251.6777,542 L251.6777,539.8418 L254.1431,539.8418 L254.1431,531.7651 Z "/><text fill="#000000" font-family="SF Mono" font-size="12" font-style="italic" lengthAdjust="spacingAndGlyphs" textLength="84" x="276.25" y="540.2656">RDTPDelegate</text><line style="stroke: #A80036; stroke-width: 1.5;" x1="139.5" x2="464.5" y1="552" y2="552"/><line style="stroke: #A80036; stroke-width: 1.5;" x1="139.5" x2="464.5" y1="560" y2="560"/><ellipse cx="149.5" cy="572.0635" fill="#84BE84" rx="3" ry="3" style="stroke: #038048; stroke-width: 1.0;"/><text fill="#000000" font-family="SF Mono" font-size="11" lengthAdjust="spacingAndGlyphs" textLength="301" x="158.5" y="574.4736">RDTP:(RDTP *)videoFrameAvailable:(NSData *)</text><ellipse cx="149.5" cy="585.1904" fill="#84BE84" rx="3" ry="3" style="stroke: #038048; stroke-width: 1.0;"/><text fill="#000000" font-family="SF Mono" font-size="11" lengthAdjust="spacingAndGlyphs" textLength="259" x="158.5" y="587.6006">RDTPWillSendPacket:(RDTP *): NSData *</text><!--class AppDelegate--><rect fill="#FEFECE" filter="url(#fvulawuowyhyy)" height="139.8887" id="AppDelegate" style="stroke: #A80036; stroke-width: 1.5;" width="327" x="190.5" y="654"/><ellipse cx="311.25" cy="670" fill="#ADD1B2" rx="11" ry="11" style="stroke: #A80036; stroke-width: 1.0;"/><path d="M314.2231,675.6431 Q313.6421,675.9419 313.0029,676.0913 Q312.3638,676.2407 311.6582,676.2407 Q309.1514,676.2407 307.8315,674.5889 Q306.5117,672.937 306.5117,669.8159 Q306.5117,666.6865 307.8315,665.0347 Q309.1514,663.3828 311.6582,663.3828 Q312.3638,663.3828 313.0112,663.5322 Q313.6587,663.6816 314.2231,663.9805 L314.2231,666.7031 Q313.5923,666.1221 312.9988,665.8523 Q312.4053,665.5825 311.7744,665.5825 Q310.4297,665.5825 309.7449,666.6492 Q309.0601,667.7158 309.0601,669.8159 Q309.0601,671.9077 309.7449,672.9744 Q310.4297,674.041 311.7744,674.041 Q312.4053,674.041 312.9988,673.7712 Q313.5923,673.5015 314.2231,672.9204 Z "/><text fill="#000000" font-family="SF Mono" font-size="12" lengthAdjust="spacingAndGlyphs" textLength="77" x="331.75" y="674.2656">AppDelegate</text><line style="stroke: #A80036; stroke-width: 1.5;" x1="191.5" x2="516.5" y1="686" y2="686"/><rect fill="none" height="6" style="stroke: #C82930; stroke-width: 1.0;" width="6" x="198.5" y="695.0635"/><text fill="#000000" font-family="SF Mono" font-size="11" lengthAdjust="spacingAndGlyphs" textLength="154" x="210.5" y="700.4736">transport: Transport *</text><rect fill="none" height="6" style="stroke: #C82930; stroke-width: 1.0;" width="6" x="198.5" y="708.1904"/><text fill="#000000" font-family="SF Mono" font-size="11" lengthAdjust="spacingAndGlyphs" textLength="77" x="210.5" y="713.6006">app: RDTP *</text><rect fill="none" height="6" style="stroke: #C82930; stroke-width: 1.0;" width="6" x="198.5" y="721.3174"/><text fill="#000000" font-family="SF Mono" font-size="11" lengthAdjust="spacingAndGlyphs" textLength="217" x="210.5" y="726.7275">controller: GamepadController *</text><rect fill="none" height="6" style="stroke: #C82930; stroke-width: 1.0;" width="6" x="198.5" y="734.4443"/><text fill="#000000" font-family="SF Mono" font-size="11" lengthAdjust="spacingAndGlyphs" textLength="175" x="210.5" y="739.8545">converter: StickConverter</text><rect fill="none" height="6" style="stroke: #C82930; stroke-width: 1.0;" width="6" x="198.5" y="747.5713"/><text fill="#000000" font-family="SF Mono" font-size="11" lengthAdjust="spacingAndGlyphs" textLength="126" x="210.5" y="752.9814">packet: RDTPPacket</text><line style="stroke: #A80036; stroke-width: 1.5;" x1="191.5" x2="516.5" y1="759.6348" y2="759.6348"/><rect fill="#F24D5C" height="6" style="stroke: #C82930; stroke-width: 1.0;" width="6" x="198.5" y="768.6982"/><text fill="#000000" font-family="SF Mono" font-size="11" lengthAdjust="spacingAndGlyphs" textLength="301" x="210.5" y="774.1084">RDTP:(RDTP *)videoFrameAvailable:(NSData *)</text><rect fill="#F24D5C" height="6" style="stroke: #C82930; stroke-width: 1.0;" width="6" x="198.5" y="781.8252"/><text fill="#000000" font-family="SF Mono" font-size="11" lengthAdjust="spacingAndGlyphs" textLength="259" x="210.5" y="787.2354">RDTPWillSendPacket:(RDTP *): NSData *</text><!--class StickConverter--><rect fill="#FEFECE" filter="url(#fvulawuowyhyy)" height="87.3809" id="StickConverter" style="stroke: #A80036; stroke-width: 1.5;" width="355" x="578.5" y="680.5"/><ellipse cx="702.75" cy="696.5" fill="#ADD1B2" rx="11" ry="11" style="stroke: #A80036; stroke-width: 1.0;"/><path d="M705.7231,702.1431 Q705.1421,702.4419 704.5029,702.5913 Q703.8638,702.7407 703.1582,702.7407 Q700.6514,702.7407 699.3315,701.0889 Q698.0117,699.437 698.0117,696.3159 Q698.0117,693.1865 699.3315,691.5347 Q700.6514,689.8828 703.1582,689.8828 Q703.8638,689.8828 704.5112,690.0322 Q705.1587,690.1816 705.7231,690.4805 L705.7231,693.2031 Q705.0923,692.6221 704.4988,692.3523 Q703.9053,692.0825 703.2744,692.0825 Q701.9297,692.0825 701.2449,693.1492 Q700.5601,694.2158 700.5601,696.3159 Q700.5601,698.4077 701.2449,699.4744 Q701.9297,700.541 703.2744,700.541 Q703.9053,700.541 704.4988,700.2712 Q705.0923,700.0015 705.7231,699.4204 Z "/><text fill="#000000" font-family="SF Mono" font-size="12" lengthAdjust="spacingAndGlyphs" textLength="98" x="723.25" y="700.7656">StickConverter</text><line style="stroke: #A80036; stroke-width: 1.5;" x1="579.5" x2="932.5" y1="712.5" y2="712.5"/><rect fill="none" height="6" style="stroke: #C82930; stroke-width: 1.0;" width="6" x="586.5" y="721.5635"/><text fill="#000000" font-family="SF Mono" font-size="11" lengthAdjust="spacingAndGlyphs" textLength="259" x="598.5" y="726.9736">limitters: NSArray&lt;ServoLimitter *&gt; *</text><ellipse cx="589.5" cy="737.6904" fill="none" rx="3" ry="3" style="stroke: #038048; stroke-width: 1.0;"/><text fill="#000000" font-family="SF Mono" font-size="11" lengthAdjust="spacingAndGlyphs" textLength="168" x="598.5" y="740.1006">makePacketData: NSData *</text><line style="stroke: #A80036; stroke-width: 1.5;" x1="579.5" x2="932.5" y1="746.7539" y2="746.7539"/><ellipse cx="589.5" cy="758.8174" fill="#84BE84" rx="3" ry="3" style="stroke: #038048; stroke-width: 1.0;"/><text fill="#000000" font-family="SF Mono" font-size="11" lengthAdjust="spacingAndGlyphs" textLength="329" x="598.5" y="761.2275">initWithRDTPPacket:(RDTPPacket *): instancetype</text><!--class ServoLimitter--><rect fill="#FEFECE" filter="url(#fvulawuowyhyy)" height="100.5078" id="ServoLimitter" style="stroke: #A80036; stroke-width: 1.5;" width="516" x="498" y="854"/><ellipse cx="706.25" cy="870" fill="#ADD1B2" rx="11" ry="11" style="stroke: #A80036; stroke-width: 1.0;"/><path d="M709.2231,875.6431 Q708.6421,875.9419 708.0029,876.0913 Q707.3638,876.2407 706.6582,876.2407 Q704.1514,876.2407 702.8315,874.5889 Q701.5117,872.937 701.5117,869.8159 Q701.5117,866.6865 702.8315,865.0347 Q704.1514,863.3828 706.6582,863.3828 Q707.3638,863.3828 708.0112,863.5322 Q708.6587,863.6816 709.2231,863.9805 L709.2231,866.7031 Q708.5923,866.1221 707.9988,865.8523 Q707.4053,865.5825 706.7744,865.5825 Q705.4297,865.5825 704.7449,866.6492 Q704.0601,867.7158 704.0601,869.8159 Q704.0601,871.9077 704.7449,872.9744 Q705.4297,874.041 706.7744,874.041 Q707.4053,874.041 707.9988,873.7712 Q708.5923,873.5015 709.2231,872.9204 Z "/><text fill="#000000" font-family="SF Mono" font-size="12" lengthAdjust="spacingAndGlyphs" textLength="91" x="726.75" y="874.2656">ServoLimitter</text><line style="stroke: #A80036; stroke-width: 1.5;" x1="499" x2="1013" y1="886" y2="886"/><ellipse cx="509" cy="898.0635" fill="none" rx="3" ry="3" style="stroke: #038048; stroke-width: 1.0;"/><text fill="#000000" font-family="SF Mono" font-size="11" lengthAdjust="spacingAndGlyphs" textLength="42" x="518" y="900.4736">preset</text><line style="stroke: #A80036; stroke-width: 1.5;" x1="499" x2="1013" y1="907.127" y2="907.127"/><ellipse cx="509" cy="919.1904" fill="#84BE84" rx="3" ry="3" style="stroke: #038048; stroke-width: 1.0;"/><text fill="#000000" font-family="SF Mono" font-size="11" lengthAdjust="spacingAndGlyphs" textLength="490" x="518" y="921.6006">initWithServo:(RDTPPacketComponent)packet:(RDTPPacket *): instancetype</text><ellipse cx="509" cy="932.3174" fill="#84BE84" rx="3" ry="3" style="stroke: #038048; stroke-width: 1.0;"/><text fill="#000000" font-family="SF Mono" font-size="11" lengthAdjust="spacingAndGlyphs" textLength="112" x="518" y="934.7275">updateStep:(int)</text><ellipse cx="509" cy="945.4443" fill="#84BE84" rx="3" ry="3" style="stroke: #038048; stroke-width: 1.0;"/><text fill="#000000" font-family="SF Mono" font-size="11" lengthAdjust="spacingAndGlyphs" textLength="91" x="518" y="947.8545">update:(BOOL)</text><!--link GamepadControllerlol3 to GamepadController--><path d="M795.9272,126.7446 C795.5423,154.4569 793.7244,285.3412 792.7023,358.9331 " fill="none" id="GamepadControllerlol3-GamepadController" style="stroke: #A80036; stroke-width: 1.0;"/><!--link GamepadController to GamepadDelegate--><path d="M790.6997,473.4319 C790.4281,486.7866 790.1476,500.5786 789.8946,513.014 " fill="none" id="GamepadController-GamepadDelegate" style="stroke: #A80036; stroke-width: 1.0;"/><polygon fill="#A80036" points="789.6227,526.3819,793.8049,517.4651,789.7244,521.3829,785.8066,517.3024,789.6227,526.3819" style="stroke: #A80036; stroke-width: 1.0;"/><line style="stroke: #A80036; stroke-width: 1.0;" x1="789.7244" x2="789.8872" y1="521.3829" y2="513.3847"/><polygon fill="#A80036" points="790.9676,460.2611,786.8464,466.1785,790.7235,472.2586,794.8447,466.3412,790.9676,460.2611" style="stroke: #A80036; stroke-width: 1.0;"/><!--link WirelessXBoxController to GamepadController--><path d="M673.1308,286.0267 C688.4454,301.9345 709.322,323.6197 729.3081,344.3799 " fill="none" id="WirelessXBoxController-GamepadController" style="stroke: #A80036; stroke-width: 1.0;"/><polygon fill="none" points="734.4378,339.6153,743.2659,358.8783,724.3521,349.3249,734.4378,339.6153" style="stroke: #A80036; stroke-width: 1.0;"/><!--link WiredXBoxController to GamepadController--><path d="M904.8963,299.2205 C890.7154,313.0727 874.1796,329.2252 858.2072,344.8274 " fill="none" id="WiredXBoxController-GamepadController" style="stroke: #A80036; stroke-width: 1.0;"/><polygon fill="none" points="862.9792,349.9515,843.7808,358.9194,853.1964,339.9366,862.9792,349.9515" style="stroke: #A80036; stroke-width: 1.0;"/><!--link Transportlol15 to Transport--><path d="M264,18.2332 C264,29.0698 264,54.8865 264,77.9941 " fill="none" id="Transportlol15-Transport" style="stroke: #A80036; stroke-width: 1.0;"/><!--link Transport to TransportDelegate--><path d="M264,178.3742 C264,191.6525 264,205.5929 264,218.2019 " fill="none" id="Transport-TransportDelegate" style="stroke: #A80036; stroke-width: 1.0;"/><polygon fill="#A80036" points="264,231.2671,268,222.2671,264,226.2671,260,222.2671,264,231.2671" style="stroke: #A80036; stroke-width: 1.0;"/><line style="stroke: #A80036; stroke-width: 1.0;" x1="264" x2="264.0001" y1="226.2671" y2="218.2671"/><polygon fill="#A80036" points="264,165.1849,260,171.1849,264,177.1849,268,171.1849,264,165.1849" style="stroke: #A80036; stroke-width: 1.0;"/><!--link TransportDelegate to RDTP--><path d="M272.5258,312.302 C275.8679,332.0205 279.6331,354.2352 282.7194,372.4446 " fill="none" id="TransportDelegate-RDTP" style="stroke: #A80036; stroke-width: 1.0; stroke-dasharray: 7.0,7.0;"/><polygon fill="none" points="265.6207,313.4507,269.18,292.5621,279.4238,311.1111,265.6207,313.4507" style="stroke: #A80036; stroke-width: 1.0;"/><!--link RDTP to RDTPDelegate--><path d="M293.4377,459.851 C294.7637,474.8964 296.2175,491.3911 297.5447,506.4492 " fill="none" id="RDTP-RDTPDelegate" style="stroke: #A80036; stroke-width: 1.0;"/><polygon fill="#A80036" points="298.7206,519.7914,301.9149,510.475,298.2816,514.8107,293.9458,511.1774,298.7206,519.7914" style="stroke: #A80036; stroke-width: 1.0;"/><line style="stroke: #A80036; stroke-width: 1.0;" x1="298.2816" x2="297.5792" y1="514.8107" y2="506.8416"/><polygon fill="#A80036" points="292.2804,446.7205,288.8227,453.0485,293.334,458.6742,296.7918,452.3461,292.2804,446.7205" style="stroke: #A80036; stroke-width: 1.0;"/><!--link RDTPDelegate to AppDelegate--><path d="M319.5671,613.4173 C323.6026,626.3776 327.9422,640.3142 332.1345,653.7781 " fill="none" id="RDTPDelegate-AppDelegate" style="stroke: #A80036; stroke-width: 1.0; stroke-dasharray: 7.0,7.0;"/><polygon fill="none" points="312.803,615.2395,313.5405,594.0627,326.17,611.0773,312.803,615.2395" style="stroke: #A80036; stroke-width: 1.0;"/><!--link GamepadDelegate to StickConverter--><path d="M779.0094,607.5585 C774.421,630.7783 769.0329,658.0456 764.6246,680.3545 " fill="none" id="GamepadDelegate-StickConverter" style="stroke: #A80036; stroke-width: 1.0; stroke-dasharray: 7.0,7.0;"/><polygon fill="none" points="772.2029,605.894,782.9473,587.6304,785.9373,608.608,772.2029,605.894" style="stroke: #A80036; stroke-width: 1.0;"/><!--link AppDelegate to StickConverter--><path d="M530.9405,724 C542.2654,724 553.5903,724 564.9152,724 " fill="none" id="AppDelegate-StickConverter" style="stroke: #A80036; stroke-width: 1.0;"/><polygon fill="#A80036" points="578.2096,724,569.2096,720,573.2096,724,569.2096,728,578.2096,724" style="stroke: #A80036; stroke-width: 1.0;"/><line style="stroke: #A80036; stroke-width: 1.0;" x1="573.2096" x2="565.2097" y1="724" y2="723.9999"/><polygon fill="#A80036" points="517.7051,724,523.7051,728,529.7051,724,523.7051,720,517.7051,724" style="stroke: #A80036; stroke-width: 1.0;"/><!--link StickConverter to ServoLimitter--><path d="M756,780.9955 C756,799.9819 756,821.2511 756,840.7179 " fill="none" id="StickConverter-ServoLimitter" style="stroke: #A80036; stroke-width: 1.0;"/><polygon fill="#A80036" points="756,853.8568,760,844.8568,756,848.8568,752,844.8568,756,853.8568" style="stroke: #A80036; stroke-width: 1.0;"/><line style="stroke: #A80036; stroke-width: 1.0;" x1="756" x2="756.0001" y1="848.8568" y2="840.8568"/><polygon fill="#A80036" points="756,767.694,752,773.694,756,779.694,760,773.694,756,767.694" style="stroke: #A80036; stroke-width: 1.0;"/><!--
@startuml
skinparam defaultFontName SF Mono

class GamepadController {
    + application: RDTP *
    + delegate: id<GamepadDelegate>
    {static} + controller: instancetype
    + initWithJoyStick:(DDHIDJoystick *): instancetype
}
DDHidJoystickDelegate ()- - - GamepadController

interface GamepadDelegate {
    + gamepad:(GamepadController *)updateValue:(int)forStickAxis:(GamepadStickAxis)
}
GamepadController *-d-> GamepadDelegate

class WirelessXBoxController
GamepadController <|-u- WirelessXBoxController

class WiredXBoxController {
    + smallMotorPower: double
    + largeMotorPower: double
}
GamepadController <|-u- WiredXBoxController

class Transport {
    + delegate: id<TransportDelegate>
    + openWithPort:(uint16_t)
    + sendData:(NSData *)toAddress:(NSData *)
}
GCDAsyncUdpSocketDelegate ()- - Transport

interface TransportDelegate {
    + transport:(Transport *)didReceiveData:(NSData *)fromAddress:(NSData *)
}
Transport *-d-> TransportDelegate

class RDTP {
    - delegate: id<RDTPDelegate>
    + initWithTransport:(Transport *): instancetype
}
TransportDelegate <|.- RDTP

interface RDTPDelegate {
    + RDTP:(RDTP *)videoFrameAvailable:(NSData *)
    + RDTPWillSendPacket:(RDTP *): NSData *
}
RDTP *-d-> RDTPDelegate

class AppDelegate {
    - transport: Transport *
    - app: RDTP *
    - controller: GamepadController *
    - converter: StickConverter
    - packet: RDTPPacket
    - RDTP:(RDTP *)videoFrameAvailable:(NSData *)
    - RDTPWillSendPacket:(RDTP *): NSData *
}
RDTPDelegate <|.d- AppDelegate

class StickConverter {
    - limitters: NSArray<ServoLimitter *> *
    + initWithRDTPPacket:(RDTPPacket *): instancetype
    + makePacketData: NSData *
}
GamepadDelegate <|.- StickConverter
AppDelegate *-> StickConverter

class ServoLimitter {
    + initWithServo:(RDTPPacketComponent)packet:(RDTPPacket *): instancetype
    + updateStep:(int)
    + update:(BOOL)
    + preset
}
StickConverter *-d-> ServoLimitter

@enduml

PlantUML version 1.2017.16(Sun Sep 03 19:53:37 JST 2017)
(GPL source distribution)
Java Runtime: Java(TM) SE Runtime Environment
JVM: Java HotSpot(TM) 64-Bit Server VM
Java Version: 1.8.0_66-b17
Operating System: Mac OS X
OS Version: 10.12.6
Default Encoding: UTF-8
Language: ja
Country: JP
--></g></svg>