<?xml version="1.0" encoding="UTF-8" standalone="no"?><svg xmlns="http://www.w3.org/2000/svg" xmlns:xlink="http://www.w3.org/1999/xlink" contentScriptType="application/ecmascript" contentStyleType="text/css" height="995px" preserveAspectRatio="none" style="width:1335px;height:995px;" version="1.1" viewBox="0 0 1335 995" width="1335px" zoomAndPan="magnify"><defs><filter height="300%" id="fyk8kiiyhxksr" width="300%" x="-1" y="-1"><feGaussianBlur result="blurOut" stdDeviation="2.0"/><feColorMatrix in="blurOut" result="blurOut2" type="matrix" values="0 0 0 0 0 0 0 0 0 0 0 0 0 0 0 0 0 0 .4 0"/><feOffset dx="4.0" dy="4.0" in="blurOut2" result="blurOut3"/><feBlend in="SourceGraphic" in2="blurOut3" mode="normal"/></filter></defs><g><!--class Transport--><rect fill="#FEFECE" filter="url(#fyk8kiiyhxksr)" height="100.5078" id="Transport" style="stroke: #A80036; stroke-width: 1.5;" width="187" x="298.5" y="70"/><ellipse cx="356.25" cy="86" fill="#ADD1B2" rx="11" ry="11" style="stroke: #A80036; stroke-width: 1.0;"/><path d="M359.2231,91.6431 Q358.6421,91.9419 358.0029,92.0913 Q357.3638,92.2407 356.6582,92.2407 Q354.1514,92.2407 352.8315,90.5889 Q351.5117,88.937 351.5117,85.8159 Q351.5117,82.6865 352.8315,81.0347 Q354.1514,79.3828 356.6582,79.3828 Q357.3638,79.3828 358.0112,79.5322 Q358.6587,79.6816 359.2231,79.9805 L359.2231,82.7031 Q358.5923,82.1221 357.9988,81.8523 Q357.4053,81.5825 356.7744,81.5825 Q355.4297,81.5825 354.7449,82.6492 Q354.0601,83.7158 354.0601,85.8159 Q354.0601,87.9077 354.7449,88.9744 Q355.4297,90.041 356.7744,90.041 Q357.4053,90.041 357.9988,89.7712 Q358.5923,89.5015 359.2231,88.9204 Z "/><text fill="#000000" font-family="SF Mono" font-size="12" lengthAdjust="spacingAndGlyphs" textLength="63" x="376.75" y="90.2656">Transport</text><line style="stroke: #A80036; stroke-width: 1.5;" x1="299.5" x2="484.5" y1="102" y2="102"/><ellipse cx="309.5" cy="114.0635" fill="none" rx="3" ry="3" style="stroke: #038048; stroke-width: 1.0;"/><text fill="#000000" font-family="SF Mono" font-size="11" lengthAdjust="spacingAndGlyphs" textLength="140" x="318.5" y="116.4736">delegate: Delegate *</text><line style="stroke: #A80036; stroke-width: 1.5;" x1="299.5" x2="484.5" y1="123.127" y2="123.127"/><ellipse cx="309.5" cy="135.1904" fill="#84BE84" rx="3" ry="3" style="stroke: #038048; stroke-width: 1.0;"/><text fill="#000000" font-family="SF Mono" font-size="11" font-style="italic" lengthAdjust="spacingAndGlyphs" textLength="42" x="318.5" y="137.6006">init()</text><ellipse cx="309.5" cy="148.3174" fill="#84BE84" rx="3" ry="3" style="stroke: #038048; stroke-width: 1.0;"/><text fill="#000000" font-family="SF Mono" font-size="11" font-style="italic" lengthAdjust="spacingAndGlyphs" textLength="161" x="318.5" y="150.7275">readMyAddress(): Header</text><ellipse cx="309.5" cy="161.4443" fill="#84BE84" rx="3" ry="3" style="stroke: #038048; stroke-width: 1.0;"/><text fill="#000000" font-family="SF Mono" font-size="11" font-style="italic" lengthAdjust="spacingAndGlyphs" textLength="126" x="318.5" y="163.8545">sendPacket(Packet)</text><!--class Transport::Header--><rect fill="#FEFECE" filter="url(#fyk8kiiyhxksr)" height="74.2539" id="Transport::Header" style="stroke: #A80036; stroke-width: 1.5;" width="151" x="112.5" y="83.5"/><ellipse cx="127.5" cy="99.5" fill="#ADD1B2" rx="11" ry="11" style="stroke: #A80036; stroke-width: 1.0;"/><path d="M130.4731,105.1431 Q129.8921,105.4419 129.2529,105.5913 Q128.6138,105.7407 127.9082,105.7407 Q125.4014,105.7407 124.0815,104.0889 Q122.7617,102.437 122.7617,99.3159 Q122.7617,96.1865 124.0815,94.5347 Q125.4014,92.8828 127.9082,92.8828 Q128.6138,92.8828 129.2612,93.0322 Q129.9087,93.1816 130.4731,93.4805 L130.4731,96.2031 Q129.8423,95.6221 129.2488,95.3523 Q128.6553,95.0825 128.0244,95.0825 Q126.6797,95.0825 125.9949,96.1492 Q125.3101,97.2158 125.3101,99.3159 Q125.3101,101.4077 125.9949,102.4744 Q126.6797,103.541 128.0244,103.541 Q128.6553,103.541 129.2488,103.2712 Q129.8423,103.0015 130.4731,102.4204 Z "/><text fill="#000000" font-family="SF Mono" font-size="12" lengthAdjust="spacingAndGlyphs" textLength="119" x="141.5" y="103.7656">Transport::Header</text><line style="stroke: #A80036; stroke-width: 1.5;" x1="113.5" x2="262.5" y1="115.5" y2="115.5"/><ellipse cx="123.5" cy="127.5635" fill="none" rx="3" ry="3" style="stroke: #038048; stroke-width: 1.0;"/><text fill="#000000" font-family="SF Mono" font-size="11" lengthAdjust="spacingAndGlyphs" textLength="119" x="132.5" y="129.9736">address: uint32_t</text><ellipse cx="123.5" cy="140.6904" fill="none" rx="3" ry="3" style="stroke: #038048; stroke-width: 1.0;"/><text fill="#000000" font-family="SF Mono" font-size="11" lengthAdjust="spacingAndGlyphs" textLength="98" x="132.5" y="143.1006">port: uint16_t</text><line style="stroke: #A80036; stroke-width: 1.5;" x1="113.5" x2="262.5" y1="149.7539" y2="149.7539"/><!--class Transport::Packet--><rect fill="#FEFECE" filter="url(#fyk8kiiyhxksr)" height="113.6348" id="Transport::Packet" style="stroke: #A80036; stroke-width: 1.5;" width="159" x="166.5" y="244"/><ellipse cx="185.1" cy="260" fill="#ADD1B2" rx="11" ry="11" style="stroke: #A80036; stroke-width: 1.0;"/><path d="M188.0731,265.6431 Q187.4921,265.9419 186.8529,266.0913 Q186.2138,266.2407 185.5082,266.2407 Q183.0014,266.2407 181.6815,264.5889 Q180.3617,262.937 180.3617,259.8159 Q180.3617,256.6865 181.6815,255.0347 Q183.0014,253.3828 185.5082,253.3828 Q186.2138,253.3828 186.8612,253.5322 Q187.5087,253.6816 188.0731,253.9805 L188.0731,256.7031 Q187.4423,256.1221 186.8488,255.8523 Q186.2553,255.5825 185.6244,255.5825 Q184.2797,255.5825 183.5949,256.6492 Q182.9101,257.7158 182.9101,259.8159 Q182.9101,261.9077 183.5949,262.9744 Q184.2797,264.041 185.6244,264.041 Q186.2553,264.041 186.8488,263.7712 Q187.4423,263.5015 188.0731,262.9204 Z "/><text fill="#000000" font-family="SF Mono" font-size="12" lengthAdjust="spacingAndGlyphs" textLength="119" x="199.9" y="264.2656">Transport::Packet</text><line style="stroke: #A80036; stroke-width: 1.5;" x1="167.5" x2="324.5" y1="276" y2="276"/><ellipse cx="177.5" cy="288.0635" fill="none" rx="3" ry="3" style="stroke: #038048; stroke-width: 1.0;"/><text fill="#000000" font-family="SF Mono" font-size="11" lengthAdjust="spacingAndGlyphs" textLength="98" x="186.5" y="290.4736">source: Header</text><ellipse cx="177.5" cy="301.1904" fill="none" rx="3" ry="3" style="stroke: #038048; stroke-width: 1.0;"/><text fill="#000000" font-family="SF Mono" font-size="11" lengthAdjust="spacingAndGlyphs" textLength="133" x="186.5" y="303.6006">destination: Header</text><ellipse cx="177.5" cy="314.3174" fill="none" rx="3" ry="3" style="stroke: #038048; stroke-width: 1.0;"/><text fill="#000000" font-family="SF Mono" font-size="11" lengthAdjust="spacingAndGlyphs" textLength="126" x="186.5" y="316.7275">protocol: Protocol</text><ellipse cx="177.5" cy="327.4443" fill="none" rx="3" ry="3" style="stroke: #038048; stroke-width: 1.0;"/><text fill="#000000" font-family="SF Mono" font-size="11" lengthAdjust="spacingAndGlyphs" textLength="126" x="186.5" y="329.8545">content: uint8_t *</text><ellipse cx="177.5" cy="340.5713" fill="none" rx="3" ry="3" style="stroke: #038048; stroke-width: 1.0;"/><text fill="#000000" font-family="SF Mono" font-size="11" lengthAdjust="spacingAndGlyphs" textLength="126" x="186.5" y="342.9814">contentLength: int</text><line style="stroke: #A80036; stroke-width: 1.5;" x1="167.5" x2="324.5" y1="349.6348" y2="349.6348"/><!--class Packet::Protocol--><rect fill="#FEFECE" filter="url(#fyk8kiiyhxksr)" height="74.2539" id="Packet::Protocol" style="stroke: #A80036; stroke-width: 1.5;" width="144" x="174" y="431.5"/><ellipse cx="189" cy="447.5" fill="#ADD1B2" rx="11" ry="11" style="stroke: #A80036; stroke-width: 1.0;"/><path d="M191.9731,453.1431 Q191.3921,453.4419 190.7529,453.5913 Q190.1138,453.7407 189.4082,453.7407 Q186.9014,453.7407 185.5815,452.0889 Q184.2617,450.437 184.2617,447.3159 Q184.2617,444.1865 185.5815,442.5347 Q186.9014,440.8828 189.4082,440.8828 Q190.1138,440.8828 190.7612,441.0322 Q191.4087,441.1816 191.9731,441.4805 L191.9731,444.2031 Q191.3423,443.6221 190.7488,443.3523 Q190.1553,443.0825 189.5244,443.0825 Q188.1797,443.0825 187.4949,444.1492 Q186.8101,445.2158 186.8101,447.3159 Q186.8101,449.4077 187.4949,450.4744 Q188.1797,451.541 189.5244,451.541 Q190.1553,451.541 190.7488,451.2712 Q191.3423,451.0015 191.9731,450.4204 Z "/><text fill="#000000" font-family="SF Mono" font-size="12" lengthAdjust="spacingAndGlyphs" textLength="112" x="203" y="451.7656">Packet::Protocol</text><line style="stroke: #A80036; stroke-width: 1.5;" x1="175" x2="317" y1="463.5" y2="463.5"/><ellipse cx="185" cy="475.5635" fill="none" rx="3" ry="3" style="stroke: #038048; stroke-width: 1.0;"/><text fill="#000000" font-family="SF Mono" font-size="11" lengthAdjust="spacingAndGlyphs" textLength="21" x="194" y="477.9736">TCP</text><ellipse cx="185" cy="488.6904" fill="none" rx="3" ry="3" style="stroke: #038048; stroke-width: 1.0;"/><text fill="#000000" font-family="SF Mono" font-size="11" lengthAdjust="spacingAndGlyphs" textLength="21" x="194" y="491.1006">UDP</text><line style="stroke: #A80036; stroke-width: 1.5;" x1="175" x2="317" y1="497.7539" y2="497.7539"/><!--class EthernetTransport--><rect fill="#FEFECE" filter="url(#fyk8kiiyhxksr)" height="126.7617" id="EthernetTransport" style="stroke: #A80036; stroke-width: 1.5;" width="222" x="743" y="57"/><ellipse cx="790.25" cy="73" fill="#ADD1B2" rx="11" ry="11" style="stroke: #A80036; stroke-width: 1.0;"/><path d="M793.2231,78.6431 Q792.6421,78.9419 792.0029,79.0913 Q791.3638,79.2407 790.6582,79.2407 Q788.1514,79.2407 786.8315,77.5889 Q785.5117,75.937 785.5117,72.8159 Q785.5117,69.6865 786.8315,68.0347 Q788.1514,66.3828 790.6582,66.3828 Q791.3638,66.3828 792.0112,66.5322 Q792.6587,66.6816 793.2231,66.9805 L793.2231,69.7031 Q792.5923,69.1221 791.9988,68.8523 Q791.4053,68.5825 790.7744,68.5825 Q789.4297,68.5825 788.7449,69.6492 Q788.0601,70.7158 788.0601,72.8159 Q788.0601,74.9077 788.7449,75.9744 Q789.4297,77.041 790.7744,77.041 Q791.4053,77.041 791.9988,76.7712 Q792.5923,76.5015 793.2231,75.9204 Z "/><text fill="#000000" font-family="SF Mono" font-size="12" lengthAdjust="spacingAndGlyphs" textLength="119" x="810.75" y="77.2656">EthernetTransport</text><line style="stroke: #A80036; stroke-width: 1.5;" x1="744" x2="964" y1="89" y2="89"/><rect fill="none" height="6" style="stroke: #C82930; stroke-width: 1.0;" width="6" x="751" y="98.0635"/><text fill="#000000" font-family="SF Mono" font-size="11" lengthAdjust="spacingAndGlyphs" textLength="196" x="763" y="103.4736">interface: EthernetInterface</text><rect fill="none" height="6" style="stroke: #C82930; stroke-width: 1.0;" width="6" x="751" y="111.1904"/><text fill="#000000" font-family="SF Mono" font-size="11" lengthAdjust="spacingAndGlyphs" textLength="119" x="763" y="116.6006">socket: UDPSocket</text><line style="stroke: #A80036; stroke-width: 1.5;" x1="744" x2="964" y1="123.2539" y2="123.2539"/><ellipse cx="754" cy="135.3174" fill="#84BE84" rx="3" ry="3" style="stroke: #038048; stroke-width: 1.0;"/><text fill="#000000" font-family="SF Mono" font-size="11" lengthAdjust="spacingAndGlyphs" textLength="42" x="763" y="137.7275">init()</text><ellipse cx="754" cy="148.4443" fill="#84BE84" rx="3" ry="3" style="stroke: #038048; stroke-width: 1.0;"/><text fill="#000000" font-family="SF Mono" font-size="11" lengthAdjust="spacingAndGlyphs" textLength="161" x="763" y="150.8545">readMyAddress(): Header</text><ellipse cx="754" cy="161.5713" fill="#84BE84" rx="3" ry="3" style="stroke: #038048; stroke-width: 1.0;"/><text fill="#000000" font-family="SF Mono" font-size="11" lengthAdjust="spacingAndGlyphs" textLength="126" x="763" y="163.9814">sendPacket(Packet)</text><ellipse cx="754" cy="174.6982" fill="#84BE84" rx="3" ry="3" style="stroke: #038048; stroke-width: 1.0;"/><text fill="#000000" font-family="SF Mono" font-size="11" lengthAdjust="spacingAndGlyphs" textLength="35" x="763" y="177.1084">run()</text><!--class XbeeTransport--><rect fill="#FEFECE" filter="url(#fyk8kiiyhxksr)" height="87.3809" id="XbeeTransport" style="stroke: #A80036; stroke-width: 1.5;" width="187" x="520.5" y="77"/><ellipse cx="564.3" cy="93" fill="#ADD1B2" rx="11" ry="11" style="stroke: #A80036; stroke-width: 1.0;"/><path d="M567.2731,98.6431 Q566.6921,98.9419 566.0529,99.0913 Q565.4138,99.2407 564.7082,99.2407 Q562.2014,99.2407 560.8815,97.5889 Q559.5617,95.937 559.5617,92.8159 Q559.5617,89.6865 560.8815,88.0347 Q562.2014,86.3828 564.7082,86.3828 Q565.4138,86.3828 566.0612,86.5322 Q566.7087,86.6816 567.2731,86.9805 L567.2731,89.7031 Q566.6423,89.1221 566.0488,88.8523 Q565.4553,88.5825 564.8244,88.5825 Q563.4797,88.5825 562.7949,89.6492 Q562.1101,90.7158 562.1101,92.8159 Q562.1101,94.9077 562.7949,95.9744 Q563.4797,97.041 564.8244,97.041 Q565.4553,97.041 566.0488,96.7712 Q566.6423,96.5015 567.2731,95.9204 Z "/><text fill="#000000" font-family="SF Mono" font-size="12" lengthAdjust="spacingAndGlyphs" textLength="91" x="584.7" y="97.2656">XbeeTransport</text><line style="stroke: #A80036; stroke-width: 1.5;" x1="521.5" x2="706.5" y1="109" y2="109"/><line style="stroke: #A80036; stroke-width: 1.5;" x1="521.5" x2="706.5" y1="117" y2="117"/><ellipse cx="531.5" cy="129.0635" fill="#84BE84" rx="3" ry="3" style="stroke: #038048; stroke-width: 1.0;"/><text fill="#000000" font-family="SF Mono" font-size="11" lengthAdjust="spacingAndGlyphs" textLength="42" x="540.5" y="131.4736">init()</text><ellipse cx="531.5" cy="142.1904" fill="#84BE84" rx="3" ry="3" style="stroke: #038048; stroke-width: 1.0;"/><text fill="#000000" font-family="SF Mono" font-size="11" lengthAdjust="spacingAndGlyphs" textLength="161" x="540.5" y="144.6006">readMyAddress(): Header</text><ellipse cx="531.5" cy="155.3174" fill="#84BE84" rx="3" ry="3" style="stroke: #038048; stroke-width: 1.0;"/><text fill="#000000" font-family="SF Mono" font-size="11" lengthAdjust="spacingAndGlyphs" textLength="126" x="540.5" y="157.7275">sendPacket(Packet)</text><!--class Transport::Delegate--><rect fill="#FEFECE" filter="url(#fyk8kiiyhxksr)" height="74.2539" id="Transport::Delegate" style="stroke: #A80036; stroke-width: 1.5;" width="355" x="360.5" y="264"/><ellipse cx="467.25" cy="280" fill="#ADD1B2" rx="11" ry="11" style="stroke: #A80036; stroke-width: 1.0;"/><path d="M470.2231,285.6431 Q469.6421,285.9419 469.0029,286.0913 Q468.3638,286.2407 467.6582,286.2407 Q465.1514,286.2407 463.8315,284.5889 Q462.5117,282.937 462.5117,279.8159 Q462.5117,276.6865 463.8315,275.0347 Q465.1514,273.3828 467.6582,273.3828 Q468.3638,273.3828 469.0112,273.5322 Q469.6587,273.6816 470.2231,273.9805 L470.2231,276.7031 Q469.5923,276.1221 468.9988,275.8523 Q468.4053,275.5825 467.7744,275.5825 Q466.4297,275.5825 465.7449,276.6492 Q465.0601,277.7158 465.0601,279.8159 Q465.0601,281.9077 465.7449,282.9744 Q466.4297,284.041 467.7744,284.041 Q468.4053,284.041 468.9988,283.7712 Q469.5923,283.5015 470.2231,282.9204 Z "/><text fill="#000000" font-family="SF Mono" font-size="12" lengthAdjust="spacingAndGlyphs" textLength="133" x="487.75" y="284.2656">Transport::Delegate</text><line style="stroke: #A80036; stroke-width: 1.5;" x1="361.5" x2="714.5" y1="296" y2="296"/><line style="stroke: #A80036; stroke-width: 1.5;" x1="361.5" x2="714.5" y1="304" y2="304"/><ellipse cx="371.5" cy="316.0635" fill="#84BE84" rx="3" ry="3" style="stroke: #038048; stroke-width: 1.0;"/><text fill="#000000" font-family="SF Mono" font-size="11" font-style="italic" lengthAdjust="spacingAndGlyphs" textLength="266" x="380.5" y="318.4736">transport_interfaceReadet(Transport *)</text><ellipse cx="371.5" cy="329.1904" fill="#84BE84" rx="3" ry="3" style="stroke: #038048; stroke-width: 1.0;"/><text fill="#000000" font-family="SF Mono" font-size="11" font-style="italic" lengthAdjust="spacingAndGlyphs" textLength="329" x="380.5" y="331.6006">transport_didReceivePacket(Transport *, Packet)</text><!--class RDTP--><rect fill="#FEFECE" filter="url(#fyk8kiiyhxksr)" height="100.5078" id="RDTP" style="stroke: #A80036; stroke-width: 1.5;" width="285" x="395.5" y="418"/><ellipse cx="519.75" cy="434" fill="#ADD1B2" rx="11" ry="11" style="stroke: #A80036; stroke-width: 1.0;"/><path d="M522.7231,439.6431 Q522.1421,439.9419 521.5029,440.0913 Q520.8638,440.2407 520.1582,440.2407 Q517.6514,440.2407 516.3315,438.5889 Q515.0117,436.937 515.0117,433.8159 Q515.0117,430.6865 516.3315,429.0347 Q517.6514,427.3828 520.1582,427.3828 Q520.8638,427.3828 521.5112,427.5322 Q522.1587,427.6816 522.7231,427.9805 L522.7231,430.7031 Q522.0923,430.1221 521.4988,429.8523 Q520.9053,429.5825 520.2744,429.5825 Q518.9297,429.5825 518.2449,430.6492 Q517.5601,431.7158 517.5601,433.8159 Q517.5601,435.9077 518.2449,436.9744 Q518.9297,438.041 520.2744,438.041 Q520.9053,438.041 521.4988,437.7712 Q522.0923,437.5015 522.7231,436.9204 Z "/><text fill="#000000" font-family="SF Mono" font-size="12" lengthAdjust="spacingAndGlyphs" textLength="28" x="540.25" y="438.2656">RDTP</text><line style="stroke: #A80036; stroke-width: 1.5;" x1="396.5" x2="679.5" y1="450" y2="450"/><ellipse cx="406.5" cy="462.0635" fill="none" rx="3" ry="3" style="stroke: #038048; stroke-width: 1.0;"/><text fill="#000000" font-family="SF Mono" font-size="11" lengthAdjust="spacingAndGlyphs" textLength="140" x="415.5" y="464.4736">delegate: Delegate *</text><rect fill="none" height="6" style="stroke: #C82930; stroke-width: 1.0;" width="6" x="403.5" y="472.1904"/><text fill="#000000" font-family="SF Mono" font-size="11" lengthAdjust="spacingAndGlyphs" textLength="154" x="415.5" y="477.6006">transport: Transport *</text><line style="stroke: #A80036; stroke-width: 1.5;" x1="396.5" x2="679.5" y1="484.2539" y2="484.2539"/><rect fill="#F24D5C" height="6" style="stroke: #C82930; stroke-width: 1.0;" width="6" x="403.5" y="493.3174"/><text fill="#000000" font-family="SF Mono" font-size="11" lengthAdjust="spacingAndGlyphs" textLength="259" x="415.5" y="498.7275">transport_interfaceReady(Transport *)</text><ellipse cx="406.5" cy="509.4443" fill="#84BE84" rx="3" ry="3" style="stroke: #038048; stroke-width: 1.0;"/><text fill="#000000" font-family="SF Mono" font-size="11" lengthAdjust="spacingAndGlyphs" textLength="49" x="415.5" y="511.8545">greet()</text><!--class RDTP::Delegate--><rect fill="#FEFECE" filter="url(#fyk8kiiyhxksr)" height="61.127" id="RDTP::Delegate" style="stroke: #A80036; stroke-width: 1.5;" width="579" x="248.5" y="658"/><ellipse cx="484.75" cy="674" fill="#ADD1B2" rx="11" ry="11" style="stroke: #A80036; stroke-width: 1.0;"/><path d="M487.7231,679.6431 Q487.1421,679.9419 486.5029,680.0913 Q485.8638,680.2407 485.1582,680.2407 Q482.6514,680.2407 481.3315,678.5889 Q480.0117,676.937 480.0117,673.8159 Q480.0117,670.6865 481.3315,669.0347 Q482.6514,667.3828 485.1582,667.3828 Q485.8638,667.3828 486.5112,667.5322 Q487.1587,667.6816 487.7231,667.9805 L487.7231,670.7031 Q487.0923,670.1221 486.4988,669.8523 Q485.9053,669.5825 485.2744,669.5825 Q483.9297,669.5825 483.2449,670.6492 Q482.5601,671.7158 482.5601,673.8159 Q482.5601,675.9077 483.2449,676.9744 Q483.9297,678.041 485.2744,678.041 Q485.9053,678.041 486.4988,677.7712 Q487.0923,677.5015 487.7231,676.9204 Z "/><text fill="#000000" font-family="SF Mono" font-size="12" lengthAdjust="spacingAndGlyphs" textLength="98" x="505.25" y="678.2656">RDTP::Delegate</text><line style="stroke: #A80036; stroke-width: 1.5;" x1="249.5" x2="826.5" y1="690" y2="690"/><line style="stroke: #A80036; stroke-width: 1.5;" x1="249.5" x2="826.5" y1="698" y2="698"/><ellipse cx="259.5" cy="710.0635" fill="#84BE84" rx="3" ry="3" style="stroke: #038048; stroke-width: 1.0;"/><text fill="#000000" font-family="SF Mono" font-size="11" font-style="italic" lengthAdjust="spacingAndGlyphs" textLength="553" x="268.5" y="712.4736">application_didReceiveCommand(RDTP *, RDTPPacket *, Transport::Header &amp;&amp;source)</text><!--class RDTPv2--><rect fill="#FEFECE" filter="url(#fyk8kiiyhxksr)" height="74.2539" id="RDTPv2" style="stroke: #A80036; stroke-width: 1.5;" width="362" x="716" y="431.5"/><ellipse cx="871.75" cy="447.5" fill="#ADD1B2" rx="11" ry="11" style="stroke: #A80036; stroke-width: 1.0;"/><path d="M874.7231,453.1431 Q874.1421,453.4419 873.5029,453.5913 Q872.8638,453.7407 872.1582,453.7407 Q869.6514,453.7407 868.3315,452.0889 Q867.0117,450.437 867.0117,447.3159 Q867.0117,444.1865 868.3315,442.5347 Q869.6514,440.8828 872.1582,440.8828 Q872.8638,440.8828 873.5112,441.0322 Q874.1587,441.1816 874.7231,441.4805 L874.7231,444.2031 Q874.0923,443.6221 873.4988,443.3523 Q872.9053,443.0825 872.2744,443.0825 Q870.9297,443.0825 870.2449,444.1492 Q869.5601,445.2158 869.5601,447.3159 Q869.5601,449.4077 870.2449,450.4744 Q870.9297,451.541 872.2744,451.541 Q872.9053,451.541 873.4988,451.2712 Q874.0923,451.0015 874.7231,450.4204 Z "/><text fill="#000000" font-family="SF Mono" font-size="12" lengthAdjust="spacingAndGlyphs" textLength="42" x="892.25" y="451.7656">RDTPv2</text><line style="stroke: #A80036; stroke-width: 1.5;" x1="717" x2="1077" y1="463.5" y2="463.5"/><line style="stroke: #A80036; stroke-width: 1.5;" x1="717" x2="1077" y1="471.5" y2="471.5"/><rect fill="#F24D5C" height="6" style="stroke: #C82930; stroke-width: 1.0;" width="6" x="724" y="480.5635"/><text fill="#000000" font-family="SF Mono" font-size="11" lengthAdjust="spacingAndGlyphs" textLength="329" x="736" y="485.9736">transport_didReceivePacket(Transport *, Packet)</text><ellipse cx="727" cy="496.6904" fill="#84BE84" rx="3" ry="3" style="stroke: #038048; stroke-width: 1.0;"/><text fill="#000000" font-family="SF Mono" font-size="11" lengthAdjust="spacingAndGlyphs" textLength="336" x="736" y="499.1006">sendDataTo(Transport::Header &amp;, uint8_t *, int);</text><!--class AppDelegate--><rect fill="#FEFECE" filter="url(#fyk8kiiyhxksr)" height="74.2539" id="AppDelegate" style="stroke: #A80036; stroke-width: 1.5;" width="621" x="179.5" y="884.5"/><ellipse cx="447.25" cy="900.5" fill="#ADD1B2" rx="11" ry="11" style="stroke: #A80036; stroke-width: 1.0;"/><path d="M450.2231,906.1431 Q449.6421,906.4419 449.0029,906.5913 Q448.3638,906.7407 447.6582,906.7407 Q445.1514,906.7407 443.8315,905.0889 Q442.5117,903.437 442.5117,900.3159 Q442.5117,897.1865 443.8315,895.5347 Q445.1514,893.8828 447.6582,893.8828 Q448.3638,893.8828 449.0112,894.0322 Q449.6587,894.1816 450.2231,894.4805 L450.2231,897.2031 Q449.5923,896.6221 448.9988,896.3523 Q448.4053,896.0825 447.7744,896.0825 Q446.4297,896.0825 445.7449,897.1492 Q445.0601,898.2158 445.0601,900.3159 Q445.0601,902.4077 445.7449,903.4744 Q446.4297,904.541 447.7744,904.541 Q448.4053,904.541 448.9988,904.2712 Q449.5923,904.0015 450.2231,903.4204 Z "/><text fill="#000000" font-family="SF Mono" font-size="12" lengthAdjust="spacingAndGlyphs" textLength="77" x="467.75" y="904.7656">AppDelegate</text><line style="stroke: #A80036; stroke-width: 1.5;" x1="180.5" x2="799.5" y1="916.5" y2="916.5"/><line style="stroke: #A80036; stroke-width: 1.5;" x1="180.5" x2="799.5" y1="924.5" y2="924.5"/><rect fill="#F24D5C" height="6" style="stroke: #C82930; stroke-width: 1.0;" width="6" x="187.5" y="933.5635"/><text fill="#000000" font-family="SF Mono" font-size="11" lengthAdjust="spacingAndGlyphs" textLength="595" x="199.5" y="938.9736">application_didReceiveCommand(RDTP *, RDTPPacket *packet, Transport::Header &amp;&amp;source)</text><rect fill="#F24D5C" height="6" style="stroke: #C82930; stroke-width: 1.0;" width="6" x="187.5" y="946.6904"/><text fill="#000000" font-family="SF Mono" font-size="11" lengthAdjust="spacingAndGlyphs" textLength="462" x="199.5" y="952.1006">videoConverter_imageAvailable(VideoConverter *, uint8_t *, size_t)</text><!--class VideoConverter--><rect fill="#FEFECE" filter="url(#fyk8kiiyhxksr)" height="218.6504" id="VideoConverter" style="stroke: #A80036; stroke-width: 1.5;" width="341" x="909.5" y="579"/><ellipse cx="1026.75" cy="595" fill="#ADD1B2" rx="11" ry="11" style="stroke: #A80036; stroke-width: 1.0;"/><path d="M1029.7231,600.6431 Q1029.1421,600.9419 1028.5029,601.0913 Q1027.8638,601.2407 1027.1582,601.2407 Q1024.6514,601.2407 1023.3315,599.5889 Q1022.0117,597.937 1022.0117,594.8159 Q1022.0117,591.6865 1023.3315,590.0347 Q1024.6514,588.3828 1027.1582,588.3828 Q1027.8638,588.3828 1028.5112,588.5322 Q1029.1587,588.6816 1029.7231,588.9805 L1029.7231,591.7031 Q1029.0923,591.1221 1028.4988,590.8523 Q1027.9053,590.5825 1027.2744,590.5825 Q1025.9297,590.5825 1025.2449,591.6492 Q1024.5601,592.7158 1024.5601,594.8159 Q1024.5601,596.9077 1025.2449,597.9744 Q1025.9297,599.041 1027.2744,599.041 Q1027.9053,599.041 1028.4988,598.7712 Q1029.0923,598.5015 1029.7231,597.9204 Z "/><text fill="#000000" font-family="SF Mono" font-size="12" lengthAdjust="spacingAndGlyphs" textLength="98" x="1047.25" y="599.2656">VideoConverter</text><line style="stroke: #A80036; stroke-width: 1.5;" x1="910.5" x2="1249.5" y1="611" y2="611"/><rect fill="none" height="6" style="stroke: #C82930; stroke-width: 1.0;" width="6" x="917.5" y="620.0635"/><text fill="#000000" font-family="SF Mono" font-size="11" lengthAdjust="spacingAndGlyphs" textLength="133" x="929.5" y="625.4736">Jcu: JPEG_Converter</text><rect fill="none" height="6" style="stroke: #C82930; stroke-width: 1.0;" width="6" x="917.5" y="633.1904"/><text fill="#000000" font-family="SF Mono" font-size="11" lengthAdjust="spacingAndGlyphs" textLength="140" x="929.5" y="638.6006">display: DisplayBase</text><rect fill="none" height="6" style="stroke: #C82930; stroke-width: 1.0;" width="6" x="917.5" y="646.3174"/><text fill="#000000" font-family="SF Mono" font-size="11" lengthAdjust="spacingAndGlyphs" textLength="140" x="929.5" y="651.7275">delegate: Delegate *</text><rect fill="none" height="6" style="stroke: #C82930; stroke-width: 1.0;" width="6" x="917.5" y="659.4443"/><text fill="#000000" font-family="SF Mono" font-size="11" lengthAdjust="spacingAndGlyphs" textLength="140" x="929.5" y="664.8545">thread: rtos::Thread</text><line style="stroke: #A80036; stroke-width: 1.5;" x1="910.5" x2="1249.5" y1="671.5078" y2="671.5078"/><rect fill="#F24D5C" height="6" style="stroke: #C82930; stroke-width: 1.0;" width="6" x="917.5" y="680.5713"/><text fill="#000000" font-family="SF Mono" font-size="11" lengthAdjust="spacingAndGlyphs" textLength="126" x="929.5" y="685.9814">waitVsync(int32_t)</text><rect fill="#F24D5C" height="6" style="stroke: #C82930; stroke-width: 1.0;" width="6" x="917.5" y="693.6982"/><text fill="#000000" font-family="SF Mono" font-size="11" lengthAdjust="spacingAndGlyphs" textLength="259" x="929.5" y="699.1084">vsyncHandler(DisplayBase::int_type_t)</text><rect fill="#F24D5C" height="6" style="stroke: #C82930; stroke-width: 1.0;" width="6" x="917.5" y="706.8252"/><text fill="#000000" font-family="SF Mono" font-size="11" lengthAdjust="spacingAndGlyphs" textLength="266" x="929.5" y="712.2354">vfieldHandler(DisplayBase::int_type_t)</text><rect fill="#F24D5C" height="6" style="stroke: #C82930; stroke-width: 1.0;" width="6" x="917.5" y="719.9521"/><text fill="#000000" font-family="SF Mono" font-size="11" lengthAdjust="spacingAndGlyphs" textLength="315" x="929.5" y="725.3623">jcuHandler(JPEG_Converter::jpeg_conv_error_t)</text><rect fill="#F24D5C" height="6" style="stroke: #C82930; stroke-width: 1.0;" width="6" x="917.5" y="733.0791"/><text fill="#000000" font-family="SF Mono" font-size="11" lengthAdjust="spacingAndGlyphs" textLength="105" x="929.5" y="738.4893">readAndNotify()</text><ellipse cx="920.5" cy="749.2061" fill="#84BE84" rx="3" ry="3" style="stroke: #038048; stroke-width: 1.0;"/><text fill="#000000" font-family="SF Mono" font-size="11" lengthAdjust="spacingAndGlyphs" text-decoration="underline" textLength="203" x="929.5" y="751.6162">singleton(): VideoConverter *</text><line style="stroke: #000000; stroke-width: 1.0;" x1="929.5" x2="1132.5" y1="753.6162" y2="753.6162"/><ellipse cx="920.5" cy="762.333" fill="#84BE84" rx="3" ry="3" style="stroke: #038048; stroke-width: 1.0;"/><text fill="#000000" font-family="SF Mono" font-size="11" lengthAdjust="spacingAndGlyphs" textLength="196" x="929.5" y="764.7432">initWithDelegate(Delegate *)</text><ellipse cx="920.5" cy="775.46" fill="#84BE84" rx="3" ry="3" style="stroke: #038048; stroke-width: 1.0;"/><text fill="#000000" font-family="SF Mono" font-size="11" lengthAdjust="spacingAndGlyphs" textLength="49" x="929.5" y="777.8701">start()</text><ellipse cx="920.5" cy="788.5869" fill="#84BE84" rx="3" ry="3" style="stroke: #038048; stroke-width: 1.0;"/><text fill="#000000" font-family="SF Mono" font-size="11" lengthAdjust="spacingAndGlyphs" textLength="42" x="929.5" y="790.9971">stop()</text><!--class VideoConverter::Delegate--><rect fill="#FEFECE" filter="url(#fyk8kiiyhxksr)" height="61.127" id="VideoConverter::Delegate" style="stroke: #A80036; stroke-width: 1.5;" width="488" x="836" y="891"/><ellipse cx="991.75" cy="907" fill="#ADD1B2" rx="11" ry="11" style="stroke: #A80036; stroke-width: 1.0;"/><path d="M994.7231,912.6431 Q994.1421,912.9419 993.5029,913.0913 Q992.8638,913.2407 992.1582,913.2407 Q989.6514,913.2407 988.3315,911.5889 Q987.0117,909.937 987.0117,906.8159 Q987.0117,903.6865 988.3315,902.0347 Q989.6514,900.3828 992.1582,900.3828 Q992.8638,900.3828 993.5112,900.5322 Q994.1587,900.6816 994.7231,900.9805 L994.7231,903.7031 Q994.0923,903.1221 993.4988,902.8523 Q992.9053,902.5825 992.2744,902.5825 Q990.9297,902.5825 990.2449,903.6492 Q989.5601,904.7158 989.5601,906.8159 Q989.5601,908.9077 990.2449,909.9744 Q990.9297,911.041 992.2744,911.041 Q992.9053,911.041 993.4988,910.7712 Q994.0923,910.5015 994.7231,909.9204 Z "/><text fill="#000000" font-family="SF Mono" font-size="12" lengthAdjust="spacingAndGlyphs" textLength="168" x="1012.25" y="911.2656">VideoConverter::Delegate</text><line style="stroke: #A80036; stroke-width: 1.5;" x1="837" x2="1323" y1="923" y2="923"/><line style="stroke: #A80036; stroke-width: 1.5;" x1="837" x2="1323" y1="931" y2="931"/><ellipse cx="847" cy="943.0635" fill="#84BE84" rx="3" ry="3" style="stroke: #038048; stroke-width: 1.0;"/><text fill="#000000" font-family="SF Mono" font-size="11" font-style="italic" lengthAdjust="spacingAndGlyphs" textLength="462" x="856" y="945.4736">videoConverter_imageAvailable(VideoConverter *, uint8_t *, size_t)</text><!--class GCMotor--><rect fill="#FEFECE" filter="url(#fyk8kiiyhxksr)" height="126.7617" id="GCMotor" style="stroke: #A80036; stroke-width: 1.5;" width="138" x="6" y="858"/><ellipse cx="46.65" cy="874" fill="#ADD1B2" rx="11" ry="11" style="stroke: #A80036; stroke-width: 1.0;"/><path d="M49.6231,879.6431 Q49.0421,879.9419 48.4029,880.0913 Q47.7638,880.2407 47.0582,880.2407 Q44.5514,880.2407 43.2315,878.5889 Q41.9117,876.937 41.9117,873.8159 Q41.9117,870.6865 43.2315,869.0347 Q44.5514,867.3828 47.0582,867.3828 Q47.7638,867.3828 48.4112,867.5322 Q49.0587,867.6816 49.6231,867.9805 L49.6231,870.7031 Q48.9923,870.1221 48.3988,869.8523 Q47.8053,869.5825 47.1744,869.5825 Q45.8297,869.5825 45.1449,870.6492 Q44.4601,871.7158 44.4601,873.8159 Q44.4601,875.9077 45.1449,876.9744 Q45.8297,878.041 47.1744,878.041 Q47.8053,878.041 48.3988,877.7712 Q48.9923,877.5015 49.6231,876.9204 Z "/><text fill="#000000" font-family="SF Mono" font-size="12" lengthAdjust="spacingAndGlyphs" textLength="49" x="66.35" y="878.2656">GCMotor</text><line style="stroke: #A80036; stroke-width: 1.5;" x1="7" x2="143" y1="890" y2="890"/><rect fill="none" height="6" style="stroke: #C82930; stroke-width: 1.0;" width="6" x="14" y="899.0635"/><text fill="#000000" font-family="SF Mono" font-size="11" lengthAdjust="spacingAndGlyphs" textLength="112" x="26" y="904.4736">digital1: gpio_t</text><rect fill="none" height="6" style="stroke: #C82930; stroke-width: 1.0;" width="6" x="14" y="912.1904"/><text fill="#000000" font-family="SF Mono" font-size="11" lengthAdjust="spacingAndGlyphs" textLength="112" x="26" y="917.6006">digital2: gpio_t</text><rect fill="none" height="6" style="stroke: #C82930; stroke-width: 1.0;" width="6" x="14" y="925.3174"/><text fill="#000000" font-family="SF Mono" font-size="11" lengthAdjust="spacingAndGlyphs" textLength="112" x="26" y="930.7275">analog: pwmout_t</text><line style="stroke: #A80036; stroke-width: 1.5;" x1="7" x2="143" y1="937.3809" y2="937.3809"/><ellipse cx="17" cy="949.4443" fill="#84BE84" rx="3" ry="3" style="stroke: #038048; stroke-width: 1.0;"/><text fill="#000000" font-family="SF Mono" font-size="11" lengthAdjust="spacingAndGlyphs" textLength="105" x="26" y="951.8545">forward(int8_t)</text><ellipse cx="17" cy="962.5713" fill="#84BE84" rx="3" ry="3" style="stroke: #038048; stroke-width: 1.0;"/><text fill="#000000" font-family="SF Mono" font-size="11" lengthAdjust="spacingAndGlyphs" textLength="42" x="26" y="964.9814">hold()</text><ellipse cx="17" cy="975.6982" fill="#84BE84" rx="3" ry="3" style="stroke: #038048; stroke-width: 1.0;"/><text fill="#000000" font-family="SF Mono" font-size="11" lengthAdjust="spacingAndGlyphs" textLength="42" x="26" y="978.1084">free()</text><!--class SBRS5314--><rect fill="#FEFECE" filter="url(#fyk8kiiyhxksr)" height="87.3809" id="SBRS5314" style="stroke: #A80036; stroke-width: 1.5;" width="152" x="61" y="645"/><ellipse cx="104.8" cy="661" fill="#ADD1B2" rx="11" ry="11" style="stroke: #A80036; stroke-width: 1.0;"/><path d="M107.7731,666.6431 Q107.1921,666.9419 106.5529,667.0913 Q105.9138,667.2407 105.2082,667.2407 Q102.7014,667.2407 101.3815,665.5889 Q100.0617,663.937 100.0617,660.8159 Q100.0617,657.6865 101.3815,656.0347 Q102.7014,654.3828 105.2082,654.3828 Q105.9138,654.3828 106.5612,654.5322 Q107.2087,654.6816 107.7731,654.9805 L107.7731,657.7031 Q107.1423,657.1221 106.5488,656.8523 Q105.9553,656.5825 105.3244,656.5825 Q103.9797,656.5825 103.2949,657.6492 Q102.6101,658.7158 102.6101,660.8159 Q102.6101,662.9077 103.2949,663.9744 Q103.9797,665.041 105.3244,665.041 Q105.9553,665.041 106.5488,664.7712 Q107.1423,664.5015 107.7731,663.9204 Z "/><text fill="#000000" font-family="SF Mono" font-size="12" lengthAdjust="spacingAndGlyphs" textLength="56" x="125.2" y="665.2656">SBRS5314</text><line style="stroke: #A80036; stroke-width: 1.5;" x1="62" x2="212" y1="677" y2="677"/><rect fill="none" height="6" style="stroke: #C82930; stroke-width: 1.0;" width="6" x="69" y="686.0635"/><text fill="#000000" font-family="SF Mono" font-size="11" lengthAdjust="spacingAndGlyphs" textLength="91" x="81" y="691.4736">pwm: pwmout_t</text><line style="stroke: #A80036; stroke-width: 1.5;" x1="62" x2="212" y1="698.127" y2="698.127"/><ellipse cx="72" cy="710.1904" fill="#84BE84" rx="3" ry="3" style="stroke: #038048; stroke-width: 1.0;"/><text fill="#000000" font-family="SF Mono" font-size="11" lengthAdjust="spacingAndGlyphs" textLength="126" x="81" y="712.6006">operator = (float)</text><ellipse cx="72" cy="723.3174" fill="#84BE84" rx="3" ry="3" style="stroke: #038048; stroke-width: 1.0;"/><text fill="#000000" font-family="SF Mono" font-size="11" lengthAdjust="spacingAndGlyphs" textLength="49" x="81" y="725.7275">relux()</text><!--link Transport::Header to Transport--><path d="M278.8319,120.5 C280.2502,120.5 281.6685,120.5 283.0868,120.5 " fill="none" id="Transport::Header-Transport" style="stroke: #A80036; stroke-width: 1.0;"/><ellipse cx="290.2831" cy="120.4999" fill="#FFFFFF" rx="8" ry="8" style="stroke: #A80036; stroke-width: 1.0;"/><line style="stroke: #A80036; stroke-width: 1.0;" x1="282.2831" x2="298.2831" y1="120.4998" y2="120.5"/><line style="stroke: #A80036; stroke-width: 1.0;" x1="290.2832" x2="290.283" y1="112.4999" y2="128.4999"/><polygon fill="#A80036" points="263.7031,120.5,272.7031,124.5,268.7031,120.5,272.7031,116.5,263.7031,120.5" style="stroke: #A80036; stroke-width: 1.0;"/><line style="stroke: #A80036; stroke-width: 1.0;" x1="268.7031" x2="278.7032" y1="120.5" y2="120.4999"/><!--link Transport to Transport::Packet--><path d="M341.4663,182.9749 C328.7026,198.7546 314.9237,215.7895 301.9122,231.8757 " fill="none" id="Transport-Transport::Packet" style="stroke: #A80036; stroke-width: 1.0;"/><polygon fill="#A80036" points="292.1413,243.9555,300.9113,239.4736,295.2858,240.068,294.6914,234.4425,292.1413,243.9555" style="stroke: #A80036; stroke-width: 1.0;"/><line style="stroke: #A80036; stroke-width: 1.0;" x1="295.2858" x2="301.5747" y1="240.068" y2="232.293"/><ellipse cx="345.9112" cy="177.4796" fill="#FFFFFF" rx="8" ry="8" style="stroke: #A80036; stroke-width: 1.0;"/><line style="stroke: #A80036; stroke-width: 1.0;" x1="340.88" x2="350.9423" y1="183.6996" y2="171.2597"/><line style="stroke: #A80036; stroke-width: 1.0;" x1="339.6912" x2="352.1311" y1="172.4485" y2="182.5108"/><!--link Transport::Packet to Packet::Protocol--><path d="M246,373.2322 C246,387.6211 246,402.4723 246,416.0432 " fill="none" id="Transport::Packet-Packet::Protocol" style="stroke: #A80036; stroke-width: 1.0;"/><polygon fill="#A80036" points="246,431.2816,250,422.2816,246,426.2816,242,422.2816,246,431.2816" style="stroke: #A80036; stroke-width: 1.0;"/><line style="stroke: #A80036; stroke-width: 1.0;" x1="246" x2="246.0001" y1="426.2816" y2="416.2817"/><ellipse cx="246.0001" cy="366.1755" fill="#FFFFFF" rx="8" ry="8" style="stroke: #A80036; stroke-width: 1.0;"/><line style="stroke: #A80036; stroke-width: 1.0;" x1="246.0002" x2="246" y1="374.1755" y2="358.1755"/><line style="stroke: #A80036; stroke-width: 1.0;" x1="238.0001" x2="254.0001" y1="366.1756" y2="366.1754"/><!--link Transport to EthernetTransport--><path d="M461.7274,57.8085 C479.6846,45.1807 499.8158,33.7288 520.5,27 C599.5343,1.2892 627.7187,3.7103 707.5,27 C729.8021,33.5104 751.9419,44.5633 771.9993,56.8371 " fill="none" id="Transport-EthernetTransport" style="stroke: #A80036; stroke-width: 1.0;"/><polygon fill="none" points="465.7722,63.5245,445.5631,69.8958,457.3881,52.3126,465.7722,63.5245" style="stroke: #A80036; stroke-width: 1.0;"/><!--link Transport to XbeeTransport--><path d="M505.8,120.5 C510.6999,120.5 515.5997,120.5 520.4996,120.5 " fill="none" id="Transport-XbeeTransport" style="stroke: #A80036; stroke-width: 1.0;"/><polygon fill="none" points="505.6563,127.4999,485.6563,120.5,505.6562,113.4999,505.6563,127.4999" style="stroke: #A80036; stroke-width: 1.0;"/><!--link Transport to Transport::Delegate--><path d="M442.5077,182.9428 C460.8077,205.5671 481.1977,230.7753 498.4219,252.0696 " fill="none" id="Transport-Transport::Delegate" style="stroke: #A80036; stroke-width: 1.0;"/><polygon fill="#A80036" points="507.8939,263.7798,505.3438,254.2668,504.7494,259.8923,499.1239,259.2979,507.8939,263.7798" style="stroke: #A80036; stroke-width: 1.0;"/><line style="stroke: #A80036; stroke-width: 1.0;" x1="504.7494" x2="498.4606" y1="259.8923" y2="252.1174"/><ellipse cx="438.0888" cy="177.4796" fill="#FFFFFF" rx="8" ry="8" style="stroke: #A80036; stroke-width: 1.0;"/><line style="stroke: #A80036; stroke-width: 1.0;" x1="443.12" x2="433.0577" y1="183.6996" y2="171.2597"/><line style="stroke: #A80036; stroke-width: 1.0;" x1="431.8689" x2="444.3088" y1="182.5108" y2="172.4485"/><!--link Transport::Delegate to RDTP--><path d="M538,358.4285 C538,377.7033 538,399.0487 538,417.7721 " fill="none" id="Transport::Delegate-RDTP" style="stroke: #A80036; stroke-width: 1.0;"/><polygon fill="none" points="531.0001,358.1737,538,338.1737,545.0001,358.1736,531.0001,358.1737" style="stroke: #A80036; stroke-width: 1.0;"/><!--link RDTP to RDTP::Delegate--><path d="M538,534.378 C538,569.1858 538,611.0589 538,642.369 " fill="none" id="RDTP-RDTP::Delegate" style="stroke: #A80036; stroke-width: 1.0;"/><polygon fill="#A80036" points="538,657.686,542,648.686,538,652.686,534,648.686,538,657.686" style="stroke: #A80036; stroke-width: 1.0;"/><line style="stroke: #A80036; stroke-width: 1.0;" x1="538" x2="538.0001" y1="652.686" y2="642.686"/><ellipse cx="538.0001" cy="527.2487" fill="#FFFFFF" rx="8" ry="8" style="stroke: #A80036; stroke-width: 1.0;"/><line style="stroke: #A80036; stroke-width: 1.0;" x1="538.0002" x2="538" y1="535.2487" y2="519.2487"/><line style="stroke: #A80036; stroke-width: 1.0;" x1="530.0001" x2="546.0001" y1="527.2488" y2="527.2486"/><!--link RDTP to RDTPv2--><path d="M700.9611,468.5 C705.8923,468.5 710.8234,468.5 715.7546,468.5 " fill="none" id="RDTP-RDTPv2" style="stroke: #A80036; stroke-width: 1.0;"/><polygon fill="none" points="700.6885,475.4999,680.6885,468.5,700.6884,461.4999,700.6885,475.4999" style="stroke: #A80036; stroke-width: 1.0;"/><!--link RDTP::Delegate to AppDelegate--><path d="M527.5468,739.2417 C518.5425,782.9498 505.7553,845.021 497.6704,884.2664 " fill="none" id="RDTP::Delegate-AppDelegate" style="stroke: #A80036; stroke-width: 1.0;"/><polygon fill="none" points="520.7344,737.6168,531.626,719.4406,534.4465,740.4417,520.7344,737.6168" style="stroke: #A80036; stroke-width: 1.0;"/><!--link VideoConverter to VideoConverter::Delegate--><path d="M1080,813.3284 C1080,835.5878 1080,857.4397 1080,875.6112 " fill="none" id="VideoConverter-VideoConverter::Delegate" style="stroke: #A80036; stroke-width: 1.0;"/><polygon fill="#A80036" points="1080,890.8597,1084,881.8597,1080,885.8597,1076,881.8597,1080,890.8597" style="stroke: #A80036; stroke-width: 1.0;"/><line style="stroke: #A80036; stroke-width: 1.0;" x1="1080" x2="1080.0001" y1="885.8597" y2="875.8597"/><ellipse cx="1080" cy="806.1773" fill="#FFFFFF" rx="8" ry="8" style="stroke: #A80036; stroke-width: 1.0;"/><line style="stroke: #A80036; stroke-width: 1.0;" x1="1080" x2="1080" y1="814.1773" y2="798.1773"/><line style="stroke: #A80036; stroke-width: 1.0;" x1="1072" x2="1088" y1="806.1773" y2="806.1773"/><!--link AppDelegate to VideoConverter::Delegate--><path d="M800.5566,921.5 C805.5988,921.5 810.6409,921.5 815.6831,921.5 " fill="none" id="AppDelegate-VideoConverter::Delegate" style="stroke: #A80036; stroke-width: 1.0;"/><polygon fill="none" points="815.76,914.4999,835.76,921.5,815.7599,928.4999,815.76,914.4999" style="stroke: #A80036; stroke-width: 1.0;"/><!--link GCMotor to AppDelegate--><path d="M157.468,921.5 C160.4395,921.5 163.4111,921.5 166.3826,921.5 " fill="none" id="GCMotor-AppDelegate" style="stroke: #A80036; stroke-width: 1.0;"/><polygon fill="#A80036" points="179.4117,921.5,173.4117,917.5,167.4117,921.5,173.4117,925.5,179.4117,921.5" style="stroke: #A80036; stroke-width: 1.0;"/><polygon fill="#A80036" points="144.3018,921.5,153.3018,925.5,149.3018,921.5,153.3018,917.5,144.3018,921.5" style="stroke: #A80036; stroke-width: 1.0;"/><line style="stroke: #A80036; stroke-width: 1.0;" x1="149.3018" x2="157.3018" y1="921.5" y2="921.4999"/><!--link SBRS5314 to AppDelegate--><path d="M175.638,742.2863 C191.2902,761.5323 210.508,782.3188 231,798 C274.49,831.2801 328.3886,858.7514 375.737,879.2658 " fill="none" id="SBRS5314-AppDelegate" style="stroke: #A80036; stroke-width: 1.0;"/><polygon fill="#A80036" points="387.9418,884.4642,383.9891,878.4329,376.9015,879.7618,380.8542,885.7931,387.9418,884.4642" style="stroke: #A80036; stroke-width: 1.0;"/><polygon fill="#A80036" points="167.5576,732.0973,170.0158,741.6344,170.6644,736.0149,176.284,736.6635,167.5576,732.0973" style="stroke: #A80036; stroke-width: 1.0;"/><line style="stroke: #A80036; stroke-width: 1.0;" x1="170.6644" x2="175.6355" y1="736.0149" y2="742.2831"/><!--
@startuml

skinparam defaultFontName SF Mono

class Transport {
    {abstract} + init()
    {abstract} + readMyAddress(): Header
    {abstract} + sendPacket(Packet)
    + delegate: Delegate *
}

class Transport::Header {
    + address: uint32_t
    + port: uint16_t
}
Transport +-l> Transport::Header

class Transport::Packet {
    + source: Header
    + destination: Header
    + protocol: Protocol
    + content: uint8_t *
    + contentLength: int
}
Transport +-d-> Transport::Packet

class Packet::Protocol {
    + TCP
    + UDP
}
Transport::Packet +-d-> Packet::Protocol

class EthernetTransport {
    - interface: EthernetInterface
    - socket: UDPSocket
    + init()
    + readMyAddress(): Header
    + sendPacket(Packet)
    + run()
}
Transport <|-r- EthernetTransport

class XbeeTransport {
    + init()
    + readMyAddress(): Header
    + sendPacket(Packet)
}
Transport <|-r- XbeeTransport

class Transport::Delegate {
    {abstract} + transport_interfaceReadet(Transport *)
    {abstract} + transport_didReceivePacket(Transport *, Packet)
}
Transport +-d-> Transport::Delegate

class RDTP {
    - transport_interfaceReady(Transport *)
    + delegate: Delegate *
    + greet()
    - transport: Transport *
}
Transport::Delegate <|-d- RDTP

class RDTP::Delegate {
    {abstract} + application_didReceiveCommand(RDTP *, RDTPPacket *, Transport::Header &&source)
}
RDTP +-d-> RDTP::Delegate

class RDTPv2 {
    - transport_didReceivePacket(Transport *, Packet)
    + sendDataTo(Transport::Header &, uint8_t *, int);
}
RDTP <|-r- RDTPv2

class AppDelegate {
    - application_didReceiveCommand(RDTP *, RDTPPacket *packet, Transport::Header &&source)
    - videoConverter_imageAvailable(VideoConverter *, uint8_t *, size_t)
}
RDTP::Delegate <|-d- AppDelegate

class VideoConverter {
    - Jcu: JPEG_Converter
    - display: DisplayBase
    - delegate: Delegate *
    - thread: rtos::Thread
    - waitVsync(int32_t)
    - vsyncHandler(DisplayBase::int_type_t)
    - vfieldHandler(DisplayBase::int_type_t)
    - jcuHandler(JPEG_Converter::jpeg_conv_error_t)
    - readAndNotify()
    {static} + singleton(): VideoConverter *
    + initWithDelegate(Delegate *)
    + start()
    + stop()
}

class VideoConverter::Delegate {
    {abstract} + videoConverter_imageAvailable(VideoConverter *, uint8_t *, size_t)
}
VideoConverter +-d-> VideoConverter::Delegate
VideoConverter::Delegate <|-l- AppDelegate

class GCMotor {
    - digital1: gpio_t
    - digital2: gpio_t
    - analog: pwmout_t
    + forward(int8_t)
    + hold()
    + free()
}
AppDelegate *-l> GCMotor

class SBRS5314 {
    - pwm: pwmout_t
    + operator = (float)
    + relux()
}
AppDelegate *-u-> SBRS5314

@enduml

PlantUML version 1.2017.16(Sun Sep 03 19:53:37 JST 2017)
(GPL source distribution)
Java Runtime: Java(TM) SE Runtime Environment
JVM: Java HotSpot(TM) 64-Bit Server VM
Java Version: 1.8.0_66-b17
Operating System: Mac OS X
OS Version: 10.12.6
Default Encoding: UTF-8
Language: ja
Country: JP
--></g></svg>