<?xml version="1.0" encoding="UTF-8" standalone="no"?><svg xmlns="http://www.w3.org/2000/svg" xmlns:xlink="http://www.w3.org/1999/xlink" contentScriptType="application/ecmascript" contentStyleType="text/css" height="487px" preserveAspectRatio="none" style="width:1203px;height:487px;" version="1.1" viewBox="0 0 1203 487" width="1203px" zoomAndPan="magnify"><defs><filter height="300%" id="ftsn1q4qvrv86" width="300%" x="-1" y="-1"><feGaussianBlur result="blurOut" stdDeviation="2.0"/><feColorMatrix in="blurOut" result="blurOut2" type="matrix" values="0 0 0 0 0 0 0 0 0 0 0 0 0 0 0 0 0 0 .4 0"/><feOffset dx="4.0" dy="4.0" in="blurOut2" result="blurOut3"/><feBlend in="SourceGraphic" in2="blurOut3" mode="normal"/></filter></defs><g><text fill="#000000" font-family="SF Mono" font-size="18" lengthAdjust="spacingAndGlyphs" textLength="242" x="41.5" y="29.9805">EthernetTransport::run</text><line style="stroke: #000000; stroke-width: 2.0;" x1="10" x2="10" y1="12.8418" y2="475.7441"/><ellipse cx="163" cy="44.3223" fill="#000000" filter="url(#ftsn1q4qvrv86)" rx="10" ry="10" style="stroke: none; stroke-width: 1.0;"/><rect fill="#FEFECE" filter="url(#ftsn1q4qvrv86)" height="34.3203" rx="12.5" ry="12.5" style="stroke: #A80036; stroke-width: 1.5;" width="160" x="83" y="118.3223"/><text fill="#000000" font-family="SF Mono" font-size="12" lengthAdjust="spacingAndGlyphs" textLength="140" x="93" y="139.748">socket.receiveFrom()</text><rect fill="#FEFECE" filter="url(#ftsn1q4qvrv86)" height="34.3203" rx="12.5" ry="12.5" style="stroke: #A80036; stroke-width: 1.5;" width="244" x="41" y="172.6426"/><text fill="#000000" font-family="SF Mono" font-size="12" lengthAdjust="spacingAndGlyphs" textLength="224" x="51" y="194.0684">EthernetUtil::endPointToHeader()</text><rect fill="#FEFECE" filter="url(#ftsn1q4qvrv86)" height="34.3203" rx="12.5" ry="12.5" style="stroke: #A80036; stroke-width: 1.5;" width="286" x="20" y="226.9629"/><text fill="#000000" font-family="SF Mono" font-size="12" lengthAdjust="spacingAndGlyphs" textLength="266" x="30" y="248.3887">delegate-&gt;transport_didReceivePacket()</text><polygon fill="#FEFECE" filter="url(#ftsn1q4qvrv86)" points="163,74.3223,175,86.3223,163,98.3223,151,86.3223,163,74.3223" style="stroke: #A80036; stroke-width: 1.5;"/><text fill="#000000" font-family="SF Mono" font-size="18" lengthAdjust="spacingAndGlyphs" textLength="374" x="325" y="29.9805">RDTPv2::transport_didReceivePacket</text><line style="stroke: #000000; stroke-width: 2.0;" x1="315" x2="315" y1="12.8418" y2="475.7441"/><rect fill="#FEFECE" filter="url(#ftsn1q4qvrv86)" height="34.3203" rx="12.5" ry="12.5" style="stroke: #A80036; stroke-width: 1.5;" width="202" x="411.5" y="288.7832"/><text fill="#000000" font-family="SF Mono" font-size="12" lengthAdjust="spacingAndGlyphs" textLength="182" x="421.5" y="310.209">RDTPPacket_initWithBytes()</text><rect fill="#FEFECE" filter="url(#ftsn1q4qvrv86)" height="34.3203" rx="12.5" ry="12.5" style="stroke: #A80036; stroke-width: 1.5;" width="307" x="359" y="343.1035"/><text fill="#000000" font-family="SF Mono" font-size="12" lengthAdjust="spacingAndGlyphs" textLength="287" x="369" y="364.5293">delegate-&gt;application_didReceiveCommand()</text><text fill="#000000" font-family="SF Mono" font-size="18" lengthAdjust="spacingAndGlyphs" textLength="462" x="719" y="29.9805">AppDelegate::application_didReceiveCommand</text><line style="stroke: #000000; stroke-width: 2.0;" x1="709" x2="709" y1="12.8418" y2="475.7441"/><rect fill="#FEFECE" filter="url(#ftsn1q4qvrv86)" height="34.3203" rx="12.5" ry="12.5" style="stroke: #A80036; stroke-width: 1.5;" width="146" x="830.75" y="397.4238"/><text fill="#000000" font-family="SF Mono" font-size="12" lengthAdjust="spacingAndGlyphs" textLength="126" x="840.75" y="418.8496">Process Packets...</text><polygon fill="#FEFECE" filter="url(#ftsn1q4qvrv86)" points="903.75,451.7441,903.75,451.7441,915.75,463.7441,903.75,475.7441,903.75,475.7441,891.75,463.7441,903.75,451.7441" style="stroke: #A80036; stroke-width: 1.5;"/><line style="stroke: #000000; stroke-width: 2.0;" x1="1191" x2="1191" y1="12.8418" y2="475.7441"/><line style="stroke: #A80036; stroke-width: 1.5;" x1="163" x2="163" y1="152.6426" y2="172.6426"/><polygon fill="#A80036" points="159,162.6426,163,172.6426,167,162.6426,163,166.6426" style="stroke: #A80036; stroke-width: 1.0;"/><line style="stroke: #A80036; stroke-width: 1.5;" x1="163" x2="163" y1="206.9629" y2="226.9629"/><polygon fill="#A80036" points="159,216.9629,163,226.9629,167,216.9629,163,220.9629" style="stroke: #A80036; stroke-width: 1.0;"/><line style="stroke: #A80036; stroke-width: 1.5;" x1="163" x2="163" y1="98.3223" y2="118.3223"/><polygon fill="#A80036" points="159,108.3223,163,118.3223,167,108.3223,163,112.3223" style="stroke: #A80036; stroke-width: 1.0;"/><line style="stroke: #A80036; stroke-width: 1.5;" x1="163" x2="163" y1="54.3223" y2="74.3223"/><polygon fill="#A80036" points="159,64.3223,163,74.3223,167,64.3223,163,68.3223" style="stroke: #A80036; stroke-width: 1.0;"/><line style="stroke: #A80036; stroke-width: 1.5;" x1="512.5" x2="512.5" y1="323.1035" y2="343.1035"/><polygon fill="#A80036" points="508.5,333.1035,512.5,343.1035,516.5,333.1035,512.5,337.1035" style="stroke: #A80036; stroke-width: 1.0;"/><line style="stroke: #A80036; stroke-width: 1.5;" x1="915.75" x2="1069.25" y1="463.7441" y2="463.7441"/><polygon fill="#A80036" points="1065.25,281.2832,1069.25,271.2832,1073.25,281.2832,1069.25,277.2832" style="stroke: #A80036; stroke-width: 1.5;"/><line style="stroke: #A80036; stroke-width: 1.5;" x1="1069.25" x2="1069.25" y1="86.3223" y2="463.7441"/><line style="stroke: #A80036; stroke-width: 1.5;" x1="1069.25" x2="175" y1="86.3223" y2="86.3223"/><polygon fill="#A80036" points="185,82.3223,175,86.3223,185,90.3223,181,86.3223" style="stroke: #A80036; stroke-width: 1.0;"/><line style="stroke: #A80036; stroke-width: 1.5;" x1="903.75" x2="903.75" y1="431.7441" y2="451.7441"/><polygon fill="#A80036" points="899.75,441.7441,903.75,451.7441,907.75,441.7441,903.75,445.7441" style="stroke: #A80036; stroke-width: 1.0;"/><line style="stroke: #A80036; stroke-width: 1.5;" x1="163" x2="163" y1="261.2832" y2="271.2832"/><line style="stroke: #A80036; stroke-width: 1.5;" x1="163" x2="512.5" y1="271.2832" y2="271.2832"/><line style="stroke: #A80036; stroke-width: 1.5;" x1="512.5" x2="512.5" y1="271.2832" y2="288.7832"/><polygon fill="#A80036" points="508.5,278.7832,512.5,288.7832,516.5,278.7832,512.5,282.7832" style="stroke: #A80036; stroke-width: 1.0;"/><line style="stroke: #A80036; stroke-width: 1.5;" x1="512.5" x2="512.5" y1="377.4238" y2="382.4238"/><line style="stroke: #A80036; stroke-width: 1.5;" x1="512.5" x2="903.75" y1="382.4238" y2="382.4238"/><line style="stroke: #A80036; stroke-width: 1.5;" x1="903.75" x2="903.75" y1="382.4238" y2="397.4238"/><polygon fill="#A80036" points="899.75,387.4238,903.75,397.4238,907.75,387.4238,903.75,391.4238" style="stroke: #A80036; stroke-width: 1.0;"/><!--
@startuml
skinparam defaultFontName SF Mono

|EthernetTransport::run|
start
repeat
    :socket.receiveFrom();
    :EthernetUtil::endPointToHeader();
    :delegate->transport_didReceivePacket();
    |RDTPv2::transport_didReceivePacket|
    :RDTPPacket_initWithBytes();
    :delegate->application_didReceiveCommand();
    |AppDelegate::application_didReceiveCommand|
    :Process Packets...;

@enduml

PlantUML version 1.2017.16(Sun Sep 03 19:53:37 JST 2017)
(GPL source distribution)
Java Runtime: Java(TM) SE Runtime Environment
JVM: Java HotSpot(TM) 64-Bit Server VM
Java Version: 1.8.0_66-b17
Operating System: Mac OS X
OS Version: 10.12.6
Default Encoding: UTF-8
Language: ja
Country: JP
--></g></svg>