<?xml version="1.0" encoding="UTF-8" standalone="no"?><svg xmlns="http://www.w3.org/2000/svg" xmlns:xlink="http://www.w3.org/1999/xlink" contentScriptType="application/ecmascript" contentStyleType="text/css" height="450px" preserveAspectRatio="none" style="width:607px;height:450px;" version="1.1" viewBox="0 0 607 450" width="607px" zoomAndPan="magnify"><defs><filter height="300%" id="fj5z7ghh5dhxs" width="300%" x="-1" y="-1"><feGaussianBlur result="blurOut" stdDeviation="2.0"/><feColorMatrix in="blurOut" result="blurOut2" type="matrix" values="0 0 0 0 0 0 0 0 0 0 0 0 0 0 0 0 0 0 .4 0"/><feOffset dx="4.0" dy="4.0" in="blurOut2" result="blurOut3"/><feBlend in="SourceGraphic" in2="blurOut3" mode="normal"/></filter></defs><g><rect fill="#FFFFFF" filter="url(#fj5z7ghh5dhxs)" height="29.5137" style="stroke: #A80036; stroke-width: 1.0;" width="10" x="218.5" y="69.707"/><rect fill="#FFFFFF" filter="url(#fj5z7ghh5dhxs)" height="29.5137" style="stroke: #A80036; stroke-width: 1.0;" width="10" x="218.5" y="186.7617"/><rect fill="#FFFFFF" filter="url(#fj5z7ghh5dhxs)" height="88.0273" style="stroke: #A80036; stroke-width: 1.0;" width="10" x="218.5" y="303.8164"/><rect fill="#FFFFFF" filter="url(#fj5z7ghh5dhxs)" height="50.5137" style="stroke: #A80036; stroke-width: 1.0;" width="10" x="223.5" y="341.3301"/><line style="stroke: #A80036; stroke-width: 1.0; stroke-dasharray: 5.0,5.0;" x1="66" x2="66" y1="38.707" y2="409.8711"/><line style="stroke: #A80036; stroke-width: 1.0; stroke-dasharray: 5.0,5.0;" x1="223.5" x2="223.5" y1="38.707" y2="409.8711"/><line style="stroke: #A80036; stroke-width: 1.0; stroke-dasharray: 5.0,5.0;" x1="383" x2="383" y1="38.707" y2="409.8711"/><line style="stroke: #A80036; stroke-width: 1.0; stroke-dasharray: 5.0,5.0;" x1="524" x2="524" y1="38.707" y2="409.8711"/><rect fill="#FEFECE" filter="url(#fj5z7ghh5dhxs)" height="30.707" style="stroke: #A80036; stroke-width: 1.5;" width="113" x="8" y="3"/><text fill="#000000" font-family="SF Mono" font-size="14" lengthAdjust="spacingAndGlyphs" textLength="99" x="15" y="23.3301">AppDelegate</text><rect fill="#FEFECE" filter="url(#fj5z7ghh5dhxs)" height="30.707" style="stroke: #A80036; stroke-width: 1.5;" width="113" x="8" y="408.8711"/><text fill="#000000" font-family="SF Mono" font-size="14" lengthAdjust="spacingAndGlyphs" textLength="99" x="15" y="429.2012">AppDelegate</text><rect fill="#FEFECE" filter="url(#fj5z7ghh5dhxs)" height="30.707" style="stroke: #A80036; stroke-width: 1.5;" width="140" x="151.5" y="3"/><text fill="#000000" font-family="SF Mono" font-size="14" lengthAdjust="spacingAndGlyphs" textLength="126" x="158.5" y="23.3301">VideoConverter</text><rect fill="#FEFECE" filter="url(#fj5z7ghh5dhxs)" height="30.707" style="stroke: #A80036; stroke-width: 1.5;" width="140" x="151.5" y="408.8711"/><text fill="#000000" font-family="SF Mono" font-size="14" lengthAdjust="spacingAndGlyphs" textLength="126" x="158.5" y="429.2012">VideoConverter</text><rect fill="#FEFECE" filter="url(#fj5z7ghh5dhxs)" height="30.707" style="stroke: #A80036; stroke-width: 1.5;" width="113" x="325" y="3"/><text fill="#000000" font-family="SF Mono" font-size="14" lengthAdjust="spacingAndGlyphs" textLength="99" x="332" y="23.3301">DisplayBase</text><rect fill="#FEFECE" filter="url(#fj5z7ghh5dhxs)" height="30.707" style="stroke: #A80036; stroke-width: 1.5;" width="113" x="325" y="408.8711"/><text fill="#000000" font-family="SF Mono" font-size="14" lengthAdjust="spacingAndGlyphs" textLength="99" x="332" y="429.2012">DisplayBase</text><rect fill="#FEFECE" filter="url(#fj5z7ghh5dhxs)" height="30.707" style="stroke: #A80036; stroke-width: 1.5;" width="140" x="452" y="3"/><text fill="#000000" font-family="SF Mono" font-size="14" lengthAdjust="spacingAndGlyphs" textLength="126" x="459" y="23.3301">JPEG_Converter</text><rect fill="#FEFECE" filter="url(#fj5z7ghh5dhxs)" height="30.707" style="stroke: #A80036; stroke-width: 1.5;" width="140" x="452" y="408.8711"/><text fill="#000000" font-family="SF Mono" font-size="14" lengthAdjust="spacingAndGlyphs" textLength="126" x="459" y="429.2012">JPEG_Converter</text><rect fill="#FFFFFF" filter="url(#fj5z7ghh5dhxs)" height="29.5137" style="stroke: #A80036; stroke-width: 1.0;" width="10" x="218.5" y="69.707"/><rect fill="#FFFFFF" filter="url(#fj5z7ghh5dhxs)" height="29.5137" style="stroke: #A80036; stroke-width: 1.0;" width="10" x="218.5" y="186.7617"/><rect fill="#FFFFFF" filter="url(#fj5z7ghh5dhxs)" height="88.0273" style="stroke: #A80036; stroke-width: 1.0;" width="10" x="218.5" y="303.8164"/><rect fill="#FFFFFF" filter="url(#fj5z7ghh5dhxs)" height="50.5137" style="stroke: #A80036; stroke-width: 1.0;" width="10" x="223.5" y="341.3301"/><polygon fill="#A80036" points="206.5,65.707,216.5,69.707,206.5,73.707,210.5,69.707" style="stroke: #A80036; stroke-width: 1.0;"/><line style="stroke: #A80036; stroke-width: 1.0;" x1="66.5" x2="212.5" y1="69.707" y2="69.707"/><text fill="#000000" font-family="SF Mono" font-size="13" lengthAdjust="spacingAndGlyphs" textLength="56" x="73.5" y="65.085">start()</text><polygon fill="#A80036" points="371.5,95.2207,381.5,99.2207,371.5,103.2207,375.5,99.2207" style="stroke: #A80036; stroke-width: 1.0;"/><line style="stroke: #A80036; stroke-width: 1.0;" x1="223.5" x2="377.5" y1="99.2207" y2="99.2207"/><text fill="#000000" font-family="SF Mono" font-size="13" lengthAdjust="spacingAndGlyphs" textLength="104" x="230.5" y="94.5986">Video_Start()</text><line style="stroke: #A80036; stroke-width: 1.0;" x1="383.5" x2="425.5" y1="144.7617" y2="144.7617"/><line style="stroke: #A80036; stroke-width: 1.0;" x1="425.5" x2="425.5" y1="144.7617" y2="157.7617"/><line style="stroke: #A80036; stroke-width: 1.0;" x1="384.5" x2="425.5" y1="157.7617" y2="157.7617"/><polygon fill="#A80036" points="394.5,153.7617,384.5,157.7617,394.5,161.7617,390.5,157.7617" style="stroke: #A80036; stroke-width: 1.0;"/><text fill="#000000" font-family="SF Mono" font-size="13" lengthAdjust="spacingAndGlyphs" textLength="64" x="390.5" y="124.1123">Hardware</text><text fill="#000000" font-family="SF Mono" font-size="13" lengthAdjust="spacingAndGlyphs" textLength="56" x="390.5" y="139.626">reading</text><polygon fill="#A80036" points="239.5,182.7617,229.5,186.7617,239.5,190.7617,235.5,186.7617" style="stroke: #A80036; stroke-width: 1.0;"/><line style="stroke: #A80036; stroke-width: 1.0;" x1="233.5" x2="382.5" y1="186.7617" y2="186.7617"/><text fill="#000000" font-family="SF Mono" font-size="13" lengthAdjust="spacingAndGlyphs" textLength="120" x="245.5" y="182.1396">vfieldHandler()</text><polygon fill="#A80036" points="512,212.2754,522,216.2754,512,220.2754,516,216.2754" style="stroke: #A80036; stroke-width: 1.0;"/><line style="stroke: #A80036; stroke-width: 1.0;" x1="223.5" x2="518" y1="216.2754" y2="216.2754"/><text fill="#000000" font-family="SF Mono" font-size="13" lengthAdjust="spacingAndGlyphs" textLength="64" x="230.5" y="211.6533">encode()</text><line style="stroke: #A80036; stroke-width: 1.0;" x1="524" x2="566" y1="261.8164" y2="261.8164"/><line style="stroke: #A80036; stroke-width: 1.0;" x1="566" x2="566" y1="261.8164" y2="274.8164"/><line style="stroke: #A80036; stroke-width: 1.0;" x1="525" x2="566" y1="274.8164" y2="274.8164"/><polygon fill="#A80036" points="535,270.8164,525,274.8164,535,278.8164,531,274.8164" style="stroke: #A80036; stroke-width: 1.0;"/><text fill="#000000" font-family="SF Mono" font-size="13" lengthAdjust="spacingAndGlyphs" textLength="64" x="531" y="241.167">Hardware</text><text fill="#000000" font-family="SF Mono" font-size="13" lengthAdjust="spacingAndGlyphs" textLength="64" x="531" y="256.6807">encoding</text><polygon fill="#A80036" points="239.5,299.8164,229.5,303.8164,239.5,307.8164,235.5,303.8164" style="stroke: #A80036; stroke-width: 1.0;"/><line style="stroke: #A80036; stroke-width: 1.0;" x1="233.5" x2="523" y1="303.8164" y2="303.8164"/><text fill="#000000" font-family="SF Mono" font-size="13" lengthAdjust="spacingAndGlyphs" textLength="96" x="245.5" y="299.1943">jcuHandler()</text><line style="stroke: #A80036; stroke-width: 1.0;" x1="228.5" x2="275.5" y1="328.8438" y2="328.8438"/><line style="stroke: #A80036; stroke-width: 1.0;" x1="275.5" x2="275.5" y1="328.8438" y2="341.8438"/><line style="stroke: #A80036; stroke-width: 1.0;" x1="234.5" x2="275.5" y1="341.8438" y2="341.8438"/><polygon fill="#A80036" points="244.5,337.8438,234.5,341.8438,244.5,345.8438,240.5,341.8438" style="stroke: #A80036; stroke-width: 1.0;"/><text fill="#000000" font-family="SF Mono" font-size="13" lengthAdjust="spacingAndGlyphs" textLength="136" x="240.5" y="323.708">Notify completion</text><polygon fill="#A80036" points="77.5,387.8438,67.5,391.8438,77.5,395.8438,73.5,391.8438" style="stroke: #A80036; stroke-width: 1.0;"/><line style="stroke: #A80036; stroke-width: 1.0;" x1="71.5" x2="222.5" y1="391.8438" y2="391.8438"/><text fill="#000000" font-family="SF Mono" font-size="13" lengthAdjust="spacingAndGlyphs" textLength="120" x="83.5" y="371.2217">videoConverter_</text><text fill="#000000" font-family="SF Mono" font-size="13" lengthAdjust="spacingAndGlyphs" textLength="128" x="83.5" y="386.7354">imageAvailable()</text><!--
@startuml
skinparam defaultFontName SF Mono

AppDelegate -> VideoConverter: start()
activate VideoConverter
VideoConverter -> DisplayBase: Video_Start()
deactivate VideoConverter
DisplayBase -> DisplayBase: Hardware\nreading
DisplayBase -> VideoConverter: vfieldHandler()
activate VideoConverter
VideoConverter -> JPEG_Converter: encode()
deactivate VideoConverter
JPEG_Converter -> JPEG_Converter: Hardware\nencoding
JPEG_Converter -> VideoConverter: jcuHandler()
activate VideoConverter
VideoConverter -> VideoConverter: Notify completion
activate VideoConverter
VideoConverter -> AppDelegate: videoConverter_\nimageAvailable()
deactivate VideoConverter
deactivate VideoConverter

@enduml

PlantUML version 1.2017.16(Sun Sep 03 19:53:37 JST 2017)
(GPL source distribution)
Java Runtime: Java(TM) SE Runtime Environment
JVM: Java HotSpot(TM) 64-Bit Server VM
Java Version: 1.8.0_66-b17
Operating System: Mac OS X
OS Version: 10.12.6
Default Encoding: UTF-8
Language: ja
Country: JP
--></g></svg>